%TF.GenerationSoftware,KiCad,Pcbnew,8.0.4*%
%TF.CreationDate,2024-09-20T16:10:16-06:00*%
%TF.ProjectId,Subsystem SPI Breakout v3,53756273-7973-4746-956d-205350492042,rev?*%
%TF.SameCoordinates,Original*%
%TF.FileFunction,Legend,Bot*%
%TF.FilePolarity,Positive*%
%FSLAX46Y46*%
G04 Gerber Fmt 4.6, Leading zero omitted, Abs format (unit mm)*
G04 Created by KiCad (PCBNEW 8.0.4) date 2024-09-20 16:10:16*
%MOMM*%
%LPD*%
G01*
G04 APERTURE LIST*
G04 Aperture macros list*
%AMRoundRect*
0 Rectangle with rounded corners*
0 $1 Rounding radius*
0 $2 $3 $4 $5 $6 $7 $8 $9 X,Y pos of 4 corners*
0 Add a 4 corners polygon primitive as box body*
4,1,4,$2,$3,$4,$5,$6,$7,$8,$9,$2,$3,0*
0 Add four circle primitives for the rounded corners*
1,1,$1+$1,$2,$3*
1,1,$1+$1,$4,$5*
1,1,$1+$1,$6,$7*
1,1,$1+$1,$8,$9*
0 Add four rect primitives between the rounded corners*
20,1,$1+$1,$2,$3,$4,$5,0*
20,1,$1+$1,$4,$5,$6,$7,0*
20,1,$1+$1,$6,$7,$8,$9,0*
20,1,$1+$1,$8,$9,$2,$3,0*%
G04 Aperture macros list end*
%ADD10C,0.100000*%
%ADD11C,0.200000*%
%ADD12C,1.982000*%
%ADD13C,1.524000*%
%ADD14R,1.500000X1.050000*%
%ADD15O,1.500000X1.050000*%
%ADD16C,1.905000*%
%ADD17R,3.000000X3.000000*%
%ADD18C,3.000000*%
%ADD19RoundRect,0.102000X0.889000X0.889000X-0.889000X0.889000X-0.889000X-0.889000X0.889000X-0.889000X0*%
%ADD20C,2.794000*%
%ADD21R,1.524000X1.524000*%
G04 APERTURE END LIST*
D10*
X181205544Y-109781459D02*
X181120877Y-109866125D01*
X181120877Y-109866125D02*
X180951544Y-109950792D01*
X180951544Y-109950792D02*
X180528211Y-109950792D01*
X180528211Y-109950792D02*
X180358877Y-109866125D01*
X180358877Y-109866125D02*
X180274211Y-109781459D01*
X180274211Y-109781459D02*
X180189544Y-109612125D01*
X180189544Y-109612125D02*
X180189544Y-109442792D01*
X180189544Y-109442792D02*
X180274211Y-109188792D01*
X180274211Y-109188792D02*
X181290211Y-108172792D01*
X181290211Y-108172792D02*
X180189544Y-108172792D01*
X179427544Y-108342125D02*
X179342878Y-108257459D01*
X179342878Y-108257459D02*
X179427544Y-108172792D01*
X179427544Y-108172792D02*
X179512211Y-108257459D01*
X179512211Y-108257459D02*
X179427544Y-108342125D01*
X179427544Y-108342125D02*
X179427544Y-108172792D01*
X178326877Y-109188792D02*
X178496211Y-109273459D01*
X178496211Y-109273459D02*
X178580877Y-109358125D01*
X178580877Y-109358125D02*
X178665544Y-109527459D01*
X178665544Y-109527459D02*
X178665544Y-109612125D01*
X178665544Y-109612125D02*
X178580877Y-109781459D01*
X178580877Y-109781459D02*
X178496211Y-109866125D01*
X178496211Y-109866125D02*
X178326877Y-109950792D01*
X178326877Y-109950792D02*
X177988211Y-109950792D01*
X177988211Y-109950792D02*
X177818877Y-109866125D01*
X177818877Y-109866125D02*
X177734211Y-109781459D01*
X177734211Y-109781459D02*
X177649544Y-109612125D01*
X177649544Y-109612125D02*
X177649544Y-109527459D01*
X177649544Y-109527459D02*
X177734211Y-109358125D01*
X177734211Y-109358125D02*
X177818877Y-109273459D01*
X177818877Y-109273459D02*
X177988211Y-109188792D01*
X177988211Y-109188792D02*
X178326877Y-109188792D01*
X178326877Y-109188792D02*
X178496211Y-109104125D01*
X178496211Y-109104125D02*
X178580877Y-109019459D01*
X178580877Y-109019459D02*
X178665544Y-108850125D01*
X178665544Y-108850125D02*
X178665544Y-108511459D01*
X178665544Y-108511459D02*
X178580877Y-108342125D01*
X178580877Y-108342125D02*
X178496211Y-108257459D01*
X178496211Y-108257459D02*
X178326877Y-108172792D01*
X178326877Y-108172792D02*
X177988211Y-108172792D01*
X177988211Y-108172792D02*
X177818877Y-108257459D01*
X177818877Y-108257459D02*
X177734211Y-108342125D01*
X177734211Y-108342125D02*
X177649544Y-108511459D01*
X177649544Y-108511459D02*
X177649544Y-108850125D01*
X177649544Y-108850125D02*
X177734211Y-109019459D01*
X177734211Y-109019459D02*
X177818877Y-109104125D01*
X177818877Y-109104125D02*
X177988211Y-109188792D01*
X176972211Y-109950792D02*
X176972211Y-109612125D01*
X176294878Y-109950792D02*
X176294878Y-109612125D01*
X174432210Y-109950792D02*
X173416210Y-109950792D01*
X173924210Y-108172792D02*
X173924210Y-109950792D01*
X172230877Y-109104125D02*
X172823543Y-109104125D01*
X172823543Y-108172792D02*
X172823543Y-109950792D01*
X172823543Y-109950792D02*
X171976877Y-109950792D01*
X171553543Y-109950792D02*
X170537543Y-109950792D01*
X171045543Y-108172792D02*
X171045543Y-109950792D01*
X168674876Y-108257459D02*
X168420876Y-108172792D01*
X168420876Y-108172792D02*
X167997543Y-108172792D01*
X167997543Y-108172792D02*
X167828209Y-108257459D01*
X167828209Y-108257459D02*
X167743543Y-108342125D01*
X167743543Y-108342125D02*
X167658876Y-108511459D01*
X167658876Y-108511459D02*
X167658876Y-108680792D01*
X167658876Y-108680792D02*
X167743543Y-108850125D01*
X167743543Y-108850125D02*
X167828209Y-108934792D01*
X167828209Y-108934792D02*
X167997543Y-109019459D01*
X167997543Y-109019459D02*
X168336209Y-109104125D01*
X168336209Y-109104125D02*
X168505543Y-109188792D01*
X168505543Y-109188792D02*
X168590209Y-109273459D01*
X168590209Y-109273459D02*
X168674876Y-109442792D01*
X168674876Y-109442792D02*
X168674876Y-109612125D01*
X168674876Y-109612125D02*
X168590209Y-109781459D01*
X168590209Y-109781459D02*
X168505543Y-109866125D01*
X168505543Y-109866125D02*
X168336209Y-109950792D01*
X168336209Y-109950792D02*
X167912876Y-109950792D01*
X167912876Y-109950792D02*
X167658876Y-109866125D01*
X166134876Y-108257459D02*
X166304210Y-108172792D01*
X166304210Y-108172792D02*
X166642876Y-108172792D01*
X166642876Y-108172792D02*
X166812210Y-108257459D01*
X166812210Y-108257459D02*
X166896876Y-108342125D01*
X166896876Y-108342125D02*
X166981543Y-108511459D01*
X166981543Y-108511459D02*
X166981543Y-109019459D01*
X166981543Y-109019459D02*
X166896876Y-109188792D01*
X166896876Y-109188792D02*
X166812210Y-109273459D01*
X166812210Y-109273459D02*
X166642876Y-109358125D01*
X166642876Y-109358125D02*
X166304210Y-109358125D01*
X166304210Y-109358125D02*
X166134876Y-109273459D01*
X165372876Y-108172792D02*
X165372876Y-109358125D01*
X165372876Y-109019459D02*
X165288210Y-109188792D01*
X165288210Y-109188792D02*
X165203543Y-109273459D01*
X165203543Y-109273459D02*
X165034210Y-109358125D01*
X165034210Y-109358125D02*
X164864876Y-109358125D01*
X163594876Y-108257459D02*
X163764209Y-108172792D01*
X163764209Y-108172792D02*
X164102876Y-108172792D01*
X164102876Y-108172792D02*
X164272209Y-108257459D01*
X164272209Y-108257459D02*
X164356876Y-108426792D01*
X164356876Y-108426792D02*
X164356876Y-109104125D01*
X164356876Y-109104125D02*
X164272209Y-109273459D01*
X164272209Y-109273459D02*
X164102876Y-109358125D01*
X164102876Y-109358125D02*
X163764209Y-109358125D01*
X163764209Y-109358125D02*
X163594876Y-109273459D01*
X163594876Y-109273459D02*
X163510209Y-109104125D01*
X163510209Y-109104125D02*
X163510209Y-108934792D01*
X163510209Y-108934792D02*
X164356876Y-108765459D01*
X162070876Y-108257459D02*
X162240209Y-108172792D01*
X162240209Y-108172792D02*
X162578876Y-108172792D01*
X162578876Y-108172792D02*
X162748209Y-108257459D01*
X162748209Y-108257459D02*
X162832876Y-108426792D01*
X162832876Y-108426792D02*
X162832876Y-109104125D01*
X162832876Y-109104125D02*
X162748209Y-109273459D01*
X162748209Y-109273459D02*
X162578876Y-109358125D01*
X162578876Y-109358125D02*
X162240209Y-109358125D01*
X162240209Y-109358125D02*
X162070876Y-109273459D01*
X162070876Y-109273459D02*
X161986209Y-109104125D01*
X161986209Y-109104125D02*
X161986209Y-108934792D01*
X161986209Y-108934792D02*
X162832876Y-108765459D01*
X161224209Y-109358125D02*
X161224209Y-108172792D01*
X161224209Y-109188792D02*
X161139543Y-109273459D01*
X161139543Y-109273459D02*
X160970209Y-109358125D01*
X160970209Y-109358125D02*
X160716209Y-109358125D01*
X160716209Y-109358125D02*
X160546876Y-109273459D01*
X160546876Y-109273459D02*
X160462209Y-109104125D01*
X160462209Y-109104125D02*
X160462209Y-108172792D01*
X158345542Y-109781459D02*
X158260875Y-109866125D01*
X158260875Y-109866125D02*
X158091542Y-109950792D01*
X158091542Y-109950792D02*
X157668209Y-109950792D01*
X157668209Y-109950792D02*
X157498875Y-109866125D01*
X157498875Y-109866125D02*
X157414209Y-109781459D01*
X157414209Y-109781459D02*
X157329542Y-109612125D01*
X157329542Y-109612125D02*
X157329542Y-109442792D01*
X157329542Y-109442792D02*
X157414209Y-109188792D01*
X157414209Y-109188792D02*
X158430209Y-108172792D01*
X158430209Y-108172792D02*
X157329542Y-108172792D01*
X155805542Y-109358125D02*
X155805542Y-108172792D01*
X156228876Y-110035459D02*
X156652209Y-108765459D01*
X156652209Y-108765459D02*
X155551542Y-108765459D01*
X154535543Y-109950792D02*
X154366209Y-109950792D01*
X154366209Y-109950792D02*
X154196876Y-109866125D01*
X154196876Y-109866125D02*
X154112209Y-109781459D01*
X154112209Y-109781459D02*
X154027543Y-109612125D01*
X154027543Y-109612125D02*
X153942876Y-109273459D01*
X153942876Y-109273459D02*
X153942876Y-108850125D01*
X153942876Y-108850125D02*
X154027543Y-108511459D01*
X154027543Y-108511459D02*
X154112209Y-108342125D01*
X154112209Y-108342125D02*
X154196876Y-108257459D01*
X154196876Y-108257459D02*
X154366209Y-108172792D01*
X154366209Y-108172792D02*
X154535543Y-108172792D01*
X154535543Y-108172792D02*
X154704876Y-108257459D01*
X154704876Y-108257459D02*
X154789543Y-108342125D01*
X154789543Y-108342125D02*
X154874209Y-108511459D01*
X154874209Y-108511459D02*
X154958876Y-108850125D01*
X154958876Y-108850125D02*
X154958876Y-109273459D01*
X154958876Y-109273459D02*
X154874209Y-109612125D01*
X154874209Y-109612125D02*
X154789543Y-109781459D01*
X154789543Y-109781459D02*
X154704876Y-109866125D01*
X154704876Y-109866125D02*
X154535543Y-109950792D01*
X153350210Y-108172792D02*
X152418876Y-109358125D01*
X153350210Y-109358125D02*
X152418876Y-108172792D01*
X151910877Y-109950792D02*
X150810210Y-109950792D01*
X150810210Y-109950792D02*
X151402877Y-109273459D01*
X151402877Y-109273459D02*
X151148877Y-109273459D01*
X151148877Y-109273459D02*
X150979543Y-109188792D01*
X150979543Y-109188792D02*
X150894877Y-109104125D01*
X150894877Y-109104125D02*
X150810210Y-108934792D01*
X150810210Y-108934792D02*
X150810210Y-108511459D01*
X150810210Y-108511459D02*
X150894877Y-108342125D01*
X150894877Y-108342125D02*
X150979543Y-108257459D01*
X150979543Y-108257459D02*
X151148877Y-108172792D01*
X151148877Y-108172792D02*
X151656877Y-108172792D01*
X151656877Y-108172792D02*
X151826210Y-108257459D01*
X151826210Y-108257459D02*
X151910877Y-108342125D01*
X150132877Y-109781459D02*
X150048210Y-109866125D01*
X150048210Y-109866125D02*
X149878877Y-109950792D01*
X149878877Y-109950792D02*
X149455544Y-109950792D01*
X149455544Y-109950792D02*
X149286210Y-109866125D01*
X149286210Y-109866125D02*
X149201544Y-109781459D01*
X149201544Y-109781459D02*
X149116877Y-109612125D01*
X149116877Y-109612125D02*
X149116877Y-109442792D01*
X149116877Y-109442792D02*
X149201544Y-109188792D01*
X149201544Y-109188792D02*
X150217544Y-108172792D01*
X150217544Y-108172792D02*
X149116877Y-108172792D01*
X148016211Y-109950792D02*
X147846877Y-109950792D01*
X147846877Y-109950792D02*
X147677544Y-109866125D01*
X147677544Y-109866125D02*
X147592877Y-109781459D01*
X147592877Y-109781459D02*
X147508211Y-109612125D01*
X147508211Y-109612125D02*
X147423544Y-109273459D01*
X147423544Y-109273459D02*
X147423544Y-108850125D01*
X147423544Y-108850125D02*
X147508211Y-108511459D01*
X147508211Y-108511459D02*
X147592877Y-108342125D01*
X147592877Y-108342125D02*
X147677544Y-108257459D01*
X147677544Y-108257459D02*
X147846877Y-108172792D01*
X147846877Y-108172792D02*
X148016211Y-108172792D01*
X148016211Y-108172792D02*
X148185544Y-108257459D01*
X148185544Y-108257459D02*
X148270211Y-108342125D01*
X148270211Y-108342125D02*
X148354877Y-108511459D01*
X148354877Y-108511459D02*
X148439544Y-108850125D01*
X148439544Y-108850125D02*
X148439544Y-109273459D01*
X148439544Y-109273459D02*
X148354877Y-109612125D01*
X148354877Y-109612125D02*
X148270211Y-109781459D01*
X148270211Y-109781459D02*
X148185544Y-109866125D01*
X148185544Y-109866125D02*
X148016211Y-109950792D01*
X145476211Y-109950792D02*
X145052877Y-108172792D01*
X145052877Y-108172792D02*
X144714211Y-109442792D01*
X144714211Y-109442792D02*
X144375544Y-108172792D01*
X144375544Y-108172792D02*
X143952211Y-109950792D01*
X143274877Y-108172792D02*
X143274877Y-109358125D01*
X143274877Y-109950792D02*
X143359544Y-109866125D01*
X143359544Y-109866125D02*
X143274877Y-109781459D01*
X143274877Y-109781459D02*
X143190211Y-109866125D01*
X143190211Y-109866125D02*
X143274877Y-109950792D01*
X143274877Y-109950792D02*
X143274877Y-109781459D01*
X142682210Y-109358125D02*
X142004877Y-109358125D01*
X142428210Y-109950792D02*
X142428210Y-108426792D01*
X142428210Y-108426792D02*
X142343544Y-108257459D01*
X142343544Y-108257459D02*
X142174210Y-108172792D01*
X142174210Y-108172792D02*
X142004877Y-108172792D01*
X141412210Y-108172792D02*
X141412210Y-109950792D01*
X140650210Y-108172792D02*
X140650210Y-109104125D01*
X140650210Y-109104125D02*
X140734877Y-109273459D01*
X140734877Y-109273459D02*
X140904210Y-109358125D01*
X140904210Y-109358125D02*
X141158210Y-109358125D01*
X141158210Y-109358125D02*
X141327544Y-109273459D01*
X141327544Y-109273459D02*
X141412210Y-109188792D01*
X138533543Y-108257459D02*
X138279543Y-108172792D01*
X138279543Y-108172792D02*
X137856210Y-108172792D01*
X137856210Y-108172792D02*
X137686876Y-108257459D01*
X137686876Y-108257459D02*
X137602210Y-108342125D01*
X137602210Y-108342125D02*
X137517543Y-108511459D01*
X137517543Y-108511459D02*
X137517543Y-108680792D01*
X137517543Y-108680792D02*
X137602210Y-108850125D01*
X137602210Y-108850125D02*
X137686876Y-108934792D01*
X137686876Y-108934792D02*
X137856210Y-109019459D01*
X137856210Y-109019459D02*
X138194876Y-109104125D01*
X138194876Y-109104125D02*
X138364210Y-109188792D01*
X138364210Y-109188792D02*
X138448876Y-109273459D01*
X138448876Y-109273459D02*
X138533543Y-109442792D01*
X138533543Y-109442792D02*
X138533543Y-109612125D01*
X138533543Y-109612125D02*
X138448876Y-109781459D01*
X138448876Y-109781459D02*
X138364210Y-109866125D01*
X138364210Y-109866125D02*
X138194876Y-109950792D01*
X138194876Y-109950792D02*
X137771543Y-109950792D01*
X137771543Y-109950792D02*
X137517543Y-109866125D01*
X136755543Y-108172792D02*
X136755543Y-109950792D01*
X136755543Y-109950792D02*
X136332210Y-109950792D01*
X136332210Y-109950792D02*
X136078210Y-109866125D01*
X136078210Y-109866125D02*
X135908877Y-109696792D01*
X135908877Y-109696792D02*
X135824210Y-109527459D01*
X135824210Y-109527459D02*
X135739543Y-109188792D01*
X135739543Y-109188792D02*
X135739543Y-108934792D01*
X135739543Y-108934792D02*
X135824210Y-108596125D01*
X135824210Y-108596125D02*
X135908877Y-108426792D01*
X135908877Y-108426792D02*
X136078210Y-108257459D01*
X136078210Y-108257459D02*
X136332210Y-108172792D01*
X136332210Y-108172792D02*
X136755543Y-108172792D01*
X132606876Y-108172792D02*
X133199543Y-109019459D01*
X133622876Y-108172792D02*
X133622876Y-109950792D01*
X133622876Y-109950792D02*
X132945543Y-109950792D01*
X132945543Y-109950792D02*
X132776210Y-109866125D01*
X132776210Y-109866125D02*
X132691543Y-109781459D01*
X132691543Y-109781459D02*
X132606876Y-109612125D01*
X132606876Y-109612125D02*
X132606876Y-109358125D01*
X132606876Y-109358125D02*
X132691543Y-109188792D01*
X132691543Y-109188792D02*
X132776210Y-109104125D01*
X132776210Y-109104125D02*
X132945543Y-109019459D01*
X132945543Y-109019459D02*
X133622876Y-109019459D01*
X131167543Y-108257459D02*
X131336876Y-108172792D01*
X131336876Y-108172792D02*
X131675543Y-108172792D01*
X131675543Y-108172792D02*
X131844876Y-108257459D01*
X131844876Y-108257459D02*
X131929543Y-108426792D01*
X131929543Y-108426792D02*
X131929543Y-109104125D01*
X131929543Y-109104125D02*
X131844876Y-109273459D01*
X131844876Y-109273459D02*
X131675543Y-109358125D01*
X131675543Y-109358125D02*
X131336876Y-109358125D01*
X131336876Y-109358125D02*
X131167543Y-109273459D01*
X131167543Y-109273459D02*
X131082876Y-109104125D01*
X131082876Y-109104125D02*
X131082876Y-108934792D01*
X131082876Y-108934792D02*
X131929543Y-108765459D01*
X129558876Y-108172792D02*
X129558876Y-109104125D01*
X129558876Y-109104125D02*
X129643543Y-109273459D01*
X129643543Y-109273459D02*
X129812876Y-109358125D01*
X129812876Y-109358125D02*
X130151543Y-109358125D01*
X130151543Y-109358125D02*
X130320876Y-109273459D01*
X129558876Y-108257459D02*
X129728210Y-108172792D01*
X129728210Y-108172792D02*
X130151543Y-108172792D01*
X130151543Y-108172792D02*
X130320876Y-108257459D01*
X130320876Y-108257459D02*
X130405543Y-108426792D01*
X130405543Y-108426792D02*
X130405543Y-108596125D01*
X130405543Y-108596125D02*
X130320876Y-108765459D01*
X130320876Y-108765459D02*
X130151543Y-108850125D01*
X130151543Y-108850125D02*
X129728210Y-108850125D01*
X129728210Y-108850125D02*
X129558876Y-108934792D01*
X127950209Y-108172792D02*
X127950209Y-109950792D01*
X127950209Y-108257459D02*
X128119543Y-108172792D01*
X128119543Y-108172792D02*
X128458209Y-108172792D01*
X128458209Y-108172792D02*
X128627543Y-108257459D01*
X128627543Y-108257459D02*
X128712209Y-108342125D01*
X128712209Y-108342125D02*
X128796876Y-108511459D01*
X128796876Y-108511459D02*
X128796876Y-109019459D01*
X128796876Y-109019459D02*
X128712209Y-109188792D01*
X128712209Y-109188792D02*
X128627543Y-109273459D01*
X128627543Y-109273459D02*
X128458209Y-109358125D01*
X128458209Y-109358125D02*
X128119543Y-109358125D01*
X128119543Y-109358125D02*
X127950209Y-109273459D01*
X126426209Y-108257459D02*
X126595542Y-108172792D01*
X126595542Y-108172792D02*
X126934209Y-108172792D01*
X126934209Y-108172792D02*
X127103542Y-108257459D01*
X127103542Y-108257459D02*
X127188209Y-108426792D01*
X127188209Y-108426792D02*
X127188209Y-109104125D01*
X127188209Y-109104125D02*
X127103542Y-109273459D01*
X127103542Y-109273459D02*
X126934209Y-109358125D01*
X126934209Y-109358125D02*
X126595542Y-109358125D01*
X126595542Y-109358125D02*
X126426209Y-109273459D01*
X126426209Y-109273459D02*
X126341542Y-109104125D01*
X126341542Y-109104125D02*
X126341542Y-108934792D01*
X126341542Y-108934792D02*
X127188209Y-108765459D01*
X125579542Y-108172792D02*
X125579542Y-109358125D01*
X125579542Y-109019459D02*
X125494876Y-109188792D01*
X125494876Y-109188792D02*
X125410209Y-109273459D01*
X125410209Y-109273459D02*
X125240876Y-109358125D01*
X125240876Y-109358125D02*
X125071542Y-109358125D01*
%TO.C,U2*%
X133910000Y-68580000D02*
X135180000Y-69850000D01*
X133910000Y-73660000D02*
X133910000Y-68580000D01*
X135180000Y-69850000D02*
X135180000Y-74930000D01*
X135180000Y-69850000D02*
X161850000Y-69850000D01*
X135180000Y-74930000D02*
X133910000Y-73660000D01*
X136450000Y-83820000D02*
X136450000Y-76200000D01*
X137720000Y-77470000D02*
X135180000Y-74930000D01*
X137720000Y-85090000D02*
X136450000Y-83820000D01*
X137720000Y-85090000D02*
X137720000Y-77470000D01*
X137720000Y-85090000D02*
X161850000Y-85090000D01*
X161850000Y-69850000D02*
X160580000Y-68580000D01*
X161850000Y-85090000D02*
X161850000Y-69850000D01*
D11*
X185980000Y-121920000D02*
X112320000Y-121920000D01*
X112320000Y-68580000D01*
X185980000Y-68580000D01*
X185980000Y-121920000D01*
X198680000Y-121920000D02*
X105970000Y-121920000D01*
X105970000Y-68580000D01*
X198680000Y-68580000D01*
X198680000Y-121920000D01*
%TD*%
%LPC*%
D12*
%TO.C,R5*%
X118110000Y-78740000D03*
X118110000Y-71120000D03*
%TD*%
%TO.C,R9*%
X172720000Y-99060000D03*
X180340000Y-99060000D03*
%TD*%
D13*
%TO.C,Brightness Adjust1*%
X182880000Y-99060000D03*
X193040000Y-96520000D03*
X193040000Y-101600000D03*
%TD*%
D12*
%TO.C,R16*%
X134620000Y-111760000D03*
X134620000Y-119380000D03*
%TD*%
%TO.C,R10*%
X148590000Y-78740000D03*
X148590000Y-71120000D03*
%TD*%
D14*
%TO.C,CS_SD1*%
X139700000Y-71120000D03*
D15*
X139700000Y-72390000D03*
X139700000Y-73660000D03*
%TD*%
D14*
%TO.C,DC1*%
X170180000Y-71120000D03*
D15*
X170180000Y-72390000D03*
X170180000Y-73660000D03*
%TD*%
D12*
%TO.C,R1*%
X181610000Y-110490000D03*
X181610000Y-118110000D03*
%TD*%
%TO.C,R17*%
X129540000Y-104140000D03*
X129540000Y-111760000D03*
%TD*%
%TO.C,R14*%
X132080000Y-78740000D03*
X132080000Y-71120000D03*
%TD*%
%TO.C,R11*%
X154940000Y-85090000D03*
X154940000Y-77470000D03*
%TD*%
D14*
%TO.C,RESET1*%
X146050000Y-118110000D03*
D15*
X146050000Y-116840000D03*
X146050000Y-115570000D03*
%TD*%
D12*
%TO.C,R6*%
X124460000Y-85090000D03*
X124460000Y-77470000D03*
%TD*%
D14*
%TO.C,MISO1*%
X124460000Y-71120000D03*
D15*
X124460000Y-72390000D03*
X124460000Y-73660000D03*
%TD*%
D16*
%TO.C,U1*%
X194310000Y-118110000D03*
%TD*%
D17*
%TO.C,LS1*%
X120650000Y-116840000D03*
D18*
X115570000Y-116840000D03*
%TD*%
D12*
%TO.C,R15*%
X139700000Y-85090000D03*
X139700000Y-77470000D03*
%TD*%
D19*
%TO.C,C1*%
X154940000Y-96520000D03*
D12*
X152400000Y-96520000D03*
X149860000Y-96520000D03*
X144780000Y-93980000D03*
X144780000Y-96520000D03*
X142240000Y-96520000D03*
X147320000Y-96520000D03*
X147320000Y-93980000D03*
X154940000Y-93980000D03*
X149860000Y-93980000D03*
X152400000Y-93980000D03*
X142240000Y-93980000D03*
%TD*%
D14*
%TO.C,MOSI1*%
X161290000Y-118110000D03*
D15*
X161290000Y-116840000D03*
X161290000Y-115570000D03*
%TD*%
D12*
%TO.C,R12*%
X163830000Y-80010000D03*
X163830000Y-72390000D03*
%TD*%
%TO.C,R2*%
X176530000Y-104140000D03*
X176530000Y-111760000D03*
%TD*%
D14*
%TO.C,Amplifying Transistor1*%
X119380000Y-104140000D03*
D15*
X119380000Y-105410000D03*
X119380000Y-106680000D03*
%TD*%
D12*
%TO.C,R7*%
X113030000Y-102870000D03*
X113030000Y-110490000D03*
%TD*%
%TO.C,R13*%
X170180000Y-85090000D03*
X170180000Y-77470000D03*
%TD*%
%TO.C,R19*%
X146050000Y-104140000D03*
X146050000Y-111760000D03*
%TD*%
D14*
%TO.C,CS_TFT1*%
X154940000Y-71120000D03*
D15*
X154940000Y-72390000D03*
X154940000Y-73660000D03*
%TD*%
D14*
%TO.C,SCK1*%
X176530000Y-118110000D03*
D15*
X176530000Y-116840000D03*
X176530000Y-115570000D03*
%TD*%
D12*
%TO.C,R3*%
X166370000Y-110490000D03*
X166370000Y-118110000D03*
%TD*%
%TO.C,R18*%
X151130000Y-110490000D03*
X151130000Y-118110000D03*
%TD*%
%TO.C,R8*%
X125730000Y-105410000D03*
X125730000Y-97790000D03*
%TD*%
%TO.C,R4*%
X161290000Y-104140000D03*
X161290000Y-111760000D03*
%TD*%
D20*
%TO.C,U2*%
X191060000Y-113030000D03*
X191060000Y-77470000D03*
X108510000Y-113030000D03*
X108510000Y-77470000D03*
D13*
X196140000Y-83820000D03*
X196140000Y-88900000D03*
X196140000Y-81280000D03*
X196140000Y-96520000D03*
X196140000Y-86360000D03*
X196140000Y-93980000D03*
X196140000Y-91440000D03*
X196140000Y-99060000D03*
D21*
X108510000Y-91440000D03*
D13*
X108510000Y-96520000D03*
X108510000Y-93980000D03*
X108510000Y-99060000D03*
X196140000Y-101600000D03*
X196140000Y-104140000D03*
X196140000Y-106680000D03*
X196140000Y-109220000D03*
X196140000Y-111760000D03*
D21*
X196140000Y-78740000D03*
%TD*%
D14*
%TO.C,CS_Touch1*%
X129540000Y-118110000D03*
D15*
X129540000Y-116840000D03*
X129540000Y-115570000D03*
%TD*%
%LPD*%
M02*
