%TF.GenerationSoftware,KiCad,Pcbnew,8.0.4*%
%TF.CreationDate,2024-09-20T16:26:43-06:00*%
%TF.ProjectId,Subsystem SPI Breakout v3,53756273-7973-4746-956d-205350492042,rev?*%
%TF.SameCoordinates,Original*%
%TF.FileFunction,Legend,Top*%
%TF.FilePolarity,Positive*%
%FSLAX46Y46*%
G04 Gerber Fmt 4.6, Leading zero omitted, Abs format (unit mm)*
G04 Created by KiCad (PCBNEW 8.0.4) date 2024-09-20 16:26:43*
%MOMM*%
%LPD*%
G01*
G04 APERTURE LIST*
G04 Aperture macros list*
%AMRoundRect*
0 Rectangle with rounded corners*
0 $1 Rounding radius*
0 $2 $3 $4 $5 $6 $7 $8 $9 X,Y pos of 4 corners*
0 Add a 4 corners polygon primitive as box body*
4,1,4,$2,$3,$4,$5,$6,$7,$8,$9,$2,$3,0*
0 Add four circle primitives for the rounded corners*
1,1,$1+$1,$2,$3*
1,1,$1+$1,$4,$5*
1,1,$1+$1,$6,$7*
1,1,$1+$1,$8,$9*
0 Add four rect primitives between the rounded corners*
20,1,$1+$1,$2,$3,$4,$5,0*
20,1,$1+$1,$4,$5,$6,$7,0*
20,1,$1+$1,$6,$7,$8,$9,0*
20,1,$1+$1,$8,$9,$2,$3,0*%
G04 Aperture macros list end*
%ADD10C,0.300000*%
%ADD11C,0.100000*%
%ADD12C,0.150000*%
%ADD13C,0.063500*%
%ADD14C,0.127000*%
%ADD15C,0.120000*%
%ADD16C,2.794000*%
%ADD17C,1.524000*%
%ADD18R,1.524000X1.524000*%
%ADD19C,1.982000*%
%ADD20R,1.500000X1.050000*%
%ADD21O,1.500000X1.050000*%
%ADD22C,1.905000*%
%ADD23R,3.000000X3.000000*%
%ADD24C,3.000000*%
%ADD25RoundRect,0.102000X0.889000X0.889000X-0.889000X0.889000X-0.889000X-0.889000X0.889000X-0.889000X0*%
G04 APERTURE END LIST*
D10*
X166067618Y-88884613D02*
X166249047Y-88945089D01*
X166249047Y-88945089D02*
X166551428Y-88945089D01*
X166551428Y-88945089D02*
X166672380Y-88884613D01*
X166672380Y-88884613D02*
X166732856Y-88824136D01*
X166732856Y-88824136D02*
X166793333Y-88703184D01*
X166793333Y-88703184D02*
X166793333Y-88582232D01*
X166793333Y-88582232D02*
X166732856Y-88461279D01*
X166732856Y-88461279D02*
X166672380Y-88400803D01*
X166672380Y-88400803D02*
X166551428Y-88340327D01*
X166551428Y-88340327D02*
X166309523Y-88279851D01*
X166309523Y-88279851D02*
X166188571Y-88219374D01*
X166188571Y-88219374D02*
X166128094Y-88158898D01*
X166128094Y-88158898D02*
X166067618Y-88037946D01*
X166067618Y-88037946D02*
X166067618Y-87916993D01*
X166067618Y-87916993D02*
X166128094Y-87796041D01*
X166128094Y-87796041D02*
X166188571Y-87735565D01*
X166188571Y-87735565D02*
X166309523Y-87675089D01*
X166309523Y-87675089D02*
X166611904Y-87675089D01*
X166611904Y-87675089D02*
X166793333Y-87735565D01*
X167337618Y-88945089D02*
X167337618Y-87675089D01*
X167337618Y-87675089D02*
X167821428Y-87675089D01*
X167821428Y-87675089D02*
X167942380Y-87735565D01*
X167942380Y-87735565D02*
X168002857Y-87796041D01*
X168002857Y-87796041D02*
X168063333Y-87916993D01*
X168063333Y-87916993D02*
X168063333Y-88098422D01*
X168063333Y-88098422D02*
X168002857Y-88219374D01*
X168002857Y-88219374D02*
X167942380Y-88279851D01*
X167942380Y-88279851D02*
X167821428Y-88340327D01*
X167821428Y-88340327D02*
X167337618Y-88340327D01*
X168607618Y-88945089D02*
X168607618Y-87675089D01*
X170603333Y-88279851D02*
X170784761Y-88340327D01*
X170784761Y-88340327D02*
X170845238Y-88400803D01*
X170845238Y-88400803D02*
X170905714Y-88521755D01*
X170905714Y-88521755D02*
X170905714Y-88703184D01*
X170905714Y-88703184D02*
X170845238Y-88824136D01*
X170845238Y-88824136D02*
X170784761Y-88884613D01*
X170784761Y-88884613D02*
X170663809Y-88945089D01*
X170663809Y-88945089D02*
X170179999Y-88945089D01*
X170179999Y-88945089D02*
X170179999Y-87675089D01*
X170179999Y-87675089D02*
X170603333Y-87675089D01*
X170603333Y-87675089D02*
X170724285Y-87735565D01*
X170724285Y-87735565D02*
X170784761Y-87796041D01*
X170784761Y-87796041D02*
X170845238Y-87916993D01*
X170845238Y-87916993D02*
X170845238Y-88037946D01*
X170845238Y-88037946D02*
X170784761Y-88158898D01*
X170784761Y-88158898D02*
X170724285Y-88219374D01*
X170724285Y-88219374D02*
X170603333Y-88279851D01*
X170603333Y-88279851D02*
X170179999Y-88279851D01*
X171449999Y-88945089D02*
X171449999Y-88098422D01*
X171449999Y-88340327D02*
X171510476Y-88219374D01*
X171510476Y-88219374D02*
X171570952Y-88158898D01*
X171570952Y-88158898D02*
X171691904Y-88098422D01*
X171691904Y-88098422D02*
X171812857Y-88098422D01*
X172719999Y-88884613D02*
X172599047Y-88945089D01*
X172599047Y-88945089D02*
X172357142Y-88945089D01*
X172357142Y-88945089D02*
X172236189Y-88884613D01*
X172236189Y-88884613D02*
X172175713Y-88763660D01*
X172175713Y-88763660D02*
X172175713Y-88279851D01*
X172175713Y-88279851D02*
X172236189Y-88158898D01*
X172236189Y-88158898D02*
X172357142Y-88098422D01*
X172357142Y-88098422D02*
X172599047Y-88098422D01*
X172599047Y-88098422D02*
X172719999Y-88158898D01*
X172719999Y-88158898D02*
X172780475Y-88279851D01*
X172780475Y-88279851D02*
X172780475Y-88400803D01*
X172780475Y-88400803D02*
X172175713Y-88521755D01*
X173869046Y-88945089D02*
X173869046Y-88279851D01*
X173869046Y-88279851D02*
X173808570Y-88158898D01*
X173808570Y-88158898D02*
X173687618Y-88098422D01*
X173687618Y-88098422D02*
X173445713Y-88098422D01*
X173445713Y-88098422D02*
X173324760Y-88158898D01*
X173869046Y-88884613D02*
X173748094Y-88945089D01*
X173748094Y-88945089D02*
X173445713Y-88945089D01*
X173445713Y-88945089D02*
X173324760Y-88884613D01*
X173324760Y-88884613D02*
X173264284Y-88763660D01*
X173264284Y-88763660D02*
X173264284Y-88642708D01*
X173264284Y-88642708D02*
X173324760Y-88521755D01*
X173324760Y-88521755D02*
X173445713Y-88461279D01*
X173445713Y-88461279D02*
X173748094Y-88461279D01*
X173748094Y-88461279D02*
X173869046Y-88400803D01*
X174473808Y-88945089D02*
X174473808Y-87675089D01*
X174594761Y-88461279D02*
X174957618Y-88945089D01*
X174957618Y-88098422D02*
X174473808Y-88582232D01*
X175683332Y-88945089D02*
X175562380Y-88884613D01*
X175562380Y-88884613D02*
X175501903Y-88824136D01*
X175501903Y-88824136D02*
X175441427Y-88703184D01*
X175441427Y-88703184D02*
X175441427Y-88340327D01*
X175441427Y-88340327D02*
X175501903Y-88219374D01*
X175501903Y-88219374D02*
X175562380Y-88158898D01*
X175562380Y-88158898D02*
X175683332Y-88098422D01*
X175683332Y-88098422D02*
X175864761Y-88098422D01*
X175864761Y-88098422D02*
X175985713Y-88158898D01*
X175985713Y-88158898D02*
X176046189Y-88219374D01*
X176046189Y-88219374D02*
X176106665Y-88340327D01*
X176106665Y-88340327D02*
X176106665Y-88703184D01*
X176106665Y-88703184D02*
X176046189Y-88824136D01*
X176046189Y-88824136D02*
X175985713Y-88884613D01*
X175985713Y-88884613D02*
X175864761Y-88945089D01*
X175864761Y-88945089D02*
X175683332Y-88945089D01*
X177195237Y-88098422D02*
X177195237Y-88945089D01*
X176650951Y-88098422D02*
X176650951Y-88763660D01*
X176650951Y-88763660D02*
X176711428Y-88884613D01*
X176711428Y-88884613D02*
X176832380Y-88945089D01*
X176832380Y-88945089D02*
X177013809Y-88945089D01*
X177013809Y-88945089D02*
X177134761Y-88884613D01*
X177134761Y-88884613D02*
X177195237Y-88824136D01*
X177618571Y-88098422D02*
X178102380Y-88098422D01*
X177799999Y-87675089D02*
X177799999Y-88763660D01*
X177799999Y-88763660D02*
X177860476Y-88884613D01*
X177860476Y-88884613D02*
X177981428Y-88945089D01*
X177981428Y-88945089D02*
X178102380Y-88945089D01*
X179916666Y-88279851D02*
X180098094Y-88340327D01*
X180098094Y-88340327D02*
X180158571Y-88400803D01*
X180158571Y-88400803D02*
X180219047Y-88521755D01*
X180219047Y-88521755D02*
X180219047Y-88703184D01*
X180219047Y-88703184D02*
X180158571Y-88824136D01*
X180158571Y-88824136D02*
X180098094Y-88884613D01*
X180098094Y-88884613D02*
X179977142Y-88945089D01*
X179977142Y-88945089D02*
X179493332Y-88945089D01*
X179493332Y-88945089D02*
X179493332Y-87675089D01*
X179493332Y-87675089D02*
X179916666Y-87675089D01*
X179916666Y-87675089D02*
X180037618Y-87735565D01*
X180037618Y-87735565D02*
X180098094Y-87796041D01*
X180098094Y-87796041D02*
X180158571Y-87916993D01*
X180158571Y-87916993D02*
X180158571Y-88037946D01*
X180158571Y-88037946D02*
X180098094Y-88158898D01*
X180098094Y-88158898D02*
X180037618Y-88219374D01*
X180037618Y-88219374D02*
X179916666Y-88279851D01*
X179916666Y-88279851D02*
X179493332Y-88279851D01*
X180944761Y-88945089D02*
X180823809Y-88884613D01*
X180823809Y-88884613D02*
X180763332Y-88824136D01*
X180763332Y-88824136D02*
X180702856Y-88703184D01*
X180702856Y-88703184D02*
X180702856Y-88340327D01*
X180702856Y-88340327D02*
X180763332Y-88219374D01*
X180763332Y-88219374D02*
X180823809Y-88158898D01*
X180823809Y-88158898D02*
X180944761Y-88098422D01*
X180944761Y-88098422D02*
X181126190Y-88098422D01*
X181126190Y-88098422D02*
X181247142Y-88158898D01*
X181247142Y-88158898D02*
X181307618Y-88219374D01*
X181307618Y-88219374D02*
X181368094Y-88340327D01*
X181368094Y-88340327D02*
X181368094Y-88703184D01*
X181368094Y-88703184D02*
X181307618Y-88824136D01*
X181307618Y-88824136D02*
X181247142Y-88884613D01*
X181247142Y-88884613D02*
X181126190Y-88945089D01*
X181126190Y-88945089D02*
X180944761Y-88945089D01*
X182456666Y-88945089D02*
X182456666Y-88279851D01*
X182456666Y-88279851D02*
X182396190Y-88158898D01*
X182396190Y-88158898D02*
X182275238Y-88098422D01*
X182275238Y-88098422D02*
X182033333Y-88098422D01*
X182033333Y-88098422D02*
X181912380Y-88158898D01*
X182456666Y-88884613D02*
X182335714Y-88945089D01*
X182335714Y-88945089D02*
X182033333Y-88945089D01*
X182033333Y-88945089D02*
X181912380Y-88884613D01*
X181912380Y-88884613D02*
X181851904Y-88763660D01*
X181851904Y-88763660D02*
X181851904Y-88642708D01*
X181851904Y-88642708D02*
X181912380Y-88521755D01*
X181912380Y-88521755D02*
X182033333Y-88461279D01*
X182033333Y-88461279D02*
X182335714Y-88461279D01*
X182335714Y-88461279D02*
X182456666Y-88400803D01*
X183061428Y-88945089D02*
X183061428Y-88098422D01*
X183061428Y-88340327D02*
X183121905Y-88219374D01*
X183121905Y-88219374D02*
X183182381Y-88158898D01*
X183182381Y-88158898D02*
X183303333Y-88098422D01*
X183303333Y-88098422D02*
X183424286Y-88098422D01*
X184391904Y-88945089D02*
X184391904Y-87675089D01*
X184391904Y-88884613D02*
X184270952Y-88945089D01*
X184270952Y-88945089D02*
X184029047Y-88945089D01*
X184029047Y-88945089D02*
X183908095Y-88884613D01*
X183908095Y-88884613D02*
X183847618Y-88824136D01*
X183847618Y-88824136D02*
X183787142Y-88703184D01*
X183787142Y-88703184D02*
X183787142Y-88340327D01*
X183787142Y-88340327D02*
X183847618Y-88219374D01*
X183847618Y-88219374D02*
X183908095Y-88158898D01*
X183908095Y-88158898D02*
X184029047Y-88098422D01*
X184029047Y-88098422D02*
X184270952Y-88098422D01*
X184270952Y-88098422D02*
X184391904Y-88158898D01*
X160655000Y-90989718D02*
X160655000Y-89719718D01*
X160655000Y-89719718D02*
X160957381Y-89719718D01*
X160957381Y-89719718D02*
X161138810Y-89780194D01*
X161138810Y-89780194D02*
X161259762Y-89901146D01*
X161259762Y-89901146D02*
X161320239Y-90022099D01*
X161320239Y-90022099D02*
X161380715Y-90264003D01*
X161380715Y-90264003D02*
X161380715Y-90445432D01*
X161380715Y-90445432D02*
X161320239Y-90687337D01*
X161320239Y-90687337D02*
X161259762Y-90808289D01*
X161259762Y-90808289D02*
X161138810Y-90929242D01*
X161138810Y-90929242D02*
X160957381Y-90989718D01*
X160957381Y-90989718D02*
X160655000Y-90989718D01*
X162408810Y-90929242D02*
X162287858Y-90989718D01*
X162287858Y-90989718D02*
X162045953Y-90989718D01*
X162045953Y-90989718D02*
X161925000Y-90929242D01*
X161925000Y-90929242D02*
X161864524Y-90808289D01*
X161864524Y-90808289D02*
X161864524Y-90324480D01*
X161864524Y-90324480D02*
X161925000Y-90203527D01*
X161925000Y-90203527D02*
X162045953Y-90143051D01*
X162045953Y-90143051D02*
X162287858Y-90143051D01*
X162287858Y-90143051D02*
X162408810Y-90203527D01*
X162408810Y-90203527D02*
X162469286Y-90324480D01*
X162469286Y-90324480D02*
X162469286Y-90445432D01*
X162469286Y-90445432D02*
X161864524Y-90566384D01*
X162953095Y-90929242D02*
X163074048Y-90989718D01*
X163074048Y-90989718D02*
X163315952Y-90989718D01*
X163315952Y-90989718D02*
X163436905Y-90929242D01*
X163436905Y-90929242D02*
X163497381Y-90808289D01*
X163497381Y-90808289D02*
X163497381Y-90747813D01*
X163497381Y-90747813D02*
X163436905Y-90626861D01*
X163436905Y-90626861D02*
X163315952Y-90566384D01*
X163315952Y-90566384D02*
X163134524Y-90566384D01*
X163134524Y-90566384D02*
X163013571Y-90505908D01*
X163013571Y-90505908D02*
X162953095Y-90384956D01*
X162953095Y-90384956D02*
X162953095Y-90324480D01*
X162953095Y-90324480D02*
X163013571Y-90203527D01*
X163013571Y-90203527D02*
X163134524Y-90143051D01*
X163134524Y-90143051D02*
X163315952Y-90143051D01*
X163315952Y-90143051D02*
X163436905Y-90203527D01*
X164041666Y-90989718D02*
X164041666Y-90143051D01*
X164041666Y-89719718D02*
X163981190Y-89780194D01*
X163981190Y-89780194D02*
X164041666Y-89840670D01*
X164041666Y-89840670D02*
X164102143Y-89780194D01*
X164102143Y-89780194D02*
X164041666Y-89719718D01*
X164041666Y-89719718D02*
X164041666Y-89840670D01*
X165190714Y-90143051D02*
X165190714Y-91171146D01*
X165190714Y-91171146D02*
X165130238Y-91292099D01*
X165130238Y-91292099D02*
X165069762Y-91352575D01*
X165069762Y-91352575D02*
X164948809Y-91413051D01*
X164948809Y-91413051D02*
X164767381Y-91413051D01*
X164767381Y-91413051D02*
X164646428Y-91352575D01*
X165190714Y-90929242D02*
X165069762Y-90989718D01*
X165069762Y-90989718D02*
X164827857Y-90989718D01*
X164827857Y-90989718D02*
X164706905Y-90929242D01*
X164706905Y-90929242D02*
X164646428Y-90868765D01*
X164646428Y-90868765D02*
X164585952Y-90747813D01*
X164585952Y-90747813D02*
X164585952Y-90384956D01*
X164585952Y-90384956D02*
X164646428Y-90264003D01*
X164646428Y-90264003D02*
X164706905Y-90203527D01*
X164706905Y-90203527D02*
X164827857Y-90143051D01*
X164827857Y-90143051D02*
X165069762Y-90143051D01*
X165069762Y-90143051D02*
X165190714Y-90203527D01*
X165795476Y-90143051D02*
X165795476Y-90989718D01*
X165795476Y-90264003D02*
X165855953Y-90203527D01*
X165855953Y-90203527D02*
X165976905Y-90143051D01*
X165976905Y-90143051D02*
X166158334Y-90143051D01*
X166158334Y-90143051D02*
X166279286Y-90203527D01*
X166279286Y-90203527D02*
X166339762Y-90324480D01*
X166339762Y-90324480D02*
X166339762Y-90989718D01*
X167428334Y-90929242D02*
X167307382Y-90989718D01*
X167307382Y-90989718D02*
X167065477Y-90989718D01*
X167065477Y-90989718D02*
X166944524Y-90929242D01*
X166944524Y-90929242D02*
X166884048Y-90808289D01*
X166884048Y-90808289D02*
X166884048Y-90324480D01*
X166884048Y-90324480D02*
X166944524Y-90203527D01*
X166944524Y-90203527D02*
X167065477Y-90143051D01*
X167065477Y-90143051D02*
X167307382Y-90143051D01*
X167307382Y-90143051D02*
X167428334Y-90203527D01*
X167428334Y-90203527D02*
X167488810Y-90324480D01*
X167488810Y-90324480D02*
X167488810Y-90445432D01*
X167488810Y-90445432D02*
X166884048Y-90566384D01*
X168577381Y-90989718D02*
X168577381Y-89719718D01*
X168577381Y-90929242D02*
X168456429Y-90989718D01*
X168456429Y-90989718D02*
X168214524Y-90989718D01*
X168214524Y-90989718D02*
X168093572Y-90929242D01*
X168093572Y-90929242D02*
X168033095Y-90868765D01*
X168033095Y-90868765D02*
X167972619Y-90747813D01*
X167972619Y-90747813D02*
X167972619Y-90384956D01*
X167972619Y-90384956D02*
X168033095Y-90264003D01*
X168033095Y-90264003D02*
X168093572Y-90203527D01*
X168093572Y-90203527D02*
X168214524Y-90143051D01*
X168214524Y-90143051D02*
X168456429Y-90143051D01*
X168456429Y-90143051D02*
X168577381Y-90203527D01*
X170573096Y-90324480D02*
X170149762Y-90324480D01*
X170149762Y-90989718D02*
X170149762Y-89719718D01*
X170149762Y-89719718D02*
X170754524Y-89719718D01*
X171419762Y-90989718D02*
X171298810Y-90929242D01*
X171298810Y-90929242D02*
X171238333Y-90868765D01*
X171238333Y-90868765D02*
X171177857Y-90747813D01*
X171177857Y-90747813D02*
X171177857Y-90384956D01*
X171177857Y-90384956D02*
X171238333Y-90264003D01*
X171238333Y-90264003D02*
X171298810Y-90203527D01*
X171298810Y-90203527D02*
X171419762Y-90143051D01*
X171419762Y-90143051D02*
X171601191Y-90143051D01*
X171601191Y-90143051D02*
X171722143Y-90203527D01*
X171722143Y-90203527D02*
X171782619Y-90264003D01*
X171782619Y-90264003D02*
X171843095Y-90384956D01*
X171843095Y-90384956D02*
X171843095Y-90747813D01*
X171843095Y-90747813D02*
X171782619Y-90868765D01*
X171782619Y-90868765D02*
X171722143Y-90929242D01*
X171722143Y-90929242D02*
X171601191Y-90989718D01*
X171601191Y-90989718D02*
X171419762Y-90989718D01*
X172387381Y-90989718D02*
X172387381Y-90143051D01*
X172387381Y-90384956D02*
X172447858Y-90264003D01*
X172447858Y-90264003D02*
X172508334Y-90203527D01*
X172508334Y-90203527D02*
X172629286Y-90143051D01*
X172629286Y-90143051D02*
X172750239Y-90143051D01*
X174080714Y-90929242D02*
X174262143Y-90989718D01*
X174262143Y-90989718D02*
X174564524Y-90989718D01*
X174564524Y-90989718D02*
X174685476Y-90929242D01*
X174685476Y-90929242D02*
X174745952Y-90868765D01*
X174745952Y-90868765D02*
X174806429Y-90747813D01*
X174806429Y-90747813D02*
X174806429Y-90626861D01*
X174806429Y-90626861D02*
X174745952Y-90505908D01*
X174745952Y-90505908D02*
X174685476Y-90445432D01*
X174685476Y-90445432D02*
X174564524Y-90384956D01*
X174564524Y-90384956D02*
X174322619Y-90324480D01*
X174322619Y-90324480D02*
X174201667Y-90264003D01*
X174201667Y-90264003D02*
X174141190Y-90203527D01*
X174141190Y-90203527D02*
X174080714Y-90082575D01*
X174080714Y-90082575D02*
X174080714Y-89961622D01*
X174080714Y-89961622D02*
X174141190Y-89840670D01*
X174141190Y-89840670D02*
X174201667Y-89780194D01*
X174201667Y-89780194D02*
X174322619Y-89719718D01*
X174322619Y-89719718D02*
X174625000Y-89719718D01*
X174625000Y-89719718D02*
X174806429Y-89780194D01*
X175895000Y-90143051D02*
X175895000Y-90989718D01*
X175350714Y-90143051D02*
X175350714Y-90808289D01*
X175350714Y-90808289D02*
X175411191Y-90929242D01*
X175411191Y-90929242D02*
X175532143Y-90989718D01*
X175532143Y-90989718D02*
X175713572Y-90989718D01*
X175713572Y-90989718D02*
X175834524Y-90929242D01*
X175834524Y-90929242D02*
X175895000Y-90868765D01*
X176499762Y-90989718D02*
X176499762Y-89719718D01*
X176499762Y-90203527D02*
X176620715Y-90143051D01*
X176620715Y-90143051D02*
X176862620Y-90143051D01*
X176862620Y-90143051D02*
X176983572Y-90203527D01*
X176983572Y-90203527D02*
X177044048Y-90264003D01*
X177044048Y-90264003D02*
X177104524Y-90384956D01*
X177104524Y-90384956D02*
X177104524Y-90747813D01*
X177104524Y-90747813D02*
X177044048Y-90868765D01*
X177044048Y-90868765D02*
X176983572Y-90929242D01*
X176983572Y-90929242D02*
X176862620Y-90989718D01*
X176862620Y-90989718D02*
X176620715Y-90989718D01*
X176620715Y-90989718D02*
X176499762Y-90929242D01*
X177588334Y-90929242D02*
X177709287Y-90989718D01*
X177709287Y-90989718D02*
X177951191Y-90989718D01*
X177951191Y-90989718D02*
X178072144Y-90929242D01*
X178072144Y-90929242D02*
X178132620Y-90808289D01*
X178132620Y-90808289D02*
X178132620Y-90747813D01*
X178132620Y-90747813D02*
X178072144Y-90626861D01*
X178072144Y-90626861D02*
X177951191Y-90566384D01*
X177951191Y-90566384D02*
X177769763Y-90566384D01*
X177769763Y-90566384D02*
X177648810Y-90505908D01*
X177648810Y-90505908D02*
X177588334Y-90384956D01*
X177588334Y-90384956D02*
X177588334Y-90324480D01*
X177588334Y-90324480D02*
X177648810Y-90203527D01*
X177648810Y-90203527D02*
X177769763Y-90143051D01*
X177769763Y-90143051D02*
X177951191Y-90143051D01*
X177951191Y-90143051D02*
X178072144Y-90203527D01*
X178555953Y-90143051D02*
X178858334Y-90989718D01*
X179160715Y-90143051D02*
X178858334Y-90989718D01*
X178858334Y-90989718D02*
X178737382Y-91292099D01*
X178737382Y-91292099D02*
X178676905Y-91352575D01*
X178676905Y-91352575D02*
X178555953Y-91413051D01*
X179584048Y-90929242D02*
X179705001Y-90989718D01*
X179705001Y-90989718D02*
X179946905Y-90989718D01*
X179946905Y-90989718D02*
X180067858Y-90929242D01*
X180067858Y-90929242D02*
X180128334Y-90808289D01*
X180128334Y-90808289D02*
X180128334Y-90747813D01*
X180128334Y-90747813D02*
X180067858Y-90626861D01*
X180067858Y-90626861D02*
X179946905Y-90566384D01*
X179946905Y-90566384D02*
X179765477Y-90566384D01*
X179765477Y-90566384D02*
X179644524Y-90505908D01*
X179644524Y-90505908D02*
X179584048Y-90384956D01*
X179584048Y-90384956D02*
X179584048Y-90324480D01*
X179584048Y-90324480D02*
X179644524Y-90203527D01*
X179644524Y-90203527D02*
X179765477Y-90143051D01*
X179765477Y-90143051D02*
X179946905Y-90143051D01*
X179946905Y-90143051D02*
X180067858Y-90203527D01*
X180491191Y-90143051D02*
X180975000Y-90143051D01*
X180672619Y-89719718D02*
X180672619Y-90808289D01*
X180672619Y-90808289D02*
X180733096Y-90929242D01*
X180733096Y-90929242D02*
X180854048Y-90989718D01*
X180854048Y-90989718D02*
X180975000Y-90989718D01*
X181882143Y-90929242D02*
X181761191Y-90989718D01*
X181761191Y-90989718D02*
X181519286Y-90989718D01*
X181519286Y-90989718D02*
X181398333Y-90929242D01*
X181398333Y-90929242D02*
X181337857Y-90808289D01*
X181337857Y-90808289D02*
X181337857Y-90324480D01*
X181337857Y-90324480D02*
X181398333Y-90203527D01*
X181398333Y-90203527D02*
X181519286Y-90143051D01*
X181519286Y-90143051D02*
X181761191Y-90143051D01*
X181761191Y-90143051D02*
X181882143Y-90203527D01*
X181882143Y-90203527D02*
X181942619Y-90324480D01*
X181942619Y-90324480D02*
X181942619Y-90445432D01*
X181942619Y-90445432D02*
X181337857Y-90566384D01*
X182486904Y-90989718D02*
X182486904Y-90143051D01*
X182486904Y-90264003D02*
X182547381Y-90203527D01*
X182547381Y-90203527D02*
X182668333Y-90143051D01*
X182668333Y-90143051D02*
X182849762Y-90143051D01*
X182849762Y-90143051D02*
X182970714Y-90203527D01*
X182970714Y-90203527D02*
X183031190Y-90324480D01*
X183031190Y-90324480D02*
X183031190Y-90989718D01*
X183031190Y-90324480D02*
X183091666Y-90203527D01*
X183091666Y-90203527D02*
X183212619Y-90143051D01*
X183212619Y-90143051D02*
X183394047Y-90143051D01*
X183394047Y-90143051D02*
X183515000Y-90203527D01*
X183515000Y-90203527D02*
X183575476Y-90324480D01*
X183575476Y-90324480D02*
X183575476Y-90989718D01*
X185147856Y-90989718D02*
X185147856Y-89719718D01*
X185147856Y-89719718D02*
X185631666Y-89719718D01*
X185631666Y-89719718D02*
X185752618Y-89780194D01*
X185752618Y-89780194D02*
X185813095Y-89840670D01*
X185813095Y-89840670D02*
X185873571Y-89961622D01*
X185873571Y-89961622D02*
X185873571Y-90143051D01*
X185873571Y-90143051D02*
X185813095Y-90264003D01*
X185813095Y-90264003D02*
X185752618Y-90324480D01*
X185752618Y-90324480D02*
X185631666Y-90384956D01*
X185631666Y-90384956D02*
X185147856Y-90384956D01*
X186962142Y-90989718D02*
X186962142Y-90324480D01*
X186962142Y-90324480D02*
X186901666Y-90203527D01*
X186901666Y-90203527D02*
X186780714Y-90143051D01*
X186780714Y-90143051D02*
X186538809Y-90143051D01*
X186538809Y-90143051D02*
X186417856Y-90203527D01*
X186962142Y-90929242D02*
X186841190Y-90989718D01*
X186841190Y-90989718D02*
X186538809Y-90989718D01*
X186538809Y-90989718D02*
X186417856Y-90929242D01*
X186417856Y-90929242D02*
X186357380Y-90808289D01*
X186357380Y-90808289D02*
X186357380Y-90687337D01*
X186357380Y-90687337D02*
X186417856Y-90566384D01*
X186417856Y-90566384D02*
X186538809Y-90505908D01*
X186538809Y-90505908D02*
X186841190Y-90505908D01*
X186841190Y-90505908D02*
X186962142Y-90445432D01*
X187566904Y-90143051D02*
X187566904Y-90989718D01*
X187566904Y-90264003D02*
X187627381Y-90203527D01*
X187627381Y-90203527D02*
X187748333Y-90143051D01*
X187748333Y-90143051D02*
X187929762Y-90143051D01*
X187929762Y-90143051D02*
X188050714Y-90203527D01*
X188050714Y-90203527D02*
X188111190Y-90324480D01*
X188111190Y-90324480D02*
X188111190Y-90989718D01*
X189199762Y-90929242D02*
X189078810Y-90989718D01*
X189078810Y-90989718D02*
X188836905Y-90989718D01*
X188836905Y-90989718D02*
X188715952Y-90929242D01*
X188715952Y-90929242D02*
X188655476Y-90808289D01*
X188655476Y-90808289D02*
X188655476Y-90324480D01*
X188655476Y-90324480D02*
X188715952Y-90203527D01*
X188715952Y-90203527D02*
X188836905Y-90143051D01*
X188836905Y-90143051D02*
X189078810Y-90143051D01*
X189078810Y-90143051D02*
X189199762Y-90203527D01*
X189199762Y-90203527D02*
X189260238Y-90324480D01*
X189260238Y-90324480D02*
X189260238Y-90445432D01*
X189260238Y-90445432D02*
X188655476Y-90566384D01*
X189985952Y-90989718D02*
X189865000Y-90929242D01*
X189865000Y-90929242D02*
X189804523Y-90808289D01*
X189804523Y-90808289D02*
X189804523Y-89719718D01*
X171147619Y-92913394D02*
X171087143Y-92973871D01*
X171087143Y-92973871D02*
X170905714Y-93034347D01*
X170905714Y-93034347D02*
X170784762Y-93034347D01*
X170784762Y-93034347D02*
X170603333Y-92973871D01*
X170603333Y-92973871D02*
X170482381Y-92852918D01*
X170482381Y-92852918D02*
X170421904Y-92731966D01*
X170421904Y-92731966D02*
X170361428Y-92490061D01*
X170361428Y-92490061D02*
X170361428Y-92308632D01*
X170361428Y-92308632D02*
X170421904Y-92066728D01*
X170421904Y-92066728D02*
X170482381Y-91945775D01*
X170482381Y-91945775D02*
X170603333Y-91824823D01*
X170603333Y-91824823D02*
X170784762Y-91764347D01*
X170784762Y-91764347D02*
X170905714Y-91764347D01*
X170905714Y-91764347D02*
X171087143Y-91824823D01*
X171087143Y-91824823D02*
X171147619Y-91885299D01*
X171691904Y-93034347D02*
X171691904Y-91764347D01*
X171691904Y-91764347D02*
X172115238Y-92671490D01*
X172115238Y-92671490D02*
X172538571Y-91764347D01*
X172538571Y-91764347D02*
X172538571Y-93034347D01*
X173082857Y-92973871D02*
X173264286Y-93034347D01*
X173264286Y-93034347D02*
X173566667Y-93034347D01*
X173566667Y-93034347D02*
X173687619Y-92973871D01*
X173687619Y-92973871D02*
X173748095Y-92913394D01*
X173748095Y-92913394D02*
X173808572Y-92792442D01*
X173808572Y-92792442D02*
X173808572Y-92671490D01*
X173808572Y-92671490D02*
X173748095Y-92550537D01*
X173748095Y-92550537D02*
X173687619Y-92490061D01*
X173687619Y-92490061D02*
X173566667Y-92429585D01*
X173566667Y-92429585D02*
X173324762Y-92369109D01*
X173324762Y-92369109D02*
X173203810Y-92308632D01*
X173203810Y-92308632D02*
X173143333Y-92248156D01*
X173143333Y-92248156D02*
X173082857Y-92127204D01*
X173082857Y-92127204D02*
X173082857Y-92006251D01*
X173082857Y-92006251D02*
X173143333Y-91885299D01*
X173143333Y-91885299D02*
X173203810Y-91824823D01*
X173203810Y-91824823D02*
X173324762Y-91764347D01*
X173324762Y-91764347D02*
X173627143Y-91764347D01*
X173627143Y-91764347D02*
X173808572Y-91824823D01*
X175078572Y-92913394D02*
X175018096Y-92973871D01*
X175018096Y-92973871D02*
X174836667Y-93034347D01*
X174836667Y-93034347D02*
X174715715Y-93034347D01*
X174715715Y-93034347D02*
X174534286Y-92973871D01*
X174534286Y-92973871D02*
X174413334Y-92852918D01*
X174413334Y-92852918D02*
X174352857Y-92731966D01*
X174352857Y-92731966D02*
X174292381Y-92490061D01*
X174292381Y-92490061D02*
X174292381Y-92308632D01*
X174292381Y-92308632D02*
X174352857Y-92066728D01*
X174352857Y-92066728D02*
X174413334Y-91945775D01*
X174413334Y-91945775D02*
X174534286Y-91824823D01*
X174534286Y-91824823D02*
X174715715Y-91764347D01*
X174715715Y-91764347D02*
X174836667Y-91764347D01*
X174836667Y-91764347D02*
X175018096Y-91824823D01*
X175018096Y-91824823D02*
X175078572Y-91885299D01*
X176409048Y-91764347D02*
X176832381Y-93034347D01*
X176832381Y-93034347D02*
X177255715Y-91764347D01*
X177558095Y-91764347D02*
X178344286Y-91764347D01*
X178344286Y-91764347D02*
X177920952Y-92248156D01*
X177920952Y-92248156D02*
X178102381Y-92248156D01*
X178102381Y-92248156D02*
X178223333Y-92308632D01*
X178223333Y-92308632D02*
X178283809Y-92369109D01*
X178283809Y-92369109D02*
X178344286Y-92490061D01*
X178344286Y-92490061D02*
X178344286Y-92792442D01*
X178344286Y-92792442D02*
X178283809Y-92913394D01*
X178283809Y-92913394D02*
X178223333Y-92973871D01*
X178223333Y-92973871D02*
X178102381Y-93034347D01*
X178102381Y-93034347D02*
X177739524Y-93034347D01*
X177739524Y-93034347D02*
X177618571Y-92973871D01*
X177618571Y-92973871D02*
X177558095Y-92913394D01*
X178888571Y-92913394D02*
X178949048Y-92973871D01*
X178949048Y-92973871D02*
X178888571Y-93034347D01*
X178888571Y-93034347D02*
X178828095Y-92973871D01*
X178828095Y-92973871D02*
X178888571Y-92913394D01*
X178888571Y-92913394D02*
X178888571Y-93034347D01*
X179735238Y-91764347D02*
X179856191Y-91764347D01*
X179856191Y-91764347D02*
X179977143Y-91824823D01*
X179977143Y-91824823D02*
X180037619Y-91885299D01*
X180037619Y-91885299D02*
X180098095Y-92006251D01*
X180098095Y-92006251D02*
X180158572Y-92248156D01*
X180158572Y-92248156D02*
X180158572Y-92550537D01*
X180158572Y-92550537D02*
X180098095Y-92792442D01*
X180098095Y-92792442D02*
X180037619Y-92913394D01*
X180037619Y-92913394D02*
X179977143Y-92973871D01*
X179977143Y-92973871D02*
X179856191Y-93034347D01*
X179856191Y-93034347D02*
X179735238Y-93034347D01*
X179735238Y-93034347D02*
X179614286Y-92973871D01*
X179614286Y-92973871D02*
X179553810Y-92913394D01*
X179553810Y-92913394D02*
X179493333Y-92792442D01*
X179493333Y-92792442D02*
X179432857Y-92550537D01*
X179432857Y-92550537D02*
X179432857Y-92248156D01*
X179432857Y-92248156D02*
X179493333Y-92006251D01*
X179493333Y-92006251D02*
X179553810Y-91885299D01*
X179553810Y-91885299D02*
X179614286Y-91824823D01*
X179614286Y-91824823D02*
X179735238Y-91764347D01*
X158296427Y-95078976D02*
X158296427Y-93808976D01*
X158296427Y-93808976D02*
X158598808Y-93808976D01*
X158598808Y-93808976D02*
X158780237Y-93869452D01*
X158780237Y-93869452D02*
X158901189Y-93990404D01*
X158901189Y-93990404D02*
X158961666Y-94111357D01*
X158961666Y-94111357D02*
X159022142Y-94353261D01*
X159022142Y-94353261D02*
X159022142Y-94534690D01*
X159022142Y-94534690D02*
X158961666Y-94776595D01*
X158961666Y-94776595D02*
X158901189Y-94897547D01*
X158901189Y-94897547D02*
X158780237Y-95018500D01*
X158780237Y-95018500D02*
X158598808Y-95078976D01*
X158598808Y-95078976D02*
X158296427Y-95078976D01*
X160050237Y-95018500D02*
X159929285Y-95078976D01*
X159929285Y-95078976D02*
X159687380Y-95078976D01*
X159687380Y-95078976D02*
X159566427Y-95018500D01*
X159566427Y-95018500D02*
X159505951Y-94897547D01*
X159505951Y-94897547D02*
X159505951Y-94413738D01*
X159505951Y-94413738D02*
X159566427Y-94292785D01*
X159566427Y-94292785D02*
X159687380Y-94232309D01*
X159687380Y-94232309D02*
X159929285Y-94232309D01*
X159929285Y-94232309D02*
X160050237Y-94292785D01*
X160050237Y-94292785D02*
X160110713Y-94413738D01*
X160110713Y-94413738D02*
X160110713Y-94534690D01*
X160110713Y-94534690D02*
X159505951Y-94655642D01*
X160594522Y-95018500D02*
X160715475Y-95078976D01*
X160715475Y-95078976D02*
X160957379Y-95078976D01*
X160957379Y-95078976D02*
X161078332Y-95018500D01*
X161078332Y-95018500D02*
X161138808Y-94897547D01*
X161138808Y-94897547D02*
X161138808Y-94837071D01*
X161138808Y-94837071D02*
X161078332Y-94716119D01*
X161078332Y-94716119D02*
X160957379Y-94655642D01*
X160957379Y-94655642D02*
X160775951Y-94655642D01*
X160775951Y-94655642D02*
X160654998Y-94595166D01*
X160654998Y-94595166D02*
X160594522Y-94474214D01*
X160594522Y-94474214D02*
X160594522Y-94413738D01*
X160594522Y-94413738D02*
X160654998Y-94292785D01*
X160654998Y-94292785D02*
X160775951Y-94232309D01*
X160775951Y-94232309D02*
X160957379Y-94232309D01*
X160957379Y-94232309D02*
X161078332Y-94292785D01*
X161683093Y-95078976D02*
X161683093Y-94232309D01*
X161683093Y-93808976D02*
X161622617Y-93869452D01*
X161622617Y-93869452D02*
X161683093Y-93929928D01*
X161683093Y-93929928D02*
X161743570Y-93869452D01*
X161743570Y-93869452D02*
X161683093Y-93808976D01*
X161683093Y-93808976D02*
X161683093Y-93929928D01*
X162832141Y-94232309D02*
X162832141Y-95260404D01*
X162832141Y-95260404D02*
X162771665Y-95381357D01*
X162771665Y-95381357D02*
X162711189Y-95441833D01*
X162711189Y-95441833D02*
X162590236Y-95502309D01*
X162590236Y-95502309D02*
X162408808Y-95502309D01*
X162408808Y-95502309D02*
X162287855Y-95441833D01*
X162832141Y-95018500D02*
X162711189Y-95078976D01*
X162711189Y-95078976D02*
X162469284Y-95078976D01*
X162469284Y-95078976D02*
X162348332Y-95018500D01*
X162348332Y-95018500D02*
X162287855Y-94958023D01*
X162287855Y-94958023D02*
X162227379Y-94837071D01*
X162227379Y-94837071D02*
X162227379Y-94474214D01*
X162227379Y-94474214D02*
X162287855Y-94353261D01*
X162287855Y-94353261D02*
X162348332Y-94292785D01*
X162348332Y-94292785D02*
X162469284Y-94232309D01*
X162469284Y-94232309D02*
X162711189Y-94232309D01*
X162711189Y-94232309D02*
X162832141Y-94292785D01*
X163436903Y-94232309D02*
X163436903Y-95078976D01*
X163436903Y-94353261D02*
X163497380Y-94292785D01*
X163497380Y-94292785D02*
X163618332Y-94232309D01*
X163618332Y-94232309D02*
X163799761Y-94232309D01*
X163799761Y-94232309D02*
X163920713Y-94292785D01*
X163920713Y-94292785D02*
X163981189Y-94413738D01*
X163981189Y-94413738D02*
X163981189Y-95078976D01*
X165069761Y-95018500D02*
X164948809Y-95078976D01*
X164948809Y-95078976D02*
X164706904Y-95078976D01*
X164706904Y-95078976D02*
X164585951Y-95018500D01*
X164585951Y-95018500D02*
X164525475Y-94897547D01*
X164525475Y-94897547D02*
X164525475Y-94413738D01*
X164525475Y-94413738D02*
X164585951Y-94292785D01*
X164585951Y-94292785D02*
X164706904Y-94232309D01*
X164706904Y-94232309D02*
X164948809Y-94232309D01*
X164948809Y-94232309D02*
X165069761Y-94292785D01*
X165069761Y-94292785D02*
X165130237Y-94413738D01*
X165130237Y-94413738D02*
X165130237Y-94534690D01*
X165130237Y-94534690D02*
X164525475Y-94655642D01*
X166218808Y-95078976D02*
X166218808Y-93808976D01*
X166218808Y-95018500D02*
X166097856Y-95078976D01*
X166097856Y-95078976D02*
X165855951Y-95078976D01*
X165855951Y-95078976D02*
X165734999Y-95018500D01*
X165734999Y-95018500D02*
X165674522Y-94958023D01*
X165674522Y-94958023D02*
X165614046Y-94837071D01*
X165614046Y-94837071D02*
X165614046Y-94474214D01*
X165614046Y-94474214D02*
X165674522Y-94353261D01*
X165674522Y-94353261D02*
X165734999Y-94292785D01*
X165734999Y-94292785D02*
X165855951Y-94232309D01*
X165855951Y-94232309D02*
X166097856Y-94232309D01*
X166097856Y-94232309D02*
X166218808Y-94292785D01*
X167791189Y-95078976D02*
X167791189Y-93808976D01*
X167791189Y-94292785D02*
X167912142Y-94232309D01*
X167912142Y-94232309D02*
X168154047Y-94232309D01*
X168154047Y-94232309D02*
X168274999Y-94292785D01*
X168274999Y-94292785D02*
X168335475Y-94353261D01*
X168335475Y-94353261D02*
X168395951Y-94474214D01*
X168395951Y-94474214D02*
X168395951Y-94837071D01*
X168395951Y-94837071D02*
X168335475Y-94958023D01*
X168335475Y-94958023D02*
X168274999Y-95018500D01*
X168274999Y-95018500D02*
X168154047Y-95078976D01*
X168154047Y-95078976D02*
X167912142Y-95078976D01*
X167912142Y-95078976D02*
X167791189Y-95018500D01*
X168819285Y-94232309D02*
X169121666Y-95078976D01*
X169424047Y-94232309D02*
X169121666Y-95078976D01*
X169121666Y-95078976D02*
X169000714Y-95381357D01*
X169000714Y-95381357D02*
X168940237Y-95441833D01*
X168940237Y-95441833D02*
X168819285Y-95502309D01*
X170875475Y-95078976D02*
X170875475Y-93808976D01*
X170875475Y-93808976D02*
X171601190Y-95078976D01*
X171601190Y-95078976D02*
X171601190Y-93808976D01*
X172750237Y-95078976D02*
X172750237Y-94413738D01*
X172750237Y-94413738D02*
X172689761Y-94292785D01*
X172689761Y-94292785D02*
X172568809Y-94232309D01*
X172568809Y-94232309D02*
X172326904Y-94232309D01*
X172326904Y-94232309D02*
X172205951Y-94292785D01*
X172750237Y-95018500D02*
X172629285Y-95078976D01*
X172629285Y-95078976D02*
X172326904Y-95078976D01*
X172326904Y-95078976D02*
X172205951Y-95018500D01*
X172205951Y-95018500D02*
X172145475Y-94897547D01*
X172145475Y-94897547D02*
X172145475Y-94776595D01*
X172145475Y-94776595D02*
X172205951Y-94655642D01*
X172205951Y-94655642D02*
X172326904Y-94595166D01*
X172326904Y-94595166D02*
X172629285Y-94595166D01*
X172629285Y-94595166D02*
X172750237Y-94534690D01*
X173173571Y-94232309D02*
X173657380Y-94232309D01*
X173354999Y-93808976D02*
X173354999Y-94897547D01*
X173354999Y-94897547D02*
X173415476Y-95018500D01*
X173415476Y-95018500D02*
X173536428Y-95078976D01*
X173536428Y-95078976D02*
X173657380Y-95078976D01*
X174080713Y-95078976D02*
X174080713Y-93808976D01*
X174624999Y-95078976D02*
X174624999Y-94413738D01*
X174624999Y-94413738D02*
X174564523Y-94292785D01*
X174564523Y-94292785D02*
X174443571Y-94232309D01*
X174443571Y-94232309D02*
X174262142Y-94232309D01*
X174262142Y-94232309D02*
X174141190Y-94292785D01*
X174141190Y-94292785D02*
X174080713Y-94353261D01*
X175774047Y-95078976D02*
X175774047Y-94413738D01*
X175774047Y-94413738D02*
X175713571Y-94292785D01*
X175713571Y-94292785D02*
X175592619Y-94232309D01*
X175592619Y-94232309D02*
X175350714Y-94232309D01*
X175350714Y-94232309D02*
X175229761Y-94292785D01*
X175774047Y-95018500D02*
X175653095Y-95078976D01*
X175653095Y-95078976D02*
X175350714Y-95078976D01*
X175350714Y-95078976D02*
X175229761Y-95018500D01*
X175229761Y-95018500D02*
X175169285Y-94897547D01*
X175169285Y-94897547D02*
X175169285Y-94776595D01*
X175169285Y-94776595D02*
X175229761Y-94655642D01*
X175229761Y-94655642D02*
X175350714Y-94595166D01*
X175350714Y-94595166D02*
X175653095Y-94595166D01*
X175653095Y-94595166D02*
X175774047Y-94534690D01*
X176378809Y-94232309D02*
X176378809Y-95078976D01*
X176378809Y-94353261D02*
X176439286Y-94292785D01*
X176439286Y-94292785D02*
X176560238Y-94232309D01*
X176560238Y-94232309D02*
X176741667Y-94232309D01*
X176741667Y-94232309D02*
X176862619Y-94292785D01*
X176862619Y-94292785D02*
X176923095Y-94413738D01*
X176923095Y-94413738D02*
X176923095Y-95078976D01*
X178918810Y-94413738D02*
X178495476Y-94413738D01*
X178495476Y-95078976D02*
X178495476Y-93808976D01*
X178495476Y-93808976D02*
X179100238Y-93808976D01*
X179765476Y-95078976D02*
X179644524Y-95018500D01*
X179644524Y-95018500D02*
X179584047Y-94958023D01*
X179584047Y-94958023D02*
X179523571Y-94837071D01*
X179523571Y-94837071D02*
X179523571Y-94474214D01*
X179523571Y-94474214D02*
X179584047Y-94353261D01*
X179584047Y-94353261D02*
X179644524Y-94292785D01*
X179644524Y-94292785D02*
X179765476Y-94232309D01*
X179765476Y-94232309D02*
X179946905Y-94232309D01*
X179946905Y-94232309D02*
X180067857Y-94292785D01*
X180067857Y-94292785D02*
X180128333Y-94353261D01*
X180128333Y-94353261D02*
X180188809Y-94474214D01*
X180188809Y-94474214D02*
X180188809Y-94837071D01*
X180188809Y-94837071D02*
X180128333Y-94958023D01*
X180128333Y-94958023D02*
X180067857Y-95018500D01*
X180067857Y-95018500D02*
X179946905Y-95078976D01*
X179946905Y-95078976D02*
X179765476Y-95078976D01*
X180733095Y-95078976D02*
X180733095Y-94232309D01*
X180733095Y-94474214D02*
X180793572Y-94353261D01*
X180793572Y-94353261D02*
X180854048Y-94292785D01*
X180854048Y-94292785D02*
X180975000Y-94232309D01*
X180975000Y-94232309D02*
X181095953Y-94232309D01*
X182063571Y-95078976D02*
X182063571Y-93808976D01*
X182063571Y-95018500D02*
X181942619Y-95078976D01*
X181942619Y-95078976D02*
X181700714Y-95078976D01*
X181700714Y-95078976D02*
X181579762Y-95018500D01*
X181579762Y-95018500D02*
X181519285Y-94958023D01*
X181519285Y-94958023D02*
X181458809Y-94837071D01*
X181458809Y-94837071D02*
X181458809Y-94474214D01*
X181458809Y-94474214D02*
X181519285Y-94353261D01*
X181519285Y-94353261D02*
X181579762Y-94292785D01*
X181579762Y-94292785D02*
X181700714Y-94232309D01*
X181700714Y-94232309D02*
X181942619Y-94232309D01*
X181942619Y-94232309D02*
X182063571Y-94292785D01*
X183696429Y-95078976D02*
X183938333Y-95078976D01*
X183938333Y-95078976D02*
X184059286Y-95018500D01*
X184059286Y-95018500D02*
X184119762Y-94958023D01*
X184119762Y-94958023D02*
X184240714Y-94776595D01*
X184240714Y-94776595D02*
X184301191Y-94534690D01*
X184301191Y-94534690D02*
X184301191Y-94050880D01*
X184301191Y-94050880D02*
X184240714Y-93929928D01*
X184240714Y-93929928D02*
X184180238Y-93869452D01*
X184180238Y-93869452D02*
X184059286Y-93808976D01*
X184059286Y-93808976D02*
X183817381Y-93808976D01*
X183817381Y-93808976D02*
X183696429Y-93869452D01*
X183696429Y-93869452D02*
X183635952Y-93929928D01*
X183635952Y-93929928D02*
X183575476Y-94050880D01*
X183575476Y-94050880D02*
X183575476Y-94353261D01*
X183575476Y-94353261D02*
X183635952Y-94474214D01*
X183635952Y-94474214D02*
X183696429Y-94534690D01*
X183696429Y-94534690D02*
X183817381Y-94595166D01*
X183817381Y-94595166D02*
X184059286Y-94595166D01*
X184059286Y-94595166D02*
X184180238Y-94534690D01*
X184180238Y-94534690D02*
X184240714Y-94474214D01*
X184240714Y-94474214D02*
X184301191Y-94353261D01*
X184845476Y-94595166D02*
X185813096Y-94595166D01*
X186357381Y-93929928D02*
X186417857Y-93869452D01*
X186417857Y-93869452D02*
X186538810Y-93808976D01*
X186538810Y-93808976D02*
X186841191Y-93808976D01*
X186841191Y-93808976D02*
X186962143Y-93869452D01*
X186962143Y-93869452D02*
X187022619Y-93929928D01*
X187022619Y-93929928D02*
X187083096Y-94050880D01*
X187083096Y-94050880D02*
X187083096Y-94171833D01*
X187083096Y-94171833D02*
X187022619Y-94353261D01*
X187022619Y-94353261D02*
X186296905Y-95078976D01*
X186296905Y-95078976D02*
X187083096Y-95078976D01*
X187869286Y-93808976D02*
X187990239Y-93808976D01*
X187990239Y-93808976D02*
X188111191Y-93869452D01*
X188111191Y-93869452D02*
X188171667Y-93929928D01*
X188171667Y-93929928D02*
X188232143Y-94050880D01*
X188232143Y-94050880D02*
X188292620Y-94292785D01*
X188292620Y-94292785D02*
X188292620Y-94595166D01*
X188292620Y-94595166D02*
X188232143Y-94837071D01*
X188232143Y-94837071D02*
X188171667Y-94958023D01*
X188171667Y-94958023D02*
X188111191Y-95018500D01*
X188111191Y-95018500D02*
X187990239Y-95078976D01*
X187990239Y-95078976D02*
X187869286Y-95078976D01*
X187869286Y-95078976D02*
X187748334Y-95018500D01*
X187748334Y-95018500D02*
X187687858Y-94958023D01*
X187687858Y-94958023D02*
X187627381Y-94837071D01*
X187627381Y-94837071D02*
X187566905Y-94595166D01*
X187566905Y-94595166D02*
X187566905Y-94292785D01*
X187566905Y-94292785D02*
X187627381Y-94050880D01*
X187627381Y-94050880D02*
X187687858Y-93929928D01*
X187687858Y-93929928D02*
X187748334Y-93869452D01*
X187748334Y-93869452D02*
X187869286Y-93808976D01*
X188836905Y-94595166D02*
X189804525Y-94595166D01*
X190348810Y-93929928D02*
X190409286Y-93869452D01*
X190409286Y-93869452D02*
X190530239Y-93808976D01*
X190530239Y-93808976D02*
X190832620Y-93808976D01*
X190832620Y-93808976D02*
X190953572Y-93869452D01*
X190953572Y-93869452D02*
X191014048Y-93929928D01*
X191014048Y-93929928D02*
X191074525Y-94050880D01*
X191074525Y-94050880D02*
X191074525Y-94171833D01*
X191074525Y-94171833D02*
X191014048Y-94353261D01*
X191014048Y-94353261D02*
X190288334Y-95078976D01*
X190288334Y-95078976D02*
X191074525Y-95078976D01*
X192163096Y-94232309D02*
X192163096Y-95078976D01*
X191860715Y-93748500D02*
X191558334Y-94655642D01*
X191558334Y-94655642D02*
X192344525Y-94655642D01*
D11*
X190868169Y-115712419D02*
X191158455Y-115712419D01*
X191013312Y-116712419D02*
X191013312Y-115712419D01*
X191400360Y-116712419D02*
X191351979Y-116664800D01*
X191351979Y-116664800D02*
X191327789Y-116617180D01*
X191327789Y-116617180D02*
X191303598Y-116521942D01*
X191303598Y-116521942D02*
X191303598Y-116236228D01*
X191303598Y-116236228D02*
X191327789Y-116140990D01*
X191327789Y-116140990D02*
X191351979Y-116093371D01*
X191351979Y-116093371D02*
X191400360Y-116045752D01*
X191400360Y-116045752D02*
X191472932Y-116045752D01*
X191472932Y-116045752D02*
X191521313Y-116093371D01*
X191521313Y-116093371D02*
X191545503Y-116140990D01*
X191545503Y-116140990D02*
X191569694Y-116236228D01*
X191569694Y-116236228D02*
X191569694Y-116521942D01*
X191569694Y-116521942D02*
X191545503Y-116617180D01*
X191545503Y-116617180D02*
X191521313Y-116664800D01*
X191521313Y-116664800D02*
X191472932Y-116712419D01*
X191472932Y-116712419D02*
X191400360Y-116712419D01*
X192005122Y-116045752D02*
X192005122Y-116712419D01*
X191787408Y-116045752D02*
X191787408Y-116569561D01*
X191787408Y-116569561D02*
X191811598Y-116664800D01*
X191811598Y-116664800D02*
X191859979Y-116712419D01*
X191859979Y-116712419D02*
X191932551Y-116712419D01*
X191932551Y-116712419D02*
X191980932Y-116664800D01*
X191980932Y-116664800D02*
X192005122Y-116617180D01*
X192464741Y-116664800D02*
X192416360Y-116712419D01*
X192416360Y-116712419D02*
X192319598Y-116712419D01*
X192319598Y-116712419D02*
X192271217Y-116664800D01*
X192271217Y-116664800D02*
X192247027Y-116617180D01*
X192247027Y-116617180D02*
X192222836Y-116521942D01*
X192222836Y-116521942D02*
X192222836Y-116236228D01*
X192222836Y-116236228D02*
X192247027Y-116140990D01*
X192247027Y-116140990D02*
X192271217Y-116093371D01*
X192271217Y-116093371D02*
X192319598Y-116045752D01*
X192319598Y-116045752D02*
X192416360Y-116045752D01*
X192416360Y-116045752D02*
X192464741Y-116093371D01*
X192682456Y-116712419D02*
X192682456Y-115712419D01*
X192900170Y-116712419D02*
X192900170Y-116188609D01*
X192900170Y-116188609D02*
X192875980Y-116093371D01*
X192875980Y-116093371D02*
X192827599Y-116045752D01*
X192827599Y-116045752D02*
X192755027Y-116045752D01*
X192755027Y-116045752D02*
X192706646Y-116093371D01*
X192706646Y-116093371D02*
X192682456Y-116140990D01*
X193504932Y-116664800D02*
X193577504Y-116712419D01*
X193577504Y-116712419D02*
X193698456Y-116712419D01*
X193698456Y-116712419D02*
X193746837Y-116664800D01*
X193746837Y-116664800D02*
X193771028Y-116617180D01*
X193771028Y-116617180D02*
X193795218Y-116521942D01*
X193795218Y-116521942D02*
X193795218Y-116426704D01*
X193795218Y-116426704D02*
X193771028Y-116331466D01*
X193771028Y-116331466D02*
X193746837Y-116283847D01*
X193746837Y-116283847D02*
X193698456Y-116236228D01*
X193698456Y-116236228D02*
X193601694Y-116188609D01*
X193601694Y-116188609D02*
X193553313Y-116140990D01*
X193553313Y-116140990D02*
X193529123Y-116093371D01*
X193529123Y-116093371D02*
X193504932Y-115998133D01*
X193504932Y-115998133D02*
X193504932Y-115902895D01*
X193504932Y-115902895D02*
X193529123Y-115807657D01*
X193529123Y-115807657D02*
X193553313Y-115760038D01*
X193553313Y-115760038D02*
X193601694Y-115712419D01*
X193601694Y-115712419D02*
X193722647Y-115712419D01*
X193722647Y-115712419D02*
X193795218Y-115760038D01*
X194230647Y-116664800D02*
X194182266Y-116712419D01*
X194182266Y-116712419D02*
X194085504Y-116712419D01*
X194085504Y-116712419D02*
X194037123Y-116664800D01*
X194037123Y-116664800D02*
X194012933Y-116617180D01*
X194012933Y-116617180D02*
X193988742Y-116521942D01*
X193988742Y-116521942D02*
X193988742Y-116236228D01*
X193988742Y-116236228D02*
X194012933Y-116140990D01*
X194012933Y-116140990D02*
X194037123Y-116093371D01*
X194037123Y-116093371D02*
X194085504Y-116045752D01*
X194085504Y-116045752D02*
X194182266Y-116045752D01*
X194182266Y-116045752D02*
X194230647Y-116093371D01*
X194448362Y-116712419D02*
X194448362Y-116045752D01*
X194448362Y-116236228D02*
X194472552Y-116140990D01*
X194472552Y-116140990D02*
X194496743Y-116093371D01*
X194496743Y-116093371D02*
X194545124Y-116045752D01*
X194545124Y-116045752D02*
X194593505Y-116045752D01*
X194956362Y-116664800D02*
X194907981Y-116712419D01*
X194907981Y-116712419D02*
X194811219Y-116712419D01*
X194811219Y-116712419D02*
X194762838Y-116664800D01*
X194762838Y-116664800D02*
X194738647Y-116569561D01*
X194738647Y-116569561D02*
X194738647Y-116188609D01*
X194738647Y-116188609D02*
X194762838Y-116093371D01*
X194762838Y-116093371D02*
X194811219Y-116045752D01*
X194811219Y-116045752D02*
X194907981Y-116045752D01*
X194907981Y-116045752D02*
X194956362Y-116093371D01*
X194956362Y-116093371D02*
X194980552Y-116188609D01*
X194980552Y-116188609D02*
X194980552Y-116283847D01*
X194980552Y-116283847D02*
X194738647Y-116379085D01*
X195391791Y-116664800D02*
X195343410Y-116712419D01*
X195343410Y-116712419D02*
X195246648Y-116712419D01*
X195246648Y-116712419D02*
X195198267Y-116664800D01*
X195198267Y-116664800D02*
X195174076Y-116569561D01*
X195174076Y-116569561D02*
X195174076Y-116188609D01*
X195174076Y-116188609D02*
X195198267Y-116093371D01*
X195198267Y-116093371D02*
X195246648Y-116045752D01*
X195246648Y-116045752D02*
X195343410Y-116045752D01*
X195343410Y-116045752D02*
X195391791Y-116093371D01*
X195391791Y-116093371D02*
X195415981Y-116188609D01*
X195415981Y-116188609D02*
X195415981Y-116283847D01*
X195415981Y-116283847D02*
X195174076Y-116379085D01*
X195633696Y-116045752D02*
X195633696Y-116712419D01*
X195633696Y-116140990D02*
X195657886Y-116093371D01*
X195657886Y-116093371D02*
X195706267Y-116045752D01*
X195706267Y-116045752D02*
X195778839Y-116045752D01*
X195778839Y-116045752D02*
X195827220Y-116093371D01*
X195827220Y-116093371D02*
X195851410Y-116188609D01*
X195851410Y-116188609D02*
X195851410Y-116712419D01*
X196480363Y-116712419D02*
X196480363Y-115712419D01*
X197012554Y-116712419D02*
X196843220Y-116236228D01*
X196722268Y-116712419D02*
X196722268Y-115712419D01*
X196722268Y-115712419D02*
X196915792Y-115712419D01*
X196915792Y-115712419D02*
X196964173Y-115760038D01*
X196964173Y-115760038D02*
X196988363Y-115807657D01*
X196988363Y-115807657D02*
X197012554Y-115902895D01*
X197012554Y-115902895D02*
X197012554Y-116045752D01*
X197012554Y-116045752D02*
X196988363Y-116140990D01*
X196988363Y-116140990D02*
X196964173Y-116188609D01*
X196964173Y-116188609D02*
X196915792Y-116236228D01*
X196915792Y-116236228D02*
X196722268Y-116236228D01*
X197568935Y-116807657D02*
X197520554Y-116760038D01*
X197520554Y-116760038D02*
X197472173Y-116664800D01*
X197472173Y-116664800D02*
X197399601Y-116521942D01*
X197399601Y-116521942D02*
X197351220Y-116474323D01*
X197351220Y-116474323D02*
X197302839Y-116474323D01*
X197327030Y-116712419D02*
X197278649Y-116664800D01*
X197278649Y-116664800D02*
X197230268Y-116569561D01*
X197230268Y-116569561D02*
X197206077Y-116379085D01*
X197206077Y-116379085D02*
X197206077Y-116045752D01*
X197206077Y-116045752D02*
X197230268Y-115855276D01*
X197230268Y-115855276D02*
X197278649Y-115760038D01*
X197278649Y-115760038D02*
X197327030Y-115712419D01*
X197327030Y-115712419D02*
X197423792Y-115712419D01*
X197423792Y-115712419D02*
X197472173Y-115760038D01*
X197472173Y-115760038D02*
X197520554Y-115855276D01*
X197520554Y-115855276D02*
X197544744Y-116045752D01*
X197544744Y-116045752D02*
X197544744Y-116379085D01*
X197544744Y-116379085D02*
X197520554Y-116569561D01*
X197520554Y-116569561D02*
X197472173Y-116664800D01*
X197472173Y-116664800D02*
X197423792Y-116712419D01*
X197423792Y-116712419D02*
X197327030Y-116712419D01*
D12*
X116466467Y-76148598D02*
X116466467Y-76598542D01*
X116466467Y-76373570D02*
X115679065Y-76373570D01*
X115679065Y-76373570D02*
X115791551Y-76448561D01*
X115791551Y-76448561D02*
X115866542Y-76523552D01*
X115866542Y-76523552D02*
X115904037Y-76598542D01*
X115679065Y-75661159D02*
X115679065Y-75586168D01*
X115679065Y-75586168D02*
X115716560Y-75511177D01*
X115716560Y-75511177D02*
X115754056Y-75473682D01*
X115754056Y-75473682D02*
X115829046Y-75436187D01*
X115829046Y-75436187D02*
X115979028Y-75398691D01*
X115979028Y-75398691D02*
X116166504Y-75398691D01*
X116166504Y-75398691D02*
X116316486Y-75436187D01*
X116316486Y-75436187D02*
X116391476Y-75473682D01*
X116391476Y-75473682D02*
X116428972Y-75511177D01*
X116428972Y-75511177D02*
X116466467Y-75586168D01*
X116466467Y-75586168D02*
X116466467Y-75661159D01*
X116466467Y-75661159D02*
X116428972Y-75736149D01*
X116428972Y-75736149D02*
X116391476Y-75773645D01*
X116391476Y-75773645D02*
X116316486Y-75811140D01*
X116316486Y-75811140D02*
X116166504Y-75848635D01*
X116166504Y-75848635D02*
X115979028Y-75848635D01*
X115979028Y-75848635D02*
X115829046Y-75811140D01*
X115829046Y-75811140D02*
X115754056Y-75773645D01*
X115754056Y-75773645D02*
X115716560Y-75736149D01*
X115716560Y-75736149D02*
X115679065Y-75661159D01*
X116466467Y-75061233D02*
X115679065Y-75061233D01*
X116166504Y-74986242D02*
X116466467Y-74761270D01*
X115941532Y-74761270D02*
X116241495Y-75061233D01*
X116466467Y-73861382D02*
X116466467Y-73673906D01*
X116466467Y-73673906D02*
X116316486Y-73673906D01*
X116316486Y-73673906D02*
X116278990Y-73748896D01*
X116278990Y-73748896D02*
X116204000Y-73823887D01*
X116204000Y-73823887D02*
X116091514Y-73861382D01*
X116091514Y-73861382D02*
X115904037Y-73861382D01*
X115904037Y-73861382D02*
X115791551Y-73823887D01*
X115791551Y-73823887D02*
X115716560Y-73748896D01*
X115716560Y-73748896D02*
X115679065Y-73636410D01*
X115679065Y-73636410D02*
X115679065Y-73486429D01*
X115679065Y-73486429D02*
X115716560Y-73373943D01*
X115716560Y-73373943D02*
X115791551Y-73298952D01*
X115791551Y-73298952D02*
X115904037Y-73261457D01*
X115904037Y-73261457D02*
X116091514Y-73261457D01*
X116091514Y-73261457D02*
X116204000Y-73298952D01*
X116204000Y-73298952D02*
X116278990Y-73373943D01*
X116278990Y-73373943D02*
X116316486Y-73448934D01*
X116316486Y-73448934D02*
X116466467Y-73448934D01*
X116466467Y-73448934D02*
X116466467Y-73261457D01*
X175255158Y-97416467D02*
X174805214Y-97416467D01*
X175030186Y-97416467D02*
X175030186Y-96629065D01*
X175030186Y-96629065D02*
X174955195Y-96741551D01*
X174955195Y-96741551D02*
X174880205Y-96816542D01*
X174880205Y-96816542D02*
X174805214Y-96854037D01*
X175742598Y-96629065D02*
X175817588Y-96629065D01*
X175817588Y-96629065D02*
X175892579Y-96666560D01*
X175892579Y-96666560D02*
X175930074Y-96704056D01*
X175930074Y-96704056D02*
X175967570Y-96779046D01*
X175967570Y-96779046D02*
X176005065Y-96929028D01*
X176005065Y-96929028D02*
X176005065Y-97116504D01*
X176005065Y-97116504D02*
X175967570Y-97266486D01*
X175967570Y-97266486D02*
X175930074Y-97341476D01*
X175930074Y-97341476D02*
X175892579Y-97378972D01*
X175892579Y-97378972D02*
X175817588Y-97416467D01*
X175817588Y-97416467D02*
X175742598Y-97416467D01*
X175742598Y-97416467D02*
X175667607Y-97378972D01*
X175667607Y-97378972D02*
X175630112Y-97341476D01*
X175630112Y-97341476D02*
X175592616Y-97266486D01*
X175592616Y-97266486D02*
X175555121Y-97116504D01*
X175555121Y-97116504D02*
X175555121Y-96929028D01*
X175555121Y-96929028D02*
X175592616Y-96779046D01*
X175592616Y-96779046D02*
X175630112Y-96704056D01*
X175630112Y-96704056D02*
X175667607Y-96666560D01*
X175667607Y-96666560D02*
X175742598Y-96629065D01*
X176492505Y-96629065D02*
X176567495Y-96629065D01*
X176567495Y-96629065D02*
X176642486Y-96666560D01*
X176642486Y-96666560D02*
X176679981Y-96704056D01*
X176679981Y-96704056D02*
X176717477Y-96779046D01*
X176717477Y-96779046D02*
X176754972Y-96929028D01*
X176754972Y-96929028D02*
X176754972Y-97116504D01*
X176754972Y-97116504D02*
X176717477Y-97266486D01*
X176717477Y-97266486D02*
X176679981Y-97341476D01*
X176679981Y-97341476D02*
X176642486Y-97378972D01*
X176642486Y-97378972D02*
X176567495Y-97416467D01*
X176567495Y-97416467D02*
X176492505Y-97416467D01*
X176492505Y-97416467D02*
X176417514Y-97378972D01*
X176417514Y-97378972D02*
X176380019Y-97341476D01*
X176380019Y-97341476D02*
X176342523Y-97266486D01*
X176342523Y-97266486D02*
X176305028Y-97116504D01*
X176305028Y-97116504D02*
X176305028Y-96929028D01*
X176305028Y-96929028D02*
X176342523Y-96779046D01*
X176342523Y-96779046D02*
X176380019Y-96704056D01*
X176380019Y-96704056D02*
X176417514Y-96666560D01*
X176417514Y-96666560D02*
X176492505Y-96629065D01*
X177654860Y-97416467D02*
X177842337Y-97416467D01*
X177842337Y-97416467D02*
X177842337Y-97266486D01*
X177842337Y-97266486D02*
X177767346Y-97228990D01*
X177767346Y-97228990D02*
X177692355Y-97154000D01*
X177692355Y-97154000D02*
X177654860Y-97041514D01*
X177654860Y-97041514D02*
X177654860Y-96854037D01*
X177654860Y-96854037D02*
X177692355Y-96741551D01*
X177692355Y-96741551D02*
X177767346Y-96666560D01*
X177767346Y-96666560D02*
X177879832Y-96629065D01*
X177879832Y-96629065D02*
X178029813Y-96629065D01*
X178029813Y-96629065D02*
X178142299Y-96666560D01*
X178142299Y-96666560D02*
X178217290Y-96741551D01*
X178217290Y-96741551D02*
X178254785Y-96854037D01*
X178254785Y-96854037D02*
X178254785Y-97041514D01*
X178254785Y-97041514D02*
X178217290Y-97154000D01*
X178217290Y-97154000D02*
X178142299Y-97228990D01*
X178142299Y-97228990D02*
X178067309Y-97266486D01*
X178067309Y-97266486D02*
X178067309Y-97416467D01*
X178067309Y-97416467D02*
X178254785Y-97416467D01*
X181483808Y-104071009D02*
X181626665Y-104118628D01*
X181626665Y-104118628D02*
X181674284Y-104166247D01*
X181674284Y-104166247D02*
X181721903Y-104261485D01*
X181721903Y-104261485D02*
X181721903Y-104404342D01*
X181721903Y-104404342D02*
X181674284Y-104499580D01*
X181674284Y-104499580D02*
X181626665Y-104547200D01*
X181626665Y-104547200D02*
X181531427Y-104594819D01*
X181531427Y-104594819D02*
X181150475Y-104594819D01*
X181150475Y-104594819D02*
X181150475Y-103594819D01*
X181150475Y-103594819D02*
X181483808Y-103594819D01*
X181483808Y-103594819D02*
X181579046Y-103642438D01*
X181579046Y-103642438D02*
X181626665Y-103690057D01*
X181626665Y-103690057D02*
X181674284Y-103785295D01*
X181674284Y-103785295D02*
X181674284Y-103880533D01*
X181674284Y-103880533D02*
X181626665Y-103975771D01*
X181626665Y-103975771D02*
X181579046Y-104023390D01*
X181579046Y-104023390D02*
X181483808Y-104071009D01*
X181483808Y-104071009D02*
X181150475Y-104071009D01*
X182150475Y-104594819D02*
X182150475Y-103928152D01*
X182150475Y-104118628D02*
X182198094Y-104023390D01*
X182198094Y-104023390D02*
X182245713Y-103975771D01*
X182245713Y-103975771D02*
X182340951Y-103928152D01*
X182340951Y-103928152D02*
X182436189Y-103928152D01*
X182769523Y-104594819D02*
X182769523Y-103928152D01*
X182769523Y-103594819D02*
X182721904Y-103642438D01*
X182721904Y-103642438D02*
X182769523Y-103690057D01*
X182769523Y-103690057D02*
X182817142Y-103642438D01*
X182817142Y-103642438D02*
X182769523Y-103594819D01*
X182769523Y-103594819D02*
X182769523Y-103690057D01*
X183674284Y-103928152D02*
X183674284Y-104737676D01*
X183674284Y-104737676D02*
X183626665Y-104832914D01*
X183626665Y-104832914D02*
X183579046Y-104880533D01*
X183579046Y-104880533D02*
X183483808Y-104928152D01*
X183483808Y-104928152D02*
X183340951Y-104928152D01*
X183340951Y-104928152D02*
X183245713Y-104880533D01*
X183674284Y-104547200D02*
X183579046Y-104594819D01*
X183579046Y-104594819D02*
X183388570Y-104594819D01*
X183388570Y-104594819D02*
X183293332Y-104547200D01*
X183293332Y-104547200D02*
X183245713Y-104499580D01*
X183245713Y-104499580D02*
X183198094Y-104404342D01*
X183198094Y-104404342D02*
X183198094Y-104118628D01*
X183198094Y-104118628D02*
X183245713Y-104023390D01*
X183245713Y-104023390D02*
X183293332Y-103975771D01*
X183293332Y-103975771D02*
X183388570Y-103928152D01*
X183388570Y-103928152D02*
X183579046Y-103928152D01*
X183579046Y-103928152D02*
X183674284Y-103975771D01*
X184150475Y-104594819D02*
X184150475Y-103594819D01*
X184579046Y-104594819D02*
X184579046Y-104071009D01*
X184579046Y-104071009D02*
X184531427Y-103975771D01*
X184531427Y-103975771D02*
X184436189Y-103928152D01*
X184436189Y-103928152D02*
X184293332Y-103928152D01*
X184293332Y-103928152D02*
X184198094Y-103975771D01*
X184198094Y-103975771D02*
X184150475Y-104023390D01*
X184912380Y-103928152D02*
X185293332Y-103928152D01*
X185055237Y-103594819D02*
X185055237Y-104451961D01*
X185055237Y-104451961D02*
X185102856Y-104547200D01*
X185102856Y-104547200D02*
X185198094Y-104594819D01*
X185198094Y-104594819D02*
X185293332Y-104594819D01*
X185626666Y-103928152D02*
X185626666Y-104594819D01*
X185626666Y-104023390D02*
X185674285Y-103975771D01*
X185674285Y-103975771D02*
X185769523Y-103928152D01*
X185769523Y-103928152D02*
X185912380Y-103928152D01*
X185912380Y-103928152D02*
X186007618Y-103975771D01*
X186007618Y-103975771D02*
X186055237Y-104071009D01*
X186055237Y-104071009D02*
X186055237Y-104594819D01*
X186912380Y-104547200D02*
X186817142Y-104594819D01*
X186817142Y-104594819D02*
X186626666Y-104594819D01*
X186626666Y-104594819D02*
X186531428Y-104547200D01*
X186531428Y-104547200D02*
X186483809Y-104451961D01*
X186483809Y-104451961D02*
X186483809Y-104071009D01*
X186483809Y-104071009D02*
X186531428Y-103975771D01*
X186531428Y-103975771D02*
X186626666Y-103928152D01*
X186626666Y-103928152D02*
X186817142Y-103928152D01*
X186817142Y-103928152D02*
X186912380Y-103975771D01*
X186912380Y-103975771D02*
X186959999Y-104071009D01*
X186959999Y-104071009D02*
X186959999Y-104166247D01*
X186959999Y-104166247D02*
X186483809Y-104261485D01*
X187340952Y-104547200D02*
X187436190Y-104594819D01*
X187436190Y-104594819D02*
X187626666Y-104594819D01*
X187626666Y-104594819D02*
X187721904Y-104547200D01*
X187721904Y-104547200D02*
X187769523Y-104451961D01*
X187769523Y-104451961D02*
X187769523Y-104404342D01*
X187769523Y-104404342D02*
X187721904Y-104309104D01*
X187721904Y-104309104D02*
X187626666Y-104261485D01*
X187626666Y-104261485D02*
X187483809Y-104261485D01*
X187483809Y-104261485D02*
X187388571Y-104213866D01*
X187388571Y-104213866D02*
X187340952Y-104118628D01*
X187340952Y-104118628D02*
X187340952Y-104071009D01*
X187340952Y-104071009D02*
X187388571Y-103975771D01*
X187388571Y-103975771D02*
X187483809Y-103928152D01*
X187483809Y-103928152D02*
X187626666Y-103928152D01*
X187626666Y-103928152D02*
X187721904Y-103975771D01*
X188150476Y-104547200D02*
X188245714Y-104594819D01*
X188245714Y-104594819D02*
X188436190Y-104594819D01*
X188436190Y-104594819D02*
X188531428Y-104547200D01*
X188531428Y-104547200D02*
X188579047Y-104451961D01*
X188579047Y-104451961D02*
X188579047Y-104404342D01*
X188579047Y-104404342D02*
X188531428Y-104309104D01*
X188531428Y-104309104D02*
X188436190Y-104261485D01*
X188436190Y-104261485D02*
X188293333Y-104261485D01*
X188293333Y-104261485D02*
X188198095Y-104213866D01*
X188198095Y-104213866D02*
X188150476Y-104118628D01*
X188150476Y-104118628D02*
X188150476Y-104071009D01*
X188150476Y-104071009D02*
X188198095Y-103975771D01*
X188198095Y-103975771D02*
X188293333Y-103928152D01*
X188293333Y-103928152D02*
X188436190Y-103928152D01*
X188436190Y-103928152D02*
X188531428Y-103975771D01*
X189721905Y-104309104D02*
X190198095Y-104309104D01*
X189626667Y-104594819D02*
X189960000Y-103594819D01*
X189960000Y-103594819D02*
X190293333Y-104594819D01*
X191055238Y-104594819D02*
X191055238Y-103594819D01*
X191055238Y-104547200D02*
X190960000Y-104594819D01*
X190960000Y-104594819D02*
X190769524Y-104594819D01*
X190769524Y-104594819D02*
X190674286Y-104547200D01*
X190674286Y-104547200D02*
X190626667Y-104499580D01*
X190626667Y-104499580D02*
X190579048Y-104404342D01*
X190579048Y-104404342D02*
X190579048Y-104118628D01*
X190579048Y-104118628D02*
X190626667Y-104023390D01*
X190626667Y-104023390D02*
X190674286Y-103975771D01*
X190674286Y-103975771D02*
X190769524Y-103928152D01*
X190769524Y-103928152D02*
X190960000Y-103928152D01*
X190960000Y-103928152D02*
X191055238Y-103975771D01*
X191531429Y-103928152D02*
X191531429Y-104785295D01*
X191531429Y-104785295D02*
X191483810Y-104880533D01*
X191483810Y-104880533D02*
X191388572Y-104928152D01*
X191388572Y-104928152D02*
X191340953Y-104928152D01*
X191531429Y-103594819D02*
X191483810Y-103642438D01*
X191483810Y-103642438D02*
X191531429Y-103690057D01*
X191531429Y-103690057D02*
X191579048Y-103642438D01*
X191579048Y-103642438D02*
X191531429Y-103594819D01*
X191531429Y-103594819D02*
X191531429Y-103690057D01*
X192436190Y-103928152D02*
X192436190Y-104594819D01*
X192007619Y-103928152D02*
X192007619Y-104451961D01*
X192007619Y-104451961D02*
X192055238Y-104547200D01*
X192055238Y-104547200D02*
X192150476Y-104594819D01*
X192150476Y-104594819D02*
X192293333Y-104594819D01*
X192293333Y-104594819D02*
X192388571Y-104547200D01*
X192388571Y-104547200D02*
X192436190Y-104499580D01*
X192864762Y-104547200D02*
X192960000Y-104594819D01*
X192960000Y-104594819D02*
X193150476Y-104594819D01*
X193150476Y-104594819D02*
X193245714Y-104547200D01*
X193245714Y-104547200D02*
X193293333Y-104451961D01*
X193293333Y-104451961D02*
X193293333Y-104404342D01*
X193293333Y-104404342D02*
X193245714Y-104309104D01*
X193245714Y-104309104D02*
X193150476Y-104261485D01*
X193150476Y-104261485D02*
X193007619Y-104261485D01*
X193007619Y-104261485D02*
X192912381Y-104213866D01*
X192912381Y-104213866D02*
X192864762Y-104118628D01*
X192864762Y-104118628D02*
X192864762Y-104071009D01*
X192864762Y-104071009D02*
X192912381Y-103975771D01*
X192912381Y-103975771D02*
X193007619Y-103928152D01*
X193007619Y-103928152D02*
X193150476Y-103928152D01*
X193150476Y-103928152D02*
X193245714Y-103975771D01*
X193579048Y-103928152D02*
X193960000Y-103928152D01*
X193721905Y-103594819D02*
X193721905Y-104451961D01*
X193721905Y-104451961D02*
X193769524Y-104547200D01*
X193769524Y-104547200D02*
X193864762Y-104594819D01*
X193864762Y-104594819D02*
X193960000Y-104594819D01*
X194817143Y-104594819D02*
X194245715Y-104594819D01*
X194531429Y-104594819D02*
X194531429Y-103594819D01*
X194531429Y-103594819D02*
X194436191Y-103737676D01*
X194436191Y-103737676D02*
X194340953Y-103832914D01*
X194340953Y-103832914D02*
X194245715Y-103880533D01*
X136976467Y-116788598D02*
X136976467Y-117238542D01*
X136976467Y-117013570D02*
X136189065Y-117013570D01*
X136189065Y-117013570D02*
X136301551Y-117088561D01*
X136301551Y-117088561D02*
X136376542Y-117163552D01*
X136376542Y-117163552D02*
X136414037Y-117238542D01*
X136189065Y-116301159D02*
X136189065Y-116226168D01*
X136189065Y-116226168D02*
X136226560Y-116151177D01*
X136226560Y-116151177D02*
X136264056Y-116113682D01*
X136264056Y-116113682D02*
X136339046Y-116076187D01*
X136339046Y-116076187D02*
X136489028Y-116038691D01*
X136489028Y-116038691D02*
X136676504Y-116038691D01*
X136676504Y-116038691D02*
X136826486Y-116076187D01*
X136826486Y-116076187D02*
X136901476Y-116113682D01*
X136901476Y-116113682D02*
X136938972Y-116151177D01*
X136938972Y-116151177D02*
X136976467Y-116226168D01*
X136976467Y-116226168D02*
X136976467Y-116301159D01*
X136976467Y-116301159D02*
X136938972Y-116376149D01*
X136938972Y-116376149D02*
X136901476Y-116413645D01*
X136901476Y-116413645D02*
X136826486Y-116451140D01*
X136826486Y-116451140D02*
X136676504Y-116488635D01*
X136676504Y-116488635D02*
X136489028Y-116488635D01*
X136489028Y-116488635D02*
X136339046Y-116451140D01*
X136339046Y-116451140D02*
X136264056Y-116413645D01*
X136264056Y-116413645D02*
X136226560Y-116376149D01*
X136226560Y-116376149D02*
X136189065Y-116301159D01*
X136976467Y-115701233D02*
X136189065Y-115701233D01*
X136676504Y-115626242D02*
X136976467Y-115401270D01*
X136451532Y-115401270D02*
X136751495Y-115701233D01*
X136976467Y-114501382D02*
X136976467Y-114313906D01*
X136976467Y-114313906D02*
X136826486Y-114313906D01*
X136826486Y-114313906D02*
X136788990Y-114388896D01*
X136788990Y-114388896D02*
X136714000Y-114463887D01*
X136714000Y-114463887D02*
X136601514Y-114501382D01*
X136601514Y-114501382D02*
X136414037Y-114501382D01*
X136414037Y-114501382D02*
X136301551Y-114463887D01*
X136301551Y-114463887D02*
X136226560Y-114388896D01*
X136226560Y-114388896D02*
X136189065Y-114276410D01*
X136189065Y-114276410D02*
X136189065Y-114126429D01*
X136189065Y-114126429D02*
X136226560Y-114013943D01*
X136226560Y-114013943D02*
X136301551Y-113938952D01*
X136301551Y-113938952D02*
X136414037Y-113901457D01*
X136414037Y-113901457D02*
X136601514Y-113901457D01*
X136601514Y-113901457D02*
X136714000Y-113938952D01*
X136714000Y-113938952D02*
X136788990Y-114013943D01*
X136788990Y-114013943D02*
X136826486Y-114088934D01*
X136826486Y-114088934D02*
X136976467Y-114088934D01*
X136976467Y-114088934D02*
X136976467Y-113901457D01*
X146946467Y-76148598D02*
X146946467Y-76598542D01*
X146946467Y-76373570D02*
X146159065Y-76373570D01*
X146159065Y-76373570D02*
X146271551Y-76448561D01*
X146271551Y-76448561D02*
X146346542Y-76523552D01*
X146346542Y-76523552D02*
X146384037Y-76598542D01*
X146159065Y-75661159D02*
X146159065Y-75586168D01*
X146159065Y-75586168D02*
X146196560Y-75511177D01*
X146196560Y-75511177D02*
X146234056Y-75473682D01*
X146234056Y-75473682D02*
X146309046Y-75436187D01*
X146309046Y-75436187D02*
X146459028Y-75398691D01*
X146459028Y-75398691D02*
X146646504Y-75398691D01*
X146646504Y-75398691D02*
X146796486Y-75436187D01*
X146796486Y-75436187D02*
X146871476Y-75473682D01*
X146871476Y-75473682D02*
X146908972Y-75511177D01*
X146908972Y-75511177D02*
X146946467Y-75586168D01*
X146946467Y-75586168D02*
X146946467Y-75661159D01*
X146946467Y-75661159D02*
X146908972Y-75736149D01*
X146908972Y-75736149D02*
X146871476Y-75773645D01*
X146871476Y-75773645D02*
X146796486Y-75811140D01*
X146796486Y-75811140D02*
X146646504Y-75848635D01*
X146646504Y-75848635D02*
X146459028Y-75848635D01*
X146459028Y-75848635D02*
X146309046Y-75811140D01*
X146309046Y-75811140D02*
X146234056Y-75773645D01*
X146234056Y-75773645D02*
X146196560Y-75736149D01*
X146196560Y-75736149D02*
X146159065Y-75661159D01*
X146946467Y-75061233D02*
X146159065Y-75061233D01*
X146646504Y-74986242D02*
X146946467Y-74761270D01*
X146421532Y-74761270D02*
X146721495Y-75061233D01*
X146946467Y-73861382D02*
X146946467Y-73673906D01*
X146946467Y-73673906D02*
X146796486Y-73673906D01*
X146796486Y-73673906D02*
X146758990Y-73748896D01*
X146758990Y-73748896D02*
X146684000Y-73823887D01*
X146684000Y-73823887D02*
X146571514Y-73861382D01*
X146571514Y-73861382D02*
X146384037Y-73861382D01*
X146384037Y-73861382D02*
X146271551Y-73823887D01*
X146271551Y-73823887D02*
X146196560Y-73748896D01*
X146196560Y-73748896D02*
X146159065Y-73636410D01*
X146159065Y-73636410D02*
X146159065Y-73486429D01*
X146159065Y-73486429D02*
X146196560Y-73373943D01*
X146196560Y-73373943D02*
X146271551Y-73298952D01*
X146271551Y-73298952D02*
X146384037Y-73261457D01*
X146384037Y-73261457D02*
X146571514Y-73261457D01*
X146571514Y-73261457D02*
X146684000Y-73298952D01*
X146684000Y-73298952D02*
X146758990Y-73373943D01*
X146758990Y-73373943D02*
X146796486Y-73448934D01*
X146796486Y-73448934D02*
X146946467Y-73448934D01*
X146946467Y-73448934D02*
X146946467Y-73261457D01*
X143619580Y-74390000D02*
X143667200Y-74437619D01*
X143667200Y-74437619D02*
X143714819Y-74580476D01*
X143714819Y-74580476D02*
X143714819Y-74675714D01*
X143714819Y-74675714D02*
X143667200Y-74818571D01*
X143667200Y-74818571D02*
X143571961Y-74913809D01*
X143571961Y-74913809D02*
X143476723Y-74961428D01*
X143476723Y-74961428D02*
X143286247Y-75009047D01*
X143286247Y-75009047D02*
X143143390Y-75009047D01*
X143143390Y-75009047D02*
X142952914Y-74961428D01*
X142952914Y-74961428D02*
X142857676Y-74913809D01*
X142857676Y-74913809D02*
X142762438Y-74818571D01*
X142762438Y-74818571D02*
X142714819Y-74675714D01*
X142714819Y-74675714D02*
X142714819Y-74580476D01*
X142714819Y-74580476D02*
X142762438Y-74437619D01*
X142762438Y-74437619D02*
X142810057Y-74390000D01*
X143667200Y-74009047D02*
X143714819Y-73866190D01*
X143714819Y-73866190D02*
X143714819Y-73628095D01*
X143714819Y-73628095D02*
X143667200Y-73532857D01*
X143667200Y-73532857D02*
X143619580Y-73485238D01*
X143619580Y-73485238D02*
X143524342Y-73437619D01*
X143524342Y-73437619D02*
X143429104Y-73437619D01*
X143429104Y-73437619D02*
X143333866Y-73485238D01*
X143333866Y-73485238D02*
X143286247Y-73532857D01*
X143286247Y-73532857D02*
X143238628Y-73628095D01*
X143238628Y-73628095D02*
X143191009Y-73818571D01*
X143191009Y-73818571D02*
X143143390Y-73913809D01*
X143143390Y-73913809D02*
X143095771Y-73961428D01*
X143095771Y-73961428D02*
X143000533Y-74009047D01*
X143000533Y-74009047D02*
X142905295Y-74009047D01*
X142905295Y-74009047D02*
X142810057Y-73961428D01*
X142810057Y-73961428D02*
X142762438Y-73913809D01*
X142762438Y-73913809D02*
X142714819Y-73818571D01*
X142714819Y-73818571D02*
X142714819Y-73580476D01*
X142714819Y-73580476D02*
X142762438Y-73437619D01*
X143810057Y-73247143D02*
X143810057Y-72485238D01*
X143667200Y-72294761D02*
X143714819Y-72151904D01*
X143714819Y-72151904D02*
X143714819Y-71913809D01*
X143714819Y-71913809D02*
X143667200Y-71818571D01*
X143667200Y-71818571D02*
X143619580Y-71770952D01*
X143619580Y-71770952D02*
X143524342Y-71723333D01*
X143524342Y-71723333D02*
X143429104Y-71723333D01*
X143429104Y-71723333D02*
X143333866Y-71770952D01*
X143333866Y-71770952D02*
X143286247Y-71818571D01*
X143286247Y-71818571D02*
X143238628Y-71913809D01*
X143238628Y-71913809D02*
X143191009Y-72104285D01*
X143191009Y-72104285D02*
X143143390Y-72199523D01*
X143143390Y-72199523D02*
X143095771Y-72247142D01*
X143095771Y-72247142D02*
X143000533Y-72294761D01*
X143000533Y-72294761D02*
X142905295Y-72294761D01*
X142905295Y-72294761D02*
X142810057Y-72247142D01*
X142810057Y-72247142D02*
X142762438Y-72199523D01*
X142762438Y-72199523D02*
X142714819Y-72104285D01*
X142714819Y-72104285D02*
X142714819Y-71866190D01*
X142714819Y-71866190D02*
X142762438Y-71723333D01*
X143714819Y-71294761D02*
X142714819Y-71294761D01*
X142714819Y-71294761D02*
X142714819Y-71056666D01*
X142714819Y-71056666D02*
X142762438Y-70913809D01*
X142762438Y-70913809D02*
X142857676Y-70818571D01*
X142857676Y-70818571D02*
X142952914Y-70770952D01*
X142952914Y-70770952D02*
X143143390Y-70723333D01*
X143143390Y-70723333D02*
X143286247Y-70723333D01*
X143286247Y-70723333D02*
X143476723Y-70770952D01*
X143476723Y-70770952D02*
X143571961Y-70818571D01*
X143571961Y-70818571D02*
X143667200Y-70913809D01*
X143667200Y-70913809D02*
X143714819Y-71056666D01*
X143714819Y-71056666D02*
X143714819Y-71294761D01*
X143714819Y-69770952D02*
X143714819Y-70342380D01*
X143714819Y-70056666D02*
X142714819Y-70056666D01*
X142714819Y-70056666D02*
X142857676Y-70151904D01*
X142857676Y-70151904D02*
X142952914Y-70247142D01*
X142952914Y-70247142D02*
X143000533Y-70342380D01*
X174194819Y-73628094D02*
X173194819Y-73628094D01*
X173194819Y-73628094D02*
X173194819Y-73389999D01*
X173194819Y-73389999D02*
X173242438Y-73247142D01*
X173242438Y-73247142D02*
X173337676Y-73151904D01*
X173337676Y-73151904D02*
X173432914Y-73104285D01*
X173432914Y-73104285D02*
X173623390Y-73056666D01*
X173623390Y-73056666D02*
X173766247Y-73056666D01*
X173766247Y-73056666D02*
X173956723Y-73104285D01*
X173956723Y-73104285D02*
X174051961Y-73151904D01*
X174051961Y-73151904D02*
X174147200Y-73247142D01*
X174147200Y-73247142D02*
X174194819Y-73389999D01*
X174194819Y-73389999D02*
X174194819Y-73628094D01*
X174099580Y-72056666D02*
X174147200Y-72104285D01*
X174147200Y-72104285D02*
X174194819Y-72247142D01*
X174194819Y-72247142D02*
X174194819Y-72342380D01*
X174194819Y-72342380D02*
X174147200Y-72485237D01*
X174147200Y-72485237D02*
X174051961Y-72580475D01*
X174051961Y-72580475D02*
X173956723Y-72628094D01*
X173956723Y-72628094D02*
X173766247Y-72675713D01*
X173766247Y-72675713D02*
X173623390Y-72675713D01*
X173623390Y-72675713D02*
X173432914Y-72628094D01*
X173432914Y-72628094D02*
X173337676Y-72580475D01*
X173337676Y-72580475D02*
X173242438Y-72485237D01*
X173242438Y-72485237D02*
X173194819Y-72342380D01*
X173194819Y-72342380D02*
X173194819Y-72247142D01*
X173194819Y-72247142D02*
X173242438Y-72104285D01*
X173242438Y-72104285D02*
X173290057Y-72056666D01*
X174194819Y-71104285D02*
X174194819Y-71675713D01*
X174194819Y-71389999D02*
X173194819Y-71389999D01*
X173194819Y-71389999D02*
X173337676Y-71485237D01*
X173337676Y-71485237D02*
X173432914Y-71580475D01*
X173432914Y-71580475D02*
X173480533Y-71675713D01*
X183966467Y-115518598D02*
X183966467Y-115968542D01*
X183966467Y-115743570D02*
X183179065Y-115743570D01*
X183179065Y-115743570D02*
X183291551Y-115818561D01*
X183291551Y-115818561D02*
X183366542Y-115893552D01*
X183366542Y-115893552D02*
X183404037Y-115968542D01*
X183179065Y-115031159D02*
X183179065Y-114956168D01*
X183179065Y-114956168D02*
X183216560Y-114881177D01*
X183216560Y-114881177D02*
X183254056Y-114843682D01*
X183254056Y-114843682D02*
X183329046Y-114806187D01*
X183329046Y-114806187D02*
X183479028Y-114768691D01*
X183479028Y-114768691D02*
X183666504Y-114768691D01*
X183666504Y-114768691D02*
X183816486Y-114806187D01*
X183816486Y-114806187D02*
X183891476Y-114843682D01*
X183891476Y-114843682D02*
X183928972Y-114881177D01*
X183928972Y-114881177D02*
X183966467Y-114956168D01*
X183966467Y-114956168D02*
X183966467Y-115031159D01*
X183966467Y-115031159D02*
X183928972Y-115106149D01*
X183928972Y-115106149D02*
X183891476Y-115143645D01*
X183891476Y-115143645D02*
X183816486Y-115181140D01*
X183816486Y-115181140D02*
X183666504Y-115218635D01*
X183666504Y-115218635D02*
X183479028Y-115218635D01*
X183479028Y-115218635D02*
X183329046Y-115181140D01*
X183329046Y-115181140D02*
X183254056Y-115143645D01*
X183254056Y-115143645D02*
X183216560Y-115106149D01*
X183216560Y-115106149D02*
X183179065Y-115031159D01*
X183966467Y-114431233D02*
X183179065Y-114431233D01*
X183666504Y-114356242D02*
X183966467Y-114131270D01*
X183441532Y-114131270D02*
X183741495Y-114431233D01*
X183966467Y-113231382D02*
X183966467Y-113043906D01*
X183966467Y-113043906D02*
X183816486Y-113043906D01*
X183816486Y-113043906D02*
X183778990Y-113118896D01*
X183778990Y-113118896D02*
X183704000Y-113193887D01*
X183704000Y-113193887D02*
X183591514Y-113231382D01*
X183591514Y-113231382D02*
X183404037Y-113231382D01*
X183404037Y-113231382D02*
X183291551Y-113193887D01*
X183291551Y-113193887D02*
X183216560Y-113118896D01*
X183216560Y-113118896D02*
X183179065Y-113006410D01*
X183179065Y-113006410D02*
X183179065Y-112856429D01*
X183179065Y-112856429D02*
X183216560Y-112743943D01*
X183216560Y-112743943D02*
X183291551Y-112668952D01*
X183291551Y-112668952D02*
X183404037Y-112631457D01*
X183404037Y-112631457D02*
X183591514Y-112631457D01*
X183591514Y-112631457D02*
X183704000Y-112668952D01*
X183704000Y-112668952D02*
X183778990Y-112743943D01*
X183778990Y-112743943D02*
X183816486Y-112818934D01*
X183816486Y-112818934D02*
X183966467Y-112818934D01*
X183966467Y-112818934D02*
X183966467Y-112631457D01*
X131896467Y-109168598D02*
X131896467Y-109618542D01*
X131896467Y-109393570D02*
X131109065Y-109393570D01*
X131109065Y-109393570D02*
X131221551Y-109468561D01*
X131221551Y-109468561D02*
X131296542Y-109543552D01*
X131296542Y-109543552D02*
X131334037Y-109618542D01*
X131109065Y-108681159D02*
X131109065Y-108606168D01*
X131109065Y-108606168D02*
X131146560Y-108531177D01*
X131146560Y-108531177D02*
X131184056Y-108493682D01*
X131184056Y-108493682D02*
X131259046Y-108456187D01*
X131259046Y-108456187D02*
X131409028Y-108418691D01*
X131409028Y-108418691D02*
X131596504Y-108418691D01*
X131596504Y-108418691D02*
X131746486Y-108456187D01*
X131746486Y-108456187D02*
X131821476Y-108493682D01*
X131821476Y-108493682D02*
X131858972Y-108531177D01*
X131858972Y-108531177D02*
X131896467Y-108606168D01*
X131896467Y-108606168D02*
X131896467Y-108681159D01*
X131896467Y-108681159D02*
X131858972Y-108756149D01*
X131858972Y-108756149D02*
X131821476Y-108793645D01*
X131821476Y-108793645D02*
X131746486Y-108831140D01*
X131746486Y-108831140D02*
X131596504Y-108868635D01*
X131596504Y-108868635D02*
X131409028Y-108868635D01*
X131409028Y-108868635D02*
X131259046Y-108831140D01*
X131259046Y-108831140D02*
X131184056Y-108793645D01*
X131184056Y-108793645D02*
X131146560Y-108756149D01*
X131146560Y-108756149D02*
X131109065Y-108681159D01*
X131896467Y-108081233D02*
X131109065Y-108081233D01*
X131596504Y-108006242D02*
X131896467Y-107781270D01*
X131371532Y-107781270D02*
X131671495Y-108081233D01*
X131896467Y-106881382D02*
X131896467Y-106693906D01*
X131896467Y-106693906D02*
X131746486Y-106693906D01*
X131746486Y-106693906D02*
X131708990Y-106768896D01*
X131708990Y-106768896D02*
X131634000Y-106843887D01*
X131634000Y-106843887D02*
X131521514Y-106881382D01*
X131521514Y-106881382D02*
X131334037Y-106881382D01*
X131334037Y-106881382D02*
X131221551Y-106843887D01*
X131221551Y-106843887D02*
X131146560Y-106768896D01*
X131146560Y-106768896D02*
X131109065Y-106656410D01*
X131109065Y-106656410D02*
X131109065Y-106506429D01*
X131109065Y-106506429D02*
X131146560Y-106393943D01*
X131146560Y-106393943D02*
X131221551Y-106318952D01*
X131221551Y-106318952D02*
X131334037Y-106281457D01*
X131334037Y-106281457D02*
X131521514Y-106281457D01*
X131521514Y-106281457D02*
X131634000Y-106318952D01*
X131634000Y-106318952D02*
X131708990Y-106393943D01*
X131708990Y-106393943D02*
X131746486Y-106468934D01*
X131746486Y-106468934D02*
X131896467Y-106468934D01*
X131896467Y-106468934D02*
X131896467Y-106281457D01*
X130436467Y-76148598D02*
X130436467Y-76598542D01*
X130436467Y-76373570D02*
X129649065Y-76373570D01*
X129649065Y-76373570D02*
X129761551Y-76448561D01*
X129761551Y-76448561D02*
X129836542Y-76523552D01*
X129836542Y-76523552D02*
X129874037Y-76598542D01*
X129649065Y-75661159D02*
X129649065Y-75586168D01*
X129649065Y-75586168D02*
X129686560Y-75511177D01*
X129686560Y-75511177D02*
X129724056Y-75473682D01*
X129724056Y-75473682D02*
X129799046Y-75436187D01*
X129799046Y-75436187D02*
X129949028Y-75398691D01*
X129949028Y-75398691D02*
X130136504Y-75398691D01*
X130136504Y-75398691D02*
X130286486Y-75436187D01*
X130286486Y-75436187D02*
X130361476Y-75473682D01*
X130361476Y-75473682D02*
X130398972Y-75511177D01*
X130398972Y-75511177D02*
X130436467Y-75586168D01*
X130436467Y-75586168D02*
X130436467Y-75661159D01*
X130436467Y-75661159D02*
X130398972Y-75736149D01*
X130398972Y-75736149D02*
X130361476Y-75773645D01*
X130361476Y-75773645D02*
X130286486Y-75811140D01*
X130286486Y-75811140D02*
X130136504Y-75848635D01*
X130136504Y-75848635D02*
X129949028Y-75848635D01*
X129949028Y-75848635D02*
X129799046Y-75811140D01*
X129799046Y-75811140D02*
X129724056Y-75773645D01*
X129724056Y-75773645D02*
X129686560Y-75736149D01*
X129686560Y-75736149D02*
X129649065Y-75661159D01*
X130436467Y-75061233D02*
X129649065Y-75061233D01*
X130136504Y-74986242D02*
X130436467Y-74761270D01*
X129911532Y-74761270D02*
X130211495Y-75061233D01*
X130436467Y-73861382D02*
X130436467Y-73673906D01*
X130436467Y-73673906D02*
X130286486Y-73673906D01*
X130286486Y-73673906D02*
X130248990Y-73748896D01*
X130248990Y-73748896D02*
X130174000Y-73823887D01*
X130174000Y-73823887D02*
X130061514Y-73861382D01*
X130061514Y-73861382D02*
X129874037Y-73861382D01*
X129874037Y-73861382D02*
X129761551Y-73823887D01*
X129761551Y-73823887D02*
X129686560Y-73748896D01*
X129686560Y-73748896D02*
X129649065Y-73636410D01*
X129649065Y-73636410D02*
X129649065Y-73486429D01*
X129649065Y-73486429D02*
X129686560Y-73373943D01*
X129686560Y-73373943D02*
X129761551Y-73298952D01*
X129761551Y-73298952D02*
X129874037Y-73261457D01*
X129874037Y-73261457D02*
X130061514Y-73261457D01*
X130061514Y-73261457D02*
X130174000Y-73298952D01*
X130174000Y-73298952D02*
X130248990Y-73373943D01*
X130248990Y-73373943D02*
X130286486Y-73448934D01*
X130286486Y-73448934D02*
X130436467Y-73448934D01*
X130436467Y-73448934D02*
X130436467Y-73261457D01*
X153296467Y-82498598D02*
X153296467Y-82948542D01*
X153296467Y-82723570D02*
X152509065Y-82723570D01*
X152509065Y-82723570D02*
X152621551Y-82798561D01*
X152621551Y-82798561D02*
X152696542Y-82873552D01*
X152696542Y-82873552D02*
X152734037Y-82948542D01*
X152509065Y-82011159D02*
X152509065Y-81936168D01*
X152509065Y-81936168D02*
X152546560Y-81861177D01*
X152546560Y-81861177D02*
X152584056Y-81823682D01*
X152584056Y-81823682D02*
X152659046Y-81786187D01*
X152659046Y-81786187D02*
X152809028Y-81748691D01*
X152809028Y-81748691D02*
X152996504Y-81748691D01*
X152996504Y-81748691D02*
X153146486Y-81786187D01*
X153146486Y-81786187D02*
X153221476Y-81823682D01*
X153221476Y-81823682D02*
X153258972Y-81861177D01*
X153258972Y-81861177D02*
X153296467Y-81936168D01*
X153296467Y-81936168D02*
X153296467Y-82011159D01*
X153296467Y-82011159D02*
X153258972Y-82086149D01*
X153258972Y-82086149D02*
X153221476Y-82123645D01*
X153221476Y-82123645D02*
X153146486Y-82161140D01*
X153146486Y-82161140D02*
X152996504Y-82198635D01*
X152996504Y-82198635D02*
X152809028Y-82198635D01*
X152809028Y-82198635D02*
X152659046Y-82161140D01*
X152659046Y-82161140D02*
X152584056Y-82123645D01*
X152584056Y-82123645D02*
X152546560Y-82086149D01*
X152546560Y-82086149D02*
X152509065Y-82011159D01*
X153296467Y-81411233D02*
X152509065Y-81411233D01*
X152996504Y-81336242D02*
X153296467Y-81111270D01*
X152771532Y-81111270D02*
X153071495Y-81411233D01*
X153296467Y-80211382D02*
X153296467Y-80023906D01*
X153296467Y-80023906D02*
X153146486Y-80023906D01*
X153146486Y-80023906D02*
X153108990Y-80098896D01*
X153108990Y-80098896D02*
X153034000Y-80173887D01*
X153034000Y-80173887D02*
X152921514Y-80211382D01*
X152921514Y-80211382D02*
X152734037Y-80211382D01*
X152734037Y-80211382D02*
X152621551Y-80173887D01*
X152621551Y-80173887D02*
X152546560Y-80098896D01*
X152546560Y-80098896D02*
X152509065Y-79986410D01*
X152509065Y-79986410D02*
X152509065Y-79836429D01*
X152509065Y-79836429D02*
X152546560Y-79723943D01*
X152546560Y-79723943D02*
X152621551Y-79648952D01*
X152621551Y-79648952D02*
X152734037Y-79611457D01*
X152734037Y-79611457D02*
X152921514Y-79611457D01*
X152921514Y-79611457D02*
X153034000Y-79648952D01*
X153034000Y-79648952D02*
X153108990Y-79723943D01*
X153108990Y-79723943D02*
X153146486Y-79798934D01*
X153146486Y-79798934D02*
X153296467Y-79798934D01*
X153296467Y-79798934D02*
X153296467Y-79611457D01*
X142944819Y-118768571D02*
X142468628Y-119101904D01*
X142944819Y-119339999D02*
X141944819Y-119339999D01*
X141944819Y-119339999D02*
X141944819Y-118959047D01*
X141944819Y-118959047D02*
X141992438Y-118863809D01*
X141992438Y-118863809D02*
X142040057Y-118816190D01*
X142040057Y-118816190D02*
X142135295Y-118768571D01*
X142135295Y-118768571D02*
X142278152Y-118768571D01*
X142278152Y-118768571D02*
X142373390Y-118816190D01*
X142373390Y-118816190D02*
X142421009Y-118863809D01*
X142421009Y-118863809D02*
X142468628Y-118959047D01*
X142468628Y-118959047D02*
X142468628Y-119339999D01*
X142421009Y-118339999D02*
X142421009Y-118006666D01*
X142944819Y-117863809D02*
X142944819Y-118339999D01*
X142944819Y-118339999D02*
X141944819Y-118339999D01*
X141944819Y-118339999D02*
X141944819Y-117863809D01*
X142897200Y-117482856D02*
X142944819Y-117339999D01*
X142944819Y-117339999D02*
X142944819Y-117101904D01*
X142944819Y-117101904D02*
X142897200Y-117006666D01*
X142897200Y-117006666D02*
X142849580Y-116959047D01*
X142849580Y-116959047D02*
X142754342Y-116911428D01*
X142754342Y-116911428D02*
X142659104Y-116911428D01*
X142659104Y-116911428D02*
X142563866Y-116959047D01*
X142563866Y-116959047D02*
X142516247Y-117006666D01*
X142516247Y-117006666D02*
X142468628Y-117101904D01*
X142468628Y-117101904D02*
X142421009Y-117292380D01*
X142421009Y-117292380D02*
X142373390Y-117387618D01*
X142373390Y-117387618D02*
X142325771Y-117435237D01*
X142325771Y-117435237D02*
X142230533Y-117482856D01*
X142230533Y-117482856D02*
X142135295Y-117482856D01*
X142135295Y-117482856D02*
X142040057Y-117435237D01*
X142040057Y-117435237D02*
X141992438Y-117387618D01*
X141992438Y-117387618D02*
X141944819Y-117292380D01*
X141944819Y-117292380D02*
X141944819Y-117054285D01*
X141944819Y-117054285D02*
X141992438Y-116911428D01*
X142421009Y-116482856D02*
X142421009Y-116149523D01*
X142944819Y-116006666D02*
X142944819Y-116482856D01*
X142944819Y-116482856D02*
X141944819Y-116482856D01*
X141944819Y-116482856D02*
X141944819Y-116006666D01*
X141944819Y-115720951D02*
X141944819Y-115149523D01*
X142944819Y-115435237D02*
X141944819Y-115435237D01*
X142944819Y-114292380D02*
X142944819Y-114863808D01*
X142944819Y-114578094D02*
X141944819Y-114578094D01*
X141944819Y-114578094D02*
X142087676Y-114673332D01*
X142087676Y-114673332D02*
X142182914Y-114768570D01*
X142182914Y-114768570D02*
X142230533Y-114863808D01*
X122816467Y-82498598D02*
X122816467Y-82948542D01*
X122816467Y-82723570D02*
X122029065Y-82723570D01*
X122029065Y-82723570D02*
X122141551Y-82798561D01*
X122141551Y-82798561D02*
X122216542Y-82873552D01*
X122216542Y-82873552D02*
X122254037Y-82948542D01*
X122029065Y-82011159D02*
X122029065Y-81936168D01*
X122029065Y-81936168D02*
X122066560Y-81861177D01*
X122066560Y-81861177D02*
X122104056Y-81823682D01*
X122104056Y-81823682D02*
X122179046Y-81786187D01*
X122179046Y-81786187D02*
X122329028Y-81748691D01*
X122329028Y-81748691D02*
X122516504Y-81748691D01*
X122516504Y-81748691D02*
X122666486Y-81786187D01*
X122666486Y-81786187D02*
X122741476Y-81823682D01*
X122741476Y-81823682D02*
X122778972Y-81861177D01*
X122778972Y-81861177D02*
X122816467Y-81936168D01*
X122816467Y-81936168D02*
X122816467Y-82011159D01*
X122816467Y-82011159D02*
X122778972Y-82086149D01*
X122778972Y-82086149D02*
X122741476Y-82123645D01*
X122741476Y-82123645D02*
X122666486Y-82161140D01*
X122666486Y-82161140D02*
X122516504Y-82198635D01*
X122516504Y-82198635D02*
X122329028Y-82198635D01*
X122329028Y-82198635D02*
X122179046Y-82161140D01*
X122179046Y-82161140D02*
X122104056Y-82123645D01*
X122104056Y-82123645D02*
X122066560Y-82086149D01*
X122066560Y-82086149D02*
X122029065Y-82011159D01*
X122816467Y-81411233D02*
X122029065Y-81411233D01*
X122516504Y-81336242D02*
X122816467Y-81111270D01*
X122291532Y-81111270D02*
X122591495Y-81411233D01*
X122816467Y-80211382D02*
X122816467Y-80023906D01*
X122816467Y-80023906D02*
X122666486Y-80023906D01*
X122666486Y-80023906D02*
X122628990Y-80098896D01*
X122628990Y-80098896D02*
X122554000Y-80173887D01*
X122554000Y-80173887D02*
X122441514Y-80211382D01*
X122441514Y-80211382D02*
X122254037Y-80211382D01*
X122254037Y-80211382D02*
X122141551Y-80173887D01*
X122141551Y-80173887D02*
X122066560Y-80098896D01*
X122066560Y-80098896D02*
X122029065Y-79986410D01*
X122029065Y-79986410D02*
X122029065Y-79836429D01*
X122029065Y-79836429D02*
X122066560Y-79723943D01*
X122066560Y-79723943D02*
X122141551Y-79648952D01*
X122141551Y-79648952D02*
X122254037Y-79611457D01*
X122254037Y-79611457D02*
X122441514Y-79611457D01*
X122441514Y-79611457D02*
X122554000Y-79648952D01*
X122554000Y-79648952D02*
X122628990Y-79723943D01*
X122628990Y-79723943D02*
X122666486Y-79798934D01*
X122666486Y-79798934D02*
X122816467Y-79798934D01*
X122816467Y-79798934D02*
X122816467Y-79611457D01*
X128474819Y-74437618D02*
X127474819Y-74437618D01*
X127474819Y-74437618D02*
X128189104Y-74104285D01*
X128189104Y-74104285D02*
X127474819Y-73770952D01*
X127474819Y-73770952D02*
X128474819Y-73770952D01*
X128474819Y-73294761D02*
X127474819Y-73294761D01*
X128427200Y-72866190D02*
X128474819Y-72723333D01*
X128474819Y-72723333D02*
X128474819Y-72485238D01*
X128474819Y-72485238D02*
X128427200Y-72390000D01*
X128427200Y-72390000D02*
X128379580Y-72342381D01*
X128379580Y-72342381D02*
X128284342Y-72294762D01*
X128284342Y-72294762D02*
X128189104Y-72294762D01*
X128189104Y-72294762D02*
X128093866Y-72342381D01*
X128093866Y-72342381D02*
X128046247Y-72390000D01*
X128046247Y-72390000D02*
X127998628Y-72485238D01*
X127998628Y-72485238D02*
X127951009Y-72675714D01*
X127951009Y-72675714D02*
X127903390Y-72770952D01*
X127903390Y-72770952D02*
X127855771Y-72818571D01*
X127855771Y-72818571D02*
X127760533Y-72866190D01*
X127760533Y-72866190D02*
X127665295Y-72866190D01*
X127665295Y-72866190D02*
X127570057Y-72818571D01*
X127570057Y-72818571D02*
X127522438Y-72770952D01*
X127522438Y-72770952D02*
X127474819Y-72675714D01*
X127474819Y-72675714D02*
X127474819Y-72437619D01*
X127474819Y-72437619D02*
X127522438Y-72294762D01*
X127474819Y-71675714D02*
X127474819Y-71485238D01*
X127474819Y-71485238D02*
X127522438Y-71390000D01*
X127522438Y-71390000D02*
X127617676Y-71294762D01*
X127617676Y-71294762D02*
X127808152Y-71247143D01*
X127808152Y-71247143D02*
X128141485Y-71247143D01*
X128141485Y-71247143D02*
X128331961Y-71294762D01*
X128331961Y-71294762D02*
X128427200Y-71390000D01*
X128427200Y-71390000D02*
X128474819Y-71485238D01*
X128474819Y-71485238D02*
X128474819Y-71675714D01*
X128474819Y-71675714D02*
X128427200Y-71770952D01*
X128427200Y-71770952D02*
X128331961Y-71866190D01*
X128331961Y-71866190D02*
X128141485Y-71913809D01*
X128141485Y-71913809D02*
X127808152Y-71913809D01*
X127808152Y-71913809D02*
X127617676Y-71866190D01*
X127617676Y-71866190D02*
X127522438Y-71770952D01*
X127522438Y-71770952D02*
X127474819Y-71675714D01*
X128474819Y-70294762D02*
X128474819Y-70866190D01*
X128474819Y-70580476D02*
X127474819Y-70580476D01*
X127474819Y-70580476D02*
X127617676Y-70675714D01*
X127617676Y-70675714D02*
X127712914Y-70770952D01*
X127712914Y-70770952D02*
X127760533Y-70866190D01*
D11*
X189103095Y-109312419D02*
X189103095Y-110121942D01*
X189103095Y-110121942D02*
X189150714Y-110217180D01*
X189150714Y-110217180D02*
X189198333Y-110264800D01*
X189198333Y-110264800D02*
X189293571Y-110312419D01*
X189293571Y-110312419D02*
X189484047Y-110312419D01*
X189484047Y-110312419D02*
X189579285Y-110264800D01*
X189579285Y-110264800D02*
X189626904Y-110217180D01*
X189626904Y-110217180D02*
X189674523Y-110121942D01*
X189674523Y-110121942D02*
X189674523Y-109312419D01*
X190674523Y-110312419D02*
X190103095Y-110312419D01*
X190388809Y-110312419D02*
X190388809Y-109312419D01*
X190388809Y-109312419D02*
X190293571Y-109455276D01*
X190293571Y-109455276D02*
X190198333Y-109550514D01*
X190198333Y-109550514D02*
X190103095Y-109598133D01*
D13*
X186524947Y-115201300D02*
X186423347Y-115201300D01*
X186423347Y-115600443D02*
X186423347Y-114838443D01*
X186423347Y-114838443D02*
X186568490Y-114838443D01*
X186728147Y-115600443D02*
X186699118Y-115564158D01*
X186699118Y-115564158D02*
X186684604Y-115527872D01*
X186684604Y-115527872D02*
X186670090Y-115455300D01*
X186670090Y-115455300D02*
X186670090Y-115237586D01*
X186670090Y-115237586D02*
X186684604Y-115165015D01*
X186684604Y-115165015D02*
X186699118Y-115128729D01*
X186699118Y-115128729D02*
X186728147Y-115092443D01*
X186728147Y-115092443D02*
X186771690Y-115092443D01*
X186771690Y-115092443D02*
X186800718Y-115128729D01*
X186800718Y-115128729D02*
X186815233Y-115165015D01*
X186815233Y-115165015D02*
X186829747Y-115237586D01*
X186829747Y-115237586D02*
X186829747Y-115455300D01*
X186829747Y-115455300D02*
X186815233Y-115527872D01*
X186815233Y-115527872D02*
X186800718Y-115564158D01*
X186800718Y-115564158D02*
X186771690Y-115600443D01*
X186771690Y-115600443D02*
X186728147Y-115600443D01*
X186960375Y-115600443D02*
X186960375Y-115092443D01*
X186960375Y-115237586D02*
X186974889Y-115165015D01*
X186974889Y-115165015D02*
X186989404Y-115128729D01*
X186989404Y-115128729D02*
X187018432Y-115092443D01*
X187018432Y-115092443D02*
X187047461Y-115092443D01*
X187381290Y-115092443D02*
X187381290Y-115854443D01*
X187381290Y-115128729D02*
X187410319Y-115092443D01*
X187410319Y-115092443D02*
X187468376Y-115092443D01*
X187468376Y-115092443D02*
X187497404Y-115128729D01*
X187497404Y-115128729D02*
X187511919Y-115165015D01*
X187511919Y-115165015D02*
X187526433Y-115237586D01*
X187526433Y-115237586D02*
X187526433Y-115455300D01*
X187526433Y-115455300D02*
X187511919Y-115527872D01*
X187511919Y-115527872D02*
X187497404Y-115564158D01*
X187497404Y-115564158D02*
X187468376Y-115600443D01*
X187468376Y-115600443D02*
X187410319Y-115600443D01*
X187410319Y-115600443D02*
X187381290Y-115564158D01*
X187700604Y-115600443D02*
X187671575Y-115564158D01*
X187671575Y-115564158D02*
X187657061Y-115527872D01*
X187657061Y-115527872D02*
X187642547Y-115455300D01*
X187642547Y-115455300D02*
X187642547Y-115237586D01*
X187642547Y-115237586D02*
X187657061Y-115165015D01*
X187657061Y-115165015D02*
X187671575Y-115128729D01*
X187671575Y-115128729D02*
X187700604Y-115092443D01*
X187700604Y-115092443D02*
X187744147Y-115092443D01*
X187744147Y-115092443D02*
X187773175Y-115128729D01*
X187773175Y-115128729D02*
X187787690Y-115165015D01*
X187787690Y-115165015D02*
X187802204Y-115237586D01*
X187802204Y-115237586D02*
X187802204Y-115455300D01*
X187802204Y-115455300D02*
X187787690Y-115527872D01*
X187787690Y-115527872D02*
X187773175Y-115564158D01*
X187773175Y-115564158D02*
X187744147Y-115600443D01*
X187744147Y-115600443D02*
X187700604Y-115600443D01*
X187918318Y-115564158D02*
X187947346Y-115600443D01*
X187947346Y-115600443D02*
X188005403Y-115600443D01*
X188005403Y-115600443D02*
X188034432Y-115564158D01*
X188034432Y-115564158D02*
X188048946Y-115491586D01*
X188048946Y-115491586D02*
X188048946Y-115455300D01*
X188048946Y-115455300D02*
X188034432Y-115382729D01*
X188034432Y-115382729D02*
X188005403Y-115346443D01*
X188005403Y-115346443D02*
X187961861Y-115346443D01*
X187961861Y-115346443D02*
X187932832Y-115310158D01*
X187932832Y-115310158D02*
X187918318Y-115237586D01*
X187918318Y-115237586D02*
X187918318Y-115201300D01*
X187918318Y-115201300D02*
X187932832Y-115128729D01*
X187932832Y-115128729D02*
X187961861Y-115092443D01*
X187961861Y-115092443D02*
X188005403Y-115092443D01*
X188005403Y-115092443D02*
X188034432Y-115128729D01*
X188165061Y-115564158D02*
X188194089Y-115600443D01*
X188194089Y-115600443D02*
X188252146Y-115600443D01*
X188252146Y-115600443D02*
X188281175Y-115564158D01*
X188281175Y-115564158D02*
X188295689Y-115491586D01*
X188295689Y-115491586D02*
X188295689Y-115455300D01*
X188295689Y-115455300D02*
X188281175Y-115382729D01*
X188281175Y-115382729D02*
X188252146Y-115346443D01*
X188252146Y-115346443D02*
X188208604Y-115346443D01*
X188208604Y-115346443D02*
X188179575Y-115310158D01*
X188179575Y-115310158D02*
X188165061Y-115237586D01*
X188165061Y-115237586D02*
X188165061Y-115201300D01*
X188165061Y-115201300D02*
X188179575Y-115128729D01*
X188179575Y-115128729D02*
X188208604Y-115092443D01*
X188208604Y-115092443D02*
X188252146Y-115092443D01*
X188252146Y-115092443D02*
X188281175Y-115128729D01*
X188426318Y-115600443D02*
X188426318Y-115092443D01*
X188426318Y-114838443D02*
X188411804Y-114874729D01*
X188411804Y-114874729D02*
X188426318Y-114911015D01*
X188426318Y-114911015D02*
X188440832Y-114874729D01*
X188440832Y-114874729D02*
X188426318Y-114838443D01*
X188426318Y-114838443D02*
X188426318Y-114911015D01*
X188571461Y-115600443D02*
X188571461Y-114838443D01*
X188571461Y-115128729D02*
X188600490Y-115092443D01*
X188600490Y-115092443D02*
X188658547Y-115092443D01*
X188658547Y-115092443D02*
X188687575Y-115128729D01*
X188687575Y-115128729D02*
X188702090Y-115165015D01*
X188702090Y-115165015D02*
X188716604Y-115237586D01*
X188716604Y-115237586D02*
X188716604Y-115455300D01*
X188716604Y-115455300D02*
X188702090Y-115527872D01*
X188702090Y-115527872D02*
X188687575Y-115564158D01*
X188687575Y-115564158D02*
X188658547Y-115600443D01*
X188658547Y-115600443D02*
X188600490Y-115600443D01*
X188600490Y-115600443D02*
X188571461Y-115564158D01*
X188890775Y-115600443D02*
X188861746Y-115564158D01*
X188861746Y-115564158D02*
X188847232Y-115491586D01*
X188847232Y-115491586D02*
X188847232Y-114838443D01*
X189123003Y-115564158D02*
X189093975Y-115600443D01*
X189093975Y-115600443D02*
X189035918Y-115600443D01*
X189035918Y-115600443D02*
X189006889Y-115564158D01*
X189006889Y-115564158D02*
X188992375Y-115491586D01*
X188992375Y-115491586D02*
X188992375Y-115201300D01*
X188992375Y-115201300D02*
X189006889Y-115128729D01*
X189006889Y-115128729D02*
X189035918Y-115092443D01*
X189035918Y-115092443D02*
X189093975Y-115092443D01*
X189093975Y-115092443D02*
X189123003Y-115128729D01*
X189123003Y-115128729D02*
X189137518Y-115201300D01*
X189137518Y-115201300D02*
X189137518Y-115273872D01*
X189137518Y-115273872D02*
X188992375Y-115346443D01*
X189456832Y-115092443D02*
X189572946Y-115092443D01*
X189500375Y-115600443D02*
X189500375Y-114947300D01*
X189500375Y-114947300D02*
X189514889Y-114874729D01*
X189514889Y-114874729D02*
X189543918Y-114838443D01*
X189543918Y-114838443D02*
X189572946Y-114838443D01*
X189805175Y-115092443D02*
X189805175Y-115600443D01*
X189674546Y-115092443D02*
X189674546Y-115491586D01*
X189674546Y-115491586D02*
X189689060Y-115564158D01*
X189689060Y-115564158D02*
X189718089Y-115600443D01*
X189718089Y-115600443D02*
X189761632Y-115600443D01*
X189761632Y-115600443D02*
X189790660Y-115564158D01*
X189790660Y-115564158D02*
X189805175Y-115527872D01*
X189906774Y-115092443D02*
X190022888Y-115092443D01*
X189950317Y-114838443D02*
X189950317Y-115491586D01*
X189950317Y-115491586D02*
X189964831Y-115564158D01*
X189964831Y-115564158D02*
X189993860Y-115600443D01*
X189993860Y-115600443D02*
X190022888Y-115600443D01*
X190255117Y-115092443D02*
X190255117Y-115600443D01*
X190124488Y-115092443D02*
X190124488Y-115491586D01*
X190124488Y-115491586D02*
X190139002Y-115564158D01*
X190139002Y-115564158D02*
X190168031Y-115600443D01*
X190168031Y-115600443D02*
X190211574Y-115600443D01*
X190211574Y-115600443D02*
X190240602Y-115564158D01*
X190240602Y-115564158D02*
X190255117Y-115527872D01*
X190400259Y-115600443D02*
X190400259Y-115092443D01*
X190400259Y-115237586D02*
X190414773Y-115165015D01*
X190414773Y-115165015D02*
X190429288Y-115128729D01*
X190429288Y-115128729D02*
X190458316Y-115092443D01*
X190458316Y-115092443D02*
X190487345Y-115092443D01*
X190705059Y-115564158D02*
X190676031Y-115600443D01*
X190676031Y-115600443D02*
X190617974Y-115600443D01*
X190617974Y-115600443D02*
X190588945Y-115564158D01*
X190588945Y-115564158D02*
X190574431Y-115491586D01*
X190574431Y-115491586D02*
X190574431Y-115201300D01*
X190574431Y-115201300D02*
X190588945Y-115128729D01*
X190588945Y-115128729D02*
X190617974Y-115092443D01*
X190617974Y-115092443D02*
X190676031Y-115092443D01*
X190676031Y-115092443D02*
X190705059Y-115128729D01*
X190705059Y-115128729D02*
X190719574Y-115201300D01*
X190719574Y-115201300D02*
X190719574Y-115273872D01*
X190719574Y-115273872D02*
X190574431Y-115346443D01*
X191198545Y-115564158D02*
X191169517Y-115600443D01*
X191169517Y-115600443D02*
X191111460Y-115600443D01*
X191111460Y-115600443D02*
X191082431Y-115564158D01*
X191082431Y-115564158D02*
X191067917Y-115491586D01*
X191067917Y-115491586D02*
X191067917Y-115201300D01*
X191067917Y-115201300D02*
X191082431Y-115128729D01*
X191082431Y-115128729D02*
X191111460Y-115092443D01*
X191111460Y-115092443D02*
X191169517Y-115092443D01*
X191169517Y-115092443D02*
X191198545Y-115128729D01*
X191198545Y-115128729D02*
X191213060Y-115201300D01*
X191213060Y-115201300D02*
X191213060Y-115273872D01*
X191213060Y-115273872D02*
X191067917Y-115346443D01*
X191314659Y-115600443D02*
X191474317Y-115092443D01*
X191314659Y-115092443D02*
X191474317Y-115600443D01*
X191590431Y-115092443D02*
X191590431Y-115854443D01*
X191590431Y-115128729D02*
X191619460Y-115092443D01*
X191619460Y-115092443D02*
X191677517Y-115092443D01*
X191677517Y-115092443D02*
X191706545Y-115128729D01*
X191706545Y-115128729D02*
X191721060Y-115165015D01*
X191721060Y-115165015D02*
X191735574Y-115237586D01*
X191735574Y-115237586D02*
X191735574Y-115455300D01*
X191735574Y-115455300D02*
X191721060Y-115527872D01*
X191721060Y-115527872D02*
X191706545Y-115564158D01*
X191706545Y-115564158D02*
X191677517Y-115600443D01*
X191677517Y-115600443D02*
X191619460Y-115600443D01*
X191619460Y-115600443D02*
X191590431Y-115564158D01*
X191996831Y-115600443D02*
X191996831Y-115201300D01*
X191996831Y-115201300D02*
X191982316Y-115128729D01*
X191982316Y-115128729D02*
X191953288Y-115092443D01*
X191953288Y-115092443D02*
X191895231Y-115092443D01*
X191895231Y-115092443D02*
X191866202Y-115128729D01*
X191996831Y-115564158D02*
X191967802Y-115600443D01*
X191967802Y-115600443D02*
X191895231Y-115600443D01*
X191895231Y-115600443D02*
X191866202Y-115564158D01*
X191866202Y-115564158D02*
X191851688Y-115491586D01*
X191851688Y-115491586D02*
X191851688Y-115419015D01*
X191851688Y-115419015D02*
X191866202Y-115346443D01*
X191866202Y-115346443D02*
X191895231Y-115310158D01*
X191895231Y-115310158D02*
X191967802Y-115310158D01*
X191967802Y-115310158D02*
X191996831Y-115273872D01*
X192141973Y-115092443D02*
X192141973Y-115600443D01*
X192141973Y-115165015D02*
X192156487Y-115128729D01*
X192156487Y-115128729D02*
X192185516Y-115092443D01*
X192185516Y-115092443D02*
X192229059Y-115092443D01*
X192229059Y-115092443D02*
X192258087Y-115128729D01*
X192258087Y-115128729D02*
X192272602Y-115201300D01*
X192272602Y-115201300D02*
X192272602Y-115600443D01*
X192403230Y-115564158D02*
X192432258Y-115600443D01*
X192432258Y-115600443D02*
X192490315Y-115600443D01*
X192490315Y-115600443D02*
X192519344Y-115564158D01*
X192519344Y-115564158D02*
X192533858Y-115491586D01*
X192533858Y-115491586D02*
X192533858Y-115455300D01*
X192533858Y-115455300D02*
X192519344Y-115382729D01*
X192519344Y-115382729D02*
X192490315Y-115346443D01*
X192490315Y-115346443D02*
X192446773Y-115346443D01*
X192446773Y-115346443D02*
X192417744Y-115310158D01*
X192417744Y-115310158D02*
X192403230Y-115237586D01*
X192403230Y-115237586D02*
X192403230Y-115201300D01*
X192403230Y-115201300D02*
X192417744Y-115128729D01*
X192417744Y-115128729D02*
X192446773Y-115092443D01*
X192446773Y-115092443D02*
X192490315Y-115092443D01*
X192490315Y-115092443D02*
X192519344Y-115128729D01*
X192664487Y-115600443D02*
X192664487Y-115092443D01*
X192664487Y-114838443D02*
X192649973Y-114874729D01*
X192649973Y-114874729D02*
X192664487Y-114911015D01*
X192664487Y-114911015D02*
X192679001Y-114874729D01*
X192679001Y-114874729D02*
X192664487Y-114838443D01*
X192664487Y-114838443D02*
X192664487Y-114911015D01*
X192853173Y-115600443D02*
X192824144Y-115564158D01*
X192824144Y-115564158D02*
X192809630Y-115527872D01*
X192809630Y-115527872D02*
X192795116Y-115455300D01*
X192795116Y-115455300D02*
X192795116Y-115237586D01*
X192795116Y-115237586D02*
X192809630Y-115165015D01*
X192809630Y-115165015D02*
X192824144Y-115128729D01*
X192824144Y-115128729D02*
X192853173Y-115092443D01*
X192853173Y-115092443D02*
X192896716Y-115092443D01*
X192896716Y-115092443D02*
X192925744Y-115128729D01*
X192925744Y-115128729D02*
X192940259Y-115165015D01*
X192940259Y-115165015D02*
X192954773Y-115237586D01*
X192954773Y-115237586D02*
X192954773Y-115455300D01*
X192954773Y-115455300D02*
X192940259Y-115527872D01*
X192940259Y-115527872D02*
X192925744Y-115564158D01*
X192925744Y-115564158D02*
X192896716Y-115600443D01*
X192896716Y-115600443D02*
X192853173Y-115600443D01*
X193085401Y-115092443D02*
X193085401Y-115600443D01*
X193085401Y-115165015D02*
X193099915Y-115128729D01*
X193099915Y-115128729D02*
X193128944Y-115092443D01*
X193128944Y-115092443D02*
X193172487Y-115092443D01*
X193172487Y-115092443D02*
X193201515Y-115128729D01*
X193201515Y-115128729D02*
X193216030Y-115201300D01*
X193216030Y-115201300D02*
X193216030Y-115600443D01*
D12*
X117467142Y-122374819D02*
X116990952Y-122374819D01*
X116990952Y-122374819D02*
X116990952Y-121374819D01*
X117752857Y-122327200D02*
X117895714Y-122374819D01*
X117895714Y-122374819D02*
X118133809Y-122374819D01*
X118133809Y-122374819D02*
X118229047Y-122327200D01*
X118229047Y-122327200D02*
X118276666Y-122279580D01*
X118276666Y-122279580D02*
X118324285Y-122184342D01*
X118324285Y-122184342D02*
X118324285Y-122089104D01*
X118324285Y-122089104D02*
X118276666Y-121993866D01*
X118276666Y-121993866D02*
X118229047Y-121946247D01*
X118229047Y-121946247D02*
X118133809Y-121898628D01*
X118133809Y-121898628D02*
X117943333Y-121851009D01*
X117943333Y-121851009D02*
X117848095Y-121803390D01*
X117848095Y-121803390D02*
X117800476Y-121755771D01*
X117800476Y-121755771D02*
X117752857Y-121660533D01*
X117752857Y-121660533D02*
X117752857Y-121565295D01*
X117752857Y-121565295D02*
X117800476Y-121470057D01*
X117800476Y-121470057D02*
X117848095Y-121422438D01*
X117848095Y-121422438D02*
X117943333Y-121374819D01*
X117943333Y-121374819D02*
X118181428Y-121374819D01*
X118181428Y-121374819D02*
X118324285Y-121422438D01*
X119276666Y-122374819D02*
X118705238Y-122374819D01*
X118990952Y-122374819D02*
X118990952Y-121374819D01*
X118990952Y-121374819D02*
X118895714Y-121517676D01*
X118895714Y-121517676D02*
X118800476Y-121612914D01*
X118800476Y-121612914D02*
X118705238Y-121660533D01*
X138056467Y-82498598D02*
X138056467Y-82948542D01*
X138056467Y-82723570D02*
X137269065Y-82723570D01*
X137269065Y-82723570D02*
X137381551Y-82798561D01*
X137381551Y-82798561D02*
X137456542Y-82873552D01*
X137456542Y-82873552D02*
X137494037Y-82948542D01*
X137269065Y-82011159D02*
X137269065Y-81936168D01*
X137269065Y-81936168D02*
X137306560Y-81861177D01*
X137306560Y-81861177D02*
X137344056Y-81823682D01*
X137344056Y-81823682D02*
X137419046Y-81786187D01*
X137419046Y-81786187D02*
X137569028Y-81748691D01*
X137569028Y-81748691D02*
X137756504Y-81748691D01*
X137756504Y-81748691D02*
X137906486Y-81786187D01*
X137906486Y-81786187D02*
X137981476Y-81823682D01*
X137981476Y-81823682D02*
X138018972Y-81861177D01*
X138018972Y-81861177D02*
X138056467Y-81936168D01*
X138056467Y-81936168D02*
X138056467Y-82011159D01*
X138056467Y-82011159D02*
X138018972Y-82086149D01*
X138018972Y-82086149D02*
X137981476Y-82123645D01*
X137981476Y-82123645D02*
X137906486Y-82161140D01*
X137906486Y-82161140D02*
X137756504Y-82198635D01*
X137756504Y-82198635D02*
X137569028Y-82198635D01*
X137569028Y-82198635D02*
X137419046Y-82161140D01*
X137419046Y-82161140D02*
X137344056Y-82123645D01*
X137344056Y-82123645D02*
X137306560Y-82086149D01*
X137306560Y-82086149D02*
X137269065Y-82011159D01*
X138056467Y-81411233D02*
X137269065Y-81411233D01*
X137756504Y-81336242D02*
X138056467Y-81111270D01*
X137531532Y-81111270D02*
X137831495Y-81411233D01*
X138056467Y-80211382D02*
X138056467Y-80023906D01*
X138056467Y-80023906D02*
X137906486Y-80023906D01*
X137906486Y-80023906D02*
X137868990Y-80098896D01*
X137868990Y-80098896D02*
X137794000Y-80173887D01*
X137794000Y-80173887D02*
X137681514Y-80211382D01*
X137681514Y-80211382D02*
X137494037Y-80211382D01*
X137494037Y-80211382D02*
X137381551Y-80173887D01*
X137381551Y-80173887D02*
X137306560Y-80098896D01*
X137306560Y-80098896D02*
X137269065Y-79986410D01*
X137269065Y-79986410D02*
X137269065Y-79836429D01*
X137269065Y-79836429D02*
X137306560Y-79723943D01*
X137306560Y-79723943D02*
X137381551Y-79648952D01*
X137381551Y-79648952D02*
X137494037Y-79611457D01*
X137494037Y-79611457D02*
X137681514Y-79611457D01*
X137681514Y-79611457D02*
X137794000Y-79648952D01*
X137794000Y-79648952D02*
X137868990Y-79723943D01*
X137868990Y-79723943D02*
X137906486Y-79798934D01*
X137906486Y-79798934D02*
X138056467Y-79798934D01*
X138056467Y-79798934D02*
X138056467Y-79611457D01*
X158184819Y-118887618D02*
X157184819Y-118887618D01*
X157184819Y-118887618D02*
X157899104Y-118554285D01*
X157899104Y-118554285D02*
X157184819Y-118220952D01*
X157184819Y-118220952D02*
X158184819Y-118220952D01*
X157184819Y-117554285D02*
X157184819Y-117363809D01*
X157184819Y-117363809D02*
X157232438Y-117268571D01*
X157232438Y-117268571D02*
X157327676Y-117173333D01*
X157327676Y-117173333D02*
X157518152Y-117125714D01*
X157518152Y-117125714D02*
X157851485Y-117125714D01*
X157851485Y-117125714D02*
X158041961Y-117173333D01*
X158041961Y-117173333D02*
X158137200Y-117268571D01*
X158137200Y-117268571D02*
X158184819Y-117363809D01*
X158184819Y-117363809D02*
X158184819Y-117554285D01*
X158184819Y-117554285D02*
X158137200Y-117649523D01*
X158137200Y-117649523D02*
X158041961Y-117744761D01*
X158041961Y-117744761D02*
X157851485Y-117792380D01*
X157851485Y-117792380D02*
X157518152Y-117792380D01*
X157518152Y-117792380D02*
X157327676Y-117744761D01*
X157327676Y-117744761D02*
X157232438Y-117649523D01*
X157232438Y-117649523D02*
X157184819Y-117554285D01*
X158137200Y-116744761D02*
X158184819Y-116601904D01*
X158184819Y-116601904D02*
X158184819Y-116363809D01*
X158184819Y-116363809D02*
X158137200Y-116268571D01*
X158137200Y-116268571D02*
X158089580Y-116220952D01*
X158089580Y-116220952D02*
X157994342Y-116173333D01*
X157994342Y-116173333D02*
X157899104Y-116173333D01*
X157899104Y-116173333D02*
X157803866Y-116220952D01*
X157803866Y-116220952D02*
X157756247Y-116268571D01*
X157756247Y-116268571D02*
X157708628Y-116363809D01*
X157708628Y-116363809D02*
X157661009Y-116554285D01*
X157661009Y-116554285D02*
X157613390Y-116649523D01*
X157613390Y-116649523D02*
X157565771Y-116697142D01*
X157565771Y-116697142D02*
X157470533Y-116744761D01*
X157470533Y-116744761D02*
X157375295Y-116744761D01*
X157375295Y-116744761D02*
X157280057Y-116697142D01*
X157280057Y-116697142D02*
X157232438Y-116649523D01*
X157232438Y-116649523D02*
X157184819Y-116554285D01*
X157184819Y-116554285D02*
X157184819Y-116316190D01*
X157184819Y-116316190D02*
X157232438Y-116173333D01*
X158184819Y-115744761D02*
X157184819Y-115744761D01*
X158184819Y-114744762D02*
X158184819Y-115316190D01*
X158184819Y-115030476D02*
X157184819Y-115030476D01*
X157184819Y-115030476D02*
X157327676Y-115125714D01*
X157327676Y-115125714D02*
X157422914Y-115220952D01*
X157422914Y-115220952D02*
X157470533Y-115316190D01*
X162186467Y-77418598D02*
X162186467Y-77868542D01*
X162186467Y-77643570D02*
X161399065Y-77643570D01*
X161399065Y-77643570D02*
X161511551Y-77718561D01*
X161511551Y-77718561D02*
X161586542Y-77793552D01*
X161586542Y-77793552D02*
X161624037Y-77868542D01*
X161399065Y-76931159D02*
X161399065Y-76856168D01*
X161399065Y-76856168D02*
X161436560Y-76781177D01*
X161436560Y-76781177D02*
X161474056Y-76743682D01*
X161474056Y-76743682D02*
X161549046Y-76706187D01*
X161549046Y-76706187D02*
X161699028Y-76668691D01*
X161699028Y-76668691D02*
X161886504Y-76668691D01*
X161886504Y-76668691D02*
X162036486Y-76706187D01*
X162036486Y-76706187D02*
X162111476Y-76743682D01*
X162111476Y-76743682D02*
X162148972Y-76781177D01*
X162148972Y-76781177D02*
X162186467Y-76856168D01*
X162186467Y-76856168D02*
X162186467Y-76931159D01*
X162186467Y-76931159D02*
X162148972Y-77006149D01*
X162148972Y-77006149D02*
X162111476Y-77043645D01*
X162111476Y-77043645D02*
X162036486Y-77081140D01*
X162036486Y-77081140D02*
X161886504Y-77118635D01*
X161886504Y-77118635D02*
X161699028Y-77118635D01*
X161699028Y-77118635D02*
X161549046Y-77081140D01*
X161549046Y-77081140D02*
X161474056Y-77043645D01*
X161474056Y-77043645D02*
X161436560Y-77006149D01*
X161436560Y-77006149D02*
X161399065Y-76931159D01*
X162186467Y-76331233D02*
X161399065Y-76331233D01*
X161886504Y-76256242D02*
X162186467Y-76031270D01*
X161661532Y-76031270D02*
X161961495Y-76331233D01*
X162186467Y-75131382D02*
X162186467Y-74943906D01*
X162186467Y-74943906D02*
X162036486Y-74943906D01*
X162036486Y-74943906D02*
X161998990Y-75018896D01*
X161998990Y-75018896D02*
X161924000Y-75093887D01*
X161924000Y-75093887D02*
X161811514Y-75131382D01*
X161811514Y-75131382D02*
X161624037Y-75131382D01*
X161624037Y-75131382D02*
X161511551Y-75093887D01*
X161511551Y-75093887D02*
X161436560Y-75018896D01*
X161436560Y-75018896D02*
X161399065Y-74906410D01*
X161399065Y-74906410D02*
X161399065Y-74756429D01*
X161399065Y-74756429D02*
X161436560Y-74643943D01*
X161436560Y-74643943D02*
X161511551Y-74568952D01*
X161511551Y-74568952D02*
X161624037Y-74531457D01*
X161624037Y-74531457D02*
X161811514Y-74531457D01*
X161811514Y-74531457D02*
X161924000Y-74568952D01*
X161924000Y-74568952D02*
X161998990Y-74643943D01*
X161998990Y-74643943D02*
X162036486Y-74718934D01*
X162036486Y-74718934D02*
X162186467Y-74718934D01*
X162186467Y-74718934D02*
X162186467Y-74531457D01*
X178886467Y-109168598D02*
X178886467Y-109618542D01*
X178886467Y-109393570D02*
X178099065Y-109393570D01*
X178099065Y-109393570D02*
X178211551Y-109468561D01*
X178211551Y-109468561D02*
X178286542Y-109543552D01*
X178286542Y-109543552D02*
X178324037Y-109618542D01*
X178099065Y-108681159D02*
X178099065Y-108606168D01*
X178099065Y-108606168D02*
X178136560Y-108531177D01*
X178136560Y-108531177D02*
X178174056Y-108493682D01*
X178174056Y-108493682D02*
X178249046Y-108456187D01*
X178249046Y-108456187D02*
X178399028Y-108418691D01*
X178399028Y-108418691D02*
X178586504Y-108418691D01*
X178586504Y-108418691D02*
X178736486Y-108456187D01*
X178736486Y-108456187D02*
X178811476Y-108493682D01*
X178811476Y-108493682D02*
X178848972Y-108531177D01*
X178848972Y-108531177D02*
X178886467Y-108606168D01*
X178886467Y-108606168D02*
X178886467Y-108681159D01*
X178886467Y-108681159D02*
X178848972Y-108756149D01*
X178848972Y-108756149D02*
X178811476Y-108793645D01*
X178811476Y-108793645D02*
X178736486Y-108831140D01*
X178736486Y-108831140D02*
X178586504Y-108868635D01*
X178586504Y-108868635D02*
X178399028Y-108868635D01*
X178399028Y-108868635D02*
X178249046Y-108831140D01*
X178249046Y-108831140D02*
X178174056Y-108793645D01*
X178174056Y-108793645D02*
X178136560Y-108756149D01*
X178136560Y-108756149D02*
X178099065Y-108681159D01*
X178886467Y-108081233D02*
X178099065Y-108081233D01*
X178586504Y-108006242D02*
X178886467Y-107781270D01*
X178361532Y-107781270D02*
X178661495Y-108081233D01*
X178886467Y-106881382D02*
X178886467Y-106693906D01*
X178886467Y-106693906D02*
X178736486Y-106693906D01*
X178736486Y-106693906D02*
X178698990Y-106768896D01*
X178698990Y-106768896D02*
X178624000Y-106843887D01*
X178624000Y-106843887D02*
X178511514Y-106881382D01*
X178511514Y-106881382D02*
X178324037Y-106881382D01*
X178324037Y-106881382D02*
X178211551Y-106843887D01*
X178211551Y-106843887D02*
X178136560Y-106768896D01*
X178136560Y-106768896D02*
X178099065Y-106656410D01*
X178099065Y-106656410D02*
X178099065Y-106506429D01*
X178099065Y-106506429D02*
X178136560Y-106393943D01*
X178136560Y-106393943D02*
X178211551Y-106318952D01*
X178211551Y-106318952D02*
X178324037Y-106281457D01*
X178324037Y-106281457D02*
X178511514Y-106281457D01*
X178511514Y-106281457D02*
X178624000Y-106318952D01*
X178624000Y-106318952D02*
X178698990Y-106393943D01*
X178698990Y-106393943D02*
X178736486Y-106468934D01*
X178736486Y-106468934D02*
X178886467Y-106468934D01*
X178886467Y-106468934D02*
X178886467Y-106281457D01*
X123109104Y-112354286D02*
X123109104Y-111878096D01*
X123394819Y-112449524D02*
X122394819Y-112116191D01*
X122394819Y-112116191D02*
X123394819Y-111782858D01*
X123394819Y-111449524D02*
X122728152Y-111449524D01*
X122823390Y-111449524D02*
X122775771Y-111401905D01*
X122775771Y-111401905D02*
X122728152Y-111306667D01*
X122728152Y-111306667D02*
X122728152Y-111163810D01*
X122728152Y-111163810D02*
X122775771Y-111068572D01*
X122775771Y-111068572D02*
X122871009Y-111020953D01*
X122871009Y-111020953D02*
X123394819Y-111020953D01*
X122871009Y-111020953D02*
X122775771Y-110973334D01*
X122775771Y-110973334D02*
X122728152Y-110878096D01*
X122728152Y-110878096D02*
X122728152Y-110735239D01*
X122728152Y-110735239D02*
X122775771Y-110640000D01*
X122775771Y-110640000D02*
X122871009Y-110592381D01*
X122871009Y-110592381D02*
X123394819Y-110592381D01*
X122728152Y-110116191D02*
X123728152Y-110116191D01*
X122775771Y-110116191D02*
X122728152Y-110020953D01*
X122728152Y-110020953D02*
X122728152Y-109830477D01*
X122728152Y-109830477D02*
X122775771Y-109735239D01*
X122775771Y-109735239D02*
X122823390Y-109687620D01*
X122823390Y-109687620D02*
X122918628Y-109640001D01*
X122918628Y-109640001D02*
X123204342Y-109640001D01*
X123204342Y-109640001D02*
X123299580Y-109687620D01*
X123299580Y-109687620D02*
X123347200Y-109735239D01*
X123347200Y-109735239D02*
X123394819Y-109830477D01*
X123394819Y-109830477D02*
X123394819Y-110020953D01*
X123394819Y-110020953D02*
X123347200Y-110116191D01*
X123394819Y-109068572D02*
X123347200Y-109163810D01*
X123347200Y-109163810D02*
X123251961Y-109211429D01*
X123251961Y-109211429D02*
X122394819Y-109211429D01*
X123394819Y-108687619D02*
X122728152Y-108687619D01*
X122394819Y-108687619D02*
X122442438Y-108735238D01*
X122442438Y-108735238D02*
X122490057Y-108687619D01*
X122490057Y-108687619D02*
X122442438Y-108640000D01*
X122442438Y-108640000D02*
X122394819Y-108687619D01*
X122394819Y-108687619D02*
X122490057Y-108687619D01*
X122728152Y-108354286D02*
X122728152Y-107973334D01*
X123394819Y-108211429D02*
X122537676Y-108211429D01*
X122537676Y-108211429D02*
X122442438Y-108163810D01*
X122442438Y-108163810D02*
X122394819Y-108068572D01*
X122394819Y-108068572D02*
X122394819Y-107973334D01*
X122728152Y-107735238D02*
X123394819Y-107497143D01*
X122728152Y-107259048D02*
X123394819Y-107497143D01*
X123394819Y-107497143D02*
X123632914Y-107592381D01*
X123632914Y-107592381D02*
X123680533Y-107640000D01*
X123680533Y-107640000D02*
X123728152Y-107735238D01*
X123394819Y-106878095D02*
X122728152Y-106878095D01*
X122394819Y-106878095D02*
X122442438Y-106925714D01*
X122442438Y-106925714D02*
X122490057Y-106878095D01*
X122490057Y-106878095D02*
X122442438Y-106830476D01*
X122442438Y-106830476D02*
X122394819Y-106878095D01*
X122394819Y-106878095D02*
X122490057Y-106878095D01*
X122728152Y-106401905D02*
X123394819Y-106401905D01*
X122823390Y-106401905D02*
X122775771Y-106354286D01*
X122775771Y-106354286D02*
X122728152Y-106259048D01*
X122728152Y-106259048D02*
X122728152Y-106116191D01*
X122728152Y-106116191D02*
X122775771Y-106020953D01*
X122775771Y-106020953D02*
X122871009Y-105973334D01*
X122871009Y-105973334D02*
X123394819Y-105973334D01*
X122728152Y-105068572D02*
X123537676Y-105068572D01*
X123537676Y-105068572D02*
X123632914Y-105116191D01*
X123632914Y-105116191D02*
X123680533Y-105163810D01*
X123680533Y-105163810D02*
X123728152Y-105259048D01*
X123728152Y-105259048D02*
X123728152Y-105401905D01*
X123728152Y-105401905D02*
X123680533Y-105497143D01*
X123347200Y-105068572D02*
X123394819Y-105163810D01*
X123394819Y-105163810D02*
X123394819Y-105354286D01*
X123394819Y-105354286D02*
X123347200Y-105449524D01*
X123347200Y-105449524D02*
X123299580Y-105497143D01*
X123299580Y-105497143D02*
X123204342Y-105544762D01*
X123204342Y-105544762D02*
X122918628Y-105544762D01*
X122918628Y-105544762D02*
X122823390Y-105497143D01*
X122823390Y-105497143D02*
X122775771Y-105449524D01*
X122775771Y-105449524D02*
X122728152Y-105354286D01*
X122728152Y-105354286D02*
X122728152Y-105163810D01*
X122728152Y-105163810D02*
X122775771Y-105068572D01*
X122394819Y-103973333D02*
X122394819Y-103401905D01*
X123394819Y-103687619D02*
X122394819Y-103687619D01*
X123394819Y-103068571D02*
X122728152Y-103068571D01*
X122918628Y-103068571D02*
X122823390Y-103020952D01*
X122823390Y-103020952D02*
X122775771Y-102973333D01*
X122775771Y-102973333D02*
X122728152Y-102878095D01*
X122728152Y-102878095D02*
X122728152Y-102782857D01*
X123394819Y-102020952D02*
X122871009Y-102020952D01*
X122871009Y-102020952D02*
X122775771Y-102068571D01*
X122775771Y-102068571D02*
X122728152Y-102163809D01*
X122728152Y-102163809D02*
X122728152Y-102354285D01*
X122728152Y-102354285D02*
X122775771Y-102449523D01*
X123347200Y-102020952D02*
X123394819Y-102116190D01*
X123394819Y-102116190D02*
X123394819Y-102354285D01*
X123394819Y-102354285D02*
X123347200Y-102449523D01*
X123347200Y-102449523D02*
X123251961Y-102497142D01*
X123251961Y-102497142D02*
X123156723Y-102497142D01*
X123156723Y-102497142D02*
X123061485Y-102449523D01*
X123061485Y-102449523D02*
X123013866Y-102354285D01*
X123013866Y-102354285D02*
X123013866Y-102116190D01*
X123013866Y-102116190D02*
X122966247Y-102020952D01*
X122728152Y-101544761D02*
X123394819Y-101544761D01*
X122823390Y-101544761D02*
X122775771Y-101497142D01*
X122775771Y-101497142D02*
X122728152Y-101401904D01*
X122728152Y-101401904D02*
X122728152Y-101259047D01*
X122728152Y-101259047D02*
X122775771Y-101163809D01*
X122775771Y-101163809D02*
X122871009Y-101116190D01*
X122871009Y-101116190D02*
X123394819Y-101116190D01*
X123347200Y-100687618D02*
X123394819Y-100592380D01*
X123394819Y-100592380D02*
X123394819Y-100401904D01*
X123394819Y-100401904D02*
X123347200Y-100306666D01*
X123347200Y-100306666D02*
X123251961Y-100259047D01*
X123251961Y-100259047D02*
X123204342Y-100259047D01*
X123204342Y-100259047D02*
X123109104Y-100306666D01*
X123109104Y-100306666D02*
X123061485Y-100401904D01*
X123061485Y-100401904D02*
X123061485Y-100544761D01*
X123061485Y-100544761D02*
X123013866Y-100639999D01*
X123013866Y-100639999D02*
X122918628Y-100687618D01*
X122918628Y-100687618D02*
X122871009Y-100687618D01*
X122871009Y-100687618D02*
X122775771Y-100639999D01*
X122775771Y-100639999D02*
X122728152Y-100544761D01*
X122728152Y-100544761D02*
X122728152Y-100401904D01*
X122728152Y-100401904D02*
X122775771Y-100306666D01*
X123394819Y-99830475D02*
X122728152Y-99830475D01*
X122394819Y-99830475D02*
X122442438Y-99878094D01*
X122442438Y-99878094D02*
X122490057Y-99830475D01*
X122490057Y-99830475D02*
X122442438Y-99782856D01*
X122442438Y-99782856D02*
X122394819Y-99830475D01*
X122394819Y-99830475D02*
X122490057Y-99830475D01*
X123347200Y-99401904D02*
X123394819Y-99306666D01*
X123394819Y-99306666D02*
X123394819Y-99116190D01*
X123394819Y-99116190D02*
X123347200Y-99020952D01*
X123347200Y-99020952D02*
X123251961Y-98973333D01*
X123251961Y-98973333D02*
X123204342Y-98973333D01*
X123204342Y-98973333D02*
X123109104Y-99020952D01*
X123109104Y-99020952D02*
X123061485Y-99116190D01*
X123061485Y-99116190D02*
X123061485Y-99259047D01*
X123061485Y-99259047D02*
X123013866Y-99354285D01*
X123013866Y-99354285D02*
X122918628Y-99401904D01*
X122918628Y-99401904D02*
X122871009Y-99401904D01*
X122871009Y-99401904D02*
X122775771Y-99354285D01*
X122775771Y-99354285D02*
X122728152Y-99259047D01*
X122728152Y-99259047D02*
X122728152Y-99116190D01*
X122728152Y-99116190D02*
X122775771Y-99020952D01*
X122728152Y-98687618D02*
X122728152Y-98306666D01*
X122394819Y-98544761D02*
X123251961Y-98544761D01*
X123251961Y-98544761D02*
X123347200Y-98497142D01*
X123347200Y-98497142D02*
X123394819Y-98401904D01*
X123394819Y-98401904D02*
X123394819Y-98306666D01*
X123394819Y-97830475D02*
X123347200Y-97925713D01*
X123347200Y-97925713D02*
X123299580Y-97973332D01*
X123299580Y-97973332D02*
X123204342Y-98020951D01*
X123204342Y-98020951D02*
X122918628Y-98020951D01*
X122918628Y-98020951D02*
X122823390Y-97973332D01*
X122823390Y-97973332D02*
X122775771Y-97925713D01*
X122775771Y-97925713D02*
X122728152Y-97830475D01*
X122728152Y-97830475D02*
X122728152Y-97687618D01*
X122728152Y-97687618D02*
X122775771Y-97592380D01*
X122775771Y-97592380D02*
X122823390Y-97544761D01*
X122823390Y-97544761D02*
X122918628Y-97497142D01*
X122918628Y-97497142D02*
X123204342Y-97497142D01*
X123204342Y-97497142D02*
X123299580Y-97544761D01*
X123299580Y-97544761D02*
X123347200Y-97592380D01*
X123347200Y-97592380D02*
X123394819Y-97687618D01*
X123394819Y-97687618D02*
X123394819Y-97830475D01*
X123394819Y-97068570D02*
X122728152Y-97068570D01*
X122918628Y-97068570D02*
X122823390Y-97020951D01*
X122823390Y-97020951D02*
X122775771Y-96973332D01*
X122775771Y-96973332D02*
X122728152Y-96878094D01*
X122728152Y-96878094D02*
X122728152Y-96782856D01*
X123394819Y-95925713D02*
X123394819Y-96497141D01*
X123394819Y-96211427D02*
X122394819Y-96211427D01*
X122394819Y-96211427D02*
X122537676Y-96306665D01*
X122537676Y-96306665D02*
X122632914Y-96401903D01*
X122632914Y-96401903D02*
X122680533Y-96497141D01*
X115386467Y-107579887D02*
X115386467Y-108029831D01*
X115386467Y-107804859D02*
X114599065Y-107804859D01*
X114599065Y-107804859D02*
X114711551Y-107879850D01*
X114711551Y-107879850D02*
X114786542Y-107954841D01*
X114786542Y-107954841D02*
X114824037Y-108029831D01*
X114599065Y-107092448D02*
X114599065Y-107017457D01*
X114599065Y-107017457D02*
X114636560Y-106942466D01*
X114636560Y-106942466D02*
X114674056Y-106904971D01*
X114674056Y-106904971D02*
X114749046Y-106867476D01*
X114749046Y-106867476D02*
X114899028Y-106829980D01*
X114899028Y-106829980D02*
X115086504Y-106829980D01*
X115086504Y-106829980D02*
X115236486Y-106867476D01*
X115236486Y-106867476D02*
X115311476Y-106904971D01*
X115311476Y-106904971D02*
X115348972Y-106942466D01*
X115348972Y-106942466D02*
X115386467Y-107017457D01*
X115386467Y-107017457D02*
X115386467Y-107092448D01*
X115386467Y-107092448D02*
X115348972Y-107167438D01*
X115348972Y-107167438D02*
X115311476Y-107204934D01*
X115311476Y-107204934D02*
X115236486Y-107242429D01*
X115236486Y-107242429D02*
X115086504Y-107279924D01*
X115086504Y-107279924D02*
X114899028Y-107279924D01*
X114899028Y-107279924D02*
X114749046Y-107242429D01*
X114749046Y-107242429D02*
X114674056Y-107204934D01*
X114674056Y-107204934D02*
X114636560Y-107167438D01*
X114636560Y-107167438D02*
X114599065Y-107092448D01*
X115386467Y-105930092D02*
X115386467Y-105742616D01*
X115386467Y-105742616D02*
X115236486Y-105742616D01*
X115236486Y-105742616D02*
X115198990Y-105817606D01*
X115198990Y-105817606D02*
X115124000Y-105892597D01*
X115124000Y-105892597D02*
X115011514Y-105930092D01*
X115011514Y-105930092D02*
X114824037Y-105930092D01*
X114824037Y-105930092D02*
X114711551Y-105892597D01*
X114711551Y-105892597D02*
X114636560Y-105817606D01*
X114636560Y-105817606D02*
X114599065Y-105705120D01*
X114599065Y-105705120D02*
X114599065Y-105555139D01*
X114599065Y-105555139D02*
X114636560Y-105442653D01*
X114636560Y-105442653D02*
X114711551Y-105367662D01*
X114711551Y-105367662D02*
X114824037Y-105330167D01*
X114824037Y-105330167D02*
X115011514Y-105330167D01*
X115011514Y-105330167D02*
X115124000Y-105367662D01*
X115124000Y-105367662D02*
X115198990Y-105442653D01*
X115198990Y-105442653D02*
X115236486Y-105517644D01*
X115236486Y-105517644D02*
X115386467Y-105517644D01*
X115386467Y-105517644D02*
X115386467Y-105330167D01*
X168536467Y-82498598D02*
X168536467Y-82948542D01*
X168536467Y-82723570D02*
X167749065Y-82723570D01*
X167749065Y-82723570D02*
X167861551Y-82798561D01*
X167861551Y-82798561D02*
X167936542Y-82873552D01*
X167936542Y-82873552D02*
X167974037Y-82948542D01*
X167749065Y-82011159D02*
X167749065Y-81936168D01*
X167749065Y-81936168D02*
X167786560Y-81861177D01*
X167786560Y-81861177D02*
X167824056Y-81823682D01*
X167824056Y-81823682D02*
X167899046Y-81786187D01*
X167899046Y-81786187D02*
X168049028Y-81748691D01*
X168049028Y-81748691D02*
X168236504Y-81748691D01*
X168236504Y-81748691D02*
X168386486Y-81786187D01*
X168386486Y-81786187D02*
X168461476Y-81823682D01*
X168461476Y-81823682D02*
X168498972Y-81861177D01*
X168498972Y-81861177D02*
X168536467Y-81936168D01*
X168536467Y-81936168D02*
X168536467Y-82011159D01*
X168536467Y-82011159D02*
X168498972Y-82086149D01*
X168498972Y-82086149D02*
X168461476Y-82123645D01*
X168461476Y-82123645D02*
X168386486Y-82161140D01*
X168386486Y-82161140D02*
X168236504Y-82198635D01*
X168236504Y-82198635D02*
X168049028Y-82198635D01*
X168049028Y-82198635D02*
X167899046Y-82161140D01*
X167899046Y-82161140D02*
X167824056Y-82123645D01*
X167824056Y-82123645D02*
X167786560Y-82086149D01*
X167786560Y-82086149D02*
X167749065Y-82011159D01*
X168536467Y-81411233D02*
X167749065Y-81411233D01*
X168236504Y-81336242D02*
X168536467Y-81111270D01*
X168011532Y-81111270D02*
X168311495Y-81411233D01*
X168536467Y-80211382D02*
X168536467Y-80023906D01*
X168536467Y-80023906D02*
X168386486Y-80023906D01*
X168386486Y-80023906D02*
X168348990Y-80098896D01*
X168348990Y-80098896D02*
X168274000Y-80173887D01*
X168274000Y-80173887D02*
X168161514Y-80211382D01*
X168161514Y-80211382D02*
X167974037Y-80211382D01*
X167974037Y-80211382D02*
X167861551Y-80173887D01*
X167861551Y-80173887D02*
X167786560Y-80098896D01*
X167786560Y-80098896D02*
X167749065Y-79986410D01*
X167749065Y-79986410D02*
X167749065Y-79836429D01*
X167749065Y-79836429D02*
X167786560Y-79723943D01*
X167786560Y-79723943D02*
X167861551Y-79648952D01*
X167861551Y-79648952D02*
X167974037Y-79611457D01*
X167974037Y-79611457D02*
X168161514Y-79611457D01*
X168161514Y-79611457D02*
X168274000Y-79648952D01*
X168274000Y-79648952D02*
X168348990Y-79723943D01*
X168348990Y-79723943D02*
X168386486Y-79798934D01*
X168386486Y-79798934D02*
X168536467Y-79798934D01*
X168536467Y-79798934D02*
X168536467Y-79611457D01*
X148406467Y-109168598D02*
X148406467Y-109618542D01*
X148406467Y-109393570D02*
X147619065Y-109393570D01*
X147619065Y-109393570D02*
X147731551Y-109468561D01*
X147731551Y-109468561D02*
X147806542Y-109543552D01*
X147806542Y-109543552D02*
X147844037Y-109618542D01*
X147619065Y-108681159D02*
X147619065Y-108606168D01*
X147619065Y-108606168D02*
X147656560Y-108531177D01*
X147656560Y-108531177D02*
X147694056Y-108493682D01*
X147694056Y-108493682D02*
X147769046Y-108456187D01*
X147769046Y-108456187D02*
X147919028Y-108418691D01*
X147919028Y-108418691D02*
X148106504Y-108418691D01*
X148106504Y-108418691D02*
X148256486Y-108456187D01*
X148256486Y-108456187D02*
X148331476Y-108493682D01*
X148331476Y-108493682D02*
X148368972Y-108531177D01*
X148368972Y-108531177D02*
X148406467Y-108606168D01*
X148406467Y-108606168D02*
X148406467Y-108681159D01*
X148406467Y-108681159D02*
X148368972Y-108756149D01*
X148368972Y-108756149D02*
X148331476Y-108793645D01*
X148331476Y-108793645D02*
X148256486Y-108831140D01*
X148256486Y-108831140D02*
X148106504Y-108868635D01*
X148106504Y-108868635D02*
X147919028Y-108868635D01*
X147919028Y-108868635D02*
X147769046Y-108831140D01*
X147769046Y-108831140D02*
X147694056Y-108793645D01*
X147694056Y-108793645D02*
X147656560Y-108756149D01*
X147656560Y-108756149D02*
X147619065Y-108681159D01*
X148406467Y-108081233D02*
X147619065Y-108081233D01*
X148106504Y-108006242D02*
X148406467Y-107781270D01*
X147881532Y-107781270D02*
X148181495Y-108081233D01*
X148406467Y-106881382D02*
X148406467Y-106693906D01*
X148406467Y-106693906D02*
X148256486Y-106693906D01*
X148256486Y-106693906D02*
X148218990Y-106768896D01*
X148218990Y-106768896D02*
X148144000Y-106843887D01*
X148144000Y-106843887D02*
X148031514Y-106881382D01*
X148031514Y-106881382D02*
X147844037Y-106881382D01*
X147844037Y-106881382D02*
X147731551Y-106843887D01*
X147731551Y-106843887D02*
X147656560Y-106768896D01*
X147656560Y-106768896D02*
X147619065Y-106656410D01*
X147619065Y-106656410D02*
X147619065Y-106506429D01*
X147619065Y-106506429D02*
X147656560Y-106393943D01*
X147656560Y-106393943D02*
X147731551Y-106318952D01*
X147731551Y-106318952D02*
X147844037Y-106281457D01*
X147844037Y-106281457D02*
X148031514Y-106281457D01*
X148031514Y-106281457D02*
X148144000Y-106318952D01*
X148144000Y-106318952D02*
X148218990Y-106393943D01*
X148218990Y-106393943D02*
X148256486Y-106468934D01*
X148256486Y-106468934D02*
X148406467Y-106468934D01*
X148406467Y-106468934D02*
X148406467Y-106281457D01*
X158859580Y-74604286D02*
X158907200Y-74651905D01*
X158907200Y-74651905D02*
X158954819Y-74794762D01*
X158954819Y-74794762D02*
X158954819Y-74890000D01*
X158954819Y-74890000D02*
X158907200Y-75032857D01*
X158907200Y-75032857D02*
X158811961Y-75128095D01*
X158811961Y-75128095D02*
X158716723Y-75175714D01*
X158716723Y-75175714D02*
X158526247Y-75223333D01*
X158526247Y-75223333D02*
X158383390Y-75223333D01*
X158383390Y-75223333D02*
X158192914Y-75175714D01*
X158192914Y-75175714D02*
X158097676Y-75128095D01*
X158097676Y-75128095D02*
X158002438Y-75032857D01*
X158002438Y-75032857D02*
X157954819Y-74890000D01*
X157954819Y-74890000D02*
X157954819Y-74794762D01*
X157954819Y-74794762D02*
X158002438Y-74651905D01*
X158002438Y-74651905D02*
X158050057Y-74604286D01*
X158907200Y-74223333D02*
X158954819Y-74080476D01*
X158954819Y-74080476D02*
X158954819Y-73842381D01*
X158954819Y-73842381D02*
X158907200Y-73747143D01*
X158907200Y-73747143D02*
X158859580Y-73699524D01*
X158859580Y-73699524D02*
X158764342Y-73651905D01*
X158764342Y-73651905D02*
X158669104Y-73651905D01*
X158669104Y-73651905D02*
X158573866Y-73699524D01*
X158573866Y-73699524D02*
X158526247Y-73747143D01*
X158526247Y-73747143D02*
X158478628Y-73842381D01*
X158478628Y-73842381D02*
X158431009Y-74032857D01*
X158431009Y-74032857D02*
X158383390Y-74128095D01*
X158383390Y-74128095D02*
X158335771Y-74175714D01*
X158335771Y-74175714D02*
X158240533Y-74223333D01*
X158240533Y-74223333D02*
X158145295Y-74223333D01*
X158145295Y-74223333D02*
X158050057Y-74175714D01*
X158050057Y-74175714D02*
X158002438Y-74128095D01*
X158002438Y-74128095D02*
X157954819Y-74032857D01*
X157954819Y-74032857D02*
X157954819Y-73794762D01*
X157954819Y-73794762D02*
X158002438Y-73651905D01*
X159050057Y-73461429D02*
X159050057Y-72699524D01*
X157954819Y-72604285D02*
X157954819Y-72032857D01*
X158954819Y-72318571D02*
X157954819Y-72318571D01*
X158431009Y-71366190D02*
X158431009Y-71699523D01*
X158954819Y-71699523D02*
X157954819Y-71699523D01*
X157954819Y-71699523D02*
X157954819Y-71223333D01*
X157954819Y-70985237D02*
X157954819Y-70413809D01*
X158954819Y-70699523D02*
X157954819Y-70699523D01*
X158954819Y-69556666D02*
X158954819Y-70128094D01*
X158954819Y-69842380D02*
X157954819Y-69842380D01*
X157954819Y-69842380D02*
X158097676Y-69937618D01*
X158097676Y-69937618D02*
X158192914Y-70032856D01*
X158192914Y-70032856D02*
X158240533Y-70128094D01*
X173377200Y-118601904D02*
X173424819Y-118459047D01*
X173424819Y-118459047D02*
X173424819Y-118220952D01*
X173424819Y-118220952D02*
X173377200Y-118125714D01*
X173377200Y-118125714D02*
X173329580Y-118078095D01*
X173329580Y-118078095D02*
X173234342Y-118030476D01*
X173234342Y-118030476D02*
X173139104Y-118030476D01*
X173139104Y-118030476D02*
X173043866Y-118078095D01*
X173043866Y-118078095D02*
X172996247Y-118125714D01*
X172996247Y-118125714D02*
X172948628Y-118220952D01*
X172948628Y-118220952D02*
X172901009Y-118411428D01*
X172901009Y-118411428D02*
X172853390Y-118506666D01*
X172853390Y-118506666D02*
X172805771Y-118554285D01*
X172805771Y-118554285D02*
X172710533Y-118601904D01*
X172710533Y-118601904D02*
X172615295Y-118601904D01*
X172615295Y-118601904D02*
X172520057Y-118554285D01*
X172520057Y-118554285D02*
X172472438Y-118506666D01*
X172472438Y-118506666D02*
X172424819Y-118411428D01*
X172424819Y-118411428D02*
X172424819Y-118173333D01*
X172424819Y-118173333D02*
X172472438Y-118030476D01*
X173329580Y-117030476D02*
X173377200Y-117078095D01*
X173377200Y-117078095D02*
X173424819Y-117220952D01*
X173424819Y-117220952D02*
X173424819Y-117316190D01*
X173424819Y-117316190D02*
X173377200Y-117459047D01*
X173377200Y-117459047D02*
X173281961Y-117554285D01*
X173281961Y-117554285D02*
X173186723Y-117601904D01*
X173186723Y-117601904D02*
X172996247Y-117649523D01*
X172996247Y-117649523D02*
X172853390Y-117649523D01*
X172853390Y-117649523D02*
X172662914Y-117601904D01*
X172662914Y-117601904D02*
X172567676Y-117554285D01*
X172567676Y-117554285D02*
X172472438Y-117459047D01*
X172472438Y-117459047D02*
X172424819Y-117316190D01*
X172424819Y-117316190D02*
X172424819Y-117220952D01*
X172424819Y-117220952D02*
X172472438Y-117078095D01*
X172472438Y-117078095D02*
X172520057Y-117030476D01*
X173424819Y-116601904D02*
X172424819Y-116601904D01*
X173424819Y-116030476D02*
X172853390Y-116459047D01*
X172424819Y-116030476D02*
X172996247Y-116601904D01*
X173424819Y-115078095D02*
X173424819Y-115649523D01*
X173424819Y-115363809D02*
X172424819Y-115363809D01*
X172424819Y-115363809D02*
X172567676Y-115459047D01*
X172567676Y-115459047D02*
X172662914Y-115554285D01*
X172662914Y-115554285D02*
X172710533Y-115649523D01*
X168726467Y-115518598D02*
X168726467Y-115968542D01*
X168726467Y-115743570D02*
X167939065Y-115743570D01*
X167939065Y-115743570D02*
X168051551Y-115818561D01*
X168051551Y-115818561D02*
X168126542Y-115893552D01*
X168126542Y-115893552D02*
X168164037Y-115968542D01*
X167939065Y-115031159D02*
X167939065Y-114956168D01*
X167939065Y-114956168D02*
X167976560Y-114881177D01*
X167976560Y-114881177D02*
X168014056Y-114843682D01*
X168014056Y-114843682D02*
X168089046Y-114806187D01*
X168089046Y-114806187D02*
X168239028Y-114768691D01*
X168239028Y-114768691D02*
X168426504Y-114768691D01*
X168426504Y-114768691D02*
X168576486Y-114806187D01*
X168576486Y-114806187D02*
X168651476Y-114843682D01*
X168651476Y-114843682D02*
X168688972Y-114881177D01*
X168688972Y-114881177D02*
X168726467Y-114956168D01*
X168726467Y-114956168D02*
X168726467Y-115031159D01*
X168726467Y-115031159D02*
X168688972Y-115106149D01*
X168688972Y-115106149D02*
X168651476Y-115143645D01*
X168651476Y-115143645D02*
X168576486Y-115181140D01*
X168576486Y-115181140D02*
X168426504Y-115218635D01*
X168426504Y-115218635D02*
X168239028Y-115218635D01*
X168239028Y-115218635D02*
X168089046Y-115181140D01*
X168089046Y-115181140D02*
X168014056Y-115143645D01*
X168014056Y-115143645D02*
X167976560Y-115106149D01*
X167976560Y-115106149D02*
X167939065Y-115031159D01*
X168726467Y-114431233D02*
X167939065Y-114431233D01*
X168426504Y-114356242D02*
X168726467Y-114131270D01*
X168201532Y-114131270D02*
X168501495Y-114431233D01*
X168726467Y-113231382D02*
X168726467Y-113043906D01*
X168726467Y-113043906D02*
X168576486Y-113043906D01*
X168576486Y-113043906D02*
X168538990Y-113118896D01*
X168538990Y-113118896D02*
X168464000Y-113193887D01*
X168464000Y-113193887D02*
X168351514Y-113231382D01*
X168351514Y-113231382D02*
X168164037Y-113231382D01*
X168164037Y-113231382D02*
X168051551Y-113193887D01*
X168051551Y-113193887D02*
X167976560Y-113118896D01*
X167976560Y-113118896D02*
X167939065Y-113006410D01*
X167939065Y-113006410D02*
X167939065Y-112856429D01*
X167939065Y-112856429D02*
X167976560Y-112743943D01*
X167976560Y-112743943D02*
X168051551Y-112668952D01*
X168051551Y-112668952D02*
X168164037Y-112631457D01*
X168164037Y-112631457D02*
X168351514Y-112631457D01*
X168351514Y-112631457D02*
X168464000Y-112668952D01*
X168464000Y-112668952D02*
X168538990Y-112743943D01*
X168538990Y-112743943D02*
X168576486Y-112818934D01*
X168576486Y-112818934D02*
X168726467Y-112818934D01*
X168726467Y-112818934D02*
X168726467Y-112631457D01*
X153486467Y-115518598D02*
X153486467Y-115968542D01*
X153486467Y-115743570D02*
X152699065Y-115743570D01*
X152699065Y-115743570D02*
X152811551Y-115818561D01*
X152811551Y-115818561D02*
X152886542Y-115893552D01*
X152886542Y-115893552D02*
X152924037Y-115968542D01*
X152699065Y-115031159D02*
X152699065Y-114956168D01*
X152699065Y-114956168D02*
X152736560Y-114881177D01*
X152736560Y-114881177D02*
X152774056Y-114843682D01*
X152774056Y-114843682D02*
X152849046Y-114806187D01*
X152849046Y-114806187D02*
X152999028Y-114768691D01*
X152999028Y-114768691D02*
X153186504Y-114768691D01*
X153186504Y-114768691D02*
X153336486Y-114806187D01*
X153336486Y-114806187D02*
X153411476Y-114843682D01*
X153411476Y-114843682D02*
X153448972Y-114881177D01*
X153448972Y-114881177D02*
X153486467Y-114956168D01*
X153486467Y-114956168D02*
X153486467Y-115031159D01*
X153486467Y-115031159D02*
X153448972Y-115106149D01*
X153448972Y-115106149D02*
X153411476Y-115143645D01*
X153411476Y-115143645D02*
X153336486Y-115181140D01*
X153336486Y-115181140D02*
X153186504Y-115218635D01*
X153186504Y-115218635D02*
X152999028Y-115218635D01*
X152999028Y-115218635D02*
X152849046Y-115181140D01*
X152849046Y-115181140D02*
X152774056Y-115143645D01*
X152774056Y-115143645D02*
X152736560Y-115106149D01*
X152736560Y-115106149D02*
X152699065Y-115031159D01*
X153486467Y-114431233D02*
X152699065Y-114431233D01*
X153186504Y-114356242D02*
X153486467Y-114131270D01*
X152961532Y-114131270D02*
X153261495Y-114431233D01*
X153486467Y-113231382D02*
X153486467Y-113043906D01*
X153486467Y-113043906D02*
X153336486Y-113043906D01*
X153336486Y-113043906D02*
X153298990Y-113118896D01*
X153298990Y-113118896D02*
X153224000Y-113193887D01*
X153224000Y-113193887D02*
X153111514Y-113231382D01*
X153111514Y-113231382D02*
X152924037Y-113231382D01*
X152924037Y-113231382D02*
X152811551Y-113193887D01*
X152811551Y-113193887D02*
X152736560Y-113118896D01*
X152736560Y-113118896D02*
X152699065Y-113006410D01*
X152699065Y-113006410D02*
X152699065Y-112856429D01*
X152699065Y-112856429D02*
X152736560Y-112743943D01*
X152736560Y-112743943D02*
X152811551Y-112668952D01*
X152811551Y-112668952D02*
X152924037Y-112631457D01*
X152924037Y-112631457D02*
X153111514Y-112631457D01*
X153111514Y-112631457D02*
X153224000Y-112668952D01*
X153224000Y-112668952D02*
X153298990Y-112743943D01*
X153298990Y-112743943D02*
X153336486Y-112818934D01*
X153336486Y-112818934D02*
X153486467Y-112818934D01*
X153486467Y-112818934D02*
X153486467Y-112631457D01*
X127991467Y-102818598D02*
X127991467Y-103268542D01*
X127991467Y-103043570D02*
X127204065Y-103043570D01*
X127204065Y-103043570D02*
X127316551Y-103118561D01*
X127316551Y-103118561D02*
X127391542Y-103193552D01*
X127391542Y-103193552D02*
X127429037Y-103268542D01*
X127204065Y-102331159D02*
X127204065Y-102256168D01*
X127204065Y-102256168D02*
X127241560Y-102181177D01*
X127241560Y-102181177D02*
X127279056Y-102143682D01*
X127279056Y-102143682D02*
X127354046Y-102106187D01*
X127354046Y-102106187D02*
X127504028Y-102068691D01*
X127504028Y-102068691D02*
X127691504Y-102068691D01*
X127691504Y-102068691D02*
X127841486Y-102106187D01*
X127841486Y-102106187D02*
X127916476Y-102143682D01*
X127916476Y-102143682D02*
X127953972Y-102181177D01*
X127953972Y-102181177D02*
X127991467Y-102256168D01*
X127991467Y-102256168D02*
X127991467Y-102331159D01*
X127991467Y-102331159D02*
X127953972Y-102406149D01*
X127953972Y-102406149D02*
X127916476Y-102443645D01*
X127916476Y-102443645D02*
X127841486Y-102481140D01*
X127841486Y-102481140D02*
X127691504Y-102518635D01*
X127691504Y-102518635D02*
X127504028Y-102518635D01*
X127504028Y-102518635D02*
X127354046Y-102481140D01*
X127354046Y-102481140D02*
X127279056Y-102443645D01*
X127279056Y-102443645D02*
X127241560Y-102406149D01*
X127241560Y-102406149D02*
X127204065Y-102331159D01*
X127991467Y-101731233D02*
X127204065Y-101731233D01*
X127691504Y-101656242D02*
X127991467Y-101431270D01*
X127466532Y-101431270D02*
X127766495Y-101731233D01*
X127991467Y-100531382D02*
X127991467Y-100343906D01*
X127991467Y-100343906D02*
X127841486Y-100343906D01*
X127841486Y-100343906D02*
X127803990Y-100418896D01*
X127803990Y-100418896D02*
X127729000Y-100493887D01*
X127729000Y-100493887D02*
X127616514Y-100531382D01*
X127616514Y-100531382D02*
X127429037Y-100531382D01*
X127429037Y-100531382D02*
X127316551Y-100493887D01*
X127316551Y-100493887D02*
X127241560Y-100418896D01*
X127241560Y-100418896D02*
X127204065Y-100306410D01*
X127204065Y-100306410D02*
X127204065Y-100156429D01*
X127204065Y-100156429D02*
X127241560Y-100043943D01*
X127241560Y-100043943D02*
X127316551Y-99968952D01*
X127316551Y-99968952D02*
X127429037Y-99931457D01*
X127429037Y-99931457D02*
X127616514Y-99931457D01*
X127616514Y-99931457D02*
X127729000Y-99968952D01*
X127729000Y-99968952D02*
X127803990Y-100043943D01*
X127803990Y-100043943D02*
X127841486Y-100118934D01*
X127841486Y-100118934D02*
X127991467Y-100118934D01*
X127991467Y-100118934D02*
X127991467Y-99931457D01*
X163646467Y-109168598D02*
X163646467Y-109618542D01*
X163646467Y-109393570D02*
X162859065Y-109393570D01*
X162859065Y-109393570D02*
X162971551Y-109468561D01*
X162971551Y-109468561D02*
X163046542Y-109543552D01*
X163046542Y-109543552D02*
X163084037Y-109618542D01*
X162859065Y-108681159D02*
X162859065Y-108606168D01*
X162859065Y-108606168D02*
X162896560Y-108531177D01*
X162896560Y-108531177D02*
X162934056Y-108493682D01*
X162934056Y-108493682D02*
X163009046Y-108456187D01*
X163009046Y-108456187D02*
X163159028Y-108418691D01*
X163159028Y-108418691D02*
X163346504Y-108418691D01*
X163346504Y-108418691D02*
X163496486Y-108456187D01*
X163496486Y-108456187D02*
X163571476Y-108493682D01*
X163571476Y-108493682D02*
X163608972Y-108531177D01*
X163608972Y-108531177D02*
X163646467Y-108606168D01*
X163646467Y-108606168D02*
X163646467Y-108681159D01*
X163646467Y-108681159D02*
X163608972Y-108756149D01*
X163608972Y-108756149D02*
X163571476Y-108793645D01*
X163571476Y-108793645D02*
X163496486Y-108831140D01*
X163496486Y-108831140D02*
X163346504Y-108868635D01*
X163346504Y-108868635D02*
X163159028Y-108868635D01*
X163159028Y-108868635D02*
X163009046Y-108831140D01*
X163009046Y-108831140D02*
X162934056Y-108793645D01*
X162934056Y-108793645D02*
X162896560Y-108756149D01*
X162896560Y-108756149D02*
X162859065Y-108681159D01*
X163646467Y-108081233D02*
X162859065Y-108081233D01*
X163346504Y-108006242D02*
X163646467Y-107781270D01*
X163121532Y-107781270D02*
X163421495Y-108081233D01*
X163646467Y-106881382D02*
X163646467Y-106693906D01*
X163646467Y-106693906D02*
X163496486Y-106693906D01*
X163496486Y-106693906D02*
X163458990Y-106768896D01*
X163458990Y-106768896D02*
X163384000Y-106843887D01*
X163384000Y-106843887D02*
X163271514Y-106881382D01*
X163271514Y-106881382D02*
X163084037Y-106881382D01*
X163084037Y-106881382D02*
X162971551Y-106843887D01*
X162971551Y-106843887D02*
X162896560Y-106768896D01*
X162896560Y-106768896D02*
X162859065Y-106656410D01*
X162859065Y-106656410D02*
X162859065Y-106506429D01*
X162859065Y-106506429D02*
X162896560Y-106393943D01*
X162896560Y-106393943D02*
X162971551Y-106318952D01*
X162971551Y-106318952D02*
X163084037Y-106281457D01*
X163084037Y-106281457D02*
X163271514Y-106281457D01*
X163271514Y-106281457D02*
X163384000Y-106318952D01*
X163384000Y-106318952D02*
X163458990Y-106393943D01*
X163458990Y-106393943D02*
X163496486Y-106468934D01*
X163496486Y-106468934D02*
X163646467Y-106468934D01*
X163646467Y-106468934D02*
X163646467Y-106281457D01*
X126339580Y-120030476D02*
X126387200Y-120078095D01*
X126387200Y-120078095D02*
X126434819Y-120220952D01*
X126434819Y-120220952D02*
X126434819Y-120316190D01*
X126434819Y-120316190D02*
X126387200Y-120459047D01*
X126387200Y-120459047D02*
X126291961Y-120554285D01*
X126291961Y-120554285D02*
X126196723Y-120601904D01*
X126196723Y-120601904D02*
X126006247Y-120649523D01*
X126006247Y-120649523D02*
X125863390Y-120649523D01*
X125863390Y-120649523D02*
X125672914Y-120601904D01*
X125672914Y-120601904D02*
X125577676Y-120554285D01*
X125577676Y-120554285D02*
X125482438Y-120459047D01*
X125482438Y-120459047D02*
X125434819Y-120316190D01*
X125434819Y-120316190D02*
X125434819Y-120220952D01*
X125434819Y-120220952D02*
X125482438Y-120078095D01*
X125482438Y-120078095D02*
X125530057Y-120030476D01*
X126387200Y-119649523D02*
X126434819Y-119506666D01*
X126434819Y-119506666D02*
X126434819Y-119268571D01*
X126434819Y-119268571D02*
X126387200Y-119173333D01*
X126387200Y-119173333D02*
X126339580Y-119125714D01*
X126339580Y-119125714D02*
X126244342Y-119078095D01*
X126244342Y-119078095D02*
X126149104Y-119078095D01*
X126149104Y-119078095D02*
X126053866Y-119125714D01*
X126053866Y-119125714D02*
X126006247Y-119173333D01*
X126006247Y-119173333D02*
X125958628Y-119268571D01*
X125958628Y-119268571D02*
X125911009Y-119459047D01*
X125911009Y-119459047D02*
X125863390Y-119554285D01*
X125863390Y-119554285D02*
X125815771Y-119601904D01*
X125815771Y-119601904D02*
X125720533Y-119649523D01*
X125720533Y-119649523D02*
X125625295Y-119649523D01*
X125625295Y-119649523D02*
X125530057Y-119601904D01*
X125530057Y-119601904D02*
X125482438Y-119554285D01*
X125482438Y-119554285D02*
X125434819Y-119459047D01*
X125434819Y-119459047D02*
X125434819Y-119220952D01*
X125434819Y-119220952D02*
X125482438Y-119078095D01*
X126530057Y-118887619D02*
X126530057Y-118125714D01*
X125434819Y-118030475D02*
X125434819Y-117459047D01*
X126434819Y-117744761D02*
X125434819Y-117744761D01*
X126434819Y-116982856D02*
X126387200Y-117078094D01*
X126387200Y-117078094D02*
X126339580Y-117125713D01*
X126339580Y-117125713D02*
X126244342Y-117173332D01*
X126244342Y-117173332D02*
X125958628Y-117173332D01*
X125958628Y-117173332D02*
X125863390Y-117125713D01*
X125863390Y-117125713D02*
X125815771Y-117078094D01*
X125815771Y-117078094D02*
X125768152Y-116982856D01*
X125768152Y-116982856D02*
X125768152Y-116839999D01*
X125768152Y-116839999D02*
X125815771Y-116744761D01*
X125815771Y-116744761D02*
X125863390Y-116697142D01*
X125863390Y-116697142D02*
X125958628Y-116649523D01*
X125958628Y-116649523D02*
X126244342Y-116649523D01*
X126244342Y-116649523D02*
X126339580Y-116697142D01*
X126339580Y-116697142D02*
X126387200Y-116744761D01*
X126387200Y-116744761D02*
X126434819Y-116839999D01*
X126434819Y-116839999D02*
X126434819Y-116982856D01*
X125768152Y-115792380D02*
X126434819Y-115792380D01*
X125768152Y-116220951D02*
X126291961Y-116220951D01*
X126291961Y-116220951D02*
X126387200Y-116173332D01*
X126387200Y-116173332D02*
X126434819Y-116078094D01*
X126434819Y-116078094D02*
X126434819Y-115935237D01*
X126434819Y-115935237D02*
X126387200Y-115839999D01*
X126387200Y-115839999D02*
X126339580Y-115792380D01*
X126387200Y-114887618D02*
X126434819Y-114982856D01*
X126434819Y-114982856D02*
X126434819Y-115173332D01*
X126434819Y-115173332D02*
X126387200Y-115268570D01*
X126387200Y-115268570D02*
X126339580Y-115316189D01*
X126339580Y-115316189D02*
X126244342Y-115363808D01*
X126244342Y-115363808D02*
X125958628Y-115363808D01*
X125958628Y-115363808D02*
X125863390Y-115316189D01*
X125863390Y-115316189D02*
X125815771Y-115268570D01*
X125815771Y-115268570D02*
X125768152Y-115173332D01*
X125768152Y-115173332D02*
X125768152Y-114982856D01*
X125768152Y-114982856D02*
X125815771Y-114887618D01*
X126434819Y-114459046D02*
X125434819Y-114459046D01*
X126434819Y-114030475D02*
X125911009Y-114030475D01*
X125911009Y-114030475D02*
X125815771Y-114078094D01*
X125815771Y-114078094D02*
X125768152Y-114173332D01*
X125768152Y-114173332D02*
X125768152Y-114316189D01*
X125768152Y-114316189D02*
X125815771Y-114411427D01*
X125815771Y-114411427D02*
X125863390Y-114459046D01*
X126434819Y-113030475D02*
X126434819Y-113601903D01*
X126434819Y-113316189D02*
X125434819Y-113316189D01*
X125434819Y-113316189D02*
X125577676Y-113411427D01*
X125577676Y-113411427D02*
X125672914Y-113506665D01*
X125672914Y-113506665D02*
X125720533Y-113601903D01*
D14*
%TO.C,R5*%
X116840000Y-72390000D02*
X116840000Y-77470000D01*
X116840000Y-77470000D02*
X118110000Y-77470000D01*
X118110000Y-72390000D02*
X116840000Y-72390000D01*
X118110000Y-72390000D02*
X118110000Y-71120000D01*
X118110000Y-77470000D02*
X118110000Y-78740000D01*
X118110000Y-77470000D02*
X119380000Y-77470000D01*
X119380000Y-72390000D02*
X118110000Y-72390000D01*
X119380000Y-77470000D02*
X119380000Y-72390000D01*
%TO.C,R9*%
X173990000Y-97790000D02*
X173990000Y-99060000D01*
X173990000Y-99060000D02*
X172720000Y-99060000D01*
X173990000Y-99060000D02*
X173990000Y-100330000D01*
X173990000Y-100330000D02*
X179070000Y-100330000D01*
X179070000Y-97790000D02*
X173990000Y-97790000D01*
X179070000Y-99060000D02*
X179070000Y-97790000D01*
X179070000Y-99060000D02*
X180340000Y-99060000D01*
X179070000Y-100330000D02*
X179070000Y-99060000D01*
D11*
%TO.C,Brightness Adjust1*%
X185420000Y-101600000D02*
X190500000Y-101600000D01*
X191770000Y-99060000D02*
G75*
G02*
X184150000Y-99060000I-3810000J0D01*
G01*
X184150000Y-99060000D02*
G75*
G02*
X191770000Y-99060000I3810000J0D01*
G01*
X194310000Y-102870000D02*
X185420000Y-102870000D01*
X182880000Y-100330000D01*
X182880000Y-97790000D01*
X185420000Y-95250000D01*
X194310000Y-95250000D01*
X194310000Y-102870000D01*
X188595000Y-98425000D02*
X189865000Y-98425000D01*
X189865000Y-99695000D01*
X188595000Y-99695000D01*
X188595000Y-100965000D01*
X187325000Y-100965000D01*
X187325000Y-99695000D01*
X186055000Y-99695000D01*
X186055000Y-98425000D01*
X187325000Y-98425000D01*
X187325000Y-97155000D01*
X188595000Y-97155000D01*
X188595000Y-98425000D01*
G36*
X188595000Y-98425000D02*
G01*
X189865000Y-98425000D01*
X189865000Y-99695000D01*
X188595000Y-99695000D01*
X188595000Y-100965000D01*
X187325000Y-100965000D01*
X187325000Y-99695000D01*
X186055000Y-99695000D01*
X186055000Y-98425000D01*
X187325000Y-98425000D01*
X187325000Y-97155000D01*
X188595000Y-97155000D01*
X188595000Y-98425000D01*
G37*
D14*
%TO.C,R16*%
X133350000Y-113030000D02*
X133350000Y-118110000D01*
X133350000Y-118110000D02*
X134620000Y-118110000D01*
X134620000Y-113030000D02*
X133350000Y-113030000D01*
X134620000Y-113030000D02*
X134620000Y-111760000D01*
X134620000Y-118110000D02*
X134620000Y-119380000D01*
X134620000Y-118110000D02*
X135890000Y-118110000D01*
X135890000Y-113030000D02*
X134620000Y-113030000D01*
X135890000Y-118110000D02*
X135890000Y-113030000D01*
%TO.C,R10*%
X147320000Y-72390000D02*
X147320000Y-77470000D01*
X147320000Y-77470000D02*
X148590000Y-77470000D01*
X148590000Y-72390000D02*
X147320000Y-72390000D01*
X148590000Y-72390000D02*
X148590000Y-71120000D01*
X148590000Y-77470000D02*
X148590000Y-78740000D01*
X148590000Y-77470000D02*
X149860000Y-77470000D01*
X149860000Y-72390000D02*
X148590000Y-72390000D01*
X149860000Y-77470000D02*
X149860000Y-72390000D01*
D15*
%TO.C,CS_SD1*%
X137850000Y-70590000D02*
X137850000Y-74190000D01*
X137861522Y-70551522D02*
G75*
G02*
X142300001Y-72390000I1838478J-1838478D01*
G01*
X142300000Y-72390000D02*
G75*
G02*
X137861522Y-74228478I-2600000J0D01*
G01*
%TO.C,DC1*%
X168330000Y-70590000D02*
X168330000Y-74190000D01*
X168341522Y-70551522D02*
G75*
G02*
X172780001Y-72390000I1838478J-1838478D01*
G01*
X172780000Y-72390000D02*
G75*
G02*
X168341522Y-74228478I-2600000J0D01*
G01*
D14*
%TO.C,R1*%
X180340000Y-111760000D02*
X180340000Y-116840000D01*
X180340000Y-116840000D02*
X181610000Y-116840000D01*
X181610000Y-111760000D02*
X180340000Y-111760000D01*
X181610000Y-111760000D02*
X181610000Y-110490000D01*
X181610000Y-116840000D02*
X181610000Y-118110000D01*
X181610000Y-116840000D02*
X182880000Y-116840000D01*
X182880000Y-111760000D02*
X181610000Y-111760000D01*
X182880000Y-116840000D02*
X182880000Y-111760000D01*
%TO.C,R17*%
X128270000Y-105410000D02*
X128270000Y-110490000D01*
X128270000Y-110490000D02*
X129540000Y-110490000D01*
X129540000Y-105410000D02*
X128270000Y-105410000D01*
X129540000Y-105410000D02*
X129540000Y-104140000D01*
X129540000Y-110490000D02*
X129540000Y-111760000D01*
X129540000Y-110490000D02*
X130810000Y-110490000D01*
X130810000Y-105410000D02*
X129540000Y-105410000D01*
X130810000Y-110490000D02*
X130810000Y-105410000D01*
%TO.C,R14*%
X130810000Y-72390000D02*
X130810000Y-77470000D01*
X130810000Y-77470000D02*
X132080000Y-77470000D01*
X132080000Y-72390000D02*
X130810000Y-72390000D01*
X132080000Y-72390000D02*
X132080000Y-71120000D01*
X132080000Y-77470000D02*
X132080000Y-78740000D01*
X132080000Y-77470000D02*
X133350000Y-77470000D01*
X133350000Y-72390000D02*
X132080000Y-72390000D01*
X133350000Y-77470000D02*
X133350000Y-72390000D01*
%TO.C,R11*%
X153670000Y-78740000D02*
X153670000Y-83820000D01*
X153670000Y-83820000D02*
X154940000Y-83820000D01*
X154940000Y-78740000D02*
X153670000Y-78740000D01*
X154940000Y-78740000D02*
X154940000Y-77470000D01*
X154940000Y-83820000D02*
X154940000Y-85090000D01*
X154940000Y-83820000D02*
X156210000Y-83820000D01*
X156210000Y-78740000D02*
X154940000Y-78740000D01*
X156210000Y-83820000D02*
X156210000Y-78740000D01*
D15*
%TO.C,RESET1*%
X147900000Y-118640000D02*
X147900000Y-115040000D01*
X143450000Y-116840000D02*
G75*
G02*
X147888478Y-115001522I2600000J0D01*
G01*
X147888478Y-118678478D02*
G75*
G02*
X143449999Y-116840000I-1838478J1838478D01*
G01*
D14*
%TO.C,R6*%
X123190000Y-78740000D02*
X123190000Y-83820000D01*
X123190000Y-83820000D02*
X124460000Y-83820000D01*
X124460000Y-78740000D02*
X123190000Y-78740000D01*
X124460000Y-78740000D02*
X124460000Y-77470000D01*
X124460000Y-83820000D02*
X124460000Y-85090000D01*
X124460000Y-83820000D02*
X125730000Y-83820000D01*
X125730000Y-78740000D02*
X124460000Y-78740000D01*
X125730000Y-83820000D02*
X125730000Y-78740000D01*
D15*
%TO.C,MISO1*%
X122610000Y-70590000D02*
X122610000Y-74190000D01*
X122621522Y-70551522D02*
G75*
G02*
X127060001Y-72390000I1838478J-1838478D01*
G01*
X127060000Y-72390000D02*
G75*
G02*
X122621522Y-74228478I-2600000J0D01*
G01*
%TO.C,U1*%
D11*
X186055000Y-110871000D02*
X193421000Y-110871000D01*
X193421000Y-116205000D01*
X186055000Y-116205000D01*
X186055000Y-110871000D01*
D15*
%TO.C,LS1*%
X113030000Y-113030000D02*
X113030000Y-120650000D01*
X113030000Y-114300000D02*
X123190000Y-114300000D01*
X113030000Y-120650000D02*
X123190000Y-120650000D01*
X123190000Y-113030000D02*
X113030000Y-113030000D01*
X123190000Y-120650000D02*
X123190000Y-113030000D01*
D14*
%TO.C,R15*%
X138430000Y-78740000D02*
X138430000Y-83820000D01*
X138430000Y-83820000D02*
X139700000Y-83820000D01*
X139700000Y-78740000D02*
X138430000Y-78740000D01*
X139700000Y-78740000D02*
X139700000Y-77470000D01*
X139700000Y-83820000D02*
X139700000Y-85090000D01*
X139700000Y-83820000D02*
X140970000Y-83820000D01*
X140970000Y-78740000D02*
X139700000Y-78740000D01*
X140970000Y-83820000D02*
X140970000Y-78740000D01*
%TO.C,C1*%
X140970000Y-92710000D02*
X140970000Y-97790000D01*
X140970000Y-97790000D02*
X156210000Y-97790000D01*
X147320000Y-91440000D02*
X147320000Y-92710000D01*
X147320000Y-92710000D02*
X140970000Y-92710000D01*
X149860000Y-91440000D02*
X147320000Y-91440000D01*
X149860000Y-92710000D02*
X149860000Y-91440000D01*
X156210000Y-92710000D02*
X149860000Y-92710000D01*
X156210000Y-97790000D02*
X156210000Y-92710000D01*
D15*
%TO.C,MOSI1*%
X163140000Y-118640000D02*
X163140000Y-115040000D01*
X158690000Y-116840000D02*
G75*
G02*
X163128478Y-115001522I2600000J0D01*
G01*
X163128478Y-118678478D02*
G75*
G02*
X158689999Y-116840000I-1838478J1838478D01*
G01*
D14*
%TO.C,R12*%
X162560000Y-73660000D02*
X162560000Y-78740000D01*
X162560000Y-78740000D02*
X163830000Y-78740000D01*
X163830000Y-73660000D02*
X162560000Y-73660000D01*
X163830000Y-73660000D02*
X163830000Y-72390000D01*
X163830000Y-78740000D02*
X163830000Y-80010000D01*
X163830000Y-78740000D02*
X165100000Y-78740000D01*
X165100000Y-73660000D02*
X163830000Y-73660000D01*
X165100000Y-78740000D02*
X165100000Y-73660000D01*
%TO.C,R2*%
X175260000Y-105410000D02*
X175260000Y-110490000D01*
X175260000Y-110490000D02*
X176530000Y-110490000D01*
X176530000Y-105410000D02*
X175260000Y-105410000D01*
X176530000Y-105410000D02*
X176530000Y-104140000D01*
X176530000Y-110490000D02*
X176530000Y-111760000D01*
X176530000Y-110490000D02*
X177800000Y-110490000D01*
X177800000Y-105410000D02*
X176530000Y-105410000D01*
X177800000Y-110490000D02*
X177800000Y-105410000D01*
D15*
%TO.C,Amplifying Transistor1*%
X117530000Y-103610000D02*
X117530000Y-107210000D01*
X117541522Y-103571522D02*
G75*
G02*
X121980001Y-105410000I1838478J-1838478D01*
G01*
X121980000Y-105410000D02*
G75*
G02*
X117541522Y-107248478I-2600000J0D01*
G01*
D14*
%TO.C,R7*%
X111760000Y-104140000D02*
X111760000Y-109220000D01*
X111760000Y-109220000D02*
X113030000Y-109220000D01*
X113030000Y-104140000D02*
X111760000Y-104140000D01*
X113030000Y-104140000D02*
X113030000Y-102870000D01*
X113030000Y-109220000D02*
X113030000Y-110490000D01*
X113030000Y-109220000D02*
X114300000Y-109220000D01*
X114300000Y-104140000D02*
X113030000Y-104140000D01*
X114300000Y-109220000D02*
X114300000Y-104140000D01*
%TO.C,R13*%
X168910000Y-78740000D02*
X168910000Y-83820000D01*
X168910000Y-83820000D02*
X170180000Y-83820000D01*
X170180000Y-78740000D02*
X168910000Y-78740000D01*
X170180000Y-78740000D02*
X170180000Y-77470000D01*
X170180000Y-83820000D02*
X170180000Y-85090000D01*
X170180000Y-83820000D02*
X171450000Y-83820000D01*
X171450000Y-78740000D02*
X170180000Y-78740000D01*
X171450000Y-83820000D02*
X171450000Y-78740000D01*
%TO.C,R19*%
X144780000Y-105410000D02*
X144780000Y-110490000D01*
X144780000Y-110490000D02*
X146050000Y-110490000D01*
X146050000Y-105410000D02*
X144780000Y-105410000D01*
X146050000Y-105410000D02*
X146050000Y-104140000D01*
X146050000Y-110490000D02*
X146050000Y-111760000D01*
X146050000Y-110490000D02*
X147320000Y-110490000D01*
X147320000Y-105410000D02*
X146050000Y-105410000D01*
X147320000Y-110490000D02*
X147320000Y-105410000D01*
D15*
%TO.C,CS_TFT1*%
X153090000Y-70590000D02*
X153090000Y-74190000D01*
X153101522Y-70551522D02*
G75*
G02*
X157540001Y-72390000I1838478J-1838478D01*
G01*
X157540000Y-72390000D02*
G75*
G02*
X153101522Y-74228478I-2600000J0D01*
G01*
%TO.C,SCK1*%
X178380000Y-118640000D02*
X178380000Y-115040000D01*
X173930000Y-116840000D02*
G75*
G02*
X178368478Y-115001522I2600000J0D01*
G01*
X178368478Y-118678478D02*
G75*
G02*
X173929999Y-116840000I-1838478J1838478D01*
G01*
D14*
%TO.C,R3*%
X165100000Y-111760000D02*
X165100000Y-116840000D01*
X165100000Y-116840000D02*
X166370000Y-116840000D01*
X166370000Y-111760000D02*
X165100000Y-111760000D01*
X166370000Y-111760000D02*
X166370000Y-110490000D01*
X166370000Y-116840000D02*
X166370000Y-118110000D01*
X166370000Y-116840000D02*
X167640000Y-116840000D01*
X167640000Y-111760000D02*
X166370000Y-111760000D01*
X167640000Y-116840000D02*
X167640000Y-111760000D01*
%TO.C,R18*%
X149860000Y-111760000D02*
X149860000Y-116840000D01*
X149860000Y-116840000D02*
X151130000Y-116840000D01*
X151130000Y-111760000D02*
X149860000Y-111760000D01*
X151130000Y-111760000D02*
X151130000Y-110490000D01*
X151130000Y-116840000D02*
X151130000Y-118110000D01*
X151130000Y-116840000D02*
X152400000Y-116840000D01*
X152400000Y-111760000D02*
X151130000Y-111760000D01*
X152400000Y-116840000D02*
X152400000Y-111760000D01*
%TO.C,R8*%
X124460000Y-99060000D02*
X124460000Y-104140000D01*
X124460000Y-104140000D02*
X125730000Y-104140000D01*
X125730000Y-99060000D02*
X124460000Y-99060000D01*
X125730000Y-99060000D02*
X125730000Y-97790000D01*
X125730000Y-104140000D02*
X125730000Y-105410000D01*
X125730000Y-104140000D02*
X127000000Y-104140000D01*
X127000000Y-99060000D02*
X125730000Y-99060000D01*
X127000000Y-104140000D02*
X127000000Y-99060000D01*
%TO.C,R4*%
X160020000Y-105410000D02*
X160020000Y-110490000D01*
X160020000Y-110490000D02*
X161290000Y-110490000D01*
X161290000Y-105410000D02*
X160020000Y-105410000D01*
X161290000Y-105410000D02*
X161290000Y-104140000D01*
X161290000Y-110490000D02*
X161290000Y-111760000D01*
X161290000Y-110490000D02*
X162560000Y-110490000D01*
X162560000Y-105410000D02*
X161290000Y-105410000D01*
X162560000Y-110490000D02*
X162560000Y-105410000D01*
D15*
%TO.C,CS_Touch1*%
X131390000Y-118640000D02*
X131390000Y-115040000D01*
X126940000Y-116840000D02*
G75*
G02*
X131378478Y-115001522I2600000J0D01*
G01*
X131378478Y-118678478D02*
G75*
G02*
X126939999Y-116840000I-1838478J1838478D01*
G01*
%TD*%
%LPC*%
D16*
%TO.C,U2*%
X191060000Y-119380000D03*
X191060000Y-71120000D03*
X108510000Y-119380000D03*
X108510000Y-71120000D03*
D17*
X196140000Y-83820000D03*
X196140000Y-88900000D03*
X196140000Y-81280000D03*
X196140000Y-96520000D03*
X196140000Y-86360000D03*
X196140000Y-93980000D03*
X196140000Y-91440000D03*
X196140000Y-99060000D03*
D18*
X108510000Y-91440000D03*
D17*
X108510000Y-96520000D03*
X108510000Y-93980000D03*
X108510000Y-99060000D03*
X196140000Y-101600000D03*
X196140000Y-104140000D03*
X196140000Y-106680000D03*
X196140000Y-109220000D03*
X196140000Y-111760000D03*
D18*
X196140000Y-78740000D03*
%TD*%
D19*
%TO.C,R5*%
X118110000Y-78740000D03*
X118110000Y-71120000D03*
%TD*%
%TO.C,R9*%
X172720000Y-99060000D03*
X180340000Y-99060000D03*
%TD*%
D17*
%TO.C,Brightness Adjust1*%
X182880000Y-99060000D03*
X193040000Y-96520000D03*
X193040000Y-101600000D03*
%TD*%
D19*
%TO.C,R16*%
X134620000Y-111760000D03*
X134620000Y-119380000D03*
%TD*%
%TO.C,R10*%
X148590000Y-78740000D03*
X148590000Y-71120000D03*
%TD*%
D20*
%TO.C,CS_SD1*%
X139700000Y-71120000D03*
D21*
X139700000Y-72390000D03*
X139700000Y-73660000D03*
%TD*%
D20*
%TO.C,DC1*%
X170180000Y-71120000D03*
D21*
X170180000Y-72390000D03*
X170180000Y-73660000D03*
%TD*%
D19*
%TO.C,R1*%
X181610000Y-110490000D03*
X181610000Y-118110000D03*
%TD*%
%TO.C,R17*%
X129540000Y-104140000D03*
X129540000Y-111760000D03*
%TD*%
%TO.C,R14*%
X132080000Y-78740000D03*
X132080000Y-71120000D03*
%TD*%
%TO.C,R11*%
X154940000Y-85090000D03*
X154940000Y-77470000D03*
%TD*%
D20*
%TO.C,RESET1*%
X146050000Y-118110000D03*
D21*
X146050000Y-116840000D03*
X146050000Y-115570000D03*
%TD*%
D19*
%TO.C,R6*%
X124460000Y-85090000D03*
X124460000Y-77470000D03*
%TD*%
D20*
%TO.C,MISO1*%
X124460000Y-71120000D03*
D21*
X124460000Y-72390000D03*
X124460000Y-73660000D03*
%TD*%
D22*
%TO.C,U1*%
X189865000Y-113665000D03*
%TD*%
D23*
%TO.C,LS1*%
X120650000Y-116840000D03*
D24*
X115570000Y-116840000D03*
%TD*%
D19*
%TO.C,R15*%
X139700000Y-85090000D03*
X139700000Y-77470000D03*
%TD*%
D25*
%TO.C,C1*%
X154940000Y-96520000D03*
D19*
X152400000Y-96520000D03*
X149860000Y-96520000D03*
X144780000Y-93980000D03*
X144780000Y-96520000D03*
X142240000Y-96520000D03*
X147320000Y-96520000D03*
X147320000Y-93980000D03*
X154940000Y-93980000D03*
X149860000Y-93980000D03*
X152400000Y-93980000D03*
X142240000Y-93980000D03*
%TD*%
D20*
%TO.C,MOSI1*%
X161290000Y-118110000D03*
D21*
X161290000Y-116840000D03*
X161290000Y-115570000D03*
%TD*%
D19*
%TO.C,R12*%
X163830000Y-80010000D03*
X163830000Y-72390000D03*
%TD*%
%TO.C,R2*%
X176530000Y-104140000D03*
X176530000Y-111760000D03*
%TD*%
D20*
%TO.C,Amplifying Transistor1*%
X119380000Y-104140000D03*
D21*
X119380000Y-105410000D03*
X119380000Y-106680000D03*
%TD*%
D19*
%TO.C,R7*%
X113030000Y-102870000D03*
X113030000Y-110490000D03*
%TD*%
%TO.C,R13*%
X170180000Y-85090000D03*
X170180000Y-77470000D03*
%TD*%
%TO.C,R19*%
X146050000Y-104140000D03*
X146050000Y-111760000D03*
%TD*%
D20*
%TO.C,CS_TFT1*%
X154940000Y-71120000D03*
D21*
X154940000Y-72390000D03*
X154940000Y-73660000D03*
%TD*%
D20*
%TO.C,SCK1*%
X176530000Y-118110000D03*
D21*
X176530000Y-116840000D03*
X176530000Y-115570000D03*
%TD*%
D19*
%TO.C,R3*%
X166370000Y-110490000D03*
X166370000Y-118110000D03*
%TD*%
%TO.C,R18*%
X151130000Y-110490000D03*
X151130000Y-118110000D03*
%TD*%
%TO.C,R8*%
X125730000Y-105410000D03*
X125730000Y-97790000D03*
%TD*%
%TO.C,R4*%
X161290000Y-104140000D03*
X161290000Y-111760000D03*
%TD*%
D20*
%TO.C,CS_Touch1*%
X129540000Y-118110000D03*
D21*
X129540000Y-116840000D03*
X129540000Y-115570000D03*
%TD*%
%LPD*%
M02*
