M48
; DRILL file {KiCad 8.0.4} date 2024-09-20T15:58:00-0600
; FORMAT={-:-/ absolute / metric / decimal}
; #@! TF.CreationDate,2024-09-20T15:58:00-06:00
; #@! TF.GenerationSoftware,Kicad,Pcbnew,8.0.4
; #@! TF.FileFunction,Plated,1,2,PTH
FMAT,2
METRIC
; #@! TA.AperFunction,Plated,PTH,ViaDrill
T1C0.300
; #@! TA.AperFunction,Plated,PTH,ComponentDrill
T2C0.750
; #@! TA.AperFunction,Plated,PTH,ComponentDrill
T3C0.762
; #@! TA.AperFunction,Plated,PTH,ComponentDrill
T4C0.900
; #@! TA.AperFunction,Plated,PTH,ComponentDrill
T5C1.016
; #@! TA.AperFunction,Plated,PTH,ComponentDrill
T6C1.520
%
G90
G05
T1
X135.255Y-106.045
X137.795Y-106.045
X147.32Y-102.235
X148.59Y-119.38
X174.625Y-102.235
X184.15Y-93.98
T2
X119.38Y-104.14
X119.38Y-105.41
X119.38Y-106.68
X124.46Y-71.12
X124.46Y-72.39
X124.46Y-73.66
X129.54Y-115.57
X129.54Y-116.84
X129.54Y-118.11
X139.7Y-71.12
X139.7Y-72.39
X139.7Y-73.66
X146.05Y-115.57
X146.05Y-116.84
X146.05Y-118.11
X154.94Y-71.12
X154.94Y-72.39
X154.94Y-73.66
X161.29Y-115.57
X161.29Y-116.84
X161.29Y-118.11
X170.18Y-71.12
X170.18Y-72.39
X170.18Y-73.66
X176.53Y-115.57
X176.53Y-116.84
X176.53Y-118.11
T3
X108.51Y-91.44
X108.51Y-93.98
X108.51Y-96.52
X108.51Y-99.06
X182.88Y-99.06
X193.04Y-96.52
X193.04Y-101.6
X196.14Y-78.74
X196.14Y-81.28
X196.14Y-83.82
X196.14Y-86.36
X196.14Y-88.9
X196.14Y-91.44
X196.14Y-93.98
X196.14Y-96.52
X196.14Y-99.06
X196.14Y-101.6
X196.14Y-104.14
X196.14Y-106.68
X196.14Y-109.22
X196.14Y-111.76
T4
X113.03Y-102.87
X113.03Y-110.49
X118.11Y-71.12
X118.11Y-78.74
X124.46Y-77.47
X124.46Y-85.09
X125.73Y-97.79
X125.73Y-105.41
X129.54Y-104.14
X129.54Y-111.76
X132.08Y-71.12
X132.08Y-78.74
X134.62Y-111.76
X134.62Y-119.38
X139.7Y-77.47
X139.7Y-85.09
X142.24Y-93.98
X142.24Y-96.52
X144.78Y-93.98
X144.78Y-96.52
X146.05Y-104.14
X146.05Y-111.76
X147.32Y-93.98
X147.32Y-96.52
X148.59Y-71.12
X148.59Y-78.74
X149.86Y-93.98
X149.86Y-96.52
X151.13Y-110.49
X151.13Y-118.11
X152.4Y-93.98
X152.4Y-96.52
X154.94Y-77.47
X154.94Y-85.09
X154.94Y-93.98
X154.94Y-96.52
X161.29Y-104.14
X161.29Y-111.76
X163.83Y-72.39
X163.83Y-80.01
X166.37Y-110.49
X166.37Y-118.11
X170.18Y-77.47
X170.18Y-85.09
X172.72Y-99.06
X176.53Y-104.14
X176.53Y-111.76
X180.34Y-99.06
X181.61Y-110.49
X181.61Y-118.11
T5
X194.31Y-118.11
T6
X115.57Y-116.84
X120.65Y-116.84
M30
