M48
; DRILL file {KiCad 8.0.5} date 2024-10-16T12:37:15-0600
; FORMAT={-:-/ absolute / inch / decimal}
; #@! TF.CreationDate,2024-10-16T12:37:15-06:00
; #@! TF.GenerationSoftware,Kicad,Pcbnew,8.0.5
; #@! TF.FileFunction,Plated,1,2,PTH
FMAT,2
INCH
; #@! TA.AperFunction,Plated,PTH,ViaDrill
T1C0.0118
; #@! TA.AperFunction,Plated,PTH,ComponentDrill
T2C0.0295
; #@! TA.AperFunction,Plated,PTH,ComponentDrill
T3C0.0300
; #@! TA.AperFunction,Plated,PTH,ComponentDrill
T4C0.0354
; #@! TA.AperFunction,Plated,PTH,ComponentDrill
T5C0.0400
; #@! TA.AperFunction,Plated,PTH,ComponentDrill
T6C0.0598
%
G90
G05
T1
X5.325Y-4.175
X5.425Y-4.175
X5.8Y-4.025
X5.85Y-4.7
X6.875Y-4.025
X7.25Y-3.7
T2
X4.7Y-4.1
X4.7Y-4.15
X4.7Y-4.2
X4.9Y-2.8
X4.9Y-2.85
X4.9Y-2.9
X5.1Y-4.55
X5.1Y-4.6
X5.1Y-4.65
X5.5Y-2.8
X5.5Y-2.85
X5.5Y-2.9
X5.75Y-4.55
X5.75Y-4.6
X5.75Y-4.65
X6.1Y-2.8
X6.1Y-2.85
X6.1Y-2.9
X6.35Y-4.55
X6.35Y-4.6
X6.35Y-4.65
X6.7Y-2.8
X6.7Y-2.85
X6.7Y-2.9
X6.95Y-4.55
X6.95Y-4.6
X6.95Y-4.65
T3
X4.272Y-3.6
X4.272Y-3.7
X4.272Y-3.8
X4.272Y-3.9
X7.2Y-3.9
X7.6Y-3.8
X7.6Y-4.0
X7.722Y-3.1
X7.722Y-3.2
X7.722Y-3.3
X7.722Y-3.4
X7.722Y-3.5
X7.722Y-3.6
X7.722Y-3.7
X7.722Y-3.8
X7.722Y-3.9
X7.722Y-4.0
X7.722Y-4.1
X7.722Y-4.2
X7.722Y-4.3
X7.722Y-4.4
T4
X4.45Y-4.05
X4.45Y-4.35
X4.65Y-2.8
X4.65Y-3.1
X4.9Y-3.05
X4.9Y-3.35
X4.95Y-3.85
X4.95Y-4.15
X5.1Y-4.1
X5.1Y-4.4
X5.2Y-2.8
X5.2Y-3.1
X5.3Y-4.4
X5.3Y-4.7
X5.5Y-3.05
X5.5Y-3.35
X5.6Y-3.7
X5.6Y-3.8
X5.7Y-3.7
X5.7Y-3.8
X5.75Y-4.1
X5.75Y-4.4
X5.8Y-3.7
X5.8Y-3.8
X5.85Y-2.8
X5.85Y-3.1
X5.9Y-3.7
X5.9Y-3.8
X5.95Y-4.35
X5.95Y-4.65
X6.0Y-3.7
X6.0Y-3.8
X6.1Y-3.05
X6.1Y-3.35
X6.1Y-3.7
X6.1Y-3.8
X6.35Y-4.1
X6.35Y-4.4
X6.45Y-2.85
X6.45Y-3.15
X6.55Y-4.35
X6.55Y-4.65
X6.7Y-3.05
X6.7Y-3.35
X6.8Y-3.9
X6.95Y-4.1
X6.95Y-4.4
X7.1Y-3.9
X7.15Y-4.35
X7.15Y-4.65
T5
X7.475Y-4.475
T6
X4.55Y-4.6
X4.75Y-4.6
M30
