%TF.GenerationSoftware,KiCad,Pcbnew,8.0.3*%
%TF.CreationDate,2024-06-28T12:40:16-06:00*%
%TF.ProjectId,Subsystem SPI Breakout v2,53756273-7973-4746-956d-205350492042,rev?*%
%TF.SameCoordinates,Original*%
%TF.FileFunction,Copper,L2,Bot*%
%TF.FilePolarity,Positive*%
%FSLAX46Y46*%
G04 Gerber Fmt 4.6, Leading zero omitted, Abs format (unit mm)*
G04 Created by KiCad (PCBNEW 8.0.3) date 2024-06-28 12:40:16*
%MOMM*%
%LPD*%
G01*
G04 APERTURE LIST*
%TA.AperFunction,ComponentPad*%
%ADD10C,1.524000*%
%TD*%
%TA.AperFunction,ComponentPad*%
%ADD11R,1.524000X1.524000*%
%TD*%
%TA.AperFunction,ComponentPad*%
%ADD12C,1.778000*%
%TD*%
%TA.AperFunction,ComponentPad*%
%ADD13R,1.050000X1.500000*%
%TD*%
%TA.AperFunction,ComponentPad*%
%ADD14O,1.050000X1.500000*%
%TD*%
%TA.AperFunction,ComponentPad*%
%ADD15R,3.000000X3.000000*%
%TD*%
%TA.AperFunction,ComponentPad*%
%ADD16C,3.000000*%
%TD*%
%TA.AperFunction,ComponentPad*%
%ADD17R,1.778000X1.778000*%
%TD*%
%TA.AperFunction,ViaPad*%
%ADD18C,0.600000*%
%TD*%
%TA.AperFunction,Conductor*%
%ADD19C,0.200000*%
%TD*%
%TA.AperFunction,Conductor*%
%ADD20C,0.600000*%
%TD*%
%TA.AperFunction,Conductor*%
%ADD21C,0.400000*%
%TD*%
G04 APERTURE END LIST*
D10*
%TO.P,U2,CS,CS*%
%TO.N,Net-(Q1-C)*%
X180390000Y-62850000D03*
%TO.P,U2,DC,DC*%
%TO.N,Net-(LogicConverter1-PadLV1)*%
X180390000Y-67930000D03*
%TO.P,U2,GND,GND*%
%TO.N,Net-(1-PadGND)*%
X180390000Y-60310000D03*
%TO.P,U2,LED,LED*%
%TO.N,Net-(U2-PadLED)*%
X180390000Y-75550000D03*
%TO.P,U2,RESET,RESET*%
%TO.N,unconnected-(U2-PadRESET)*%
X180390000Y-65390000D03*
%TO.P,U2,SCK,SCK*%
%TO.N,Net-(LogicConverter1-PadLV4)*%
X180390000Y-73010000D03*
%TO.P,U2,SDI(MOSI),SDI(MOSI)*%
%TO.N,Net-(LogicConverter1-PadLV3)*%
X180390000Y-70470000D03*
%TO.P,U2,SDO(MISO),SDO(MISO)*%
%TO.N,Net-(LogicConverter1-PadLV2)*%
X180390000Y-78090000D03*
D11*
%TO.P,U2,SD_CS,SD_CS*%
%TO.N,Net-(Q3-C)*%
X106730000Y-70470000D03*
D10*
%TO.P,U2,SD_MISO,SD_MISO*%
%TO.N,Net-(LogicConverter1-PadLV2)*%
X106730000Y-75550000D03*
%TO.P,U2,SD_MOSI,SD_MOSI*%
%TO.N,Net-(LogicConverter1-PadLV3)*%
X106730000Y-73010000D03*
%TO.P,U2,SD_SCK,SD_SCK*%
%TO.N,Net-(LogicConverter1-PadLV4)*%
X106730000Y-78090000D03*
%TO.P,U2,T_CLK,T_CLK*%
%TO.N,unconnected-(U2-PadT_CLK)*%
X180390000Y-80630000D03*
%TO.P,U2,T_CS,T_CS*%
%TO.N,unconnected-(U2-PadT_CS)*%
X180390000Y-83170000D03*
%TO.P,U2,T_DIN,T_DIN*%
%TO.N,unconnected-(U2-PadT_DIN)*%
X180390000Y-85710000D03*
%TO.P,U2,T_DO,T_DO*%
%TO.N,unconnected-(U2-PadT_DO)*%
X180390000Y-88250000D03*
%TO.P,U2,T_IRQ,T_IRQ*%
%TO.N,unconnected-(U2-PadT_IRQ)*%
X180390000Y-90790000D03*
D11*
%TO.P,U2,Vcc,Vcc*%
%TO.N,Net-(1-Pad3V3)*%
X180390000Y-57770000D03*
%TD*%
D12*
%TO.P,R1,P$1,P$1*%
%TO.N,Net-(Q2-C)*%
X167310000Y-64085000D03*
%TO.P,R1,P$2,P$2*%
%TO.N,Net-(1-Pad3V3)*%
X159690000Y-64085000D03*
%TD*%
D13*
%TO.P,PNP,1,E*%
%TO.N,Net-(Q1-E)*%
X169230000Y-72500000D03*
D14*
%TO.P,PNP,2,B*%
%TO.N,Net-(Q1-B)*%
X170500000Y-72500000D03*
%TO.P,PNP,3,C*%
%TO.N,Net-(Q1-C)*%
X171770000Y-72500000D03*
%TD*%
D13*
%TO.P,NPN,1,E*%
%TO.N,Net-(Q5-E)*%
X142730000Y-90500000D03*
D14*
%TO.P,NPN,2,B*%
%TO.N,Net-(Q5-B)*%
X144000000Y-90500000D03*
%TO.P,NPN,3,C*%
%TO.N,Net-(Q5-C)*%
X145270000Y-90500000D03*
%TD*%
D15*
%TO.P,LS1,1,1*%
%TO.N,Net-(1-PadGND)*%
X123920000Y-97500000D03*
D16*
%TO.P,LS1,2,2*%
%TO.N,Net-(LS1-Pad2)*%
X129000000Y-97500000D03*
%TD*%
D12*
%TO.P,R7,P$1,P$1*%
%TO.N,Net-(Q5-E)*%
X141310000Y-95000000D03*
%TO.P,R7,P$2,P$2*%
%TO.N,Net-(LS1-Pad2)*%
X133690000Y-95000000D03*
%TD*%
%TO.P,R2,P$1,P$1*%
%TO.N,Net-(Q4-C)*%
X116690000Y-86500000D03*
%TO.P,R2,P$2,P$2*%
%TO.N,Net-(1-Pad3V3)*%
X124310000Y-86500000D03*
%TD*%
%TO.P,R5,P$1,P$1*%
%TO.N,Net-(Q3-B)*%
X110690000Y-93000000D03*
%TO.P,R5,P$2,P$2*%
%TO.N,Net-(1-PadGND)*%
X118310000Y-93000000D03*
%TD*%
%TO.P,R9,P$1,P$1*%
%TO.N,Net-(1-Pad3V3)*%
X152190000Y-89000000D03*
%TO.P,R9,P$2,P$2*%
%TO.N,Net-(R9-PadP$2)*%
X159810000Y-89000000D03*
%TD*%
%TO.P,LogicConverter1,GND1,GND1*%
%TO.N,Net-(1-PadGND)*%
X144770000Y-69920000D03*
%TO.P,LogicConverter1,GND2,GND2*%
X144770000Y-80080000D03*
%TO.P,LogicConverter1,HV,HV*%
%TO.N,Net-(Q5-C)*%
X142230000Y-69920000D03*
D17*
%TO.P,LogicConverter1,HV1,HV1*%
%TO.N,Net-(1-PadTFT_DC)*%
X137150000Y-69920000D03*
D12*
%TO.P,LogicConverter1,HV2,HV2*%
%TO.N,Net-(1-PadMISO)*%
X139690000Y-69920000D03*
%TO.P,LogicConverter1,HV3,HV3*%
%TO.N,Net-(1-PadMOSI)*%
X147310000Y-69920000D03*
%TO.P,LogicConverter1,HV4,HV4*%
%TO.N,Net-(1-PadSCK)*%
X149850000Y-69920000D03*
%TO.P,LogicConverter1,LV,LV*%
%TO.N,Net-(1-Pad3V3)*%
X142230000Y-80080000D03*
%TO.P,LogicConverter1,LV1,LV1*%
%TO.N,Net-(LogicConverter1-PadLV1)*%
X137150000Y-80080000D03*
%TO.P,LogicConverter1,LV2,LV2*%
%TO.N,Net-(LogicConverter1-PadLV2)*%
X139690000Y-80080000D03*
%TO.P,LogicConverter1,LV3,LV3*%
%TO.N,Net-(LogicConverter1-PadLV3)*%
X147310000Y-80080000D03*
%TO.P,LogicConverter1,LV4,LV4*%
%TO.N,Net-(LogicConverter1-PadLV4)*%
X149850000Y-80080000D03*
%TD*%
%TO.P,R6,P$1,P$1*%
%TO.N,Net-(Q1-B)*%
X170310000Y-78500000D03*
%TO.P,R6,P$2,P$2*%
%TO.N,Net-(1-PadGND)*%
X162690000Y-78500000D03*
%TD*%
D13*
%TO.P,NPN,1,E*%
%TO.N,Net-(Q1-C)*%
X171770000Y-64140000D03*
D14*
%TO.P,NPN,2,B*%
%TO.N,Net-(Q1-B)*%
X170500000Y-64140000D03*
%TO.P,NPN,3,C*%
%TO.N,Net-(Q2-C)*%
X169230000Y-64140000D03*
%TD*%
D12*
%TO.P,R4,P$1,P$1*%
%TO.N,Net-(Q1-E)*%
X167310000Y-72500000D03*
%TO.P,R4,P$2,P$2*%
%TO.N,Net-(1-PadGND)*%
X159690000Y-72500000D03*
%TD*%
%TO.P,R8,P$1,P$1*%
%TO.N,Net-(Q5-B)*%
X149190000Y-98000000D03*
%TO.P,R8,P$2,P$2*%
%TO.N,Net-(1-PadSPKR)*%
X156810000Y-98000000D03*
%TD*%
D17*
%TO.P,1,3V3,3V3*%
%TO.N,Net-(1-Pad3V3)*%
X149080000Y-57000000D03*
D12*
%TO.P,1,5V,5V*%
%TO.N,Net-(Q5-C)*%
X146540000Y-57000000D03*
%TO.P,1,GND,GND*%
%TO.N,Net-(1-PadGND)*%
X144000000Y-57000000D03*
%TO.P,1,MISO,MISO*%
%TO.N,Net-(1-PadMISO)*%
X138920000Y-54460000D03*
%TO.P,1,MOSI,MOSI*%
%TO.N,Net-(1-PadMOSI)*%
X138920000Y-57000000D03*
%TO.P,1,SCK,SCK*%
%TO.N,Net-(1-PadSCK)*%
X141460000Y-57000000D03*
%TO.P,1,SD_CS,SD_CS*%
%TO.N,Net-(Q3-B)*%
X141460000Y-54460000D03*
%TO.P,1,SPKR,SPKR*%
%TO.N,Net-(1-PadSPKR)*%
X149080000Y-54460000D03*
%TO.P,1,TFT_CS,TFT_CS*%
%TO.N,Net-(Q1-B)*%
X144000000Y-54460000D03*
%TO.P,1,TFT_DC,TFT_DC*%
%TO.N,Net-(1-PadTFT_DC)*%
X146540000Y-54460000D03*
%TD*%
D13*
%TO.P,NPN,1,E*%
%TO.N,Net-(Q3-C)*%
X108730000Y-86500000D03*
D14*
%TO.P,NPN,2,B*%
%TO.N,Net-(Q3-B)*%
X110000000Y-86500000D03*
%TO.P,NPN,3,C*%
%TO.N,Net-(Q4-C)*%
X111270000Y-86500000D03*
%TD*%
D10*
%TO.P,U3,Vin*%
%TO.N,Net-(R9-PadP$2)*%
X160840000Y-92460000D03*
%TO.P,U3,Vout1*%
%TO.N,Net-(U2-PadLED)*%
X171000000Y-89920000D03*
%TO.P,U3,Vout2*%
%TO.N,unconnected-(U3-PadVout2)*%
X171000000Y-95000000D03*
%TD*%
D12*
%TO.P,R3,P$1,P$1*%
%TO.N,Net-(Q3-E)*%
X117190000Y-78000000D03*
%TO.P,R3,P$2,P$2*%
%TO.N,Net-(1-PadGND)*%
X124810000Y-78000000D03*
%TD*%
D13*
%TO.P,PNP,1,E*%
%TO.N,Net-(Q3-E)*%
X113500000Y-78140000D03*
D14*
%TO.P,PNP,2,B*%
%TO.N,Net-(Q3-B)*%
X112230000Y-78140000D03*
%TO.P,PNP,3,C*%
%TO.N,Net-(Q3-C)*%
X110960000Y-78140000D03*
%TD*%
D18*
%TO.N,Net-(Q5-C)*%
X147000000Y-73000000D03*
%TO.N,Net-(LogicConverter1-PadLV3)*%
X143500000Y-77000000D03*
%TO.N,Net-(LogicConverter1-PadLV1)*%
X171500000Y-84500000D03*
%TO.N,Net-(LogicConverter1-PadLV4)*%
X149000000Y-86000000D03*
X124500000Y-81000000D03*
%TD*%
D19*
%TO.N,Net-(Q3-B)*%
X112230000Y-74770000D02*
X112230000Y-78140000D01*
X135000000Y-52000000D02*
X112230000Y-74770000D01*
X139000000Y-52000000D02*
X135000000Y-52000000D01*
X141460000Y-54460000D02*
X139000000Y-52000000D01*
D20*
%TO.N,Net-(Q5-C)*%
X142230000Y-72230000D02*
X142230000Y-69920000D01*
X143000000Y-73000000D02*
X142230000Y-72230000D01*
D19*
%TO.N,Net-(LogicConverter1-PadLV3)*%
X115500000Y-73000000D02*
X115490000Y-73010000D01*
%TO.N,Net-(Q3-B)*%
X112230000Y-78270000D02*
X112000000Y-78500000D01*
X112230000Y-78140000D02*
X112230000Y-78270000D01*
%TO.N,Net-(LogicConverter1-PadLV4)*%
X109640000Y-81000000D02*
X124500000Y-81000000D01*
X106730000Y-78090000D02*
X109640000Y-81000000D01*
%TO.N,Net-(LogicConverter1-PadLV2)*%
X105000000Y-94500000D02*
X105000000Y-77280000D01*
X110950000Y-100450000D02*
X105000000Y-94500000D01*
X150450000Y-100450000D02*
X110950000Y-100450000D01*
X150450000Y-100450000D02*
X150400000Y-100500000D01*
X105000000Y-77280000D02*
X106730000Y-75550000D01*
X151500000Y-99400000D02*
X150450000Y-100450000D01*
%TO.N,Net-(1-PadSCK)*%
X141460000Y-57000000D02*
X147960000Y-63500000D01*
X149850000Y-65350000D02*
X149850000Y-69920000D01*
X148000000Y-63500000D02*
X149850000Y-65350000D01*
X147960000Y-63500000D02*
X148000000Y-63500000D01*
D20*
%TO.N,Net-(Q5-C)*%
X147000000Y-73000000D02*
X143000000Y-73000000D01*
X145000000Y-88500000D02*
X145270000Y-88770000D01*
X145270000Y-88770000D02*
X145270000Y-90500000D01*
X122500000Y-85000000D02*
X122500000Y-88000000D01*
X122500000Y-88000000D02*
X123000000Y-88500000D01*
X123000000Y-88500000D02*
X145000000Y-88500000D01*
X134500000Y-73000000D02*
X122500000Y-85000000D01*
D19*
%TO.N,Net-(Q1-B)*%
X159360000Y-52500000D02*
X170500000Y-63640000D01*
X144000000Y-54460000D02*
X145960000Y-52500000D01*
X170500000Y-63640000D02*
X170500000Y-64140000D01*
X145960000Y-52500000D02*
X159360000Y-52500000D01*
%TO.N,Net-(1-PadMOSI)*%
X147310000Y-65310000D02*
X147310000Y-69920000D01*
X145500000Y-63500000D02*
X147310000Y-65310000D01*
X145420000Y-63500000D02*
X145500000Y-63500000D01*
X138920000Y-57000000D02*
X145420000Y-63500000D01*
%TO.N,Net-(1-PadMISO)*%
X139610000Y-70000000D02*
X139690000Y-69920000D01*
X139610000Y-70000000D02*
X139500000Y-70000000D01*
%TO.N,Net-(1-PadSPKR)*%
X156500000Y-61880000D02*
X156500000Y-98000000D01*
X149080000Y-54460000D02*
X156500000Y-61880000D01*
%TO.N,Net-(1-Pad3V3)*%
X142000000Y-77500000D02*
X142230000Y-77270000D01*
X149080000Y-57000000D02*
X149000000Y-57000000D01*
X152190000Y-89000000D02*
X150000000Y-89000000D01*
X143500000Y-82500000D02*
X143500000Y-81350000D01*
X124310000Y-86500000D02*
X133310000Y-77500000D01*
D21*
X149080000Y-62580000D02*
X154000000Y-67500000D01*
D19*
X143500000Y-81350000D02*
X142230000Y-80080000D01*
X149080000Y-57000000D02*
X149500000Y-57000000D01*
D21*
X154000000Y-67500000D02*
X154000000Y-72000000D01*
D19*
X150000000Y-89000000D02*
X143500000Y-82500000D01*
X149500000Y-57000000D02*
X149000000Y-57000000D01*
D21*
X142230000Y-77270000D02*
X142230000Y-80080000D01*
D19*
X133310000Y-77500000D02*
X142000000Y-77500000D01*
D21*
X151000000Y-75000000D02*
X144500000Y-75000000D01*
X149080000Y-57000000D02*
X149080000Y-62580000D01*
X144500000Y-75000000D02*
X142230000Y-77270000D01*
X154000000Y-72000000D02*
X151000000Y-75000000D01*
D19*
%TO.N,Net-(LogicConverter1-PadLV2)*%
X139690000Y-80080000D02*
X151500000Y-91890000D01*
X151500000Y-91890000D02*
X151500000Y-99400000D01*
%TO.N,Net-(LogicConverter1-PadLV3)*%
X147310000Y-80080000D02*
X144230000Y-77000000D01*
X144230000Y-77000000D02*
X143500000Y-77000000D01*
%TO.N,Net-(LogicConverter1-PadLV1)*%
X137070000Y-80000000D02*
X137000000Y-80000000D01*
X175500000Y-72000000D02*
X175800000Y-72000000D01*
X171500000Y-84500000D02*
X175500000Y-80500000D01*
X175800000Y-72000000D02*
X180000000Y-67800000D01*
X175500000Y-80500000D02*
X175500000Y-72000000D01*
X137150000Y-80080000D02*
X137070000Y-80000000D01*
%TO.N,Net-(LogicConverter1-PadLV4)*%
X149850000Y-83850000D02*
X149850000Y-80080000D01*
X149850000Y-83850000D02*
X149850000Y-85150000D01*
X149850000Y-85150000D02*
X149000000Y-86000000D01*
%TO.N,Net-(Q5-B)*%
X144000000Y-92810000D02*
X149190000Y-98000000D01*
X144000000Y-90500000D02*
X144000000Y-92810000D01*
D20*
%TO.N,Net-(Q5-E)*%
X142730000Y-93580000D02*
X141310000Y-95000000D01*
X142730000Y-90500000D02*
X142730000Y-93580000D01*
%TO.N,Net-(LS1-Pad2)*%
X133690000Y-95000000D02*
X131500000Y-95000000D01*
X131500000Y-95000000D02*
X129000000Y-97500000D01*
D19*
%TO.N,Net-(U2-PadLED)*%
X177500000Y-78480000D02*
X180430000Y-75550000D01*
X171000000Y-89920000D02*
X171000000Y-88000000D01*
X171000000Y-88000000D02*
X177500000Y-81500000D01*
X177500000Y-81500000D02*
X177500000Y-78480000D01*
D20*
%TO.N,Net-(Q5-C)*%
X143000000Y-73000000D02*
X134500000Y-73000000D01*
%TD*%
M02*
