%TF.GenerationSoftware,KiCad,Pcbnew,8.0.3*%
%TF.CreationDate,2024-06-28T12:40:16-06:00*%
%TF.ProjectId,Subsystem SPI Breakout v2,53756273-7973-4746-956d-205350492042,rev?*%
%TF.SameCoordinates,Original*%
%TF.FileFunction,Legend,Bot*%
%TF.FilePolarity,Positive*%
%FSLAX46Y46*%
G04 Gerber Fmt 4.6, Leading zero omitted, Abs format (unit mm)*
G04 Created by KiCad (PCBNEW 8.0.3) date 2024-06-28 12:40:16*
%MOMM*%
%LPD*%
G01*
G04 APERTURE LIST*
G04 Aperture macros list*
%AMRoundRect*
0 Rectangle with rounded corners*
0 $1 Rounding radius*
0 $2 $3 $4 $5 $6 $7 $8 $9 X,Y pos of 4 corners*
0 Add a 4 corners polygon primitive as box body*
4,1,4,$2,$3,$4,$5,$6,$7,$8,$9,$2,$3,0*
0 Add four circle primitives for the rounded corners*
1,1,$1+$1,$2,$3*
1,1,$1+$1,$4,$5*
1,1,$1+$1,$6,$7*
1,1,$1+$1,$8,$9*
0 Add four rect primitives between the rounded corners*
20,1,$1+$1,$2,$3,$4,$5,0*
20,1,$1+$1,$4,$5,$6,$7,0*
20,1,$1+$1,$6,$7,$8,$9,0*
20,1,$1+$1,$8,$9,$2,$3,0*%
G04 Aperture macros list end*
%ADD10C,0.100000*%
%ADD11C,0.200000*%
%ADD12C,2.794000*%
%ADD13C,1.524000*%
%ADD14R,1.524000X1.524000*%
%ADD15C,1.982000*%
%ADD16R,1.050000X1.500000*%
%ADD17O,1.050000X1.500000*%
%ADD18R,3.000000X3.000000*%
%ADD19C,3.000000*%
%ADD20RoundRect,0.102000X-0.889000X-0.889000X0.889000X-0.889000X0.889000X0.889000X-0.889000X0.889000X0*%
%ADD21RoundRect,0.102000X0.889000X0.889000X-0.889000X0.889000X-0.889000X-0.889000X0.889000X-0.889000X0*%
G04 APERTURE END LIST*
D10*
X171095544Y-92621459D02*
X171010877Y-92706125D01*
X171010877Y-92706125D02*
X170841544Y-92790792D01*
X170841544Y-92790792D02*
X170418211Y-92790792D01*
X170418211Y-92790792D02*
X170248877Y-92706125D01*
X170248877Y-92706125D02*
X170164211Y-92621459D01*
X170164211Y-92621459D02*
X170079544Y-92452125D01*
X170079544Y-92452125D02*
X170079544Y-92282792D01*
X170079544Y-92282792D02*
X170164211Y-92028792D01*
X170164211Y-92028792D02*
X171180211Y-91012792D01*
X171180211Y-91012792D02*
X170079544Y-91012792D01*
X169317544Y-91182125D02*
X169232878Y-91097459D01*
X169232878Y-91097459D02*
X169317544Y-91012792D01*
X169317544Y-91012792D02*
X169402211Y-91097459D01*
X169402211Y-91097459D02*
X169317544Y-91182125D01*
X169317544Y-91182125D02*
X169317544Y-91012792D01*
X167708877Y-92198125D02*
X167708877Y-91012792D01*
X168132211Y-92875459D02*
X168555544Y-91605459D01*
X168555544Y-91605459D02*
X167454877Y-91605459D01*
X166862211Y-92790792D02*
X166862211Y-92452125D01*
X166184878Y-92790792D02*
X166184878Y-92452125D01*
X164322210Y-92790792D02*
X163306210Y-92790792D01*
X163814210Y-91012792D02*
X163814210Y-92790792D01*
X162120877Y-91944125D02*
X162713543Y-91944125D01*
X162713543Y-91012792D02*
X162713543Y-92790792D01*
X162713543Y-92790792D02*
X161866877Y-92790792D01*
X161443543Y-92790792D02*
X160427543Y-92790792D01*
X160935543Y-91012792D02*
X160935543Y-92790792D01*
X158564876Y-91097459D02*
X158310876Y-91012792D01*
X158310876Y-91012792D02*
X157887543Y-91012792D01*
X157887543Y-91012792D02*
X157718209Y-91097459D01*
X157718209Y-91097459D02*
X157633543Y-91182125D01*
X157633543Y-91182125D02*
X157548876Y-91351459D01*
X157548876Y-91351459D02*
X157548876Y-91520792D01*
X157548876Y-91520792D02*
X157633543Y-91690125D01*
X157633543Y-91690125D02*
X157718209Y-91774792D01*
X157718209Y-91774792D02*
X157887543Y-91859459D01*
X157887543Y-91859459D02*
X158226209Y-91944125D01*
X158226209Y-91944125D02*
X158395543Y-92028792D01*
X158395543Y-92028792D02*
X158480209Y-92113459D01*
X158480209Y-92113459D02*
X158564876Y-92282792D01*
X158564876Y-92282792D02*
X158564876Y-92452125D01*
X158564876Y-92452125D02*
X158480209Y-92621459D01*
X158480209Y-92621459D02*
X158395543Y-92706125D01*
X158395543Y-92706125D02*
X158226209Y-92790792D01*
X158226209Y-92790792D02*
X157802876Y-92790792D01*
X157802876Y-92790792D02*
X157548876Y-92706125D01*
X156024876Y-91097459D02*
X156194210Y-91012792D01*
X156194210Y-91012792D02*
X156532876Y-91012792D01*
X156532876Y-91012792D02*
X156702210Y-91097459D01*
X156702210Y-91097459D02*
X156786876Y-91182125D01*
X156786876Y-91182125D02*
X156871543Y-91351459D01*
X156871543Y-91351459D02*
X156871543Y-91859459D01*
X156871543Y-91859459D02*
X156786876Y-92028792D01*
X156786876Y-92028792D02*
X156702210Y-92113459D01*
X156702210Y-92113459D02*
X156532876Y-92198125D01*
X156532876Y-92198125D02*
X156194210Y-92198125D01*
X156194210Y-92198125D02*
X156024876Y-92113459D01*
X155262876Y-91012792D02*
X155262876Y-92198125D01*
X155262876Y-91859459D02*
X155178210Y-92028792D01*
X155178210Y-92028792D02*
X155093543Y-92113459D01*
X155093543Y-92113459D02*
X154924210Y-92198125D01*
X154924210Y-92198125D02*
X154754876Y-92198125D01*
X153484876Y-91097459D02*
X153654209Y-91012792D01*
X153654209Y-91012792D02*
X153992876Y-91012792D01*
X153992876Y-91012792D02*
X154162209Y-91097459D01*
X154162209Y-91097459D02*
X154246876Y-91266792D01*
X154246876Y-91266792D02*
X154246876Y-91944125D01*
X154246876Y-91944125D02*
X154162209Y-92113459D01*
X154162209Y-92113459D02*
X153992876Y-92198125D01*
X153992876Y-92198125D02*
X153654209Y-92198125D01*
X153654209Y-92198125D02*
X153484876Y-92113459D01*
X153484876Y-92113459D02*
X153400209Y-91944125D01*
X153400209Y-91944125D02*
X153400209Y-91774792D01*
X153400209Y-91774792D02*
X154246876Y-91605459D01*
X151960876Y-91097459D02*
X152130209Y-91012792D01*
X152130209Y-91012792D02*
X152468876Y-91012792D01*
X152468876Y-91012792D02*
X152638209Y-91097459D01*
X152638209Y-91097459D02*
X152722876Y-91266792D01*
X152722876Y-91266792D02*
X152722876Y-91944125D01*
X152722876Y-91944125D02*
X152638209Y-92113459D01*
X152638209Y-92113459D02*
X152468876Y-92198125D01*
X152468876Y-92198125D02*
X152130209Y-92198125D01*
X152130209Y-92198125D02*
X151960876Y-92113459D01*
X151960876Y-92113459D02*
X151876209Y-91944125D01*
X151876209Y-91944125D02*
X151876209Y-91774792D01*
X151876209Y-91774792D02*
X152722876Y-91605459D01*
X151114209Y-92198125D02*
X151114209Y-91012792D01*
X151114209Y-92028792D02*
X151029543Y-92113459D01*
X151029543Y-92113459D02*
X150860209Y-92198125D01*
X150860209Y-92198125D02*
X150606209Y-92198125D01*
X150606209Y-92198125D02*
X150436876Y-92113459D01*
X150436876Y-92113459D02*
X150352209Y-91944125D01*
X150352209Y-91944125D02*
X150352209Y-91012792D01*
X148235542Y-92621459D02*
X148150875Y-92706125D01*
X148150875Y-92706125D02*
X147981542Y-92790792D01*
X147981542Y-92790792D02*
X147558209Y-92790792D01*
X147558209Y-92790792D02*
X147388875Y-92706125D01*
X147388875Y-92706125D02*
X147304209Y-92621459D01*
X147304209Y-92621459D02*
X147219542Y-92452125D01*
X147219542Y-92452125D02*
X147219542Y-92282792D01*
X147219542Y-92282792D02*
X147304209Y-92028792D01*
X147304209Y-92028792D02*
X148320209Y-91012792D01*
X148320209Y-91012792D02*
X147219542Y-91012792D01*
X145695542Y-92198125D02*
X145695542Y-91012792D01*
X146118876Y-92875459D02*
X146542209Y-91605459D01*
X146542209Y-91605459D02*
X145441542Y-91605459D01*
X144425543Y-92790792D02*
X144256209Y-92790792D01*
X144256209Y-92790792D02*
X144086876Y-92706125D01*
X144086876Y-92706125D02*
X144002209Y-92621459D01*
X144002209Y-92621459D02*
X143917543Y-92452125D01*
X143917543Y-92452125D02*
X143832876Y-92113459D01*
X143832876Y-92113459D02*
X143832876Y-91690125D01*
X143832876Y-91690125D02*
X143917543Y-91351459D01*
X143917543Y-91351459D02*
X144002209Y-91182125D01*
X144002209Y-91182125D02*
X144086876Y-91097459D01*
X144086876Y-91097459D02*
X144256209Y-91012792D01*
X144256209Y-91012792D02*
X144425543Y-91012792D01*
X144425543Y-91012792D02*
X144594876Y-91097459D01*
X144594876Y-91097459D02*
X144679543Y-91182125D01*
X144679543Y-91182125D02*
X144764209Y-91351459D01*
X144764209Y-91351459D02*
X144848876Y-91690125D01*
X144848876Y-91690125D02*
X144848876Y-92113459D01*
X144848876Y-92113459D02*
X144764209Y-92452125D01*
X144764209Y-92452125D02*
X144679543Y-92621459D01*
X144679543Y-92621459D02*
X144594876Y-92706125D01*
X144594876Y-92706125D02*
X144425543Y-92790792D01*
X143240210Y-91012792D02*
X142308876Y-92198125D01*
X143240210Y-92198125D02*
X142308876Y-91012792D01*
X141800877Y-92790792D02*
X140700210Y-92790792D01*
X140700210Y-92790792D02*
X141292877Y-92113459D01*
X141292877Y-92113459D02*
X141038877Y-92113459D01*
X141038877Y-92113459D02*
X140869543Y-92028792D01*
X140869543Y-92028792D02*
X140784877Y-91944125D01*
X140784877Y-91944125D02*
X140700210Y-91774792D01*
X140700210Y-91774792D02*
X140700210Y-91351459D01*
X140700210Y-91351459D02*
X140784877Y-91182125D01*
X140784877Y-91182125D02*
X140869543Y-91097459D01*
X140869543Y-91097459D02*
X141038877Y-91012792D01*
X141038877Y-91012792D02*
X141546877Y-91012792D01*
X141546877Y-91012792D02*
X141716210Y-91097459D01*
X141716210Y-91097459D02*
X141800877Y-91182125D01*
X140022877Y-92621459D02*
X139938210Y-92706125D01*
X139938210Y-92706125D02*
X139768877Y-92790792D01*
X139768877Y-92790792D02*
X139345544Y-92790792D01*
X139345544Y-92790792D02*
X139176210Y-92706125D01*
X139176210Y-92706125D02*
X139091544Y-92621459D01*
X139091544Y-92621459D02*
X139006877Y-92452125D01*
X139006877Y-92452125D02*
X139006877Y-92282792D01*
X139006877Y-92282792D02*
X139091544Y-92028792D01*
X139091544Y-92028792D02*
X140107544Y-91012792D01*
X140107544Y-91012792D02*
X139006877Y-91012792D01*
X137906211Y-92790792D02*
X137736877Y-92790792D01*
X137736877Y-92790792D02*
X137567544Y-92706125D01*
X137567544Y-92706125D02*
X137482877Y-92621459D01*
X137482877Y-92621459D02*
X137398211Y-92452125D01*
X137398211Y-92452125D02*
X137313544Y-92113459D01*
X137313544Y-92113459D02*
X137313544Y-91690125D01*
X137313544Y-91690125D02*
X137398211Y-91351459D01*
X137398211Y-91351459D02*
X137482877Y-91182125D01*
X137482877Y-91182125D02*
X137567544Y-91097459D01*
X137567544Y-91097459D02*
X137736877Y-91012792D01*
X137736877Y-91012792D02*
X137906211Y-91012792D01*
X137906211Y-91012792D02*
X138075544Y-91097459D01*
X138075544Y-91097459D02*
X138160211Y-91182125D01*
X138160211Y-91182125D02*
X138244877Y-91351459D01*
X138244877Y-91351459D02*
X138329544Y-91690125D01*
X138329544Y-91690125D02*
X138329544Y-92113459D01*
X138329544Y-92113459D02*
X138244877Y-92452125D01*
X138244877Y-92452125D02*
X138160211Y-92621459D01*
X138160211Y-92621459D02*
X138075544Y-92706125D01*
X138075544Y-92706125D02*
X137906211Y-92790792D01*
X135366211Y-92790792D02*
X134942877Y-91012792D01*
X134942877Y-91012792D02*
X134604211Y-92282792D01*
X134604211Y-92282792D02*
X134265544Y-91012792D01*
X134265544Y-91012792D02*
X133842211Y-92790792D01*
X133164877Y-91012792D02*
X133164877Y-92198125D01*
X133164877Y-92790792D02*
X133249544Y-92706125D01*
X133249544Y-92706125D02*
X133164877Y-92621459D01*
X133164877Y-92621459D02*
X133080211Y-92706125D01*
X133080211Y-92706125D02*
X133164877Y-92790792D01*
X133164877Y-92790792D02*
X133164877Y-92621459D01*
X132572210Y-92198125D02*
X131894877Y-92198125D01*
X132318210Y-92790792D02*
X132318210Y-91266792D01*
X132318210Y-91266792D02*
X132233544Y-91097459D01*
X132233544Y-91097459D02*
X132064210Y-91012792D01*
X132064210Y-91012792D02*
X131894877Y-91012792D01*
X131302210Y-91012792D02*
X131302210Y-92790792D01*
X130540210Y-91012792D02*
X130540210Y-91944125D01*
X130540210Y-91944125D02*
X130624877Y-92113459D01*
X130624877Y-92113459D02*
X130794210Y-92198125D01*
X130794210Y-92198125D02*
X131048210Y-92198125D01*
X131048210Y-92198125D02*
X131217544Y-92113459D01*
X131217544Y-92113459D02*
X131302210Y-92028792D01*
X128423543Y-91097459D02*
X128169543Y-91012792D01*
X128169543Y-91012792D02*
X127746210Y-91012792D01*
X127746210Y-91012792D02*
X127576876Y-91097459D01*
X127576876Y-91097459D02*
X127492210Y-91182125D01*
X127492210Y-91182125D02*
X127407543Y-91351459D01*
X127407543Y-91351459D02*
X127407543Y-91520792D01*
X127407543Y-91520792D02*
X127492210Y-91690125D01*
X127492210Y-91690125D02*
X127576876Y-91774792D01*
X127576876Y-91774792D02*
X127746210Y-91859459D01*
X127746210Y-91859459D02*
X128084876Y-91944125D01*
X128084876Y-91944125D02*
X128254210Y-92028792D01*
X128254210Y-92028792D02*
X128338876Y-92113459D01*
X128338876Y-92113459D02*
X128423543Y-92282792D01*
X128423543Y-92282792D02*
X128423543Y-92452125D01*
X128423543Y-92452125D02*
X128338876Y-92621459D01*
X128338876Y-92621459D02*
X128254210Y-92706125D01*
X128254210Y-92706125D02*
X128084876Y-92790792D01*
X128084876Y-92790792D02*
X127661543Y-92790792D01*
X127661543Y-92790792D02*
X127407543Y-92706125D01*
X126645543Y-91012792D02*
X126645543Y-92790792D01*
X126645543Y-92790792D02*
X126222210Y-92790792D01*
X126222210Y-92790792D02*
X125968210Y-92706125D01*
X125968210Y-92706125D02*
X125798877Y-92536792D01*
X125798877Y-92536792D02*
X125714210Y-92367459D01*
X125714210Y-92367459D02*
X125629543Y-92028792D01*
X125629543Y-92028792D02*
X125629543Y-91774792D01*
X125629543Y-91774792D02*
X125714210Y-91436125D01*
X125714210Y-91436125D02*
X125798877Y-91266792D01*
X125798877Y-91266792D02*
X125968210Y-91097459D01*
X125968210Y-91097459D02*
X126222210Y-91012792D01*
X126222210Y-91012792D02*
X126645543Y-91012792D01*
X122496876Y-91012792D02*
X123089543Y-91859459D01*
X123512876Y-91012792D02*
X123512876Y-92790792D01*
X123512876Y-92790792D02*
X122835543Y-92790792D01*
X122835543Y-92790792D02*
X122666210Y-92706125D01*
X122666210Y-92706125D02*
X122581543Y-92621459D01*
X122581543Y-92621459D02*
X122496876Y-92452125D01*
X122496876Y-92452125D02*
X122496876Y-92198125D01*
X122496876Y-92198125D02*
X122581543Y-92028792D01*
X122581543Y-92028792D02*
X122666210Y-91944125D01*
X122666210Y-91944125D02*
X122835543Y-91859459D01*
X122835543Y-91859459D02*
X123512876Y-91859459D01*
X121057543Y-91097459D02*
X121226876Y-91012792D01*
X121226876Y-91012792D02*
X121565543Y-91012792D01*
X121565543Y-91012792D02*
X121734876Y-91097459D01*
X121734876Y-91097459D02*
X121819543Y-91266792D01*
X121819543Y-91266792D02*
X121819543Y-91944125D01*
X121819543Y-91944125D02*
X121734876Y-92113459D01*
X121734876Y-92113459D02*
X121565543Y-92198125D01*
X121565543Y-92198125D02*
X121226876Y-92198125D01*
X121226876Y-92198125D02*
X121057543Y-92113459D01*
X121057543Y-92113459D02*
X120972876Y-91944125D01*
X120972876Y-91944125D02*
X120972876Y-91774792D01*
X120972876Y-91774792D02*
X121819543Y-91605459D01*
X119448876Y-91012792D02*
X119448876Y-91944125D01*
X119448876Y-91944125D02*
X119533543Y-92113459D01*
X119533543Y-92113459D02*
X119702876Y-92198125D01*
X119702876Y-92198125D02*
X120041543Y-92198125D01*
X120041543Y-92198125D02*
X120210876Y-92113459D01*
X119448876Y-91097459D02*
X119618210Y-91012792D01*
X119618210Y-91012792D02*
X120041543Y-91012792D01*
X120041543Y-91012792D02*
X120210876Y-91097459D01*
X120210876Y-91097459D02*
X120295543Y-91266792D01*
X120295543Y-91266792D02*
X120295543Y-91436125D01*
X120295543Y-91436125D02*
X120210876Y-91605459D01*
X120210876Y-91605459D02*
X120041543Y-91690125D01*
X120041543Y-91690125D02*
X119618210Y-91690125D01*
X119618210Y-91690125D02*
X119448876Y-91774792D01*
X117840209Y-91012792D02*
X117840209Y-92790792D01*
X117840209Y-91097459D02*
X118009543Y-91012792D01*
X118009543Y-91012792D02*
X118348209Y-91012792D01*
X118348209Y-91012792D02*
X118517543Y-91097459D01*
X118517543Y-91097459D02*
X118602209Y-91182125D01*
X118602209Y-91182125D02*
X118686876Y-91351459D01*
X118686876Y-91351459D02*
X118686876Y-91859459D01*
X118686876Y-91859459D02*
X118602209Y-92028792D01*
X118602209Y-92028792D02*
X118517543Y-92113459D01*
X118517543Y-92113459D02*
X118348209Y-92198125D01*
X118348209Y-92198125D02*
X118009543Y-92198125D01*
X118009543Y-92198125D02*
X117840209Y-92113459D01*
X116316209Y-91097459D02*
X116485542Y-91012792D01*
X116485542Y-91012792D02*
X116824209Y-91012792D01*
X116824209Y-91012792D02*
X116993542Y-91097459D01*
X116993542Y-91097459D02*
X117078209Y-91266792D01*
X117078209Y-91266792D02*
X117078209Y-91944125D01*
X117078209Y-91944125D02*
X116993542Y-92113459D01*
X116993542Y-92113459D02*
X116824209Y-92198125D01*
X116824209Y-92198125D02*
X116485542Y-92198125D01*
X116485542Y-92198125D02*
X116316209Y-92113459D01*
X116316209Y-92113459D02*
X116231542Y-91944125D01*
X116231542Y-91944125D02*
X116231542Y-91774792D01*
X116231542Y-91774792D02*
X117078209Y-91605459D01*
X115469542Y-91012792D02*
X115469542Y-92198125D01*
X115469542Y-91859459D02*
X115384876Y-92028792D01*
X115384876Y-92028792D02*
X115300209Y-92113459D01*
X115300209Y-92113459D02*
X115130876Y-92198125D01*
X115130876Y-92198125D02*
X114961542Y-92198125D01*
%TO.C,U2*%
X149910000Y-70470000D02*
X149910000Y-55230000D01*
X149910000Y-55230000D02*
X148640000Y-53960000D01*
X125780000Y-70470000D02*
X149910000Y-70470000D01*
X125780000Y-70470000D02*
X125780000Y-62850000D01*
X125780000Y-70470000D02*
X124510000Y-69200000D01*
X125780000Y-62850000D02*
X123240000Y-60310000D01*
X124510000Y-69200000D02*
X124510000Y-61580000D01*
X123240000Y-60310000D02*
X121970000Y-59040000D01*
X123240000Y-55230000D02*
X149910000Y-55230000D01*
X123240000Y-55230000D02*
X123240000Y-60310000D01*
X121970000Y-59040000D02*
X121970000Y-53960000D01*
X121970000Y-53960000D02*
X123240000Y-55230000D01*
D11*
X182930000Y-94600000D02*
X104190000Y-94600000D01*
X104190000Y-53960000D01*
X182930000Y-53960000D01*
X182930000Y-94600000D01*
X172770000Y-94600000D02*
X111810000Y-94600000D01*
X111810000Y-53960000D01*
X172770000Y-53960000D01*
X172770000Y-94600000D01*
%TD*%
%LPC*%
D12*
%TO.C,U2*%
X175310000Y-92060000D03*
X175310000Y-56500000D03*
X108000000Y-92060000D03*
X108000000Y-56500000D03*
D13*
X180390000Y-62850000D03*
X180390000Y-67930000D03*
X180390000Y-60310000D03*
X180390000Y-75550000D03*
X180390000Y-65390000D03*
X180390000Y-73010000D03*
X180390000Y-70470000D03*
X180390000Y-78090000D03*
D14*
X106730000Y-70470000D03*
D13*
X106730000Y-75550000D03*
X106730000Y-73010000D03*
X106730000Y-78090000D03*
X180390000Y-80630000D03*
X180390000Y-83170000D03*
X180390000Y-85710000D03*
X180390000Y-88250000D03*
X180390000Y-90790000D03*
D14*
X180390000Y-57770000D03*
%TD*%
D15*
%TO.C,R1*%
X167310000Y-64085000D03*
X159690000Y-64085000D03*
%TD*%
D16*
%TO.C,PNP*%
X169230000Y-72500000D03*
D17*
X170500000Y-72500000D03*
X171770000Y-72500000D03*
%TD*%
D16*
%TO.C,NPN*%
X142730000Y-90500000D03*
D17*
X144000000Y-90500000D03*
X145270000Y-90500000D03*
%TD*%
D18*
%TO.C,LS1*%
X123920000Y-97500000D03*
D19*
X129000000Y-97500000D03*
%TD*%
D15*
%TO.C,R7*%
X141310000Y-95000000D03*
X133690000Y-95000000D03*
%TD*%
%TO.C,R2*%
X116690000Y-86500000D03*
X124310000Y-86500000D03*
%TD*%
%TO.C,R5*%
X110690000Y-93000000D03*
X118310000Y-93000000D03*
%TD*%
%TO.C,R9*%
X152190000Y-89000000D03*
X159810000Y-89000000D03*
%TD*%
%TO.C,LogicConverter1*%
X144770000Y-69920000D03*
X144770000Y-80080000D03*
X142230000Y-69920000D03*
D20*
X137150000Y-69920000D03*
D15*
X139690000Y-69920000D03*
X147310000Y-69920000D03*
X149850000Y-69920000D03*
X142230000Y-80080000D03*
X137150000Y-80080000D03*
X139690000Y-80080000D03*
X147310000Y-80080000D03*
X149850000Y-80080000D03*
%TD*%
%TO.C,R6*%
X170310000Y-78500000D03*
X162690000Y-78500000D03*
%TD*%
D16*
%TO.C,NPN*%
X171770000Y-64140000D03*
D17*
X170500000Y-64140000D03*
X169230000Y-64140000D03*
%TD*%
D15*
%TO.C,R4*%
X167310000Y-72500000D03*
X159690000Y-72500000D03*
%TD*%
%TO.C,R8*%
X149190000Y-98000000D03*
X156810000Y-98000000D03*
%TD*%
D21*
%TO.C,1*%
X149080000Y-57000000D03*
D15*
X146540000Y-57000000D03*
X144000000Y-57000000D03*
X138920000Y-54460000D03*
X138920000Y-57000000D03*
X141460000Y-57000000D03*
X141460000Y-54460000D03*
X149080000Y-54460000D03*
X144000000Y-54460000D03*
X146540000Y-54460000D03*
%TD*%
D16*
%TO.C,NPN*%
X108730000Y-86500000D03*
D17*
X110000000Y-86500000D03*
X111270000Y-86500000D03*
%TD*%
D13*
%TO.C,U3*%
X160840000Y-92460000D03*
X171000000Y-89920000D03*
X171000000Y-95000000D03*
%TD*%
D15*
%TO.C,R3*%
X117190000Y-78000000D03*
X124810000Y-78000000D03*
%TD*%
D16*
%TO.C,PNP*%
X113500000Y-78140000D03*
D17*
X112230000Y-78140000D03*
X110960000Y-78140000D03*
%TD*%
%LPD*%
M02*
