%TF.GenerationSoftware,KiCad,Pcbnew,8.0.3*%
%TF.CreationDate,2024-06-28T12:40:16-06:00*%
%TF.ProjectId,Subsystem SPI Breakout v2,53756273-7973-4746-956d-205350492042,rev?*%
%TF.SameCoordinates,Original*%
%TF.FileFunction,Soldermask,Bot*%
%TF.FilePolarity,Negative*%
%FSLAX46Y46*%
G04 Gerber Fmt 4.6, Leading zero omitted, Abs format (unit mm)*
G04 Created by KiCad (PCBNEW 8.0.3) date 2024-06-28 12:40:16*
%MOMM*%
%LPD*%
G01*
G04 APERTURE LIST*
G04 Aperture macros list*
%AMRoundRect*
0 Rectangle with rounded corners*
0 $1 Rounding radius*
0 $2 $3 $4 $5 $6 $7 $8 $9 X,Y pos of 4 corners*
0 Add a 4 corners polygon primitive as box body*
4,1,4,$2,$3,$4,$5,$6,$7,$8,$9,$2,$3,0*
0 Add four circle primitives for the rounded corners*
1,1,$1+$1,$2,$3*
1,1,$1+$1,$4,$5*
1,1,$1+$1,$6,$7*
1,1,$1+$1,$8,$9*
0 Add four rect primitives between the rounded corners*
20,1,$1+$1,$2,$3,$4,$5,0*
20,1,$1+$1,$4,$5,$6,$7,0*
20,1,$1+$1,$6,$7,$8,$9,0*
20,1,$1+$1,$8,$9,$2,$3,0*%
G04 Aperture macros list end*
%ADD10C,2.794000*%
%ADD11C,1.524000*%
%ADD12R,1.524000X1.524000*%
%ADD13C,1.982000*%
%ADD14R,1.050000X1.500000*%
%ADD15O,1.050000X1.500000*%
%ADD16R,3.000000X3.000000*%
%ADD17C,3.000000*%
%ADD18RoundRect,0.102000X-0.889000X-0.889000X0.889000X-0.889000X0.889000X0.889000X-0.889000X0.889000X0*%
%ADD19RoundRect,0.102000X0.889000X0.889000X-0.889000X0.889000X-0.889000X-0.889000X0.889000X-0.889000X0*%
G04 APERTURE END LIST*
D10*
%TO.C,U2*%
X175310000Y-92060000D03*
X175310000Y-56500000D03*
X108000000Y-92060000D03*
X108000000Y-56500000D03*
D11*
X180390000Y-62850000D03*
X180390000Y-67930000D03*
X180390000Y-60310000D03*
X180390000Y-75550000D03*
X180390000Y-65390000D03*
X180390000Y-73010000D03*
X180390000Y-70470000D03*
X180390000Y-78090000D03*
D12*
X106730000Y-70470000D03*
D11*
X106730000Y-75550000D03*
X106730000Y-73010000D03*
X106730000Y-78090000D03*
X180390000Y-80630000D03*
X180390000Y-83170000D03*
X180390000Y-85710000D03*
X180390000Y-88250000D03*
X180390000Y-90790000D03*
D12*
X180390000Y-57770000D03*
%TD*%
D13*
%TO.C,R1*%
X167310000Y-64085000D03*
X159690000Y-64085000D03*
%TD*%
D14*
%TO.C,PNP*%
X169230000Y-72500000D03*
D15*
X170500000Y-72500000D03*
X171770000Y-72500000D03*
%TD*%
D14*
%TO.C,NPN*%
X142730000Y-90500000D03*
D15*
X144000000Y-90500000D03*
X145270000Y-90500000D03*
%TD*%
D16*
%TO.C,LS1*%
X123920000Y-97500000D03*
D17*
X129000000Y-97500000D03*
%TD*%
D13*
%TO.C,R7*%
X141310000Y-95000000D03*
X133690000Y-95000000D03*
%TD*%
%TO.C,R2*%
X116690000Y-86500000D03*
X124310000Y-86500000D03*
%TD*%
%TO.C,R5*%
X110690000Y-93000000D03*
X118310000Y-93000000D03*
%TD*%
%TO.C,R9*%
X152190000Y-89000000D03*
X159810000Y-89000000D03*
%TD*%
%TO.C,LogicConverter1*%
X144770000Y-69920000D03*
X144770000Y-80080000D03*
X142230000Y-69920000D03*
D18*
X137150000Y-69920000D03*
D13*
X139690000Y-69920000D03*
X147310000Y-69920000D03*
X149850000Y-69920000D03*
X142230000Y-80080000D03*
X137150000Y-80080000D03*
X139690000Y-80080000D03*
X147310000Y-80080000D03*
X149850000Y-80080000D03*
%TD*%
%TO.C,R6*%
X170310000Y-78500000D03*
X162690000Y-78500000D03*
%TD*%
D14*
%TO.C,NPN*%
X171770000Y-64140000D03*
D15*
X170500000Y-64140000D03*
X169230000Y-64140000D03*
%TD*%
D13*
%TO.C,R4*%
X167310000Y-72500000D03*
X159690000Y-72500000D03*
%TD*%
%TO.C,R8*%
X149190000Y-98000000D03*
X156810000Y-98000000D03*
%TD*%
D19*
%TO.C,1*%
X149080000Y-57000000D03*
D13*
X146540000Y-57000000D03*
X144000000Y-57000000D03*
X138920000Y-54460000D03*
X138920000Y-57000000D03*
X141460000Y-57000000D03*
X141460000Y-54460000D03*
X149080000Y-54460000D03*
X144000000Y-54460000D03*
X146540000Y-54460000D03*
%TD*%
D14*
%TO.C,NPN*%
X108730000Y-86500000D03*
D15*
X110000000Y-86500000D03*
X111270000Y-86500000D03*
%TD*%
D11*
%TO.C,U3*%
X160840000Y-92460000D03*
X171000000Y-89920000D03*
X171000000Y-95000000D03*
%TD*%
D13*
%TO.C,R3*%
X117190000Y-78000000D03*
X124810000Y-78000000D03*
%TD*%
D14*
%TO.C,PNP*%
X113500000Y-78140000D03*
D15*
X112230000Y-78140000D03*
X110960000Y-78140000D03*
%TD*%
M02*
