M48
; DRILL file {KiCad 8.0.3} date 2024-06-28T12:40:22-0600
; FORMAT={-:-/ absolute / metric / decimal}
; #@! TF.CreationDate,2024-06-28T12:40:22-06:00
; #@! TF.GenerationSoftware,Kicad,Pcbnew,8.0.3
; #@! TF.FileFunction,Plated,1,2,PTH
FMAT,2
METRIC
; #@! TA.AperFunction,Plated,PTH,ViaDrill
T1C0.300
; #@! TA.AperFunction,Plated,PTH,ViaDrill
T2C0.400
; #@! TA.AperFunction,Plated,PTH,ComponentDrill
T3C0.750
; #@! TA.AperFunction,Plated,PTH,ComponentDrill
T4C0.762
; #@! TA.AperFunction,Plated,PTH,ComponentDrill
T5C0.900
; #@! TA.AperFunction,Plated,PTH,ComponentDrill
T6C1.520
%
G90
G05
T1
X124.5Y-81.0
X143.5Y-77.0
X149.0Y-86.0
X171.5Y-84.5
T2
X147.0Y-73.0
T3
X108.73Y-86.5
X110.0Y-86.5
X110.96Y-78.14
X111.27Y-86.5
X112.23Y-78.14
X113.5Y-78.14
X142.73Y-90.5
X144.0Y-90.5
X145.27Y-90.5
X169.23Y-64.14
X169.23Y-72.5
X170.5Y-64.14
X170.5Y-72.5
X171.77Y-64.14
X171.77Y-72.5
T4
X106.73Y-70.47
X106.73Y-73.01
X106.73Y-75.55
X106.73Y-78.09
X160.84Y-92.46
X171.0Y-89.92
X171.0Y-95.0
X180.39Y-57.77
X180.39Y-60.31
X180.39Y-62.85
X180.39Y-65.39
X180.39Y-67.93
X180.39Y-70.47
X180.39Y-73.01
X180.39Y-75.55
X180.39Y-78.09
X180.39Y-80.63
X180.39Y-83.17
X180.39Y-85.71
X180.39Y-88.25
X180.39Y-90.79
T5
X110.69Y-93.0
X116.69Y-86.5
X117.19Y-78.0
X118.31Y-93.0
X124.31Y-86.5
X124.81Y-78.0
X133.69Y-95.0
X137.15Y-69.92
X137.15Y-80.08
X138.92Y-54.46
X138.92Y-57.0
X139.69Y-69.92
X139.69Y-80.08
X141.31Y-95.0
X141.46Y-54.46
X141.46Y-57.0
X142.23Y-69.92
X142.23Y-80.08
X144.0Y-54.46
X144.0Y-57.0
X144.77Y-69.92
X144.77Y-80.08
X146.54Y-54.46
X146.54Y-57.0
X147.31Y-69.92
X147.31Y-80.08
X149.08Y-54.46
X149.08Y-57.0
X149.19Y-98.0
X149.85Y-69.92
X149.85Y-80.08
X152.19Y-89.0
X156.81Y-98.0
X159.69Y-64.085
X159.69Y-72.5
X159.81Y-89.0
X162.69Y-78.5
X167.31Y-64.085
X167.31Y-72.5
X170.31Y-78.5
T6
X123.92Y-97.5
X129.0Y-97.5
M30
