%TF.GenerationSoftware,KiCad,Pcbnew,8.0.3*%
%TF.CreationDate,2024-06-28T12:40:16-06:00*%
%TF.ProjectId,Subsystem SPI Breakout v2,53756273-7973-4746-956d-205350492042,rev?*%
%TF.SameCoordinates,Original*%
%TF.FileFunction,Legend,Top*%
%TF.FilePolarity,Positive*%
%FSLAX46Y46*%
G04 Gerber Fmt 4.6, Leading zero omitted, Abs format (unit mm)*
G04 Created by KiCad (PCBNEW 8.0.3) date 2024-06-28 12:40:16*
%MOMM*%
%LPD*%
G01*
G04 APERTURE LIST*
G04 Aperture macros list*
%AMRoundRect*
0 Rectangle with rounded corners*
0 $1 Rounding radius*
0 $2 $3 $4 $5 $6 $7 $8 $9 X,Y pos of 4 corners*
0 Add a 4 corners polygon primitive as box body*
4,1,4,$2,$3,$4,$5,$6,$7,$8,$9,$2,$3,0*
0 Add four circle primitives for the rounded corners*
1,1,$1+$1,$2,$3*
1,1,$1+$1,$4,$5*
1,1,$1+$1,$6,$7*
1,1,$1+$1,$8,$9*
0 Add four rect primitives between the rounded corners*
20,1,$1+$1,$2,$3,$4,$5,0*
20,1,$1+$1,$4,$5,$6,$7,0*
20,1,$1+$1,$6,$7,$8,$9,0*
20,1,$1+$1,$8,$9,$2,$3,0*%
G04 Aperture macros list end*
%ADD10C,0.150000*%
%ADD11C,0.100000*%
%ADD12C,0.127000*%
%ADD13C,0.120000*%
%ADD14C,2.794000*%
%ADD15C,1.524000*%
%ADD16R,1.524000X1.524000*%
%ADD17C,1.982000*%
%ADD18R,1.050000X1.500000*%
%ADD19O,1.050000X1.500000*%
%ADD20R,3.000000X3.000000*%
%ADD21C,3.000000*%
%ADD22RoundRect,0.102000X-0.889000X-0.889000X0.889000X-0.889000X0.889000X0.889000X-0.889000X0.889000X0*%
%ADD23RoundRect,0.102000X0.889000X0.889000X-0.889000X0.889000X-0.889000X-0.889000X0.889000X-0.889000X0*%
G04 APERTURE END LIST*
D10*
X162281401Y-66441467D02*
X161831457Y-66441467D01*
X162056429Y-66441467D02*
X162056429Y-65654065D01*
X162056429Y-65654065D02*
X161981438Y-65766551D01*
X161981438Y-65766551D02*
X161906448Y-65841542D01*
X161906448Y-65841542D02*
X161831457Y-65879037D01*
X162768841Y-65654065D02*
X162843831Y-65654065D01*
X162843831Y-65654065D02*
X162918822Y-65691560D01*
X162918822Y-65691560D02*
X162956317Y-65729056D01*
X162956317Y-65729056D02*
X162993813Y-65804046D01*
X162993813Y-65804046D02*
X163031308Y-65954028D01*
X163031308Y-65954028D02*
X163031308Y-66141504D01*
X163031308Y-66141504D02*
X162993813Y-66291486D01*
X162993813Y-66291486D02*
X162956317Y-66366476D01*
X162956317Y-66366476D02*
X162918822Y-66403972D01*
X162918822Y-66403972D02*
X162843831Y-66441467D01*
X162843831Y-66441467D02*
X162768841Y-66441467D01*
X162768841Y-66441467D02*
X162693850Y-66403972D01*
X162693850Y-66403972D02*
X162656355Y-66366476D01*
X162656355Y-66366476D02*
X162618859Y-66291486D01*
X162618859Y-66291486D02*
X162581364Y-66141504D01*
X162581364Y-66141504D02*
X162581364Y-65954028D01*
X162581364Y-65954028D02*
X162618859Y-65804046D01*
X162618859Y-65804046D02*
X162656355Y-65729056D01*
X162656355Y-65729056D02*
X162693850Y-65691560D01*
X162693850Y-65691560D02*
X162768841Y-65654065D01*
X163368766Y-66441467D02*
X163368766Y-65654065D01*
X163443757Y-66141504D02*
X163668729Y-66441467D01*
X163668729Y-65916532D02*
X163368766Y-66216495D01*
X164568617Y-66441467D02*
X164756094Y-66441467D01*
X164756094Y-66441467D02*
X164756094Y-66291486D01*
X164756094Y-66291486D02*
X164681103Y-66253990D01*
X164681103Y-66253990D02*
X164606112Y-66179000D01*
X164606112Y-66179000D02*
X164568617Y-66066514D01*
X164568617Y-66066514D02*
X164568617Y-65879037D01*
X164568617Y-65879037D02*
X164606112Y-65766551D01*
X164606112Y-65766551D02*
X164681103Y-65691560D01*
X164681103Y-65691560D02*
X164793589Y-65654065D01*
X164793589Y-65654065D02*
X164943570Y-65654065D01*
X164943570Y-65654065D02*
X165056056Y-65691560D01*
X165056056Y-65691560D02*
X165131047Y-65766551D01*
X165131047Y-65766551D02*
X165168542Y-65879037D01*
X165168542Y-65879037D02*
X165168542Y-66066514D01*
X165168542Y-66066514D02*
X165131047Y-66179000D01*
X165131047Y-66179000D02*
X165056056Y-66253990D01*
X165056056Y-66253990D02*
X164981066Y-66291486D01*
X164981066Y-66291486D02*
X164981066Y-66441467D01*
X164981066Y-66441467D02*
X165168542Y-66441467D01*
X169214286Y-69394819D02*
X169214286Y-68394819D01*
X169214286Y-68394819D02*
X169595238Y-68394819D01*
X169595238Y-68394819D02*
X169690476Y-68442438D01*
X169690476Y-68442438D02*
X169738095Y-68490057D01*
X169738095Y-68490057D02*
X169785714Y-68585295D01*
X169785714Y-68585295D02*
X169785714Y-68728152D01*
X169785714Y-68728152D02*
X169738095Y-68823390D01*
X169738095Y-68823390D02*
X169690476Y-68871009D01*
X169690476Y-68871009D02*
X169595238Y-68918628D01*
X169595238Y-68918628D02*
X169214286Y-68918628D01*
X170214286Y-69394819D02*
X170214286Y-68394819D01*
X170214286Y-68394819D02*
X170785714Y-69394819D01*
X170785714Y-69394819D02*
X170785714Y-68394819D01*
X171261905Y-69394819D02*
X171261905Y-68394819D01*
X171261905Y-68394819D02*
X171642857Y-68394819D01*
X171642857Y-68394819D02*
X171738095Y-68442438D01*
X171738095Y-68442438D02*
X171785714Y-68490057D01*
X171785714Y-68490057D02*
X171833333Y-68585295D01*
X171833333Y-68585295D02*
X171833333Y-68728152D01*
X171833333Y-68728152D02*
X171785714Y-68823390D01*
X171785714Y-68823390D02*
X171738095Y-68871009D01*
X171738095Y-68871009D02*
X171642857Y-68918628D01*
X171642857Y-68918628D02*
X171261905Y-68918628D01*
X142690476Y-87394819D02*
X142690476Y-86394819D01*
X142690476Y-86394819D02*
X143261904Y-87394819D01*
X143261904Y-87394819D02*
X143261904Y-86394819D01*
X143738095Y-87394819D02*
X143738095Y-86394819D01*
X143738095Y-86394819D02*
X144119047Y-86394819D01*
X144119047Y-86394819D02*
X144214285Y-86442438D01*
X144214285Y-86442438D02*
X144261904Y-86490057D01*
X144261904Y-86490057D02*
X144309523Y-86585295D01*
X144309523Y-86585295D02*
X144309523Y-86728152D01*
X144309523Y-86728152D02*
X144261904Y-86823390D01*
X144261904Y-86823390D02*
X144214285Y-86871009D01*
X144214285Y-86871009D02*
X144119047Y-86918628D01*
X144119047Y-86918628D02*
X143738095Y-86918628D01*
X144738095Y-87394819D02*
X144738095Y-86394819D01*
X144738095Y-86394819D02*
X145309523Y-87394819D01*
X145309523Y-87394819D02*
X145309523Y-86394819D01*
X129357142Y-92954819D02*
X128880952Y-92954819D01*
X128880952Y-92954819D02*
X128880952Y-91954819D01*
X129642857Y-92907200D02*
X129785714Y-92954819D01*
X129785714Y-92954819D02*
X130023809Y-92954819D01*
X130023809Y-92954819D02*
X130119047Y-92907200D01*
X130119047Y-92907200D02*
X130166666Y-92859580D01*
X130166666Y-92859580D02*
X130214285Y-92764342D01*
X130214285Y-92764342D02*
X130214285Y-92669104D01*
X130214285Y-92669104D02*
X130166666Y-92573866D01*
X130166666Y-92573866D02*
X130119047Y-92526247D01*
X130119047Y-92526247D02*
X130023809Y-92478628D01*
X130023809Y-92478628D02*
X129833333Y-92431009D01*
X129833333Y-92431009D02*
X129738095Y-92383390D01*
X129738095Y-92383390D02*
X129690476Y-92335771D01*
X129690476Y-92335771D02*
X129642857Y-92240533D01*
X129642857Y-92240533D02*
X129642857Y-92145295D01*
X129642857Y-92145295D02*
X129690476Y-92050057D01*
X129690476Y-92050057D02*
X129738095Y-92002438D01*
X129738095Y-92002438D02*
X129833333Y-91954819D01*
X129833333Y-91954819D02*
X130071428Y-91954819D01*
X130071428Y-91954819D02*
X130214285Y-92002438D01*
X131166666Y-92954819D02*
X130595238Y-92954819D01*
X130880952Y-92954819D02*
X130880952Y-91954819D01*
X130880952Y-91954819D02*
X130785714Y-92097676D01*
X130785714Y-92097676D02*
X130690476Y-92192914D01*
X130690476Y-92192914D02*
X130595238Y-92240533D01*
X121738095Y-92907200D02*
X121880952Y-92954819D01*
X121880952Y-92954819D02*
X122119047Y-92954819D01*
X122119047Y-92954819D02*
X122214285Y-92907200D01*
X122214285Y-92907200D02*
X122261904Y-92859580D01*
X122261904Y-92859580D02*
X122309523Y-92764342D01*
X122309523Y-92764342D02*
X122309523Y-92669104D01*
X122309523Y-92669104D02*
X122261904Y-92573866D01*
X122261904Y-92573866D02*
X122214285Y-92526247D01*
X122214285Y-92526247D02*
X122119047Y-92478628D01*
X122119047Y-92478628D02*
X121928571Y-92431009D01*
X121928571Y-92431009D02*
X121833333Y-92383390D01*
X121833333Y-92383390D02*
X121785714Y-92335771D01*
X121785714Y-92335771D02*
X121738095Y-92240533D01*
X121738095Y-92240533D02*
X121738095Y-92145295D01*
X121738095Y-92145295D02*
X121785714Y-92050057D01*
X121785714Y-92050057D02*
X121833333Y-92002438D01*
X121833333Y-92002438D02*
X121928571Y-91954819D01*
X121928571Y-91954819D02*
X122166666Y-91954819D01*
X122166666Y-91954819D02*
X122309523Y-92002438D01*
X122738095Y-92288152D02*
X122738095Y-93288152D01*
X122738095Y-92335771D02*
X122833333Y-92288152D01*
X122833333Y-92288152D02*
X123023809Y-92288152D01*
X123023809Y-92288152D02*
X123119047Y-92335771D01*
X123119047Y-92335771D02*
X123166666Y-92383390D01*
X123166666Y-92383390D02*
X123214285Y-92478628D01*
X123214285Y-92478628D02*
X123214285Y-92764342D01*
X123214285Y-92764342D02*
X123166666Y-92859580D01*
X123166666Y-92859580D02*
X123119047Y-92907200D01*
X123119047Y-92907200D02*
X123023809Y-92954819D01*
X123023809Y-92954819D02*
X122833333Y-92954819D01*
X122833333Y-92954819D02*
X122738095Y-92907200D01*
X124023809Y-92907200D02*
X123928571Y-92954819D01*
X123928571Y-92954819D02*
X123738095Y-92954819D01*
X123738095Y-92954819D02*
X123642857Y-92907200D01*
X123642857Y-92907200D02*
X123595238Y-92811961D01*
X123595238Y-92811961D02*
X123595238Y-92431009D01*
X123595238Y-92431009D02*
X123642857Y-92335771D01*
X123642857Y-92335771D02*
X123738095Y-92288152D01*
X123738095Y-92288152D02*
X123928571Y-92288152D01*
X123928571Y-92288152D02*
X124023809Y-92335771D01*
X124023809Y-92335771D02*
X124071428Y-92431009D01*
X124071428Y-92431009D02*
X124071428Y-92526247D01*
X124071428Y-92526247D02*
X123595238Y-92621485D01*
X124928571Y-92954819D02*
X124928571Y-92431009D01*
X124928571Y-92431009D02*
X124880952Y-92335771D01*
X124880952Y-92335771D02*
X124785714Y-92288152D01*
X124785714Y-92288152D02*
X124595238Y-92288152D01*
X124595238Y-92288152D02*
X124500000Y-92335771D01*
X124928571Y-92907200D02*
X124833333Y-92954819D01*
X124833333Y-92954819D02*
X124595238Y-92954819D01*
X124595238Y-92954819D02*
X124500000Y-92907200D01*
X124500000Y-92907200D02*
X124452381Y-92811961D01*
X124452381Y-92811961D02*
X124452381Y-92716723D01*
X124452381Y-92716723D02*
X124500000Y-92621485D01*
X124500000Y-92621485D02*
X124595238Y-92573866D01*
X124595238Y-92573866D02*
X124833333Y-92573866D01*
X124833333Y-92573866D02*
X124928571Y-92526247D01*
X125404762Y-92954819D02*
X125404762Y-91954819D01*
X125500000Y-92573866D02*
X125785714Y-92954819D01*
X125785714Y-92288152D02*
X125404762Y-92669104D01*
X126595238Y-92907200D02*
X126500000Y-92954819D01*
X126500000Y-92954819D02*
X126309524Y-92954819D01*
X126309524Y-92954819D02*
X126214286Y-92907200D01*
X126214286Y-92907200D02*
X126166667Y-92811961D01*
X126166667Y-92811961D02*
X126166667Y-92431009D01*
X126166667Y-92431009D02*
X126214286Y-92335771D01*
X126214286Y-92335771D02*
X126309524Y-92288152D01*
X126309524Y-92288152D02*
X126500000Y-92288152D01*
X126500000Y-92288152D02*
X126595238Y-92335771D01*
X126595238Y-92335771D02*
X126642857Y-92431009D01*
X126642857Y-92431009D02*
X126642857Y-92526247D01*
X126642857Y-92526247D02*
X126166667Y-92621485D01*
X127071429Y-92954819D02*
X127071429Y-92288152D01*
X127071429Y-92478628D02*
X127119048Y-92383390D01*
X127119048Y-92383390D02*
X127166667Y-92335771D01*
X127166667Y-92335771D02*
X127261905Y-92288152D01*
X127261905Y-92288152D02*
X127357143Y-92288152D01*
X136600112Y-97356467D02*
X136150168Y-97356467D01*
X136375140Y-97356467D02*
X136375140Y-96569065D01*
X136375140Y-96569065D02*
X136300149Y-96681551D01*
X136300149Y-96681551D02*
X136225159Y-96756542D01*
X136225159Y-96756542D02*
X136150168Y-96794037D01*
X137087552Y-96569065D02*
X137162542Y-96569065D01*
X137162542Y-96569065D02*
X137237533Y-96606560D01*
X137237533Y-96606560D02*
X137275028Y-96644056D01*
X137275028Y-96644056D02*
X137312524Y-96719046D01*
X137312524Y-96719046D02*
X137350019Y-96869028D01*
X137350019Y-96869028D02*
X137350019Y-97056504D01*
X137350019Y-97056504D02*
X137312524Y-97206486D01*
X137312524Y-97206486D02*
X137275028Y-97281476D01*
X137275028Y-97281476D02*
X137237533Y-97318972D01*
X137237533Y-97318972D02*
X137162542Y-97356467D01*
X137162542Y-97356467D02*
X137087552Y-97356467D01*
X137087552Y-97356467D02*
X137012561Y-97318972D01*
X137012561Y-97318972D02*
X136975066Y-97281476D01*
X136975066Y-97281476D02*
X136937570Y-97206486D01*
X136937570Y-97206486D02*
X136900075Y-97056504D01*
X136900075Y-97056504D02*
X136900075Y-96869028D01*
X136900075Y-96869028D02*
X136937570Y-96719046D01*
X136937570Y-96719046D02*
X136975066Y-96644056D01*
X136975066Y-96644056D02*
X137012561Y-96606560D01*
X137012561Y-96606560D02*
X137087552Y-96569065D01*
X138249907Y-97356467D02*
X138437384Y-97356467D01*
X138437384Y-97356467D02*
X138437384Y-97206486D01*
X138437384Y-97206486D02*
X138362393Y-97168990D01*
X138362393Y-97168990D02*
X138287402Y-97094000D01*
X138287402Y-97094000D02*
X138249907Y-96981514D01*
X138249907Y-96981514D02*
X138249907Y-96794037D01*
X138249907Y-96794037D02*
X138287402Y-96681551D01*
X138287402Y-96681551D02*
X138362393Y-96606560D01*
X138362393Y-96606560D02*
X138474879Y-96569065D01*
X138474879Y-96569065D02*
X138624860Y-96569065D01*
X138624860Y-96569065D02*
X138737346Y-96606560D01*
X138737346Y-96606560D02*
X138812337Y-96681551D01*
X138812337Y-96681551D02*
X138849832Y-96794037D01*
X138849832Y-96794037D02*
X138849832Y-96981514D01*
X138849832Y-96981514D02*
X138812337Y-97094000D01*
X138812337Y-97094000D02*
X138737346Y-97168990D01*
X138737346Y-97168990D02*
X138662356Y-97206486D01*
X138662356Y-97206486D02*
X138662356Y-97356467D01*
X138662356Y-97356467D02*
X138849832Y-97356467D01*
X119281401Y-84856467D02*
X118831457Y-84856467D01*
X119056429Y-84856467D02*
X119056429Y-84069065D01*
X119056429Y-84069065D02*
X118981438Y-84181551D01*
X118981438Y-84181551D02*
X118906448Y-84256542D01*
X118906448Y-84256542D02*
X118831457Y-84294037D01*
X119768841Y-84069065D02*
X119843831Y-84069065D01*
X119843831Y-84069065D02*
X119918822Y-84106560D01*
X119918822Y-84106560D02*
X119956317Y-84144056D01*
X119956317Y-84144056D02*
X119993813Y-84219046D01*
X119993813Y-84219046D02*
X120031308Y-84369028D01*
X120031308Y-84369028D02*
X120031308Y-84556504D01*
X120031308Y-84556504D02*
X119993813Y-84706486D01*
X119993813Y-84706486D02*
X119956317Y-84781476D01*
X119956317Y-84781476D02*
X119918822Y-84818972D01*
X119918822Y-84818972D02*
X119843831Y-84856467D01*
X119843831Y-84856467D02*
X119768841Y-84856467D01*
X119768841Y-84856467D02*
X119693850Y-84818972D01*
X119693850Y-84818972D02*
X119656355Y-84781476D01*
X119656355Y-84781476D02*
X119618859Y-84706486D01*
X119618859Y-84706486D02*
X119581364Y-84556504D01*
X119581364Y-84556504D02*
X119581364Y-84369028D01*
X119581364Y-84369028D02*
X119618859Y-84219046D01*
X119618859Y-84219046D02*
X119656355Y-84144056D01*
X119656355Y-84144056D02*
X119693850Y-84106560D01*
X119693850Y-84106560D02*
X119768841Y-84069065D01*
X120368766Y-84856467D02*
X120368766Y-84069065D01*
X120443757Y-84556504D02*
X120668729Y-84856467D01*
X120668729Y-84331532D02*
X120368766Y-84631495D01*
X121568617Y-84856467D02*
X121756094Y-84856467D01*
X121756094Y-84856467D02*
X121756094Y-84706486D01*
X121756094Y-84706486D02*
X121681103Y-84668990D01*
X121681103Y-84668990D02*
X121606112Y-84594000D01*
X121606112Y-84594000D02*
X121568617Y-84481514D01*
X121568617Y-84481514D02*
X121568617Y-84294037D01*
X121568617Y-84294037D02*
X121606112Y-84181551D01*
X121606112Y-84181551D02*
X121681103Y-84106560D01*
X121681103Y-84106560D02*
X121793589Y-84069065D01*
X121793589Y-84069065D02*
X121943570Y-84069065D01*
X121943570Y-84069065D02*
X122056056Y-84106560D01*
X122056056Y-84106560D02*
X122131047Y-84181551D01*
X122131047Y-84181551D02*
X122168542Y-84294037D01*
X122168542Y-84294037D02*
X122168542Y-84481514D01*
X122168542Y-84481514D02*
X122131047Y-84594000D01*
X122131047Y-84594000D02*
X122056056Y-84668990D01*
X122056056Y-84668990D02*
X121981066Y-84706486D01*
X121981066Y-84706486D02*
X121981066Y-84856467D01*
X121981066Y-84856467D02*
X122168542Y-84856467D01*
X113281401Y-91356467D02*
X112831457Y-91356467D01*
X113056429Y-91356467D02*
X113056429Y-90569065D01*
X113056429Y-90569065D02*
X112981438Y-90681551D01*
X112981438Y-90681551D02*
X112906448Y-90756542D01*
X112906448Y-90756542D02*
X112831457Y-90794037D01*
X113768841Y-90569065D02*
X113843831Y-90569065D01*
X113843831Y-90569065D02*
X113918822Y-90606560D01*
X113918822Y-90606560D02*
X113956317Y-90644056D01*
X113956317Y-90644056D02*
X113993813Y-90719046D01*
X113993813Y-90719046D02*
X114031308Y-90869028D01*
X114031308Y-90869028D02*
X114031308Y-91056504D01*
X114031308Y-91056504D02*
X113993813Y-91206486D01*
X113993813Y-91206486D02*
X113956317Y-91281476D01*
X113956317Y-91281476D02*
X113918822Y-91318972D01*
X113918822Y-91318972D02*
X113843831Y-91356467D01*
X113843831Y-91356467D02*
X113768841Y-91356467D01*
X113768841Y-91356467D02*
X113693850Y-91318972D01*
X113693850Y-91318972D02*
X113656355Y-91281476D01*
X113656355Y-91281476D02*
X113618859Y-91206486D01*
X113618859Y-91206486D02*
X113581364Y-91056504D01*
X113581364Y-91056504D02*
X113581364Y-90869028D01*
X113581364Y-90869028D02*
X113618859Y-90719046D01*
X113618859Y-90719046D02*
X113656355Y-90644056D01*
X113656355Y-90644056D02*
X113693850Y-90606560D01*
X113693850Y-90606560D02*
X113768841Y-90569065D01*
X114368766Y-91356467D02*
X114368766Y-90569065D01*
X114443757Y-91056504D02*
X114668729Y-91356467D01*
X114668729Y-90831532D02*
X114368766Y-91131495D01*
X115568617Y-91356467D02*
X115756094Y-91356467D01*
X115756094Y-91356467D02*
X115756094Y-91206486D01*
X115756094Y-91206486D02*
X115681103Y-91168990D01*
X115681103Y-91168990D02*
X115606112Y-91094000D01*
X115606112Y-91094000D02*
X115568617Y-90981514D01*
X115568617Y-90981514D02*
X115568617Y-90794037D01*
X115568617Y-90794037D02*
X115606112Y-90681551D01*
X115606112Y-90681551D02*
X115681103Y-90606560D01*
X115681103Y-90606560D02*
X115793589Y-90569065D01*
X115793589Y-90569065D02*
X115943570Y-90569065D01*
X115943570Y-90569065D02*
X116056056Y-90606560D01*
X116056056Y-90606560D02*
X116131047Y-90681551D01*
X116131047Y-90681551D02*
X116168542Y-90794037D01*
X116168542Y-90794037D02*
X116168542Y-90981514D01*
X116168542Y-90981514D02*
X116131047Y-91094000D01*
X116131047Y-91094000D02*
X116056056Y-91168990D01*
X116056056Y-91168990D02*
X115981066Y-91206486D01*
X115981066Y-91206486D02*
X115981066Y-91356467D01*
X115981066Y-91356467D02*
X116168542Y-91356467D01*
X154725158Y-87356467D02*
X154275214Y-87356467D01*
X154500186Y-87356467D02*
X154500186Y-86569065D01*
X154500186Y-86569065D02*
X154425195Y-86681551D01*
X154425195Y-86681551D02*
X154350205Y-86756542D01*
X154350205Y-86756542D02*
X154275214Y-86794037D01*
X155212598Y-86569065D02*
X155287588Y-86569065D01*
X155287588Y-86569065D02*
X155362579Y-86606560D01*
X155362579Y-86606560D02*
X155400074Y-86644056D01*
X155400074Y-86644056D02*
X155437570Y-86719046D01*
X155437570Y-86719046D02*
X155475065Y-86869028D01*
X155475065Y-86869028D02*
X155475065Y-87056504D01*
X155475065Y-87056504D02*
X155437570Y-87206486D01*
X155437570Y-87206486D02*
X155400074Y-87281476D01*
X155400074Y-87281476D02*
X155362579Y-87318972D01*
X155362579Y-87318972D02*
X155287588Y-87356467D01*
X155287588Y-87356467D02*
X155212598Y-87356467D01*
X155212598Y-87356467D02*
X155137607Y-87318972D01*
X155137607Y-87318972D02*
X155100112Y-87281476D01*
X155100112Y-87281476D02*
X155062616Y-87206486D01*
X155062616Y-87206486D02*
X155025121Y-87056504D01*
X155025121Y-87056504D02*
X155025121Y-86869028D01*
X155025121Y-86869028D02*
X155062616Y-86719046D01*
X155062616Y-86719046D02*
X155100112Y-86644056D01*
X155100112Y-86644056D02*
X155137607Y-86606560D01*
X155137607Y-86606560D02*
X155212598Y-86569065D01*
X155962505Y-86569065D02*
X156037495Y-86569065D01*
X156037495Y-86569065D02*
X156112486Y-86606560D01*
X156112486Y-86606560D02*
X156149981Y-86644056D01*
X156149981Y-86644056D02*
X156187477Y-86719046D01*
X156187477Y-86719046D02*
X156224972Y-86869028D01*
X156224972Y-86869028D02*
X156224972Y-87056504D01*
X156224972Y-87056504D02*
X156187477Y-87206486D01*
X156187477Y-87206486D02*
X156149981Y-87281476D01*
X156149981Y-87281476D02*
X156112486Y-87318972D01*
X156112486Y-87318972D02*
X156037495Y-87356467D01*
X156037495Y-87356467D02*
X155962505Y-87356467D01*
X155962505Y-87356467D02*
X155887514Y-87318972D01*
X155887514Y-87318972D02*
X155850019Y-87281476D01*
X155850019Y-87281476D02*
X155812523Y-87206486D01*
X155812523Y-87206486D02*
X155775028Y-87056504D01*
X155775028Y-87056504D02*
X155775028Y-86869028D01*
X155775028Y-86869028D02*
X155812523Y-86719046D01*
X155812523Y-86719046D02*
X155850019Y-86644056D01*
X155850019Y-86644056D02*
X155887514Y-86606560D01*
X155887514Y-86606560D02*
X155962505Y-86569065D01*
X157124860Y-87356467D02*
X157312337Y-87356467D01*
X157312337Y-87356467D02*
X157312337Y-87206486D01*
X157312337Y-87206486D02*
X157237346Y-87168990D01*
X157237346Y-87168990D02*
X157162355Y-87094000D01*
X157162355Y-87094000D02*
X157124860Y-86981514D01*
X157124860Y-86981514D02*
X157124860Y-86794037D01*
X157124860Y-86794037D02*
X157162355Y-86681551D01*
X157162355Y-86681551D02*
X157237346Y-86606560D01*
X157237346Y-86606560D02*
X157349832Y-86569065D01*
X157349832Y-86569065D02*
X157499813Y-86569065D01*
X157499813Y-86569065D02*
X157612299Y-86606560D01*
X157612299Y-86606560D02*
X157687290Y-86681551D01*
X157687290Y-86681551D02*
X157724785Y-86794037D01*
X157724785Y-86794037D02*
X157724785Y-86981514D01*
X157724785Y-86981514D02*
X157687290Y-87094000D01*
X157687290Y-87094000D02*
X157612299Y-87168990D01*
X157612299Y-87168990D02*
X157537309Y-87206486D01*
X157537309Y-87206486D02*
X157537309Y-87356467D01*
X157537309Y-87356467D02*
X157724785Y-87356467D01*
X138666666Y-71931009D02*
X138809523Y-71978628D01*
X138809523Y-71978628D02*
X138857142Y-72026247D01*
X138857142Y-72026247D02*
X138904761Y-72121485D01*
X138904761Y-72121485D02*
X138904761Y-72264342D01*
X138904761Y-72264342D02*
X138857142Y-72359580D01*
X138857142Y-72359580D02*
X138809523Y-72407200D01*
X138809523Y-72407200D02*
X138714285Y-72454819D01*
X138714285Y-72454819D02*
X138333333Y-72454819D01*
X138333333Y-72454819D02*
X138333333Y-71454819D01*
X138333333Y-71454819D02*
X138666666Y-71454819D01*
X138666666Y-71454819D02*
X138761904Y-71502438D01*
X138761904Y-71502438D02*
X138809523Y-71550057D01*
X138809523Y-71550057D02*
X138857142Y-71645295D01*
X138857142Y-71645295D02*
X138857142Y-71740533D01*
X138857142Y-71740533D02*
X138809523Y-71835771D01*
X138809523Y-71835771D02*
X138761904Y-71883390D01*
X138761904Y-71883390D02*
X138666666Y-71931009D01*
X138666666Y-71931009D02*
X138333333Y-71931009D01*
X139333333Y-72454819D02*
X139333333Y-71788152D01*
X139333333Y-71454819D02*
X139285714Y-71502438D01*
X139285714Y-71502438D02*
X139333333Y-71550057D01*
X139333333Y-71550057D02*
X139380952Y-71502438D01*
X139380952Y-71502438D02*
X139333333Y-71454819D01*
X139333333Y-71454819D02*
X139333333Y-71550057D01*
X139809523Y-72073866D02*
X140571428Y-72073866D01*
X141047618Y-72454819D02*
X141047618Y-71454819D01*
X141047618Y-71454819D02*
X141285713Y-71454819D01*
X141285713Y-71454819D02*
X141428570Y-71502438D01*
X141428570Y-71502438D02*
X141523808Y-71597676D01*
X141523808Y-71597676D02*
X141571427Y-71692914D01*
X141571427Y-71692914D02*
X141619046Y-71883390D01*
X141619046Y-71883390D02*
X141619046Y-72026247D01*
X141619046Y-72026247D02*
X141571427Y-72216723D01*
X141571427Y-72216723D02*
X141523808Y-72311961D01*
X141523808Y-72311961D02*
X141428570Y-72407200D01*
X141428570Y-72407200D02*
X141285713Y-72454819D01*
X141285713Y-72454819D02*
X141047618Y-72454819D01*
X142047618Y-72454819D02*
X142047618Y-71788152D01*
X142047618Y-71454819D02*
X141999999Y-71502438D01*
X141999999Y-71502438D02*
X142047618Y-71550057D01*
X142047618Y-71550057D02*
X142095237Y-71502438D01*
X142095237Y-71502438D02*
X142047618Y-71454819D01*
X142047618Y-71454819D02*
X142047618Y-71550057D01*
X142523808Y-72454819D02*
X142523808Y-71788152D01*
X142523808Y-71978628D02*
X142571427Y-71883390D01*
X142571427Y-71883390D02*
X142619046Y-71835771D01*
X142619046Y-71835771D02*
X142714284Y-71788152D01*
X142714284Y-71788152D02*
X142809522Y-71788152D01*
X143523808Y-72407200D02*
X143428570Y-72454819D01*
X143428570Y-72454819D02*
X143238094Y-72454819D01*
X143238094Y-72454819D02*
X143142856Y-72407200D01*
X143142856Y-72407200D02*
X143095237Y-72311961D01*
X143095237Y-72311961D02*
X143095237Y-71931009D01*
X143095237Y-71931009D02*
X143142856Y-71835771D01*
X143142856Y-71835771D02*
X143238094Y-71788152D01*
X143238094Y-71788152D02*
X143428570Y-71788152D01*
X143428570Y-71788152D02*
X143523808Y-71835771D01*
X143523808Y-71835771D02*
X143571427Y-71931009D01*
X143571427Y-71931009D02*
X143571427Y-72026247D01*
X143571427Y-72026247D02*
X143095237Y-72121485D01*
X144428570Y-72407200D02*
X144333332Y-72454819D01*
X144333332Y-72454819D02*
X144142856Y-72454819D01*
X144142856Y-72454819D02*
X144047618Y-72407200D01*
X144047618Y-72407200D02*
X143999999Y-72359580D01*
X143999999Y-72359580D02*
X143952380Y-72264342D01*
X143952380Y-72264342D02*
X143952380Y-71978628D01*
X143952380Y-71978628D02*
X143999999Y-71883390D01*
X143999999Y-71883390D02*
X144047618Y-71835771D01*
X144047618Y-71835771D02*
X144142856Y-71788152D01*
X144142856Y-71788152D02*
X144333332Y-71788152D01*
X144333332Y-71788152D02*
X144428570Y-71835771D01*
X144714285Y-71788152D02*
X145095237Y-71788152D01*
X144857142Y-71454819D02*
X144857142Y-72311961D01*
X144857142Y-72311961D02*
X144904761Y-72407200D01*
X144904761Y-72407200D02*
X144999999Y-72454819D01*
X144999999Y-72454819D02*
X145095237Y-72454819D01*
X145428571Y-72454819D02*
X145428571Y-71788152D01*
X145428571Y-71454819D02*
X145380952Y-71502438D01*
X145380952Y-71502438D02*
X145428571Y-71550057D01*
X145428571Y-71550057D02*
X145476190Y-71502438D01*
X145476190Y-71502438D02*
X145428571Y-71454819D01*
X145428571Y-71454819D02*
X145428571Y-71550057D01*
X146047618Y-72454819D02*
X145952380Y-72407200D01*
X145952380Y-72407200D02*
X145904761Y-72359580D01*
X145904761Y-72359580D02*
X145857142Y-72264342D01*
X145857142Y-72264342D02*
X145857142Y-71978628D01*
X145857142Y-71978628D02*
X145904761Y-71883390D01*
X145904761Y-71883390D02*
X145952380Y-71835771D01*
X145952380Y-71835771D02*
X146047618Y-71788152D01*
X146047618Y-71788152D02*
X146190475Y-71788152D01*
X146190475Y-71788152D02*
X146285713Y-71835771D01*
X146285713Y-71835771D02*
X146333332Y-71883390D01*
X146333332Y-71883390D02*
X146380951Y-71978628D01*
X146380951Y-71978628D02*
X146380951Y-72264342D01*
X146380951Y-72264342D02*
X146333332Y-72359580D01*
X146333332Y-72359580D02*
X146285713Y-72407200D01*
X146285713Y-72407200D02*
X146190475Y-72454819D01*
X146190475Y-72454819D02*
X146047618Y-72454819D01*
X146809523Y-71788152D02*
X146809523Y-72454819D01*
X146809523Y-71883390D02*
X146857142Y-71835771D01*
X146857142Y-71835771D02*
X146952380Y-71788152D01*
X146952380Y-71788152D02*
X147095237Y-71788152D01*
X147095237Y-71788152D02*
X147190475Y-71835771D01*
X147190475Y-71835771D02*
X147238094Y-71931009D01*
X147238094Y-71931009D02*
X147238094Y-72454819D01*
X148142856Y-72454819D02*
X148142856Y-71931009D01*
X148142856Y-71931009D02*
X148095237Y-71835771D01*
X148095237Y-71835771D02*
X147999999Y-71788152D01*
X147999999Y-71788152D02*
X147809523Y-71788152D01*
X147809523Y-71788152D02*
X147714285Y-71835771D01*
X148142856Y-72407200D02*
X148047618Y-72454819D01*
X148047618Y-72454819D02*
X147809523Y-72454819D01*
X147809523Y-72454819D02*
X147714285Y-72407200D01*
X147714285Y-72407200D02*
X147666666Y-72311961D01*
X147666666Y-72311961D02*
X147666666Y-72216723D01*
X147666666Y-72216723D02*
X147714285Y-72121485D01*
X147714285Y-72121485D02*
X147809523Y-72073866D01*
X147809523Y-72073866D02*
X148047618Y-72073866D01*
X148047618Y-72073866D02*
X148142856Y-72026247D01*
X148761904Y-72454819D02*
X148666666Y-72407200D01*
X148666666Y-72407200D02*
X148619047Y-72311961D01*
X148619047Y-72311961D02*
X148619047Y-71454819D01*
X140761903Y-75359580D02*
X140714284Y-75407200D01*
X140714284Y-75407200D02*
X140571427Y-75454819D01*
X140571427Y-75454819D02*
X140476189Y-75454819D01*
X140476189Y-75454819D02*
X140333332Y-75407200D01*
X140333332Y-75407200D02*
X140238094Y-75311961D01*
X140238094Y-75311961D02*
X140190475Y-75216723D01*
X140190475Y-75216723D02*
X140142856Y-75026247D01*
X140142856Y-75026247D02*
X140142856Y-74883390D01*
X140142856Y-74883390D02*
X140190475Y-74692914D01*
X140190475Y-74692914D02*
X140238094Y-74597676D01*
X140238094Y-74597676D02*
X140333332Y-74502438D01*
X140333332Y-74502438D02*
X140476189Y-74454819D01*
X140476189Y-74454819D02*
X140571427Y-74454819D01*
X140571427Y-74454819D02*
X140714284Y-74502438D01*
X140714284Y-74502438D02*
X140761903Y-74550057D01*
X141333332Y-75454819D02*
X141238094Y-75407200D01*
X141238094Y-75407200D02*
X141190475Y-75359580D01*
X141190475Y-75359580D02*
X141142856Y-75264342D01*
X141142856Y-75264342D02*
X141142856Y-74978628D01*
X141142856Y-74978628D02*
X141190475Y-74883390D01*
X141190475Y-74883390D02*
X141238094Y-74835771D01*
X141238094Y-74835771D02*
X141333332Y-74788152D01*
X141333332Y-74788152D02*
X141476189Y-74788152D01*
X141476189Y-74788152D02*
X141571427Y-74835771D01*
X141571427Y-74835771D02*
X141619046Y-74883390D01*
X141619046Y-74883390D02*
X141666665Y-74978628D01*
X141666665Y-74978628D02*
X141666665Y-75264342D01*
X141666665Y-75264342D02*
X141619046Y-75359580D01*
X141619046Y-75359580D02*
X141571427Y-75407200D01*
X141571427Y-75407200D02*
X141476189Y-75454819D01*
X141476189Y-75454819D02*
X141333332Y-75454819D01*
X142095237Y-74788152D02*
X142095237Y-75454819D01*
X142095237Y-74883390D02*
X142142856Y-74835771D01*
X142142856Y-74835771D02*
X142238094Y-74788152D01*
X142238094Y-74788152D02*
X142380951Y-74788152D01*
X142380951Y-74788152D02*
X142476189Y-74835771D01*
X142476189Y-74835771D02*
X142523808Y-74931009D01*
X142523808Y-74931009D02*
X142523808Y-75454819D01*
X142904761Y-74788152D02*
X143142856Y-75454819D01*
X143142856Y-75454819D02*
X143380951Y-74788152D01*
X144142856Y-75407200D02*
X144047618Y-75454819D01*
X144047618Y-75454819D02*
X143857142Y-75454819D01*
X143857142Y-75454819D02*
X143761904Y-75407200D01*
X143761904Y-75407200D02*
X143714285Y-75311961D01*
X143714285Y-75311961D02*
X143714285Y-74931009D01*
X143714285Y-74931009D02*
X143761904Y-74835771D01*
X143761904Y-74835771D02*
X143857142Y-74788152D01*
X143857142Y-74788152D02*
X144047618Y-74788152D01*
X144047618Y-74788152D02*
X144142856Y-74835771D01*
X144142856Y-74835771D02*
X144190475Y-74931009D01*
X144190475Y-74931009D02*
X144190475Y-75026247D01*
X144190475Y-75026247D02*
X143714285Y-75121485D01*
X144619047Y-75454819D02*
X144619047Y-74788152D01*
X144619047Y-74978628D02*
X144666666Y-74883390D01*
X144666666Y-74883390D02*
X144714285Y-74835771D01*
X144714285Y-74835771D02*
X144809523Y-74788152D01*
X144809523Y-74788152D02*
X144904761Y-74788152D01*
X145095238Y-74788152D02*
X145476190Y-74788152D01*
X145238095Y-74454819D02*
X145238095Y-75311961D01*
X145238095Y-75311961D02*
X145285714Y-75407200D01*
X145285714Y-75407200D02*
X145380952Y-75454819D01*
X145380952Y-75454819D02*
X145476190Y-75454819D01*
X146190476Y-75407200D02*
X146095238Y-75454819D01*
X146095238Y-75454819D02*
X145904762Y-75454819D01*
X145904762Y-75454819D02*
X145809524Y-75407200D01*
X145809524Y-75407200D02*
X145761905Y-75311961D01*
X145761905Y-75311961D02*
X145761905Y-74931009D01*
X145761905Y-74931009D02*
X145809524Y-74835771D01*
X145809524Y-74835771D02*
X145904762Y-74788152D01*
X145904762Y-74788152D02*
X146095238Y-74788152D01*
X146095238Y-74788152D02*
X146190476Y-74835771D01*
X146190476Y-74835771D02*
X146238095Y-74931009D01*
X146238095Y-74931009D02*
X146238095Y-75026247D01*
X146238095Y-75026247D02*
X145761905Y-75121485D01*
X146666667Y-75454819D02*
X146666667Y-74788152D01*
X146666667Y-74978628D02*
X146714286Y-74883390D01*
X146714286Y-74883390D02*
X146761905Y-74835771D01*
X146761905Y-74835771D02*
X146857143Y-74788152D01*
X146857143Y-74788152D02*
X146952381Y-74788152D01*
X139952380Y-73954819D02*
X139476190Y-73954819D01*
X139476190Y-73954819D02*
X139476190Y-72954819D01*
X140428571Y-73954819D02*
X140333333Y-73907200D01*
X140333333Y-73907200D02*
X140285714Y-73859580D01*
X140285714Y-73859580D02*
X140238095Y-73764342D01*
X140238095Y-73764342D02*
X140238095Y-73478628D01*
X140238095Y-73478628D02*
X140285714Y-73383390D01*
X140285714Y-73383390D02*
X140333333Y-73335771D01*
X140333333Y-73335771D02*
X140428571Y-73288152D01*
X140428571Y-73288152D02*
X140571428Y-73288152D01*
X140571428Y-73288152D02*
X140666666Y-73335771D01*
X140666666Y-73335771D02*
X140714285Y-73383390D01*
X140714285Y-73383390D02*
X140761904Y-73478628D01*
X140761904Y-73478628D02*
X140761904Y-73764342D01*
X140761904Y-73764342D02*
X140714285Y-73859580D01*
X140714285Y-73859580D02*
X140666666Y-73907200D01*
X140666666Y-73907200D02*
X140571428Y-73954819D01*
X140571428Y-73954819D02*
X140428571Y-73954819D01*
X141619047Y-73288152D02*
X141619047Y-74097676D01*
X141619047Y-74097676D02*
X141571428Y-74192914D01*
X141571428Y-74192914D02*
X141523809Y-74240533D01*
X141523809Y-74240533D02*
X141428571Y-74288152D01*
X141428571Y-74288152D02*
X141285714Y-74288152D01*
X141285714Y-74288152D02*
X141190476Y-74240533D01*
X141619047Y-73907200D02*
X141523809Y-73954819D01*
X141523809Y-73954819D02*
X141333333Y-73954819D01*
X141333333Y-73954819D02*
X141238095Y-73907200D01*
X141238095Y-73907200D02*
X141190476Y-73859580D01*
X141190476Y-73859580D02*
X141142857Y-73764342D01*
X141142857Y-73764342D02*
X141142857Y-73478628D01*
X141142857Y-73478628D02*
X141190476Y-73383390D01*
X141190476Y-73383390D02*
X141238095Y-73335771D01*
X141238095Y-73335771D02*
X141333333Y-73288152D01*
X141333333Y-73288152D02*
X141523809Y-73288152D01*
X141523809Y-73288152D02*
X141619047Y-73335771D01*
X142095238Y-73954819D02*
X142095238Y-73288152D01*
X142095238Y-72954819D02*
X142047619Y-73002438D01*
X142047619Y-73002438D02*
X142095238Y-73050057D01*
X142095238Y-73050057D02*
X142142857Y-73002438D01*
X142142857Y-73002438D02*
X142095238Y-72954819D01*
X142095238Y-72954819D02*
X142095238Y-73050057D01*
X142999999Y-73907200D02*
X142904761Y-73954819D01*
X142904761Y-73954819D02*
X142714285Y-73954819D01*
X142714285Y-73954819D02*
X142619047Y-73907200D01*
X142619047Y-73907200D02*
X142571428Y-73859580D01*
X142571428Y-73859580D02*
X142523809Y-73764342D01*
X142523809Y-73764342D02*
X142523809Y-73478628D01*
X142523809Y-73478628D02*
X142571428Y-73383390D01*
X142571428Y-73383390D02*
X142619047Y-73335771D01*
X142619047Y-73335771D02*
X142714285Y-73288152D01*
X142714285Y-73288152D02*
X142904761Y-73288152D01*
X142904761Y-73288152D02*
X142999999Y-73335771D01*
X144666666Y-73954819D02*
X144190476Y-73954819D01*
X144190476Y-73954819D02*
X144190476Y-72954819D01*
X145380952Y-73907200D02*
X145285714Y-73954819D01*
X145285714Y-73954819D02*
X145095238Y-73954819D01*
X145095238Y-73954819D02*
X145000000Y-73907200D01*
X145000000Y-73907200D02*
X144952381Y-73811961D01*
X144952381Y-73811961D02*
X144952381Y-73431009D01*
X144952381Y-73431009D02*
X145000000Y-73335771D01*
X145000000Y-73335771D02*
X145095238Y-73288152D01*
X145095238Y-73288152D02*
X145285714Y-73288152D01*
X145285714Y-73288152D02*
X145380952Y-73335771D01*
X145380952Y-73335771D02*
X145428571Y-73431009D01*
X145428571Y-73431009D02*
X145428571Y-73526247D01*
X145428571Y-73526247D02*
X144952381Y-73621485D01*
X145761905Y-73288152D02*
X146000000Y-73954819D01*
X146000000Y-73954819D02*
X146238095Y-73288152D01*
X147000000Y-73907200D02*
X146904762Y-73954819D01*
X146904762Y-73954819D02*
X146714286Y-73954819D01*
X146714286Y-73954819D02*
X146619048Y-73907200D01*
X146619048Y-73907200D02*
X146571429Y-73811961D01*
X146571429Y-73811961D02*
X146571429Y-73431009D01*
X146571429Y-73431009D02*
X146619048Y-73335771D01*
X146619048Y-73335771D02*
X146714286Y-73288152D01*
X146714286Y-73288152D02*
X146904762Y-73288152D01*
X146904762Y-73288152D02*
X147000000Y-73335771D01*
X147000000Y-73335771D02*
X147047619Y-73431009D01*
X147047619Y-73431009D02*
X147047619Y-73526247D01*
X147047619Y-73526247D02*
X146571429Y-73621485D01*
X147619048Y-73954819D02*
X147523810Y-73907200D01*
X147523810Y-73907200D02*
X147476191Y-73811961D01*
X147476191Y-73811961D02*
X147476191Y-72954819D01*
X165281401Y-80856467D02*
X164831457Y-80856467D01*
X165056429Y-80856467D02*
X165056429Y-80069065D01*
X165056429Y-80069065D02*
X164981438Y-80181551D01*
X164981438Y-80181551D02*
X164906448Y-80256542D01*
X164906448Y-80256542D02*
X164831457Y-80294037D01*
X165768841Y-80069065D02*
X165843831Y-80069065D01*
X165843831Y-80069065D02*
X165918822Y-80106560D01*
X165918822Y-80106560D02*
X165956317Y-80144056D01*
X165956317Y-80144056D02*
X165993813Y-80219046D01*
X165993813Y-80219046D02*
X166031308Y-80369028D01*
X166031308Y-80369028D02*
X166031308Y-80556504D01*
X166031308Y-80556504D02*
X165993813Y-80706486D01*
X165993813Y-80706486D02*
X165956317Y-80781476D01*
X165956317Y-80781476D02*
X165918822Y-80818972D01*
X165918822Y-80818972D02*
X165843831Y-80856467D01*
X165843831Y-80856467D02*
X165768841Y-80856467D01*
X165768841Y-80856467D02*
X165693850Y-80818972D01*
X165693850Y-80818972D02*
X165656355Y-80781476D01*
X165656355Y-80781476D02*
X165618859Y-80706486D01*
X165618859Y-80706486D02*
X165581364Y-80556504D01*
X165581364Y-80556504D02*
X165581364Y-80369028D01*
X165581364Y-80369028D02*
X165618859Y-80219046D01*
X165618859Y-80219046D02*
X165656355Y-80144056D01*
X165656355Y-80144056D02*
X165693850Y-80106560D01*
X165693850Y-80106560D02*
X165768841Y-80069065D01*
X166368766Y-80856467D02*
X166368766Y-80069065D01*
X166443757Y-80556504D02*
X166668729Y-80856467D01*
X166668729Y-80331532D02*
X166368766Y-80631495D01*
X167568617Y-80856467D02*
X167756094Y-80856467D01*
X167756094Y-80856467D02*
X167756094Y-80706486D01*
X167756094Y-80706486D02*
X167681103Y-80668990D01*
X167681103Y-80668990D02*
X167606112Y-80594000D01*
X167606112Y-80594000D02*
X167568617Y-80481514D01*
X167568617Y-80481514D02*
X167568617Y-80294037D01*
X167568617Y-80294037D02*
X167606112Y-80181551D01*
X167606112Y-80181551D02*
X167681103Y-80106560D01*
X167681103Y-80106560D02*
X167793589Y-80069065D01*
X167793589Y-80069065D02*
X167943570Y-80069065D01*
X167943570Y-80069065D02*
X168056056Y-80106560D01*
X168056056Y-80106560D02*
X168131047Y-80181551D01*
X168131047Y-80181551D02*
X168168542Y-80294037D01*
X168168542Y-80294037D02*
X168168542Y-80481514D01*
X168168542Y-80481514D02*
X168131047Y-80594000D01*
X168131047Y-80594000D02*
X168056056Y-80668990D01*
X168056056Y-80668990D02*
X167981066Y-80706486D01*
X167981066Y-80706486D02*
X167981066Y-80856467D01*
X167981066Y-80856467D02*
X168168542Y-80856467D01*
X169190476Y-68154819D02*
X169190476Y-67154819D01*
X169190476Y-67154819D02*
X169761904Y-68154819D01*
X169761904Y-68154819D02*
X169761904Y-67154819D01*
X170238095Y-68154819D02*
X170238095Y-67154819D01*
X170238095Y-67154819D02*
X170619047Y-67154819D01*
X170619047Y-67154819D02*
X170714285Y-67202438D01*
X170714285Y-67202438D02*
X170761904Y-67250057D01*
X170761904Y-67250057D02*
X170809523Y-67345295D01*
X170809523Y-67345295D02*
X170809523Y-67488152D01*
X170809523Y-67488152D02*
X170761904Y-67583390D01*
X170761904Y-67583390D02*
X170714285Y-67631009D01*
X170714285Y-67631009D02*
X170619047Y-67678628D01*
X170619047Y-67678628D02*
X170238095Y-67678628D01*
X171238095Y-68154819D02*
X171238095Y-67154819D01*
X171238095Y-67154819D02*
X171809523Y-68154819D01*
X171809523Y-68154819D02*
X171809523Y-67154819D01*
X162281401Y-74856467D02*
X161831457Y-74856467D01*
X162056429Y-74856467D02*
X162056429Y-74069065D01*
X162056429Y-74069065D02*
X161981438Y-74181551D01*
X161981438Y-74181551D02*
X161906448Y-74256542D01*
X161906448Y-74256542D02*
X161831457Y-74294037D01*
X162768841Y-74069065D02*
X162843831Y-74069065D01*
X162843831Y-74069065D02*
X162918822Y-74106560D01*
X162918822Y-74106560D02*
X162956317Y-74144056D01*
X162956317Y-74144056D02*
X162993813Y-74219046D01*
X162993813Y-74219046D02*
X163031308Y-74369028D01*
X163031308Y-74369028D02*
X163031308Y-74556504D01*
X163031308Y-74556504D02*
X162993813Y-74706486D01*
X162993813Y-74706486D02*
X162956317Y-74781476D01*
X162956317Y-74781476D02*
X162918822Y-74818972D01*
X162918822Y-74818972D02*
X162843831Y-74856467D01*
X162843831Y-74856467D02*
X162768841Y-74856467D01*
X162768841Y-74856467D02*
X162693850Y-74818972D01*
X162693850Y-74818972D02*
X162656355Y-74781476D01*
X162656355Y-74781476D02*
X162618859Y-74706486D01*
X162618859Y-74706486D02*
X162581364Y-74556504D01*
X162581364Y-74556504D02*
X162581364Y-74369028D01*
X162581364Y-74369028D02*
X162618859Y-74219046D01*
X162618859Y-74219046D02*
X162656355Y-74144056D01*
X162656355Y-74144056D02*
X162693850Y-74106560D01*
X162693850Y-74106560D02*
X162768841Y-74069065D01*
X163368766Y-74856467D02*
X163368766Y-74069065D01*
X163443757Y-74556504D02*
X163668729Y-74856467D01*
X163668729Y-74331532D02*
X163368766Y-74631495D01*
X164568617Y-74856467D02*
X164756094Y-74856467D01*
X164756094Y-74856467D02*
X164756094Y-74706486D01*
X164756094Y-74706486D02*
X164681103Y-74668990D01*
X164681103Y-74668990D02*
X164606112Y-74594000D01*
X164606112Y-74594000D02*
X164568617Y-74481514D01*
X164568617Y-74481514D02*
X164568617Y-74294037D01*
X164568617Y-74294037D02*
X164606112Y-74181551D01*
X164606112Y-74181551D02*
X164681103Y-74106560D01*
X164681103Y-74106560D02*
X164793589Y-74069065D01*
X164793589Y-74069065D02*
X164943570Y-74069065D01*
X164943570Y-74069065D02*
X165056056Y-74106560D01*
X165056056Y-74106560D02*
X165131047Y-74181551D01*
X165131047Y-74181551D02*
X165168542Y-74294037D01*
X165168542Y-74294037D02*
X165168542Y-74481514D01*
X165168542Y-74481514D02*
X165131047Y-74594000D01*
X165131047Y-74594000D02*
X165056056Y-74668990D01*
X165056056Y-74668990D02*
X164981066Y-74706486D01*
X164981066Y-74706486D02*
X164981066Y-74856467D01*
X164981066Y-74856467D02*
X165168542Y-74856467D01*
X151781401Y-96356467D02*
X151331457Y-96356467D01*
X151556429Y-96356467D02*
X151556429Y-95569065D01*
X151556429Y-95569065D02*
X151481438Y-95681551D01*
X151481438Y-95681551D02*
X151406448Y-95756542D01*
X151406448Y-95756542D02*
X151331457Y-95794037D01*
X152268841Y-95569065D02*
X152343831Y-95569065D01*
X152343831Y-95569065D02*
X152418822Y-95606560D01*
X152418822Y-95606560D02*
X152456317Y-95644056D01*
X152456317Y-95644056D02*
X152493813Y-95719046D01*
X152493813Y-95719046D02*
X152531308Y-95869028D01*
X152531308Y-95869028D02*
X152531308Y-96056504D01*
X152531308Y-96056504D02*
X152493813Y-96206486D01*
X152493813Y-96206486D02*
X152456317Y-96281476D01*
X152456317Y-96281476D02*
X152418822Y-96318972D01*
X152418822Y-96318972D02*
X152343831Y-96356467D01*
X152343831Y-96356467D02*
X152268841Y-96356467D01*
X152268841Y-96356467D02*
X152193850Y-96318972D01*
X152193850Y-96318972D02*
X152156355Y-96281476D01*
X152156355Y-96281476D02*
X152118859Y-96206486D01*
X152118859Y-96206486D02*
X152081364Y-96056504D01*
X152081364Y-96056504D02*
X152081364Y-95869028D01*
X152081364Y-95869028D02*
X152118859Y-95719046D01*
X152118859Y-95719046D02*
X152156355Y-95644056D01*
X152156355Y-95644056D02*
X152193850Y-95606560D01*
X152193850Y-95606560D02*
X152268841Y-95569065D01*
X152868766Y-96356467D02*
X152868766Y-95569065D01*
X152943757Y-96056504D02*
X153168729Y-96356467D01*
X153168729Y-95831532D02*
X152868766Y-96131495D01*
X154068617Y-96356467D02*
X154256094Y-96356467D01*
X154256094Y-96356467D02*
X154256094Y-96206486D01*
X154256094Y-96206486D02*
X154181103Y-96168990D01*
X154181103Y-96168990D02*
X154106112Y-96094000D01*
X154106112Y-96094000D02*
X154068617Y-95981514D01*
X154068617Y-95981514D02*
X154068617Y-95794037D01*
X154068617Y-95794037D02*
X154106112Y-95681551D01*
X154106112Y-95681551D02*
X154181103Y-95606560D01*
X154181103Y-95606560D02*
X154293589Y-95569065D01*
X154293589Y-95569065D02*
X154443570Y-95569065D01*
X154443570Y-95569065D02*
X154556056Y-95606560D01*
X154556056Y-95606560D02*
X154631047Y-95681551D01*
X154631047Y-95681551D02*
X154668542Y-95794037D01*
X154668542Y-95794037D02*
X154668542Y-95981514D01*
X154668542Y-95981514D02*
X154631047Y-96094000D01*
X154631047Y-96094000D02*
X154556056Y-96168990D01*
X154556056Y-96168990D02*
X154481066Y-96206486D01*
X154481066Y-96206486D02*
X154481066Y-96356467D01*
X154481066Y-96356467D02*
X154668542Y-96356467D01*
X108828976Y-83463319D02*
X108828976Y-82463319D01*
X108828976Y-82463319D02*
X109400404Y-83463319D01*
X109400404Y-83463319D02*
X109400404Y-82463319D01*
X109876595Y-83463319D02*
X109876595Y-82463319D01*
X109876595Y-82463319D02*
X110257547Y-82463319D01*
X110257547Y-82463319D02*
X110352785Y-82510938D01*
X110352785Y-82510938D02*
X110400404Y-82558557D01*
X110400404Y-82558557D02*
X110448023Y-82653795D01*
X110448023Y-82653795D02*
X110448023Y-82796652D01*
X110448023Y-82796652D02*
X110400404Y-82891890D01*
X110400404Y-82891890D02*
X110352785Y-82939509D01*
X110352785Y-82939509D02*
X110257547Y-82987128D01*
X110257547Y-82987128D02*
X109876595Y-82987128D01*
X110876595Y-83463319D02*
X110876595Y-82463319D01*
X110876595Y-82463319D02*
X111448023Y-83463319D01*
X111448023Y-83463319D02*
X111448023Y-82463319D01*
D11*
X165158095Y-81757419D02*
X165158095Y-82566942D01*
X165158095Y-82566942D02*
X165205714Y-82662180D01*
X165205714Y-82662180D02*
X165253333Y-82709800D01*
X165253333Y-82709800D02*
X165348571Y-82757419D01*
X165348571Y-82757419D02*
X165539047Y-82757419D01*
X165539047Y-82757419D02*
X165634285Y-82709800D01*
X165634285Y-82709800D02*
X165681904Y-82662180D01*
X165681904Y-82662180D02*
X165729523Y-82566942D01*
X165729523Y-82566942D02*
X165729523Y-81757419D01*
X166110476Y-81757419D02*
X166729523Y-81757419D01*
X166729523Y-81757419D02*
X166396190Y-82138371D01*
X166396190Y-82138371D02*
X166539047Y-82138371D01*
X166539047Y-82138371D02*
X166634285Y-82185990D01*
X166634285Y-82185990D02*
X166681904Y-82233609D01*
X166681904Y-82233609D02*
X166729523Y-82328847D01*
X166729523Y-82328847D02*
X166729523Y-82566942D01*
X166729523Y-82566942D02*
X166681904Y-82662180D01*
X166681904Y-82662180D02*
X166634285Y-82709800D01*
X166634285Y-82709800D02*
X166539047Y-82757419D01*
X166539047Y-82757419D02*
X166253333Y-82757419D01*
X166253333Y-82757419D02*
X166158095Y-82709800D01*
X166158095Y-82709800D02*
X166110476Y-82662180D01*
D10*
X119781401Y-76356467D02*
X119331457Y-76356467D01*
X119556429Y-76356467D02*
X119556429Y-75569065D01*
X119556429Y-75569065D02*
X119481438Y-75681551D01*
X119481438Y-75681551D02*
X119406448Y-75756542D01*
X119406448Y-75756542D02*
X119331457Y-75794037D01*
X120268841Y-75569065D02*
X120343831Y-75569065D01*
X120343831Y-75569065D02*
X120418822Y-75606560D01*
X120418822Y-75606560D02*
X120456317Y-75644056D01*
X120456317Y-75644056D02*
X120493813Y-75719046D01*
X120493813Y-75719046D02*
X120531308Y-75869028D01*
X120531308Y-75869028D02*
X120531308Y-76056504D01*
X120531308Y-76056504D02*
X120493813Y-76206486D01*
X120493813Y-76206486D02*
X120456317Y-76281476D01*
X120456317Y-76281476D02*
X120418822Y-76318972D01*
X120418822Y-76318972D02*
X120343831Y-76356467D01*
X120343831Y-76356467D02*
X120268841Y-76356467D01*
X120268841Y-76356467D02*
X120193850Y-76318972D01*
X120193850Y-76318972D02*
X120156355Y-76281476D01*
X120156355Y-76281476D02*
X120118859Y-76206486D01*
X120118859Y-76206486D02*
X120081364Y-76056504D01*
X120081364Y-76056504D02*
X120081364Y-75869028D01*
X120081364Y-75869028D02*
X120118859Y-75719046D01*
X120118859Y-75719046D02*
X120156355Y-75644056D01*
X120156355Y-75644056D02*
X120193850Y-75606560D01*
X120193850Y-75606560D02*
X120268841Y-75569065D01*
X120868766Y-76356467D02*
X120868766Y-75569065D01*
X120943757Y-76056504D02*
X121168729Y-76356467D01*
X121168729Y-75831532D02*
X120868766Y-76131495D01*
X122068617Y-76356467D02*
X122256094Y-76356467D01*
X122256094Y-76356467D02*
X122256094Y-76206486D01*
X122256094Y-76206486D02*
X122181103Y-76168990D01*
X122181103Y-76168990D02*
X122106112Y-76094000D01*
X122106112Y-76094000D02*
X122068617Y-75981514D01*
X122068617Y-75981514D02*
X122068617Y-75794037D01*
X122068617Y-75794037D02*
X122106112Y-75681551D01*
X122106112Y-75681551D02*
X122181103Y-75606560D01*
X122181103Y-75606560D02*
X122293589Y-75569065D01*
X122293589Y-75569065D02*
X122443570Y-75569065D01*
X122443570Y-75569065D02*
X122556056Y-75606560D01*
X122556056Y-75606560D02*
X122631047Y-75681551D01*
X122631047Y-75681551D02*
X122668542Y-75794037D01*
X122668542Y-75794037D02*
X122668542Y-75981514D01*
X122668542Y-75981514D02*
X122631047Y-76094000D01*
X122631047Y-76094000D02*
X122556056Y-76168990D01*
X122556056Y-76168990D02*
X122481066Y-76206486D01*
X122481066Y-76206486D02*
X122481066Y-76356467D01*
X122481066Y-76356467D02*
X122668542Y-76356467D01*
X110944286Y-82154819D02*
X110944286Y-81154819D01*
X110944286Y-81154819D02*
X111325238Y-81154819D01*
X111325238Y-81154819D02*
X111420476Y-81202438D01*
X111420476Y-81202438D02*
X111468095Y-81250057D01*
X111468095Y-81250057D02*
X111515714Y-81345295D01*
X111515714Y-81345295D02*
X111515714Y-81488152D01*
X111515714Y-81488152D02*
X111468095Y-81583390D01*
X111468095Y-81583390D02*
X111420476Y-81631009D01*
X111420476Y-81631009D02*
X111325238Y-81678628D01*
X111325238Y-81678628D02*
X110944286Y-81678628D01*
X111944286Y-82154819D02*
X111944286Y-81154819D01*
X111944286Y-81154819D02*
X112515714Y-82154819D01*
X112515714Y-82154819D02*
X112515714Y-81154819D01*
X112991905Y-82154819D02*
X112991905Y-81154819D01*
X112991905Y-81154819D02*
X113372857Y-81154819D01*
X113372857Y-81154819D02*
X113468095Y-81202438D01*
X113468095Y-81202438D02*
X113515714Y-81250057D01*
X113515714Y-81250057D02*
X113563333Y-81345295D01*
X113563333Y-81345295D02*
X113563333Y-81488152D01*
X113563333Y-81488152D02*
X113515714Y-81583390D01*
X113515714Y-81583390D02*
X113468095Y-81631009D01*
X113468095Y-81631009D02*
X113372857Y-81678628D01*
X113372857Y-81678628D02*
X112991905Y-81678628D01*
D12*
%TO.C,R1*%
X160960000Y-62815000D02*
X160960000Y-64085000D01*
X160960000Y-64085000D02*
X159690000Y-64085000D01*
X160960000Y-64085000D02*
X160960000Y-65355000D01*
X160960000Y-65355000D02*
X166040000Y-65355000D01*
X166040000Y-62815000D02*
X160960000Y-62815000D01*
X166040000Y-64085000D02*
X166040000Y-62815000D01*
X166040000Y-64085000D02*
X167310000Y-64085000D01*
X166040000Y-65355000D02*
X166040000Y-64085000D01*
D13*
%TO.C,PNP*%
X168700000Y-74350000D02*
X172300000Y-74350000D01*
X168661522Y-74338478D02*
G75*
G02*
X170500000Y-69899999I1838478J1838478D01*
G01*
X170500000Y-69900000D02*
G75*
G02*
X172338478Y-74338478I0J-2600000D01*
G01*
%TO.C,NPN*%
X142200000Y-92350000D02*
X145800000Y-92350000D01*
X142161522Y-92338478D02*
G75*
G02*
X144000000Y-87899999I1838478J1838478D01*
G01*
X144000000Y-87900000D02*
G75*
G02*
X145838478Y-92338478I0J-2600000D01*
G01*
%TO.C,LS1*%
X121380000Y-93690000D02*
X121380000Y-101310000D01*
X121380000Y-101310000D02*
X131540000Y-101310000D01*
X131540000Y-93690000D02*
X121380000Y-93690000D01*
X131540000Y-100040000D02*
X121380000Y-100040000D01*
X131540000Y-101310000D02*
X131540000Y-93690000D01*
D12*
%TO.C,R7*%
X134960000Y-93730000D02*
X134960000Y-95000000D01*
X134960000Y-95000000D02*
X133690000Y-95000000D01*
X134960000Y-95000000D02*
X134960000Y-96270000D01*
X134960000Y-96270000D02*
X140040000Y-96270000D01*
X140040000Y-93730000D02*
X134960000Y-93730000D01*
X140040000Y-95000000D02*
X140040000Y-93730000D01*
X140040000Y-95000000D02*
X141310000Y-95000000D01*
X140040000Y-96270000D02*
X140040000Y-95000000D01*
%TO.C,R2*%
X117960000Y-85230000D02*
X117960000Y-86500000D01*
X117960000Y-86500000D02*
X116690000Y-86500000D01*
X117960000Y-86500000D02*
X117960000Y-87770000D01*
X117960000Y-87770000D02*
X123040000Y-87770000D01*
X123040000Y-85230000D02*
X117960000Y-85230000D01*
X123040000Y-86500000D02*
X123040000Y-85230000D01*
X123040000Y-86500000D02*
X124310000Y-86500000D01*
X123040000Y-87770000D02*
X123040000Y-86500000D01*
%TO.C,R5*%
X111960000Y-91730000D02*
X111960000Y-93000000D01*
X111960000Y-93000000D02*
X110690000Y-93000000D01*
X111960000Y-93000000D02*
X111960000Y-94270000D01*
X111960000Y-94270000D02*
X117040000Y-94270000D01*
X117040000Y-91730000D02*
X111960000Y-91730000D01*
X117040000Y-93000000D02*
X117040000Y-91730000D01*
X117040000Y-93000000D02*
X118310000Y-93000000D01*
X117040000Y-94270000D02*
X117040000Y-93000000D01*
%TO.C,R9*%
X153460000Y-87730000D02*
X153460000Y-89000000D01*
X153460000Y-89000000D02*
X152190000Y-89000000D01*
X153460000Y-89000000D02*
X153460000Y-90270000D01*
X153460000Y-90270000D02*
X158540000Y-90270000D01*
X158540000Y-87730000D02*
X153460000Y-87730000D01*
X158540000Y-89000000D02*
X158540000Y-87730000D01*
X158540000Y-89000000D02*
X159810000Y-89000000D01*
X158540000Y-90270000D02*
X158540000Y-89000000D01*
%TO.C,LogicConverter1*%
X135880000Y-68650000D02*
X135880000Y-81350000D01*
X135880000Y-81350000D02*
X151120000Y-81350000D01*
X151120000Y-68650000D02*
X135880000Y-68650000D01*
X151120000Y-81350000D02*
X151120000Y-68650000D01*
%TO.C,R6*%
X163960000Y-77230000D02*
X163960000Y-78500000D01*
X163960000Y-78500000D02*
X162690000Y-78500000D01*
X163960000Y-78500000D02*
X163960000Y-79770000D01*
X163960000Y-79770000D02*
X169040000Y-79770000D01*
X169040000Y-77230000D02*
X163960000Y-77230000D01*
X169040000Y-78500000D02*
X169040000Y-77230000D01*
X169040000Y-78500000D02*
X170310000Y-78500000D01*
X169040000Y-79770000D02*
X169040000Y-78500000D01*
D13*
%TO.C,NPN*%
X172300000Y-62290000D02*
X168700000Y-62290000D01*
X170500000Y-66740000D02*
G75*
G02*
X168661522Y-62301522I0J2600000D01*
G01*
X172338478Y-62301522D02*
G75*
G02*
X170500000Y-66740001I-1838478J-1838478D01*
G01*
D12*
%TO.C,R4*%
X160960000Y-71230000D02*
X160960000Y-72500000D01*
X160960000Y-72500000D02*
X159690000Y-72500000D01*
X160960000Y-72500000D02*
X160960000Y-73770000D01*
X160960000Y-73770000D02*
X166040000Y-73770000D01*
X166040000Y-71230000D02*
X160960000Y-71230000D01*
X166040000Y-72500000D02*
X166040000Y-71230000D01*
X166040000Y-72500000D02*
X167310000Y-72500000D01*
X166040000Y-73770000D02*
X166040000Y-72500000D01*
%TO.C,R8*%
X150460000Y-96730000D02*
X150460000Y-98000000D01*
X150460000Y-98000000D02*
X149190000Y-98000000D01*
X150460000Y-98000000D02*
X150460000Y-99270000D01*
X150460000Y-99270000D02*
X155540000Y-99270000D01*
X155540000Y-96730000D02*
X150460000Y-96730000D01*
X155540000Y-98000000D02*
X155540000Y-96730000D01*
X155540000Y-98000000D02*
X156810000Y-98000000D01*
X155540000Y-99270000D02*
X155540000Y-98000000D01*
%TO.C,1*%
X137650000Y-53190000D02*
X137650000Y-58270000D01*
X137650000Y-58270000D02*
X150350000Y-58270000D01*
X142730000Y-51920000D02*
X142730000Y-53190000D01*
X142730000Y-53190000D02*
X137650000Y-53190000D01*
X145270000Y-51920000D02*
X142730000Y-51920000D01*
X145270000Y-53190000D02*
X145270000Y-51920000D01*
X150350000Y-53190000D02*
X145270000Y-53190000D01*
X150350000Y-58270000D02*
X150350000Y-53190000D01*
D13*
%TO.C,NPN*%
X108200000Y-88350000D02*
X111800000Y-88350000D01*
X108161522Y-88338478D02*
G75*
G02*
X110000000Y-83899999I1838478J1838478D01*
G01*
X110000000Y-83900000D02*
G75*
G02*
X111838478Y-88338478I0J-2600000D01*
G01*
D11*
%TO.C,U3*%
X163380000Y-95000000D02*
X168460000Y-95000000D01*
X169730000Y-92460000D02*
G75*
G02*
X162110000Y-92460000I-3810000J0D01*
G01*
X162110000Y-92460000D02*
G75*
G02*
X169730000Y-92460000I3810000J0D01*
G01*
X172270000Y-96270000D02*
X163380000Y-96270000D01*
X160840000Y-93730000D01*
X160840000Y-91190000D01*
X163380000Y-88650000D01*
X172270000Y-88650000D01*
X172270000Y-96270000D01*
X166555000Y-91825000D02*
X167825000Y-91825000D01*
X167825000Y-93095000D01*
X166555000Y-93095000D01*
X166555000Y-94365000D01*
X165285000Y-94365000D01*
X165285000Y-93095000D01*
X164015000Y-93095000D01*
X164015000Y-91825000D01*
X165285000Y-91825000D01*
X165285000Y-90555000D01*
X166555000Y-90555000D01*
X166555000Y-91825000D01*
G36*
X166555000Y-91825000D02*
G01*
X167825000Y-91825000D01*
X167825000Y-93095000D01*
X166555000Y-93095000D01*
X166555000Y-94365000D01*
X165285000Y-94365000D01*
X165285000Y-93095000D01*
X164015000Y-93095000D01*
X164015000Y-91825000D01*
X165285000Y-91825000D01*
X165285000Y-90555000D01*
X166555000Y-90555000D01*
X166555000Y-91825000D01*
G37*
D12*
%TO.C,R3*%
X118460000Y-76730000D02*
X118460000Y-78000000D01*
X118460000Y-78000000D02*
X117190000Y-78000000D01*
X118460000Y-78000000D02*
X118460000Y-79270000D01*
X118460000Y-79270000D02*
X123540000Y-79270000D01*
X123540000Y-76730000D02*
X118460000Y-76730000D01*
X123540000Y-78000000D02*
X123540000Y-76730000D01*
X123540000Y-78000000D02*
X124810000Y-78000000D01*
X123540000Y-79270000D02*
X123540000Y-78000000D01*
D13*
%TO.C,PNP*%
X114030000Y-76290000D02*
X110430000Y-76290000D01*
X112230000Y-80740000D02*
G75*
G02*
X110391522Y-76301522I0J2600000D01*
G01*
X114068478Y-76301522D02*
G75*
G02*
X112230000Y-80740001I-1838478J-1838478D01*
G01*
%TD*%
%LPC*%
D14*
%TO.C,U2*%
X175310000Y-92060000D03*
X175310000Y-56500000D03*
X108000000Y-92060000D03*
X108000000Y-56500000D03*
D15*
X180390000Y-62850000D03*
X180390000Y-67930000D03*
X180390000Y-60310000D03*
X180390000Y-75550000D03*
X180390000Y-65390000D03*
X180390000Y-73010000D03*
X180390000Y-70470000D03*
X180390000Y-78090000D03*
D16*
X106730000Y-70470000D03*
D15*
X106730000Y-75550000D03*
X106730000Y-73010000D03*
X106730000Y-78090000D03*
X180390000Y-80630000D03*
X180390000Y-83170000D03*
X180390000Y-85710000D03*
X180390000Y-88250000D03*
X180390000Y-90790000D03*
D16*
X180390000Y-57770000D03*
%TD*%
D17*
%TO.C,R1*%
X167310000Y-64085000D03*
X159690000Y-64085000D03*
%TD*%
D18*
%TO.C,PNP*%
X169230000Y-72500000D03*
D19*
X170500000Y-72500000D03*
X171770000Y-72500000D03*
%TD*%
D18*
%TO.C,NPN*%
X142730000Y-90500000D03*
D19*
X144000000Y-90500000D03*
X145270000Y-90500000D03*
%TD*%
D20*
%TO.C,LS1*%
X123920000Y-97500000D03*
D21*
X129000000Y-97500000D03*
%TD*%
D17*
%TO.C,R7*%
X141310000Y-95000000D03*
X133690000Y-95000000D03*
%TD*%
%TO.C,R2*%
X116690000Y-86500000D03*
X124310000Y-86500000D03*
%TD*%
%TO.C,R5*%
X110690000Y-93000000D03*
X118310000Y-93000000D03*
%TD*%
%TO.C,R9*%
X152190000Y-89000000D03*
X159810000Y-89000000D03*
%TD*%
%TO.C,LogicConverter1*%
X144770000Y-69920000D03*
X144770000Y-80080000D03*
X142230000Y-69920000D03*
D22*
X137150000Y-69920000D03*
D17*
X139690000Y-69920000D03*
X147310000Y-69920000D03*
X149850000Y-69920000D03*
X142230000Y-80080000D03*
X137150000Y-80080000D03*
X139690000Y-80080000D03*
X147310000Y-80080000D03*
X149850000Y-80080000D03*
%TD*%
%TO.C,R6*%
X170310000Y-78500000D03*
X162690000Y-78500000D03*
%TD*%
D18*
%TO.C,NPN*%
X171770000Y-64140000D03*
D19*
X170500000Y-64140000D03*
X169230000Y-64140000D03*
%TD*%
D17*
%TO.C,R4*%
X167310000Y-72500000D03*
X159690000Y-72500000D03*
%TD*%
%TO.C,R8*%
X149190000Y-98000000D03*
X156810000Y-98000000D03*
%TD*%
D23*
%TO.C,1*%
X149080000Y-57000000D03*
D17*
X146540000Y-57000000D03*
X144000000Y-57000000D03*
X138920000Y-54460000D03*
X138920000Y-57000000D03*
X141460000Y-57000000D03*
X141460000Y-54460000D03*
X149080000Y-54460000D03*
X144000000Y-54460000D03*
X146540000Y-54460000D03*
%TD*%
D18*
%TO.C,NPN*%
X108730000Y-86500000D03*
D19*
X110000000Y-86500000D03*
X111270000Y-86500000D03*
%TD*%
D15*
%TO.C,U3*%
X160840000Y-92460000D03*
X171000000Y-89920000D03*
X171000000Y-95000000D03*
%TD*%
D17*
%TO.C,R3*%
X117190000Y-78000000D03*
X124810000Y-78000000D03*
%TD*%
D18*
%TO.C,PNP*%
X113500000Y-78140000D03*
D19*
X112230000Y-78140000D03*
X110960000Y-78140000D03*
%TD*%
%LPD*%
M02*
