M48
; DRILL file {KiCad 8.0.4} date 2024-09-16T22:19:40-0600
; FORMAT={-:-/ absolute / metric / decimal}
; #@! TF.CreationDate,2024-09-16T22:19:40-06:00
; #@! TF.GenerationSoftware,Kicad,Pcbnew,8.0.4
; #@! TF.FileFunction,Plated,1,4,PTH
FMAT,2
METRIC
; #@! TA.AperFunction,Plated,PTH,ViaDrill
T1C0.300
; #@! TA.AperFunction,Plated,PTH,ComponentDrill
T2C0.700
; #@! TA.AperFunction,Plated,PTH,ComponentDrill
T3C0.889
; #@! TA.AperFunction,Plated,PTH,ComponentDrill
T4C0.900
; #@! TA.AperFunction,Plated,PTH,ComponentDrill
T5C1.000
; #@! TA.AperFunction,Plated,PTH,ViaDrill
T6C1.016
; #@! TA.AperFunction,Plated,PTH,ComponentDrill
T7C1.200
; #@! TA.AperFunction,Plated,PTH,ComponentDrill
T8C1.520
%
G90
G05
T1
X102.87Y-154.94
X140.97Y-130.81
X143.51Y-121.92
X143.51Y-130.81
X148.59Y-153.67
X149.86Y-151.13
X153.67Y-128.27
X154.94Y-148.59
X156.21Y-146.05
X168.91Y-129.54
T2
X91.19Y-57.5
X98.81Y-57.5
X182.5Y-111.19
X182.5Y-118.81
X187.5Y-111.19
X187.5Y-118.81
T3
X176.53Y-77.47
X176.53Y-80.01
X176.53Y-82.55
X176.53Y-85.09
X176.53Y-87.63
X176.53Y-90.17
X176.53Y-92.71
X176.53Y-95.25
X176.53Y-97.79
X176.53Y-100.33
X176.53Y-102.87
X176.53Y-105.41
X191.77Y-77.47
X191.77Y-80.01
X191.77Y-82.55
X191.77Y-85.09
X191.77Y-87.63
X191.77Y-90.17
X191.77Y-92.71
X191.77Y-95.25
X191.77Y-97.79
X191.77Y-100.33
X191.77Y-102.87
X191.77Y-105.41
T4
X79.96Y-157.46
X79.96Y-160.0
X82.5Y-157.46
X82.5Y-160.0
X85.04Y-157.46
X85.04Y-160.0
X87.58Y-157.46
X87.58Y-160.0
X103.069Y-63.7
X103.069Y-66.24
X103.069Y-68.78
X103.069Y-71.32
X103.069Y-73.86
X103.069Y-76.4
X103.069Y-78.94
X103.069Y-81.48
X103.069Y-84.02
X103.069Y-86.56
X103.069Y-90.37
X103.069Y-92.91
X103.069Y-95.45
X103.069Y-97.99
X103.069Y-100.53
X103.069Y-103.07
X103.069Y-105.61
X103.069Y-108.15
X103.069Y-113.23
X103.069Y-115.77
X103.069Y-118.31
X103.069Y-120.85
X103.069Y-123.39
X103.069Y-125.93
X103.069Y-128.47
X103.069Y-131.01
X103.069Y-138.63
X103.069Y-141.17
X105.608Y-138.63
X105.608Y-141.17
X108.148Y-138.63
X108.148Y-141.17
X110.688Y-138.63
X110.688Y-141.17
X113.228Y-138.63
X113.228Y-141.17
X115.768Y-138.63
X115.768Y-141.17
X118.308Y-138.63
X118.308Y-141.17
X120.849Y-138.63
X120.849Y-141.17
X123.388Y-138.63
X123.388Y-141.17
X125.928Y-138.63
X125.928Y-141.17
X128.469Y-138.63
X128.469Y-141.17
X131.008Y-138.63
X131.008Y-141.17
X133.548Y-138.63
X133.548Y-141.17
X136.088Y-138.63
X136.088Y-141.17
X138.629Y-138.63
X138.629Y-141.17
X141.168Y-138.63
X141.168Y-141.17
X143.708Y-138.63
X143.708Y-141.17
X146.249Y-138.63
X146.249Y-141.17
X151.328Y-75.13
X151.328Y-77.67
X151.328Y-80.21
X151.328Y-82.75
X151.328Y-85.29
X151.328Y-87.83
X151.328Y-90.37
X151.328Y-95.45
X151.328Y-97.99
X151.328Y-100.53
X151.328Y-103.07
X151.328Y-105.61
X151.328Y-108.15
X151.328Y-110.69
X151.328Y-113.23
X151.328Y-118.31
X151.328Y-120.85
X151.328Y-123.39
X151.328Y-125.93
X151.328Y-128.47
X151.328Y-131.01
X151.328Y-133.55
X151.328Y-136.09
X161.29Y-43.18
X161.29Y-45.72
X161.29Y-48.26
X161.29Y-50.8
X161.29Y-53.34
X162.38Y-132.46
X162.38Y-135.0
X163.83Y-43.18
X163.83Y-45.72
X163.83Y-48.26
X163.83Y-50.8
X163.83Y-53.34
X164.92Y-132.46
X164.92Y-135.0
X167.46Y-132.46
X167.46Y-135.0
X170.0Y-132.46
X170.0Y-135.0
X172.54Y-132.46
X172.54Y-135.0
X184.88Y-135.0
X184.96Y-125.0
X187.42Y-135.0
X187.5Y-125.0
X189.96Y-135.0
X190.04Y-125.0
X192.5Y-135.0
X192.58Y-125.0
X195.04Y-135.0
T5
X70.0Y-67.5
X72.5Y-67.5
X80.0Y-67.5
X82.5Y-67.5
X90.0Y-67.5
X90.0Y-87.5
X90.0Y-95.0
X90.0Y-102.5
X92.5Y-67.5
X92.5Y-87.5
X92.5Y-95.0
X92.5Y-102.5
X99.95Y-157.5
X99.95Y-160.0
X107.45Y-157.5
X107.45Y-160.0
X114.95Y-157.5
X114.95Y-160.0
X122.45Y-157.5
X122.45Y-160.0
X129.95Y-157.5
X129.95Y-160.0
X137.5Y-157.5
X137.5Y-160.0
X144.95Y-157.5
X144.95Y-160.0
X152.45Y-157.5
X152.45Y-160.0
X162.5Y-147.5
X165.0Y-147.5
X167.5Y-157.5
X170.0Y-157.5
X175.0Y-147.5
X177.5Y-147.5
X180.0Y-157.5
X182.5Y-157.5
X187.5Y-147.5
X190.0Y-147.5
T6
X123.19Y-63.5
T7
X160.0Y-115.0
X160.0Y-125.16
X167.5Y-115.0
X167.5Y-125.16
T8
X72.39Y-148.59
X72.39Y-153.67
X72.39Y-158.75
T5
G00X77.8Y-49.5
M15
G01X77.8Y-51.5
M16
G05
G00X83.5Y-47.5
M15
G01X81.5Y-47.5
M16
G05
G00X83.5Y-53.5
M15
G01X81.5Y-53.5
M16
G05
M30
