%TF.GenerationSoftware,KiCad,Pcbnew,8.0.4*%
%TF.CreationDate,2024-09-16T22:19:33-06:00*%
%TF.ProjectId,main V3b,6d61696e-2056-4336-922e-6b696361645f,rev?*%
%TF.SameCoordinates,Original*%
%TF.FileFunction,Legend,Top*%
%TF.FilePolarity,Positive*%
%FSLAX46Y46*%
G04 Gerber Fmt 4.6, Leading zero omitted, Abs format (unit mm)*
G04 Created by KiCad (PCBNEW 8.0.4) date 2024-09-16 22:19:33*
%MOMM*%
%LPD*%
G01*
G04 APERTURE LIST*
%ADD10C,0.150000*%
%ADD11C,0.101600*%
%ADD12C,0.100000*%
%ADD13C,0.127000*%
%ADD14C,0.120000*%
G04 APERTURE END LIST*
D10*
X187197618Y-124309726D02*
X187197618Y-125337821D01*
X187197618Y-125337821D02*
X187258095Y-125458773D01*
X187258095Y-125458773D02*
X187318571Y-125519250D01*
X187318571Y-125519250D02*
X187439523Y-125579726D01*
X187439523Y-125579726D02*
X187681428Y-125579726D01*
X187681428Y-125579726D02*
X187802380Y-125519250D01*
X187802380Y-125519250D02*
X187862857Y-125458773D01*
X187862857Y-125458773D02*
X187923333Y-125337821D01*
X187923333Y-125337821D02*
X187923333Y-124309726D01*
X188467618Y-125519250D02*
X188649047Y-125579726D01*
X188649047Y-125579726D02*
X188951428Y-125579726D01*
X188951428Y-125579726D02*
X189072380Y-125519250D01*
X189072380Y-125519250D02*
X189132856Y-125458773D01*
X189132856Y-125458773D02*
X189193333Y-125337821D01*
X189193333Y-125337821D02*
X189193333Y-125216869D01*
X189193333Y-125216869D02*
X189132856Y-125095916D01*
X189132856Y-125095916D02*
X189072380Y-125035440D01*
X189072380Y-125035440D02*
X188951428Y-124974964D01*
X188951428Y-124974964D02*
X188709523Y-124914488D01*
X188709523Y-124914488D02*
X188588571Y-124854011D01*
X188588571Y-124854011D02*
X188528094Y-124793535D01*
X188528094Y-124793535D02*
X188467618Y-124672583D01*
X188467618Y-124672583D02*
X188467618Y-124551630D01*
X188467618Y-124551630D02*
X188528094Y-124430678D01*
X188528094Y-124430678D02*
X188588571Y-124370202D01*
X188588571Y-124370202D02*
X188709523Y-124309726D01*
X188709523Y-124309726D02*
X189011904Y-124309726D01*
X189011904Y-124309726D02*
X189193333Y-124370202D01*
X188830475Y-124128297D02*
X188830475Y-125761154D01*
X189677142Y-124430678D02*
X189737618Y-124370202D01*
X189737618Y-124370202D02*
X189858571Y-124309726D01*
X189858571Y-124309726D02*
X190160952Y-124309726D01*
X190160952Y-124309726D02*
X190281904Y-124370202D01*
X190281904Y-124370202D02*
X190342380Y-124430678D01*
X190342380Y-124430678D02*
X190402857Y-124551630D01*
X190402857Y-124551630D02*
X190402857Y-124672583D01*
X190402857Y-124672583D02*
X190342380Y-124854011D01*
X190342380Y-124854011D02*
X189616666Y-125579726D01*
X189616666Y-125579726D02*
X190402857Y-125579726D01*
D11*
X186463756Y-122413326D02*
X187242689Y-122413326D01*
X187242689Y-122413326D02*
X186741946Y-123581726D01*
X188522366Y-123526088D02*
X188689280Y-123581726D01*
X188689280Y-123581726D02*
X188967471Y-123581726D01*
X188967471Y-123581726D02*
X189078747Y-123526088D01*
X189078747Y-123526088D02*
X189134385Y-123470449D01*
X189134385Y-123470449D02*
X189190023Y-123359173D01*
X189190023Y-123359173D02*
X189190023Y-123247897D01*
X189190023Y-123247897D02*
X189134385Y-123136621D01*
X189134385Y-123136621D02*
X189078747Y-123080983D01*
X189078747Y-123080983D02*
X188967471Y-123025345D01*
X188967471Y-123025345D02*
X188744918Y-122969707D01*
X188744918Y-122969707D02*
X188633642Y-122914068D01*
X188633642Y-122914068D02*
X188578004Y-122858430D01*
X188578004Y-122858430D02*
X188522366Y-122747154D01*
X188522366Y-122747154D02*
X188522366Y-122635878D01*
X188522366Y-122635878D02*
X188578004Y-122524602D01*
X188578004Y-122524602D02*
X188633642Y-122468964D01*
X188633642Y-122468964D02*
X188744918Y-122413326D01*
X188744918Y-122413326D02*
X189023109Y-122413326D01*
X189023109Y-122413326D02*
X189190023Y-122468964D01*
X189690766Y-122969707D02*
X190080233Y-122969707D01*
X190247147Y-123581726D02*
X189690766Y-123581726D01*
X189690766Y-123581726D02*
X189690766Y-122413326D01*
X189690766Y-122413326D02*
X190247147Y-122413326D01*
X191359909Y-122468964D02*
X191248633Y-122413326D01*
X191248633Y-122413326D02*
X191081719Y-122413326D01*
X191081719Y-122413326D02*
X190914804Y-122468964D01*
X190914804Y-122468964D02*
X190803528Y-122580240D01*
X190803528Y-122580240D02*
X190747890Y-122691516D01*
X190747890Y-122691516D02*
X190692252Y-122914068D01*
X190692252Y-122914068D02*
X190692252Y-123080983D01*
X190692252Y-123080983D02*
X190747890Y-123303535D01*
X190747890Y-123303535D02*
X190803528Y-123414811D01*
X190803528Y-123414811D02*
X190914804Y-123526088D01*
X190914804Y-123526088D02*
X191081719Y-123581726D01*
X191081719Y-123581726D02*
X191192995Y-123581726D01*
X191192995Y-123581726D02*
X191359909Y-123526088D01*
X191359909Y-123526088D02*
X191415547Y-123470449D01*
X191415547Y-123470449D02*
X191415547Y-123080983D01*
X191415547Y-123080983D02*
X191192995Y-123080983D01*
X190385032Y-126946621D02*
X191275242Y-126946621D01*
X192925032Y-126946621D02*
X193815242Y-126946621D01*
X193370137Y-127391726D02*
X193370137Y-126501516D01*
X187845032Y-127391726D02*
X187845032Y-126223326D01*
X187845032Y-126223326D02*
X188123222Y-126223326D01*
X188123222Y-126223326D02*
X188290137Y-126278964D01*
X188290137Y-126278964D02*
X188401413Y-126390240D01*
X188401413Y-126390240D02*
X188457051Y-126501516D01*
X188457051Y-126501516D02*
X188512689Y-126724068D01*
X188512689Y-126724068D02*
X188512689Y-126890983D01*
X188512689Y-126890983D02*
X188457051Y-127113535D01*
X188457051Y-127113535D02*
X188401413Y-127224811D01*
X188401413Y-127224811D02*
X188290137Y-127336088D01*
X188290137Y-127336088D02*
X188123222Y-127391726D01*
X188123222Y-127391726D02*
X187845032Y-127391726D01*
X185972689Y-127280449D02*
X185917051Y-127336088D01*
X185917051Y-127336088D02*
X185750137Y-127391726D01*
X185750137Y-127391726D02*
X185638861Y-127391726D01*
X185638861Y-127391726D02*
X185471946Y-127336088D01*
X185471946Y-127336088D02*
X185360670Y-127224811D01*
X185360670Y-127224811D02*
X185305032Y-127113535D01*
X185305032Y-127113535D02*
X185249394Y-126890983D01*
X185249394Y-126890983D02*
X185249394Y-126724068D01*
X185249394Y-126724068D02*
X185305032Y-126501516D01*
X185305032Y-126501516D02*
X185360670Y-126390240D01*
X185360670Y-126390240D02*
X185471946Y-126278964D01*
X185471946Y-126278964D02*
X185638861Y-126223326D01*
X185638861Y-126223326D02*
X185750137Y-126223326D01*
X185750137Y-126223326D02*
X185917051Y-126278964D01*
X185917051Y-126278964D02*
X185972689Y-126334602D01*
D10*
X76204819Y-45383333D02*
X76919104Y-45383333D01*
X76919104Y-45383333D02*
X77061961Y-45430952D01*
X77061961Y-45430952D02*
X77157200Y-45526190D01*
X77157200Y-45526190D02*
X77204819Y-45669047D01*
X77204819Y-45669047D02*
X77204819Y-45764285D01*
X77204819Y-44383333D02*
X77204819Y-44954761D01*
X77204819Y-44669047D02*
X76204819Y-44669047D01*
X76204819Y-44669047D02*
X76347676Y-44764285D01*
X76347676Y-44764285D02*
X76442914Y-44859523D01*
X76442914Y-44859523D02*
X76490533Y-44954761D01*
X140707200Y-160083332D02*
X140754819Y-159940475D01*
X140754819Y-159940475D02*
X140754819Y-159702380D01*
X140754819Y-159702380D02*
X140707200Y-159607142D01*
X140707200Y-159607142D02*
X140659580Y-159559523D01*
X140659580Y-159559523D02*
X140564342Y-159511904D01*
X140564342Y-159511904D02*
X140469104Y-159511904D01*
X140469104Y-159511904D02*
X140373866Y-159559523D01*
X140373866Y-159559523D02*
X140326247Y-159607142D01*
X140326247Y-159607142D02*
X140278628Y-159702380D01*
X140278628Y-159702380D02*
X140231009Y-159892856D01*
X140231009Y-159892856D02*
X140183390Y-159988094D01*
X140183390Y-159988094D02*
X140135771Y-160035713D01*
X140135771Y-160035713D02*
X140040533Y-160083332D01*
X140040533Y-160083332D02*
X139945295Y-160083332D01*
X139945295Y-160083332D02*
X139850057Y-160035713D01*
X139850057Y-160035713D02*
X139802438Y-159988094D01*
X139802438Y-159988094D02*
X139754819Y-159892856D01*
X139754819Y-159892856D02*
X139754819Y-159654761D01*
X139754819Y-159654761D02*
X139802438Y-159511904D01*
X139754819Y-159178570D02*
X140754819Y-158940475D01*
X140754819Y-158940475D02*
X140040533Y-158749999D01*
X140040533Y-158749999D02*
X140754819Y-158559523D01*
X140754819Y-158559523D02*
X139754819Y-158321428D01*
X139754819Y-157511904D02*
X139754819Y-157702380D01*
X139754819Y-157702380D02*
X139802438Y-157797618D01*
X139802438Y-157797618D02*
X139850057Y-157845237D01*
X139850057Y-157845237D02*
X139992914Y-157940475D01*
X139992914Y-157940475D02*
X140183390Y-157988094D01*
X140183390Y-157988094D02*
X140564342Y-157988094D01*
X140564342Y-157988094D02*
X140659580Y-157940475D01*
X140659580Y-157940475D02*
X140707200Y-157892856D01*
X140707200Y-157892856D02*
X140754819Y-157797618D01*
X140754819Y-157797618D02*
X140754819Y-157607142D01*
X140754819Y-157607142D02*
X140707200Y-157511904D01*
X140707200Y-157511904D02*
X140659580Y-157464285D01*
X140659580Y-157464285D02*
X140564342Y-157416666D01*
X140564342Y-157416666D02*
X140326247Y-157416666D01*
X140326247Y-157416666D02*
X140231009Y-157464285D01*
X140231009Y-157464285D02*
X140183390Y-157511904D01*
X140183390Y-157511904D02*
X140135771Y-157607142D01*
X140135771Y-157607142D02*
X140135771Y-157797618D01*
X140135771Y-157797618D02*
X140183390Y-157892856D01*
X140183390Y-157892856D02*
X140231009Y-157940475D01*
X140231009Y-157940475D02*
X140326247Y-157988094D01*
X125657200Y-160083332D02*
X125704819Y-159940475D01*
X125704819Y-159940475D02*
X125704819Y-159702380D01*
X125704819Y-159702380D02*
X125657200Y-159607142D01*
X125657200Y-159607142D02*
X125609580Y-159559523D01*
X125609580Y-159559523D02*
X125514342Y-159511904D01*
X125514342Y-159511904D02*
X125419104Y-159511904D01*
X125419104Y-159511904D02*
X125323866Y-159559523D01*
X125323866Y-159559523D02*
X125276247Y-159607142D01*
X125276247Y-159607142D02*
X125228628Y-159702380D01*
X125228628Y-159702380D02*
X125181009Y-159892856D01*
X125181009Y-159892856D02*
X125133390Y-159988094D01*
X125133390Y-159988094D02*
X125085771Y-160035713D01*
X125085771Y-160035713D02*
X124990533Y-160083332D01*
X124990533Y-160083332D02*
X124895295Y-160083332D01*
X124895295Y-160083332D02*
X124800057Y-160035713D01*
X124800057Y-160035713D02*
X124752438Y-159988094D01*
X124752438Y-159988094D02*
X124704819Y-159892856D01*
X124704819Y-159892856D02*
X124704819Y-159654761D01*
X124704819Y-159654761D02*
X124752438Y-159511904D01*
X124704819Y-159178570D02*
X125704819Y-158940475D01*
X125704819Y-158940475D02*
X124990533Y-158749999D01*
X124990533Y-158749999D02*
X125704819Y-158559523D01*
X125704819Y-158559523D02*
X124704819Y-158321428D01*
X125038152Y-157511904D02*
X125704819Y-157511904D01*
X124657200Y-157749999D02*
X125371485Y-157988094D01*
X125371485Y-157988094D02*
X125371485Y-157369047D01*
X103157200Y-160083332D02*
X103204819Y-159940475D01*
X103204819Y-159940475D02*
X103204819Y-159702380D01*
X103204819Y-159702380D02*
X103157200Y-159607142D01*
X103157200Y-159607142D02*
X103109580Y-159559523D01*
X103109580Y-159559523D02*
X103014342Y-159511904D01*
X103014342Y-159511904D02*
X102919104Y-159511904D01*
X102919104Y-159511904D02*
X102823866Y-159559523D01*
X102823866Y-159559523D02*
X102776247Y-159607142D01*
X102776247Y-159607142D02*
X102728628Y-159702380D01*
X102728628Y-159702380D02*
X102681009Y-159892856D01*
X102681009Y-159892856D02*
X102633390Y-159988094D01*
X102633390Y-159988094D02*
X102585771Y-160035713D01*
X102585771Y-160035713D02*
X102490533Y-160083332D01*
X102490533Y-160083332D02*
X102395295Y-160083332D01*
X102395295Y-160083332D02*
X102300057Y-160035713D01*
X102300057Y-160035713D02*
X102252438Y-159988094D01*
X102252438Y-159988094D02*
X102204819Y-159892856D01*
X102204819Y-159892856D02*
X102204819Y-159654761D01*
X102204819Y-159654761D02*
X102252438Y-159511904D01*
X102204819Y-159178570D02*
X103204819Y-158940475D01*
X103204819Y-158940475D02*
X102490533Y-158749999D01*
X102490533Y-158749999D02*
X103204819Y-158559523D01*
X103204819Y-158559523D02*
X102204819Y-158321428D01*
X103204819Y-157416666D02*
X103204819Y-157988094D01*
X103204819Y-157702380D02*
X102204819Y-157702380D01*
X102204819Y-157702380D02*
X102347676Y-157797618D01*
X102347676Y-157797618D02*
X102442914Y-157892856D01*
X102442914Y-157892856D02*
X102490533Y-157988094D01*
X181034819Y-115166666D02*
X180558628Y-115499999D01*
X181034819Y-115738094D02*
X180034819Y-115738094D01*
X180034819Y-115738094D02*
X180034819Y-115357142D01*
X180034819Y-115357142D02*
X180082438Y-115261904D01*
X180082438Y-115261904D02*
X180130057Y-115214285D01*
X180130057Y-115214285D02*
X180225295Y-115166666D01*
X180225295Y-115166666D02*
X180368152Y-115166666D01*
X180368152Y-115166666D02*
X180463390Y-115214285D01*
X180463390Y-115214285D02*
X180511009Y-115261904D01*
X180511009Y-115261904D02*
X180558628Y-115357142D01*
X180558628Y-115357142D02*
X180558628Y-115738094D01*
X180130057Y-114785713D02*
X180082438Y-114738094D01*
X180082438Y-114738094D02*
X180034819Y-114642856D01*
X180034819Y-114642856D02*
X180034819Y-114404761D01*
X180034819Y-114404761D02*
X180082438Y-114309523D01*
X180082438Y-114309523D02*
X180130057Y-114261904D01*
X180130057Y-114261904D02*
X180225295Y-114214285D01*
X180225295Y-114214285D02*
X180320533Y-114214285D01*
X180320533Y-114214285D02*
X180463390Y-114261904D01*
X180463390Y-114261904D02*
X181034819Y-114833332D01*
X181034819Y-114833332D02*
X181034819Y-114214285D01*
X163139726Y-47897142D02*
X163139726Y-48622857D01*
X163139726Y-48260000D02*
X161869726Y-48260000D01*
X161869726Y-48260000D02*
X162051154Y-48380952D01*
X162051154Y-48380952D02*
X162172107Y-48501904D01*
X162172107Y-48501904D02*
X162232583Y-48622857D01*
D11*
X177753326Y-64536243D02*
X178921726Y-64258053D01*
X178921726Y-64258053D02*
X178087154Y-64035500D01*
X178087154Y-64035500D02*
X178921726Y-63812948D01*
X178921726Y-63812948D02*
X177753326Y-63534758D01*
X177753326Y-62533272D02*
X177753326Y-63089653D01*
X177753326Y-63089653D02*
X178309707Y-63145291D01*
X178309707Y-63145291D02*
X178254068Y-63089653D01*
X178254068Y-63089653D02*
X178198430Y-62978377D01*
X178198430Y-62978377D02*
X178198430Y-62700186D01*
X178198430Y-62700186D02*
X178254068Y-62588910D01*
X178254068Y-62588910D02*
X178309707Y-62533272D01*
X178309707Y-62533272D02*
X178420983Y-62477634D01*
X178420983Y-62477634D02*
X178699173Y-62477634D01*
X178699173Y-62477634D02*
X178810449Y-62533272D01*
X178810449Y-62533272D02*
X178866088Y-62588910D01*
X178866088Y-62588910D02*
X178921726Y-62700186D01*
X178921726Y-62700186D02*
X178921726Y-62978377D01*
X178921726Y-62978377D02*
X178866088Y-63089653D01*
X178866088Y-63089653D02*
X178810449Y-63145291D01*
X177753326Y-61420510D02*
X177753326Y-61976891D01*
X177753326Y-61976891D02*
X178309707Y-62032529D01*
X178309707Y-62032529D02*
X178254068Y-61976891D01*
X178254068Y-61976891D02*
X178198430Y-61865615D01*
X178198430Y-61865615D02*
X178198430Y-61587424D01*
X178198430Y-61587424D02*
X178254068Y-61476148D01*
X178254068Y-61476148D02*
X178309707Y-61420510D01*
X178309707Y-61420510D02*
X178420983Y-61364872D01*
X178420983Y-61364872D02*
X178699173Y-61364872D01*
X178699173Y-61364872D02*
X178810449Y-61420510D01*
X178810449Y-61420510D02*
X178866088Y-61476148D01*
X178866088Y-61476148D02*
X178921726Y-61587424D01*
X178921726Y-61587424D02*
X178921726Y-61865615D01*
X178921726Y-61865615D02*
X178866088Y-61976891D01*
X178866088Y-61976891D02*
X178810449Y-62032529D01*
X177753326Y-60641577D02*
X177753326Y-60530300D01*
X177753326Y-60530300D02*
X177808964Y-60419024D01*
X177808964Y-60419024D02*
X177864602Y-60363386D01*
X177864602Y-60363386D02*
X177975878Y-60307748D01*
X177975878Y-60307748D02*
X178198430Y-60252110D01*
X178198430Y-60252110D02*
X178476621Y-60252110D01*
X178476621Y-60252110D02*
X178699173Y-60307748D01*
X178699173Y-60307748D02*
X178810449Y-60363386D01*
X178810449Y-60363386D02*
X178866088Y-60419024D01*
X178866088Y-60419024D02*
X178921726Y-60530300D01*
X178921726Y-60530300D02*
X178921726Y-60641577D01*
X178921726Y-60641577D02*
X178866088Y-60752853D01*
X178866088Y-60752853D02*
X178810449Y-60808491D01*
X178810449Y-60808491D02*
X178699173Y-60864129D01*
X178699173Y-60864129D02*
X178476621Y-60919767D01*
X178476621Y-60919767D02*
X178198430Y-60919767D01*
X178198430Y-60919767D02*
X177975878Y-60864129D01*
X177975878Y-60864129D02*
X177864602Y-60808491D01*
X177864602Y-60808491D02*
X177808964Y-60752853D01*
X177808964Y-60752853D02*
X177753326Y-60641577D01*
X177753326Y-59528815D02*
X177753326Y-59417538D01*
X177753326Y-59417538D02*
X177808964Y-59306262D01*
X177808964Y-59306262D02*
X177864602Y-59250624D01*
X177864602Y-59250624D02*
X177975878Y-59194986D01*
X177975878Y-59194986D02*
X178198430Y-59139348D01*
X178198430Y-59139348D02*
X178476621Y-59139348D01*
X178476621Y-59139348D02*
X178699173Y-59194986D01*
X178699173Y-59194986D02*
X178810449Y-59250624D01*
X178810449Y-59250624D02*
X178866088Y-59306262D01*
X178866088Y-59306262D02*
X178921726Y-59417538D01*
X178921726Y-59417538D02*
X178921726Y-59528815D01*
X178921726Y-59528815D02*
X178866088Y-59640091D01*
X178866088Y-59640091D02*
X178810449Y-59695729D01*
X178810449Y-59695729D02*
X178699173Y-59751367D01*
X178699173Y-59751367D02*
X178476621Y-59807005D01*
X178476621Y-59807005D02*
X178198430Y-59807005D01*
X178198430Y-59807005D02*
X177975878Y-59751367D01*
X177975878Y-59751367D02*
X177864602Y-59695729D01*
X177864602Y-59695729D02*
X177808964Y-59640091D01*
X177808964Y-59640091D02*
X177753326Y-59528815D01*
X178309707Y-57748395D02*
X178309707Y-57358928D01*
X178921726Y-57192014D02*
X178921726Y-57748395D01*
X178921726Y-57748395D02*
X177753326Y-57748395D01*
X177753326Y-57748395D02*
X177753326Y-57192014D01*
X178142792Y-56858185D02*
X178142792Y-56413081D01*
X177753326Y-56691271D02*
X178754811Y-56691271D01*
X178754811Y-56691271D02*
X178866088Y-56635633D01*
X178866088Y-56635633D02*
X178921726Y-56524357D01*
X178921726Y-56524357D02*
X178921726Y-56413081D01*
X178921726Y-56023614D02*
X177753326Y-56023614D01*
X178921726Y-55522871D02*
X178309707Y-55522871D01*
X178309707Y-55522871D02*
X178198430Y-55578509D01*
X178198430Y-55578509D02*
X178142792Y-55689785D01*
X178142792Y-55689785D02*
X178142792Y-55856700D01*
X178142792Y-55856700D02*
X178198430Y-55967976D01*
X178198430Y-55967976D02*
X178254068Y-56023614D01*
X178866088Y-54521385D02*
X178921726Y-54632661D01*
X178921726Y-54632661D02*
X178921726Y-54855214D01*
X178921726Y-54855214D02*
X178866088Y-54966490D01*
X178866088Y-54966490D02*
X178754811Y-55022128D01*
X178754811Y-55022128D02*
X178309707Y-55022128D01*
X178309707Y-55022128D02*
X178198430Y-54966490D01*
X178198430Y-54966490D02*
X178142792Y-54855214D01*
X178142792Y-54855214D02*
X178142792Y-54632661D01*
X178142792Y-54632661D02*
X178198430Y-54521385D01*
X178198430Y-54521385D02*
X178309707Y-54465747D01*
X178309707Y-54465747D02*
X178420983Y-54465747D01*
X178420983Y-54465747D02*
X178532259Y-55022128D01*
X178921726Y-53965004D02*
X178142792Y-53965004D01*
X178365345Y-53965004D02*
X178254068Y-53909366D01*
X178254068Y-53909366D02*
X178198430Y-53853728D01*
X178198430Y-53853728D02*
X178142792Y-53742452D01*
X178142792Y-53742452D02*
X178142792Y-53631175D01*
X178142792Y-53241709D02*
X178921726Y-53241709D01*
X178254068Y-53241709D02*
X178198430Y-53186071D01*
X178198430Y-53186071D02*
X178142792Y-53074795D01*
X178142792Y-53074795D02*
X178142792Y-52907880D01*
X178142792Y-52907880D02*
X178198430Y-52796604D01*
X178198430Y-52796604D02*
X178309707Y-52740966D01*
X178309707Y-52740966D02*
X178921726Y-52740966D01*
X178866088Y-51739480D02*
X178921726Y-51850756D01*
X178921726Y-51850756D02*
X178921726Y-52073309D01*
X178921726Y-52073309D02*
X178866088Y-52184585D01*
X178866088Y-52184585D02*
X178754811Y-52240223D01*
X178754811Y-52240223D02*
X178309707Y-52240223D01*
X178309707Y-52240223D02*
X178198430Y-52184585D01*
X178198430Y-52184585D02*
X178142792Y-52073309D01*
X178142792Y-52073309D02*
X178142792Y-51850756D01*
X178142792Y-51850756D02*
X178198430Y-51739480D01*
X178198430Y-51739480D02*
X178309707Y-51683842D01*
X178309707Y-51683842D02*
X178420983Y-51683842D01*
X178420983Y-51683842D02*
X178532259Y-52240223D01*
X178142792Y-51350013D02*
X178142792Y-50904909D01*
X177753326Y-51183099D02*
X178754811Y-51183099D01*
X178754811Y-51183099D02*
X178866088Y-51127461D01*
X178866088Y-51127461D02*
X178921726Y-51016185D01*
X178921726Y-51016185D02*
X178921726Y-50904909D01*
X178587897Y-49680870D02*
X178587897Y-49124489D01*
X178921726Y-49792146D02*
X177753326Y-49402680D01*
X177753326Y-49402680D02*
X178921726Y-49013213D01*
X178921726Y-48123003D02*
X177753326Y-48123003D01*
X178866088Y-48123003D02*
X178921726Y-48234279D01*
X178921726Y-48234279D02*
X178921726Y-48456832D01*
X178921726Y-48456832D02*
X178866088Y-48568108D01*
X178866088Y-48568108D02*
X178810449Y-48623746D01*
X178810449Y-48623746D02*
X178699173Y-48679384D01*
X178699173Y-48679384D02*
X178365345Y-48679384D01*
X178365345Y-48679384D02*
X178254068Y-48623746D01*
X178254068Y-48623746D02*
X178198430Y-48568108D01*
X178198430Y-48568108D02*
X178142792Y-48456832D01*
X178142792Y-48456832D02*
X178142792Y-48234279D01*
X178142792Y-48234279D02*
X178198430Y-48123003D01*
X178921726Y-47065879D02*
X178309707Y-47065879D01*
X178309707Y-47065879D02*
X178198430Y-47121517D01*
X178198430Y-47121517D02*
X178142792Y-47232793D01*
X178142792Y-47232793D02*
X178142792Y-47455346D01*
X178142792Y-47455346D02*
X178198430Y-47566622D01*
X178866088Y-47065879D02*
X178921726Y-47177155D01*
X178921726Y-47177155D02*
X178921726Y-47455346D01*
X178921726Y-47455346D02*
X178866088Y-47566622D01*
X178866088Y-47566622D02*
X178754811Y-47622260D01*
X178754811Y-47622260D02*
X178643535Y-47622260D01*
X178643535Y-47622260D02*
X178532259Y-47566622D01*
X178532259Y-47566622D02*
X178476621Y-47455346D01*
X178476621Y-47455346D02*
X178476621Y-47177155D01*
X178476621Y-47177155D02*
X178420983Y-47065879D01*
X178142792Y-46509498D02*
X179311192Y-46509498D01*
X178198430Y-46509498D02*
X178142792Y-46398222D01*
X178142792Y-46398222D02*
X178142792Y-46175669D01*
X178142792Y-46175669D02*
X178198430Y-46064393D01*
X178198430Y-46064393D02*
X178254068Y-46008755D01*
X178254068Y-46008755D02*
X178365345Y-45953117D01*
X178365345Y-45953117D02*
X178699173Y-45953117D01*
X178699173Y-45953117D02*
X178810449Y-46008755D01*
X178810449Y-46008755D02*
X178866088Y-46064393D01*
X178866088Y-46064393D02*
X178921726Y-46175669D01*
X178921726Y-46175669D02*
X178921726Y-46398222D01*
X178921726Y-46398222D02*
X178866088Y-46509498D01*
X178142792Y-45619288D02*
X178142792Y-45174184D01*
X177753326Y-45452374D02*
X178754811Y-45452374D01*
X178754811Y-45452374D02*
X178866088Y-45396736D01*
X178866088Y-45396736D02*
X178921726Y-45285460D01*
X178921726Y-45285460D02*
X178921726Y-45174184D01*
X178866088Y-44339612D02*
X178921726Y-44450888D01*
X178921726Y-44450888D02*
X178921726Y-44673441D01*
X178921726Y-44673441D02*
X178866088Y-44784717D01*
X178866088Y-44784717D02*
X178754811Y-44840355D01*
X178754811Y-44840355D02*
X178309707Y-44840355D01*
X178309707Y-44840355D02*
X178198430Y-44784717D01*
X178198430Y-44784717D02*
X178142792Y-44673441D01*
X178142792Y-44673441D02*
X178142792Y-44450888D01*
X178142792Y-44450888D02*
X178198430Y-44339612D01*
X178198430Y-44339612D02*
X178309707Y-44283974D01*
X178309707Y-44283974D02*
X178420983Y-44283974D01*
X178420983Y-44283974D02*
X178532259Y-44840355D01*
X178921726Y-43783231D02*
X178142792Y-43783231D01*
X178365345Y-43783231D02*
X178254068Y-43727593D01*
X178254068Y-43727593D02*
X178198430Y-43671955D01*
X178198430Y-43671955D02*
X178142792Y-43560679D01*
X178142792Y-43560679D02*
X178142792Y-43449402D01*
D10*
X86726190Y-65154819D02*
X86726190Y-64154819D01*
X86726190Y-64154819D02*
X87107142Y-64154819D01*
X87107142Y-64154819D02*
X87202380Y-64202438D01*
X87202380Y-64202438D02*
X87249999Y-64250057D01*
X87249999Y-64250057D02*
X87297618Y-64345295D01*
X87297618Y-64345295D02*
X87297618Y-64488152D01*
X87297618Y-64488152D02*
X87249999Y-64583390D01*
X87249999Y-64583390D02*
X87202380Y-64631009D01*
X87202380Y-64631009D02*
X87107142Y-64678628D01*
X87107142Y-64678628D02*
X86726190Y-64678628D01*
X87916666Y-64154819D02*
X88107142Y-64154819D01*
X88107142Y-64154819D02*
X88202380Y-64202438D01*
X88202380Y-64202438D02*
X88297618Y-64297676D01*
X88297618Y-64297676D02*
X88345237Y-64488152D01*
X88345237Y-64488152D02*
X88345237Y-64821485D01*
X88345237Y-64821485D02*
X88297618Y-65011961D01*
X88297618Y-65011961D02*
X88202380Y-65107200D01*
X88202380Y-65107200D02*
X88107142Y-65154819D01*
X88107142Y-65154819D02*
X87916666Y-65154819D01*
X87916666Y-65154819D02*
X87821428Y-65107200D01*
X87821428Y-65107200D02*
X87726190Y-65011961D01*
X87726190Y-65011961D02*
X87678571Y-64821485D01*
X87678571Y-64821485D02*
X87678571Y-64488152D01*
X87678571Y-64488152D02*
X87726190Y-64297676D01*
X87726190Y-64297676D02*
X87821428Y-64202438D01*
X87821428Y-64202438D02*
X87916666Y-64154819D01*
X88678571Y-64154819D02*
X88916666Y-65154819D01*
X88916666Y-65154819D02*
X89107142Y-64440533D01*
X89107142Y-64440533D02*
X89297618Y-65154819D01*
X89297618Y-65154819D02*
X89535714Y-64154819D01*
X89916666Y-64631009D02*
X90249999Y-64631009D01*
X90392856Y-65154819D02*
X89916666Y-65154819D01*
X89916666Y-65154819D02*
X89916666Y-64154819D01*
X89916666Y-64154819D02*
X90392856Y-64154819D01*
X91392856Y-65154819D02*
X91059523Y-64678628D01*
X90821428Y-65154819D02*
X90821428Y-64154819D01*
X90821428Y-64154819D02*
X91202380Y-64154819D01*
X91202380Y-64154819D02*
X91297618Y-64202438D01*
X91297618Y-64202438D02*
X91345237Y-64250057D01*
X91345237Y-64250057D02*
X91392856Y-64345295D01*
X91392856Y-64345295D02*
X91392856Y-64488152D01*
X91392856Y-64488152D02*
X91345237Y-64583390D01*
X91345237Y-64583390D02*
X91297618Y-64631009D01*
X91297618Y-64631009D02*
X91202380Y-64678628D01*
X91202380Y-64678628D02*
X90821428Y-64678628D01*
X91583333Y-65250057D02*
X92345237Y-65250057D01*
X93059523Y-65154819D02*
X92583333Y-65154819D01*
X92583333Y-65154819D02*
X92583333Y-64154819D01*
X93392857Y-64631009D02*
X93726190Y-64631009D01*
X93869047Y-65154819D02*
X93392857Y-65154819D01*
X93392857Y-65154819D02*
X93392857Y-64154819D01*
X93392857Y-64154819D02*
X93869047Y-64154819D01*
X94297619Y-65154819D02*
X94297619Y-64154819D01*
X94297619Y-64154819D02*
X94535714Y-64154819D01*
X94535714Y-64154819D02*
X94678571Y-64202438D01*
X94678571Y-64202438D02*
X94773809Y-64297676D01*
X94773809Y-64297676D02*
X94821428Y-64392914D01*
X94821428Y-64392914D02*
X94869047Y-64583390D01*
X94869047Y-64583390D02*
X94869047Y-64726247D01*
X94869047Y-64726247D02*
X94821428Y-64916723D01*
X94821428Y-64916723D02*
X94773809Y-65011961D01*
X94773809Y-65011961D02*
X94678571Y-65107200D01*
X94678571Y-65107200D02*
X94535714Y-65154819D01*
X94535714Y-65154819D02*
X94297619Y-65154819D01*
X95488095Y-64154819D02*
X95583333Y-64154819D01*
X95583333Y-64154819D02*
X95678571Y-64202438D01*
X95678571Y-64202438D02*
X95726190Y-64250057D01*
X95726190Y-64250057D02*
X95773809Y-64345295D01*
X95773809Y-64345295D02*
X95821428Y-64535771D01*
X95821428Y-64535771D02*
X95821428Y-64773866D01*
X95821428Y-64773866D02*
X95773809Y-64964342D01*
X95773809Y-64964342D02*
X95726190Y-65059580D01*
X95726190Y-65059580D02*
X95678571Y-65107200D01*
X95678571Y-65107200D02*
X95583333Y-65154819D01*
X95583333Y-65154819D02*
X95488095Y-65154819D01*
X95488095Y-65154819D02*
X95392857Y-65107200D01*
X95392857Y-65107200D02*
X95345238Y-65059580D01*
X95345238Y-65059580D02*
X95297619Y-64964342D01*
X95297619Y-64964342D02*
X95250000Y-64773866D01*
X95250000Y-64773866D02*
X95250000Y-64535771D01*
X95250000Y-64535771D02*
X95297619Y-64345295D01*
X95297619Y-64345295D02*
X95345238Y-64250057D01*
X95345238Y-64250057D02*
X95392857Y-64202438D01*
X95392857Y-64202438D02*
X95488095Y-64154819D01*
X172559523Y-149754819D02*
X172559523Y-150469104D01*
X172559523Y-150469104D02*
X172511904Y-150611961D01*
X172511904Y-150611961D02*
X172416666Y-150707200D01*
X172416666Y-150707200D02*
X172273809Y-150754819D01*
X172273809Y-150754819D02*
X172178571Y-150754819D01*
X172988095Y-150469104D02*
X173464285Y-150469104D01*
X172892857Y-150754819D02*
X173226190Y-149754819D01*
X173226190Y-149754819D02*
X173559523Y-150754819D01*
X174464285Y-150659580D02*
X174416666Y-150707200D01*
X174416666Y-150707200D02*
X174273809Y-150754819D01*
X174273809Y-150754819D02*
X174178571Y-150754819D01*
X174178571Y-150754819D02*
X174035714Y-150707200D01*
X174035714Y-150707200D02*
X173940476Y-150611961D01*
X173940476Y-150611961D02*
X173892857Y-150516723D01*
X173892857Y-150516723D02*
X173845238Y-150326247D01*
X173845238Y-150326247D02*
X173845238Y-150183390D01*
X173845238Y-150183390D02*
X173892857Y-149992914D01*
X173892857Y-149992914D02*
X173940476Y-149897676D01*
X173940476Y-149897676D02*
X174035714Y-149802438D01*
X174035714Y-149802438D02*
X174178571Y-149754819D01*
X174178571Y-149754819D02*
X174273809Y-149754819D01*
X174273809Y-149754819D02*
X174416666Y-149802438D01*
X174416666Y-149802438D02*
X174464285Y-149850057D01*
X174892857Y-150754819D02*
X174892857Y-149754819D01*
X175464285Y-150754819D02*
X175035714Y-150183390D01*
X175464285Y-149754819D02*
X174892857Y-150326247D01*
X175654762Y-150850057D02*
X176416666Y-150850057D01*
X177226190Y-150659580D02*
X177178571Y-150707200D01*
X177178571Y-150707200D02*
X177035714Y-150754819D01*
X177035714Y-150754819D02*
X176940476Y-150754819D01*
X176940476Y-150754819D02*
X176797619Y-150707200D01*
X176797619Y-150707200D02*
X176702381Y-150611961D01*
X176702381Y-150611961D02*
X176654762Y-150516723D01*
X176654762Y-150516723D02*
X176607143Y-150326247D01*
X176607143Y-150326247D02*
X176607143Y-150183390D01*
X176607143Y-150183390D02*
X176654762Y-149992914D01*
X176654762Y-149992914D02*
X176702381Y-149897676D01*
X176702381Y-149897676D02*
X176797619Y-149802438D01*
X176797619Y-149802438D02*
X176940476Y-149754819D01*
X176940476Y-149754819D02*
X177035714Y-149754819D01*
X177035714Y-149754819D02*
X177178571Y-149802438D01*
X177178571Y-149802438D02*
X177226190Y-149850057D01*
X177845238Y-149754819D02*
X178035714Y-149754819D01*
X178035714Y-149754819D02*
X178130952Y-149802438D01*
X178130952Y-149802438D02*
X178226190Y-149897676D01*
X178226190Y-149897676D02*
X178273809Y-150088152D01*
X178273809Y-150088152D02*
X178273809Y-150421485D01*
X178273809Y-150421485D02*
X178226190Y-150611961D01*
X178226190Y-150611961D02*
X178130952Y-150707200D01*
X178130952Y-150707200D02*
X178035714Y-150754819D01*
X178035714Y-150754819D02*
X177845238Y-150754819D01*
X177845238Y-150754819D02*
X177750000Y-150707200D01*
X177750000Y-150707200D02*
X177654762Y-150611961D01*
X177654762Y-150611961D02*
X177607143Y-150421485D01*
X177607143Y-150421485D02*
X177607143Y-150088152D01*
X177607143Y-150088152D02*
X177654762Y-149897676D01*
X177654762Y-149897676D02*
X177750000Y-149802438D01*
X177750000Y-149802438D02*
X177845238Y-149754819D01*
X178702381Y-150754819D02*
X178702381Y-149754819D01*
X178702381Y-149754819D02*
X179273809Y-150754819D01*
X179273809Y-150754819D02*
X179273809Y-149754819D01*
X179654762Y-149754819D02*
X180273809Y-149754819D01*
X180273809Y-149754819D02*
X179940476Y-150135771D01*
X179940476Y-150135771D02*
X180083333Y-150135771D01*
X180083333Y-150135771D02*
X180178571Y-150183390D01*
X180178571Y-150183390D02*
X180226190Y-150231009D01*
X180226190Y-150231009D02*
X180273809Y-150326247D01*
X180273809Y-150326247D02*
X180273809Y-150564342D01*
X180273809Y-150564342D02*
X180226190Y-150659580D01*
X180226190Y-150659580D02*
X180178571Y-150707200D01*
X180178571Y-150707200D02*
X180083333Y-150754819D01*
X180083333Y-150754819D02*
X179797619Y-150754819D01*
X179797619Y-150754819D02*
X179702381Y-150707200D01*
X179702381Y-150707200D02*
X179654762Y-150659580D01*
X160059523Y-149754819D02*
X160059523Y-150469104D01*
X160059523Y-150469104D02*
X160011904Y-150611961D01*
X160011904Y-150611961D02*
X159916666Y-150707200D01*
X159916666Y-150707200D02*
X159773809Y-150754819D01*
X159773809Y-150754819D02*
X159678571Y-150754819D01*
X160488095Y-150469104D02*
X160964285Y-150469104D01*
X160392857Y-150754819D02*
X160726190Y-149754819D01*
X160726190Y-149754819D02*
X161059523Y-150754819D01*
X161964285Y-150659580D02*
X161916666Y-150707200D01*
X161916666Y-150707200D02*
X161773809Y-150754819D01*
X161773809Y-150754819D02*
X161678571Y-150754819D01*
X161678571Y-150754819D02*
X161535714Y-150707200D01*
X161535714Y-150707200D02*
X161440476Y-150611961D01*
X161440476Y-150611961D02*
X161392857Y-150516723D01*
X161392857Y-150516723D02*
X161345238Y-150326247D01*
X161345238Y-150326247D02*
X161345238Y-150183390D01*
X161345238Y-150183390D02*
X161392857Y-149992914D01*
X161392857Y-149992914D02*
X161440476Y-149897676D01*
X161440476Y-149897676D02*
X161535714Y-149802438D01*
X161535714Y-149802438D02*
X161678571Y-149754819D01*
X161678571Y-149754819D02*
X161773809Y-149754819D01*
X161773809Y-149754819D02*
X161916666Y-149802438D01*
X161916666Y-149802438D02*
X161964285Y-149850057D01*
X162392857Y-150754819D02*
X162392857Y-149754819D01*
X162964285Y-150754819D02*
X162535714Y-150183390D01*
X162964285Y-149754819D02*
X162392857Y-150326247D01*
X163154762Y-150850057D02*
X163916666Y-150850057D01*
X164726190Y-150659580D02*
X164678571Y-150707200D01*
X164678571Y-150707200D02*
X164535714Y-150754819D01*
X164535714Y-150754819D02*
X164440476Y-150754819D01*
X164440476Y-150754819D02*
X164297619Y-150707200D01*
X164297619Y-150707200D02*
X164202381Y-150611961D01*
X164202381Y-150611961D02*
X164154762Y-150516723D01*
X164154762Y-150516723D02*
X164107143Y-150326247D01*
X164107143Y-150326247D02*
X164107143Y-150183390D01*
X164107143Y-150183390D02*
X164154762Y-149992914D01*
X164154762Y-149992914D02*
X164202381Y-149897676D01*
X164202381Y-149897676D02*
X164297619Y-149802438D01*
X164297619Y-149802438D02*
X164440476Y-149754819D01*
X164440476Y-149754819D02*
X164535714Y-149754819D01*
X164535714Y-149754819D02*
X164678571Y-149802438D01*
X164678571Y-149802438D02*
X164726190Y-149850057D01*
X165345238Y-149754819D02*
X165535714Y-149754819D01*
X165535714Y-149754819D02*
X165630952Y-149802438D01*
X165630952Y-149802438D02*
X165726190Y-149897676D01*
X165726190Y-149897676D02*
X165773809Y-150088152D01*
X165773809Y-150088152D02*
X165773809Y-150421485D01*
X165773809Y-150421485D02*
X165726190Y-150611961D01*
X165726190Y-150611961D02*
X165630952Y-150707200D01*
X165630952Y-150707200D02*
X165535714Y-150754819D01*
X165535714Y-150754819D02*
X165345238Y-150754819D01*
X165345238Y-150754819D02*
X165250000Y-150707200D01*
X165250000Y-150707200D02*
X165154762Y-150611961D01*
X165154762Y-150611961D02*
X165107143Y-150421485D01*
X165107143Y-150421485D02*
X165107143Y-150088152D01*
X165107143Y-150088152D02*
X165154762Y-149897676D01*
X165154762Y-149897676D02*
X165250000Y-149802438D01*
X165250000Y-149802438D02*
X165345238Y-149754819D01*
X166202381Y-150754819D02*
X166202381Y-149754819D01*
X166202381Y-149754819D02*
X166773809Y-150754819D01*
X166773809Y-150754819D02*
X166773809Y-149754819D01*
X167773809Y-150754819D02*
X167202381Y-150754819D01*
X167488095Y-150754819D02*
X167488095Y-149754819D01*
X167488095Y-149754819D02*
X167392857Y-149897676D01*
X167392857Y-149897676D02*
X167297619Y-149992914D01*
X167297619Y-149992914D02*
X167202381Y-150040533D01*
X165887618Y-133039726D02*
X165887618Y-134067821D01*
X165887618Y-134067821D02*
X165948095Y-134188773D01*
X165948095Y-134188773D02*
X166008571Y-134249250D01*
X166008571Y-134249250D02*
X166129523Y-134309726D01*
X166129523Y-134309726D02*
X166371428Y-134309726D01*
X166371428Y-134309726D02*
X166492380Y-134249250D01*
X166492380Y-134249250D02*
X166552857Y-134188773D01*
X166552857Y-134188773D02*
X166613333Y-134067821D01*
X166613333Y-134067821D02*
X166613333Y-133039726D01*
X167157618Y-134249250D02*
X167339047Y-134309726D01*
X167339047Y-134309726D02*
X167641428Y-134309726D01*
X167641428Y-134309726D02*
X167762380Y-134249250D01*
X167762380Y-134249250D02*
X167822856Y-134188773D01*
X167822856Y-134188773D02*
X167883333Y-134067821D01*
X167883333Y-134067821D02*
X167883333Y-133946869D01*
X167883333Y-133946869D02*
X167822856Y-133825916D01*
X167822856Y-133825916D02*
X167762380Y-133765440D01*
X167762380Y-133765440D02*
X167641428Y-133704964D01*
X167641428Y-133704964D02*
X167399523Y-133644488D01*
X167399523Y-133644488D02*
X167278571Y-133584011D01*
X167278571Y-133584011D02*
X167218094Y-133523535D01*
X167218094Y-133523535D02*
X167157618Y-133402583D01*
X167157618Y-133402583D02*
X167157618Y-133281630D01*
X167157618Y-133281630D02*
X167218094Y-133160678D01*
X167218094Y-133160678D02*
X167278571Y-133100202D01*
X167278571Y-133100202D02*
X167399523Y-133039726D01*
X167399523Y-133039726D02*
X167701904Y-133039726D01*
X167701904Y-133039726D02*
X167883333Y-133100202D01*
X167520475Y-132858297D02*
X167520475Y-134491154D01*
X168306666Y-133039726D02*
X169092857Y-133039726D01*
X169092857Y-133039726D02*
X168669523Y-133523535D01*
X168669523Y-133523535D02*
X168850952Y-133523535D01*
X168850952Y-133523535D02*
X168971904Y-133584011D01*
X168971904Y-133584011D02*
X169032380Y-133644488D01*
X169032380Y-133644488D02*
X169092857Y-133765440D01*
X169092857Y-133765440D02*
X169092857Y-134067821D01*
X169092857Y-134067821D02*
X169032380Y-134188773D01*
X169032380Y-134188773D02*
X168971904Y-134249250D01*
X168971904Y-134249250D02*
X168850952Y-134309726D01*
X168850952Y-134309726D02*
X168488095Y-134309726D01*
X168488095Y-134309726D02*
X168367142Y-134249250D01*
X168367142Y-134249250D02*
X168306666Y-134188773D01*
X83797619Y-98207200D02*
X83940476Y-98254819D01*
X83940476Y-98254819D02*
X84178571Y-98254819D01*
X84178571Y-98254819D02*
X84273809Y-98207200D01*
X84273809Y-98207200D02*
X84321428Y-98159580D01*
X84321428Y-98159580D02*
X84369047Y-98064342D01*
X84369047Y-98064342D02*
X84369047Y-97969104D01*
X84369047Y-97969104D02*
X84321428Y-97873866D01*
X84321428Y-97873866D02*
X84273809Y-97826247D01*
X84273809Y-97826247D02*
X84178571Y-97778628D01*
X84178571Y-97778628D02*
X83988095Y-97731009D01*
X83988095Y-97731009D02*
X83892857Y-97683390D01*
X83892857Y-97683390D02*
X83845238Y-97635771D01*
X83845238Y-97635771D02*
X83797619Y-97540533D01*
X83797619Y-97540533D02*
X83797619Y-97445295D01*
X83797619Y-97445295D02*
X83845238Y-97350057D01*
X83845238Y-97350057D02*
X83892857Y-97302438D01*
X83892857Y-97302438D02*
X83988095Y-97254819D01*
X83988095Y-97254819D02*
X84226190Y-97254819D01*
X84226190Y-97254819D02*
X84369047Y-97302438D01*
X84797619Y-97731009D02*
X85130952Y-97731009D01*
X85273809Y-98254819D02*
X84797619Y-98254819D01*
X84797619Y-98254819D02*
X84797619Y-97254819D01*
X84797619Y-97254819D02*
X85273809Y-97254819D01*
X86273809Y-98159580D02*
X86226190Y-98207200D01*
X86226190Y-98207200D02*
X86083333Y-98254819D01*
X86083333Y-98254819D02*
X85988095Y-98254819D01*
X85988095Y-98254819D02*
X85845238Y-98207200D01*
X85845238Y-98207200D02*
X85750000Y-98111961D01*
X85750000Y-98111961D02*
X85702381Y-98016723D01*
X85702381Y-98016723D02*
X85654762Y-97826247D01*
X85654762Y-97826247D02*
X85654762Y-97683390D01*
X85654762Y-97683390D02*
X85702381Y-97492914D01*
X85702381Y-97492914D02*
X85750000Y-97397676D01*
X85750000Y-97397676D02*
X85845238Y-97302438D01*
X85845238Y-97302438D02*
X85988095Y-97254819D01*
X85988095Y-97254819D02*
X86083333Y-97254819D01*
X86083333Y-97254819D02*
X86226190Y-97302438D01*
X86226190Y-97302438D02*
X86273809Y-97350057D01*
X86559524Y-97254819D02*
X87130952Y-97254819D01*
X86845238Y-98254819D02*
X86845238Y-97254819D01*
X87464286Y-98254819D02*
X87464286Y-97254819D01*
X88130952Y-97254819D02*
X88321428Y-97254819D01*
X88321428Y-97254819D02*
X88416666Y-97302438D01*
X88416666Y-97302438D02*
X88511904Y-97397676D01*
X88511904Y-97397676D02*
X88559523Y-97588152D01*
X88559523Y-97588152D02*
X88559523Y-97921485D01*
X88559523Y-97921485D02*
X88511904Y-98111961D01*
X88511904Y-98111961D02*
X88416666Y-98207200D01*
X88416666Y-98207200D02*
X88321428Y-98254819D01*
X88321428Y-98254819D02*
X88130952Y-98254819D01*
X88130952Y-98254819D02*
X88035714Y-98207200D01*
X88035714Y-98207200D02*
X87940476Y-98111961D01*
X87940476Y-98111961D02*
X87892857Y-97921485D01*
X87892857Y-97921485D02*
X87892857Y-97588152D01*
X87892857Y-97588152D02*
X87940476Y-97397676D01*
X87940476Y-97397676D02*
X88035714Y-97302438D01*
X88035714Y-97302438D02*
X88130952Y-97254819D01*
X88988095Y-98254819D02*
X88988095Y-97254819D01*
X88988095Y-97254819D02*
X89559523Y-98254819D01*
X89559523Y-98254819D02*
X89559523Y-97254819D01*
X89797619Y-98350057D02*
X90559523Y-98350057D01*
X90750000Y-97350057D02*
X90797619Y-97302438D01*
X90797619Y-97302438D02*
X90892857Y-97254819D01*
X90892857Y-97254819D02*
X91130952Y-97254819D01*
X91130952Y-97254819D02*
X91226190Y-97302438D01*
X91226190Y-97302438D02*
X91273809Y-97350057D01*
X91273809Y-97350057D02*
X91321428Y-97445295D01*
X91321428Y-97445295D02*
X91321428Y-97540533D01*
X91321428Y-97540533D02*
X91273809Y-97683390D01*
X91273809Y-97683390D02*
X90702381Y-98254819D01*
X90702381Y-98254819D02*
X91321428Y-98254819D01*
X91511905Y-98350057D02*
X92273809Y-98350057D01*
X92845238Y-97731009D02*
X92988095Y-97778628D01*
X92988095Y-97778628D02*
X93035714Y-97826247D01*
X93035714Y-97826247D02*
X93083333Y-97921485D01*
X93083333Y-97921485D02*
X93083333Y-98064342D01*
X93083333Y-98064342D02*
X93035714Y-98159580D01*
X93035714Y-98159580D02*
X92988095Y-98207200D01*
X92988095Y-98207200D02*
X92892857Y-98254819D01*
X92892857Y-98254819D02*
X92511905Y-98254819D01*
X92511905Y-98254819D02*
X92511905Y-97254819D01*
X92511905Y-97254819D02*
X92845238Y-97254819D01*
X92845238Y-97254819D02*
X92940476Y-97302438D01*
X92940476Y-97302438D02*
X92988095Y-97350057D01*
X92988095Y-97350057D02*
X93035714Y-97445295D01*
X93035714Y-97445295D02*
X93035714Y-97540533D01*
X93035714Y-97540533D02*
X92988095Y-97635771D01*
X92988095Y-97635771D02*
X92940476Y-97683390D01*
X92940476Y-97683390D02*
X92845238Y-97731009D01*
X92845238Y-97731009D02*
X92511905Y-97731009D01*
X93511905Y-97254819D02*
X93511905Y-98064342D01*
X93511905Y-98064342D02*
X93559524Y-98159580D01*
X93559524Y-98159580D02*
X93607143Y-98207200D01*
X93607143Y-98207200D02*
X93702381Y-98254819D01*
X93702381Y-98254819D02*
X93892857Y-98254819D01*
X93892857Y-98254819D02*
X93988095Y-98207200D01*
X93988095Y-98207200D02*
X94035714Y-98159580D01*
X94035714Y-98159580D02*
X94083333Y-98064342D01*
X94083333Y-98064342D02*
X94083333Y-97254819D01*
X94416667Y-97254819D02*
X94988095Y-97254819D01*
X94702381Y-98254819D02*
X94702381Y-97254819D01*
X95178572Y-97254819D02*
X95750000Y-97254819D01*
X95464286Y-98254819D02*
X95464286Y-97254819D01*
X96273810Y-97254819D02*
X96464286Y-97254819D01*
X96464286Y-97254819D02*
X96559524Y-97302438D01*
X96559524Y-97302438D02*
X96654762Y-97397676D01*
X96654762Y-97397676D02*
X96702381Y-97588152D01*
X96702381Y-97588152D02*
X96702381Y-97921485D01*
X96702381Y-97921485D02*
X96654762Y-98111961D01*
X96654762Y-98111961D02*
X96559524Y-98207200D01*
X96559524Y-98207200D02*
X96464286Y-98254819D01*
X96464286Y-98254819D02*
X96273810Y-98254819D01*
X96273810Y-98254819D02*
X96178572Y-98207200D01*
X96178572Y-98207200D02*
X96083334Y-98111961D01*
X96083334Y-98111961D02*
X96035715Y-97921485D01*
X96035715Y-97921485D02*
X96035715Y-97588152D01*
X96035715Y-97588152D02*
X96083334Y-97397676D01*
X96083334Y-97397676D02*
X96178572Y-97302438D01*
X96178572Y-97302438D02*
X96273810Y-97254819D01*
X97130953Y-98254819D02*
X97130953Y-97254819D01*
X97130953Y-97254819D02*
X97702381Y-98254819D01*
X97702381Y-98254819D02*
X97702381Y-97254819D01*
X98369048Y-97254819D02*
X98464286Y-97254819D01*
X98464286Y-97254819D02*
X98559524Y-97302438D01*
X98559524Y-97302438D02*
X98607143Y-97350057D01*
X98607143Y-97350057D02*
X98654762Y-97445295D01*
X98654762Y-97445295D02*
X98702381Y-97635771D01*
X98702381Y-97635771D02*
X98702381Y-97873866D01*
X98702381Y-97873866D02*
X98654762Y-98064342D01*
X98654762Y-98064342D02*
X98607143Y-98159580D01*
X98607143Y-98159580D02*
X98559524Y-98207200D01*
X98559524Y-98207200D02*
X98464286Y-98254819D01*
X98464286Y-98254819D02*
X98369048Y-98254819D01*
X98369048Y-98254819D02*
X98273810Y-98207200D01*
X98273810Y-98207200D02*
X98226191Y-98159580D01*
X98226191Y-98159580D02*
X98178572Y-98064342D01*
X98178572Y-98064342D02*
X98130953Y-97873866D01*
X98130953Y-97873866D02*
X98130953Y-97635771D01*
X98130953Y-97635771D02*
X98178572Y-97445295D01*
X98178572Y-97445295D02*
X98226191Y-97350057D01*
X98226191Y-97350057D02*
X98273810Y-97302438D01*
X98273810Y-97302438D02*
X98369048Y-97254819D01*
X133157200Y-160083332D02*
X133204819Y-159940475D01*
X133204819Y-159940475D02*
X133204819Y-159702380D01*
X133204819Y-159702380D02*
X133157200Y-159607142D01*
X133157200Y-159607142D02*
X133109580Y-159559523D01*
X133109580Y-159559523D02*
X133014342Y-159511904D01*
X133014342Y-159511904D02*
X132919104Y-159511904D01*
X132919104Y-159511904D02*
X132823866Y-159559523D01*
X132823866Y-159559523D02*
X132776247Y-159607142D01*
X132776247Y-159607142D02*
X132728628Y-159702380D01*
X132728628Y-159702380D02*
X132681009Y-159892856D01*
X132681009Y-159892856D02*
X132633390Y-159988094D01*
X132633390Y-159988094D02*
X132585771Y-160035713D01*
X132585771Y-160035713D02*
X132490533Y-160083332D01*
X132490533Y-160083332D02*
X132395295Y-160083332D01*
X132395295Y-160083332D02*
X132300057Y-160035713D01*
X132300057Y-160035713D02*
X132252438Y-159988094D01*
X132252438Y-159988094D02*
X132204819Y-159892856D01*
X132204819Y-159892856D02*
X132204819Y-159654761D01*
X132204819Y-159654761D02*
X132252438Y-159511904D01*
X132204819Y-159178570D02*
X133204819Y-158940475D01*
X133204819Y-158940475D02*
X132490533Y-158749999D01*
X132490533Y-158749999D02*
X133204819Y-158559523D01*
X133204819Y-158559523D02*
X132204819Y-158321428D01*
X132204819Y-157464285D02*
X132204819Y-157940475D01*
X132204819Y-157940475D02*
X132681009Y-157988094D01*
X132681009Y-157988094D02*
X132633390Y-157940475D01*
X132633390Y-157940475D02*
X132585771Y-157845237D01*
X132585771Y-157845237D02*
X132585771Y-157607142D01*
X132585771Y-157607142D02*
X132633390Y-157511904D01*
X132633390Y-157511904D02*
X132681009Y-157464285D01*
X132681009Y-157464285D02*
X132776247Y-157416666D01*
X132776247Y-157416666D02*
X133014342Y-157416666D01*
X133014342Y-157416666D02*
X133109580Y-157464285D01*
X133109580Y-157464285D02*
X133157200Y-157511904D01*
X133157200Y-157511904D02*
X133204819Y-157607142D01*
X133204819Y-157607142D02*
X133204819Y-157845237D01*
X133204819Y-157845237D02*
X133157200Y-157940475D01*
X133157200Y-157940475D02*
X133109580Y-157988094D01*
X79321428Y-65154819D02*
X78988095Y-64678628D01*
X78750000Y-65154819D02*
X78750000Y-64154819D01*
X78750000Y-64154819D02*
X79130952Y-64154819D01*
X79130952Y-64154819D02*
X79226190Y-64202438D01*
X79226190Y-64202438D02*
X79273809Y-64250057D01*
X79273809Y-64250057D02*
X79321428Y-64345295D01*
X79321428Y-64345295D02*
X79321428Y-64488152D01*
X79321428Y-64488152D02*
X79273809Y-64583390D01*
X79273809Y-64583390D02*
X79226190Y-64631009D01*
X79226190Y-64631009D02*
X79130952Y-64678628D01*
X79130952Y-64678628D02*
X78750000Y-64678628D01*
X79750000Y-64631009D02*
X80083333Y-64631009D01*
X80226190Y-65154819D02*
X79750000Y-65154819D01*
X79750000Y-65154819D02*
X79750000Y-64154819D01*
X79750000Y-64154819D02*
X80226190Y-64154819D01*
X80607143Y-65107200D02*
X80750000Y-65154819D01*
X80750000Y-65154819D02*
X80988095Y-65154819D01*
X80988095Y-65154819D02*
X81083333Y-65107200D01*
X81083333Y-65107200D02*
X81130952Y-65059580D01*
X81130952Y-65059580D02*
X81178571Y-64964342D01*
X81178571Y-64964342D02*
X81178571Y-64869104D01*
X81178571Y-64869104D02*
X81130952Y-64773866D01*
X81130952Y-64773866D02*
X81083333Y-64726247D01*
X81083333Y-64726247D02*
X80988095Y-64678628D01*
X80988095Y-64678628D02*
X80797619Y-64631009D01*
X80797619Y-64631009D02*
X80702381Y-64583390D01*
X80702381Y-64583390D02*
X80654762Y-64535771D01*
X80654762Y-64535771D02*
X80607143Y-64440533D01*
X80607143Y-64440533D02*
X80607143Y-64345295D01*
X80607143Y-64345295D02*
X80654762Y-64250057D01*
X80654762Y-64250057D02*
X80702381Y-64202438D01*
X80702381Y-64202438D02*
X80797619Y-64154819D01*
X80797619Y-64154819D02*
X81035714Y-64154819D01*
X81035714Y-64154819D02*
X81178571Y-64202438D01*
X81607143Y-64631009D02*
X81940476Y-64631009D01*
X82083333Y-65154819D02*
X81607143Y-65154819D01*
X81607143Y-65154819D02*
X81607143Y-64154819D01*
X81607143Y-64154819D02*
X82083333Y-64154819D01*
X82369048Y-64154819D02*
X82940476Y-64154819D01*
X82654762Y-65154819D02*
X82654762Y-64154819D01*
X83464286Y-64154819D02*
X83559524Y-64154819D01*
X83559524Y-64154819D02*
X83654762Y-64202438D01*
X83654762Y-64202438D02*
X83702381Y-64250057D01*
X83702381Y-64250057D02*
X83750000Y-64345295D01*
X83750000Y-64345295D02*
X83797619Y-64535771D01*
X83797619Y-64535771D02*
X83797619Y-64773866D01*
X83797619Y-64773866D02*
X83750000Y-64964342D01*
X83750000Y-64964342D02*
X83702381Y-65059580D01*
X83702381Y-65059580D02*
X83654762Y-65107200D01*
X83654762Y-65107200D02*
X83559524Y-65154819D01*
X83559524Y-65154819D02*
X83464286Y-65154819D01*
X83464286Y-65154819D02*
X83369048Y-65107200D01*
X83369048Y-65107200D02*
X83321429Y-65059580D01*
X83321429Y-65059580D02*
X83273810Y-64964342D01*
X83273810Y-64964342D02*
X83226191Y-64773866D01*
X83226191Y-64773866D02*
X83226191Y-64535771D01*
X83226191Y-64535771D02*
X83273810Y-64345295D01*
X83273810Y-64345295D02*
X83321429Y-64250057D01*
X83321429Y-64250057D02*
X83369048Y-64202438D01*
X83369048Y-64202438D02*
X83464286Y-64154819D01*
X68297619Y-65154819D02*
X68297619Y-64154819D01*
X68297619Y-64154819D02*
X68678571Y-64154819D01*
X68678571Y-64154819D02*
X68773809Y-64202438D01*
X68773809Y-64202438D02*
X68821428Y-64250057D01*
X68821428Y-64250057D02*
X68869047Y-64345295D01*
X68869047Y-64345295D02*
X68869047Y-64488152D01*
X68869047Y-64488152D02*
X68821428Y-64583390D01*
X68821428Y-64583390D02*
X68773809Y-64631009D01*
X68773809Y-64631009D02*
X68678571Y-64678628D01*
X68678571Y-64678628D02*
X68297619Y-64678628D01*
X69202381Y-64154819D02*
X69440476Y-65154819D01*
X69440476Y-65154819D02*
X69630952Y-64440533D01*
X69630952Y-64440533D02*
X69821428Y-65154819D01*
X69821428Y-65154819D02*
X70059524Y-64154819D01*
X71011904Y-65154819D02*
X70678571Y-64678628D01*
X70440476Y-65154819D02*
X70440476Y-64154819D01*
X70440476Y-64154819D02*
X70821428Y-64154819D01*
X70821428Y-64154819D02*
X70916666Y-64202438D01*
X70916666Y-64202438D02*
X70964285Y-64250057D01*
X70964285Y-64250057D02*
X71011904Y-64345295D01*
X71011904Y-64345295D02*
X71011904Y-64488152D01*
X71011904Y-64488152D02*
X70964285Y-64583390D01*
X70964285Y-64583390D02*
X70916666Y-64631009D01*
X70916666Y-64631009D02*
X70821428Y-64678628D01*
X70821428Y-64678628D02*
X70440476Y-64678628D01*
X71202381Y-65250057D02*
X71964285Y-65250057D01*
X72202381Y-65154819D02*
X72202381Y-64154819D01*
X72678571Y-65154819D02*
X72678571Y-64154819D01*
X72678571Y-64154819D02*
X73249999Y-65154819D01*
X73249999Y-65154819D02*
X73249999Y-64154819D01*
X73916666Y-64154819D02*
X74011904Y-64154819D01*
X74011904Y-64154819D02*
X74107142Y-64202438D01*
X74107142Y-64202438D02*
X74154761Y-64250057D01*
X74154761Y-64250057D02*
X74202380Y-64345295D01*
X74202380Y-64345295D02*
X74249999Y-64535771D01*
X74249999Y-64535771D02*
X74249999Y-64773866D01*
X74249999Y-64773866D02*
X74202380Y-64964342D01*
X74202380Y-64964342D02*
X74154761Y-65059580D01*
X74154761Y-65059580D02*
X74107142Y-65107200D01*
X74107142Y-65107200D02*
X74011904Y-65154819D01*
X74011904Y-65154819D02*
X73916666Y-65154819D01*
X73916666Y-65154819D02*
X73821428Y-65107200D01*
X73821428Y-65107200D02*
X73773809Y-65059580D01*
X73773809Y-65059580D02*
X73726190Y-64964342D01*
X73726190Y-64964342D02*
X73678571Y-64773866D01*
X73678571Y-64773866D02*
X73678571Y-64535771D01*
X73678571Y-64535771D02*
X73726190Y-64345295D01*
X73726190Y-64345295D02*
X73773809Y-64250057D01*
X73773809Y-64250057D02*
X73821428Y-64202438D01*
X73821428Y-64202438D02*
X73916666Y-64154819D01*
X157534819Y-120818094D02*
X156534819Y-120818094D01*
X156534819Y-120818094D02*
X156534819Y-120579999D01*
X156534819Y-120579999D02*
X156582438Y-120437142D01*
X156582438Y-120437142D02*
X156677676Y-120341904D01*
X156677676Y-120341904D02*
X156772914Y-120294285D01*
X156772914Y-120294285D02*
X156963390Y-120246666D01*
X156963390Y-120246666D02*
X157106247Y-120246666D01*
X157106247Y-120246666D02*
X157296723Y-120294285D01*
X157296723Y-120294285D02*
X157391961Y-120341904D01*
X157391961Y-120341904D02*
X157487200Y-120437142D01*
X157487200Y-120437142D02*
X157534819Y-120579999D01*
X157534819Y-120579999D02*
X157534819Y-120818094D01*
X156630057Y-119865713D02*
X156582438Y-119818094D01*
X156582438Y-119818094D02*
X156534819Y-119722856D01*
X156534819Y-119722856D02*
X156534819Y-119484761D01*
X156534819Y-119484761D02*
X156582438Y-119389523D01*
X156582438Y-119389523D02*
X156630057Y-119341904D01*
X156630057Y-119341904D02*
X156725295Y-119294285D01*
X156725295Y-119294285D02*
X156820533Y-119294285D01*
X156820533Y-119294285D02*
X156963390Y-119341904D01*
X156963390Y-119341904D02*
X157534819Y-119913332D01*
X157534819Y-119913332D02*
X157534819Y-119294285D01*
X158254819Y-125421904D02*
X157254819Y-125421904D01*
X158254819Y-124850476D02*
X157683390Y-125279047D01*
X157254819Y-124850476D02*
X157826247Y-125421904D01*
X118157200Y-160083332D02*
X118204819Y-159940475D01*
X118204819Y-159940475D02*
X118204819Y-159702380D01*
X118204819Y-159702380D02*
X118157200Y-159607142D01*
X118157200Y-159607142D02*
X118109580Y-159559523D01*
X118109580Y-159559523D02*
X118014342Y-159511904D01*
X118014342Y-159511904D02*
X117919104Y-159511904D01*
X117919104Y-159511904D02*
X117823866Y-159559523D01*
X117823866Y-159559523D02*
X117776247Y-159607142D01*
X117776247Y-159607142D02*
X117728628Y-159702380D01*
X117728628Y-159702380D02*
X117681009Y-159892856D01*
X117681009Y-159892856D02*
X117633390Y-159988094D01*
X117633390Y-159988094D02*
X117585771Y-160035713D01*
X117585771Y-160035713D02*
X117490533Y-160083332D01*
X117490533Y-160083332D02*
X117395295Y-160083332D01*
X117395295Y-160083332D02*
X117300057Y-160035713D01*
X117300057Y-160035713D02*
X117252438Y-159988094D01*
X117252438Y-159988094D02*
X117204819Y-159892856D01*
X117204819Y-159892856D02*
X117204819Y-159654761D01*
X117204819Y-159654761D02*
X117252438Y-159511904D01*
X117204819Y-159178570D02*
X118204819Y-158940475D01*
X118204819Y-158940475D02*
X117490533Y-158749999D01*
X117490533Y-158749999D02*
X118204819Y-158559523D01*
X118204819Y-158559523D02*
X117204819Y-158321428D01*
X117204819Y-158035713D02*
X117204819Y-157416666D01*
X117204819Y-157416666D02*
X117585771Y-157749999D01*
X117585771Y-157749999D02*
X117585771Y-157607142D01*
X117585771Y-157607142D02*
X117633390Y-157511904D01*
X117633390Y-157511904D02*
X117681009Y-157464285D01*
X117681009Y-157464285D02*
X117776247Y-157416666D01*
X117776247Y-157416666D02*
X118014342Y-157416666D01*
X118014342Y-157416666D02*
X118109580Y-157464285D01*
X118109580Y-157464285D02*
X118157200Y-157511904D01*
X118157200Y-157511904D02*
X118204819Y-157607142D01*
X118204819Y-157607142D02*
X118204819Y-157892856D01*
X118204819Y-157892856D02*
X118157200Y-157988094D01*
X118157200Y-157988094D02*
X118109580Y-158035713D01*
X185059523Y-149754819D02*
X185059523Y-150469104D01*
X185059523Y-150469104D02*
X185011904Y-150611961D01*
X185011904Y-150611961D02*
X184916666Y-150707200D01*
X184916666Y-150707200D02*
X184773809Y-150754819D01*
X184773809Y-150754819D02*
X184678571Y-150754819D01*
X185488095Y-150469104D02*
X185964285Y-150469104D01*
X185392857Y-150754819D02*
X185726190Y-149754819D01*
X185726190Y-149754819D02*
X186059523Y-150754819D01*
X186964285Y-150659580D02*
X186916666Y-150707200D01*
X186916666Y-150707200D02*
X186773809Y-150754819D01*
X186773809Y-150754819D02*
X186678571Y-150754819D01*
X186678571Y-150754819D02*
X186535714Y-150707200D01*
X186535714Y-150707200D02*
X186440476Y-150611961D01*
X186440476Y-150611961D02*
X186392857Y-150516723D01*
X186392857Y-150516723D02*
X186345238Y-150326247D01*
X186345238Y-150326247D02*
X186345238Y-150183390D01*
X186345238Y-150183390D02*
X186392857Y-149992914D01*
X186392857Y-149992914D02*
X186440476Y-149897676D01*
X186440476Y-149897676D02*
X186535714Y-149802438D01*
X186535714Y-149802438D02*
X186678571Y-149754819D01*
X186678571Y-149754819D02*
X186773809Y-149754819D01*
X186773809Y-149754819D02*
X186916666Y-149802438D01*
X186916666Y-149802438D02*
X186964285Y-149850057D01*
X187392857Y-150754819D02*
X187392857Y-149754819D01*
X187964285Y-150754819D02*
X187535714Y-150183390D01*
X187964285Y-149754819D02*
X187392857Y-150326247D01*
X188154762Y-150850057D02*
X188916666Y-150850057D01*
X189726190Y-150659580D02*
X189678571Y-150707200D01*
X189678571Y-150707200D02*
X189535714Y-150754819D01*
X189535714Y-150754819D02*
X189440476Y-150754819D01*
X189440476Y-150754819D02*
X189297619Y-150707200D01*
X189297619Y-150707200D02*
X189202381Y-150611961D01*
X189202381Y-150611961D02*
X189154762Y-150516723D01*
X189154762Y-150516723D02*
X189107143Y-150326247D01*
X189107143Y-150326247D02*
X189107143Y-150183390D01*
X189107143Y-150183390D02*
X189154762Y-149992914D01*
X189154762Y-149992914D02*
X189202381Y-149897676D01*
X189202381Y-149897676D02*
X189297619Y-149802438D01*
X189297619Y-149802438D02*
X189440476Y-149754819D01*
X189440476Y-149754819D02*
X189535714Y-149754819D01*
X189535714Y-149754819D02*
X189678571Y-149802438D01*
X189678571Y-149802438D02*
X189726190Y-149850057D01*
X190345238Y-149754819D02*
X190535714Y-149754819D01*
X190535714Y-149754819D02*
X190630952Y-149802438D01*
X190630952Y-149802438D02*
X190726190Y-149897676D01*
X190726190Y-149897676D02*
X190773809Y-150088152D01*
X190773809Y-150088152D02*
X190773809Y-150421485D01*
X190773809Y-150421485D02*
X190726190Y-150611961D01*
X190726190Y-150611961D02*
X190630952Y-150707200D01*
X190630952Y-150707200D02*
X190535714Y-150754819D01*
X190535714Y-150754819D02*
X190345238Y-150754819D01*
X190345238Y-150754819D02*
X190250000Y-150707200D01*
X190250000Y-150707200D02*
X190154762Y-150611961D01*
X190154762Y-150611961D02*
X190107143Y-150421485D01*
X190107143Y-150421485D02*
X190107143Y-150088152D01*
X190107143Y-150088152D02*
X190154762Y-149897676D01*
X190154762Y-149897676D02*
X190250000Y-149802438D01*
X190250000Y-149802438D02*
X190345238Y-149754819D01*
X191202381Y-150754819D02*
X191202381Y-149754819D01*
X191202381Y-149754819D02*
X191773809Y-150754819D01*
X191773809Y-150754819D02*
X191773809Y-149754819D01*
X192726190Y-149754819D02*
X192250000Y-149754819D01*
X192250000Y-149754819D02*
X192202381Y-150231009D01*
X192202381Y-150231009D02*
X192250000Y-150183390D01*
X192250000Y-150183390D02*
X192345238Y-150135771D01*
X192345238Y-150135771D02*
X192583333Y-150135771D01*
X192583333Y-150135771D02*
X192678571Y-150183390D01*
X192678571Y-150183390D02*
X192726190Y-150231009D01*
X192726190Y-150231009D02*
X192773809Y-150326247D01*
X192773809Y-150326247D02*
X192773809Y-150564342D01*
X192773809Y-150564342D02*
X192726190Y-150659580D01*
X192726190Y-150659580D02*
X192678571Y-150707200D01*
X192678571Y-150707200D02*
X192583333Y-150754819D01*
X192583333Y-150754819D02*
X192345238Y-150754819D01*
X192345238Y-150754819D02*
X192250000Y-150707200D01*
X192250000Y-150707200D02*
X192202381Y-150659580D01*
X110657200Y-160083332D02*
X110704819Y-159940475D01*
X110704819Y-159940475D02*
X110704819Y-159702380D01*
X110704819Y-159702380D02*
X110657200Y-159607142D01*
X110657200Y-159607142D02*
X110609580Y-159559523D01*
X110609580Y-159559523D02*
X110514342Y-159511904D01*
X110514342Y-159511904D02*
X110419104Y-159511904D01*
X110419104Y-159511904D02*
X110323866Y-159559523D01*
X110323866Y-159559523D02*
X110276247Y-159607142D01*
X110276247Y-159607142D02*
X110228628Y-159702380D01*
X110228628Y-159702380D02*
X110181009Y-159892856D01*
X110181009Y-159892856D02*
X110133390Y-159988094D01*
X110133390Y-159988094D02*
X110085771Y-160035713D01*
X110085771Y-160035713D02*
X109990533Y-160083332D01*
X109990533Y-160083332D02*
X109895295Y-160083332D01*
X109895295Y-160083332D02*
X109800057Y-160035713D01*
X109800057Y-160035713D02*
X109752438Y-159988094D01*
X109752438Y-159988094D02*
X109704819Y-159892856D01*
X109704819Y-159892856D02*
X109704819Y-159654761D01*
X109704819Y-159654761D02*
X109752438Y-159511904D01*
X109704819Y-159178570D02*
X110704819Y-158940475D01*
X110704819Y-158940475D02*
X109990533Y-158749999D01*
X109990533Y-158749999D02*
X110704819Y-158559523D01*
X110704819Y-158559523D02*
X109704819Y-158321428D01*
X109800057Y-157988094D02*
X109752438Y-157940475D01*
X109752438Y-157940475D02*
X109704819Y-157845237D01*
X109704819Y-157845237D02*
X109704819Y-157607142D01*
X109704819Y-157607142D02*
X109752438Y-157511904D01*
X109752438Y-157511904D02*
X109800057Y-157464285D01*
X109800057Y-157464285D02*
X109895295Y-157416666D01*
X109895295Y-157416666D02*
X109990533Y-157416666D01*
X109990533Y-157416666D02*
X110133390Y-157464285D01*
X110133390Y-157464285D02*
X110704819Y-158035713D01*
X110704819Y-158035713D02*
X110704819Y-157416666D01*
X94833333Y-56034819D02*
X94500000Y-55558628D01*
X94261905Y-56034819D02*
X94261905Y-55034819D01*
X94261905Y-55034819D02*
X94642857Y-55034819D01*
X94642857Y-55034819D02*
X94738095Y-55082438D01*
X94738095Y-55082438D02*
X94785714Y-55130057D01*
X94785714Y-55130057D02*
X94833333Y-55225295D01*
X94833333Y-55225295D02*
X94833333Y-55368152D01*
X94833333Y-55368152D02*
X94785714Y-55463390D01*
X94785714Y-55463390D02*
X94738095Y-55511009D01*
X94738095Y-55511009D02*
X94642857Y-55558628D01*
X94642857Y-55558628D02*
X94261905Y-55558628D01*
X95785714Y-56034819D02*
X95214286Y-56034819D01*
X95500000Y-56034819D02*
X95500000Y-55034819D01*
X95500000Y-55034819D02*
X95404762Y-55177676D01*
X95404762Y-55177676D02*
X95309524Y-55272914D01*
X95309524Y-55272914D02*
X95214286Y-55320533D01*
X155657200Y-160083332D02*
X155704819Y-159940475D01*
X155704819Y-159940475D02*
X155704819Y-159702380D01*
X155704819Y-159702380D02*
X155657200Y-159607142D01*
X155657200Y-159607142D02*
X155609580Y-159559523D01*
X155609580Y-159559523D02*
X155514342Y-159511904D01*
X155514342Y-159511904D02*
X155419104Y-159511904D01*
X155419104Y-159511904D02*
X155323866Y-159559523D01*
X155323866Y-159559523D02*
X155276247Y-159607142D01*
X155276247Y-159607142D02*
X155228628Y-159702380D01*
X155228628Y-159702380D02*
X155181009Y-159892856D01*
X155181009Y-159892856D02*
X155133390Y-159988094D01*
X155133390Y-159988094D02*
X155085771Y-160035713D01*
X155085771Y-160035713D02*
X154990533Y-160083332D01*
X154990533Y-160083332D02*
X154895295Y-160083332D01*
X154895295Y-160083332D02*
X154800057Y-160035713D01*
X154800057Y-160035713D02*
X154752438Y-159988094D01*
X154752438Y-159988094D02*
X154704819Y-159892856D01*
X154704819Y-159892856D02*
X154704819Y-159654761D01*
X154704819Y-159654761D02*
X154752438Y-159511904D01*
X154704819Y-159178570D02*
X155704819Y-158940475D01*
X155704819Y-158940475D02*
X154990533Y-158749999D01*
X154990533Y-158749999D02*
X155704819Y-158559523D01*
X155704819Y-158559523D02*
X154704819Y-158321428D01*
X155133390Y-157797618D02*
X155085771Y-157892856D01*
X155085771Y-157892856D02*
X155038152Y-157940475D01*
X155038152Y-157940475D02*
X154942914Y-157988094D01*
X154942914Y-157988094D02*
X154895295Y-157988094D01*
X154895295Y-157988094D02*
X154800057Y-157940475D01*
X154800057Y-157940475D02*
X154752438Y-157892856D01*
X154752438Y-157892856D02*
X154704819Y-157797618D01*
X154704819Y-157797618D02*
X154704819Y-157607142D01*
X154704819Y-157607142D02*
X154752438Y-157511904D01*
X154752438Y-157511904D02*
X154800057Y-157464285D01*
X154800057Y-157464285D02*
X154895295Y-157416666D01*
X154895295Y-157416666D02*
X154942914Y-157416666D01*
X154942914Y-157416666D02*
X155038152Y-157464285D01*
X155038152Y-157464285D02*
X155085771Y-157511904D01*
X155085771Y-157511904D02*
X155133390Y-157607142D01*
X155133390Y-157607142D02*
X155133390Y-157797618D01*
X155133390Y-157797618D02*
X155181009Y-157892856D01*
X155181009Y-157892856D02*
X155228628Y-157940475D01*
X155228628Y-157940475D02*
X155323866Y-157988094D01*
X155323866Y-157988094D02*
X155514342Y-157988094D01*
X155514342Y-157988094D02*
X155609580Y-157940475D01*
X155609580Y-157940475D02*
X155657200Y-157892856D01*
X155657200Y-157892856D02*
X155704819Y-157797618D01*
X155704819Y-157797618D02*
X155704819Y-157607142D01*
X155704819Y-157607142D02*
X155657200Y-157511904D01*
X155657200Y-157511904D02*
X155609580Y-157464285D01*
X155609580Y-157464285D02*
X155514342Y-157416666D01*
X155514342Y-157416666D02*
X155323866Y-157416666D01*
X155323866Y-157416666D02*
X155228628Y-157464285D01*
X155228628Y-157464285D02*
X155181009Y-157511904D01*
X155181009Y-157511904D02*
X155133390Y-157607142D01*
X85967618Y-161809726D02*
X85967618Y-162837821D01*
X85967618Y-162837821D02*
X86028095Y-162958773D01*
X86028095Y-162958773D02*
X86088571Y-163019250D01*
X86088571Y-163019250D02*
X86209523Y-163079726D01*
X86209523Y-163079726D02*
X86451428Y-163079726D01*
X86451428Y-163079726D02*
X86572380Y-163019250D01*
X86572380Y-163019250D02*
X86632857Y-162958773D01*
X86632857Y-162958773D02*
X86693333Y-162837821D01*
X86693333Y-162837821D02*
X86693333Y-161809726D01*
X87237618Y-163019250D02*
X87419047Y-163079726D01*
X87419047Y-163079726D02*
X87721428Y-163079726D01*
X87721428Y-163079726D02*
X87842380Y-163019250D01*
X87842380Y-163019250D02*
X87902856Y-162958773D01*
X87902856Y-162958773D02*
X87963333Y-162837821D01*
X87963333Y-162837821D02*
X87963333Y-162716869D01*
X87963333Y-162716869D02*
X87902856Y-162595916D01*
X87902856Y-162595916D02*
X87842380Y-162535440D01*
X87842380Y-162535440D02*
X87721428Y-162474964D01*
X87721428Y-162474964D02*
X87479523Y-162414488D01*
X87479523Y-162414488D02*
X87358571Y-162354011D01*
X87358571Y-162354011D02*
X87298094Y-162293535D01*
X87298094Y-162293535D02*
X87237618Y-162172583D01*
X87237618Y-162172583D02*
X87237618Y-162051630D01*
X87237618Y-162051630D02*
X87298094Y-161930678D01*
X87298094Y-161930678D02*
X87358571Y-161870202D01*
X87358571Y-161870202D02*
X87479523Y-161809726D01*
X87479523Y-161809726D02*
X87781904Y-161809726D01*
X87781904Y-161809726D02*
X87963333Y-161870202D01*
X87600475Y-161628297D02*
X87600475Y-163261154D01*
X89051904Y-162233059D02*
X89051904Y-163079726D01*
X88749523Y-161749250D02*
X88447142Y-162656392D01*
X88447142Y-162656392D02*
X89233333Y-162656392D01*
X148157200Y-160083332D02*
X148204819Y-159940475D01*
X148204819Y-159940475D02*
X148204819Y-159702380D01*
X148204819Y-159702380D02*
X148157200Y-159607142D01*
X148157200Y-159607142D02*
X148109580Y-159559523D01*
X148109580Y-159559523D02*
X148014342Y-159511904D01*
X148014342Y-159511904D02*
X147919104Y-159511904D01*
X147919104Y-159511904D02*
X147823866Y-159559523D01*
X147823866Y-159559523D02*
X147776247Y-159607142D01*
X147776247Y-159607142D02*
X147728628Y-159702380D01*
X147728628Y-159702380D02*
X147681009Y-159892856D01*
X147681009Y-159892856D02*
X147633390Y-159988094D01*
X147633390Y-159988094D02*
X147585771Y-160035713D01*
X147585771Y-160035713D02*
X147490533Y-160083332D01*
X147490533Y-160083332D02*
X147395295Y-160083332D01*
X147395295Y-160083332D02*
X147300057Y-160035713D01*
X147300057Y-160035713D02*
X147252438Y-159988094D01*
X147252438Y-159988094D02*
X147204819Y-159892856D01*
X147204819Y-159892856D02*
X147204819Y-159654761D01*
X147204819Y-159654761D02*
X147252438Y-159511904D01*
X147204819Y-159178570D02*
X148204819Y-158940475D01*
X148204819Y-158940475D02*
X147490533Y-158749999D01*
X147490533Y-158749999D02*
X148204819Y-158559523D01*
X148204819Y-158559523D02*
X147204819Y-158321428D01*
X147204819Y-158035713D02*
X147204819Y-157369047D01*
X147204819Y-157369047D02*
X148204819Y-157797618D01*
X76494819Y-154449523D02*
X77494819Y-153782857D01*
X76494819Y-153782857D02*
X77494819Y-154449523D01*
X77494819Y-152878095D02*
X77494819Y-153449523D01*
X77494819Y-153163809D02*
X76494819Y-153163809D01*
X76494819Y-153163809D02*
X76637676Y-153259047D01*
X76637676Y-153259047D02*
X76732914Y-153354285D01*
X76732914Y-153354285D02*
X76780533Y-153449523D01*
X126896118Y-94759726D02*
X126896118Y-95787821D01*
X126896118Y-95787821D02*
X126956595Y-95908773D01*
X126956595Y-95908773D02*
X127017071Y-95969250D01*
X127017071Y-95969250D02*
X127138023Y-96029726D01*
X127138023Y-96029726D02*
X127379928Y-96029726D01*
X127379928Y-96029726D02*
X127500880Y-95969250D01*
X127500880Y-95969250D02*
X127561357Y-95908773D01*
X127561357Y-95908773D02*
X127621833Y-95787821D01*
X127621833Y-95787821D02*
X127621833Y-94759726D01*
X128166118Y-95969250D02*
X128347547Y-96029726D01*
X128347547Y-96029726D02*
X128649928Y-96029726D01*
X128649928Y-96029726D02*
X128770880Y-95969250D01*
X128770880Y-95969250D02*
X128831356Y-95908773D01*
X128831356Y-95908773D02*
X128891833Y-95787821D01*
X128891833Y-95787821D02*
X128891833Y-95666869D01*
X128891833Y-95666869D02*
X128831356Y-95545916D01*
X128831356Y-95545916D02*
X128770880Y-95485440D01*
X128770880Y-95485440D02*
X128649928Y-95424964D01*
X128649928Y-95424964D02*
X128408023Y-95364488D01*
X128408023Y-95364488D02*
X128287071Y-95304011D01*
X128287071Y-95304011D02*
X128226594Y-95243535D01*
X128226594Y-95243535D02*
X128166118Y-95122583D01*
X128166118Y-95122583D02*
X128166118Y-95001630D01*
X128166118Y-95001630D02*
X128226594Y-94880678D01*
X128226594Y-94880678D02*
X128287071Y-94820202D01*
X128287071Y-94820202D02*
X128408023Y-94759726D01*
X128408023Y-94759726D02*
X128710404Y-94759726D01*
X128710404Y-94759726D02*
X128891833Y-94820202D01*
X128528975Y-94578297D02*
X128528975Y-96211154D01*
X130101357Y-96029726D02*
X129375642Y-96029726D01*
X129738499Y-96029726D02*
X129738499Y-94759726D01*
X129738499Y-94759726D02*
X129617547Y-94941154D01*
X129617547Y-94941154D02*
X129496595Y-95062107D01*
X129496595Y-95062107D02*
X129375642Y-95122583D01*
X165059523Y-159754819D02*
X165059523Y-160469104D01*
X165059523Y-160469104D02*
X165011904Y-160611961D01*
X165011904Y-160611961D02*
X164916666Y-160707200D01*
X164916666Y-160707200D02*
X164773809Y-160754819D01*
X164773809Y-160754819D02*
X164678571Y-160754819D01*
X165488095Y-160469104D02*
X165964285Y-160469104D01*
X165392857Y-160754819D02*
X165726190Y-159754819D01*
X165726190Y-159754819D02*
X166059523Y-160754819D01*
X166964285Y-160659580D02*
X166916666Y-160707200D01*
X166916666Y-160707200D02*
X166773809Y-160754819D01*
X166773809Y-160754819D02*
X166678571Y-160754819D01*
X166678571Y-160754819D02*
X166535714Y-160707200D01*
X166535714Y-160707200D02*
X166440476Y-160611961D01*
X166440476Y-160611961D02*
X166392857Y-160516723D01*
X166392857Y-160516723D02*
X166345238Y-160326247D01*
X166345238Y-160326247D02*
X166345238Y-160183390D01*
X166345238Y-160183390D02*
X166392857Y-159992914D01*
X166392857Y-159992914D02*
X166440476Y-159897676D01*
X166440476Y-159897676D02*
X166535714Y-159802438D01*
X166535714Y-159802438D02*
X166678571Y-159754819D01*
X166678571Y-159754819D02*
X166773809Y-159754819D01*
X166773809Y-159754819D02*
X166916666Y-159802438D01*
X166916666Y-159802438D02*
X166964285Y-159850057D01*
X167392857Y-160754819D02*
X167392857Y-159754819D01*
X167964285Y-160754819D02*
X167535714Y-160183390D01*
X167964285Y-159754819D02*
X167392857Y-160326247D01*
X168154762Y-160850057D02*
X168916666Y-160850057D01*
X169726190Y-160659580D02*
X169678571Y-160707200D01*
X169678571Y-160707200D02*
X169535714Y-160754819D01*
X169535714Y-160754819D02*
X169440476Y-160754819D01*
X169440476Y-160754819D02*
X169297619Y-160707200D01*
X169297619Y-160707200D02*
X169202381Y-160611961D01*
X169202381Y-160611961D02*
X169154762Y-160516723D01*
X169154762Y-160516723D02*
X169107143Y-160326247D01*
X169107143Y-160326247D02*
X169107143Y-160183390D01*
X169107143Y-160183390D02*
X169154762Y-159992914D01*
X169154762Y-159992914D02*
X169202381Y-159897676D01*
X169202381Y-159897676D02*
X169297619Y-159802438D01*
X169297619Y-159802438D02*
X169440476Y-159754819D01*
X169440476Y-159754819D02*
X169535714Y-159754819D01*
X169535714Y-159754819D02*
X169678571Y-159802438D01*
X169678571Y-159802438D02*
X169726190Y-159850057D01*
X170345238Y-159754819D02*
X170535714Y-159754819D01*
X170535714Y-159754819D02*
X170630952Y-159802438D01*
X170630952Y-159802438D02*
X170726190Y-159897676D01*
X170726190Y-159897676D02*
X170773809Y-160088152D01*
X170773809Y-160088152D02*
X170773809Y-160421485D01*
X170773809Y-160421485D02*
X170726190Y-160611961D01*
X170726190Y-160611961D02*
X170630952Y-160707200D01*
X170630952Y-160707200D02*
X170535714Y-160754819D01*
X170535714Y-160754819D02*
X170345238Y-160754819D01*
X170345238Y-160754819D02*
X170250000Y-160707200D01*
X170250000Y-160707200D02*
X170154762Y-160611961D01*
X170154762Y-160611961D02*
X170107143Y-160421485D01*
X170107143Y-160421485D02*
X170107143Y-160088152D01*
X170107143Y-160088152D02*
X170154762Y-159897676D01*
X170154762Y-159897676D02*
X170250000Y-159802438D01*
X170250000Y-159802438D02*
X170345238Y-159754819D01*
X171202381Y-160754819D02*
X171202381Y-159754819D01*
X171202381Y-159754819D02*
X171773809Y-160754819D01*
X171773809Y-160754819D02*
X171773809Y-159754819D01*
X172202381Y-159850057D02*
X172250000Y-159802438D01*
X172250000Y-159802438D02*
X172345238Y-159754819D01*
X172345238Y-159754819D02*
X172583333Y-159754819D01*
X172583333Y-159754819D02*
X172678571Y-159802438D01*
X172678571Y-159802438D02*
X172726190Y-159850057D01*
X172726190Y-159850057D02*
X172773809Y-159945295D01*
X172773809Y-159945295D02*
X172773809Y-160040533D01*
X172773809Y-160040533D02*
X172726190Y-160183390D01*
X172726190Y-160183390D02*
X172154762Y-160754819D01*
X172154762Y-160754819D02*
X172773809Y-160754819D01*
X83797619Y-105707200D02*
X83940476Y-105754819D01*
X83940476Y-105754819D02*
X84178571Y-105754819D01*
X84178571Y-105754819D02*
X84273809Y-105707200D01*
X84273809Y-105707200D02*
X84321428Y-105659580D01*
X84321428Y-105659580D02*
X84369047Y-105564342D01*
X84369047Y-105564342D02*
X84369047Y-105469104D01*
X84369047Y-105469104D02*
X84321428Y-105373866D01*
X84321428Y-105373866D02*
X84273809Y-105326247D01*
X84273809Y-105326247D02*
X84178571Y-105278628D01*
X84178571Y-105278628D02*
X83988095Y-105231009D01*
X83988095Y-105231009D02*
X83892857Y-105183390D01*
X83892857Y-105183390D02*
X83845238Y-105135771D01*
X83845238Y-105135771D02*
X83797619Y-105040533D01*
X83797619Y-105040533D02*
X83797619Y-104945295D01*
X83797619Y-104945295D02*
X83845238Y-104850057D01*
X83845238Y-104850057D02*
X83892857Y-104802438D01*
X83892857Y-104802438D02*
X83988095Y-104754819D01*
X83988095Y-104754819D02*
X84226190Y-104754819D01*
X84226190Y-104754819D02*
X84369047Y-104802438D01*
X84797619Y-105231009D02*
X85130952Y-105231009D01*
X85273809Y-105754819D02*
X84797619Y-105754819D01*
X84797619Y-105754819D02*
X84797619Y-104754819D01*
X84797619Y-104754819D02*
X85273809Y-104754819D01*
X86273809Y-105659580D02*
X86226190Y-105707200D01*
X86226190Y-105707200D02*
X86083333Y-105754819D01*
X86083333Y-105754819D02*
X85988095Y-105754819D01*
X85988095Y-105754819D02*
X85845238Y-105707200D01*
X85845238Y-105707200D02*
X85750000Y-105611961D01*
X85750000Y-105611961D02*
X85702381Y-105516723D01*
X85702381Y-105516723D02*
X85654762Y-105326247D01*
X85654762Y-105326247D02*
X85654762Y-105183390D01*
X85654762Y-105183390D02*
X85702381Y-104992914D01*
X85702381Y-104992914D02*
X85750000Y-104897676D01*
X85750000Y-104897676D02*
X85845238Y-104802438D01*
X85845238Y-104802438D02*
X85988095Y-104754819D01*
X85988095Y-104754819D02*
X86083333Y-104754819D01*
X86083333Y-104754819D02*
X86226190Y-104802438D01*
X86226190Y-104802438D02*
X86273809Y-104850057D01*
X86559524Y-104754819D02*
X87130952Y-104754819D01*
X86845238Y-105754819D02*
X86845238Y-104754819D01*
X87464286Y-105754819D02*
X87464286Y-104754819D01*
X88130952Y-104754819D02*
X88321428Y-104754819D01*
X88321428Y-104754819D02*
X88416666Y-104802438D01*
X88416666Y-104802438D02*
X88511904Y-104897676D01*
X88511904Y-104897676D02*
X88559523Y-105088152D01*
X88559523Y-105088152D02*
X88559523Y-105421485D01*
X88559523Y-105421485D02*
X88511904Y-105611961D01*
X88511904Y-105611961D02*
X88416666Y-105707200D01*
X88416666Y-105707200D02*
X88321428Y-105754819D01*
X88321428Y-105754819D02*
X88130952Y-105754819D01*
X88130952Y-105754819D02*
X88035714Y-105707200D01*
X88035714Y-105707200D02*
X87940476Y-105611961D01*
X87940476Y-105611961D02*
X87892857Y-105421485D01*
X87892857Y-105421485D02*
X87892857Y-105088152D01*
X87892857Y-105088152D02*
X87940476Y-104897676D01*
X87940476Y-104897676D02*
X88035714Y-104802438D01*
X88035714Y-104802438D02*
X88130952Y-104754819D01*
X88988095Y-105754819D02*
X88988095Y-104754819D01*
X88988095Y-104754819D02*
X89559523Y-105754819D01*
X89559523Y-105754819D02*
X89559523Y-104754819D01*
X89797619Y-105850057D02*
X90559523Y-105850057D01*
X91321428Y-105754819D02*
X90750000Y-105754819D01*
X91035714Y-105754819D02*
X91035714Y-104754819D01*
X91035714Y-104754819D02*
X90940476Y-104897676D01*
X90940476Y-104897676D02*
X90845238Y-104992914D01*
X90845238Y-104992914D02*
X90750000Y-105040533D01*
X91511905Y-105850057D02*
X92273809Y-105850057D01*
X92845238Y-105231009D02*
X92988095Y-105278628D01*
X92988095Y-105278628D02*
X93035714Y-105326247D01*
X93035714Y-105326247D02*
X93083333Y-105421485D01*
X93083333Y-105421485D02*
X93083333Y-105564342D01*
X93083333Y-105564342D02*
X93035714Y-105659580D01*
X93035714Y-105659580D02*
X92988095Y-105707200D01*
X92988095Y-105707200D02*
X92892857Y-105754819D01*
X92892857Y-105754819D02*
X92511905Y-105754819D01*
X92511905Y-105754819D02*
X92511905Y-104754819D01*
X92511905Y-104754819D02*
X92845238Y-104754819D01*
X92845238Y-104754819D02*
X92940476Y-104802438D01*
X92940476Y-104802438D02*
X92988095Y-104850057D01*
X92988095Y-104850057D02*
X93035714Y-104945295D01*
X93035714Y-104945295D02*
X93035714Y-105040533D01*
X93035714Y-105040533D02*
X92988095Y-105135771D01*
X92988095Y-105135771D02*
X92940476Y-105183390D01*
X92940476Y-105183390D02*
X92845238Y-105231009D01*
X92845238Y-105231009D02*
X92511905Y-105231009D01*
X93511905Y-104754819D02*
X93511905Y-105564342D01*
X93511905Y-105564342D02*
X93559524Y-105659580D01*
X93559524Y-105659580D02*
X93607143Y-105707200D01*
X93607143Y-105707200D02*
X93702381Y-105754819D01*
X93702381Y-105754819D02*
X93892857Y-105754819D01*
X93892857Y-105754819D02*
X93988095Y-105707200D01*
X93988095Y-105707200D02*
X94035714Y-105659580D01*
X94035714Y-105659580D02*
X94083333Y-105564342D01*
X94083333Y-105564342D02*
X94083333Y-104754819D01*
X94416667Y-104754819D02*
X94988095Y-104754819D01*
X94702381Y-105754819D02*
X94702381Y-104754819D01*
X95178572Y-104754819D02*
X95750000Y-104754819D01*
X95464286Y-105754819D02*
X95464286Y-104754819D01*
X96273810Y-104754819D02*
X96464286Y-104754819D01*
X96464286Y-104754819D02*
X96559524Y-104802438D01*
X96559524Y-104802438D02*
X96654762Y-104897676D01*
X96654762Y-104897676D02*
X96702381Y-105088152D01*
X96702381Y-105088152D02*
X96702381Y-105421485D01*
X96702381Y-105421485D02*
X96654762Y-105611961D01*
X96654762Y-105611961D02*
X96559524Y-105707200D01*
X96559524Y-105707200D02*
X96464286Y-105754819D01*
X96464286Y-105754819D02*
X96273810Y-105754819D01*
X96273810Y-105754819D02*
X96178572Y-105707200D01*
X96178572Y-105707200D02*
X96083334Y-105611961D01*
X96083334Y-105611961D02*
X96035715Y-105421485D01*
X96035715Y-105421485D02*
X96035715Y-105088152D01*
X96035715Y-105088152D02*
X96083334Y-104897676D01*
X96083334Y-104897676D02*
X96178572Y-104802438D01*
X96178572Y-104802438D02*
X96273810Y-104754819D01*
X97130953Y-105754819D02*
X97130953Y-104754819D01*
X97130953Y-104754819D02*
X97702381Y-105754819D01*
X97702381Y-105754819D02*
X97702381Y-104754819D01*
X98369048Y-104754819D02*
X98464286Y-104754819D01*
X98464286Y-104754819D02*
X98559524Y-104802438D01*
X98559524Y-104802438D02*
X98607143Y-104850057D01*
X98607143Y-104850057D02*
X98654762Y-104945295D01*
X98654762Y-104945295D02*
X98702381Y-105135771D01*
X98702381Y-105135771D02*
X98702381Y-105373866D01*
X98702381Y-105373866D02*
X98654762Y-105564342D01*
X98654762Y-105564342D02*
X98607143Y-105659580D01*
X98607143Y-105659580D02*
X98559524Y-105707200D01*
X98559524Y-105707200D02*
X98464286Y-105754819D01*
X98464286Y-105754819D02*
X98369048Y-105754819D01*
X98369048Y-105754819D02*
X98273810Y-105707200D01*
X98273810Y-105707200D02*
X98226191Y-105659580D01*
X98226191Y-105659580D02*
X98178572Y-105564342D01*
X98178572Y-105564342D02*
X98130953Y-105373866D01*
X98130953Y-105373866D02*
X98130953Y-105135771D01*
X98130953Y-105135771D02*
X98178572Y-104945295D01*
X98178572Y-104945295D02*
X98226191Y-104850057D01*
X98226191Y-104850057D02*
X98273810Y-104802438D01*
X98273810Y-104802438D02*
X98369048Y-104754819D01*
D12*
X183388095Y-65497419D02*
X183388095Y-66306942D01*
X183388095Y-66306942D02*
X183435714Y-66402180D01*
X183435714Y-66402180D02*
X183483333Y-66449800D01*
X183483333Y-66449800D02*
X183578571Y-66497419D01*
X183578571Y-66497419D02*
X183769047Y-66497419D01*
X183769047Y-66497419D02*
X183864285Y-66449800D01*
X183864285Y-66449800D02*
X183911904Y-66402180D01*
X183911904Y-66402180D02*
X183959523Y-66306942D01*
X183959523Y-66306942D02*
X183959523Y-65497419D01*
X184959523Y-66497419D02*
X184388095Y-66497419D01*
X184673809Y-66497419D02*
X184673809Y-65497419D01*
X184673809Y-65497419D02*
X184578571Y-65640276D01*
X184578571Y-65640276D02*
X184483333Y-65735514D01*
X184483333Y-65735514D02*
X184388095Y-65783133D01*
X178738884Y-87502419D02*
X178738884Y-86502419D01*
X178738884Y-86502419D02*
X179119836Y-86502419D01*
X179119836Y-86502419D02*
X179215074Y-86550038D01*
X179215074Y-86550038D02*
X179262693Y-86597657D01*
X179262693Y-86597657D02*
X179310312Y-86692895D01*
X179310312Y-86692895D02*
X179310312Y-86835752D01*
X179310312Y-86835752D02*
X179262693Y-86930990D01*
X179262693Y-86930990D02*
X179215074Y-86978609D01*
X179215074Y-86978609D02*
X179119836Y-87026228D01*
X179119836Y-87026228D02*
X178738884Y-87026228D01*
X179738884Y-87502419D02*
X179738884Y-86835752D01*
X179738884Y-87026228D02*
X179786503Y-86930990D01*
X179786503Y-86930990D02*
X179834122Y-86883371D01*
X179834122Y-86883371D02*
X179929360Y-86835752D01*
X179929360Y-86835752D02*
X180024598Y-86835752D01*
X180500789Y-87502419D02*
X180405551Y-87454800D01*
X180405551Y-87454800D02*
X180357932Y-87407180D01*
X180357932Y-87407180D02*
X180310313Y-87311942D01*
X180310313Y-87311942D02*
X180310313Y-87026228D01*
X180310313Y-87026228D02*
X180357932Y-86930990D01*
X180357932Y-86930990D02*
X180405551Y-86883371D01*
X180405551Y-86883371D02*
X180500789Y-86835752D01*
X180500789Y-86835752D02*
X180643646Y-86835752D01*
X180643646Y-86835752D02*
X180738884Y-86883371D01*
X180738884Y-86883371D02*
X180786503Y-86930990D01*
X180786503Y-86930990D02*
X180834122Y-87026228D01*
X180834122Y-87026228D02*
X180834122Y-87311942D01*
X180834122Y-87311942D02*
X180786503Y-87407180D01*
X180786503Y-87407180D02*
X180738884Y-87454800D01*
X180738884Y-87454800D02*
X180643646Y-87502419D01*
X180643646Y-87502419D02*
X180500789Y-87502419D01*
X182024599Y-87502419D02*
X182024599Y-86502419D01*
X182024599Y-86502419D02*
X182357932Y-87216704D01*
X182357932Y-87216704D02*
X182691265Y-86502419D01*
X182691265Y-86502419D02*
X182691265Y-87502419D01*
X183167456Y-87502419D02*
X183167456Y-86835752D01*
X183167456Y-86502419D02*
X183119837Y-86550038D01*
X183119837Y-86550038D02*
X183167456Y-86597657D01*
X183167456Y-86597657D02*
X183215075Y-86550038D01*
X183215075Y-86550038D02*
X183167456Y-86502419D01*
X183167456Y-86502419D02*
X183167456Y-86597657D01*
X184072217Y-87454800D02*
X183976979Y-87502419D01*
X183976979Y-87502419D02*
X183786503Y-87502419D01*
X183786503Y-87502419D02*
X183691265Y-87454800D01*
X183691265Y-87454800D02*
X183643646Y-87407180D01*
X183643646Y-87407180D02*
X183596027Y-87311942D01*
X183596027Y-87311942D02*
X183596027Y-87026228D01*
X183596027Y-87026228D02*
X183643646Y-86930990D01*
X183643646Y-86930990D02*
X183691265Y-86883371D01*
X183691265Y-86883371D02*
X183786503Y-86835752D01*
X183786503Y-86835752D02*
X183976979Y-86835752D01*
X183976979Y-86835752D02*
X184072217Y-86883371D01*
X184500789Y-87502419D02*
X184500789Y-86835752D01*
X184500789Y-87026228D02*
X184548408Y-86930990D01*
X184548408Y-86930990D02*
X184596027Y-86883371D01*
X184596027Y-86883371D02*
X184691265Y-86835752D01*
X184691265Y-86835752D02*
X184786503Y-86835752D01*
X185262694Y-87502419D02*
X185167456Y-87454800D01*
X185167456Y-87454800D02*
X185119837Y-87407180D01*
X185119837Y-87407180D02*
X185072218Y-87311942D01*
X185072218Y-87311942D02*
X185072218Y-87026228D01*
X185072218Y-87026228D02*
X185119837Y-86930990D01*
X185119837Y-86930990D02*
X185167456Y-86883371D01*
X185167456Y-86883371D02*
X185262694Y-86835752D01*
X185262694Y-86835752D02*
X185405551Y-86835752D01*
X185405551Y-86835752D02*
X185500789Y-86883371D01*
X185500789Y-86883371D02*
X185548408Y-86930990D01*
X185548408Y-86930990D02*
X185596027Y-87026228D01*
X185596027Y-87026228D02*
X185596027Y-87311942D01*
X185596027Y-87311942D02*
X185548408Y-87407180D01*
X185548408Y-87407180D02*
X185500789Y-87454800D01*
X185500789Y-87454800D02*
X185405551Y-87502419D01*
X185405551Y-87502419D02*
X185262694Y-87502419D01*
X186738884Y-86454800D02*
X185881742Y-87740514D01*
X187072218Y-87502419D02*
X187072218Y-86502419D01*
X187072218Y-86502419D02*
X187405551Y-87216704D01*
X187405551Y-87216704D02*
X187738884Y-86502419D01*
X187738884Y-86502419D02*
X187738884Y-87502419D01*
X188215075Y-87502419D02*
X188215075Y-86835752D01*
X188215075Y-86502419D02*
X188167456Y-86550038D01*
X188167456Y-86550038D02*
X188215075Y-86597657D01*
X188215075Y-86597657D02*
X188262694Y-86550038D01*
X188262694Y-86550038D02*
X188215075Y-86502419D01*
X188215075Y-86502419D02*
X188215075Y-86597657D01*
X188691265Y-86835752D02*
X188691265Y-87502419D01*
X188691265Y-86930990D02*
X188738884Y-86883371D01*
X188738884Y-86883371D02*
X188834122Y-86835752D01*
X188834122Y-86835752D02*
X188976979Y-86835752D01*
X188976979Y-86835752D02*
X189072217Y-86883371D01*
X189072217Y-86883371D02*
X189119836Y-86978609D01*
X189119836Y-86978609D02*
X189119836Y-87502419D01*
X189596027Y-87502419D02*
X189596027Y-86835752D01*
X189596027Y-86502419D02*
X189548408Y-86550038D01*
X189548408Y-86550038D02*
X189596027Y-86597657D01*
X189596027Y-86597657D02*
X189643646Y-86550038D01*
X189643646Y-86550038D02*
X189596027Y-86502419D01*
X189596027Y-86502419D02*
X189596027Y-86597657D01*
X181866265Y-85946704D02*
X182342455Y-85946704D01*
X181771027Y-86232419D02*
X182104360Y-85232419D01*
X182104360Y-85232419D02*
X182437693Y-86232419D01*
X182771027Y-86232419D02*
X182771027Y-85565752D01*
X182771027Y-85756228D02*
X182818646Y-85660990D01*
X182818646Y-85660990D02*
X182866265Y-85613371D01*
X182866265Y-85613371D02*
X182961503Y-85565752D01*
X182961503Y-85565752D02*
X183056741Y-85565752D01*
X183818646Y-86232419D02*
X183818646Y-85232419D01*
X183818646Y-86184800D02*
X183723408Y-86232419D01*
X183723408Y-86232419D02*
X183532932Y-86232419D01*
X183532932Y-86232419D02*
X183437694Y-86184800D01*
X183437694Y-86184800D02*
X183390075Y-86137180D01*
X183390075Y-86137180D02*
X183342456Y-86041942D01*
X183342456Y-86041942D02*
X183342456Y-85756228D01*
X183342456Y-85756228D02*
X183390075Y-85660990D01*
X183390075Y-85660990D02*
X183437694Y-85613371D01*
X183437694Y-85613371D02*
X183532932Y-85565752D01*
X183532932Y-85565752D02*
X183723408Y-85565752D01*
X183723408Y-85565752D02*
X183818646Y-85613371D01*
X184723408Y-85565752D02*
X184723408Y-86232419D01*
X184294837Y-85565752D02*
X184294837Y-86089561D01*
X184294837Y-86089561D02*
X184342456Y-86184800D01*
X184342456Y-86184800D02*
X184437694Y-86232419D01*
X184437694Y-86232419D02*
X184580551Y-86232419D01*
X184580551Y-86232419D02*
X184675789Y-86184800D01*
X184675789Y-86184800D02*
X184723408Y-86137180D01*
X185199599Y-86232419D02*
X185199599Y-85565752D01*
X185199599Y-85232419D02*
X185151980Y-85280038D01*
X185151980Y-85280038D02*
X185199599Y-85327657D01*
X185199599Y-85327657D02*
X185247218Y-85280038D01*
X185247218Y-85280038D02*
X185199599Y-85232419D01*
X185199599Y-85232419D02*
X185199599Y-85327657D01*
X185675789Y-85565752D02*
X185675789Y-86232419D01*
X185675789Y-85660990D02*
X185723408Y-85613371D01*
X185723408Y-85613371D02*
X185818646Y-85565752D01*
X185818646Y-85565752D02*
X185961503Y-85565752D01*
X185961503Y-85565752D02*
X186056741Y-85613371D01*
X186056741Y-85613371D02*
X186104360Y-85708609D01*
X186104360Y-85708609D02*
X186104360Y-86232419D01*
X186723408Y-86232419D02*
X186628170Y-86184800D01*
X186628170Y-86184800D02*
X186580551Y-86137180D01*
X186580551Y-86137180D02*
X186532932Y-86041942D01*
X186532932Y-86041942D02*
X186532932Y-85756228D01*
X186532932Y-85756228D02*
X186580551Y-85660990D01*
X186580551Y-85660990D02*
X186628170Y-85613371D01*
X186628170Y-85613371D02*
X186723408Y-85565752D01*
X186723408Y-85565752D02*
X186866265Y-85565752D01*
X186866265Y-85565752D02*
X186961503Y-85613371D01*
X186961503Y-85613371D02*
X187009122Y-85660990D01*
X187009122Y-85660990D02*
X187056741Y-85756228D01*
X187056741Y-85756228D02*
X187056741Y-86041942D01*
X187056741Y-86041942D02*
X187009122Y-86137180D01*
X187009122Y-86137180D02*
X186961503Y-86184800D01*
X186961503Y-86184800D02*
X186866265Y-86232419D01*
X186866265Y-86232419D02*
X186723408Y-86232419D01*
D10*
X177559523Y-159754819D02*
X177559523Y-160469104D01*
X177559523Y-160469104D02*
X177511904Y-160611961D01*
X177511904Y-160611961D02*
X177416666Y-160707200D01*
X177416666Y-160707200D02*
X177273809Y-160754819D01*
X177273809Y-160754819D02*
X177178571Y-160754819D01*
X177988095Y-160469104D02*
X178464285Y-160469104D01*
X177892857Y-160754819D02*
X178226190Y-159754819D01*
X178226190Y-159754819D02*
X178559523Y-160754819D01*
X179464285Y-160659580D02*
X179416666Y-160707200D01*
X179416666Y-160707200D02*
X179273809Y-160754819D01*
X179273809Y-160754819D02*
X179178571Y-160754819D01*
X179178571Y-160754819D02*
X179035714Y-160707200D01*
X179035714Y-160707200D02*
X178940476Y-160611961D01*
X178940476Y-160611961D02*
X178892857Y-160516723D01*
X178892857Y-160516723D02*
X178845238Y-160326247D01*
X178845238Y-160326247D02*
X178845238Y-160183390D01*
X178845238Y-160183390D02*
X178892857Y-159992914D01*
X178892857Y-159992914D02*
X178940476Y-159897676D01*
X178940476Y-159897676D02*
X179035714Y-159802438D01*
X179035714Y-159802438D02*
X179178571Y-159754819D01*
X179178571Y-159754819D02*
X179273809Y-159754819D01*
X179273809Y-159754819D02*
X179416666Y-159802438D01*
X179416666Y-159802438D02*
X179464285Y-159850057D01*
X179892857Y-160754819D02*
X179892857Y-159754819D01*
X180464285Y-160754819D02*
X180035714Y-160183390D01*
X180464285Y-159754819D02*
X179892857Y-160326247D01*
X180654762Y-160850057D02*
X181416666Y-160850057D01*
X182226190Y-160659580D02*
X182178571Y-160707200D01*
X182178571Y-160707200D02*
X182035714Y-160754819D01*
X182035714Y-160754819D02*
X181940476Y-160754819D01*
X181940476Y-160754819D02*
X181797619Y-160707200D01*
X181797619Y-160707200D02*
X181702381Y-160611961D01*
X181702381Y-160611961D02*
X181654762Y-160516723D01*
X181654762Y-160516723D02*
X181607143Y-160326247D01*
X181607143Y-160326247D02*
X181607143Y-160183390D01*
X181607143Y-160183390D02*
X181654762Y-159992914D01*
X181654762Y-159992914D02*
X181702381Y-159897676D01*
X181702381Y-159897676D02*
X181797619Y-159802438D01*
X181797619Y-159802438D02*
X181940476Y-159754819D01*
X181940476Y-159754819D02*
X182035714Y-159754819D01*
X182035714Y-159754819D02*
X182178571Y-159802438D01*
X182178571Y-159802438D02*
X182226190Y-159850057D01*
X182845238Y-159754819D02*
X183035714Y-159754819D01*
X183035714Y-159754819D02*
X183130952Y-159802438D01*
X183130952Y-159802438D02*
X183226190Y-159897676D01*
X183226190Y-159897676D02*
X183273809Y-160088152D01*
X183273809Y-160088152D02*
X183273809Y-160421485D01*
X183273809Y-160421485D02*
X183226190Y-160611961D01*
X183226190Y-160611961D02*
X183130952Y-160707200D01*
X183130952Y-160707200D02*
X183035714Y-160754819D01*
X183035714Y-160754819D02*
X182845238Y-160754819D01*
X182845238Y-160754819D02*
X182750000Y-160707200D01*
X182750000Y-160707200D02*
X182654762Y-160611961D01*
X182654762Y-160611961D02*
X182607143Y-160421485D01*
X182607143Y-160421485D02*
X182607143Y-160088152D01*
X182607143Y-160088152D02*
X182654762Y-159897676D01*
X182654762Y-159897676D02*
X182750000Y-159802438D01*
X182750000Y-159802438D02*
X182845238Y-159754819D01*
X183702381Y-160754819D02*
X183702381Y-159754819D01*
X183702381Y-159754819D02*
X184273809Y-160754819D01*
X184273809Y-160754819D02*
X184273809Y-159754819D01*
X185178571Y-160088152D02*
X185178571Y-160754819D01*
X184940476Y-159707200D02*
X184702381Y-160421485D01*
X184702381Y-160421485D02*
X185321428Y-160421485D01*
X189874819Y-115166666D02*
X189398628Y-115499999D01*
X189874819Y-115738094D02*
X188874819Y-115738094D01*
X188874819Y-115738094D02*
X188874819Y-115357142D01*
X188874819Y-115357142D02*
X188922438Y-115261904D01*
X188922438Y-115261904D02*
X188970057Y-115214285D01*
X188970057Y-115214285D02*
X189065295Y-115166666D01*
X189065295Y-115166666D02*
X189208152Y-115166666D01*
X189208152Y-115166666D02*
X189303390Y-115214285D01*
X189303390Y-115214285D02*
X189351009Y-115261904D01*
X189351009Y-115261904D02*
X189398628Y-115357142D01*
X189398628Y-115357142D02*
X189398628Y-115738094D01*
X188874819Y-114833332D02*
X188874819Y-114214285D01*
X188874819Y-114214285D02*
X189255771Y-114547618D01*
X189255771Y-114547618D02*
X189255771Y-114404761D01*
X189255771Y-114404761D02*
X189303390Y-114309523D01*
X189303390Y-114309523D02*
X189351009Y-114261904D01*
X189351009Y-114261904D02*
X189446247Y-114214285D01*
X189446247Y-114214285D02*
X189684342Y-114214285D01*
X189684342Y-114214285D02*
X189779580Y-114261904D01*
X189779580Y-114261904D02*
X189827200Y-114309523D01*
X189827200Y-114309523D02*
X189874819Y-114404761D01*
X189874819Y-114404761D02*
X189874819Y-114690475D01*
X189874819Y-114690475D02*
X189827200Y-114785713D01*
X189827200Y-114785713D02*
X189779580Y-114833332D01*
X188387618Y-134309726D02*
X188387618Y-135337821D01*
X188387618Y-135337821D02*
X188448095Y-135458773D01*
X188448095Y-135458773D02*
X188508571Y-135519250D01*
X188508571Y-135519250D02*
X188629523Y-135579726D01*
X188629523Y-135579726D02*
X188871428Y-135579726D01*
X188871428Y-135579726D02*
X188992380Y-135519250D01*
X188992380Y-135519250D02*
X189052857Y-135458773D01*
X189052857Y-135458773D02*
X189113333Y-135337821D01*
X189113333Y-135337821D02*
X189113333Y-134309726D01*
X189657618Y-135519250D02*
X189839047Y-135579726D01*
X189839047Y-135579726D02*
X190141428Y-135579726D01*
X190141428Y-135579726D02*
X190262380Y-135519250D01*
X190262380Y-135519250D02*
X190322856Y-135458773D01*
X190322856Y-135458773D02*
X190383333Y-135337821D01*
X190383333Y-135337821D02*
X190383333Y-135216869D01*
X190383333Y-135216869D02*
X190322856Y-135095916D01*
X190322856Y-135095916D02*
X190262380Y-135035440D01*
X190262380Y-135035440D02*
X190141428Y-134974964D01*
X190141428Y-134974964D02*
X189899523Y-134914488D01*
X189899523Y-134914488D02*
X189778571Y-134854011D01*
X189778571Y-134854011D02*
X189718094Y-134793535D01*
X189718094Y-134793535D02*
X189657618Y-134672583D01*
X189657618Y-134672583D02*
X189657618Y-134551630D01*
X189657618Y-134551630D02*
X189718094Y-134430678D01*
X189718094Y-134430678D02*
X189778571Y-134370202D01*
X189778571Y-134370202D02*
X189899523Y-134309726D01*
X189899523Y-134309726D02*
X190201904Y-134309726D01*
X190201904Y-134309726D02*
X190383333Y-134370202D01*
X190020475Y-134128297D02*
X190020475Y-135761154D01*
X191532380Y-134309726D02*
X190927618Y-134309726D01*
X190927618Y-134309726D02*
X190867142Y-134914488D01*
X190867142Y-134914488D02*
X190927618Y-134854011D01*
X190927618Y-134854011D02*
X191048571Y-134793535D01*
X191048571Y-134793535D02*
X191350952Y-134793535D01*
X191350952Y-134793535D02*
X191471904Y-134854011D01*
X191471904Y-134854011D02*
X191532380Y-134914488D01*
X191532380Y-134914488D02*
X191592857Y-135035440D01*
X191592857Y-135035440D02*
X191592857Y-135337821D01*
X191592857Y-135337821D02*
X191532380Y-135458773D01*
X191532380Y-135458773D02*
X191471904Y-135519250D01*
X191471904Y-135519250D02*
X191350952Y-135579726D01*
X191350952Y-135579726D02*
X191048571Y-135579726D01*
X191048571Y-135579726D02*
X190927618Y-135519250D01*
X190927618Y-135519250D02*
X190867142Y-135458773D01*
D11*
X184622689Y-137280449D02*
X184567051Y-137336088D01*
X184567051Y-137336088D02*
X184400137Y-137391726D01*
X184400137Y-137391726D02*
X184288861Y-137391726D01*
X184288861Y-137391726D02*
X184121946Y-137336088D01*
X184121946Y-137336088D02*
X184010670Y-137224811D01*
X184010670Y-137224811D02*
X183955032Y-137113535D01*
X183955032Y-137113535D02*
X183899394Y-136890983D01*
X183899394Y-136890983D02*
X183899394Y-136724068D01*
X183899394Y-136724068D02*
X183955032Y-136501516D01*
X183955032Y-136501516D02*
X184010670Y-136390240D01*
X184010670Y-136390240D02*
X184121946Y-136278964D01*
X184121946Y-136278964D02*
X184288861Y-136223326D01*
X184288861Y-136223326D02*
X184400137Y-136223326D01*
X184400137Y-136223326D02*
X184567051Y-136278964D01*
X184567051Y-136278964D02*
X184622689Y-136334602D01*
X185679813Y-137391726D02*
X185123432Y-137391726D01*
X185123432Y-137391726D02*
X185123432Y-136223326D01*
X186069280Y-137391726D02*
X186069280Y-136223326D01*
X186736937Y-137391726D02*
X186236194Y-136724068D01*
X186736937Y-136223326D02*
X186069280Y-136890983D01*
X183352689Y-133581726D02*
X182963222Y-133025345D01*
X182685032Y-133581726D02*
X182685032Y-132413326D01*
X182685032Y-132413326D02*
X183130137Y-132413326D01*
X183130137Y-132413326D02*
X183241413Y-132468964D01*
X183241413Y-132468964D02*
X183297051Y-132524602D01*
X183297051Y-132524602D02*
X183352689Y-132635878D01*
X183352689Y-132635878D02*
X183352689Y-132802792D01*
X183352689Y-132802792D02*
X183297051Y-132914068D01*
X183297051Y-132914068D02*
X183241413Y-132969707D01*
X183241413Y-132969707D02*
X183130137Y-133025345D01*
X183130137Y-133025345D02*
X182685032Y-133025345D01*
X184075984Y-132413326D02*
X184298537Y-132413326D01*
X184298537Y-132413326D02*
X184409813Y-132468964D01*
X184409813Y-132468964D02*
X184521089Y-132580240D01*
X184521089Y-132580240D02*
X184576727Y-132802792D01*
X184576727Y-132802792D02*
X184576727Y-133192259D01*
X184576727Y-133192259D02*
X184521089Y-133414811D01*
X184521089Y-133414811D02*
X184409813Y-133526088D01*
X184409813Y-133526088D02*
X184298537Y-133581726D01*
X184298537Y-133581726D02*
X184075984Y-133581726D01*
X184075984Y-133581726D02*
X183964708Y-133526088D01*
X183964708Y-133526088D02*
X183853432Y-133414811D01*
X183853432Y-133414811D02*
X183797794Y-133192259D01*
X183797794Y-133192259D02*
X183797794Y-132802792D01*
X183797794Y-132802792D02*
X183853432Y-132580240D01*
X183853432Y-132580240D02*
X183964708Y-132468964D01*
X183964708Y-132468964D02*
X184075984Y-132413326D01*
X184910556Y-132413326D02*
X185578213Y-132413326D01*
X185244384Y-133581726D02*
X185244384Y-132413326D01*
X185912042Y-133247897D02*
X186468423Y-133247897D01*
X185800766Y-133581726D02*
X186190232Y-132413326D01*
X186190232Y-132413326D02*
X186579699Y-133581726D01*
X187636823Y-133581726D02*
X187247356Y-133025345D01*
X186969166Y-133581726D02*
X186969166Y-132413326D01*
X186969166Y-132413326D02*
X187414271Y-132413326D01*
X187414271Y-132413326D02*
X187525547Y-132468964D01*
X187525547Y-132468964D02*
X187581185Y-132524602D01*
X187581185Y-132524602D02*
X187636823Y-132635878D01*
X187636823Y-132635878D02*
X187636823Y-132802792D01*
X187636823Y-132802792D02*
X187581185Y-132914068D01*
X187581185Y-132914068D02*
X187525547Y-132969707D01*
X187525547Y-132969707D02*
X187414271Y-133025345D01*
X187414271Y-133025345D02*
X186969166Y-133025345D01*
X188360118Y-133025345D02*
X188360118Y-133581726D01*
X187970652Y-132413326D02*
X188360118Y-133025345D01*
X188360118Y-133025345D02*
X188749585Y-132413326D01*
X190029262Y-132969707D02*
X190418729Y-132969707D01*
X190585643Y-133581726D02*
X190029262Y-133581726D01*
X190029262Y-133581726D02*
X190029262Y-132413326D01*
X190029262Y-132413326D02*
X190585643Y-132413326D01*
X191086386Y-133581726D02*
X191086386Y-132413326D01*
X191086386Y-132413326D02*
X191754043Y-133581726D01*
X191754043Y-133581726D02*
X191754043Y-132413326D01*
X192978081Y-133470449D02*
X192922443Y-133526088D01*
X192922443Y-133526088D02*
X192755529Y-133581726D01*
X192755529Y-133581726D02*
X192644253Y-133581726D01*
X192644253Y-133581726D02*
X192477338Y-133526088D01*
X192477338Y-133526088D02*
X192366062Y-133414811D01*
X192366062Y-133414811D02*
X192310424Y-133303535D01*
X192310424Y-133303535D02*
X192254786Y-133080983D01*
X192254786Y-133080983D02*
X192254786Y-132914068D01*
X192254786Y-132914068D02*
X192310424Y-132691516D01*
X192310424Y-132691516D02*
X192366062Y-132580240D01*
X192366062Y-132580240D02*
X192477338Y-132468964D01*
X192477338Y-132468964D02*
X192644253Y-132413326D01*
X192644253Y-132413326D02*
X192755529Y-132413326D01*
X192755529Y-132413326D02*
X192922443Y-132468964D01*
X192922443Y-132468964D02*
X192978081Y-132524602D01*
X193701376Y-132413326D02*
X193923929Y-132413326D01*
X193923929Y-132413326D02*
X194035205Y-132468964D01*
X194035205Y-132468964D02*
X194146481Y-132580240D01*
X194146481Y-132580240D02*
X194202119Y-132802792D01*
X194202119Y-132802792D02*
X194202119Y-133192259D01*
X194202119Y-133192259D02*
X194146481Y-133414811D01*
X194146481Y-133414811D02*
X194035205Y-133526088D01*
X194035205Y-133526088D02*
X193923929Y-133581726D01*
X193923929Y-133581726D02*
X193701376Y-133581726D01*
X193701376Y-133581726D02*
X193590100Y-133526088D01*
X193590100Y-133526088D02*
X193478824Y-133414811D01*
X193478824Y-133414811D02*
X193423186Y-133192259D01*
X193423186Y-133192259D02*
X193423186Y-132802792D01*
X193423186Y-132802792D02*
X193478824Y-132580240D01*
X193478824Y-132580240D02*
X193590100Y-132468964D01*
X193590100Y-132468964D02*
X193701376Y-132413326D01*
X194702862Y-133581726D02*
X194702862Y-132413326D01*
X194702862Y-132413326D02*
X194981052Y-132413326D01*
X194981052Y-132413326D02*
X195147967Y-132468964D01*
X195147967Y-132468964D02*
X195259243Y-132580240D01*
X195259243Y-132580240D02*
X195314881Y-132691516D01*
X195314881Y-132691516D02*
X195370519Y-132914068D01*
X195370519Y-132914068D02*
X195370519Y-133080983D01*
X195370519Y-133080983D02*
X195314881Y-133303535D01*
X195314881Y-133303535D02*
X195259243Y-133414811D01*
X195259243Y-133414811D02*
X195147967Y-133526088D01*
X195147967Y-133526088D02*
X194981052Y-133581726D01*
X194981052Y-133581726D02*
X194702862Y-133581726D01*
X195871262Y-132969707D02*
X196260729Y-132969707D01*
X196427643Y-133581726D02*
X195871262Y-133581726D01*
X195871262Y-133581726D02*
X195871262Y-132413326D01*
X195871262Y-132413326D02*
X196427643Y-132413326D01*
X197596043Y-133581726D02*
X197206576Y-133025345D01*
X196928386Y-133581726D02*
X196928386Y-132413326D01*
X196928386Y-132413326D02*
X197373491Y-132413326D01*
X197373491Y-132413326D02*
X197484767Y-132468964D01*
X197484767Y-132468964D02*
X197540405Y-132524602D01*
X197540405Y-132524602D02*
X197596043Y-132635878D01*
X197596043Y-132635878D02*
X197596043Y-132802792D01*
X197596043Y-132802792D02*
X197540405Y-132914068D01*
X197540405Y-132914068D02*
X197484767Y-132969707D01*
X197484767Y-132969707D02*
X197373491Y-133025345D01*
X197373491Y-133025345D02*
X196928386Y-133025345D01*
X193457051Y-136278964D02*
X193345775Y-136223326D01*
X193345775Y-136223326D02*
X193178861Y-136223326D01*
X193178861Y-136223326D02*
X193011946Y-136278964D01*
X193011946Y-136278964D02*
X192900670Y-136390240D01*
X192900670Y-136390240D02*
X192845032Y-136501516D01*
X192845032Y-136501516D02*
X192789394Y-136724068D01*
X192789394Y-136724068D02*
X192789394Y-136890983D01*
X192789394Y-136890983D02*
X192845032Y-137113535D01*
X192845032Y-137113535D02*
X192900670Y-137224811D01*
X192900670Y-137224811D02*
X193011946Y-137336088D01*
X193011946Y-137336088D02*
X193178861Y-137391726D01*
X193178861Y-137391726D02*
X193290137Y-137391726D01*
X193290137Y-137391726D02*
X193457051Y-137336088D01*
X193457051Y-137336088D02*
X193512689Y-137280449D01*
X193512689Y-137280449D02*
X193512689Y-136890983D01*
X193512689Y-136890983D02*
X193290137Y-136890983D01*
X194013432Y-137391726D02*
X194013432Y-136223326D01*
X194013432Y-136223326D02*
X194681089Y-137391726D01*
X194681089Y-137391726D02*
X194681089Y-136223326D01*
X195237470Y-137391726D02*
X195237470Y-136223326D01*
X195237470Y-136223326D02*
X195515660Y-136223326D01*
X195515660Y-136223326D02*
X195682575Y-136278964D01*
X195682575Y-136278964D02*
X195793851Y-136390240D01*
X195793851Y-136390240D02*
X195849489Y-136501516D01*
X195849489Y-136501516D02*
X195905127Y-136724068D01*
X195905127Y-136724068D02*
X195905127Y-136890983D01*
X195905127Y-136890983D02*
X195849489Y-137113535D01*
X195849489Y-137113535D02*
X195793851Y-137224811D01*
X195793851Y-137224811D02*
X195682575Y-137336088D01*
X195682575Y-137336088D02*
X195515660Y-137391726D01*
X195515660Y-137391726D02*
X195237470Y-137391726D01*
D10*
X83797619Y-90707200D02*
X83940476Y-90754819D01*
X83940476Y-90754819D02*
X84178571Y-90754819D01*
X84178571Y-90754819D02*
X84273809Y-90707200D01*
X84273809Y-90707200D02*
X84321428Y-90659580D01*
X84321428Y-90659580D02*
X84369047Y-90564342D01*
X84369047Y-90564342D02*
X84369047Y-90469104D01*
X84369047Y-90469104D02*
X84321428Y-90373866D01*
X84321428Y-90373866D02*
X84273809Y-90326247D01*
X84273809Y-90326247D02*
X84178571Y-90278628D01*
X84178571Y-90278628D02*
X83988095Y-90231009D01*
X83988095Y-90231009D02*
X83892857Y-90183390D01*
X83892857Y-90183390D02*
X83845238Y-90135771D01*
X83845238Y-90135771D02*
X83797619Y-90040533D01*
X83797619Y-90040533D02*
X83797619Y-89945295D01*
X83797619Y-89945295D02*
X83845238Y-89850057D01*
X83845238Y-89850057D02*
X83892857Y-89802438D01*
X83892857Y-89802438D02*
X83988095Y-89754819D01*
X83988095Y-89754819D02*
X84226190Y-89754819D01*
X84226190Y-89754819D02*
X84369047Y-89802438D01*
X84797619Y-90231009D02*
X85130952Y-90231009D01*
X85273809Y-90754819D02*
X84797619Y-90754819D01*
X84797619Y-90754819D02*
X84797619Y-89754819D01*
X84797619Y-89754819D02*
X85273809Y-89754819D01*
X86273809Y-90659580D02*
X86226190Y-90707200D01*
X86226190Y-90707200D02*
X86083333Y-90754819D01*
X86083333Y-90754819D02*
X85988095Y-90754819D01*
X85988095Y-90754819D02*
X85845238Y-90707200D01*
X85845238Y-90707200D02*
X85750000Y-90611961D01*
X85750000Y-90611961D02*
X85702381Y-90516723D01*
X85702381Y-90516723D02*
X85654762Y-90326247D01*
X85654762Y-90326247D02*
X85654762Y-90183390D01*
X85654762Y-90183390D02*
X85702381Y-89992914D01*
X85702381Y-89992914D02*
X85750000Y-89897676D01*
X85750000Y-89897676D02*
X85845238Y-89802438D01*
X85845238Y-89802438D02*
X85988095Y-89754819D01*
X85988095Y-89754819D02*
X86083333Y-89754819D01*
X86083333Y-89754819D02*
X86226190Y-89802438D01*
X86226190Y-89802438D02*
X86273809Y-89850057D01*
X86559524Y-89754819D02*
X87130952Y-89754819D01*
X86845238Y-90754819D02*
X86845238Y-89754819D01*
X87464286Y-90754819D02*
X87464286Y-89754819D01*
X88130952Y-89754819D02*
X88321428Y-89754819D01*
X88321428Y-89754819D02*
X88416666Y-89802438D01*
X88416666Y-89802438D02*
X88511904Y-89897676D01*
X88511904Y-89897676D02*
X88559523Y-90088152D01*
X88559523Y-90088152D02*
X88559523Y-90421485D01*
X88559523Y-90421485D02*
X88511904Y-90611961D01*
X88511904Y-90611961D02*
X88416666Y-90707200D01*
X88416666Y-90707200D02*
X88321428Y-90754819D01*
X88321428Y-90754819D02*
X88130952Y-90754819D01*
X88130952Y-90754819D02*
X88035714Y-90707200D01*
X88035714Y-90707200D02*
X87940476Y-90611961D01*
X87940476Y-90611961D02*
X87892857Y-90421485D01*
X87892857Y-90421485D02*
X87892857Y-90088152D01*
X87892857Y-90088152D02*
X87940476Y-89897676D01*
X87940476Y-89897676D02*
X88035714Y-89802438D01*
X88035714Y-89802438D02*
X88130952Y-89754819D01*
X88988095Y-90754819D02*
X88988095Y-89754819D01*
X88988095Y-89754819D02*
X89559523Y-90754819D01*
X89559523Y-90754819D02*
X89559523Y-89754819D01*
X89797619Y-90850057D02*
X90559523Y-90850057D01*
X90702381Y-89754819D02*
X91321428Y-89754819D01*
X91321428Y-89754819D02*
X90988095Y-90135771D01*
X90988095Y-90135771D02*
X91130952Y-90135771D01*
X91130952Y-90135771D02*
X91226190Y-90183390D01*
X91226190Y-90183390D02*
X91273809Y-90231009D01*
X91273809Y-90231009D02*
X91321428Y-90326247D01*
X91321428Y-90326247D02*
X91321428Y-90564342D01*
X91321428Y-90564342D02*
X91273809Y-90659580D01*
X91273809Y-90659580D02*
X91226190Y-90707200D01*
X91226190Y-90707200D02*
X91130952Y-90754819D01*
X91130952Y-90754819D02*
X90845238Y-90754819D01*
X90845238Y-90754819D02*
X90750000Y-90707200D01*
X90750000Y-90707200D02*
X90702381Y-90659580D01*
X91511905Y-90850057D02*
X92273809Y-90850057D01*
X92845238Y-90231009D02*
X92988095Y-90278628D01*
X92988095Y-90278628D02*
X93035714Y-90326247D01*
X93035714Y-90326247D02*
X93083333Y-90421485D01*
X93083333Y-90421485D02*
X93083333Y-90564342D01*
X93083333Y-90564342D02*
X93035714Y-90659580D01*
X93035714Y-90659580D02*
X92988095Y-90707200D01*
X92988095Y-90707200D02*
X92892857Y-90754819D01*
X92892857Y-90754819D02*
X92511905Y-90754819D01*
X92511905Y-90754819D02*
X92511905Y-89754819D01*
X92511905Y-89754819D02*
X92845238Y-89754819D01*
X92845238Y-89754819D02*
X92940476Y-89802438D01*
X92940476Y-89802438D02*
X92988095Y-89850057D01*
X92988095Y-89850057D02*
X93035714Y-89945295D01*
X93035714Y-89945295D02*
X93035714Y-90040533D01*
X93035714Y-90040533D02*
X92988095Y-90135771D01*
X92988095Y-90135771D02*
X92940476Y-90183390D01*
X92940476Y-90183390D02*
X92845238Y-90231009D01*
X92845238Y-90231009D02*
X92511905Y-90231009D01*
X93511905Y-89754819D02*
X93511905Y-90564342D01*
X93511905Y-90564342D02*
X93559524Y-90659580D01*
X93559524Y-90659580D02*
X93607143Y-90707200D01*
X93607143Y-90707200D02*
X93702381Y-90754819D01*
X93702381Y-90754819D02*
X93892857Y-90754819D01*
X93892857Y-90754819D02*
X93988095Y-90707200D01*
X93988095Y-90707200D02*
X94035714Y-90659580D01*
X94035714Y-90659580D02*
X94083333Y-90564342D01*
X94083333Y-90564342D02*
X94083333Y-89754819D01*
X94416667Y-89754819D02*
X94988095Y-89754819D01*
X94702381Y-90754819D02*
X94702381Y-89754819D01*
X95178572Y-89754819D02*
X95750000Y-89754819D01*
X95464286Y-90754819D02*
X95464286Y-89754819D01*
X96273810Y-89754819D02*
X96464286Y-89754819D01*
X96464286Y-89754819D02*
X96559524Y-89802438D01*
X96559524Y-89802438D02*
X96654762Y-89897676D01*
X96654762Y-89897676D02*
X96702381Y-90088152D01*
X96702381Y-90088152D02*
X96702381Y-90421485D01*
X96702381Y-90421485D02*
X96654762Y-90611961D01*
X96654762Y-90611961D02*
X96559524Y-90707200D01*
X96559524Y-90707200D02*
X96464286Y-90754819D01*
X96464286Y-90754819D02*
X96273810Y-90754819D01*
X96273810Y-90754819D02*
X96178572Y-90707200D01*
X96178572Y-90707200D02*
X96083334Y-90611961D01*
X96083334Y-90611961D02*
X96035715Y-90421485D01*
X96035715Y-90421485D02*
X96035715Y-90088152D01*
X96035715Y-90088152D02*
X96083334Y-89897676D01*
X96083334Y-89897676D02*
X96178572Y-89802438D01*
X96178572Y-89802438D02*
X96273810Y-89754819D01*
X97130953Y-90754819D02*
X97130953Y-89754819D01*
X97130953Y-89754819D02*
X97702381Y-90754819D01*
X97702381Y-90754819D02*
X97702381Y-89754819D01*
X98369048Y-89754819D02*
X98464286Y-89754819D01*
X98464286Y-89754819D02*
X98559524Y-89802438D01*
X98559524Y-89802438D02*
X98607143Y-89850057D01*
X98607143Y-89850057D02*
X98654762Y-89945295D01*
X98654762Y-89945295D02*
X98702381Y-90135771D01*
X98702381Y-90135771D02*
X98702381Y-90373866D01*
X98702381Y-90373866D02*
X98654762Y-90564342D01*
X98654762Y-90564342D02*
X98607143Y-90659580D01*
X98607143Y-90659580D02*
X98559524Y-90707200D01*
X98559524Y-90707200D02*
X98464286Y-90754819D01*
X98464286Y-90754819D02*
X98369048Y-90754819D01*
X98369048Y-90754819D02*
X98273810Y-90707200D01*
X98273810Y-90707200D02*
X98226191Y-90659580D01*
X98226191Y-90659580D02*
X98178572Y-90564342D01*
X98178572Y-90564342D02*
X98130953Y-90373866D01*
X98130953Y-90373866D02*
X98130953Y-90135771D01*
X98130953Y-90135771D02*
X98178572Y-89945295D01*
X98178572Y-89945295D02*
X98226191Y-89850057D01*
X98226191Y-89850057D02*
X98273810Y-89802438D01*
X98273810Y-89802438D02*
X98369048Y-89754819D01*
X165034819Y-120818094D02*
X164034819Y-120818094D01*
X164034819Y-120818094D02*
X164034819Y-120579999D01*
X164034819Y-120579999D02*
X164082438Y-120437142D01*
X164082438Y-120437142D02*
X164177676Y-120341904D01*
X164177676Y-120341904D02*
X164272914Y-120294285D01*
X164272914Y-120294285D02*
X164463390Y-120246666D01*
X164463390Y-120246666D02*
X164606247Y-120246666D01*
X164606247Y-120246666D02*
X164796723Y-120294285D01*
X164796723Y-120294285D02*
X164891961Y-120341904D01*
X164891961Y-120341904D02*
X164987200Y-120437142D01*
X164987200Y-120437142D02*
X165034819Y-120579999D01*
X165034819Y-120579999D02*
X165034819Y-120818094D01*
X165034819Y-119294285D02*
X165034819Y-119865713D01*
X165034819Y-119579999D02*
X164034819Y-119579999D01*
X164034819Y-119579999D02*
X164177676Y-119675237D01*
X164177676Y-119675237D02*
X164272914Y-119770475D01*
X164272914Y-119770475D02*
X164320533Y-119865713D01*
X165754819Y-125421904D02*
X164754819Y-125421904D01*
X165754819Y-124850476D02*
X165183390Y-125279047D01*
X164754819Y-124850476D02*
X165326247Y-125421904D01*
D13*
%TO.C,U$2*%
X183690000Y-123730000D02*
X183690000Y-126270000D01*
X183690000Y-126270000D02*
X193850000Y-126270000D01*
X193850000Y-123730000D02*
X183690000Y-123730000D01*
X193850000Y-126270000D02*
X193850000Y-123730000D01*
D14*
%TO.C,J1*%
X77900000Y-39700000D02*
X87100000Y-39700000D01*
X77900000Y-48500000D02*
X77900000Y-39700000D01*
X77900000Y-54400000D02*
X77900000Y-52500000D01*
X80600000Y-54400000D02*
X77900000Y-54400000D01*
X86250000Y-54600000D02*
X87300000Y-54600000D01*
X87100000Y-39700000D02*
X87100000Y-54400000D01*
X87100000Y-54400000D02*
X84500000Y-54400000D01*
X87300000Y-53550000D02*
X87300000Y-54600000D01*
%TO.C,SW6*%
X134890000Y-154590000D02*
X134890000Y-157090000D01*
X135190000Y-154890000D02*
X135190000Y-162610000D01*
X135190000Y-162610000D02*
X139210000Y-162610000D01*
X136690000Y-154890000D02*
X136690000Y-155890000D01*
X136690000Y-155890000D02*
X135190000Y-155890000D01*
X136690000Y-161610000D02*
X135190000Y-161610000D01*
X136690000Y-162610000D02*
X136690000Y-161610000D01*
X137390000Y-154590000D02*
X134890000Y-154590000D01*
X137500000Y-154890000D02*
X137500000Y-155390000D01*
X137500000Y-155390000D02*
X138710000Y-155390000D01*
X137500000Y-162110000D02*
X137500000Y-162610000D01*
X138710000Y-155390000D02*
X138710000Y-162110000D01*
X138710000Y-162110000D02*
X137500000Y-162110000D01*
X139210000Y-154890000D02*
X135190000Y-154890000D01*
X139210000Y-162610000D02*
X139210000Y-154890000D01*
%TO.C,SW4*%
X119840000Y-154590000D02*
X119840000Y-157090000D01*
X120140000Y-154890000D02*
X120140000Y-162610000D01*
X120140000Y-162610000D02*
X124160000Y-162610000D01*
X121640000Y-154890000D02*
X121640000Y-155890000D01*
X121640000Y-155890000D02*
X120140000Y-155890000D01*
X121640000Y-161610000D02*
X120140000Y-161610000D01*
X121640000Y-162610000D02*
X121640000Y-161610000D01*
X122340000Y-154590000D02*
X119840000Y-154590000D01*
X122450000Y-154890000D02*
X122450000Y-155390000D01*
X122450000Y-155390000D02*
X123660000Y-155390000D01*
X122450000Y-162110000D02*
X122450000Y-162610000D01*
X123660000Y-155390000D02*
X123660000Y-162110000D01*
X123660000Y-162110000D02*
X122450000Y-162110000D01*
X124160000Y-154890000D02*
X120140000Y-154890000D01*
X124160000Y-162610000D02*
X124160000Y-154890000D01*
%TO.C,SW1*%
X97340000Y-154590000D02*
X97340000Y-157090000D01*
X97640000Y-154890000D02*
X97640000Y-162610000D01*
X97640000Y-162610000D02*
X101660000Y-162610000D01*
X99140000Y-154890000D02*
X99140000Y-155890000D01*
X99140000Y-155890000D02*
X97640000Y-155890000D01*
X99140000Y-161610000D02*
X97640000Y-161610000D01*
X99140000Y-162610000D02*
X99140000Y-161610000D01*
X99840000Y-154590000D02*
X97340000Y-154590000D01*
X99950000Y-154890000D02*
X99950000Y-155390000D01*
X99950000Y-155390000D02*
X101160000Y-155390000D01*
X99950000Y-162110000D02*
X99950000Y-162610000D01*
X101160000Y-155390000D02*
X101160000Y-162110000D01*
X101160000Y-162110000D02*
X99950000Y-162110000D01*
X101660000Y-154890000D02*
X97640000Y-154890000D01*
X101660000Y-162610000D02*
X101660000Y-154890000D01*
%TO.C,R2*%
X181580000Y-113080000D02*
X181580000Y-116920000D01*
X181580000Y-116920000D02*
X183420000Y-116920000D01*
X182500000Y-112130000D02*
X182500000Y-113080000D01*
X182500000Y-117870000D02*
X182500000Y-116920000D01*
X183420000Y-113080000D02*
X181580000Y-113080000D01*
X183420000Y-116920000D02*
X183420000Y-113080000D01*
D13*
%TO.C,1*%
X158750000Y-40640000D02*
X158750000Y-69850000D01*
X158750000Y-69850000D02*
X195580000Y-69850000D01*
X167640000Y-40640000D02*
X158750000Y-40640000D01*
X168910000Y-40640000D02*
X167640000Y-40640000D01*
X195580000Y-40640000D02*
X168910000Y-40640000D01*
X195580000Y-69850000D02*
X195580000Y-40640000D01*
D14*
%TO.C,POWER_LED0*%
X87090000Y-67610000D02*
X87090000Y-70110000D01*
X87090000Y-70110000D02*
X89590000Y-70110000D01*
X87390000Y-65790000D02*
X87390000Y-69810000D01*
X87390000Y-67500000D02*
X87890000Y-67500000D01*
X87390000Y-68310000D02*
X88390000Y-68310000D01*
X87390000Y-69810000D02*
X95110000Y-69810000D01*
X87890000Y-66290000D02*
X94610000Y-66290000D01*
X87890000Y-67500000D02*
X87890000Y-66290000D01*
X88390000Y-68310000D02*
X88390000Y-69810000D01*
X94110000Y-68310000D02*
X94110000Y-69810000D01*
X94610000Y-66290000D02*
X94610000Y-67500000D01*
X94610000Y-67500000D02*
X95110000Y-67500000D01*
X95110000Y-65790000D02*
X87390000Y-65790000D01*
X95110000Y-68310000D02*
X94110000Y-68310000D01*
X95110000Y-69810000D02*
X95110000Y-65790000D01*
%TO.C,JACK_CON3*%
X172390000Y-145190000D02*
X172390000Y-149210000D01*
X172390000Y-146690000D02*
X173390000Y-146690000D01*
X172390000Y-149210000D02*
X180110000Y-149210000D01*
X172890000Y-147500000D02*
X172390000Y-147500000D01*
X172890000Y-148710000D02*
X172890000Y-147500000D01*
X173390000Y-146690000D02*
X173390000Y-145190000D01*
X179110000Y-146690000D02*
X179110000Y-145190000D01*
X179610000Y-147500000D02*
X179610000Y-148710000D01*
X179610000Y-148710000D02*
X172890000Y-148710000D01*
X180110000Y-145190000D02*
X172390000Y-145190000D01*
X180110000Y-146690000D02*
X179110000Y-146690000D01*
X180110000Y-147500000D02*
X179610000Y-147500000D01*
X180110000Y-149210000D02*
X180110000Y-145190000D01*
X180410000Y-144890000D02*
X177910000Y-144890000D01*
X180410000Y-147390000D02*
X180410000Y-144890000D01*
%TO.C,JACK_CON1*%
X159890000Y-145190000D02*
X159890000Y-149210000D01*
X159890000Y-146690000D02*
X160890000Y-146690000D01*
X159890000Y-149210000D02*
X167610000Y-149210000D01*
X160390000Y-147500000D02*
X159890000Y-147500000D01*
X160390000Y-148710000D02*
X160390000Y-147500000D01*
X160890000Y-146690000D02*
X160890000Y-145190000D01*
X166610000Y-146690000D02*
X166610000Y-145190000D01*
X167110000Y-147500000D02*
X167110000Y-148710000D01*
X167110000Y-148710000D02*
X160390000Y-148710000D01*
X167610000Y-145190000D02*
X159890000Y-145190000D01*
X167610000Y-146690000D02*
X166610000Y-146690000D01*
X167610000Y-147500000D02*
X167110000Y-147500000D01*
X167610000Y-149210000D02*
X167610000Y-145190000D01*
X167910000Y-144890000D02*
X165410000Y-144890000D01*
X167910000Y-147390000D02*
X167910000Y-144890000D01*
D13*
%TO.C,U$3*%
X161110000Y-131190000D02*
X161110000Y-136270000D01*
X161110000Y-136270000D02*
X166190000Y-136270000D01*
X166190000Y-136270000D02*
X166190000Y-137540000D01*
X166190000Y-137540000D02*
X168730000Y-137540000D01*
X168730000Y-136270000D02*
X173810000Y-136270000D01*
X168730000Y-137540000D02*
X168730000Y-136270000D01*
X173810000Y-131190000D02*
X161110000Y-131190000D01*
X173810000Y-136270000D02*
X173810000Y-131190000D01*
D14*
%TO.C,SECTION_2_BUTTON0*%
X87390000Y-92690000D02*
X87390000Y-96710000D01*
X87390000Y-94190000D02*
X88390000Y-94190000D01*
X87390000Y-96710000D02*
X95110000Y-96710000D01*
X87890000Y-95000000D02*
X87390000Y-95000000D01*
X87890000Y-96210000D02*
X87890000Y-95000000D01*
X88390000Y-94190000D02*
X88390000Y-92690000D01*
X94110000Y-94190000D02*
X94110000Y-92690000D01*
X94610000Y-95000000D02*
X94610000Y-96210000D01*
X94610000Y-96210000D02*
X87890000Y-96210000D01*
X95110000Y-92690000D02*
X87390000Y-92690000D01*
X95110000Y-94190000D02*
X94110000Y-94190000D01*
X95110000Y-95000000D02*
X94610000Y-95000000D01*
X95110000Y-96710000D02*
X95110000Y-92690000D01*
X95410000Y-92390000D02*
X92910000Y-92390000D01*
X95410000Y-94890000D02*
X95410000Y-92390000D01*
%TO.C,SW5*%
X127340000Y-154590000D02*
X127340000Y-157090000D01*
X127640000Y-154890000D02*
X127640000Y-162610000D01*
X127640000Y-162610000D02*
X131660000Y-162610000D01*
X129140000Y-154890000D02*
X129140000Y-155890000D01*
X129140000Y-155890000D02*
X127640000Y-155890000D01*
X129140000Y-161610000D02*
X127640000Y-161610000D01*
X129140000Y-162610000D02*
X129140000Y-161610000D01*
X129840000Y-154590000D02*
X127340000Y-154590000D01*
X129950000Y-154890000D02*
X129950000Y-155390000D01*
X129950000Y-155390000D02*
X131160000Y-155390000D01*
X129950000Y-162110000D02*
X129950000Y-162610000D01*
X131160000Y-155390000D02*
X131160000Y-162110000D01*
X131160000Y-162110000D02*
X129950000Y-162110000D01*
X131660000Y-154890000D02*
X127640000Y-154890000D01*
X131660000Y-162610000D02*
X131660000Y-154890000D01*
%TO.C,RESET0*%
X77090000Y-67610000D02*
X77090000Y-70110000D01*
X77090000Y-70110000D02*
X79590000Y-70110000D01*
X77390000Y-65790000D02*
X77390000Y-69810000D01*
X77390000Y-67500000D02*
X77890000Y-67500000D01*
X77390000Y-68310000D02*
X78390000Y-68310000D01*
X77390000Y-69810000D02*
X85110000Y-69810000D01*
X77890000Y-66290000D02*
X84610000Y-66290000D01*
X77890000Y-67500000D02*
X77890000Y-66290000D01*
X78390000Y-68310000D02*
X78390000Y-69810000D01*
X84110000Y-68310000D02*
X84110000Y-69810000D01*
X84610000Y-66290000D02*
X84610000Y-67500000D01*
X84610000Y-67500000D02*
X85110000Y-67500000D01*
X85110000Y-65790000D02*
X77390000Y-65790000D01*
X85110000Y-68310000D02*
X84110000Y-68310000D01*
X85110000Y-69810000D02*
X85110000Y-65790000D01*
%TO.C,PWR_IN0*%
X67090000Y-67610000D02*
X67090000Y-70110000D01*
X67090000Y-70110000D02*
X69590000Y-70110000D01*
X67390000Y-65790000D02*
X67390000Y-69810000D01*
X67390000Y-67500000D02*
X67890000Y-67500000D01*
X67390000Y-68310000D02*
X68390000Y-68310000D01*
X67390000Y-69810000D02*
X75110000Y-69810000D01*
X67890000Y-66290000D02*
X74610000Y-66290000D01*
X67890000Y-67500000D02*
X67890000Y-66290000D01*
X68390000Y-68310000D02*
X68390000Y-69810000D01*
X74110000Y-68310000D02*
X74110000Y-69810000D01*
X74610000Y-66290000D02*
X74610000Y-67500000D01*
X74610000Y-67500000D02*
X75110000Y-67500000D01*
X75110000Y-65790000D02*
X67390000Y-65790000D01*
X75110000Y-68310000D02*
X74110000Y-68310000D01*
X75110000Y-69810000D02*
X75110000Y-65790000D01*
%TO.C,D2*%
X158080000Y-116160000D02*
X158560000Y-116160000D01*
X158080000Y-122620000D02*
X161920000Y-122620000D01*
X158080000Y-122740000D02*
X161920000Y-122740000D01*
X158080000Y-122860000D02*
X161920000Y-122860000D01*
X158080000Y-124000000D02*
X158080000Y-116160000D01*
X158560000Y-124000000D02*
X158080000Y-124000000D01*
X161440000Y-124000000D02*
X161920000Y-124000000D01*
X161920000Y-116160000D02*
X161440000Y-116160000D01*
X161920000Y-124000000D02*
X161920000Y-116160000D01*
%TO.C,SW3*%
X112340000Y-154590000D02*
X112340000Y-157090000D01*
X112640000Y-154890000D02*
X112640000Y-162610000D01*
X112640000Y-162610000D02*
X116660000Y-162610000D01*
X114140000Y-154890000D02*
X114140000Y-155890000D01*
X114140000Y-155890000D02*
X112640000Y-155890000D01*
X114140000Y-161610000D02*
X112640000Y-161610000D01*
X114140000Y-162610000D02*
X114140000Y-161610000D01*
X114840000Y-154590000D02*
X112340000Y-154590000D01*
X114950000Y-154890000D02*
X114950000Y-155390000D01*
X114950000Y-155390000D02*
X116160000Y-155390000D01*
X114950000Y-162110000D02*
X114950000Y-162610000D01*
X116160000Y-155390000D02*
X116160000Y-162110000D01*
X116160000Y-162110000D02*
X114950000Y-162110000D01*
X116660000Y-154890000D02*
X112640000Y-154890000D01*
X116660000Y-162610000D02*
X116660000Y-154890000D01*
%TO.C,JACK_CON5*%
X184890000Y-145190000D02*
X184890000Y-149210000D01*
X184890000Y-146690000D02*
X185890000Y-146690000D01*
X184890000Y-149210000D02*
X192610000Y-149210000D01*
X185390000Y-147500000D02*
X184890000Y-147500000D01*
X185390000Y-148710000D02*
X185390000Y-147500000D01*
X185890000Y-146690000D02*
X185890000Y-145190000D01*
X191610000Y-146690000D02*
X191610000Y-145190000D01*
X192110000Y-147500000D02*
X192110000Y-148710000D01*
X192110000Y-148710000D02*
X185390000Y-148710000D01*
X192610000Y-145190000D02*
X184890000Y-145190000D01*
X192610000Y-146690000D02*
X191610000Y-146690000D01*
X192610000Y-147500000D02*
X192110000Y-147500000D01*
X192610000Y-149210000D02*
X192610000Y-145190000D01*
X192910000Y-144890000D02*
X190410000Y-144890000D01*
X192910000Y-147390000D02*
X192910000Y-144890000D01*
%TO.C,SW2*%
X104840000Y-154590000D02*
X104840000Y-157090000D01*
X105140000Y-154890000D02*
X105140000Y-162610000D01*
X105140000Y-162610000D02*
X109160000Y-162610000D01*
X106640000Y-154890000D02*
X106640000Y-155890000D01*
X106640000Y-155890000D02*
X105140000Y-155890000D01*
X106640000Y-161610000D02*
X105140000Y-161610000D01*
X106640000Y-162610000D02*
X106640000Y-161610000D01*
X107340000Y-154590000D02*
X104840000Y-154590000D01*
X107450000Y-154890000D02*
X107450000Y-155390000D01*
X107450000Y-155390000D02*
X108660000Y-155390000D01*
X107450000Y-162110000D02*
X107450000Y-162610000D01*
X108660000Y-155390000D02*
X108660000Y-162110000D01*
X108660000Y-162110000D02*
X107450000Y-162110000D01*
X109160000Y-154890000D02*
X105140000Y-154890000D01*
X109160000Y-162610000D02*
X109160000Y-154890000D01*
%TO.C,R1*%
X92130000Y-57500000D02*
X93080000Y-57500000D01*
X93080000Y-56580000D02*
X93080000Y-58420000D01*
X93080000Y-58420000D02*
X96920000Y-58420000D01*
X96920000Y-56580000D02*
X93080000Y-56580000D01*
X96920000Y-58420000D02*
X96920000Y-56580000D01*
X97870000Y-57500000D02*
X96920000Y-57500000D01*
%TO.C,SW8*%
X149840000Y-154590000D02*
X149840000Y-157090000D01*
X150140000Y-154890000D02*
X150140000Y-162610000D01*
X150140000Y-162610000D02*
X154160000Y-162610000D01*
X151640000Y-154890000D02*
X151640000Y-155890000D01*
X151640000Y-155890000D02*
X150140000Y-155890000D01*
X151640000Y-161610000D02*
X150140000Y-161610000D01*
X151640000Y-162610000D02*
X151640000Y-161610000D01*
X152340000Y-154590000D02*
X149840000Y-154590000D01*
X152450000Y-154890000D02*
X152450000Y-155390000D01*
X152450000Y-155390000D02*
X153660000Y-155390000D01*
X152450000Y-162110000D02*
X152450000Y-162610000D01*
X153660000Y-155390000D02*
X153660000Y-162110000D01*
X153660000Y-162110000D02*
X152450000Y-162110000D01*
X154160000Y-154890000D02*
X150140000Y-154890000D01*
X154160000Y-162610000D02*
X154160000Y-154890000D01*
D13*
%TO.C,U$4*%
X78690000Y-157460000D02*
X78690000Y-160000000D01*
X79960000Y-156190000D02*
X87580000Y-156190000D01*
X79960000Y-161270000D02*
X82500000Y-161270000D01*
X82500000Y-161270000D02*
X82500000Y-162540000D01*
X82500000Y-162540000D02*
X85040000Y-162540000D01*
X85040000Y-161270000D02*
X87580000Y-161270000D01*
X85040000Y-162540000D02*
X85040000Y-161270000D01*
X88850000Y-157460000D02*
X88850000Y-160000000D01*
X78690000Y-157460000D02*
G75*
G02*
X79960000Y-156190000I1269999J1D01*
G01*
X79960000Y-161270000D02*
G75*
G02*
X78690000Y-160000000I-1J1269999D01*
G01*
X87580000Y-156190000D02*
G75*
G02*
X88850000Y-157460000I0J-1270000D01*
G01*
X88850000Y-160000000D02*
G75*
G02*
X87580000Y-161270000I-1270000J0D01*
G01*
D14*
%TO.C,SW7*%
X142340000Y-154590000D02*
X142340000Y-157090000D01*
X142640000Y-154890000D02*
X142640000Y-162610000D01*
X142640000Y-162610000D02*
X146660000Y-162610000D01*
X144140000Y-154890000D02*
X144140000Y-155890000D01*
X144140000Y-155890000D02*
X142640000Y-155890000D01*
X144140000Y-161610000D02*
X142640000Y-161610000D01*
X144140000Y-162610000D02*
X144140000Y-161610000D01*
X144840000Y-154590000D02*
X142340000Y-154590000D01*
X144950000Y-154890000D02*
X144950000Y-155390000D01*
X144950000Y-155390000D02*
X146160000Y-155390000D01*
X144950000Y-162110000D02*
X144950000Y-162610000D01*
X146160000Y-155390000D02*
X146160000Y-162110000D01*
X146160000Y-162110000D02*
X144950000Y-162110000D01*
X146660000Y-154890000D02*
X142640000Y-154890000D01*
X146660000Y-162610000D02*
X146660000Y-154890000D01*
%TO.C,X1*%
X68580000Y-146050000D02*
X68580000Y-161290000D01*
X68580000Y-146050000D02*
X76200000Y-146050000D01*
X68580000Y-161290000D02*
X76200000Y-161290000D01*
X69850000Y-146050000D02*
X69850000Y-161290000D01*
X76200000Y-146050000D02*
X76200000Y-161290000D01*
%TO.C,JACK_CON2*%
X164890000Y-155190000D02*
X164890000Y-159210000D01*
X164890000Y-156690000D02*
X165890000Y-156690000D01*
X164890000Y-159210000D02*
X172610000Y-159210000D01*
X165390000Y-157500000D02*
X164890000Y-157500000D01*
X165390000Y-158710000D02*
X165390000Y-157500000D01*
X165890000Y-156690000D02*
X165890000Y-155190000D01*
X171610000Y-156690000D02*
X171610000Y-155190000D01*
X172110000Y-157500000D02*
X172110000Y-158710000D01*
X172110000Y-158710000D02*
X165390000Y-158710000D01*
X172610000Y-155190000D02*
X164890000Y-155190000D01*
X172610000Y-156690000D02*
X171610000Y-156690000D01*
X172610000Y-157500000D02*
X172110000Y-157500000D01*
X172610000Y-159210000D02*
X172610000Y-155190000D01*
X172910000Y-154890000D02*
X170410000Y-154890000D01*
X172910000Y-157390000D02*
X172910000Y-154890000D01*
%TO.C,SECTION_1_BUTTON0*%
X87390000Y-100190000D02*
X87390000Y-104210000D01*
X87390000Y-101690000D02*
X88390000Y-101690000D01*
X87390000Y-104210000D02*
X95110000Y-104210000D01*
X87890000Y-102500000D02*
X87390000Y-102500000D01*
X87890000Y-103710000D02*
X87890000Y-102500000D01*
X88390000Y-101690000D02*
X88390000Y-100190000D01*
X94110000Y-101690000D02*
X94110000Y-100190000D01*
X94610000Y-102500000D02*
X94610000Y-103710000D01*
X94610000Y-103710000D02*
X87890000Y-103710000D01*
X95110000Y-100190000D02*
X87390000Y-100190000D01*
X95110000Y-101690000D02*
X94110000Y-101690000D01*
X95110000Y-102500000D02*
X94610000Y-102500000D01*
X95110000Y-104210000D02*
X95110000Y-100190000D01*
X95410000Y-99890000D02*
X92910000Y-99890000D01*
X95410000Y-102390000D02*
X95410000Y-99890000D01*
D12*
%TO.C,U1*%
X179070000Y-93980000D02*
X184150000Y-88900000D01*
X184150000Y-88900000D02*
X189230000Y-93980000D01*
X184150000Y-99060000D02*
X179070000Y-93980000D01*
X189230000Y-93980000D02*
X184150000Y-99060000D01*
X175260000Y-73660000D02*
X193040000Y-73660000D01*
X193040000Y-106680000D01*
X175260000Y-106680000D01*
X175260000Y-73660000D01*
D14*
%TO.C,JACK_CON4*%
X177390000Y-155190000D02*
X177390000Y-159210000D01*
X177390000Y-156690000D02*
X178390000Y-156690000D01*
X177390000Y-159210000D02*
X185110000Y-159210000D01*
X177890000Y-157500000D02*
X177390000Y-157500000D01*
X177890000Y-158710000D02*
X177890000Y-157500000D01*
X178390000Y-156690000D02*
X178390000Y-155190000D01*
X184110000Y-156690000D02*
X184110000Y-155190000D01*
X184610000Y-157500000D02*
X184610000Y-158710000D01*
X184610000Y-158710000D02*
X177890000Y-158710000D01*
X185110000Y-155190000D02*
X177390000Y-155190000D01*
X185110000Y-156690000D02*
X184110000Y-156690000D01*
X185110000Y-157500000D02*
X184610000Y-157500000D01*
X185110000Y-159210000D02*
X185110000Y-155190000D01*
X185410000Y-154890000D02*
X182910000Y-154890000D01*
X185410000Y-157390000D02*
X185410000Y-154890000D01*
%TO.C,R3*%
X186580000Y-113080000D02*
X186580000Y-116920000D01*
X186580000Y-116920000D02*
X188420000Y-116920000D01*
X187500000Y-112130000D02*
X187500000Y-113080000D01*
X187500000Y-117870000D02*
X187500000Y-116920000D01*
X188420000Y-113080000D02*
X186580000Y-113080000D01*
X188420000Y-116920000D02*
X188420000Y-113080000D01*
D13*
%TO.C,U$5*%
X183610000Y-133730000D02*
X196310000Y-133730000D01*
X183610000Y-136270000D02*
X183610000Y-133730000D01*
X196310000Y-133730000D02*
X196310000Y-136270000D01*
X196310000Y-136270000D02*
X183610000Y-136270000D01*
D14*
%TO.C,SECTION_3_BUTTON0*%
X87390000Y-85190000D02*
X87390000Y-89210000D01*
X87390000Y-86690000D02*
X88390000Y-86690000D01*
X87390000Y-89210000D02*
X95110000Y-89210000D01*
X87890000Y-87500000D02*
X87390000Y-87500000D01*
X87890000Y-88710000D02*
X87890000Y-87500000D01*
X88390000Y-86690000D02*
X88390000Y-85190000D01*
X94110000Y-86690000D02*
X94110000Y-85190000D01*
X94610000Y-87500000D02*
X94610000Y-88710000D01*
X94610000Y-88710000D02*
X87890000Y-88710000D01*
X95110000Y-85190000D02*
X87390000Y-85190000D01*
X95110000Y-86690000D02*
X94110000Y-86690000D01*
X95110000Y-87500000D02*
X94610000Y-87500000D01*
X95110000Y-89210000D02*
X95110000Y-85190000D01*
X95410000Y-84890000D02*
X92910000Y-84890000D01*
X95410000Y-87390000D02*
X95410000Y-84890000D01*
%TO.C,D1*%
X165580000Y-116160000D02*
X166060000Y-116160000D01*
X165580000Y-122620000D02*
X169420000Y-122620000D01*
X165580000Y-122740000D02*
X169420000Y-122740000D01*
X165580000Y-122860000D02*
X169420000Y-122860000D01*
X165580000Y-124000000D02*
X165580000Y-116160000D01*
X166060000Y-124000000D02*
X165580000Y-124000000D01*
X168940000Y-124000000D02*
X169420000Y-124000000D01*
X169420000Y-116160000D02*
X168940000Y-116160000D01*
X169420000Y-124000000D02*
X169420000Y-116160000D01*
%TD*%
M02*
