%TF.GenerationSoftware,KiCad,Pcbnew,8.0.4*%
%TF.CreationDate,2024-09-16T22:19:33-06:00*%
%TF.ProjectId,main V3b,6d61696e-2056-4336-922e-6b696361645f,rev?*%
%TF.SameCoordinates,Original*%
%TF.FileFunction,Copper,L2,Inr*%
%TF.FilePolarity,Positive*%
%FSLAX46Y46*%
G04 Gerber Fmt 4.6, Leading zero omitted, Abs format (unit mm)*
G04 Created by KiCad (PCBNEW 8.0.4) date 2024-09-16 22:19:33*
%MOMM*%
%LPD*%
G01*
G04 APERTURE LIST*
G04 Aperture macros list*
%AMRoundRect*
0 Rectangle with rounded corners*
0 $1 Rounding radius*
0 $2 $3 $4 $5 $6 $7 $8 $9 X,Y pos of 4 corners*
0 Add a 4 corners polygon primitive as box body*
4,1,4,$2,$3,$4,$5,$6,$7,$8,$9,$2,$3,0*
0 Add four circle primitives for the rounded corners*
1,1,$1+$1,$2,$3*
1,1,$1+$1,$4,$5*
1,1,$1+$1,$6,$7*
1,1,$1+$1,$8,$9*
0 Add four rect primitives between the rounded corners*
20,1,$1+$1,$2,$3,$4,$5,0*
20,1,$1+$1,$4,$5,$6,$7,0*
20,1,$1+$1,$6,$7,$8,$9,0*
20,1,$1+$1,$8,$9,$2,$3,0*%
%AMOutline5P*
0 Free polygon, 5 corners , with rotation*
0 The origin of the aperture is its center*
0 number of corners: always 5*
0 $1 to $10 corner X, Y*
0 $11 Rotation angle, in degrees counterclockwise*
0 create outline with 5 corners*
4,1,5,$1,$2,$3,$4,$5,$6,$7,$8,$9,$10,$1,$2,$11*%
%AMOutline6P*
0 Free polygon, 6 corners , with rotation*
0 The origin of the aperture is its center*
0 number of corners: always 6*
0 $1 to $12 corner X, Y*
0 $13 Rotation angle, in degrees counterclockwise*
0 create outline with 6 corners*
4,1,6,$1,$2,$3,$4,$5,$6,$7,$8,$9,$10,$11,$12,$1,$2,$13*%
%AMOutline7P*
0 Free polygon, 7 corners , with rotation*
0 The origin of the aperture is its center*
0 number of corners: always 7*
0 $1 to $14 corner X, Y*
0 $15 Rotation angle, in degrees counterclockwise*
0 create outline with 7 corners*
4,1,7,$1,$2,$3,$4,$5,$6,$7,$8,$9,$10,$11,$12,$13,$14,$1,$2,$15*%
%AMOutline8P*
0 Free polygon, 8 corners , with rotation*
0 The origin of the aperture is its center*
0 number of corners: always 8*
0 $1 to $16 corner X, Y*
0 $17 Rotation angle, in degrees counterclockwise*
0 create outline with 8 corners*
4,1,8,$1,$2,$3,$4,$5,$6,$7,$8,$9,$10,$11,$12,$13,$14,$15,$16,$1,$2,$17*%
G04 Aperture macros list end*
%TA.AperFunction,Conductor*%
%ADD10C,0.200000*%
%TD*%
%TA.AperFunction,Conductor*%
%ADD11C,0.635000*%
%TD*%
%TA.AperFunction,ComponentPad*%
%ADD12R,1.778000X1.778000*%
%TD*%
%TA.AperFunction,ComponentPad*%
%ADD13Outline8P,-0.889000X0.368236X-0.368236X0.889000X0.368236X0.889000X0.889000X0.368236X0.889000X-0.368236X0.368236X-0.889000X-0.368236X-0.889000X-0.889000X-0.368236X0.000000*%
%TD*%
%TA.AperFunction,ComponentPad*%
%ADD14R,3.500000X3.500000*%
%TD*%
%TA.AperFunction,ComponentPad*%
%ADD15RoundRect,0.750000X-1.000000X0.750000X-1.000000X-0.750000X1.000000X-0.750000X1.000000X0.750000X0*%
%TD*%
%TA.AperFunction,ComponentPad*%
%ADD16RoundRect,0.875000X-0.875000X0.875000X-0.875000X-0.875000X0.875000X-0.875000X0.875000X0.875000X0*%
%TD*%
%TA.AperFunction,ComponentPad*%
%ADD17RoundRect,0.250000X-0.750000X0.600000X-0.750000X-0.600000X0.750000X-0.600000X0.750000X0.600000X0*%
%TD*%
%TA.AperFunction,ComponentPad*%
%ADD18O,2.000000X1.700000*%
%TD*%
%TA.AperFunction,ComponentPad*%
%ADD19C,1.400000*%
%TD*%
%TA.AperFunction,ComponentPad*%
%ADD20O,1.400000X1.400000*%
%TD*%
%TA.AperFunction,ComponentPad*%
%ADD21Outline8P,-0.889000X0.368236X-0.368236X0.889000X0.368236X0.889000X0.889000X0.368236X0.889000X-0.368236X0.368236X-0.889000X-0.368236X-0.889000X-0.889000X-0.368236X90.000000*%
%TD*%
%TA.AperFunction,ComponentPad*%
%ADD22RoundRect,0.250000X-0.600000X-0.750000X0.600000X-0.750000X0.600000X0.750000X-0.600000X0.750000X0*%
%TD*%
%TA.AperFunction,ComponentPad*%
%ADD23O,1.700000X2.000000*%
%TD*%
%TA.AperFunction,ComponentPad*%
%ADD24RoundRect,0.250000X0.600000X0.750000X-0.600000X0.750000X-0.600000X-0.750000X0.600000X-0.750000X0*%
%TD*%
%TA.AperFunction,ComponentPad*%
%ADD25R,2.400000X2.400000*%
%TD*%
%TA.AperFunction,ComponentPad*%
%ADD26O,2.400000X2.400000*%
%TD*%
%TA.AperFunction,ComponentPad*%
%ADD27R,3.000000X3.000000*%
%TD*%
%TA.AperFunction,ComponentPad*%
%ADD28C,3.000000*%
%TD*%
%TA.AperFunction,ComponentPad*%
%ADD29Outline8P,-0.889000X0.368236X-0.368236X0.889000X0.368236X0.889000X0.889000X0.368236X0.889000X-0.368236X0.368236X-0.889000X-0.368236X-0.889000X-0.889000X-0.368236X180.000000*%
%TD*%
%TA.AperFunction,ComponentPad*%
%ADD30R,1.778000X1.524000*%
%TD*%
%TA.AperFunction,ComponentPad*%
%ADD31C,1.778000*%
%TD*%
%TA.AperFunction,ViaPad*%
%ADD32C,1.270000*%
%TD*%
%TA.AperFunction,ViaPad*%
%ADD33C,0.600000*%
%TD*%
%TA.AperFunction,Conductor*%
%ADD34C,1.270000*%
%TD*%
%TA.AperFunction,Conductor*%
%ADD35C,1.016000*%
%TD*%
G04 APERTURE END LIST*
D10*
%TO.N,GND*%
X78740000Y-50800000D02*
X78422500Y-50482500D01*
X78740000Y-50800000D02*
X77470000Y-49530000D01*
X78105000Y-50165000D02*
X78740000Y-50800000D01*
X78740000Y-52070000D02*
X77470000Y-49530000D01*
X78105000Y-50165000D02*
X78740000Y-52070000D01*
D11*
X146050000Y-138430000D02*
X151130000Y-138430000D01*
%TD*%
D12*
%TO.N,Net-(R2-Pad1)*%
%TO.C,U$2*%
X184960000Y-125000000D03*
D13*
%TO.N,Net-(R3-Pad2)*%
X187500000Y-125000000D03*
%TO.N,GND*%
X190040000Y-125000000D03*
%TO.N,/5V*%
X192580000Y-125000000D03*
%TD*%
D14*
%TO.N,/RAW_IN*%
%TO.C,J1*%
X82500000Y-53500000D03*
D15*
%TO.N,unconnected-(J1-Pad2)*%
X82500000Y-47500000D03*
D16*
%TO.N,GND*%
X77800000Y-50500000D03*
%TD*%
D17*
%TO.N,Net-(SW6A-S)*%
%TO.C,SW6*%
X137500000Y-157500000D03*
D18*
%TO.N,GND*%
X137500000Y-160000000D03*
%TD*%
D17*
%TO.N,Net-(SW4A-S)*%
%TO.C,SW4*%
X122450000Y-157500000D03*
D18*
%TO.N,GND*%
X122450000Y-160000000D03*
%TD*%
D17*
%TO.N,Net-(SW1A-S)*%
%TO.C,SW1*%
X99950000Y-157500000D03*
D18*
%TO.N,GND*%
X99950000Y-160000000D03*
%TD*%
D19*
%TO.N,Net-(R2-Pad1)*%
%TO.C,R2*%
X182500000Y-118810000D03*
D20*
%TO.N,/5V*%
X182500000Y-111190000D03*
%TD*%
D21*
%TO.N,unconnected-(1-Pad3V3)*%
%TO.C,1*%
X163830000Y-43180000D03*
%TO.N,/5V*%
X161290000Y-43180000D03*
D12*
%TO.N,GND*%
X161290000Y-53340000D03*
D21*
X161290000Y-45720000D03*
%TO.N,unconnected-(1-PadINT)*%
X161290000Y-50800000D03*
%TO.N,Net-(U1-12)*%
X163830000Y-45720000D03*
%TO.N,Net-(U1-11)*%
X163830000Y-48260000D03*
%TO.N,/RESET*%
X161290000Y-48260000D03*
%TO.N,Net-(U1-13)*%
X163830000Y-53340000D03*
%TO.N,Net-(U1-10)*%
X163830000Y-50800000D03*
%TD*%
D22*
%TO.N,/5V*%
%TO.C,POWER_LED0*%
X90000000Y-67500000D03*
D23*
%TO.N,Net-(POWER_LED0B-S)*%
X92500000Y-67500000D03*
%TD*%
D24*
%TO.N,Net-(JACK_CON3A-S)*%
%TO.C,JACK_CON3*%
X177500000Y-147500000D03*
D23*
%TO.N,Net-(JACK_CON3B-S)*%
X175000000Y-147500000D03*
%TD*%
D24*
%TO.N,Net-(JACK_CON1A-S)*%
%TO.C,JACK_CON1*%
X165000000Y-147500000D03*
D23*
%TO.N,Net-(JACK_CON1B-S)*%
X162500000Y-147500000D03*
%TD*%
D12*
%TO.N,Net-(D2-K)*%
%TO.C,U$3*%
X162380000Y-132460000D03*
D13*
%TO.N,Net-(D1-K)*%
X164920000Y-132460000D03*
%TO.N,GND*%
X167460000Y-132460000D03*
%TO.N,/MISO*%
X172540000Y-135000000D03*
%TO.N,/MOSI*%
X172540000Y-132460000D03*
%TO.N,/SCK*%
X170000000Y-132460000D03*
%TO.N,/D48*%
X170000000Y-135000000D03*
%TO.N,/D2*%
X162380000Y-135000000D03*
%TO.N,/D53*%
X167460000Y-135000000D03*
%TO.N,Net-(U$1-PadD49)*%
X164920000Y-135000000D03*
%TD*%
D24*
%TO.N,Net-(SECTION_2_BUTTON0A-KL)*%
%TO.C,SECTION_2_BUTTON0*%
X92500000Y-95000000D03*
D23*
%TO.N,GND*%
X90000000Y-95000000D03*
%TD*%
D17*
%TO.N,Net-(SW5A-S)*%
%TO.C,SW5*%
X129950000Y-157500000D03*
D18*
%TO.N,GND*%
X129950000Y-160000000D03*
%TD*%
D22*
%TO.N,/RESET*%
%TO.C,RESET0*%
X80000000Y-67500000D03*
D23*
%TO.N,GND*%
X82500000Y-67500000D03*
%TD*%
D22*
%TO.N,/RAW_IN*%
%TO.C,PWR_IN0*%
X70000000Y-67500000D03*
D23*
%TO.N,/5V*%
X72500000Y-67500000D03*
%TD*%
D25*
%TO.N,Net-(D2-K)*%
%TO.C,D2*%
X160000000Y-125160000D03*
D26*
%TO.N,/3V3*%
X160000000Y-115000000D03*
%TD*%
D17*
%TO.N,Net-(SW3A-S)*%
%TO.C,SW3*%
X114950000Y-157500000D03*
D18*
%TO.N,GND*%
X114950000Y-160000000D03*
%TD*%
D24*
%TO.N,Net-(JACK_CON5A-S)*%
%TO.C,JACK_CON5*%
X190000000Y-147500000D03*
D23*
%TO.N,Net-(JACK_CON5B-S)*%
X187500000Y-147500000D03*
%TD*%
D17*
%TO.N,Net-(SW2A-S)*%
%TO.C,SW2*%
X107450000Y-157500000D03*
D18*
%TO.N,GND*%
X107450000Y-160000000D03*
%TD*%
D19*
%TO.N,Net-(POWER_LED0B-S)*%
%TO.C,R1*%
X91190000Y-57500000D03*
D20*
%TO.N,GND*%
X98810000Y-57500000D03*
%TD*%
D17*
%TO.N,Net-(SW8A-S)*%
%TO.C,SW8*%
X152450000Y-157500000D03*
D18*
%TO.N,GND*%
X152450000Y-160000000D03*
%TD*%
D12*
%TO.N,Net-(U$1-PadD22)*%
%TO.C,U$4*%
X79960000Y-157460000D03*
D13*
%TO.N,Net-(U$1-PadD23)*%
X82500000Y-157460000D03*
%TO.N,Net-(U$1-PadD24)*%
X85040000Y-157460000D03*
%TO.N,Net-(U$1-PadD25)*%
X87580000Y-157460000D03*
%TO.N,Net-(U$1-PadD26)*%
X79960000Y-160000000D03*
%TO.N,Net-(U$1-PadD27)*%
X82500000Y-160000000D03*
%TO.N,Net-(U$1-PadD28)*%
X85040000Y-160000000D03*
%TO.N,/D29*%
X87580000Y-160000000D03*
%TD*%
D17*
%TO.N,Net-(SW7A-S)*%
%TO.C,SW7*%
X144950000Y-157500000D03*
D18*
%TO.N,GND*%
X144950000Y-160000000D03*
%TD*%
D27*
%TO.N,/5V*%
%TO.C,X1*%
X72390000Y-148590000D03*
D28*
%TO.N,Net-(X1B-KL)*%
X72390000Y-153670000D03*
%TO.N,GND*%
X72390000Y-158750000D03*
%TD*%
D29*
%TO.N,/3V3*%
%TO.C,U$1*%
X151328500Y-80210000D03*
%TO.N,Net-(U$1-5V-Pad5V@1)*%
X151328500Y-82750000D03*
X103068500Y-138630000D03*
X103068500Y-141170000D03*
%TO.N,unconnected-(U$1-PadA0)*%
X151328500Y-95450000D03*
%TO.N,unconnected-(U$1-PadA1)*%
X151328500Y-97990000D03*
%TO.N,unconnected-(U$1-PadA2)*%
X151328500Y-100530000D03*
%TO.N,unconnected-(U$1-PadA3)*%
X151328500Y-103070000D03*
%TO.N,unconnected-(U$1-PadA4)*%
X151328500Y-105610000D03*
%TO.N,unconnected-(U$1-PadA5)*%
X151328500Y-108150000D03*
%TO.N,unconnected-(U$1-PadA6)*%
X151328500Y-110690000D03*
%TO.N,unconnected-(U$1-PadA7)*%
X151328500Y-113230000D03*
%TO.N,unconnected-(U$1-PadA8)*%
X151328500Y-118310000D03*
%TO.N,unconnected-(U$1-PadA9)*%
X151328500Y-120850000D03*
%TO.N,unconnected-(U$1-PadA10)*%
X151328500Y-123390000D03*
%TO.N,unconnected-(U$1-PadA11)*%
X151328500Y-125930000D03*
%TO.N,unconnected-(U$1-PadA12)*%
X151328500Y-128470000D03*
%TO.N,unconnected-(U$1-PadA13)*%
X151328500Y-131010000D03*
%TO.N,unconnected-(U$1-PadA14)*%
X151328500Y-133550000D03*
%TO.N,unconnected-(U$1-PadA15)*%
X151328500Y-136090000D03*
%TO.N,unconnected-(U$1-PadAREF)*%
X103068500Y-68780000D03*
%TO.N,Net-(U1-TXD)*%
X103068500Y-108150000D03*
%TO.N,Net-(U1-RXI)*%
X103068500Y-105610000D03*
%TO.N,/D2*%
X103068500Y-103070000D03*
%TO.N,unconnected-(U$1-PadD3)*%
X103068500Y-100530000D03*
%TO.N,Net-(R2-Pad1)*%
X103068500Y-97990000D03*
%TO.N,Net-(R3-Pad2)*%
X103068500Y-95450000D03*
%TO.N,unconnected-(U$1-PadD6)*%
X103068500Y-92910000D03*
%TO.N,unconnected-(U$1-PadD7)*%
X103068500Y-90370000D03*
%TO.N,Net-(X1B-KL)*%
X103068500Y-86560000D03*
%TO.N,Net-(SECTION_1_BUTTON0A-KL)*%
X103068500Y-84020000D03*
%TO.N,Net-(SECTION_2_BUTTON0A-KL)*%
X103068500Y-81480000D03*
%TO.N,Net-(SECTION_3_BUTTON0A-KL)*%
X103068500Y-78940000D03*
%TO.N,unconnected-(U$1-PadD12)*%
X103068500Y-76400000D03*
%TO.N,unconnected-(U$1-PadD13)*%
X103068500Y-73860000D03*
%TO.N,unconnected-(U$1-PadD14)*%
X103068500Y-113230000D03*
%TO.N,unconnected-(U$1-PadD15)*%
X103068500Y-115770000D03*
%TO.N,unconnected-(U$1-PadD16)*%
X103068500Y-118310000D03*
%TO.N,unconnected-(U$1-PadD17)*%
X103068500Y-120850000D03*
%TO.N,unconnected-(U$1-PadD18)*%
X103068500Y-123390000D03*
%TO.N,unconnected-(U$1-PadD19)*%
X103068500Y-125930000D03*
%TO.N,Net-(U$1-PadD20)*%
X103068500Y-128470000D03*
%TO.N,/D21*%
X103068500Y-131010000D03*
%TO.N,Net-(U$1-PadD22)*%
X105608500Y-138630000D03*
%TO.N,Net-(U$1-PadD23)*%
X105608500Y-141170000D03*
%TO.N,Net-(U$1-PadD24)*%
X108148500Y-138630000D03*
%TO.N,Net-(U$1-PadD25)*%
X108148500Y-141170000D03*
%TO.N,Net-(U$1-PadD26)*%
X110688500Y-138630000D03*
%TO.N,Net-(U$1-PadD27)*%
X110688500Y-141170000D03*
%TO.N,Net-(U$1-PadD28)*%
X113228500Y-138630000D03*
%TO.N,/D29*%
X113228500Y-141170000D03*
%TO.N,Net-(SW1A-S)*%
X115768500Y-138630000D03*
%TO.N,Net-(SW2A-S)*%
X115768500Y-141170000D03*
%TO.N,Net-(SW3A-S)*%
X118308500Y-138630000D03*
%TO.N,Net-(SW4A-S)*%
X118308500Y-141170000D03*
%TO.N,Net-(SW5A-S)*%
X120848500Y-138630000D03*
%TO.N,Net-(SW6A-S)*%
X120848500Y-141170000D03*
%TO.N,Net-(SW7A-S)*%
X123388500Y-138630000D03*
%TO.N,Net-(SW8A-S)*%
X123388500Y-141170000D03*
%TO.N,Net-(JACK_CON1A-S)*%
X125928500Y-138630000D03*
%TO.N,Net-(JACK_CON1B-S)*%
X125928500Y-141170000D03*
%TO.N,Net-(JACK_CON2A-S)*%
X128468500Y-138630000D03*
%TO.N,Net-(JACK_CON2B-S)*%
X128468500Y-141170000D03*
%TO.N,Net-(JACK_CON3A-S)*%
X131008500Y-138630000D03*
%TO.N,Net-(JACK_CON3B-S)*%
X131008500Y-141170000D03*
%TO.N,Net-(JACK_CON4A-S)*%
X133548500Y-138630000D03*
%TO.N,Net-(JACK_CON4B-S)*%
X133548500Y-141170000D03*
%TO.N,Net-(JACK_CON5A-S)*%
X136088500Y-138630000D03*
%TO.N,Net-(JACK_CON5B-S)*%
X136088500Y-141170000D03*
%TO.N,/D48*%
X138628500Y-138630000D03*
%TO.N,Net-(U$1-PadD49)*%
X138628500Y-141170000D03*
%TO.N,/MISO*%
X141168500Y-138630000D03*
%TO.N,/MOSI*%
X141168500Y-141170000D03*
%TO.N,/SCK*%
X143708500Y-138630000D03*
%TO.N,/D53*%
X143708500Y-141170000D03*
%TO.N,GND*%
X103068500Y-71320000D03*
X151328500Y-87830000D03*
X151328500Y-85290000D03*
X146248500Y-138630000D03*
X146248500Y-141170000D03*
%TO.N,unconnected-(U$1-PadIOREF)*%
X151328500Y-75130000D03*
%TO.N,/RESET*%
X151328500Y-77670000D03*
D12*
%TO.N,unconnected-(U$1-PadSCL)*%
X103068500Y-63700000D03*
D29*
%TO.N,unconnected-(U$1-PadSDA)*%
X103068500Y-66240000D03*
%TO.N,/5V*%
X151328500Y-90370000D03*
%TD*%
D24*
%TO.N,Net-(JACK_CON2A-S)*%
%TO.C,JACK_CON2*%
X170000000Y-157500000D03*
D23*
%TO.N,Net-(JACK_CON2B-S)*%
X167500000Y-157500000D03*
%TD*%
D24*
%TO.N,Net-(SECTION_1_BUTTON0A-KL)*%
%TO.C,SECTION_1_BUTTON0*%
X92500000Y-102500000D03*
D23*
%TO.N,GND*%
X90000000Y-102500000D03*
%TD*%
D30*
%TO.N,Net-(U1-TXD)*%
%TO.C,U1*%
X176530000Y-77470000D03*
D31*
%TO.N,Net-(U1-RXI)*%
X176530000Y-80010000D03*
%TO.N,unconnected-(U1-GND{slash}RST-Pad2)*%
X176530000Y-82550000D03*
%TO.N,unconnected-(U1-GND-Pad3)*%
X176530000Y-85090000D03*
%TO.N,unconnected-(U1-2-Pad4)*%
X176530000Y-87630000D03*
%TO.N,unconnected-(U1-3-Pad5)*%
X176530000Y-90170000D03*
%TO.N,unconnected-(U1-4-Pad6)*%
X176530000Y-92710000D03*
%TO.N,unconnected-(U1-5-Pad7)*%
X176530000Y-95250000D03*
%TO.N,unconnected-(U1-6-Pad8)*%
X176530000Y-97790000D03*
%TO.N,unconnected-(U1-7-Pad9)*%
X176530000Y-100330000D03*
%TO.N,unconnected-(U1-8-Pad10)*%
X176530000Y-102870000D03*
%TO.N,unconnected-(U1-9-Pad11)*%
X176530000Y-105410000D03*
%TO.N,Net-(U1-10)*%
X191770000Y-105410000D03*
%TO.N,Net-(U1-11)*%
X191770000Y-102870000D03*
%TO.N,Net-(U1-12)*%
X191770000Y-100330000D03*
%TO.N,Net-(U1-13)*%
X191770000Y-97790000D03*
%TO.N,unconnected-(U1-A0-Pad16)*%
X191770000Y-95250000D03*
%TO.N,unconnected-(U1-A1-Pad17)*%
X191770000Y-92710000D03*
%TO.N,unconnected-(U1-A2-Pad18)*%
X191770000Y-90170000D03*
%TO.N,unconnected-(U1-A3-Pad19)*%
X191770000Y-87630000D03*
%TO.N,/5V*%
X191770000Y-85090000D03*
%TO.N,/RESET*%
X191770000Y-82550000D03*
%TO.N,GND*%
X191770000Y-80010000D03*
%TO.N,unconnected-(U1-RAW-Pad23)*%
X191770000Y-77470000D03*
%TD*%
D24*
%TO.N,Net-(JACK_CON4A-S)*%
%TO.C,JACK_CON4*%
X182500000Y-157500000D03*
D23*
%TO.N,Net-(JACK_CON4B-S)*%
X180000000Y-157500000D03*
%TD*%
D19*
%TO.N,/5V*%
%TO.C,R3*%
X187500000Y-111190000D03*
D20*
%TO.N,Net-(R3-Pad2)*%
X187500000Y-118810000D03*
%TD*%
D31*
%TO.N,/5V*%
%TO.C,U$5*%
X192500000Y-135000000D03*
D13*
%TO.N,/D21*%
X184880000Y-135000000D03*
D31*
%TO.N,Net-(U$1-PadD20)*%
X187420000Y-135000000D03*
%TO.N,GND*%
X195040000Y-135000000D03*
%TO.N,unconnected-(U$5-PadSW)*%
X189960000Y-135000000D03*
%TD*%
D24*
%TO.N,Net-(SECTION_3_BUTTON0A-KL)*%
%TO.C,SECTION_3_BUTTON0*%
X92500000Y-87500000D03*
D23*
%TO.N,GND*%
X90000000Y-87500000D03*
%TD*%
D25*
%TO.N,Net-(D1-K)*%
%TO.C,D1*%
X167500000Y-125160000D03*
D26*
%TO.N,/5V*%
X167500000Y-115000000D03*
%TD*%
D32*
%TO.N,/5V*%
X123190000Y-63500000D03*
D33*
%TO.N,Net-(JACK_CON5B-S)*%
X148590000Y-153670000D03*
%TO.N,/SCK*%
X143510000Y-121920000D03*
X168910000Y-129540000D03*
X143510000Y-130810000D03*
%TO.N,/MOSI*%
X154940000Y-148590000D03*
%TO.N,/D48*%
X153670000Y-128270000D03*
%TO.N,Net-(U$1-5V-Pad5V@1)*%
X102870000Y-154940000D03*
%TO.N,/D53*%
X156210000Y-146050000D03*
%TO.N,/MISO*%
X140970000Y-130810000D03*
%TO.N,Net-(U$1-PadD49)*%
X149860000Y-151130000D03*
%TD*%
D11*
%TO.N,/5V*%
X167500000Y-115000000D02*
X170740000Y-111760000D01*
D34*
X170740000Y-111760000D02*
X171450000Y-111760000D01*
X81280000Y-69592200D02*
X87907800Y-69592200D01*
X72390000Y-132080000D02*
X81280000Y-123190000D01*
D35*
X172020000Y-111190000D02*
X187500000Y-111190000D01*
D34*
X72390000Y-131818160D02*
X72390000Y-132080000D01*
X81280000Y-123190000D02*
X81280000Y-69592200D01*
D35*
X171450000Y-111760000D02*
X172020000Y-111190000D01*
D34*
X170740000Y-109781500D02*
X151328500Y-90370000D01*
X87907800Y-69592200D02*
X90000000Y-67500000D01*
X72390000Y-132080000D02*
X72390000Y-148590000D01*
X170740000Y-111760000D02*
X170740000Y-109781500D01*
X74592200Y-69592200D02*
X81280000Y-69592200D01*
X72500000Y-67500000D02*
X74592200Y-69592200D01*
%TO.N,/RAW_IN*%
X82500000Y-53500000D02*
X70000000Y-66000000D01*
X70000000Y-66000000D02*
X70000000Y-67500000D01*
D10*
%TO.N,GND*%
X191770000Y-123270000D02*
X191770000Y-113682050D01*
D34*
X98810000Y-57500000D02*
X100830900Y-57500000D01*
D10*
X77800000Y-50500000D02*
X77770000Y-50500000D01*
D34*
X90170000Y-140970000D02*
X90000000Y-140800000D01*
X90000000Y-85090000D02*
X90000000Y-102500000D01*
D10*
X151130000Y-87631500D02*
X151130000Y-87630000D01*
D34*
X86360000Y-50800000D02*
X92110000Y-50800000D01*
D11*
X157480000Y-132080000D02*
X160020000Y-129540000D01*
X184825000Y-130215000D02*
X190255000Y-130215000D01*
X167460000Y-130630000D02*
X184410000Y-130630000D01*
D10*
X147320000Y-142241500D02*
X147320000Y-160000000D01*
D34*
X86360000Y-50800000D02*
X86360000Y-63640000D01*
D10*
X151328500Y-87830000D02*
X151130000Y-87631500D01*
D34*
X186690000Y-109220000D02*
X186690000Y-83832765D01*
X103957500Y-71320000D02*
X103068500Y-71320000D01*
D11*
X167460000Y-130630000D02*
X167460000Y-132460000D01*
D34*
X186690000Y-83832765D02*
X190512765Y-80010000D01*
X95998800Y-161981200D02*
X97980000Y-160000000D01*
X86360000Y-63640000D02*
X82500000Y-67500000D01*
X103068500Y-71320000D02*
X102179500Y-71320000D01*
D11*
X184410000Y-130630000D02*
X184825000Y-130215000D01*
D34*
X187307950Y-109220000D02*
X186690000Y-109220000D01*
D11*
X190255000Y-130215000D02*
X195040000Y-135000000D01*
D34*
X90000000Y-140800000D02*
X90000000Y-102500000D01*
X105049700Y-70227800D02*
X103957500Y-71320000D01*
D10*
X191770000Y-113682050D02*
X187307950Y-109220000D01*
X77800000Y-50500000D02*
X78740000Y-51440000D01*
D34*
X100830900Y-57500000D02*
X105049700Y-61718800D01*
X86060000Y-50500000D02*
X86360000Y-50800000D01*
X75621200Y-161981200D02*
X95998800Y-161981200D01*
X97980000Y-160000000D02*
X147320000Y-160000000D01*
X86060000Y-50500000D02*
X77800000Y-50500000D01*
X90000000Y-85090000D02*
X90000000Y-87500000D01*
D10*
X77770000Y-50500000D02*
X77470000Y-50800000D01*
D11*
X151130000Y-138430000D02*
X152400000Y-138430000D01*
D34*
X147320000Y-160000000D02*
X152450000Y-160000000D01*
D11*
X152400000Y-138430000D02*
X157480000Y-133350000D01*
D10*
X146248500Y-141170000D02*
X147320000Y-142241500D01*
D34*
X151328500Y-87830000D02*
X151328500Y-85290000D01*
D11*
X184410000Y-130630000D02*
X190040000Y-125000000D01*
D34*
X190512765Y-80010000D02*
X191770000Y-80010000D01*
D10*
X77800000Y-50500000D02*
X77800000Y-42240000D01*
D34*
X72390000Y-158750000D02*
X75621200Y-161981200D01*
D11*
X166370000Y-129540000D02*
X167460000Y-130630000D01*
D34*
X90000000Y-83499500D02*
X90000000Y-85090000D01*
D11*
X157480000Y-133350000D02*
X157480000Y-132080000D01*
D34*
X172718500Y-109220000D02*
X151328500Y-87830000D01*
X92110000Y-50800000D02*
X98810000Y-57500000D01*
D10*
X78740000Y-51440000D02*
X78740000Y-52070000D01*
D11*
X160020000Y-129540000D02*
X166370000Y-129540000D01*
D34*
X90170000Y-140970000D02*
X72390000Y-158750000D01*
X105049700Y-61718800D02*
X105049700Y-70227800D01*
X102179500Y-71320000D02*
X90000000Y-83499500D01*
X97980000Y-160000000D02*
X99950000Y-160000000D01*
D10*
X190040000Y-125000000D02*
X191770000Y-123270000D01*
X146248500Y-138630000D02*
X146248500Y-141170000D01*
D34*
X186690000Y-109220000D02*
X172718500Y-109220000D01*
D10*
%TO.N,Net-(JACK_CON1A-S)*%
X165100000Y-147320000D02*
X165000000Y-147420000D01*
X165000000Y-147500000D02*
X165000000Y-147420000D01*
%TO.N,Net-(JACK_CON2B-S)*%
X128468500Y-141170000D02*
X128468500Y-141168500D01*
X128468500Y-141168500D02*
X128270000Y-140970000D01*
%TO.N,Net-(JACK_CON5B-S)*%
X165100000Y-153670000D02*
X148590000Y-153670000D01*
X180060000Y-154940000D02*
X166370000Y-154940000D01*
X187500000Y-147500000D02*
X180060000Y-154940000D01*
X166370000Y-154940000D02*
X165100000Y-153670000D01*
%TO.N,Net-(POWER_LED0B-S)*%
X92500000Y-59900000D02*
X92500000Y-67500000D01*
X91190000Y-57500000D02*
X92710000Y-59020000D01*
X92710000Y-59690000D02*
X92500000Y-59900000D01*
X92710000Y-59020000D02*
X92710000Y-59690000D01*
%TO.N,Net-(SECTION_1_BUTTON0A-KL)*%
X97790000Y-89298500D02*
X97790000Y-97210000D01*
X97790000Y-97210000D02*
X92500000Y-102500000D01*
X103068500Y-84020000D02*
X97790000Y-89298500D01*
%TO.N,Net-(SECTION_2_BUTTON0A-KL)*%
X103068500Y-81480000D02*
X92500000Y-92048500D01*
X92500000Y-92048500D02*
X92500000Y-95000000D01*
%TO.N,Net-(SECTION_3_BUTTON0A-KL)*%
X101060000Y-78940000D02*
X92500000Y-87500000D01*
X103068500Y-78940000D02*
X101060000Y-78940000D01*
%TO.N,Net-(SW1A-S)*%
X114322300Y-137183800D02*
X115768500Y-138630000D01*
X99950000Y-139703264D02*
X102469464Y-137183800D01*
X102469464Y-137183800D02*
X114322300Y-137183800D01*
X99950000Y-157500000D02*
X99950000Y-139703264D01*
%TO.N,Net-(SW2A-S)*%
X107450000Y-149488500D02*
X115768500Y-141170000D01*
X107450000Y-157500000D02*
X107450000Y-149488500D01*
%TO.N,Net-(SW3A-S)*%
X114950000Y-157500000D02*
X115550000Y-157500000D01*
X114320000Y-157500000D02*
X114300000Y-157480000D01*
X114950000Y-157500000D02*
X114970000Y-157480000D01*
X114320000Y-157500000D02*
X114950000Y-157500000D01*
X114970000Y-157480000D02*
X115570000Y-157480000D01*
%TO.N,Net-(SW4A-S)*%
X122450000Y-157500000D02*
X122450000Y-145311500D01*
X122450000Y-145311500D02*
X118308500Y-141170000D01*
%TO.N,Net-(SW5A-S)*%
X129560000Y-157500000D02*
X129540000Y-157480000D01*
X129950000Y-157500000D02*
X129560000Y-157500000D01*
%TO.N,Net-(SW6A-S)*%
X137178500Y-157500000D02*
X120848500Y-141170000D01*
X137500000Y-157500000D02*
X137178500Y-157500000D01*
%TO.N,Net-(SW8A-S)*%
X152420000Y-157500000D02*
X152400000Y-157480000D01*
X152450000Y-157500000D02*
X152420000Y-157500000D01*
%TO.N,Net-(U1-TXD)*%
X137534700Y-73683800D02*
X172743800Y-73683800D01*
X172743800Y-73683800D02*
X176530000Y-77470000D01*
X103068500Y-108150000D02*
X137534700Y-73683800D01*
%TO.N,/SCK*%
X167640000Y-129540000D02*
X168910000Y-129540000D01*
X143708500Y-138630000D02*
X143708500Y-131008500D01*
X144743842Y-121920000D02*
X150481042Y-116182800D01*
X143510000Y-130810000D02*
X143708500Y-131008500D01*
X154282800Y-116182800D02*
X167640000Y-129540000D01*
X150481042Y-116182800D02*
X154282800Y-116182800D01*
X143510000Y-121920000D02*
X144743842Y-121920000D01*
%TO.N,/MOSI*%
X171450000Y-143510000D02*
X175260000Y-139700000D01*
X175260000Y-135180000D02*
X172540000Y-132460000D01*
X154940000Y-148590000D02*
X160020000Y-143510000D01*
X175260000Y-139700000D02*
X175260000Y-135180000D01*
X160020000Y-143510000D02*
X171450000Y-143510000D01*
%TO.N,/D48*%
X151903736Y-116840000D02*
X153670000Y-118606264D01*
X138628500Y-128964764D02*
X150753264Y-116840000D01*
X138628500Y-138630000D02*
X138628500Y-128964764D01*
X150753264Y-116840000D02*
X151903736Y-116840000D01*
X153670000Y-118606264D02*
X153670000Y-128270000D01*
%TO.N,Net-(U$1-5V-Pad5V@1)*%
X103068500Y-138630000D02*
X103068500Y-154741500D01*
X103068500Y-154741500D02*
X102870000Y-154940000D01*
%TO.N,/D53*%
X156410000Y-146050000D02*
X167460000Y-135000000D01*
X156210000Y-146050000D02*
X156410000Y-146050000D01*
%TO.N,/MISO*%
X141168500Y-138630000D02*
X141168500Y-131008500D01*
X141168500Y-131008500D02*
X140970000Y-130810000D01*
%TO.N,Net-(U$1-PadD49)*%
X149860000Y-151130000D02*
X164920000Y-136070000D01*
X164920000Y-136070000D02*
X164920000Y-135000000D01*
%TO.N,Net-(U1-10)*%
X194310000Y-74930000D02*
X194310000Y-102870000D01*
X170180000Y-50800000D02*
X194310000Y-74930000D01*
X163830000Y-50800000D02*
X170180000Y-50800000D01*
X194310000Y-102870000D02*
X191770000Y-105410000D01*
%TD*%
M02*
