%TF.GenerationSoftware,KiCad,Pcbnew,8.0.4*%
%TF.CreationDate,2024-09-16T22:19:33-06:00*%
%TF.ProjectId,main V3b,6d61696e-2056-4336-922e-6b696361645f,rev?*%
%TF.SameCoordinates,Original*%
%TF.FileFunction,Soldermask,Bot*%
%TF.FilePolarity,Negative*%
%FSLAX46Y46*%
G04 Gerber Fmt 4.6, Leading zero omitted, Abs format (unit mm)*
G04 Created by KiCad (PCBNEW 8.0.4) date 2024-09-16 22:19:33*
%MOMM*%
%LPD*%
G01*
G04 APERTURE LIST*
G04 Aperture macros list*
%AMRoundRect*
0 Rectangle with rounded corners*
0 $1 Rounding radius*
0 $2 $3 $4 $5 $6 $7 $8 $9 X,Y pos of 4 corners*
0 Add a 4 corners polygon primitive as box body*
4,1,4,$2,$3,$4,$5,$6,$7,$8,$9,$2,$3,0*
0 Add four circle primitives for the rounded corners*
1,1,$1+$1,$2,$3*
1,1,$1+$1,$4,$5*
1,1,$1+$1,$6,$7*
1,1,$1+$1,$8,$9*
0 Add four rect primitives between the rounded corners*
20,1,$1+$1,$2,$3,$4,$5,0*
20,1,$1+$1,$4,$5,$6,$7,0*
20,1,$1+$1,$6,$7,$8,$9,0*
20,1,$1+$1,$8,$9,$2,$3,0*%
%AMFreePoly0*
4,1,25,0.427955,0.971196,0.440078,0.960842,0.960842,0.440078,0.989349,0.384130,0.990600,0.368236,0.990600,-0.368236,0.971196,-0.427955,0.960842,-0.440078,0.440078,-0.960842,0.384130,-0.989349,0.368236,-0.990600,-0.368236,-0.990600,-0.427955,-0.971196,-0.440078,-0.960842,-0.960842,-0.440078,-0.989349,-0.384130,-0.990600,-0.368236,-0.990600,0.368236,-0.971196,0.427955,-0.960842,0.440078,
-0.440078,0.960842,-0.384130,0.989349,-0.368236,0.990600,0.368236,0.990600,0.427955,0.971196,0.427955,0.971196,$1*%
G04 Aperture macros list end*
%ADD10RoundRect,0.101600X-0.889000X-0.889000X0.889000X-0.889000X0.889000X0.889000X-0.889000X0.889000X0*%
%ADD11FreePoly0,0.000000*%
%ADD12R,3.500000X3.500000*%
%ADD13RoundRect,0.750000X-1.000000X0.750000X-1.000000X-0.750000X1.000000X-0.750000X1.000000X0.750000X0*%
%ADD14RoundRect,0.875000X-0.875000X0.875000X-0.875000X-0.875000X0.875000X-0.875000X0.875000X0.875000X0*%
%ADD15RoundRect,0.250000X-0.750000X0.600000X-0.750000X-0.600000X0.750000X-0.600000X0.750000X0.600000X0*%
%ADD16O,2.000000X1.700000*%
%ADD17C,1.400000*%
%ADD18O,1.400000X1.400000*%
%ADD19FreePoly0,90.000000*%
%ADD20RoundRect,0.101600X0.889000X-0.889000X0.889000X0.889000X-0.889000X0.889000X-0.889000X-0.889000X0*%
%ADD21RoundRect,0.250000X-0.600000X-0.750000X0.600000X-0.750000X0.600000X0.750000X-0.600000X0.750000X0*%
%ADD22O,1.700000X2.000000*%
%ADD23RoundRect,0.250000X0.600000X0.750000X-0.600000X0.750000X-0.600000X-0.750000X0.600000X-0.750000X0*%
%ADD24R,2.400000X2.400000*%
%ADD25O,2.400000X2.400000*%
%ADD26R,3.000000X3.000000*%
%ADD27C,3.000000*%
%ADD28FreePoly0,180.000000*%
%ADD29RoundRect,0.101600X0.889000X0.889000X-0.889000X0.889000X-0.889000X-0.889000X0.889000X-0.889000X0*%
%ADD30R,1.778000X1.524000*%
%ADD31C,1.778000*%
%ADD32C,1.981200*%
G04 APERTURE END LIST*
D10*
%TO.C,U$2*%
X184960000Y-125000000D03*
D11*
X187500000Y-125000000D03*
X190040000Y-125000000D03*
X192580000Y-125000000D03*
%TD*%
D12*
%TO.C,J1*%
X82500000Y-53500000D03*
D13*
X82500000Y-47500000D03*
D14*
X77800000Y-50500000D03*
%TD*%
D15*
%TO.C,SW6*%
X137500000Y-157500000D03*
D16*
X137500000Y-160000000D03*
%TD*%
D15*
%TO.C,SW4*%
X122450000Y-157500000D03*
D16*
X122450000Y-160000000D03*
%TD*%
D15*
%TO.C,SW1*%
X99950000Y-157500000D03*
D16*
X99950000Y-160000000D03*
%TD*%
D17*
%TO.C,R2*%
X182500000Y-118810000D03*
D18*
X182500000Y-111190000D03*
%TD*%
D19*
%TO.C,1*%
X163830000Y-43180000D03*
X161290000Y-43180000D03*
D20*
X161290000Y-53340000D03*
D19*
X161290000Y-45720000D03*
X161290000Y-50800000D03*
X163830000Y-45720000D03*
X163830000Y-48260000D03*
X161290000Y-48260000D03*
X163830000Y-53340000D03*
X163830000Y-50800000D03*
%TD*%
D21*
%TO.C,POWER_LED0*%
X90000000Y-67500000D03*
D22*
X92500000Y-67500000D03*
%TD*%
D23*
%TO.C,JACK_CON3*%
X177500000Y-147500000D03*
D22*
X175000000Y-147500000D03*
%TD*%
D23*
%TO.C,JACK_CON1*%
X165000000Y-147500000D03*
D22*
X162500000Y-147500000D03*
%TD*%
D10*
%TO.C,U$3*%
X162380000Y-132460000D03*
D11*
X164920000Y-132460000D03*
X167460000Y-132460000D03*
X172540000Y-135000000D03*
X172540000Y-132460000D03*
X170000000Y-132460000D03*
X170000000Y-135000000D03*
X162380000Y-135000000D03*
X167460000Y-135000000D03*
X164920000Y-135000000D03*
%TD*%
D23*
%TO.C,SECTION_2_BUTTON0*%
X92500000Y-95000000D03*
D22*
X90000000Y-95000000D03*
%TD*%
D15*
%TO.C,SW5*%
X129950000Y-157500000D03*
D16*
X129950000Y-160000000D03*
%TD*%
D21*
%TO.C,RESET0*%
X80000000Y-67500000D03*
D22*
X82500000Y-67500000D03*
%TD*%
D21*
%TO.C,PWR_IN0*%
X70000000Y-67500000D03*
D22*
X72500000Y-67500000D03*
%TD*%
D24*
%TO.C,D2*%
X160000000Y-125160000D03*
D25*
X160000000Y-115000000D03*
%TD*%
D15*
%TO.C,SW3*%
X114950000Y-157500000D03*
D16*
X114950000Y-160000000D03*
%TD*%
D23*
%TO.C,JACK_CON5*%
X190000000Y-147500000D03*
D22*
X187500000Y-147500000D03*
%TD*%
D15*
%TO.C,SW2*%
X107450000Y-157500000D03*
D16*
X107450000Y-160000000D03*
%TD*%
D17*
%TO.C,R1*%
X91190000Y-57500000D03*
D18*
X98810000Y-57500000D03*
%TD*%
D15*
%TO.C,SW8*%
X152450000Y-157500000D03*
D16*
X152450000Y-160000000D03*
%TD*%
D10*
%TO.C,U$4*%
X79960000Y-157460000D03*
D11*
X82500000Y-157460000D03*
X85040000Y-157460000D03*
X87580000Y-157460000D03*
X79960000Y-160000000D03*
X82500000Y-160000000D03*
X85040000Y-160000000D03*
X87580000Y-160000000D03*
%TD*%
D15*
%TO.C,SW7*%
X144950000Y-157500000D03*
D16*
X144950000Y-160000000D03*
%TD*%
D26*
%TO.C,X1*%
X72390000Y-148590000D03*
D27*
X72390000Y-153670000D03*
X72390000Y-158750000D03*
%TD*%
D28*
%TO.C,U$1*%
X151328500Y-80210000D03*
X151328500Y-82750000D03*
X103068500Y-138630000D03*
X103068500Y-141170000D03*
X151328500Y-95450000D03*
X151328500Y-97990000D03*
X151328500Y-100530000D03*
X151328500Y-103070000D03*
X151328500Y-105610000D03*
X151328500Y-108150000D03*
X151328500Y-110690000D03*
X151328500Y-113230000D03*
X151328500Y-118310000D03*
X151328500Y-120850000D03*
X151328500Y-123390000D03*
X151328500Y-125930000D03*
X151328500Y-128470000D03*
X151328500Y-131010000D03*
X151328500Y-133550000D03*
X151328500Y-136090000D03*
X103068500Y-68780000D03*
X103068500Y-108150000D03*
X103068500Y-105610000D03*
X103068500Y-103070000D03*
X103068500Y-100530000D03*
X103068500Y-97990000D03*
X103068500Y-95450000D03*
X103068500Y-92910000D03*
X103068500Y-90370000D03*
X103068500Y-86560000D03*
X103068500Y-84020000D03*
X103068500Y-81480000D03*
X103068500Y-78940000D03*
X103068500Y-76400000D03*
X103068500Y-73860000D03*
X103068500Y-113230000D03*
X103068500Y-115770000D03*
X103068500Y-118310000D03*
X103068500Y-120850000D03*
X103068500Y-123390000D03*
X103068500Y-125930000D03*
X103068500Y-128470000D03*
X103068500Y-131010000D03*
X105608500Y-138630000D03*
X105608500Y-141170000D03*
X108148500Y-138630000D03*
X108148500Y-141170000D03*
X110688500Y-138630000D03*
X110688500Y-141170000D03*
X113228500Y-138630000D03*
X113228500Y-141170000D03*
X115768500Y-138630000D03*
X115768500Y-141170000D03*
X118308500Y-138630000D03*
X118308500Y-141170000D03*
X120848500Y-138630000D03*
X120848500Y-141170000D03*
X123388500Y-138630000D03*
X123388500Y-141170000D03*
X125928500Y-138630000D03*
X125928500Y-141170000D03*
X128468500Y-138630000D03*
X128468500Y-141170000D03*
X131008500Y-138630000D03*
X131008500Y-141170000D03*
X133548500Y-138630000D03*
X133548500Y-141170000D03*
X136088500Y-138630000D03*
X136088500Y-141170000D03*
X138628500Y-138630000D03*
X138628500Y-141170000D03*
X141168500Y-138630000D03*
X141168500Y-141170000D03*
X143708500Y-138630000D03*
X143708500Y-141170000D03*
X103068500Y-71320000D03*
X151328500Y-87830000D03*
X151328500Y-85290000D03*
X146248500Y-138630000D03*
X146248500Y-141170000D03*
X151328500Y-75130000D03*
X151328500Y-77670000D03*
D29*
X103068500Y-63700000D03*
D28*
X103068500Y-66240000D03*
X151328500Y-90370000D03*
%TD*%
D23*
%TO.C,JACK_CON2*%
X170000000Y-157500000D03*
D22*
X167500000Y-157500000D03*
%TD*%
D23*
%TO.C,SECTION_1_BUTTON0*%
X92500000Y-102500000D03*
D22*
X90000000Y-102500000D03*
%TD*%
D30*
%TO.C,U1*%
X176530000Y-77470000D03*
D31*
X176530000Y-80010000D03*
X176530000Y-82550000D03*
X176530000Y-85090000D03*
X176530000Y-87630000D03*
X176530000Y-90170000D03*
X176530000Y-92710000D03*
X176530000Y-95250000D03*
X176530000Y-97790000D03*
X176530000Y-100330000D03*
X176530000Y-102870000D03*
X176530000Y-105410000D03*
X191770000Y-105410000D03*
X191770000Y-102870000D03*
X191770000Y-100330000D03*
X191770000Y-97790000D03*
X191770000Y-95250000D03*
X191770000Y-92710000D03*
X191770000Y-90170000D03*
X191770000Y-87630000D03*
X191770000Y-85090000D03*
X191770000Y-82550000D03*
X191770000Y-80010000D03*
X191770000Y-77470000D03*
%TD*%
D23*
%TO.C,JACK_CON4*%
X182500000Y-157500000D03*
D22*
X180000000Y-157500000D03*
%TD*%
D17*
%TO.C,R3*%
X187500000Y-111190000D03*
D18*
X187500000Y-118810000D03*
%TD*%
D32*
%TO.C,U$5*%
X192500000Y-135000000D03*
D11*
X184880000Y-135000000D03*
D32*
X187420000Y-135000000D03*
X195040000Y-135000000D03*
X189960000Y-135000000D03*
%TD*%
D23*
%TO.C,SECTION_3_BUTTON0*%
X92500000Y-87500000D03*
D22*
X90000000Y-87500000D03*
%TD*%
D24*
%TO.C,D1*%
X167500000Y-125160000D03*
D25*
X167500000Y-115000000D03*
%TD*%
M02*
