%TF.GenerationSoftware,KiCad,Pcbnew,8.0.4*%
%TF.CreationDate,2024-09-16T22:19:33-06:00*%
%TF.ProjectId,main V3b,6d61696e-2056-4336-922e-6b696361645f,rev?*%
%TF.SameCoordinates,Original*%
%TF.FileFunction,Copper,L1,Top*%
%TF.FilePolarity,Positive*%
%FSLAX46Y46*%
G04 Gerber Fmt 4.6, Leading zero omitted, Abs format (unit mm)*
G04 Created by KiCad (PCBNEW 8.0.4) date 2024-09-16 22:19:33*
%MOMM*%
%LPD*%
G01*
G04 APERTURE LIST*
G04 Aperture macros list*
%AMRoundRect*
0 Rectangle with rounded corners*
0 $1 Rounding radius*
0 $2 $3 $4 $5 $6 $7 $8 $9 X,Y pos of 4 corners*
0 Add a 4 corners polygon primitive as box body*
4,1,4,$2,$3,$4,$5,$6,$7,$8,$9,$2,$3,0*
0 Add four circle primitives for the rounded corners*
1,1,$1+$1,$2,$3*
1,1,$1+$1,$4,$5*
1,1,$1+$1,$6,$7*
1,1,$1+$1,$8,$9*
0 Add four rect primitives between the rounded corners*
20,1,$1+$1,$2,$3,$4,$5,0*
20,1,$1+$1,$4,$5,$6,$7,0*
20,1,$1+$1,$6,$7,$8,$9,0*
20,1,$1+$1,$8,$9,$2,$3,0*%
%AMOutline5P*
0 Free polygon, 5 corners , with rotation*
0 The origin of the aperture is its center*
0 number of corners: always 5*
0 $1 to $10 corner X, Y*
0 $11 Rotation angle, in degrees counterclockwise*
0 create outline with 5 corners*
4,1,5,$1,$2,$3,$4,$5,$6,$7,$8,$9,$10,$1,$2,$11*%
%AMOutline6P*
0 Free polygon, 6 corners , with rotation*
0 The origin of the aperture is its center*
0 number of corners: always 6*
0 $1 to $12 corner X, Y*
0 $13 Rotation angle, in degrees counterclockwise*
0 create outline with 6 corners*
4,1,6,$1,$2,$3,$4,$5,$6,$7,$8,$9,$10,$11,$12,$1,$2,$13*%
%AMOutline7P*
0 Free polygon, 7 corners , with rotation*
0 The origin of the aperture is its center*
0 number of corners: always 7*
0 $1 to $14 corner X, Y*
0 $15 Rotation angle, in degrees counterclockwise*
0 create outline with 7 corners*
4,1,7,$1,$2,$3,$4,$5,$6,$7,$8,$9,$10,$11,$12,$13,$14,$1,$2,$15*%
%AMOutline8P*
0 Free polygon, 8 corners , with rotation*
0 The origin of the aperture is its center*
0 number of corners: always 8*
0 $1 to $16 corner X, Y*
0 $17 Rotation angle, in degrees counterclockwise*
0 create outline with 8 corners*
4,1,8,$1,$2,$3,$4,$5,$6,$7,$8,$9,$10,$11,$12,$13,$14,$15,$16,$1,$2,$17*%
G04 Aperture macros list end*
%TA.AperFunction,ComponentPad*%
%ADD10R,1.778000X1.778000*%
%TD*%
%TA.AperFunction,ComponentPad*%
%ADD11Outline8P,-0.889000X0.368236X-0.368236X0.889000X0.368236X0.889000X0.889000X0.368236X0.889000X-0.368236X0.368236X-0.889000X-0.368236X-0.889000X-0.889000X-0.368236X0.000000*%
%TD*%
%TA.AperFunction,ComponentPad*%
%ADD12R,3.500000X3.500000*%
%TD*%
%TA.AperFunction,ComponentPad*%
%ADD13RoundRect,0.750000X-1.000000X0.750000X-1.000000X-0.750000X1.000000X-0.750000X1.000000X0.750000X0*%
%TD*%
%TA.AperFunction,ComponentPad*%
%ADD14RoundRect,0.875000X-0.875000X0.875000X-0.875000X-0.875000X0.875000X-0.875000X0.875000X0.875000X0*%
%TD*%
%TA.AperFunction,ComponentPad*%
%ADD15RoundRect,0.250000X-0.750000X0.600000X-0.750000X-0.600000X0.750000X-0.600000X0.750000X0.600000X0*%
%TD*%
%TA.AperFunction,ComponentPad*%
%ADD16O,2.000000X1.700000*%
%TD*%
%TA.AperFunction,ComponentPad*%
%ADD17C,1.400000*%
%TD*%
%TA.AperFunction,ComponentPad*%
%ADD18O,1.400000X1.400000*%
%TD*%
%TA.AperFunction,ComponentPad*%
%ADD19Outline8P,-0.889000X0.368236X-0.368236X0.889000X0.368236X0.889000X0.889000X0.368236X0.889000X-0.368236X0.368236X-0.889000X-0.368236X-0.889000X-0.889000X-0.368236X90.000000*%
%TD*%
%TA.AperFunction,ComponentPad*%
%ADD20RoundRect,0.250000X-0.600000X-0.750000X0.600000X-0.750000X0.600000X0.750000X-0.600000X0.750000X0*%
%TD*%
%TA.AperFunction,ComponentPad*%
%ADD21O,1.700000X2.000000*%
%TD*%
%TA.AperFunction,ComponentPad*%
%ADD22RoundRect,0.250000X0.600000X0.750000X-0.600000X0.750000X-0.600000X-0.750000X0.600000X-0.750000X0*%
%TD*%
%TA.AperFunction,ComponentPad*%
%ADD23R,2.400000X2.400000*%
%TD*%
%TA.AperFunction,ComponentPad*%
%ADD24O,2.400000X2.400000*%
%TD*%
%TA.AperFunction,ComponentPad*%
%ADD25R,3.000000X3.000000*%
%TD*%
%TA.AperFunction,ComponentPad*%
%ADD26C,3.000000*%
%TD*%
%TA.AperFunction,ComponentPad*%
%ADD27Outline8P,-0.889000X0.368236X-0.368236X0.889000X0.368236X0.889000X0.889000X0.368236X0.889000X-0.368236X0.368236X-0.889000X-0.368236X-0.889000X-0.889000X-0.368236X180.000000*%
%TD*%
%TA.AperFunction,ComponentPad*%
%ADD28R,1.778000X1.524000*%
%TD*%
%TA.AperFunction,ComponentPad*%
%ADD29C,1.778000*%
%TD*%
%TA.AperFunction,ViaPad*%
%ADD30C,1.270000*%
%TD*%
%TA.AperFunction,ViaPad*%
%ADD31C,0.600000*%
%TD*%
%TA.AperFunction,Conductor*%
%ADD32C,0.200000*%
%TD*%
G04 APERTURE END LIST*
D10*
%TO.P,U$2,CLK,CLK*%
%TO.N,Net-(R2-Pad1)*%
X184960000Y-125000000D03*
D11*
%TO.P,U$2,DIO,DIO*%
%TO.N,Net-(R3-Pad2)*%
X187500000Y-125000000D03*
%TO.P,U$2,GND,GND*%
%TO.N,GND*%
X190040000Y-125000000D03*
%TO.P,U$2,VCC,VCC*%
%TO.N,/5V*%
X192580000Y-125000000D03*
%TD*%
D12*
%TO.P,J1,1,1*%
%TO.N,/RAW_IN*%
X82500000Y-53500000D03*
D13*
%TO.P,J1,2,2*%
%TO.N,unconnected-(J1-Pad2)*%
X82500000Y-47500000D03*
D14*
%TO.P,J1,3,3*%
%TO.N,GND*%
X77800000Y-50500000D03*
%TD*%
D15*
%TO.P,SW6,1,S*%
%TO.N,Net-(SW6A-S)*%
X137500000Y-157500000D03*
D16*
%TO.P,SW6,2,S*%
%TO.N,GND*%
X137500000Y-160000000D03*
%TD*%
D15*
%TO.P,SW4,1,S*%
%TO.N,Net-(SW4A-S)*%
X122450000Y-157500000D03*
D16*
%TO.P,SW4,2,S*%
%TO.N,GND*%
X122450000Y-160000000D03*
%TD*%
D15*
%TO.P,SW1,1,S*%
%TO.N,Net-(SW1A-S)*%
X99950000Y-157500000D03*
D16*
%TO.P,SW1,2,S*%
%TO.N,GND*%
X99950000Y-160000000D03*
%TD*%
D17*
%TO.P,R2,1,1*%
%TO.N,Net-(R2-Pad1)*%
X182500000Y-118810000D03*
D18*
%TO.P,R2,2,2*%
%TO.N,/5V*%
X182500000Y-111190000D03*
%TD*%
D19*
%TO.P,1,3V3,3V3*%
%TO.N,unconnected-(1-Pad3V3)*%
X163830000Y-43180000D03*
%TO.P,1,5V,5V*%
%TO.N,/5V*%
X161290000Y-43180000D03*
D10*
%TO.P,1,GND@1,GND*%
%TO.N,GND*%
X161290000Y-53340000D03*
D19*
%TO.P,1,GND@2,GND*%
X161290000Y-45720000D03*
%TO.P,1,INT,INT*%
%TO.N,unconnected-(1-PadINT)*%
X161290000Y-50800000D03*
%TO.P,1,MISO,MISO*%
%TO.N,Net-(U1-12)*%
X163830000Y-45720000D03*
%TO.P,1,MOSI,MOSI*%
%TO.N,Net-(U1-11)*%
X163830000Y-48260000D03*
%TO.P,1,RST,RST*%
%TO.N,/RESET*%
X161290000Y-48260000D03*
%TO.P,1,SCLK,SCLK*%
%TO.N,Net-(U1-13)*%
X163830000Y-53340000D03*
%TO.P,1,SCS,SCS*%
%TO.N,Net-(U1-10)*%
X163830000Y-50800000D03*
%TD*%
D20*
%TO.P,POWER_LED0,1,S*%
%TO.N,/5V*%
X90000000Y-67500000D03*
D21*
%TO.P,POWER_LED0,2,S*%
%TO.N,Net-(POWER_LED0B-S)*%
X92500000Y-67500000D03*
%TD*%
D22*
%TO.P,JACK_CON3,1,S*%
%TO.N,Net-(JACK_CON3A-S)*%
X177500000Y-147500000D03*
D21*
%TO.P,JACK_CON3,2,S*%
%TO.N,Net-(JACK_CON3B-S)*%
X175000000Y-147500000D03*
%TD*%
D22*
%TO.P,JACK_CON1,1,S*%
%TO.N,Net-(JACK_CON1A-S)*%
X165000000Y-147500000D03*
D21*
%TO.P,JACK_CON1,2,S*%
%TO.N,Net-(JACK_CON1B-S)*%
X162500000Y-147500000D03*
%TD*%
D10*
%TO.P,U$3,3V3,3V3*%
%TO.N,Net-(D2-K)*%
X162380000Y-132460000D03*
D11*
%TO.P,U$3,5V,5V*%
%TO.N,Net-(D1-K)*%
X164920000Y-132460000D03*
%TO.P,U$3,GND,GND*%
%TO.N,GND*%
X167460000Y-132460000D03*
%TO.P,U$3,MISO,MISO*%
%TO.N,/MISO*%
X172540000Y-135000000D03*
%TO.P,U$3,MOSI,MOSI*%
%TO.N,/MOSI*%
X172540000Y-132460000D03*
%TO.P,U$3,SCK,SCK*%
%TO.N,/SCK*%
X170000000Y-132460000D03*
%TO.P,U$3,SD_CS,SD_CS*%
%TO.N,/D48*%
X170000000Y-135000000D03*
%TO.P,U$3,SPKR,SPKR*%
%TO.N,/D2*%
X162380000Y-135000000D03*
%TO.P,U$3,TFT_CS,TFT_CS*%
%TO.N,/D53*%
X167460000Y-135000000D03*
%TO.P,U$3,TFT_DC,TFT_DC*%
%TO.N,Net-(U$1-PadD49)*%
X164920000Y-135000000D03*
%TD*%
D22*
%TO.P,SECTION_2_BUTTON0,1,KL*%
%TO.N,Net-(SECTION_2_BUTTON0A-KL)*%
X92500000Y-95000000D03*
D21*
%TO.P,SECTION_2_BUTTON0,2,KL*%
%TO.N,GND*%
X90000000Y-95000000D03*
%TD*%
D15*
%TO.P,SW5,1,S*%
%TO.N,Net-(SW5A-S)*%
X129950000Y-157500000D03*
D16*
%TO.P,SW5,2,S*%
%TO.N,GND*%
X129950000Y-160000000D03*
%TD*%
D20*
%TO.P,RESET0,1,S*%
%TO.N,/RESET*%
X80000000Y-67500000D03*
D21*
%TO.P,RESET0,2,S*%
%TO.N,GND*%
X82500000Y-67500000D03*
%TD*%
D20*
%TO.P,PWR_IN0,1,S*%
%TO.N,/RAW_IN*%
X70000000Y-67500000D03*
D21*
%TO.P,PWR_IN0,2,S*%
%TO.N,/5V*%
X72500000Y-67500000D03*
%TD*%
D23*
%TO.P,D2,1,K*%
%TO.N,Net-(D2-K)*%
X160000000Y-125160000D03*
D24*
%TO.P,D2,2,A*%
%TO.N,/3V3*%
X160000000Y-115000000D03*
%TD*%
D15*
%TO.P,SW3,1,S*%
%TO.N,Net-(SW3A-S)*%
X114950000Y-157500000D03*
D16*
%TO.P,SW3,2,S*%
%TO.N,GND*%
X114950000Y-160000000D03*
%TD*%
D22*
%TO.P,JACK_CON5,1,S*%
%TO.N,Net-(JACK_CON5A-S)*%
X190000000Y-147500000D03*
D21*
%TO.P,JACK_CON5,2,S*%
%TO.N,Net-(JACK_CON5B-S)*%
X187500000Y-147500000D03*
%TD*%
D15*
%TO.P,SW2,1,S*%
%TO.N,Net-(SW2A-S)*%
X107450000Y-157500000D03*
D16*
%TO.P,SW2,2,S*%
%TO.N,GND*%
X107450000Y-160000000D03*
%TD*%
D17*
%TO.P,R1,1,1*%
%TO.N,Net-(POWER_LED0B-S)*%
X91190000Y-57500000D03*
D18*
%TO.P,R1,2,2*%
%TO.N,GND*%
X98810000Y-57500000D03*
%TD*%
D15*
%TO.P,SW8,1,S*%
%TO.N,Net-(SW8A-S)*%
X152450000Y-157500000D03*
D16*
%TO.P,SW8,2,S*%
%TO.N,GND*%
X152450000Y-160000000D03*
%TD*%
D10*
%TO.P,U$4,P1,P1*%
%TO.N,Net-(U$1-PadD22)*%
X79960000Y-157460000D03*
D11*
%TO.P,U$4,P2,P2*%
%TO.N,Net-(U$1-PadD23)*%
X82500000Y-157460000D03*
%TO.P,U$4,P3,P3*%
%TO.N,Net-(U$1-PadD24)*%
X85040000Y-157460000D03*
%TO.P,U$4,P4,P4*%
%TO.N,Net-(U$1-PadD25)*%
X87580000Y-157460000D03*
%TO.P,U$4,PA,PA*%
%TO.N,Net-(U$1-PadD26)*%
X79960000Y-160000000D03*
%TO.P,U$4,PB,PB*%
%TO.N,Net-(U$1-PadD27)*%
X82500000Y-160000000D03*
%TO.P,U$4,PC,PC*%
%TO.N,Net-(U$1-PadD28)*%
X85040000Y-160000000D03*
%TO.P,U$4,PD,PD*%
%TO.N,/D29*%
X87580000Y-160000000D03*
%TD*%
D15*
%TO.P,SW7,1,S*%
%TO.N,Net-(SW7A-S)*%
X144950000Y-157500000D03*
D16*
%TO.P,SW7,2,S*%
%TO.N,GND*%
X144950000Y-160000000D03*
%TD*%
D25*
%TO.P,X1,1,KL*%
%TO.N,/5V*%
X72390000Y-148590000D03*
D26*
%TO.P,X1,2,KL*%
%TO.N,Net-(X1B-KL)*%
X72390000Y-153670000D03*
%TO.P,X1,3,KL*%
%TO.N,GND*%
X72390000Y-158750000D03*
%TD*%
D27*
%TO.P,U$1,3V3,3V3*%
%TO.N,/3V3*%
X151328500Y-80210000D03*
%TO.P,U$1,5V@1,5V*%
%TO.N,Net-(U$1-5V-Pad5V@1)*%
X151328500Y-82750000D03*
%TO.P,U$1,5V@2,5V*%
X103068500Y-138630000D03*
%TO.P,U$1,5V@3,5V*%
X103068500Y-141170000D03*
%TO.P,U$1,A0,A0*%
%TO.N,unconnected-(U$1-PadA0)*%
X151328500Y-95450000D03*
%TO.P,U$1,A1,A1*%
%TO.N,unconnected-(U$1-PadA1)*%
X151328500Y-97990000D03*
%TO.P,U$1,A2,A2*%
%TO.N,unconnected-(U$1-PadA2)*%
X151328500Y-100530000D03*
%TO.P,U$1,A3,A3*%
%TO.N,unconnected-(U$1-PadA3)*%
X151328500Y-103070000D03*
%TO.P,U$1,A4,A4*%
%TO.N,unconnected-(U$1-PadA4)*%
X151328500Y-105610000D03*
%TO.P,U$1,A5,A5*%
%TO.N,unconnected-(U$1-PadA5)*%
X151328500Y-108150000D03*
%TO.P,U$1,A6,A6*%
%TO.N,unconnected-(U$1-PadA6)*%
X151328500Y-110690000D03*
%TO.P,U$1,A7,A7*%
%TO.N,unconnected-(U$1-PadA7)*%
X151328500Y-113230000D03*
%TO.P,U$1,A8,A8*%
%TO.N,unconnected-(U$1-PadA8)*%
X151328500Y-118310000D03*
%TO.P,U$1,A9,A9*%
%TO.N,unconnected-(U$1-PadA9)*%
X151328500Y-120850000D03*
%TO.P,U$1,A10,A10*%
%TO.N,unconnected-(U$1-PadA10)*%
X151328500Y-123390000D03*
%TO.P,U$1,A11,A11*%
%TO.N,unconnected-(U$1-PadA11)*%
X151328500Y-125930000D03*
%TO.P,U$1,A12,A12*%
%TO.N,unconnected-(U$1-PadA12)*%
X151328500Y-128470000D03*
%TO.P,U$1,A13,A13*%
%TO.N,unconnected-(U$1-PadA13)*%
X151328500Y-131010000D03*
%TO.P,U$1,A14,A14*%
%TO.N,unconnected-(U$1-PadA14)*%
X151328500Y-133550000D03*
%TO.P,U$1,A15,A15*%
%TO.N,unconnected-(U$1-PadA15)*%
X151328500Y-136090000D03*
%TO.P,U$1,AREF,AREF*%
%TO.N,unconnected-(U$1-PadAREF)*%
X103068500Y-68780000D03*
%TO.P,U$1,D0,D0*%
%TO.N,Net-(U1-TXD)*%
X103068500Y-108150000D03*
%TO.P,U$1,D1,D1*%
%TO.N,Net-(U1-RXI)*%
X103068500Y-105610000D03*
%TO.P,U$1,D2,D2*%
%TO.N,/D2*%
X103068500Y-103070000D03*
%TO.P,U$1,D3,D3*%
%TO.N,unconnected-(U$1-PadD3)*%
X103068500Y-100530000D03*
%TO.P,U$1,D4,D4*%
%TO.N,Net-(R2-Pad1)*%
X103068500Y-97990000D03*
%TO.P,U$1,D5,D5*%
%TO.N,Net-(R3-Pad2)*%
X103068500Y-95450000D03*
%TO.P,U$1,D6,D6*%
%TO.N,unconnected-(U$1-PadD6)*%
X103068500Y-92910000D03*
%TO.P,U$1,D7,D7*%
%TO.N,unconnected-(U$1-PadD7)*%
X103068500Y-90370000D03*
%TO.P,U$1,D8,D8*%
%TO.N,Net-(X1B-KL)*%
X103068500Y-86560000D03*
%TO.P,U$1,D9,D9*%
%TO.N,Net-(SECTION_1_BUTTON0A-KL)*%
X103068500Y-84020000D03*
%TO.P,U$1,D10,D10*%
%TO.N,Net-(SECTION_2_BUTTON0A-KL)*%
X103068500Y-81480000D03*
%TO.P,U$1,D11,D11*%
%TO.N,Net-(SECTION_3_BUTTON0A-KL)*%
X103068500Y-78940000D03*
%TO.P,U$1,D12,D12*%
%TO.N,unconnected-(U$1-PadD12)*%
X103068500Y-76400000D03*
%TO.P,U$1,D13,D13*%
%TO.N,unconnected-(U$1-PadD13)*%
X103068500Y-73860000D03*
%TO.P,U$1,D14,D14*%
%TO.N,unconnected-(U$1-PadD14)*%
X103068500Y-113230000D03*
%TO.P,U$1,D15,D15*%
%TO.N,unconnected-(U$1-PadD15)*%
X103068500Y-115770000D03*
%TO.P,U$1,D16,D16*%
%TO.N,unconnected-(U$1-PadD16)*%
X103068500Y-118310000D03*
%TO.P,U$1,D17,D17*%
%TO.N,unconnected-(U$1-PadD17)*%
X103068500Y-120850000D03*
%TO.P,U$1,D18,D18*%
%TO.N,unconnected-(U$1-PadD18)*%
X103068500Y-123390000D03*
%TO.P,U$1,D19,D19*%
%TO.N,unconnected-(U$1-PadD19)*%
X103068500Y-125930000D03*
%TO.P,U$1,D20,D20*%
%TO.N,Net-(U$1-PadD20)*%
X103068500Y-128470000D03*
%TO.P,U$1,D21,D21*%
%TO.N,/D21*%
X103068500Y-131010000D03*
%TO.P,U$1,D22,D22*%
%TO.N,Net-(U$1-PadD22)*%
X105608500Y-138630000D03*
%TO.P,U$1,D23,D23*%
%TO.N,Net-(U$1-PadD23)*%
X105608500Y-141170000D03*
%TO.P,U$1,D24,D24*%
%TO.N,Net-(U$1-PadD24)*%
X108148500Y-138630000D03*
%TO.P,U$1,D25,D25*%
%TO.N,Net-(U$1-PadD25)*%
X108148500Y-141170000D03*
%TO.P,U$1,D26,D26*%
%TO.N,Net-(U$1-PadD26)*%
X110688500Y-138630000D03*
%TO.P,U$1,D27,D27*%
%TO.N,Net-(U$1-PadD27)*%
X110688500Y-141170000D03*
%TO.P,U$1,D28,D28*%
%TO.N,Net-(U$1-PadD28)*%
X113228500Y-138630000D03*
%TO.P,U$1,D29,D29*%
%TO.N,/D29*%
X113228500Y-141170000D03*
%TO.P,U$1,D30,D30*%
%TO.N,Net-(SW1A-S)*%
X115768500Y-138630000D03*
%TO.P,U$1,D31,D31*%
%TO.N,Net-(SW2A-S)*%
X115768500Y-141170000D03*
%TO.P,U$1,D32,D32*%
%TO.N,Net-(SW3A-S)*%
X118308500Y-138630000D03*
%TO.P,U$1,D33,D33*%
%TO.N,Net-(SW4A-S)*%
X118308500Y-141170000D03*
%TO.P,U$1,D34,D34*%
%TO.N,Net-(SW5A-S)*%
X120848500Y-138630000D03*
%TO.P,U$1,D35,D35*%
%TO.N,Net-(SW6A-S)*%
X120848500Y-141170000D03*
%TO.P,U$1,D36,D36*%
%TO.N,Net-(SW7A-S)*%
X123388500Y-138630000D03*
%TO.P,U$1,D37,D37*%
%TO.N,Net-(SW8A-S)*%
X123388500Y-141170000D03*
%TO.P,U$1,D38,D38*%
%TO.N,Net-(JACK_CON1A-S)*%
X125928500Y-138630000D03*
%TO.P,U$1,D39,D39*%
%TO.N,Net-(JACK_CON1B-S)*%
X125928500Y-141170000D03*
%TO.P,U$1,D40,D40*%
%TO.N,Net-(JACK_CON2A-S)*%
X128468500Y-138630000D03*
%TO.P,U$1,D41,D41*%
%TO.N,Net-(JACK_CON2B-S)*%
X128468500Y-141170000D03*
%TO.P,U$1,D42,D42*%
%TO.N,Net-(JACK_CON3A-S)*%
X131008500Y-138630000D03*
%TO.P,U$1,D43,D43*%
%TO.N,Net-(JACK_CON3B-S)*%
X131008500Y-141170000D03*
%TO.P,U$1,D44,D44*%
%TO.N,Net-(JACK_CON4A-S)*%
X133548500Y-138630000D03*
%TO.P,U$1,D45,D45*%
%TO.N,Net-(JACK_CON4B-S)*%
X133548500Y-141170000D03*
%TO.P,U$1,D46,D46*%
%TO.N,Net-(JACK_CON5A-S)*%
X136088500Y-138630000D03*
%TO.P,U$1,D47,D47*%
%TO.N,Net-(JACK_CON5B-S)*%
X136088500Y-141170000D03*
%TO.P,U$1,D48,D48*%
%TO.N,/D48*%
X138628500Y-138630000D03*
%TO.P,U$1,D49,D49*%
%TO.N,Net-(U$1-PadD49)*%
X138628500Y-141170000D03*
%TO.P,U$1,D50,D50*%
%TO.N,/MISO*%
X141168500Y-138630000D03*
%TO.P,U$1,D51,D51*%
%TO.N,/MOSI*%
X141168500Y-141170000D03*
%TO.P,U$1,D52,D52*%
%TO.N,/SCK*%
X143708500Y-138630000D03*
%TO.P,U$1,D53,D53*%
%TO.N,/D53*%
X143708500Y-141170000D03*
%TO.P,U$1,GND@1,GND*%
%TO.N,GND*%
X103068500Y-71320000D03*
%TO.P,U$1,GND@2,GND*%
X151328500Y-87830000D03*
%TO.P,U$1,GND@3,GND*%
X151328500Y-85290000D03*
%TO.P,U$1,GND@4,GND*%
X146248500Y-138630000D03*
%TO.P,U$1,GND@5,GND*%
X146248500Y-141170000D03*
%TO.P,U$1,IOREF,IOREF*%
%TO.N,unconnected-(U$1-PadIOREF)*%
X151328500Y-75130000D03*
%TO.P,U$1,RESET,RESET*%
%TO.N,/RESET*%
X151328500Y-77670000D03*
D10*
%TO.P,U$1,SCL,SCL*%
%TO.N,unconnected-(U$1-PadSCL)*%
X103068500Y-63700000D03*
D27*
%TO.P,U$1,SDA,SDA*%
%TO.N,unconnected-(U$1-PadSDA)*%
X103068500Y-66240000D03*
%TO.P,U$1,VIN,VIN*%
%TO.N,/5V*%
X151328500Y-90370000D03*
%TD*%
D22*
%TO.P,JACK_CON2,1,S*%
%TO.N,Net-(JACK_CON2A-S)*%
X170000000Y-157500000D03*
D21*
%TO.P,JACK_CON2,2,S*%
%TO.N,Net-(JACK_CON2B-S)*%
X167500000Y-157500000D03*
%TD*%
D22*
%TO.P,SECTION_1_BUTTON0,1,KL*%
%TO.N,Net-(SECTION_1_BUTTON0A-KL)*%
X92500000Y-102500000D03*
D21*
%TO.P,SECTION_1_BUTTON0,2,KL*%
%TO.N,GND*%
X90000000Y-102500000D03*
%TD*%
D28*
%TO.P,U1,0,TXD*%
%TO.N,Net-(U1-TXD)*%
X176530000Y-77470000D03*
D29*
%TO.P,U1,1,RXI*%
%TO.N,Net-(U1-RXI)*%
X176530000Y-80010000D03*
%TO.P,U1,2,GND/RST*%
%TO.N,unconnected-(U1-GND{slash}RST-Pad2)*%
X176530000Y-82550000D03*
%TO.P,U1,3,GND*%
%TO.N,unconnected-(U1-GND-Pad3)*%
X176530000Y-85090000D03*
%TO.P,U1,4,2*%
%TO.N,unconnected-(U1-2-Pad4)*%
X176530000Y-87630000D03*
%TO.P,U1,5,3*%
%TO.N,unconnected-(U1-3-Pad5)*%
X176530000Y-90170000D03*
%TO.P,U1,6,4*%
%TO.N,unconnected-(U1-4-Pad6)*%
X176530000Y-92710000D03*
%TO.P,U1,7,5*%
%TO.N,unconnected-(U1-5-Pad7)*%
X176530000Y-95250000D03*
%TO.P,U1,8,6*%
%TO.N,unconnected-(U1-6-Pad8)*%
X176530000Y-97790000D03*
%TO.P,U1,9,7*%
%TO.N,unconnected-(U1-7-Pad9)*%
X176530000Y-100330000D03*
%TO.P,U1,10,8*%
%TO.N,unconnected-(U1-8-Pad10)*%
X176530000Y-102870000D03*
%TO.P,U1,11,9*%
%TO.N,unconnected-(U1-9-Pad11)*%
X176530000Y-105410000D03*
%TO.P,U1,12,10*%
%TO.N,Net-(U1-10)*%
X191770000Y-105410000D03*
%TO.P,U1,13,11*%
%TO.N,Net-(U1-11)*%
X191770000Y-102870000D03*
%TO.P,U1,14,12*%
%TO.N,Net-(U1-12)*%
X191770000Y-100330000D03*
%TO.P,U1,15,13*%
%TO.N,Net-(U1-13)*%
X191770000Y-97790000D03*
%TO.P,U1,16,A0*%
%TO.N,unconnected-(U1-A0-Pad16)*%
X191770000Y-95250000D03*
%TO.P,U1,17,A1*%
%TO.N,unconnected-(U1-A1-Pad17)*%
X191770000Y-92710000D03*
%TO.P,U1,18,A2*%
%TO.N,unconnected-(U1-A2-Pad18)*%
X191770000Y-90170000D03*
%TO.P,U1,19,A3*%
%TO.N,unconnected-(U1-A3-Pad19)*%
X191770000Y-87630000D03*
%TO.P,U1,20,VCC*%
%TO.N,/5V*%
X191770000Y-85090000D03*
%TO.P,U1,21,RST*%
%TO.N,/RESET*%
X191770000Y-82550000D03*
%TO.P,U1,22,GND*%
%TO.N,GND*%
X191770000Y-80010000D03*
%TO.P,U1,23,RAW*%
%TO.N,unconnected-(U1-RAW-Pad23)*%
X191770000Y-77470000D03*
%TD*%
D22*
%TO.P,JACK_CON4,1,S*%
%TO.N,Net-(JACK_CON4A-S)*%
X182500000Y-157500000D03*
D21*
%TO.P,JACK_CON4,2,S*%
%TO.N,Net-(JACK_CON4B-S)*%
X180000000Y-157500000D03*
%TD*%
D17*
%TO.P,R3,1,1*%
%TO.N,/5V*%
X187500000Y-111190000D03*
D18*
%TO.P,R3,2,2*%
%TO.N,Net-(R3-Pad2)*%
X187500000Y-118810000D03*
%TD*%
D29*
%TO.P,U$5,+,+*%
%TO.N,/5V*%
X192500000Y-135000000D03*
D11*
%TO.P,U$5,CLK,CLK*%
%TO.N,/D21*%
X184880000Y-135000000D03*
D29*
%TO.P,U$5,DT,DT*%
%TO.N,Net-(U$1-PadD20)*%
X187420000Y-135000000D03*
%TO.P,U$5,GND,GND*%
%TO.N,GND*%
X195040000Y-135000000D03*
%TO.P,U$5,SW,SW*%
%TO.N,unconnected-(U$5-PadSW)*%
X189960000Y-135000000D03*
%TD*%
D22*
%TO.P,SECTION_3_BUTTON0,1,KL*%
%TO.N,Net-(SECTION_3_BUTTON0A-KL)*%
X92500000Y-87500000D03*
D21*
%TO.P,SECTION_3_BUTTON0,2,KL*%
%TO.N,GND*%
X90000000Y-87500000D03*
%TD*%
D23*
%TO.P,D1,1,K*%
%TO.N,Net-(D1-K)*%
X167500000Y-125160000D03*
D24*
%TO.P,D1,2,A*%
%TO.N,/5V*%
X167500000Y-115000000D03*
%TD*%
D30*
%TO.N,/5V*%
X123190000Y-63500000D03*
D31*
%TO.N,Net-(JACK_CON5B-S)*%
X148590000Y-153670000D03*
%TO.N,/SCK*%
X143510000Y-121920000D03*
X168910000Y-129540000D03*
X143510000Y-130810000D03*
%TO.N,/MOSI*%
X154940000Y-148590000D03*
%TO.N,/D48*%
X153670000Y-128270000D03*
%TO.N,Net-(U$1-5V-Pad5V@1)*%
X102870000Y-154940000D03*
%TO.N,/D53*%
X156210000Y-146050000D03*
%TO.N,/MISO*%
X140970000Y-130810000D03*
%TO.N,Net-(U$1-PadD49)*%
X149860000Y-151130000D03*
%TD*%
D32*
%TO.N,Net-(JACK_CON3A-S)*%
X154715958Y-144122800D02*
X147095958Y-136502800D01*
X133135700Y-136502800D02*
X131008500Y-138630000D01*
X174122800Y-144122800D02*
X154715958Y-144122800D01*
X177500000Y-147500000D02*
X174122800Y-144122800D01*
X147095958Y-136502800D02*
X133135700Y-136502800D01*
%TO.N,Net-(JACK_CON3B-S)*%
X131008500Y-141170000D02*
X131008500Y-141168500D01*
X131008500Y-141168500D02*
X130810000Y-140970000D01*
%TO.N,Net-(JACK_CON4A-S)*%
X146823736Y-137160000D02*
X135018500Y-137160000D01*
X169780000Y-144780000D02*
X154443736Y-144780000D01*
X182500000Y-157500000D02*
X169780000Y-144780000D01*
X135018500Y-137160000D02*
X133548500Y-138630000D01*
X154443736Y-144780000D02*
X146823736Y-137160000D01*
%TO.N,Net-(JACK_CON4B-S)*%
X133548500Y-141170000D02*
X148321300Y-155942800D01*
X178442800Y-155942800D02*
X180000000Y-157500000D01*
X148321300Y-155942800D02*
X178442800Y-155942800D01*
%TO.N,Net-(JACK_CON5B-S)*%
X187500000Y-147500000D02*
X187780000Y-147500000D01*
X187780000Y-147500000D02*
X187960000Y-147320000D01*
%TO.N,Net-(SW6A-S)*%
X137500000Y-157500000D02*
X137450000Y-157500000D01*
%TO.N,/MOSI*%
X141168500Y-141170000D02*
X148588500Y-148590000D01*
X148588500Y-148590000D02*
X149860000Y-148590000D01*
X149860000Y-148590000D02*
X154940000Y-148590000D01*
%TO.N,/D48*%
X153670000Y-128270000D02*
X153670000Y-128335236D01*
X153670000Y-128335236D02*
X158750000Y-133415236D01*
X158750000Y-140970000D02*
X164030000Y-140970000D01*
X158750000Y-133415236D02*
X158750000Y-140970000D01*
X164030000Y-140970000D02*
X170000000Y-135000000D01*
%TO.N,Net-(U$1-5V-Pad5V@1)*%
X149882300Y-86337700D02*
X149882300Y-84196200D01*
X98683800Y-132456200D02*
X103763800Y-132456200D01*
X90684522Y-162103400D02*
X80018164Y-162103400D01*
X149882300Y-84196200D02*
X151328500Y-82750000D01*
X80018164Y-162103400D02*
X77856600Y-159941836D01*
X102870000Y-154940000D02*
X97847922Y-154940000D01*
X103763800Y-132456200D02*
X149882300Y-86337700D01*
X77856600Y-153283400D02*
X98683800Y-132456200D01*
X77856600Y-159941836D02*
X77856600Y-153283400D01*
X97847922Y-154940000D02*
X90684522Y-162103400D01*
%TO.N,/D53*%
X149860000Y-146050000D02*
X156210000Y-146050000D01*
X143708500Y-141170000D02*
X148588500Y-146050000D01*
X148588500Y-146050000D02*
X149860000Y-146050000D01*
%TO.N,/MISO*%
X140970000Y-126623264D02*
X150729464Y-116863800D01*
X170395236Y-128270000D02*
X173986200Y-131860964D01*
X140970000Y-130810000D02*
X140970000Y-126623264D01*
X154940000Y-128270000D02*
X170395236Y-128270000D01*
X152423800Y-116863800D02*
X154940000Y-119380000D01*
X173986200Y-133553800D02*
X172540000Y-135000000D01*
X150729464Y-116863800D02*
X152423800Y-116863800D01*
X154940000Y-119380000D02*
X154940000Y-128270000D01*
X173986200Y-131860964D02*
X173986200Y-133553800D01*
%TO.N,/D2*%
X162560000Y-135180000D02*
X162380000Y-135000000D01*
X162560000Y-135180000D02*
X162560000Y-135890000D01*
%TO.N,Net-(U$1-PadD26)*%
X107948500Y-135890000D02*
X110688500Y-138630000D01*
X78513800Y-159442800D02*
X78513800Y-156013800D01*
X78513800Y-156013800D02*
X98637600Y-135890000D01*
X79071000Y-160000000D02*
X78513800Y-159442800D01*
X98637600Y-135890000D02*
X107948500Y-135890000D01*
X79960000Y-160000000D02*
X79071000Y-160000000D01*
%TO.N,Net-(U$1-PadD24)*%
X85070000Y-157460000D02*
X85090000Y-157480000D01*
X85070000Y-157460000D02*
X85040000Y-157460000D01*
%TO.N,Net-(U$1-PadD49)*%
X148588500Y-151130000D02*
X149860000Y-151130000D01*
X138628500Y-141170000D02*
X148588500Y-151130000D01*
%TO.N,Net-(U$1-PadD22)*%
X79960000Y-157460000D02*
X79990000Y-157460000D01*
X104162300Y-137183800D02*
X105608500Y-138630000D01*
X79990000Y-157460000D02*
X80010000Y-157480000D01*
X100236200Y-137183800D02*
X104162300Y-137183800D01*
X79960000Y-157460000D02*
X100236200Y-137183800D01*
%TO.N,Net-(U$1-PadD23)*%
X99436200Y-142616200D02*
X104162300Y-142616200D01*
X104162300Y-142616200D02*
X105608500Y-141170000D01*
X82500000Y-157460000D02*
X82500000Y-156260000D01*
X97790000Y-140970000D02*
X99436200Y-142616200D01*
X82500000Y-156260000D02*
X97790000Y-140970000D01*
%TO.N,Net-(X1B-KL)*%
X76200000Y-153670000D02*
X101600000Y-128270000D01*
X101600000Y-87630000D02*
X101998500Y-87630000D01*
X101998500Y-87630000D02*
X103068500Y-86560000D01*
X101600000Y-128270000D02*
X101600000Y-87630000D01*
X72390000Y-153670000D02*
X76200000Y-153670000D01*
%TO.N,Net-(U$1-PadD27)*%
X83946200Y-161446200D02*
X90412300Y-161446200D01*
X82500000Y-160000000D02*
X83946200Y-161446200D01*
X90412300Y-161446200D02*
X110688500Y-141170000D01*
%TO.N,Net-(U1-RXI)*%
X134994700Y-73683800D02*
X170203800Y-73683800D01*
X170203800Y-73683800D02*
X176530000Y-80010000D01*
X103068500Y-105610000D02*
X134994700Y-73683800D01*
%TO.N,Net-(U1-13)*%
X180340000Y-82550000D02*
X180340000Y-86360000D01*
X180340000Y-86360000D02*
X191770000Y-97790000D01*
X179070000Y-81280000D02*
X180340000Y-82550000D01*
X163830000Y-53340000D02*
X179070000Y-68580000D01*
X179070000Y-68580000D02*
X179070000Y-81280000D01*
%TO.N,Net-(U1-12)*%
X193216200Y-75106200D02*
X163830000Y-45720000D01*
X191770000Y-100330000D02*
X193216200Y-98883800D01*
X193216200Y-98883800D02*
X193216200Y-75106200D01*
%TD*%
M02*
