%TF.GenerationSoftware,KiCad,Pcbnew,9.0.2*%
%TF.CreationDate,2025-06-15T15:12:45-06:00*%
%TF.ProjectId,Logic board magnetic sensor,4c6f6769-6320-4626-9f61-7264206d6167,rev?*%
%TF.SameCoordinates,Original*%
%TF.FileFunction,Soldermask,Top*%
%TF.FilePolarity,Negative*%
%FSLAX46Y46*%
G04 Gerber Fmt 4.6, Leading zero omitted, Abs format (unit mm)*
G04 Created by KiCad (PCBNEW 9.0.2) date 2025-06-15 15:12:45*
%MOMM*%
%LPD*%
G01*
G04 APERTURE LIST*
G04 Aperture macros list*
%AMRoundRect*
0 Rectangle with rounded corners*
0 $1 Rounding radius*
0 $2 $3 $4 $5 $6 $7 $8 $9 X,Y pos of 4 corners*
0 Add a 4 corners polygon primitive as box body*
4,1,4,$2,$3,$4,$5,$6,$7,$8,$9,$2,$3,0*
0 Add four circle primitives for the rounded corners*
1,1,$1+$1,$2,$3*
1,1,$1+$1,$4,$5*
1,1,$1+$1,$6,$7*
1,1,$1+$1,$8,$9*
0 Add four rect primitives between the rounded corners*
20,1,$1+$1,$2,$3,$4,$5,0*
20,1,$1+$1,$4,$5,$6,$7,0*
20,1,$1+$1,$6,$7,$8,$9,0*
20,1,$1+$1,$8,$9,$2,$3,0*%
G04 Aperture macros list end*
%ADD10C,1.500000*%
%ADD11RoundRect,0.250000X0.600000X-0.600000X0.600000X0.600000X-0.600000X0.600000X-0.600000X-0.600000X0*%
%ADD12C,1.700000*%
%ADD13C,3.200000*%
G04 APERTURE END LIST*
D10*
%TO.C,U12*%
X154905000Y-102250000D03*
X153000000Y-102250000D03*
X151095000Y-102250000D03*
%TD*%
%TO.C,U11*%
X139905000Y-102250000D03*
X138000000Y-102250000D03*
X136095000Y-102250000D03*
%TD*%
%TO.C,U10*%
X124905000Y-102250000D03*
X123000000Y-102250000D03*
X121095000Y-102250000D03*
%TD*%
%TO.C,U9*%
X151095000Y-83250000D03*
X153000000Y-83250000D03*
X154905000Y-83250000D03*
%TD*%
%TO.C,U8*%
X136095000Y-83250000D03*
X138000000Y-83250000D03*
X139905000Y-83250000D03*
%TD*%
%TO.C,U7*%
X121095000Y-83250000D03*
X123000000Y-83250000D03*
X124905000Y-83250000D03*
%TD*%
D11*
%TO.C,J2*%
X145620000Y-71270000D03*
D12*
X145620000Y-68730000D03*
X143080000Y-71270000D03*
X143080000Y-68730000D03*
X140540000Y-71270000D03*
X140540000Y-68730000D03*
X138000000Y-71270000D03*
X138000000Y-68730000D03*
X135460000Y-71270000D03*
X135460000Y-68730000D03*
X132920000Y-71270000D03*
X132920000Y-68730000D03*
X130380000Y-71270000D03*
X130380000Y-68730000D03*
%TD*%
D13*
%TO.C,H4*%
X123000000Y-93000000D03*
%TD*%
%TO.C,H3*%
X153000000Y-93000000D03*
%TD*%
D10*
%TO.C,U2*%
X136095000Y-37750000D03*
X138000000Y-37750000D03*
X139905000Y-37750000D03*
%TD*%
%TO.C,U6*%
X154905000Y-56750000D03*
X153000000Y-56750000D03*
X151095000Y-56750000D03*
%TD*%
%TO.C,U4*%
X124905000Y-56750000D03*
X123000000Y-56750000D03*
X121095000Y-56750000D03*
%TD*%
%TO.C,U5*%
X139905000Y-56750000D03*
X138000000Y-56750000D03*
X136095000Y-56750000D03*
%TD*%
%TO.C,U1*%
X121095000Y-37750000D03*
X123000000Y-37750000D03*
X124905000Y-37750000D03*
%TD*%
%TO.C,U3*%
X151095000Y-37750000D03*
X153000000Y-37750000D03*
X154905000Y-37750000D03*
%TD*%
D13*
%TO.C,H2*%
X153000000Y-47000000D03*
%TD*%
%TO.C,H1*%
X123000000Y-47000000D03*
%TD*%
M02*
