%TF.GenerationSoftware,KiCad,Pcbnew,9.0.2*%
%TF.CreationDate,2025-06-15T15:12:45-06:00*%
%TF.ProjectId,Logic board magnetic sensor,4c6f6769-6320-4626-9f61-7264206d6167,rev?*%
%TF.SameCoordinates,Original*%
%TF.FileFunction,Legend,Bot*%
%TF.FilePolarity,Positive*%
%FSLAX46Y46*%
G04 Gerber Fmt 4.6, Leading zero omitted, Abs format (unit mm)*
G04 Created by KiCad (PCBNEW 9.0.2) date 2025-06-15 15:12:45*
%MOMM*%
%LPD*%
G01*
G04 APERTURE LIST*
%ADD10C,0.300000*%
%ADD11C,0.150000*%
%ADD12C,0.120000*%
G04 APERTURE END LIST*
D10*
X145659774Y-45806563D02*
X146255012Y-45806563D01*
X146255012Y-45806563D02*
X146255012Y-44556563D01*
X145064536Y-45806563D02*
X145183584Y-45747040D01*
X145183584Y-45747040D02*
X145243107Y-45687516D01*
X145243107Y-45687516D02*
X145302631Y-45568468D01*
X145302631Y-45568468D02*
X145302631Y-45211325D01*
X145302631Y-45211325D02*
X145243107Y-45092278D01*
X145243107Y-45092278D02*
X145183584Y-45032754D01*
X145183584Y-45032754D02*
X145064536Y-44973230D01*
X145064536Y-44973230D02*
X144885965Y-44973230D01*
X144885965Y-44973230D02*
X144766917Y-45032754D01*
X144766917Y-45032754D02*
X144707393Y-45092278D01*
X144707393Y-45092278D02*
X144647869Y-45211325D01*
X144647869Y-45211325D02*
X144647869Y-45568468D01*
X144647869Y-45568468D02*
X144707393Y-45687516D01*
X144707393Y-45687516D02*
X144766917Y-45747040D01*
X144766917Y-45747040D02*
X144885965Y-45806563D01*
X144885965Y-45806563D02*
X145064536Y-45806563D01*
X143576441Y-44973230D02*
X143576441Y-45985135D01*
X143576441Y-45985135D02*
X143635965Y-46104182D01*
X143635965Y-46104182D02*
X143695489Y-46163706D01*
X143695489Y-46163706D02*
X143814536Y-46223230D01*
X143814536Y-46223230D02*
X143993108Y-46223230D01*
X143993108Y-46223230D02*
X144112155Y-46163706D01*
X143576441Y-45747040D02*
X143695489Y-45806563D01*
X143695489Y-45806563D02*
X143933584Y-45806563D01*
X143933584Y-45806563D02*
X144052632Y-45747040D01*
X144052632Y-45747040D02*
X144112155Y-45687516D01*
X144112155Y-45687516D02*
X144171679Y-45568468D01*
X144171679Y-45568468D02*
X144171679Y-45211325D01*
X144171679Y-45211325D02*
X144112155Y-45092278D01*
X144112155Y-45092278D02*
X144052632Y-45032754D01*
X144052632Y-45032754D02*
X143933584Y-44973230D01*
X143933584Y-44973230D02*
X143695489Y-44973230D01*
X143695489Y-44973230D02*
X143576441Y-45032754D01*
X142981203Y-45806563D02*
X142981203Y-44973230D01*
X142981203Y-44556563D02*
X143040727Y-44616087D01*
X143040727Y-44616087D02*
X142981203Y-44675611D01*
X142981203Y-44675611D02*
X142921680Y-44616087D01*
X142921680Y-44616087D02*
X142981203Y-44556563D01*
X142981203Y-44556563D02*
X142981203Y-44675611D01*
X141850251Y-45747040D02*
X141969299Y-45806563D01*
X141969299Y-45806563D02*
X142207394Y-45806563D01*
X142207394Y-45806563D02*
X142326442Y-45747040D01*
X142326442Y-45747040D02*
X142385965Y-45687516D01*
X142385965Y-45687516D02*
X142445489Y-45568468D01*
X142445489Y-45568468D02*
X142445489Y-45211325D01*
X142445489Y-45211325D02*
X142385965Y-45092278D01*
X142385965Y-45092278D02*
X142326442Y-45032754D01*
X142326442Y-45032754D02*
X142207394Y-44973230D01*
X142207394Y-44973230D02*
X141969299Y-44973230D01*
X141969299Y-44973230D02*
X141850251Y-45032754D01*
X139647870Y-45687516D02*
X139707394Y-45747040D01*
X139707394Y-45747040D02*
X139885965Y-45806563D01*
X139885965Y-45806563D02*
X140005013Y-45806563D01*
X140005013Y-45806563D02*
X140183584Y-45747040D01*
X140183584Y-45747040D02*
X140302632Y-45627992D01*
X140302632Y-45627992D02*
X140362155Y-45508944D01*
X140362155Y-45508944D02*
X140421679Y-45270849D01*
X140421679Y-45270849D02*
X140421679Y-45092278D01*
X140421679Y-45092278D02*
X140362155Y-44854182D01*
X140362155Y-44854182D02*
X140302632Y-44735135D01*
X140302632Y-44735135D02*
X140183584Y-44616087D01*
X140183584Y-44616087D02*
X140005013Y-44556563D01*
X140005013Y-44556563D02*
X139885965Y-44556563D01*
X139885965Y-44556563D02*
X139707394Y-44616087D01*
X139707394Y-44616087D02*
X139647870Y-44675611D01*
X138576441Y-45806563D02*
X138576441Y-45151801D01*
X138576441Y-45151801D02*
X138635965Y-45032754D01*
X138635965Y-45032754D02*
X138755013Y-44973230D01*
X138755013Y-44973230D02*
X138993108Y-44973230D01*
X138993108Y-44973230D02*
X139112155Y-45032754D01*
X138576441Y-45747040D02*
X138695489Y-45806563D01*
X138695489Y-45806563D02*
X138993108Y-45806563D01*
X138993108Y-45806563D02*
X139112155Y-45747040D01*
X139112155Y-45747040D02*
X139171679Y-45627992D01*
X139171679Y-45627992D02*
X139171679Y-45508944D01*
X139171679Y-45508944D02*
X139112155Y-45389897D01*
X139112155Y-45389897D02*
X138993108Y-45330373D01*
X138993108Y-45330373D02*
X138695489Y-45330373D01*
X138695489Y-45330373D02*
X138576441Y-45270849D01*
X137981203Y-45806563D02*
X137981203Y-44973230D01*
X137981203Y-45211325D02*
X137921680Y-45092278D01*
X137921680Y-45092278D02*
X137862156Y-45032754D01*
X137862156Y-45032754D02*
X137743108Y-44973230D01*
X137743108Y-44973230D02*
X137624061Y-44973230D01*
X136671679Y-45806563D02*
X136671679Y-44556563D01*
X136671679Y-45747040D02*
X136790727Y-45806563D01*
X136790727Y-45806563D02*
X137028822Y-45806563D01*
X137028822Y-45806563D02*
X137147870Y-45747040D01*
X137147870Y-45747040D02*
X137207393Y-45687516D01*
X137207393Y-45687516D02*
X137266917Y-45568468D01*
X137266917Y-45568468D02*
X137266917Y-45211325D01*
X137266917Y-45211325D02*
X137207393Y-45092278D01*
X137207393Y-45092278D02*
X137147870Y-45032754D01*
X137147870Y-45032754D02*
X137028822Y-44973230D01*
X137028822Y-44973230D02*
X136790727Y-44973230D01*
X136790727Y-44973230D02*
X136671679Y-45032754D01*
X134409775Y-45806563D02*
X134826441Y-45211325D01*
X135124060Y-45806563D02*
X135124060Y-44556563D01*
X135124060Y-44556563D02*
X134647870Y-44556563D01*
X134647870Y-44556563D02*
X134528822Y-44616087D01*
X134528822Y-44616087D02*
X134469299Y-44675611D01*
X134469299Y-44675611D02*
X134409775Y-44794659D01*
X134409775Y-44794659D02*
X134409775Y-44973230D01*
X134409775Y-44973230D02*
X134469299Y-45092278D01*
X134469299Y-45092278D02*
X134528822Y-45151801D01*
X134528822Y-45151801D02*
X134647870Y-45211325D01*
X134647870Y-45211325D02*
X135124060Y-45211325D01*
X133397870Y-45747040D02*
X133516918Y-45806563D01*
X133516918Y-45806563D02*
X133755013Y-45806563D01*
X133755013Y-45806563D02*
X133874060Y-45747040D01*
X133874060Y-45747040D02*
X133933584Y-45627992D01*
X133933584Y-45627992D02*
X133933584Y-45151801D01*
X133933584Y-45151801D02*
X133874060Y-45032754D01*
X133874060Y-45032754D02*
X133755013Y-44973230D01*
X133755013Y-44973230D02*
X133516918Y-44973230D01*
X133516918Y-44973230D02*
X133397870Y-45032754D01*
X133397870Y-45032754D02*
X133338346Y-45151801D01*
X133338346Y-45151801D02*
X133338346Y-45270849D01*
X133338346Y-45270849D02*
X133933584Y-45389897D01*
X132266917Y-45806563D02*
X132266917Y-45151801D01*
X132266917Y-45151801D02*
X132326441Y-45032754D01*
X132326441Y-45032754D02*
X132445489Y-44973230D01*
X132445489Y-44973230D02*
X132683584Y-44973230D01*
X132683584Y-44973230D02*
X132802631Y-45032754D01*
X132266917Y-45747040D02*
X132385965Y-45806563D01*
X132385965Y-45806563D02*
X132683584Y-45806563D01*
X132683584Y-45806563D02*
X132802631Y-45747040D01*
X132802631Y-45747040D02*
X132862155Y-45627992D01*
X132862155Y-45627992D02*
X132862155Y-45508944D01*
X132862155Y-45508944D02*
X132802631Y-45389897D01*
X132802631Y-45389897D02*
X132683584Y-45330373D01*
X132683584Y-45330373D02*
X132385965Y-45330373D01*
X132385965Y-45330373D02*
X132266917Y-45270849D01*
X131135965Y-45806563D02*
X131135965Y-44556563D01*
X131135965Y-45747040D02*
X131255013Y-45806563D01*
X131255013Y-45806563D02*
X131493108Y-45806563D01*
X131493108Y-45806563D02*
X131612156Y-45747040D01*
X131612156Y-45747040D02*
X131671679Y-45687516D01*
X131671679Y-45687516D02*
X131731203Y-45568468D01*
X131731203Y-45568468D02*
X131731203Y-45211325D01*
X131731203Y-45211325D02*
X131671679Y-45092278D01*
X131671679Y-45092278D02*
X131612156Y-45032754D01*
X131612156Y-45032754D02*
X131493108Y-44973230D01*
X131493108Y-44973230D02*
X131255013Y-44973230D01*
X131255013Y-44973230D02*
X131135965Y-45032754D01*
X130064537Y-45747040D02*
X130183585Y-45806563D01*
X130183585Y-45806563D02*
X130421680Y-45806563D01*
X130421680Y-45806563D02*
X130540727Y-45747040D01*
X130540727Y-45747040D02*
X130600251Y-45627992D01*
X130600251Y-45627992D02*
X130600251Y-45151801D01*
X130600251Y-45151801D02*
X130540727Y-45032754D01*
X130540727Y-45032754D02*
X130421680Y-44973230D01*
X130421680Y-44973230D02*
X130183585Y-44973230D01*
X130183585Y-44973230D02*
X130064537Y-45032754D01*
X130064537Y-45032754D02*
X130005013Y-45151801D01*
X130005013Y-45151801D02*
X130005013Y-45270849D01*
X130005013Y-45270849D02*
X130600251Y-45389897D01*
X129469298Y-45806563D02*
X129469298Y-44973230D01*
X129469298Y-45211325D02*
X129409775Y-45092278D01*
X129409775Y-45092278D02*
X129350251Y-45032754D01*
X129350251Y-45032754D02*
X129231203Y-44973230D01*
X129231203Y-44973230D02*
X129112156Y-44973230D01*
X145540727Y-47699946D02*
X145600251Y-47759470D01*
X145600251Y-47759470D02*
X145778822Y-47818993D01*
X145778822Y-47818993D02*
X145897870Y-47818993D01*
X145897870Y-47818993D02*
X146076441Y-47759470D01*
X146076441Y-47759470D02*
X146195489Y-47640422D01*
X146195489Y-47640422D02*
X146255012Y-47521374D01*
X146255012Y-47521374D02*
X146314536Y-47283279D01*
X146314536Y-47283279D02*
X146314536Y-47104708D01*
X146314536Y-47104708D02*
X146255012Y-46866612D01*
X146255012Y-46866612D02*
X146195489Y-46747565D01*
X146195489Y-46747565D02*
X146076441Y-46628517D01*
X146076441Y-46628517D02*
X145897870Y-46568993D01*
X145897870Y-46568993D02*
X145778822Y-46568993D01*
X145778822Y-46568993D02*
X145600251Y-46628517D01*
X145600251Y-46628517D02*
X145540727Y-46688041D01*
X145005012Y-47818993D02*
X145005012Y-46568993D01*
X145005012Y-46568993D02*
X144588346Y-47461850D01*
X144588346Y-47461850D02*
X144171679Y-46568993D01*
X144171679Y-46568993D02*
X144171679Y-47818993D01*
X143635965Y-47759470D02*
X143457394Y-47818993D01*
X143457394Y-47818993D02*
X143159775Y-47818993D01*
X143159775Y-47818993D02*
X143040727Y-47759470D01*
X143040727Y-47759470D02*
X142981203Y-47699946D01*
X142981203Y-47699946D02*
X142921680Y-47580898D01*
X142921680Y-47580898D02*
X142921680Y-47461850D01*
X142921680Y-47461850D02*
X142981203Y-47342803D01*
X142981203Y-47342803D02*
X143040727Y-47283279D01*
X143040727Y-47283279D02*
X143159775Y-47223755D01*
X143159775Y-47223755D02*
X143397870Y-47164231D01*
X143397870Y-47164231D02*
X143516918Y-47104708D01*
X143516918Y-47104708D02*
X143576441Y-47045184D01*
X143576441Y-47045184D02*
X143635965Y-46926136D01*
X143635965Y-46926136D02*
X143635965Y-46807089D01*
X143635965Y-46807089D02*
X143576441Y-46688041D01*
X143576441Y-46688041D02*
X143516918Y-46628517D01*
X143516918Y-46628517D02*
X143397870Y-46568993D01*
X143397870Y-46568993D02*
X143100251Y-46568993D01*
X143100251Y-46568993D02*
X142921680Y-46628517D01*
X141671680Y-47699946D02*
X141731204Y-47759470D01*
X141731204Y-47759470D02*
X141909775Y-47818993D01*
X141909775Y-47818993D02*
X142028823Y-47818993D01*
X142028823Y-47818993D02*
X142207394Y-47759470D01*
X142207394Y-47759470D02*
X142326442Y-47640422D01*
X142326442Y-47640422D02*
X142385965Y-47521374D01*
X142385965Y-47521374D02*
X142445489Y-47283279D01*
X142445489Y-47283279D02*
X142445489Y-47104708D01*
X142445489Y-47104708D02*
X142385965Y-46866612D01*
X142385965Y-46866612D02*
X142326442Y-46747565D01*
X142326442Y-46747565D02*
X142207394Y-46628517D01*
X142207394Y-46628517D02*
X142028823Y-46568993D01*
X142028823Y-46568993D02*
X141909775Y-46568993D01*
X141909775Y-46568993D02*
X141731204Y-46628517D01*
X141731204Y-46628517D02*
X141671680Y-46688041D01*
X140183584Y-47818993D02*
X140183584Y-46568993D01*
X140183584Y-46568993D02*
X139469299Y-47818993D01*
X139469299Y-47818993D02*
X139469299Y-46568993D01*
X138338346Y-47818993D02*
X138338346Y-47164231D01*
X138338346Y-47164231D02*
X138397870Y-47045184D01*
X138397870Y-47045184D02*
X138516918Y-46985660D01*
X138516918Y-46985660D02*
X138755013Y-46985660D01*
X138755013Y-46985660D02*
X138874060Y-47045184D01*
X138338346Y-47759470D02*
X138457394Y-47818993D01*
X138457394Y-47818993D02*
X138755013Y-47818993D01*
X138755013Y-47818993D02*
X138874060Y-47759470D01*
X138874060Y-47759470D02*
X138933584Y-47640422D01*
X138933584Y-47640422D02*
X138933584Y-47521374D01*
X138933584Y-47521374D02*
X138874060Y-47402327D01*
X138874060Y-47402327D02*
X138755013Y-47342803D01*
X138755013Y-47342803D02*
X138457394Y-47342803D01*
X138457394Y-47342803D02*
X138338346Y-47283279D01*
X137921680Y-46985660D02*
X137445489Y-46985660D01*
X137743108Y-46568993D02*
X137743108Y-47640422D01*
X137743108Y-47640422D02*
X137683585Y-47759470D01*
X137683585Y-47759470D02*
X137564537Y-47818993D01*
X137564537Y-47818993D02*
X137445489Y-47818993D01*
X137028822Y-47818993D02*
X137028822Y-46568993D01*
X136493108Y-47818993D02*
X136493108Y-47164231D01*
X136493108Y-47164231D02*
X136552632Y-47045184D01*
X136552632Y-47045184D02*
X136671680Y-46985660D01*
X136671680Y-46985660D02*
X136850251Y-46985660D01*
X136850251Y-46985660D02*
X136969299Y-47045184D01*
X136969299Y-47045184D02*
X137028822Y-47104708D01*
X135362156Y-47818993D02*
X135362156Y-47164231D01*
X135362156Y-47164231D02*
X135421680Y-47045184D01*
X135421680Y-47045184D02*
X135540728Y-46985660D01*
X135540728Y-46985660D02*
X135778823Y-46985660D01*
X135778823Y-46985660D02*
X135897870Y-47045184D01*
X135362156Y-47759470D02*
X135481204Y-47818993D01*
X135481204Y-47818993D02*
X135778823Y-47818993D01*
X135778823Y-47818993D02*
X135897870Y-47759470D01*
X135897870Y-47759470D02*
X135957394Y-47640422D01*
X135957394Y-47640422D02*
X135957394Y-47521374D01*
X135957394Y-47521374D02*
X135897870Y-47402327D01*
X135897870Y-47402327D02*
X135778823Y-47342803D01*
X135778823Y-47342803D02*
X135481204Y-47342803D01*
X135481204Y-47342803D02*
X135362156Y-47283279D01*
X134766918Y-46985660D02*
X134766918Y-47818993D01*
X134766918Y-47104708D02*
X134707395Y-47045184D01*
X134707395Y-47045184D02*
X134588347Y-46985660D01*
X134588347Y-46985660D02*
X134409776Y-46985660D01*
X134409776Y-46985660D02*
X134290728Y-47045184D01*
X134290728Y-47045184D02*
X134231204Y-47164231D01*
X134231204Y-47164231D02*
X134231204Y-47818993D01*
X132266919Y-47164231D02*
X132683585Y-47164231D01*
X132683585Y-47818993D02*
X132683585Y-46568993D01*
X132683585Y-46568993D02*
X132088347Y-46568993D01*
X131433585Y-47818993D02*
X131552633Y-47759470D01*
X131552633Y-47759470D02*
X131612156Y-47699946D01*
X131612156Y-47699946D02*
X131671680Y-47580898D01*
X131671680Y-47580898D02*
X131671680Y-47223755D01*
X131671680Y-47223755D02*
X131612156Y-47104708D01*
X131612156Y-47104708D02*
X131552633Y-47045184D01*
X131552633Y-47045184D02*
X131433585Y-46985660D01*
X131433585Y-46985660D02*
X131255014Y-46985660D01*
X131255014Y-46985660D02*
X131135966Y-47045184D01*
X131135966Y-47045184D02*
X131076442Y-47104708D01*
X131076442Y-47104708D02*
X131016918Y-47223755D01*
X131016918Y-47223755D02*
X131016918Y-47580898D01*
X131016918Y-47580898D02*
X131076442Y-47699946D01*
X131076442Y-47699946D02*
X131135966Y-47759470D01*
X131135966Y-47759470D02*
X131255014Y-47818993D01*
X131255014Y-47818993D02*
X131433585Y-47818993D01*
X130481204Y-47818993D02*
X130481204Y-46985660D01*
X130481204Y-47223755D02*
X130421681Y-47104708D01*
X130421681Y-47104708D02*
X130362157Y-47045184D01*
X130362157Y-47045184D02*
X130243109Y-46985660D01*
X130243109Y-46985660D02*
X130124062Y-46985660D01*
X129171680Y-47818993D02*
X129171680Y-46568993D01*
X129171680Y-47759470D02*
X129290728Y-47818993D01*
X129290728Y-47818993D02*
X129528823Y-47818993D01*
X129528823Y-47818993D02*
X129647871Y-47759470D01*
X129647871Y-47759470D02*
X129707394Y-47699946D01*
X129707394Y-47699946D02*
X129766918Y-47580898D01*
X129766918Y-47580898D02*
X129766918Y-47223755D01*
X129766918Y-47223755D02*
X129707394Y-47104708D01*
X129707394Y-47104708D02*
X129647871Y-47045184D01*
X129647871Y-47045184D02*
X129528823Y-46985660D01*
X129528823Y-46985660D02*
X129290728Y-46985660D01*
X129290728Y-46985660D02*
X129171680Y-47045184D01*
X146314536Y-48700471D02*
X146255012Y-48640947D01*
X146255012Y-48640947D02*
X146135965Y-48581423D01*
X146135965Y-48581423D02*
X145838346Y-48581423D01*
X145838346Y-48581423D02*
X145719298Y-48640947D01*
X145719298Y-48640947D02*
X145659774Y-48700471D01*
X145659774Y-48700471D02*
X145600251Y-48819519D01*
X145600251Y-48819519D02*
X145600251Y-48938566D01*
X145600251Y-48938566D02*
X145659774Y-49117138D01*
X145659774Y-49117138D02*
X146374060Y-49831423D01*
X146374060Y-49831423D02*
X145600251Y-49831423D01*
X144826441Y-48581423D02*
X144707394Y-48581423D01*
X144707394Y-48581423D02*
X144588346Y-48640947D01*
X144588346Y-48640947D02*
X144528822Y-48700471D01*
X144528822Y-48700471D02*
X144469298Y-48819519D01*
X144469298Y-48819519D02*
X144409775Y-49057614D01*
X144409775Y-49057614D02*
X144409775Y-49355233D01*
X144409775Y-49355233D02*
X144469298Y-49593328D01*
X144469298Y-49593328D02*
X144528822Y-49712376D01*
X144528822Y-49712376D02*
X144588346Y-49771900D01*
X144588346Y-49771900D02*
X144707394Y-49831423D01*
X144707394Y-49831423D02*
X144826441Y-49831423D01*
X144826441Y-49831423D02*
X144945489Y-49771900D01*
X144945489Y-49771900D02*
X145005013Y-49712376D01*
X145005013Y-49712376D02*
X145064536Y-49593328D01*
X145064536Y-49593328D02*
X145124060Y-49355233D01*
X145124060Y-49355233D02*
X145124060Y-49057614D01*
X145124060Y-49057614D02*
X145064536Y-48819519D01*
X145064536Y-48819519D02*
X145005013Y-48700471D01*
X145005013Y-48700471D02*
X144945489Y-48640947D01*
X144945489Y-48640947D02*
X144826441Y-48581423D01*
X143933584Y-48700471D02*
X143874060Y-48640947D01*
X143874060Y-48640947D02*
X143755013Y-48581423D01*
X143755013Y-48581423D02*
X143457394Y-48581423D01*
X143457394Y-48581423D02*
X143338346Y-48640947D01*
X143338346Y-48640947D02*
X143278822Y-48700471D01*
X143278822Y-48700471D02*
X143219299Y-48819519D01*
X143219299Y-48819519D02*
X143219299Y-48938566D01*
X143219299Y-48938566D02*
X143278822Y-49117138D01*
X143278822Y-49117138D02*
X143993108Y-49831423D01*
X143993108Y-49831423D02*
X143219299Y-49831423D01*
X142088346Y-48581423D02*
X142683584Y-48581423D01*
X142683584Y-48581423D02*
X142743108Y-49176661D01*
X142743108Y-49176661D02*
X142683584Y-49117138D01*
X142683584Y-49117138D02*
X142564537Y-49057614D01*
X142564537Y-49057614D02*
X142266918Y-49057614D01*
X142266918Y-49057614D02*
X142147870Y-49117138D01*
X142147870Y-49117138D02*
X142088346Y-49176661D01*
X142088346Y-49176661D02*
X142028823Y-49295709D01*
X142028823Y-49295709D02*
X142028823Y-49593328D01*
X142028823Y-49593328D02*
X142088346Y-49712376D01*
X142088346Y-49712376D02*
X142147870Y-49771900D01*
X142147870Y-49771900D02*
X142266918Y-49831423D01*
X142266918Y-49831423D02*
X142564537Y-49831423D01*
X142564537Y-49831423D02*
X142683584Y-49771900D01*
X142683584Y-49771900D02*
X142743108Y-49712376D01*
X139826442Y-49831423D02*
X140243108Y-49236185D01*
X140540727Y-49831423D02*
X140540727Y-48581423D01*
X140540727Y-48581423D02*
X140064537Y-48581423D01*
X140064537Y-48581423D02*
X139945489Y-48640947D01*
X139945489Y-48640947D02*
X139885966Y-48700471D01*
X139885966Y-48700471D02*
X139826442Y-48819519D01*
X139826442Y-48819519D02*
X139826442Y-48998090D01*
X139826442Y-48998090D02*
X139885966Y-49117138D01*
X139885966Y-49117138D02*
X139945489Y-49176661D01*
X139945489Y-49176661D02*
X140064537Y-49236185D01*
X140064537Y-49236185D02*
X140540727Y-49236185D01*
X139290727Y-49176661D02*
X138874061Y-49176661D01*
X138695489Y-49831423D02*
X139290727Y-49831423D01*
X139290727Y-49831423D02*
X139290727Y-48581423D01*
X139290727Y-48581423D02*
X138695489Y-48581423D01*
X138338347Y-48581423D02*
X137921680Y-49831423D01*
X137921680Y-49831423D02*
X137505014Y-48581423D01*
X136255013Y-48581423D02*
X135421680Y-49831423D01*
X135421680Y-48581423D02*
X136255013Y-49831423D01*
X134290728Y-49831423D02*
X135005013Y-49831423D01*
X134647870Y-49831423D02*
X134647870Y-48581423D01*
X134647870Y-48581423D02*
X134766918Y-48759995D01*
X134766918Y-48759995D02*
X134885966Y-48879042D01*
X134885966Y-48879042D02*
X135005013Y-48938566D01*
D11*
X151174819Y-69666666D02*
X151889104Y-69666666D01*
X151889104Y-69666666D02*
X152031961Y-69619047D01*
X152031961Y-69619047D02*
X152127200Y-69523809D01*
X152127200Y-69523809D02*
X152174819Y-69380952D01*
X152174819Y-69380952D02*
X152174819Y-69285714D01*
X151270057Y-70095238D02*
X151222438Y-70142857D01*
X151222438Y-70142857D02*
X151174819Y-70238095D01*
X151174819Y-70238095D02*
X151174819Y-70476190D01*
X151174819Y-70476190D02*
X151222438Y-70571428D01*
X151222438Y-70571428D02*
X151270057Y-70619047D01*
X151270057Y-70619047D02*
X151365295Y-70666666D01*
X151365295Y-70666666D02*
X151460533Y-70666666D01*
X151460533Y-70666666D02*
X151603390Y-70619047D01*
X151603390Y-70619047D02*
X152174819Y-70047619D01*
X152174819Y-70047619D02*
X152174819Y-70666666D01*
D12*
%TO.C,J2*%
X146120000Y-75950000D02*
X145120000Y-75950000D01*
X145120000Y-75950000D02*
X145620000Y-74950000D01*
X145620000Y-74950000D02*
X146120000Y-75950000D01*
X150830000Y-74560000D02*
X150830000Y-65440000D01*
X140050000Y-74560000D02*
X140050000Y-73250000D01*
X125170000Y-74560000D02*
X150830000Y-74560000D01*
X149530000Y-73250000D02*
X149530000Y-66750000D01*
X140050000Y-73250000D02*
X149530000Y-73250000D01*
X135950000Y-73250000D02*
X135950000Y-74560000D01*
X135950000Y-73250000D02*
X135950000Y-73250000D01*
X126470000Y-73250000D02*
X135950000Y-73250000D01*
X149530000Y-66750000D02*
X126470000Y-66750000D01*
X126470000Y-66750000D02*
X126470000Y-73250000D01*
X150830000Y-65440000D02*
X125170000Y-65440000D01*
X125170000Y-65440000D02*
X125170000Y-74560000D01*
%TD*%
M02*
