M48
; DRILL file {KiCad 9.0.2} date 2025-06-15T15:12:49-0600
; FORMAT={-:-/ absolute / metric / decimal}
; #@! TF.CreationDate,2025-06-15T15:12:49-06:00
; #@! TF.GenerationSoftware,Kicad,Pcbnew,9.0.2
; #@! TF.FileFunction,Plated,1,2,PTH
FMAT,2
METRIC
; #@! TA.AperFunction,Plated,PTH,ViaDrill
T1C0.300
; #@! TA.AperFunction,Plated,PTH,ComponentDrill
T2C0.800
; #@! TA.AperFunction,Plated,PTH,ComponentDrill
T3C1.000
%
G90
G05
T1
X121.49Y-43.33
X121.49Y-61.11
X122.76Y-77.62
X122.76Y-95.4
X125.3Y-53.49
X125.3Y-97.94
X126.57Y-49.68
X127.84Y-57.3
X127.84Y-70.0
X127.84Y-80.16
X127.84Y-87.78
X127.84Y-105.56
X130.38Y-34.44
X130.38Y-43.33
X130.38Y-95.4
X131.65Y-49.68
X131.65Y-76.35
X131.65Y-86.51
X135.46Y-63.65
X135.46Y-66.19
X135.46Y-73.81
X135.46Y-80.16
X135.46Y-95.4
X138.0Y-50.95
X138.0Y-61.11
X138.0Y-66.19
X139.27Y-42.06
X139.27Y-77.62
X140.54Y-73.81
X140.54Y-90.32
X141.81Y-50.95
X141.81Y-59.84
X141.81Y-66.19
X143.08Y-95.4
X145.62Y-34.44
X145.62Y-43.33
X145.62Y-53.49
X145.62Y-89.05
X146.0Y-64.0
X146.89Y-62.38
X146.89Y-67.46
X146.89Y-77.62
X148.08Y-71.27
X148.16Y-97.94
X148.16Y-105.56
X149.0Y-68.0
X149.43Y-45.87
X149.43Y-52.22
X149.43Y-58.57
X151.97Y-64.92
X153.24Y-76.35
X153.24Y-85.24
X153.24Y-95.4
X154.51Y-39.52
X154.51Y-52.22
X154.51Y-72.54
T2
X121.095Y-37.75
X121.095Y-56.75
X121.095Y-83.25
X121.095Y-102.25
X123.0Y-37.75
X123.0Y-56.75
X123.0Y-83.25
X123.0Y-102.25
X124.905Y-37.75
X124.905Y-56.75
X124.905Y-83.25
X124.905Y-102.25
X136.095Y-37.75
X136.095Y-56.75
X136.095Y-83.25
X136.095Y-102.25
X138.0Y-37.75
X138.0Y-56.75
X138.0Y-83.25
X138.0Y-102.25
X139.905Y-37.75
X139.905Y-56.75
X139.905Y-83.25
X139.905Y-102.25
X151.095Y-37.75
X151.095Y-56.75
X151.095Y-83.25
X151.095Y-102.25
X153.0Y-37.75
X153.0Y-56.75
X153.0Y-83.25
X153.0Y-102.25
X154.905Y-37.75
X154.905Y-56.75
X154.905Y-83.25
X154.905Y-102.25
T3
X130.38Y-68.73
X130.38Y-71.27
X132.92Y-68.73
X132.92Y-71.27
X135.46Y-68.73
X135.46Y-71.27
X138.0Y-68.73
X138.0Y-71.27
X140.54Y-68.73
X140.54Y-71.27
X143.08Y-68.73
X143.08Y-71.27
X145.62Y-68.73
X145.62Y-71.27
M30
