M48
; DRILL file {KiCad 9.0.2} date 2025-06-11T23:47:42-0600
; FORMAT={-:-/ absolute / metric / decimal}
; #@! TF.CreationDate,2025-06-11T23:47:42-06:00
; #@! TF.GenerationSoftware,Kicad,Pcbnew,9.0.2
; #@! TF.FileFunction,Plated,1,2,PTH
FMAT,2
METRIC
; #@! TA.AperFunction,Plated,PTH,ViaDrill
T1C0.300
; #@! TA.AperFunction,Plated,PTH,ComponentDrill
T2C0.800
; #@! TA.AperFunction,Plated,PTH,ComponentDrill
T3C0.900
; #@! TA.AperFunction,Plated,PTH,ComponentDrill
T4C1.000
; #@! TA.AperFunction,Plated,PTH,ComponentDrill
T5C1.050
%
G90
G05
T1
X114.25Y-147.25
X114.5Y-118.0
X115.25Y-133.75
X116.0Y-121.25
X116.5Y-125.75
X116.5Y-141.25
X116.75Y-123.5
X117.0Y-145.5
X117.25Y-127.25
X118.4Y-127.2
X119.0Y-125.75
X121.75Y-126.0
X123.5Y-145.0
X124.0Y-125.0
X124.0Y-125.8
X124.7Y-124.6
X124.8Y-126.9
X125.0Y-145.4
X125.2Y-119.4
X126.5Y-134.0
X126.8Y-145.4
X127.1Y-130.9
X128.0Y-131.8
X128.5Y-145.0
X129.0Y-132.8
X129.25Y-135.75
X129.975Y-128.725
X130.0Y-145.25
X130.3Y-117.9
X130.925Y-128.675
X131.0Y-121.5
X132.0Y-145.25
X132.3Y-128.3
X133.75Y-137.5
X134.0Y-144.5
X136.5Y-133.5
X138.5Y-139.0
X138.5Y-140.0
X139.75Y-138.75
X139.75Y-140.25
X140.0Y-121.5
X141.0Y-133.5
X141.0Y-139.0
X141.0Y-140.0
X143.0Y-140.4
X143.5Y-138.5
X144.5Y-140.0
X145.0Y-127.9
X145.0Y-138.75
X145.5Y-132.5
X146.2Y-140.6
X147.5Y-138.75
X148.0Y-118.0
X149.0Y-140.4
X149.5Y-138.75
X151.2Y-130.6
X154.0Y-141.5
X155.2Y-140.4
X155.2Y-143.0
X156.0Y-120.75
X156.0Y-141.5
X156.6Y-140.4
X158.2Y-127.2
X159.4Y-138.5
X159.4Y-144.8
X159.6Y-141.5
X159.6Y-143.0
X159.75Y-136.0
X160.003Y-139.259
X160.5Y-133.0
X160.6Y-140.6
X160.6Y-142.2
X160.6Y-143.8
X161.0Y-131.0
X163.4Y-140.8
X163.4Y-143.0
X163.5Y-146.5
X164.0Y-121.85
X164.6Y-140.8
X165.75Y-126.25
X167.6Y-137.4
X168.0Y-136.0
X168.5Y-126.5
X168.5Y-133.0
X168.5Y-137.75
X169.2Y-136.0
X169.2Y-137.0
X169.5Y-118.0
X169.5Y-140.5
T2
X116.5Y-129.19
X116.5Y-136.81
X116.75Y-139.25
X120.0Y-129.19
X120.0Y-136.81
X121.75Y-139.25
X123.5Y-129.19
X123.5Y-136.81
X132.5Y-132.19
X132.5Y-139.81
X136.25Y-139.0
X136.25Y-144.0
X138.625Y-136.705
X138.625Y-144.325
X139.0Y-126.19
X139.0Y-133.81
X141.165Y-136.705
X141.165Y-144.325
X143.0Y-126.19
X143.0Y-133.81
X143.705Y-136.705
X143.705Y-144.325
X146.245Y-136.705
X146.245Y-144.325
X147.0Y-126.19
X147.0Y-133.81
X148.785Y-136.705
X148.785Y-144.325
X151.0Y-126.19
X151.0Y-133.81
X151.325Y-136.705
X151.325Y-144.325
X153.865Y-136.705
X153.865Y-144.325
X155.0Y-126.19
X155.0Y-133.81
X156.405Y-136.705
X156.405Y-144.325
T3
X123.7Y-141.24
X125.478Y-142.764
X127.002Y-141.24
X128.526Y-142.764
T4
X118.88Y-120.5
X118.88Y-123.04
X121.42Y-120.5
X121.42Y-123.04
X123.96Y-120.5
X123.96Y-123.04
X126.5Y-120.5
X126.5Y-123.04
X163.46Y-130.88
X163.46Y-133.42
X163.46Y-135.96
X163.46Y-138.5
X166.0Y-130.88
X166.0Y-133.42
X166.0Y-135.96
X166.0Y-138.5
T5
X136.6Y-119.5
X136.6Y-122.0
X144.725Y-119.5
X144.725Y-122.0
X152.525Y-119.35
X152.525Y-121.85
X160.4Y-119.5
X160.4Y-122.0
X168.125Y-119.5
X168.125Y-122.0
M30
