%TF.GenerationSoftware,KiCad,Pcbnew,9.0.2*%
%TF.CreationDate,2025-06-11T23:47:40-06:00*%
%TF.ProjectId,Isolinear Board PCB,49736f6c-696e-4656-9172-20426f617264,rev?*%
%TF.SameCoordinates,Original*%
%TF.FileFunction,Soldermask,Top*%
%TF.FilePolarity,Negative*%
%FSLAX46Y46*%
G04 Gerber Fmt 4.6, Leading zero omitted, Abs format (unit mm)*
G04 Created by KiCad (PCBNEW 9.0.2) date 2025-06-11 23:47:40*
%MOMM*%
%LPD*%
G01*
G04 APERTURE LIST*
G04 Aperture macros list*
%AMRoundRect*
0 Rectangle with rounded corners*
0 $1 Rounding radius*
0 $2 $3 $4 $5 $6 $7 $8 $9 X,Y pos of 4 corners*
0 Add a 4 corners polygon primitive as box body*
4,1,4,$2,$3,$4,$5,$6,$7,$8,$9,$2,$3,0*
0 Add four circle primitives for the rounded corners*
1,1,$1+$1,$2,$3*
1,1,$1+$1,$4,$5*
1,1,$1+$1,$6,$7*
1,1,$1+$1,$8,$9*
0 Add four rect primitives between the rounded corners*
20,1,$1+$1,$2,$3,$4,$5,0*
20,1,$1+$1,$4,$5,$6,$7,0*
20,1,$1+$1,$6,$7,$8,$9,0*
20,1,$1+$1,$8,$9,$2,$3,0*%
G04 Aperture macros list end*
%ADD10C,1.600000*%
%ADD11O,1.600000X1.600000*%
%ADD12RoundRect,0.450000X-0.450000X-0.450000X0.450000X-0.450000X0.450000X0.450000X-0.450000X0.450000X0*%
%ADD13C,1.800000*%
%ADD14R,1.600000X1.600000*%
%ADD15C,3.200000*%
%ADD16R,1.600000X2.400000*%
%ADD17O,1.600000X2.400000*%
%ADD18C,2.100000*%
%ADD19RoundRect,0.250000X0.600000X0.600000X-0.600000X0.600000X-0.600000X-0.600000X0.600000X-0.600000X0*%
%ADD20C,1.700000*%
%ADD21R,1.750000X1.750000*%
%ADD22C,1.750000*%
%ADD23RoundRect,0.250000X0.600000X-0.600000X0.600000X0.600000X-0.600000X0.600000X-0.600000X-0.600000X0*%
G04 APERTURE END LIST*
D10*
%TO.C,R1*%
X132500000Y-132190000D03*
D11*
X132500000Y-139810000D03*
%TD*%
D12*
%TO.C,D1*%
X123700000Y-141240000D03*
D13*
X125478000Y-142764000D03*
X127002000Y-141240000D03*
X128526000Y-142764000D03*
%TD*%
D10*
%TO.C,R3*%
X120000000Y-129190000D03*
D11*
X120000000Y-136810000D03*
%TD*%
D14*
%TO.C,D6*%
X143000000Y-133810000D03*
D11*
X143000000Y-126190000D03*
%TD*%
D14*
%TO.C,D4*%
X151000000Y-133810000D03*
D11*
X151000000Y-126190000D03*
%TD*%
D14*
%TO.C,D5*%
X155000000Y-133810000D03*
D11*
X155000000Y-126190000D03*
%TD*%
D14*
%TO.C,D2*%
X139000000Y-133810000D03*
D11*
X139000000Y-126190000D03*
%TD*%
D10*
%TO.C,R4*%
X123500000Y-129190000D03*
D11*
X123500000Y-136810000D03*
%TD*%
D15*
%TO.C,H1*%
X168400000Y-146000000D03*
%TD*%
D14*
%TO.C,D3*%
X147000000Y-133810000D03*
D11*
X147000000Y-126190000D03*
%TD*%
D16*
%TO.C,U1*%
X138625000Y-144325000D03*
D17*
X141165000Y-144325000D03*
X143705000Y-144325000D03*
X146245000Y-144325000D03*
X148785000Y-144325000D03*
X151325000Y-144325000D03*
X153865000Y-144325000D03*
X156405000Y-144325000D03*
X156405000Y-136705000D03*
X153865000Y-136705000D03*
X151325000Y-136705000D03*
X148785000Y-136705000D03*
X146245000Y-136705000D03*
X143705000Y-136705000D03*
X141165000Y-136705000D03*
X138625000Y-136705000D03*
%TD*%
D18*
%TO.C,H2*%
X135000000Y-127400000D03*
%TD*%
D10*
%TO.C,R2*%
X116500000Y-129190000D03*
D11*
X116500000Y-136810000D03*
%TD*%
D19*
%TO.C,J7*%
X166000000Y-130880000D03*
D20*
X163460000Y-130880000D03*
X166000000Y-133420000D03*
X163460000Y-133420000D03*
X166000000Y-135960000D03*
X163460000Y-135960000D03*
X166000000Y-138500000D03*
X163460000Y-138500000D03*
%TD*%
D21*
%TO.C,J5*%
X168125000Y-122000000D03*
D22*
X168125000Y-119500000D03*
%TD*%
D10*
%TO.C,C1*%
X121750000Y-139250000D03*
X116750000Y-139250000D03*
%TD*%
%TO.C,C2*%
X136250000Y-139000000D03*
X136250000Y-144000000D03*
%TD*%
D21*
%TO.C,J1*%
X136600000Y-122000000D03*
D22*
X136600000Y-119500000D03*
%TD*%
D23*
%TO.C,J6*%
X126500000Y-123040000D03*
D20*
X126500000Y-120500000D03*
X123960000Y-123040000D03*
X123960000Y-120500000D03*
X121420000Y-123040000D03*
X121420000Y-120500000D03*
X118880000Y-123040000D03*
X118880000Y-120500000D03*
%TD*%
D21*
%TO.C,J2*%
X144725000Y-122000000D03*
D22*
X144725000Y-119500000D03*
%TD*%
D21*
%TO.C,J4*%
X160400000Y-122000000D03*
D22*
X160400000Y-119500000D03*
%TD*%
D21*
%TO.C,J3*%
X152525000Y-121850000D03*
D22*
X152525000Y-119350000D03*
%TD*%
M02*
