%TF.GenerationSoftware,KiCad,Pcbnew,9.0.2*%
%TF.CreationDate,2025-06-11T23:47:40-06:00*%
%TF.ProjectId,Isolinear Board PCB,49736f6c-696e-4656-9172-20426f617264,rev?*%
%TF.SameCoordinates,Original*%
%TF.FileFunction,Copper,L2,Bot*%
%TF.FilePolarity,Positive*%
%FSLAX46Y46*%
G04 Gerber Fmt 4.6, Leading zero omitted, Abs format (unit mm)*
G04 Created by KiCad (PCBNEW 9.0.2) date 2025-06-11 23:47:40*
%MOMM*%
%LPD*%
G01*
G04 APERTURE LIST*
G04 Aperture macros list*
%AMRoundRect*
0 Rectangle with rounded corners*
0 $1 Rounding radius*
0 $2 $3 $4 $5 $6 $7 $8 $9 X,Y pos of 4 corners*
0 Add a 4 corners polygon primitive as box body*
4,1,4,$2,$3,$4,$5,$6,$7,$8,$9,$2,$3,0*
0 Add four circle primitives for the rounded corners*
1,1,$1+$1,$2,$3*
1,1,$1+$1,$4,$5*
1,1,$1+$1,$6,$7*
1,1,$1+$1,$8,$9*
0 Add four rect primitives between the rounded corners*
20,1,$1+$1,$2,$3,$4,$5,0*
20,1,$1+$1,$4,$5,$6,$7,0*
20,1,$1+$1,$6,$7,$8,$9,0*
20,1,$1+$1,$8,$9,$2,$3,0*%
%AMFreePoly0*
4,1,23,0.500000,-0.750000,0.000000,-0.750000,0.000000,-0.745722,-0.065263,-0.745722,-0.191342,-0.711940,-0.304381,-0.646677,-0.396677,-0.554381,-0.461940,-0.441342,-0.495722,-0.315263,-0.495722,-0.250000,-0.500000,-0.250000,-0.500000,0.250000,-0.495722,0.250000,-0.495722,0.315263,-0.461940,0.441342,-0.396677,0.554381,-0.304381,0.646677,-0.191342,0.711940,-0.065263,0.745722,0.000000,0.745722,
0.000000,0.750000,0.500000,0.750000,0.500000,-0.750000,0.500000,-0.750000,$1*%
%AMFreePoly1*
4,1,23,0.000000,0.745722,0.065263,0.745722,0.191342,0.711940,0.304381,0.646677,0.396677,0.554381,0.461940,0.441342,0.495722,0.315263,0.495722,0.250000,0.500000,0.250000,0.500000,-0.250000,0.495722,-0.250000,0.495722,-0.315263,0.461940,-0.441342,0.396677,-0.554381,0.304381,-0.646677,0.191342,-0.711940,0.065263,-0.745722,0.000000,-0.745722,0.000000,-0.750000,-0.500000,-0.750000,
-0.500000,0.750000,0.000000,0.750000,0.000000,0.745722,0.000000,0.745722,$1*%
G04 Aperture macros list end*
%TA.AperFunction,EtchedComponent*%
%ADD10C,0.000000*%
%TD*%
%TA.AperFunction,ComponentPad*%
%ADD11C,1.600000*%
%TD*%
%TA.AperFunction,ComponentPad*%
%ADD12O,1.600000X1.600000*%
%TD*%
%TA.AperFunction,ComponentPad*%
%ADD13RoundRect,0.450000X-0.450000X-0.450000X0.450000X-0.450000X0.450000X0.450000X-0.450000X0.450000X0*%
%TD*%
%TA.AperFunction,ComponentPad*%
%ADD14C,1.800000*%
%TD*%
%TA.AperFunction,ComponentPad*%
%ADD15R,1.600000X1.600000*%
%TD*%
%TA.AperFunction,ComponentPad*%
%ADD16R,1.600000X2.400000*%
%TD*%
%TA.AperFunction,ComponentPad*%
%ADD17O,1.600000X2.400000*%
%TD*%
%TA.AperFunction,ComponentPad*%
%ADD18RoundRect,0.250000X0.600000X0.600000X-0.600000X0.600000X-0.600000X-0.600000X0.600000X-0.600000X0*%
%TD*%
%TA.AperFunction,ComponentPad*%
%ADD19C,1.700000*%
%TD*%
%TA.AperFunction,ComponentPad*%
%ADD20R,1.750000X1.750000*%
%TD*%
%TA.AperFunction,ComponentPad*%
%ADD21C,1.750000*%
%TD*%
%TA.AperFunction,SMDPad,CuDef*%
%ADD22FreePoly0,180.000000*%
%TD*%
%TA.AperFunction,SMDPad,CuDef*%
%ADD23FreePoly1,180.000000*%
%TD*%
%TA.AperFunction,SMDPad,CuDef*%
%ADD24FreePoly0,270.000000*%
%TD*%
%TA.AperFunction,SMDPad,CuDef*%
%ADD25FreePoly1,270.000000*%
%TD*%
%TA.AperFunction,SMDPad,CuDef*%
%ADD26FreePoly0,90.000000*%
%TD*%
%TA.AperFunction,SMDPad,CuDef*%
%ADD27FreePoly1,90.000000*%
%TD*%
%TA.AperFunction,ComponentPad*%
%ADD28RoundRect,0.250000X0.600000X-0.600000X0.600000X0.600000X-0.600000X0.600000X-0.600000X-0.600000X0*%
%TD*%
%TA.AperFunction,SMDPad,CuDef*%
%ADD29FreePoly0,0.000000*%
%TD*%
%TA.AperFunction,SMDPad,CuDef*%
%ADD30FreePoly1,0.000000*%
%TD*%
%TA.AperFunction,ViaPad*%
%ADD31C,0.600000*%
%TD*%
%TA.AperFunction,Conductor*%
%ADD32C,0.200000*%
%TD*%
%TA.AperFunction,Conductor*%
%ADD33C,2.000000*%
%TD*%
%TA.AperFunction,Conductor*%
%ADD34C,1.200000*%
%TD*%
%TA.AperFunction,Conductor*%
%ADD35C,0.400000*%
%TD*%
%TA.AperFunction,Conductor*%
%ADD36C,0.500000*%
%TD*%
G04 APERTURE END LIST*
D10*
%TA.AperFunction,EtchedComponent*%
%TO.C,JP4*%
G36*
X121000000Y-141800000D02*
G01*
X120500000Y-141800000D01*
X120500000Y-141400000D01*
X121000000Y-141400000D01*
X121000000Y-141800000D01*
G37*
%TD.AperFunction*%
%TA.AperFunction,EtchedComponent*%
G36*
X121000000Y-142600000D02*
G01*
X120500000Y-142600000D01*
X120500000Y-142200000D01*
X121000000Y-142200000D01*
X121000000Y-142600000D01*
G37*
%TD.AperFunction*%
%TA.AperFunction,EtchedComponent*%
%TO.C,JP3*%
G36*
X116300000Y-134150000D02*
G01*
X115900000Y-134150000D01*
X115900000Y-133650000D01*
X116300000Y-133650000D01*
X116300000Y-134150000D01*
G37*
%TD.AperFunction*%
%TA.AperFunction,EtchedComponent*%
G36*
X117100000Y-134150000D02*
G01*
X116700000Y-134150000D01*
X116700000Y-133650000D01*
X117100000Y-133650000D01*
X117100000Y-134150000D01*
G37*
%TD.AperFunction*%
%TA.AperFunction,EtchedComponent*%
%TO.C,JP2*%
G36*
X119800000Y-134150000D02*
G01*
X119400000Y-134150000D01*
X119400000Y-133650000D01*
X119800000Y-133650000D01*
X119800000Y-134150000D01*
G37*
%TD.AperFunction*%
%TA.AperFunction,EtchedComponent*%
G36*
X120600000Y-134150000D02*
G01*
X120200000Y-134150000D01*
X120200000Y-133650000D01*
X120600000Y-133650000D01*
X120600000Y-134150000D01*
G37*
%TD.AperFunction*%
%TA.AperFunction,EtchedComponent*%
%TO.C,JP1*%
G36*
X123300000Y-134250000D02*
G01*
X122900000Y-134250000D01*
X122900000Y-133750000D01*
X123300000Y-133750000D01*
X123300000Y-134250000D01*
G37*
%TD.AperFunction*%
%TA.AperFunction,EtchedComponent*%
G36*
X124100000Y-134250000D02*
G01*
X123700000Y-134250000D01*
X123700000Y-133750000D01*
X124100000Y-133750000D01*
X124100000Y-134250000D01*
G37*
%TD.AperFunction*%
%TD*%
D11*
%TO.P,R1,1*%
%TO.N,+3V3*%
X132500000Y-132190000D03*
D12*
%TO.P,R1,2*%
%TO.N,Net-(U1-~{SRCLR})*%
X132500000Y-139810000D03*
%TD*%
D13*
%TO.P,D1,1,DOUT*%
%TO.N,Net-(D1-DOUT)*%
X123700000Y-141240000D03*
D14*
%TO.P,D1,2,GND*%
%TO.N,Net-(D1-GND)*%
X125478000Y-142764000D03*
%TO.P,D1,3,VDD*%
%TO.N,Net-(D1-VDD)*%
X127002000Y-141240000D03*
%TO.P,D1,4,DIN*%
%TO.N,Net-(D1-DIN)*%
X128526000Y-142764000D03*
%TD*%
D11*
%TO.P,R3,1*%
%TO.N,/LED_G*%
X120000000Y-129190000D03*
D12*
%TO.P,R3,2*%
%TO.N,Net-(D1-VDD)*%
X120000000Y-136810000D03*
%TD*%
D15*
%TO.P,D6,1,K*%
%TO.N,/Switch 2*%
X143000000Y-133810000D03*
D12*
%TO.P,D6,2,A*%
%TO.N,Net-(D6-A)*%
X143000000Y-126190000D03*
%TD*%
D15*
%TO.P,D4,1,K*%
%TO.N,/Switch 4*%
X151000000Y-133810000D03*
D12*
%TO.P,D4,2,A*%
%TO.N,Net-(D4-A)*%
X151000000Y-126190000D03*
%TD*%
D15*
%TO.P,D5,1,K*%
%TO.N,/Switch 5*%
X155000000Y-133810000D03*
D12*
%TO.P,D5,2,A*%
%TO.N,Net-(D5-A)*%
X155000000Y-126190000D03*
%TD*%
D15*
%TO.P,D2,1,K*%
%TO.N,/Switch 1*%
X139000000Y-133810000D03*
D12*
%TO.P,D2,2,A*%
%TO.N,Net-(D2-A)*%
X139000000Y-126190000D03*
%TD*%
D11*
%TO.P,R4,1*%
%TO.N,/LED_B*%
X123500000Y-129190000D03*
D12*
%TO.P,R4,2*%
%TO.N,Net-(D1-DIN)*%
X123500000Y-136810000D03*
%TD*%
D15*
%TO.P,D3,1,K*%
%TO.N,/Switch 3*%
X147000000Y-133810000D03*
D12*
%TO.P,D3,2,A*%
%TO.N,Net-(D3-A)*%
X147000000Y-126190000D03*
%TD*%
D16*
%TO.P,U1,1,QB*%
%TO.N,/Switch 2*%
X138625000Y-144325000D03*
D17*
%TO.P,U1,2,QC*%
%TO.N,/Switch 3*%
X141165000Y-144325000D03*
%TO.P,U1,3,QD*%
%TO.N,/Switch 4*%
X143705000Y-144325000D03*
%TO.P,U1,4,QE*%
%TO.N,/Switch 5*%
X146245000Y-144325000D03*
%TO.P,U1,5,QF*%
%TO.N,/LED_R*%
X148785000Y-144325000D03*
%TO.P,U1,6,QG*%
%TO.N,/LED_G*%
X151325000Y-144325000D03*
%TO.P,U1,7,QH*%
%TO.N,/LED_B*%
X153865000Y-144325000D03*
%TO.P,U1,8,GND*%
%TO.N,GND*%
X156405000Y-144325000D03*
%TO.P,U1,9,QH'*%
%TO.N,/DATA_OUT*%
X156405000Y-136705000D03*
%TO.P,U1,10,~{SRCLR}*%
%TO.N,Net-(U1-~{SRCLR})*%
X153865000Y-136705000D03*
%TO.P,U1,11,SRCLK*%
%TO.N,/Data_Clock*%
X151325000Y-136705000D03*
%TO.P,U1,12,RCLK*%
%TO.N,/Latch_Clock*%
X148785000Y-136705000D03*
%TO.P,U1,13,~{OE}*%
%TO.N,GND*%
X146245000Y-136705000D03*
%TO.P,U1,14,SER*%
%TO.N,/Data_In*%
X143705000Y-136705000D03*
%TO.P,U1,15,QA*%
%TO.N,/Switch 1*%
X141165000Y-136705000D03*
%TO.P,U1,16,VCC*%
%TO.N,+3V3*%
X138625000Y-136705000D03*
%TD*%
D11*
%TO.P,R2,1*%
%TO.N,/LED_R*%
X116500000Y-129190000D03*
D12*
%TO.P,R2,2*%
%TO.N,Net-(D1-DOUT)*%
X116500000Y-136810000D03*
%TD*%
D18*
%TO.P,J7,1,Pin_1*%
%TO.N,+3V3*%
X166000000Y-130880000D03*
D19*
%TO.P,J7,2,Pin_2*%
%TO.N,/LED_Dout*%
X163460000Y-130880000D03*
%TO.P,J7,3,Pin_3*%
%TO.N,/MCU_ANALOG*%
X166000000Y-133420000D03*
%TO.P,J7,4,Pin_4*%
%TO.N,+5V*%
X163460000Y-133420000D03*
%TO.P,J7,5,Pin_5*%
%TO.N,GND*%
X166000000Y-135960000D03*
%TO.P,J7,6,Pin_6*%
%TO.N,/DATA_OUT*%
X163460000Y-135960000D03*
%TO.P,J7,7,Pin_7*%
%TO.N,/Data_Clock*%
X166000000Y-138500000D03*
%TO.P,J7,8,Pin_8*%
%TO.N,/Latch_Clock*%
X163460000Y-138500000D03*
%TD*%
D20*
%TO.P,J5,1,Pin_1*%
%TO.N,Net-(D5-A)*%
X168125000Y-122000000D03*
D21*
%TO.P,J5,2,Pin_2*%
%TO.N,/MCU_ANALOG*%
X168125000Y-119500000D03*
%TD*%
D22*
%TO.P,JP4,1,A*%
%TO.N,Net-(D1-GND)*%
X121400000Y-142000000D03*
D23*
%TO.P,JP4,2,B*%
%TO.N,GND*%
X120100000Y-142000000D03*
%TD*%
D11*
%TO.P,C1,1*%
%TO.N,Net-(D1-VDD)*%
X121750000Y-139250000D03*
%TO.P,C1,2*%
%TO.N,GND*%
X116750000Y-139250000D03*
%TD*%
%TO.P,C2,1*%
%TO.N,+3V3*%
X136250000Y-139000000D03*
%TO.P,C2,2*%
%TO.N,GND*%
X136250000Y-144000000D03*
%TD*%
D24*
%TO.P,JP3,1,A*%
%TO.N,/LED_Dout*%
X116500000Y-133250000D03*
D25*
%TO.P,JP3,2,B*%
%TO.N,Net-(D1-DOUT)*%
X116500000Y-134550000D03*
%TD*%
D26*
%TO.P,JP2,1,A*%
%TO.N,Net-(D1-VDD)*%
X120000000Y-134550000D03*
D27*
%TO.P,JP2,2,B*%
%TO.N,+5V*%
X120000000Y-133250000D03*
%TD*%
D20*
%TO.P,J1,1,Pin_1*%
%TO.N,Net-(D2-A)*%
X136600000Y-122000000D03*
D21*
%TO.P,J1,2,Pin_2*%
%TO.N,/MCU_ANALOG*%
X136600000Y-119500000D03*
%TD*%
D28*
%TO.P,J6,1,Pin_1*%
%TO.N,+3V3*%
X126500000Y-123040000D03*
D19*
%TO.P,J6,2,Pin_2*%
%TO.N,/LED_DIN*%
X126500000Y-120500000D03*
%TO.P,J6,3,Pin_3*%
%TO.N,/MCU_ANALOG*%
X123960000Y-123040000D03*
%TO.P,J6,4,Pin_4*%
%TO.N,+5V*%
X123960000Y-120500000D03*
%TO.P,J6,5,Pin_5*%
%TO.N,GND*%
X121420000Y-123040000D03*
%TO.P,J6,6,Pin_6*%
%TO.N,/Data_In*%
X121420000Y-120500000D03*
%TO.P,J6,7,Pin_7*%
%TO.N,/Data_Clock*%
X118880000Y-123040000D03*
%TO.P,J6,8,Pin_8*%
%TO.N,/Latch_Clock*%
X118880000Y-120500000D03*
%TD*%
D20*
%TO.P,J2,1,Pin_1*%
%TO.N,Net-(D6-A)*%
X144725000Y-122000000D03*
D21*
%TO.P,J2,2,Pin_2*%
%TO.N,/MCU_ANALOG*%
X144725000Y-119500000D03*
%TD*%
D29*
%TO.P,JP5,1,A*%
%TO.N,+5V*%
X120100000Y-144500000D03*
D30*
%TO.P,JP5,2,B*%
%TO.N,Net-(D1-GND)*%
X121400000Y-144500000D03*
%TD*%
D20*
%TO.P,J4,1,Pin_1*%
%TO.N,Net-(D4-A)*%
X160400000Y-122000000D03*
D21*
%TO.P,J4,2,Pin_2*%
%TO.N,/MCU_ANALOG*%
X160400000Y-119500000D03*
%TD*%
D26*
%TO.P,JP1,1,A*%
%TO.N,Net-(D1-DIN)*%
X123500000Y-134650000D03*
D27*
%TO.P,JP1,2,B*%
%TO.N,/LED_DIN*%
X123500000Y-133350000D03*
%TD*%
D20*
%TO.P,J3,1,Pin_1*%
%TO.N,Net-(D3-A)*%
X152525000Y-121850000D03*
D21*
%TO.P,J3,2,Pin_2*%
%TO.N,/MCU_ANALOG*%
X152525000Y-119350000D03*
%TD*%
D31*
%TO.N,GND*%
X139750000Y-138750000D03*
X124000000Y-125800000D03*
X144500000Y-140000000D03*
X125000000Y-145400000D03*
X145500000Y-132500000D03*
X145000000Y-127900000D03*
X147500000Y-138750000D03*
X156000000Y-141500000D03*
X128000000Y-131800000D03*
X132000000Y-145250000D03*
X131000000Y-121500000D03*
X158200000Y-127200000D03*
X165750000Y-126250000D03*
X143000000Y-140400000D03*
X154000000Y-141500000D03*
X156600000Y-140400000D03*
X116500000Y-125750000D03*
X159400000Y-144800000D03*
X117250000Y-127250000D03*
X140000000Y-121500000D03*
X145000000Y-138750000D03*
X156000000Y-120750000D03*
X163400000Y-143000000D03*
X129250000Y-135750000D03*
X126500000Y-134000000D03*
X132300000Y-128300000D03*
X164600000Y-140800000D03*
X119000000Y-125750000D03*
X133750000Y-137500000D03*
X118400000Y-127200000D03*
X125200000Y-119400000D03*
X117000000Y-145500000D03*
X124700000Y-124600000D03*
X114250000Y-147250000D03*
X146200000Y-140600000D03*
X139750000Y-140250000D03*
X151200000Y-130600000D03*
X148000000Y-118000000D03*
X169500000Y-118000000D03*
X138500000Y-139000000D03*
X163500000Y-146500000D03*
X159600000Y-143000000D03*
X160600000Y-142200000D03*
X164000000Y-121850000D03*
X124800000Y-126900000D03*
X136500000Y-133500000D03*
X159750000Y-136000000D03*
X169200000Y-136000000D03*
X130300000Y-117900000D03*
X124000000Y-125000000D03*
X141000000Y-140000000D03*
X114500000Y-118000000D03*
X116000000Y-121250000D03*
X123500000Y-145000000D03*
X116500000Y-141250000D03*
X159600000Y-141500000D03*
X160600000Y-140600000D03*
X130000000Y-145250000D03*
X141000000Y-139000000D03*
X155200000Y-143000000D03*
X169500000Y-140500000D03*
X167600000Y-137400000D03*
X138500000Y-140000000D03*
X129000000Y-132800000D03*
X168500000Y-137750000D03*
X149000000Y-140400000D03*
X141000000Y-133500000D03*
X168000000Y-136000000D03*
X116750000Y-123500000D03*
X127100000Y-130900000D03*
X163400000Y-140800000D03*
X126800000Y-145400000D03*
X168500000Y-133000000D03*
X128500000Y-145000000D03*
X143500000Y-138500000D03*
X149500000Y-138750000D03*
X155200000Y-140400000D03*
X168500000Y-126500000D03*
X161000000Y-131000000D03*
X134000000Y-144500000D03*
X169200000Y-137000000D03*
X160600000Y-143800000D03*
%TO.N,/Latch_Clock*%
X129975000Y-128725000D03*
X160002983Y-139258949D03*
%TO.N,/Data_Clock*%
X159400000Y-138500000D03*
X130925000Y-128675000D03*
%TO.N,/LED_DIN*%
X121750000Y-126000000D03*
%TO.N,/LED_Dout*%
X115250000Y-133750000D03*
%TO.N,/DATA_OUT*%
X160500000Y-133000000D03*
%TD*%
D32*
%TO.N,Net-(D1-VDD)*%
X119976000Y-134749000D02*
X120000000Y-134725000D01*
X120000000Y-134725000D02*
X120000000Y-136810000D01*
%TO.N,Net-(D1-DIN)*%
X123500000Y-134725000D02*
X123500000Y-136810000D01*
%TO.N,Net-(D1-DOUT)*%
X116674000Y-134899000D02*
X116500000Y-134725000D01*
X116500000Y-134725000D02*
X116500000Y-136810000D01*
D33*
%TO.N,GND*%
X121420000Y-124080000D02*
X120375000Y-125125000D01*
X166000000Y-135960000D02*
X167960000Y-135960000D01*
X167960000Y-135960000D02*
X168000000Y-136000000D01*
X121420000Y-123040000D02*
X121420000Y-124080000D01*
D32*
%TO.N,/MCU_ANALOG*%
X123960000Y-123040000D02*
X125160000Y-121840000D01*
X130750000Y-119500000D02*
X168125000Y-119500000D01*
X128410000Y-121840000D02*
X130750000Y-119500000D01*
X125160000Y-121840000D02*
X128410000Y-121840000D01*
%TO.N,/Latch_Clock*%
X129975000Y-128725000D02*
X132340000Y-131090000D01*
X146590000Y-131090000D02*
X148785000Y-133285000D01*
X132340000Y-131090000D02*
X146590000Y-131090000D01*
X160002983Y-139258949D02*
X159611932Y-139650000D01*
X159611932Y-139650000D02*
X151730000Y-139650000D01*
X151730000Y-139650000D02*
X148785000Y-136705000D01*
X148785000Y-133285000D02*
X148785000Y-136705000D01*
%TO.N,/Data_In*%
X144500000Y-132500000D02*
X144000000Y-132000000D01*
X135500000Y-132000000D02*
X133500000Y-134000000D01*
X144500000Y-135910000D02*
X144500000Y-132500000D01*
X126000000Y-129934314D02*
X122750000Y-126684314D01*
X144000000Y-132000000D02*
X135500000Y-132000000D01*
X122750000Y-121830000D02*
X121420000Y-120500000D01*
X143705000Y-136705000D02*
X144500000Y-135910000D01*
X126000000Y-132000000D02*
X126000000Y-129934314D01*
X133500000Y-134000000D02*
X128000000Y-134000000D01*
X122750000Y-126684314D02*
X122750000Y-121830000D01*
X128000000Y-134000000D02*
X126000000Y-132000000D01*
%TO.N,/Data_Clock*%
X130925000Y-128675000D02*
X132940000Y-130690000D01*
X132940000Y-130690000D02*
X147190000Y-130690000D01*
X153120000Y-138500000D02*
X151325000Y-136705000D01*
X149900000Y-133400000D02*
X149900000Y-135280000D01*
X149900000Y-135280000D02*
X151325000Y-136705000D01*
X147190000Y-130690000D02*
X149900000Y-133400000D01*
X159400000Y-138500000D02*
X153120000Y-138500000D01*
%TO.N,/LED_DIN*%
X121750000Y-126000000D02*
X121750000Y-131525000D01*
X121750000Y-131525000D02*
X123500000Y-133275000D01*
D34*
%TO.N,+5V*%
X114300000Y-132700000D02*
X114300000Y-129700000D01*
X114500000Y-120500000D02*
X116600000Y-118400000D01*
D35*
X115500000Y-131500000D02*
X118225000Y-131500000D01*
D32*
X117600000Y-147000000D02*
X116000000Y-147000000D01*
D34*
X159000000Y-147000000D02*
X161800000Y-144200000D01*
X121860000Y-118400000D02*
X123960000Y-120500000D01*
X114500000Y-129500000D02*
X114500000Y-120500000D01*
D36*
X120100000Y-144500000D02*
X117600000Y-147000000D01*
D34*
X114300000Y-132700000D02*
X114000000Y-133000000D01*
X114000000Y-145000000D02*
X116000000Y-147000000D01*
X116600000Y-118400000D02*
X121860000Y-118400000D01*
X114300000Y-129700000D02*
X114500000Y-129500000D01*
D35*
X118225000Y-131500000D02*
X120000000Y-133275000D01*
X114300000Y-132700000D02*
X115500000Y-131500000D01*
D34*
X161800000Y-135080000D02*
X163460000Y-133420000D01*
X116000000Y-147000000D02*
X159000000Y-147000000D01*
X161800000Y-144200000D02*
X161800000Y-135080000D01*
X114000000Y-133000000D02*
X114000000Y-145000000D01*
%TO.N,+3V3*%
X138545000Y-136705000D02*
X136250000Y-139000000D01*
X138625000Y-136705000D02*
X138545000Y-136705000D01*
D32*
%TO.N,/LED_Dout*%
X115725000Y-133275000D02*
X116500000Y-133275000D01*
X115250000Y-133750000D02*
X115725000Y-133275000D01*
%TO.N,/DATA_OUT*%
X156405000Y-136705000D02*
X160110000Y-133000000D01*
X160110000Y-133000000D02*
X160500000Y-133000000D01*
X156405000Y-136705000D02*
X156810000Y-137110000D01*
%TO.N,/Switch 2*%
X143000000Y-133810000D02*
X142265000Y-134545000D01*
X142265000Y-134545000D02*
X142265000Y-140685000D01*
X142265000Y-140685000D02*
X138625000Y-144325000D01*
D36*
%TO.N,Net-(D1-GND)*%
X121400000Y-144350000D02*
X121400000Y-144500000D01*
X121400000Y-142150000D02*
X121400000Y-142000000D01*
X122500000Y-143250000D02*
X124992000Y-143250000D01*
X124992000Y-143250000D02*
X125478000Y-142764000D01*
X122500000Y-143250000D02*
X121400000Y-142150000D01*
X122500000Y-143250000D02*
X121400000Y-144350000D01*
%TD*%
%TA.AperFunction,Conductor*%
%TO.N,GND*%
G36*
X113605703Y-146162491D02*
G01*
X113612181Y-146168523D01*
X115231477Y-147787819D01*
X115264962Y-147849142D01*
X115259978Y-147918834D01*
X115218106Y-147974767D01*
X115152642Y-147999184D01*
X115143796Y-147999500D01*
X113524500Y-147999500D01*
X113457461Y-147979815D01*
X113411706Y-147927011D01*
X113400500Y-147875500D01*
X113400500Y-146256204D01*
X113420185Y-146189165D01*
X113472989Y-146143410D01*
X113542147Y-146133466D01*
X113605703Y-146162491D01*
G37*
%TD.AperFunction*%
%TA.AperFunction,Conductor*%
G36*
X170542539Y-117020185D02*
G01*
X170588294Y-117072989D01*
X170599500Y-117124500D01*
X170599500Y-147875500D01*
X170579815Y-147942539D01*
X170527011Y-147988294D01*
X170475500Y-147999500D01*
X169029420Y-147999500D01*
X168962381Y-147979815D01*
X168916626Y-147927011D01*
X168906682Y-147857853D01*
X168935707Y-147794297D01*
X168992427Y-147757845D01*
X168992262Y-147757357D01*
X168994222Y-147756691D01*
X168994485Y-147756523D01*
X168995838Y-147756143D01*
X168996090Y-147756056D01*
X168996100Y-147756054D01*
X169220212Y-147663224D01*
X169430289Y-147541936D01*
X169622738Y-147394265D01*
X169794265Y-147222738D01*
X169941936Y-147030289D01*
X170063224Y-146820212D01*
X170156054Y-146596100D01*
X170218838Y-146361789D01*
X170250500Y-146121288D01*
X170250500Y-145878712D01*
X170248455Y-145863182D01*
X170227525Y-145704200D01*
X170218838Y-145638211D01*
X170156054Y-145403900D01*
X170063224Y-145179788D01*
X169941936Y-144969711D01*
X169832700Y-144827352D01*
X169794266Y-144777263D01*
X169794260Y-144777256D01*
X169622743Y-144605739D01*
X169622736Y-144605733D01*
X169430293Y-144458067D01*
X169430292Y-144458066D01*
X169430289Y-144458064D01*
X169220212Y-144336776D01*
X169220205Y-144336773D01*
X168996104Y-144243947D01*
X168761785Y-144181161D01*
X168521289Y-144149500D01*
X168521288Y-144149500D01*
X168278712Y-144149500D01*
X168278711Y-144149500D01*
X168038214Y-144181161D01*
X167803895Y-144243947D01*
X167579794Y-144336773D01*
X167579785Y-144336777D01*
X167369706Y-144458067D01*
X167177263Y-144605733D01*
X167177256Y-144605739D01*
X167005739Y-144777256D01*
X167005733Y-144777263D01*
X166858067Y-144969706D01*
X166736777Y-145179785D01*
X166736773Y-145179794D01*
X166643947Y-145403895D01*
X166581161Y-145638214D01*
X166549500Y-145878711D01*
X166549500Y-146121288D01*
X166581161Y-146361785D01*
X166643947Y-146596104D01*
X166736773Y-146820205D01*
X166736776Y-146820212D01*
X166858064Y-147030289D01*
X166858066Y-147030292D01*
X166858067Y-147030293D01*
X167005733Y-147222736D01*
X167005739Y-147222743D01*
X167177256Y-147394260D01*
X167177262Y-147394265D01*
X167369711Y-147541936D01*
X167579788Y-147663224D01*
X167803900Y-147756054D01*
X167803904Y-147756055D01*
X167807738Y-147757357D01*
X167807328Y-147758564D01*
X167862330Y-147792086D01*
X167892862Y-147854932D01*
X167884570Y-147924308D01*
X167840087Y-147978188D01*
X167773536Y-147999465D01*
X167770580Y-147999500D01*
X159856204Y-147999500D01*
X159789165Y-147979815D01*
X159743410Y-147927011D01*
X159733466Y-147857853D01*
X159762491Y-147794297D01*
X159768523Y-147787819D01*
X161194557Y-146361785D01*
X162639414Y-144916928D01*
X162741232Y-144776788D01*
X162819873Y-144622445D01*
X162873402Y-144457701D01*
X162900500Y-144286611D01*
X162900500Y-144113389D01*
X162900500Y-139908877D01*
X162920185Y-139841838D01*
X162972989Y-139796083D01*
X163042147Y-139786139D01*
X163062802Y-139790942D01*
X163143757Y-139817246D01*
X163353713Y-139850500D01*
X163353714Y-139850500D01*
X163566286Y-139850500D01*
X163566287Y-139850500D01*
X163776243Y-139817246D01*
X163978412Y-139751557D01*
X164167816Y-139655051D01*
X164212287Y-139622741D01*
X164339786Y-139530109D01*
X164339788Y-139530106D01*
X164339792Y-139530104D01*
X164490104Y-139379792D01*
X164490106Y-139379788D01*
X164490109Y-139379786D01*
X164615048Y-139207820D01*
X164615047Y-139207820D01*
X164615051Y-139207816D01*
X164619514Y-139199054D01*
X164667488Y-139148259D01*
X164735308Y-139131463D01*
X164801444Y-139153999D01*
X164840486Y-139199056D01*
X164844951Y-139207820D01*
X164969890Y-139379786D01*
X165120213Y-139530109D01*
X165292179Y-139655048D01*
X165292181Y-139655049D01*
X165292184Y-139655051D01*
X165481588Y-139751557D01*
X165683757Y-139817246D01*
X165893713Y-139850500D01*
X165893714Y-139850500D01*
X166106286Y-139850500D01*
X166106287Y-139850500D01*
X166316243Y-139817246D01*
X166518412Y-139751557D01*
X166707816Y-139655051D01*
X166752287Y-139622741D01*
X166879786Y-139530109D01*
X166879788Y-139530106D01*
X166879792Y-139530104D01*
X167030104Y-139379792D01*
X167030106Y-139379788D01*
X167030109Y-139379786D01*
X167155048Y-139207820D01*
X167155047Y-139207820D01*
X167155051Y-139207816D01*
X167251557Y-139018412D01*
X167317246Y-138816243D01*
X167350500Y-138606287D01*
X167350500Y-138393713D01*
X167317246Y-138183757D01*
X167251557Y-137981588D01*
X167155051Y-137792184D01*
X167155049Y-137792181D01*
X167155048Y-137792179D01*
X167030109Y-137620213D01*
X166879786Y-137469890D01*
X166707817Y-137344949D01*
X166698504Y-137340204D01*
X166647707Y-137292230D01*
X166630912Y-137224409D01*
X166653449Y-137158274D01*
X166698507Y-137119232D01*
X166707555Y-137114622D01*
X166761716Y-137075270D01*
X166761717Y-137075270D01*
X166129408Y-136442962D01*
X166192993Y-136425925D01*
X166307007Y-136360099D01*
X166400099Y-136267007D01*
X166465925Y-136152993D01*
X166482962Y-136089408D01*
X167115270Y-136721717D01*
X167115270Y-136721716D01*
X167154622Y-136667554D01*
X167251095Y-136478217D01*
X167316757Y-136276130D01*
X167316757Y-136276127D01*
X167350000Y-136066246D01*
X167350000Y-135853753D01*
X167316757Y-135643872D01*
X167316757Y-135643869D01*
X167251095Y-135441782D01*
X167154624Y-135252449D01*
X167115270Y-135198282D01*
X167115269Y-135198282D01*
X166482962Y-135830590D01*
X166465925Y-135767007D01*
X166400099Y-135652993D01*
X166307007Y-135559901D01*
X166192993Y-135494075D01*
X166129409Y-135477037D01*
X166761716Y-134844728D01*
X166707547Y-134805373D01*
X166707547Y-134805372D01*
X166698500Y-134800763D01*
X166647706Y-134752788D01*
X166630912Y-134684966D01*
X166653451Y-134618832D01*
X166698508Y-134579793D01*
X166707816Y-134575051D01*
X166837928Y-134480520D01*
X166879786Y-134450109D01*
X166879788Y-134450106D01*
X166879792Y-134450104D01*
X167030104Y-134299792D01*
X167030106Y-134299788D01*
X167030109Y-134299786D01*
X167155048Y-134127820D01*
X167155047Y-134127820D01*
X167155051Y-134127816D01*
X167251557Y-133938412D01*
X167317246Y-133736243D01*
X167350500Y-133526287D01*
X167350500Y-133313713D01*
X167317246Y-133103757D01*
X167251557Y-132901588D01*
X167155051Y-132712184D01*
X167155049Y-132712181D01*
X167155048Y-132712179D01*
X167030109Y-132540213D01*
X166879790Y-132389894D01*
X166879785Y-132389890D01*
X166874891Y-132386334D01*
X166832227Y-132331003D01*
X166826249Y-132261390D01*
X166858857Y-132199595D01*
X166908774Y-132168312D01*
X166919334Y-132164814D01*
X167068656Y-132072712D01*
X167192712Y-131948656D01*
X167284814Y-131799334D01*
X167339999Y-131632797D01*
X167350500Y-131530009D01*
X167350499Y-130229992D01*
X167350402Y-130229047D01*
X167339999Y-130127203D01*
X167339998Y-130127200D01*
X167284814Y-129960666D01*
X167192712Y-129811344D01*
X167068656Y-129687288D01*
X166919334Y-129595186D01*
X166752797Y-129540001D01*
X166752795Y-129540000D01*
X166650010Y-129529500D01*
X165349998Y-129529500D01*
X165349981Y-129529501D01*
X165247203Y-129540000D01*
X165247200Y-129540001D01*
X165080668Y-129595185D01*
X165080663Y-129595187D01*
X164931342Y-129687289D01*
X164807289Y-129811342D01*
X164715187Y-129960663D01*
X164715183Y-129960673D01*
X164711685Y-129971229D01*
X164671910Y-130028672D01*
X164607393Y-130055493D01*
X164538618Y-130043174D01*
X164493663Y-130005106D01*
X164490105Y-130000209D01*
X164339786Y-129849890D01*
X164167820Y-129724951D01*
X163978414Y-129628444D01*
X163978413Y-129628443D01*
X163978412Y-129628443D01*
X163776243Y-129562754D01*
X163776241Y-129562753D01*
X163776240Y-129562753D01*
X163614957Y-129537208D01*
X163566287Y-129529500D01*
X163353713Y-129529500D01*
X163305042Y-129537208D01*
X163143760Y-129562753D01*
X162941585Y-129628444D01*
X162752179Y-129724951D01*
X162580213Y-129849890D01*
X162429890Y-130000213D01*
X162304951Y-130172179D01*
X162208444Y-130361585D01*
X162142753Y-130563760D01*
X162116897Y-130727011D01*
X162109500Y-130773713D01*
X162109500Y-130986287D01*
X162142754Y-131196243D01*
X162190367Y-131342781D01*
X162208444Y-131398414D01*
X162304951Y-131587820D01*
X162429890Y-131759786D01*
X162580213Y-131910109D01*
X162752182Y-132035050D01*
X162760946Y-132039516D01*
X162811742Y-132087491D01*
X162828536Y-132155312D01*
X162805998Y-132221447D01*
X162760946Y-132260484D01*
X162752182Y-132264949D01*
X162580213Y-132389890D01*
X162429890Y-132540213D01*
X162304951Y-132712179D01*
X162208444Y-132901585D01*
X162142753Y-133103759D01*
X162134537Y-133155630D01*
X162104606Y-133218764D01*
X162099745Y-133223911D01*
X161083072Y-134240586D01*
X160960588Y-134363069D01*
X160960588Y-134363070D01*
X160960586Y-134363072D01*
X160916859Y-134423256D01*
X160858768Y-134503211D01*
X160780128Y-134657552D01*
X160726597Y-134822302D01*
X160699500Y-134993389D01*
X160699500Y-138529605D01*
X160679815Y-138596644D01*
X160627011Y-138642399D01*
X160557853Y-138652343D01*
X160506609Y-138632707D01*
X160382168Y-138549558D01*
X160382159Y-138549553D01*
X160273255Y-138504444D01*
X160218852Y-138460603D01*
X160199091Y-138414074D01*
X160178433Y-138310220D01*
X160169737Y-138266503D01*
X160169735Y-138266498D01*
X160109397Y-138120827D01*
X160109390Y-138120814D01*
X160021789Y-137989711D01*
X160021786Y-137989707D01*
X159910292Y-137878213D01*
X159910288Y-137878210D01*
X159779185Y-137790609D01*
X159779172Y-137790602D01*
X159633501Y-137730264D01*
X159633489Y-137730261D01*
X159478845Y-137699500D01*
X159478842Y-137699500D01*
X159321158Y-137699500D01*
X159321155Y-137699500D01*
X159166510Y-137730261D01*
X159166498Y-137730264D01*
X159020827Y-137790602D01*
X159020814Y-137790609D01*
X158889125Y-137878602D01*
X158822447Y-137899480D01*
X158820234Y-137899500D01*
X157662117Y-137899500D01*
X157595078Y-137879815D01*
X157549323Y-137827011D01*
X157539379Y-137757853D01*
X157551632Y-137719205D01*
X157610218Y-137604223D01*
X157610218Y-137604222D01*
X157610220Y-137604219D01*
X157673477Y-137409534D01*
X157705500Y-137207352D01*
X157705500Y-136305096D01*
X157725185Y-136238057D01*
X157741814Y-136217420D01*
X160155408Y-133803825D01*
X160216729Y-133770342D01*
X160267277Y-133769891D01*
X160324881Y-133781349D01*
X160421155Y-133800500D01*
X160421158Y-133800500D01*
X160578844Y-133800500D01*
X160578845Y-133800499D01*
X160733497Y-133769737D01*
X160879179Y-133709394D01*
X161010289Y-133621789D01*
X161121789Y-133510289D01*
X161209394Y-133379179D01*
X161269737Y-133233497D01*
X161300500Y-133078842D01*
X161300500Y-132921158D01*
X161300500Y-132921155D01*
X161300499Y-132921153D01*
X161290644Y-132871610D01*
X161269737Y-132766503D01*
X161269528Y-132765998D01*
X161209397Y-132620827D01*
X161209390Y-132620814D01*
X161121789Y-132489711D01*
X161121786Y-132489707D01*
X161010292Y-132378213D01*
X161010288Y-132378210D01*
X160879185Y-132290609D01*
X160879172Y-132290602D01*
X160733501Y-132230264D01*
X160733489Y-132230261D01*
X160578845Y-132199500D01*
X160578842Y-132199500D01*
X160421158Y-132199500D01*
X160421155Y-132199500D01*
X160266510Y-132230261D01*
X160266498Y-132230264D01*
X160120827Y-132290602D01*
X160120814Y-132290609D01*
X159989714Y-132378208D01*
X159989708Y-132378212D01*
X159969030Y-132398891D01*
X159931334Y-132424688D01*
X159922630Y-132428521D01*
X159878215Y-132440423D01*
X159828095Y-132469360D01*
X159822259Y-132472729D01*
X159822253Y-132472732D01*
X159741285Y-132519479D01*
X159741282Y-132519481D01*
X159629478Y-132631286D01*
X157138020Y-135122743D01*
X157076697Y-135156228D01*
X157007005Y-135151244D01*
X156994045Y-135145547D01*
X156904219Y-135099779D01*
X156709536Y-135036523D01*
X156574746Y-135015174D01*
X156507352Y-135004500D01*
X156365634Y-135004500D01*
X156298595Y-134984815D01*
X156252840Y-134932011D01*
X156242896Y-134862853D01*
X156249452Y-134837167D01*
X156294091Y-134717482D01*
X156296445Y-134695587D01*
X156300500Y-134657873D01*
X156300499Y-132962128D01*
X156294091Y-132902517D01*
X156293743Y-132901585D01*
X156243797Y-132767671D01*
X156243793Y-132767664D01*
X156157547Y-132652455D01*
X156157544Y-132652452D01*
X156042335Y-132566206D01*
X156042328Y-132566202D01*
X155907482Y-132515908D01*
X155907483Y-132515908D01*
X155847883Y-132509501D01*
X155847881Y-132509500D01*
X155847873Y-132509500D01*
X155847864Y-132509500D01*
X154152129Y-132509500D01*
X154152123Y-132509501D01*
X154092516Y-132515908D01*
X153957671Y-132566202D01*
X153957664Y-132566206D01*
X153842455Y-132652452D01*
X153842452Y-132652455D01*
X153756206Y-132767664D01*
X153756202Y-132767671D01*
X153705908Y-132902517D01*
X153700683Y-132951122D01*
X153699501Y-132962123D01*
X153699500Y-132962135D01*
X153699500Y-134657870D01*
X153699501Y-134657876D01*
X153705908Y-134717483D01*
X153757159Y-134854892D01*
X153762143Y-134924584D01*
X153728658Y-134985907D01*
X153667335Y-135019391D01*
X153660376Y-135020698D01*
X153560464Y-135036523D01*
X153365776Y-135099781D01*
X153183386Y-135192715D01*
X153017786Y-135313028D01*
X152873028Y-135457786D01*
X152752715Y-135623386D01*
X152705485Y-135716080D01*
X152657510Y-135766876D01*
X152589689Y-135783671D01*
X152523554Y-135761134D01*
X152484515Y-135716080D01*
X152481714Y-135710582D01*
X152437287Y-135623390D01*
X152399644Y-135571578D01*
X152316971Y-135457786D01*
X152172217Y-135313032D01*
X152172212Y-135313028D01*
X152066588Y-135236288D01*
X152023922Y-135180958D01*
X152017943Y-135111345D01*
X152050548Y-135049550D01*
X152065155Y-135036709D01*
X152157546Y-134967546D01*
X152243796Y-134852331D01*
X152294091Y-134717483D01*
X152300500Y-134657873D01*
X152300499Y-132962128D01*
X152294091Y-132902517D01*
X152293743Y-132901585D01*
X152243797Y-132767671D01*
X152243793Y-132767664D01*
X152157547Y-132652455D01*
X152157544Y-132652452D01*
X152042335Y-132566206D01*
X152042328Y-132566202D01*
X151907482Y-132515908D01*
X151907483Y-132515908D01*
X151847883Y-132509501D01*
X151847881Y-132509500D01*
X151847873Y-132509500D01*
X151847864Y-132509500D01*
X150152129Y-132509500D01*
X150152123Y-132509501D01*
X150092515Y-132515909D01*
X150001575Y-132549827D01*
X149931884Y-132554811D01*
X149870562Y-132521326D01*
X147677590Y-130328355D01*
X147677588Y-130328352D01*
X147558717Y-130209481D01*
X147558716Y-130209480D01*
X147471904Y-130159360D01*
X147471904Y-130159359D01*
X147471900Y-130159358D01*
X147421785Y-130130423D01*
X147269057Y-130089499D01*
X147110943Y-130089499D01*
X147103347Y-130089499D01*
X147103331Y-130089500D01*
X133240097Y-130089500D01*
X133173058Y-130069815D01*
X133152416Y-130053181D01*
X131759574Y-128660339D01*
X131726089Y-128599016D01*
X131725638Y-128596849D01*
X131694738Y-128441510D01*
X131694737Y-128441503D01*
X131694735Y-128441498D01*
X131634397Y-128295827D01*
X131634390Y-128295814D01*
X131546789Y-128164711D01*
X131546786Y-128164707D01*
X131435292Y-128053213D01*
X131435288Y-128053210D01*
X131304185Y-127965609D01*
X131304172Y-127965602D01*
X131158501Y-127905264D01*
X131158489Y-127905261D01*
X131003845Y-127874500D01*
X131003842Y-127874500D01*
X130846158Y-127874500D01*
X130846155Y-127874500D01*
X130691510Y-127905261D01*
X130691498Y-127905264D01*
X130545827Y-127965602D01*
X130545814Y-127965609D01*
X130480873Y-128009002D01*
X130414195Y-128029880D01*
X130360246Y-128016877D01*
X130359808Y-128017937D01*
X130208501Y-127955264D01*
X130208489Y-127955261D01*
X130053845Y-127924500D01*
X130053842Y-127924500D01*
X129896158Y-127924500D01*
X129896155Y-127924500D01*
X129741510Y-127955261D01*
X129741498Y-127955264D01*
X129595827Y-128015602D01*
X129595814Y-128015609D01*
X129464711Y-128103210D01*
X129464707Y-128103213D01*
X129353213Y-128214707D01*
X129353210Y-128214711D01*
X129265609Y-128345814D01*
X129265602Y-128345827D01*
X129205264Y-128491498D01*
X129205261Y-128491510D01*
X129174500Y-128646153D01*
X129174500Y-128803846D01*
X129205261Y-128958489D01*
X129205264Y-128958501D01*
X129265602Y-129104172D01*
X129265609Y-129104185D01*
X129353210Y-129235288D01*
X129353213Y-129235292D01*
X129464707Y-129346786D01*
X129464711Y-129346789D01*
X129595814Y-129434390D01*
X129595827Y-129434397D01*
X129741013Y-129494534D01*
X129741503Y-129494737D01*
X129806147Y-129507595D01*
X129896849Y-129525638D01*
X129958760Y-129558023D01*
X129960339Y-129559574D01*
X131538109Y-131137344D01*
X131571594Y-131198667D01*
X131566610Y-131268359D01*
X131538109Y-131312706D01*
X131508032Y-131342782D01*
X131508028Y-131342786D01*
X131387715Y-131508386D01*
X131294781Y-131690776D01*
X131231522Y-131885465D01*
X131199500Y-132087648D01*
X131199500Y-132292351D01*
X131231522Y-132494534D01*
X131294781Y-132689223D01*
X131387715Y-132871613D01*
X131508028Y-133037213D01*
X131656226Y-133185411D01*
X131655266Y-133186370D01*
X131690091Y-133239725D01*
X131690585Y-133309593D01*
X131653227Y-133368637D01*
X131589878Y-133398110D01*
X131571364Y-133399500D01*
X128300097Y-133399500D01*
X128233058Y-133379815D01*
X128212416Y-133363181D01*
X126636819Y-131787584D01*
X126603334Y-131726261D01*
X126600500Y-131699903D01*
X126600500Y-129855260D01*
X126600499Y-129855253D01*
X126588734Y-129811344D01*
X126559577Y-129702529D01*
X126509935Y-129616547D01*
X126480520Y-129565598D01*
X126368716Y-129453794D01*
X126368715Y-129453793D01*
X126364385Y-129449463D01*
X126364374Y-129449453D01*
X124212569Y-127297648D01*
X133699500Y-127297648D01*
X133699500Y-127502351D01*
X133731522Y-127704534D01*
X133794781Y-127899223D01*
X133850717Y-128009002D01*
X133885728Y-128077715D01*
X133887715Y-128081613D01*
X134008028Y-128247213D01*
X134152786Y-128391971D01*
X134307749Y-128504556D01*
X134318390Y-128512287D01*
X134434607Y-128571503D01*
X134500776Y-128605218D01*
X134500778Y-128605218D01*
X134500781Y-128605220D01*
X134565551Y-128626265D01*
X134695465Y-128668477D01*
X134796557Y-128684488D01*
X134897648Y-128700500D01*
X134897649Y-128700500D01*
X135102351Y-128700500D01*
X135102352Y-128700500D01*
X135304534Y-128668477D01*
X135499219Y-128605220D01*
X135681610Y-128512287D01*
X135779037Y-128441503D01*
X135847213Y-128391971D01*
X135847215Y-128391968D01*
X135847219Y-128391966D01*
X135991966Y-128247219D01*
X135991968Y-128247215D01*
X135991971Y-128247213D01*
X136086972Y-128116453D01*
X136112287Y-128081610D01*
X136205220Y-127899219D01*
X136268477Y-127704534D01*
X136300500Y-127502352D01*
X136300500Y-127297648D01*
X136282178Y-127181971D01*
X136268477Y-127095465D01*
X136205218Y-126900776D01*
X136171503Y-126834607D01*
X136112287Y-126718390D01*
X136091093Y-126689219D01*
X135991971Y-126552786D01*
X135847213Y-126408028D01*
X135681613Y-126287715D01*
X135681612Y-126287714D01*
X135681610Y-126287713D01*
X135575190Y-126233489D01*
X135499222Y-126194781D01*
X135304534Y-126131522D01*
X135129995Y-126103878D01*
X135102352Y-126099500D01*
X134897648Y-126099500D01*
X134873329Y-126103351D01*
X134695465Y-126131522D01*
X134500776Y-126194781D01*
X134318386Y-126287715D01*
X134152786Y-126408028D01*
X134008028Y-126552786D01*
X133887715Y-126718386D01*
X133794781Y-126900776D01*
X133731522Y-127095465D01*
X133699500Y-127297648D01*
X124212569Y-127297648D01*
X123386819Y-126471898D01*
X123353334Y-126410575D01*
X123350500Y-126384217D01*
X123350500Y-126087648D01*
X137699500Y-126087648D01*
X137699500Y-126292351D01*
X137731522Y-126494534D01*
X137794781Y-126689223D01*
X137887715Y-126871613D01*
X138008028Y-127037213D01*
X138152786Y-127181971D01*
X138307749Y-127294556D01*
X138318390Y-127302287D01*
X138403652Y-127345730D01*
X138500776Y-127395218D01*
X138500778Y-127395218D01*
X138500781Y-127395220D01*
X138605137Y-127429127D01*
X138695465Y-127458477D01*
X138796557Y-127474488D01*
X138897648Y-127490500D01*
X138897649Y-127490500D01*
X139102351Y-127490500D01*
X139102352Y-127490500D01*
X139304534Y-127458477D01*
X139499219Y-127395220D01*
X139681610Y-127302287D01*
X139774590Y-127234732D01*
X139847213Y-127181971D01*
X139847215Y-127181968D01*
X139847219Y-127181966D01*
X139991966Y-127037219D01*
X139991968Y-127037215D01*
X139991971Y-127037213D01*
X140091093Y-126900781D01*
X140112287Y-126871610D01*
X140205220Y-126689219D01*
X140268477Y-126494534D01*
X140300500Y-126292352D01*
X140300500Y-126087648D01*
X141699500Y-126087648D01*
X141699500Y-126292351D01*
X141731522Y-126494534D01*
X141794781Y-126689223D01*
X141887715Y-126871613D01*
X142008028Y-127037213D01*
X142152786Y-127181971D01*
X142307749Y-127294556D01*
X142318390Y-127302287D01*
X142403652Y-127345730D01*
X142500776Y-127395218D01*
X142500778Y-127395218D01*
X142500781Y-127395220D01*
X142605137Y-127429127D01*
X142695465Y-127458477D01*
X142796557Y-127474488D01*
X142897648Y-127490500D01*
X142897649Y-127490500D01*
X143102351Y-127490500D01*
X143102352Y-127490500D01*
X143304534Y-127458477D01*
X143499219Y-127395220D01*
X143681610Y-127302287D01*
X143774590Y-127234732D01*
X143847213Y-127181971D01*
X143847215Y-127181968D01*
X143847219Y-127181966D01*
X143991966Y-127037219D01*
X143991968Y-127037215D01*
X143991971Y-127037213D01*
X144091093Y-126900781D01*
X144112287Y-126871610D01*
X144205220Y-126689219D01*
X144268477Y-126494534D01*
X144300500Y-126292352D01*
X144300500Y-126087648D01*
X145699500Y-126087648D01*
X145699500Y-126292351D01*
X145731522Y-126494534D01*
X145794781Y-126689223D01*
X145887715Y-126871613D01*
X146008028Y-127037213D01*
X146152786Y-127181971D01*
X146307749Y-127294556D01*
X146318390Y-127302287D01*
X146403652Y-127345730D01*
X146500776Y-127395218D01*
X146500778Y-127395218D01*
X146500781Y-127395220D01*
X146605137Y-127429127D01*
X146695465Y-127458477D01*
X146796557Y-127474488D01*
X146897648Y-127490500D01*
X146897649Y-127490500D01*
X147102351Y-127490500D01*
X147102352Y-127490500D01*
X147304534Y-127458477D01*
X147499219Y-127395220D01*
X147681610Y-127302287D01*
X147774590Y-127234732D01*
X147847213Y-127181971D01*
X147847215Y-127181968D01*
X147847219Y-127181966D01*
X147991966Y-127037219D01*
X147991968Y-127037215D01*
X147991971Y-127037213D01*
X148091093Y-126900781D01*
X148112287Y-126871610D01*
X148205220Y-126689219D01*
X148268477Y-126494534D01*
X148300500Y-126292352D01*
X148300500Y-126087648D01*
X149699500Y-126087648D01*
X149699500Y-126292351D01*
X149731522Y-126494534D01*
X149794781Y-126689223D01*
X149887715Y-126871613D01*
X150008028Y-127037213D01*
X150152786Y-127181971D01*
X150307749Y-127294556D01*
X150318390Y-127302287D01*
X150403652Y-127345730D01*
X150500776Y-127395218D01*
X150500778Y-127395218D01*
X150500781Y-127395220D01*
X150605137Y-127429127D01*
X150695465Y-127458477D01*
X150796557Y-127474488D01*
X150897648Y-127490500D01*
X150897649Y-127490500D01*
X151102351Y-127490500D01*
X151102352Y-127490500D01*
X151304534Y-127458477D01*
X151499219Y-127395220D01*
X151681610Y-127302287D01*
X151774590Y-127234732D01*
X151847213Y-127181971D01*
X151847215Y-127181968D01*
X151847219Y-127181966D01*
X151991966Y-127037219D01*
X151991968Y-127037215D01*
X151991971Y-127037213D01*
X152091093Y-126900781D01*
X152112287Y-126871610D01*
X152205220Y-126689219D01*
X152268477Y-126494534D01*
X152300500Y-126292352D01*
X152300500Y-126087648D01*
X153699500Y-126087648D01*
X153699500Y-126292351D01*
X153731522Y-126494534D01*
X153794781Y-126689223D01*
X153887715Y-126871613D01*
X154008028Y-127037213D01*
X154152786Y-127181971D01*
X154307749Y-127294556D01*
X154318390Y-127302287D01*
X154403652Y-127345730D01*
X154500776Y-127395218D01*
X154500778Y-127395218D01*
X154500781Y-127395220D01*
X154605137Y-127429127D01*
X154695465Y-127458477D01*
X154796557Y-127474488D01*
X154897648Y-127490500D01*
X154897649Y-127490500D01*
X155102351Y-127490500D01*
X155102352Y-127490500D01*
X155304534Y-127458477D01*
X155499219Y-127395220D01*
X155681610Y-127302287D01*
X155774590Y-127234732D01*
X155847213Y-127181971D01*
X155847215Y-127181968D01*
X155847219Y-127181966D01*
X155991966Y-127037219D01*
X155991968Y-127037215D01*
X155991971Y-127037213D01*
X156091093Y-126900781D01*
X156112287Y-126871610D01*
X156205220Y-126689219D01*
X156268477Y-126494534D01*
X156300500Y-126292352D01*
X156300500Y-126087648D01*
X156268477Y-125885466D01*
X156205220Y-125690781D01*
X156205218Y-125690778D01*
X156205218Y-125690776D01*
X156169570Y-125620814D01*
X156112287Y-125508390D01*
X156098713Y-125489707D01*
X155991971Y-125342786D01*
X155847213Y-125198028D01*
X155681613Y-125077715D01*
X155681612Y-125077714D01*
X155681610Y-125077713D01*
X155624653Y-125048691D01*
X155499223Y-124984781D01*
X155304534Y-124921522D01*
X155129995Y-124893878D01*
X155102352Y-124889500D01*
X154897648Y-124889500D01*
X154873329Y-124893351D01*
X154695465Y-124921522D01*
X154500776Y-124984781D01*
X154318386Y-125077715D01*
X154152786Y-125198028D01*
X154008028Y-125342786D01*
X153887715Y-125508386D01*
X153794781Y-125690776D01*
X153731522Y-125885465D01*
X153699500Y-126087648D01*
X152300500Y-126087648D01*
X152268477Y-125885466D01*
X152205220Y-125690781D01*
X152205218Y-125690778D01*
X152205218Y-125690776D01*
X152169570Y-125620814D01*
X152112287Y-125508390D01*
X152098713Y-125489707D01*
X151991971Y-125342786D01*
X151847213Y-125198028D01*
X151681613Y-125077715D01*
X151681612Y-125077714D01*
X151681610Y-125077713D01*
X151624653Y-125048691D01*
X151499223Y-124984781D01*
X151304534Y-124921522D01*
X151129995Y-124893878D01*
X151102352Y-124889500D01*
X150897648Y-124889500D01*
X150873329Y-124893351D01*
X150695465Y-124921522D01*
X150500776Y-124984781D01*
X150318386Y-125077715D01*
X150152786Y-125198028D01*
X150008028Y-125342786D01*
X149887715Y-125508386D01*
X149794781Y-125690776D01*
X149731522Y-125885465D01*
X149699500Y-126087648D01*
X148300500Y-126087648D01*
X148268477Y-125885466D01*
X148205220Y-125690781D01*
X148205218Y-125690778D01*
X148205218Y-125690776D01*
X148169570Y-125620814D01*
X148112287Y-125508390D01*
X148098713Y-125489707D01*
X147991971Y-125342786D01*
X147847213Y-125198028D01*
X147681613Y-125077715D01*
X147681612Y-125077714D01*
X147681610Y-125077713D01*
X147624653Y-125048691D01*
X147499223Y-124984781D01*
X147304534Y-124921522D01*
X147129995Y-124893878D01*
X147102352Y-124889500D01*
X146897648Y-124889500D01*
X146873329Y-124893351D01*
X146695465Y-124921522D01*
X146500776Y-124984781D01*
X146318386Y-125077715D01*
X146152786Y-125198028D01*
X146008028Y-125342786D01*
X145887715Y-125508386D01*
X145794781Y-125690776D01*
X145731522Y-125885465D01*
X145699500Y-126087648D01*
X144300500Y-126087648D01*
X144268477Y-125885466D01*
X144205220Y-125690781D01*
X144205218Y-125690778D01*
X144205218Y-125690776D01*
X144169570Y-125620814D01*
X144112287Y-125508390D01*
X144098713Y-125489707D01*
X143991971Y-125342786D01*
X143847213Y-125198028D01*
X143681613Y-125077715D01*
X143681612Y-125077714D01*
X143681610Y-125077713D01*
X143624653Y-125048691D01*
X143499223Y-124984781D01*
X143304534Y-124921522D01*
X143129995Y-124893878D01*
X143102352Y-124889500D01*
X142897648Y-124889500D01*
X142873329Y-124893351D01*
X142695465Y-124921522D01*
X142500776Y-124984781D01*
X142318386Y-125077715D01*
X142152786Y-125198028D01*
X142008028Y-125342786D01*
X141887715Y-125508386D01*
X141794781Y-125690776D01*
X141731522Y-125885465D01*
X141699500Y-126087648D01*
X140300500Y-126087648D01*
X140268477Y-125885466D01*
X140205220Y-125690781D01*
X140205218Y-125690778D01*
X140205218Y-125690776D01*
X140169570Y-125620814D01*
X140112287Y-125508390D01*
X140098713Y-125489707D01*
X139991971Y-125342786D01*
X139847213Y-125198028D01*
X139681613Y-125077715D01*
X139681612Y-125077714D01*
X139681610Y-125077713D01*
X139624653Y-125048691D01*
X139499223Y-124984781D01*
X139304534Y-124921522D01*
X139129995Y-124893878D01*
X139102352Y-124889500D01*
X138897648Y-124889500D01*
X138873329Y-124893351D01*
X138695465Y-124921522D01*
X138500776Y-124984781D01*
X138318386Y-125077715D01*
X138152786Y-125198028D01*
X138008028Y-125342786D01*
X137887715Y-125508386D01*
X137794781Y-125690776D01*
X137731522Y-125885465D01*
X137699500Y-126087648D01*
X123350500Y-126087648D01*
X123350500Y-124432631D01*
X123370185Y-124365592D01*
X123422989Y-124319837D01*
X123492147Y-124309893D01*
X123512803Y-124314696D01*
X123643757Y-124357246D01*
X123853713Y-124390500D01*
X123853714Y-124390500D01*
X124066286Y-124390500D01*
X124066287Y-124390500D01*
X124276243Y-124357246D01*
X124478412Y-124291557D01*
X124667816Y-124195051D01*
X124722572Y-124155269D01*
X124839786Y-124070109D01*
X124839788Y-124070106D01*
X124839792Y-124070104D01*
X124990104Y-123919792D01*
X124993660Y-123914896D01*
X125048987Y-123872230D01*
X125118600Y-123866248D01*
X125180397Y-123898851D01*
X125211686Y-123948772D01*
X125215186Y-123959334D01*
X125307288Y-124108656D01*
X125431344Y-124232712D01*
X125580666Y-124324814D01*
X125747203Y-124379999D01*
X125849991Y-124390500D01*
X127150008Y-124390499D01*
X127252797Y-124379999D01*
X127419334Y-124324814D01*
X127568656Y-124232712D01*
X127692712Y-124108656D01*
X127784814Y-123959334D01*
X127839999Y-123792797D01*
X127850500Y-123690009D01*
X127850499Y-122564499D01*
X127870184Y-122497461D01*
X127922987Y-122451706D01*
X127974499Y-122440500D01*
X128323331Y-122440500D01*
X128323347Y-122440501D01*
X128330943Y-122440501D01*
X128489054Y-122440501D01*
X128489057Y-122440501D01*
X128641785Y-122399577D01*
X128691904Y-122370639D01*
X128778716Y-122320520D01*
X128890520Y-122208716D01*
X128890520Y-122208714D01*
X128900728Y-122198507D01*
X128900729Y-122198504D01*
X130962417Y-120136819D01*
X131023740Y-120103334D01*
X131050098Y-120100500D01*
X135286223Y-120100500D01*
X135353262Y-120120185D01*
X135396707Y-120168204D01*
X135423567Y-120220919D01*
X135550828Y-120396078D01*
X135550830Y-120396080D01*
X135603546Y-120448796D01*
X135637031Y-120510119D01*
X135632047Y-120579811D01*
X135590175Y-120635744D01*
X135559199Y-120652658D01*
X135482675Y-120681200D01*
X135482664Y-120681206D01*
X135367455Y-120767452D01*
X135367452Y-120767455D01*
X135281206Y-120882664D01*
X135281202Y-120882671D01*
X135230908Y-121017517D01*
X135224501Y-121077116D01*
X135224501Y-121077123D01*
X135224500Y-121077135D01*
X135224500Y-122922870D01*
X135224501Y-122922876D01*
X135230908Y-122982483D01*
X135281202Y-123117328D01*
X135281206Y-123117335D01*
X135367452Y-123232544D01*
X135367455Y-123232547D01*
X135482664Y-123318793D01*
X135482671Y-123318797D01*
X135617517Y-123369091D01*
X135617516Y-123369091D01*
X135624444Y-123369835D01*
X135677127Y-123375500D01*
X137522872Y-123375499D01*
X137582483Y-123369091D01*
X137717331Y-123318796D01*
X137832546Y-123232546D01*
X137918796Y-123117331D01*
X137969091Y-122982483D01*
X137975500Y-122922873D01*
X137975499Y-121077128D01*
X137970299Y-121028757D01*
X137969091Y-121017516D01*
X137918797Y-120882671D01*
X137918793Y-120882664D01*
X137832547Y-120767455D01*
X137832544Y-120767452D01*
X137717335Y-120681206D01*
X137717329Y-120681203D01*
X137640800Y-120652659D01*
X137584867Y-120610787D01*
X137560450Y-120545323D01*
X137575302Y-120477050D01*
X137596451Y-120448798D01*
X137649172Y-120396078D01*
X137776433Y-120220919D01*
X137803292Y-120168204D01*
X137851267Y-120117409D01*
X137913777Y-120100500D01*
X143411223Y-120100500D01*
X143478262Y-120120185D01*
X143521707Y-120168204D01*
X143548567Y-120220919D01*
X143675828Y-120396078D01*
X143675830Y-120396080D01*
X143728546Y-120448796D01*
X143762031Y-120510119D01*
X143757047Y-120579811D01*
X143715175Y-120635744D01*
X143684199Y-120652658D01*
X143607675Y-120681200D01*
X143607664Y-120681206D01*
X143492455Y-120767452D01*
X143492452Y-120767455D01*
X143406206Y-120882664D01*
X143406202Y-120882671D01*
X143355908Y-121017517D01*
X143349501Y-121077116D01*
X143349501Y-121077123D01*
X143349500Y-121077135D01*
X143349500Y-122922870D01*
X143349501Y-122922876D01*
X143355908Y-122982483D01*
X143406202Y-123117328D01*
X143406206Y-123117335D01*
X143492452Y-123232544D01*
X143492455Y-123232547D01*
X143607664Y-123318793D01*
X143607671Y-123318797D01*
X143742517Y-123369091D01*
X143742516Y-123369091D01*
X143749444Y-123369835D01*
X143802127Y-123375500D01*
X145647872Y-123375499D01*
X145707483Y-123369091D01*
X145842331Y-123318796D01*
X145957546Y-123232546D01*
X146043796Y-123117331D01*
X146094091Y-122982483D01*
X146100500Y-122922873D01*
X146100499Y-121077128D01*
X146095299Y-121028757D01*
X146094091Y-121017516D01*
X146043797Y-120882671D01*
X146043793Y-120882664D01*
X145957547Y-120767455D01*
X145957544Y-120767452D01*
X145842335Y-120681206D01*
X145842329Y-120681203D01*
X145765800Y-120652659D01*
X145709867Y-120610787D01*
X145685450Y-120545323D01*
X145700302Y-120477050D01*
X145721451Y-120448798D01*
X145774172Y-120396078D01*
X145901433Y-120220919D01*
X145928292Y-120168204D01*
X145976267Y-120117409D01*
X146038777Y-120100500D01*
X151306878Y-120100500D01*
X151308291Y-120100915D01*
X151309716Y-120100532D01*
X151341734Y-120110735D01*
X151373917Y-120120185D01*
X151375334Y-120121442D01*
X151376288Y-120121746D01*
X151383088Y-120128317D01*
X151402425Y-120145464D01*
X151404910Y-120148468D01*
X151475828Y-120246078D01*
X151532682Y-120302932D01*
X151536412Y-120307441D01*
X151547980Y-120334386D01*
X151562031Y-120360119D01*
X151561602Y-120366116D01*
X151563975Y-120371644D01*
X151559138Y-120400566D01*
X151557047Y-120429811D01*
X151553442Y-120434625D01*
X151552451Y-120440557D01*
X151532745Y-120462273D01*
X151515175Y-120485744D01*
X151507787Y-120489777D01*
X151505499Y-120492300D01*
X151500906Y-120493534D01*
X151484199Y-120502658D01*
X151407675Y-120531200D01*
X151407664Y-120531206D01*
X151292455Y-120617452D01*
X151292452Y-120617455D01*
X151206206Y-120732664D01*
X151206202Y-120732671D01*
X151155908Y-120867517D01*
X151149501Y-120927116D01*
X151149501Y-120927123D01*
X151149500Y-120927135D01*
X151149500Y-122772870D01*
X151149501Y-122772876D01*
X151155908Y-122832483D01*
X151206202Y-122967328D01*
X151206206Y-122967335D01*
X151292452Y-123082544D01*
X151292455Y-123082547D01*
X151407664Y-123168793D01*
X151407671Y-123168797D01*
X151542517Y-123219091D01*
X151542516Y-123219091D01*
X151549444Y-123219835D01*
X151602127Y-123225500D01*
X153447872Y-123225499D01*
X153507483Y-123219091D01*
X153642331Y-123168796D01*
X153757546Y-123082546D01*
X153843796Y-122967331D01*
X153894091Y-122832483D01*
X153900500Y-122772873D01*
X153900499Y-120927128D01*
X153894091Y-120867517D01*
X153856770Y-120767455D01*
X153843797Y-120732671D01*
X153843793Y-120732664D01*
X153757547Y-120617455D01*
X153757544Y-120617452D01*
X153642335Y-120531206D01*
X153642329Y-120531203D01*
X153565800Y-120502659D01*
X153542324Y-120485085D01*
X153517304Y-120469803D01*
X153514681Y-120464390D01*
X153509867Y-120460787D01*
X153499620Y-120433315D01*
X153486832Y-120406928D01*
X153487551Y-120400957D01*
X153485450Y-120395323D01*
X153491681Y-120366675D01*
X153495190Y-120337560D01*
X153499352Y-120331416D01*
X153500302Y-120327050D01*
X153513587Y-120307440D01*
X153517306Y-120302943D01*
X153574172Y-120246078D01*
X153645096Y-120148459D01*
X153647575Y-120145463D01*
X153673428Y-120127999D01*
X153698134Y-120108949D01*
X153702978Y-120108039D01*
X153705473Y-120106354D01*
X153712850Y-120106185D01*
X153743122Y-120100500D01*
X159086223Y-120100500D01*
X159153262Y-120120185D01*
X159196707Y-120168204D01*
X159223567Y-120220919D01*
X159350828Y-120396078D01*
X159350830Y-120396080D01*
X159403546Y-120448796D01*
X159437031Y-120510119D01*
X159432047Y-120579811D01*
X159390175Y-120635744D01*
X159359199Y-120652658D01*
X159282675Y-120681200D01*
X159282664Y-120681206D01*
X159167455Y-120767452D01*
X159167452Y-120767455D01*
X159081206Y-120882664D01*
X159081202Y-120882671D01*
X159030908Y-121017517D01*
X159024501Y-121077116D01*
X159024501Y-121077123D01*
X159024500Y-121077135D01*
X159024500Y-122922870D01*
X159024501Y-122922876D01*
X159030908Y-122982483D01*
X159081202Y-123117328D01*
X159081206Y-123117335D01*
X159167452Y-123232544D01*
X159167455Y-123232547D01*
X159282664Y-123318793D01*
X159282671Y-123318797D01*
X159417517Y-123369091D01*
X159417516Y-123369091D01*
X159424444Y-123369835D01*
X159477127Y-123375500D01*
X161322872Y-123375499D01*
X161382483Y-123369091D01*
X161517331Y-123318796D01*
X161632546Y-123232546D01*
X161718796Y-123117331D01*
X161769091Y-122982483D01*
X161775500Y-122922873D01*
X161775499Y-121077128D01*
X161770299Y-121028757D01*
X161769091Y-121017516D01*
X161718797Y-120882671D01*
X161718793Y-120882664D01*
X161632547Y-120767455D01*
X161632544Y-120767452D01*
X161517335Y-120681206D01*
X161517329Y-120681203D01*
X161440800Y-120652659D01*
X161384867Y-120610787D01*
X161360450Y-120545323D01*
X161375302Y-120477050D01*
X161396451Y-120448798D01*
X161449172Y-120396078D01*
X161576433Y-120220919D01*
X161603292Y-120168204D01*
X161651267Y-120117409D01*
X161713777Y-120100500D01*
X166811223Y-120100500D01*
X166878262Y-120120185D01*
X166921707Y-120168204D01*
X166948567Y-120220919D01*
X167075828Y-120396078D01*
X167075830Y-120396080D01*
X167128546Y-120448796D01*
X167162031Y-120510119D01*
X167157047Y-120579811D01*
X167115175Y-120635744D01*
X167084199Y-120652658D01*
X167007675Y-120681200D01*
X167007664Y-120681206D01*
X166892455Y-120767452D01*
X166892452Y-120767455D01*
X166806206Y-120882664D01*
X166806202Y-120882671D01*
X166755908Y-121017517D01*
X166749501Y-121077116D01*
X166749501Y-121077123D01*
X166749500Y-121077135D01*
X166749500Y-122922870D01*
X166749501Y-122922876D01*
X166755908Y-122982483D01*
X166806202Y-123117328D01*
X166806206Y-123117335D01*
X166892452Y-123232544D01*
X166892455Y-123232547D01*
X167007664Y-123318793D01*
X167007671Y-123318797D01*
X167142517Y-123369091D01*
X167142516Y-123369091D01*
X167149444Y-123369835D01*
X167202127Y-123375500D01*
X169047872Y-123375499D01*
X169107483Y-123369091D01*
X169242331Y-123318796D01*
X169357546Y-123232546D01*
X169443796Y-123117331D01*
X169494091Y-122982483D01*
X169500500Y-122922873D01*
X169500499Y-121077128D01*
X169495299Y-121028757D01*
X169494091Y-121017516D01*
X169443797Y-120882671D01*
X169443793Y-120882664D01*
X169357547Y-120767455D01*
X169357544Y-120767452D01*
X169242335Y-120681206D01*
X169242329Y-120681203D01*
X169165800Y-120652659D01*
X169109867Y-120610787D01*
X169085450Y-120545323D01*
X169100302Y-120477050D01*
X169121451Y-120448798D01*
X169174172Y-120396078D01*
X169301433Y-120220919D01*
X169399726Y-120028009D01*
X169466630Y-119822097D01*
X169500500Y-119608254D01*
X169500500Y-119391746D01*
X169466630Y-119177903D01*
X169399726Y-118971991D01*
X169399726Y-118971990D01*
X169328292Y-118831795D01*
X169301433Y-118779081D01*
X169174172Y-118603922D01*
X169021078Y-118450828D01*
X168845919Y-118323567D01*
X168653009Y-118225273D01*
X168653006Y-118225272D01*
X168447098Y-118158370D01*
X168340175Y-118141435D01*
X168233254Y-118124500D01*
X168016746Y-118124500D01*
X167945465Y-118135790D01*
X167802901Y-118158370D01*
X167596993Y-118225272D01*
X167596990Y-118225273D01*
X167404080Y-118323567D01*
X167304145Y-118396174D01*
X167228922Y-118450828D01*
X167228920Y-118450830D01*
X167228919Y-118450830D01*
X167075830Y-118603919D01*
X167075830Y-118603920D01*
X167075828Y-118603922D01*
X167057550Y-118629080D01*
X166948567Y-118779080D01*
X166932141Y-118811316D01*
X166924146Y-118827011D01*
X166921708Y-118831795D01*
X166873733Y-118882591D01*
X166811223Y-118899500D01*
X161713777Y-118899500D01*
X161646738Y-118879815D01*
X161603292Y-118831795D01*
X161576433Y-118779081D01*
X161449172Y-118603922D01*
X161296078Y-118450828D01*
X161120919Y-118323567D01*
X160928009Y-118225273D01*
X160928006Y-118225272D01*
X160722098Y-118158370D01*
X160615175Y-118141435D01*
X160508254Y-118124500D01*
X160291746Y-118124500D01*
X160220465Y-118135790D01*
X160077901Y-118158370D01*
X159871993Y-118225272D01*
X159871990Y-118225273D01*
X159679080Y-118323567D01*
X159579145Y-118396174D01*
X159503922Y-118450828D01*
X159503920Y-118450830D01*
X159503919Y-118450830D01*
X159350830Y-118603919D01*
X159350830Y-118603920D01*
X159350828Y-118603922D01*
X159332550Y-118629080D01*
X159223567Y-118779080D01*
X159207141Y-118811316D01*
X159199146Y-118827011D01*
X159196708Y-118831795D01*
X159148733Y-118882591D01*
X159086223Y-118899500D01*
X153914686Y-118899500D01*
X153847647Y-118879815D01*
X153801892Y-118827011D01*
X153800126Y-118822955D01*
X153799729Y-118821996D01*
X153701432Y-118629080D01*
X153574172Y-118453922D01*
X153421078Y-118300828D01*
X153245919Y-118173567D01*
X153053009Y-118075273D01*
X153053006Y-118075272D01*
X152847098Y-118008370D01*
X152740175Y-117991435D01*
X152633254Y-117974500D01*
X152416746Y-117974500D01*
X152345465Y-117985790D01*
X152202901Y-118008370D01*
X151996993Y-118075272D01*
X151996990Y-118075273D01*
X151804080Y-118173567D01*
X151704145Y-118246174D01*
X151628922Y-118300828D01*
X151628920Y-118300830D01*
X151628919Y-118300830D01*
X151475830Y-118453919D01*
X151475830Y-118453920D01*
X151475828Y-118453922D01*
X151421174Y-118529145D01*
X151348567Y-118629080D01*
X151250270Y-118821996D01*
X151249874Y-118822955D01*
X151249625Y-118823263D01*
X151248062Y-118826332D01*
X151247417Y-118826003D01*
X151206032Y-118877358D01*
X151139737Y-118899421D01*
X151135314Y-118899500D01*
X146038777Y-118899500D01*
X145971738Y-118879815D01*
X145928292Y-118831795D01*
X145901433Y-118779081D01*
X145774172Y-118603922D01*
X145621078Y-118450828D01*
X145445919Y-118323567D01*
X145253009Y-118225273D01*
X145253006Y-118225272D01*
X145047098Y-118158370D01*
X144940175Y-118141435D01*
X144833254Y-118124500D01*
X144616746Y-118124500D01*
X144545465Y-118135790D01*
X144402901Y-118158370D01*
X144196993Y-118225272D01*
X144196990Y-118225273D01*
X144004080Y-118323567D01*
X143904145Y-118396174D01*
X143828922Y-118450828D01*
X143828920Y-118450830D01*
X143828919Y-118450830D01*
X143675830Y-118603919D01*
X143675830Y-118603920D01*
X143675828Y-118603922D01*
X143657550Y-118629080D01*
X143548567Y-118779080D01*
X143532141Y-118811316D01*
X143524146Y-118827011D01*
X143521708Y-118831795D01*
X143473733Y-118882591D01*
X143411223Y-118899500D01*
X137913777Y-118899500D01*
X137846738Y-118879815D01*
X137803292Y-118831795D01*
X137776433Y-118779081D01*
X137649172Y-118603922D01*
X137496078Y-118450828D01*
X137320919Y-118323567D01*
X137128009Y-118225273D01*
X137128006Y-118225272D01*
X136922098Y-118158370D01*
X136815175Y-118141435D01*
X136708254Y-118124500D01*
X136491746Y-118124500D01*
X136420465Y-118135790D01*
X136277901Y-118158370D01*
X136071993Y-118225272D01*
X136071990Y-118225273D01*
X135879080Y-118323567D01*
X135779145Y-118396174D01*
X135703922Y-118450828D01*
X135703920Y-118450830D01*
X135703919Y-118450830D01*
X135550830Y-118603919D01*
X135550830Y-118603920D01*
X135550828Y-118603922D01*
X135532550Y-118629080D01*
X135423567Y-118779080D01*
X135407141Y-118811316D01*
X135399146Y-118827011D01*
X135396708Y-118831795D01*
X135348733Y-118882591D01*
X135286223Y-118899500D01*
X130836670Y-118899500D01*
X130836654Y-118899499D01*
X130829058Y-118899499D01*
X130670943Y-118899499D01*
X130594579Y-118919961D01*
X130518214Y-118940423D01*
X130518209Y-118940426D01*
X130381290Y-119019475D01*
X130381282Y-119019481D01*
X128197584Y-121203181D01*
X128136261Y-121236666D01*
X128109903Y-121239500D01*
X127841257Y-121239500D01*
X127774218Y-121219815D01*
X127728463Y-121167011D01*
X127718519Y-121097853D01*
X127730772Y-121059205D01*
X127731538Y-121057699D01*
X127751557Y-121018412D01*
X127817246Y-120816243D01*
X127850500Y-120606287D01*
X127850500Y-120393713D01*
X127817246Y-120183757D01*
X127751557Y-119981588D01*
X127655051Y-119792184D01*
X127655049Y-119792181D01*
X127655048Y-119792179D01*
X127530109Y-119620213D01*
X127379786Y-119469890D01*
X127207820Y-119344951D01*
X127018414Y-119248444D01*
X127018413Y-119248443D01*
X127018412Y-119248443D01*
X126816243Y-119182754D01*
X126816241Y-119182753D01*
X126816240Y-119182753D01*
X126654957Y-119157208D01*
X126606287Y-119149500D01*
X126393713Y-119149500D01*
X126345042Y-119157208D01*
X126183760Y-119182753D01*
X125981585Y-119248444D01*
X125792179Y-119344951D01*
X125620213Y-119469890D01*
X125469890Y-119620213D01*
X125344949Y-119792182D01*
X125340484Y-119800946D01*
X125292509Y-119851742D01*
X125224688Y-119868536D01*
X125158553Y-119845998D01*
X125119516Y-119800946D01*
X125115050Y-119792182D01*
X124990109Y-119620213D01*
X124839786Y-119469890D01*
X124667820Y-119344951D01*
X124478414Y-119248444D01*
X124478413Y-119248443D01*
X124478412Y-119248443D01*
X124377327Y-119215598D01*
X124276241Y-119182753D01*
X124224368Y-119174537D01*
X124161234Y-119144606D01*
X124156087Y-119139745D01*
X122576930Y-117560588D01*
X122576928Y-117560586D01*
X122436788Y-117458768D01*
X122282445Y-117380127D01*
X122117701Y-117326598D01*
X122117699Y-117326597D01*
X122117698Y-117326597D01*
X121986271Y-117305781D01*
X121946611Y-117299500D01*
X116513389Y-117299500D01*
X116473728Y-117305781D01*
X116342302Y-117326597D01*
X116177552Y-117380128D01*
X116023211Y-117458768D01*
X115943256Y-117516859D01*
X115883072Y-117560586D01*
X115883070Y-117560588D01*
X115883069Y-117560588D01*
X113660585Y-119783072D01*
X113624817Y-119832303D01*
X113569487Y-119874968D01*
X113499873Y-119880946D01*
X113438079Y-119848339D01*
X113403722Y-119787500D01*
X113400500Y-119759416D01*
X113400500Y-117124500D01*
X113420185Y-117057461D01*
X113472989Y-117011706D01*
X113524500Y-117000500D01*
X170475500Y-117000500D01*
X170542539Y-117020185D01*
G37*
%TD.AperFunction*%
%TA.AperFunction,Conductor*%
G36*
X117760544Y-119520185D02*
G01*
X117806299Y-119572989D01*
X117816243Y-119642147D01*
X117793823Y-119697385D01*
X117724951Y-119792179D01*
X117628444Y-119981585D01*
X117562753Y-120183760D01*
X117538394Y-120337560D01*
X117529500Y-120393713D01*
X117529500Y-120606287D01*
X117536845Y-120652659D01*
X117555026Y-120767455D01*
X117562754Y-120816243D01*
X117628152Y-121017517D01*
X117628444Y-121018414D01*
X117724951Y-121207820D01*
X117849890Y-121379786D01*
X118000213Y-121530109D01*
X118172182Y-121655050D01*
X118180946Y-121659516D01*
X118231742Y-121707491D01*
X118248536Y-121775312D01*
X118225998Y-121841447D01*
X118180946Y-121880484D01*
X118172182Y-121884949D01*
X118000213Y-122009890D01*
X117849890Y-122160213D01*
X117724951Y-122332179D01*
X117628444Y-122521585D01*
X117562753Y-122723760D01*
X117545533Y-122832483D01*
X117529500Y-122933713D01*
X117529500Y-123146287D01*
X117562754Y-123356243D01*
X117569010Y-123375498D01*
X117628444Y-123558414D01*
X117724951Y-123747820D01*
X117849890Y-123919786D01*
X118000213Y-124070109D01*
X118172179Y-124195048D01*
X118172181Y-124195049D01*
X118172184Y-124195051D01*
X118361588Y-124291557D01*
X118563757Y-124357246D01*
X118773713Y-124390500D01*
X118773714Y-124390500D01*
X118986286Y-124390500D01*
X118986287Y-124390500D01*
X119196243Y-124357246D01*
X119398412Y-124291557D01*
X119587816Y-124195051D01*
X119642572Y-124155269D01*
X119759786Y-124070109D01*
X119759788Y-124070106D01*
X119759792Y-124070104D01*
X119910104Y-123919792D01*
X119910106Y-123919788D01*
X119910109Y-123919786D01*
X119977515Y-123827007D01*
X120035051Y-123747816D01*
X120039793Y-123738508D01*
X120087763Y-123687711D01*
X120155583Y-123670911D01*
X120221719Y-123693445D01*
X120260763Y-123738500D01*
X120265373Y-123747547D01*
X120304728Y-123801716D01*
X120937037Y-123169408D01*
X120954075Y-123232993D01*
X121019901Y-123347007D01*
X121112993Y-123440099D01*
X121227007Y-123505925D01*
X121290589Y-123522962D01*
X120658282Y-124155269D01*
X120658282Y-124155270D01*
X120712449Y-124194624D01*
X120901782Y-124291095D01*
X121103870Y-124356757D01*
X121313754Y-124390000D01*
X121526246Y-124390000D01*
X121736127Y-124356757D01*
X121736130Y-124356757D01*
X121938219Y-124291094D01*
X121969204Y-124275307D01*
X122037873Y-124262410D01*
X122102614Y-124288686D01*
X122142871Y-124345791D01*
X122149500Y-124385791D01*
X122149500Y-125113444D01*
X122129815Y-125180483D01*
X122077011Y-125226238D01*
X122007853Y-125236182D01*
X121989575Y-125231202D01*
X121989324Y-125232031D01*
X121983500Y-125230264D01*
X121983497Y-125230263D01*
X121983492Y-125230262D01*
X121983489Y-125230261D01*
X121828845Y-125199500D01*
X121828842Y-125199500D01*
X121671158Y-125199500D01*
X121671155Y-125199500D01*
X121516510Y-125230261D01*
X121516498Y-125230264D01*
X121370827Y-125290602D01*
X121370814Y-125290609D01*
X121239711Y-125378210D01*
X121239707Y-125378213D01*
X121128213Y-125489707D01*
X121128210Y-125489711D01*
X121040609Y-125620814D01*
X121040602Y-125620827D01*
X120980264Y-125766498D01*
X120980261Y-125766510D01*
X120949500Y-125921153D01*
X120949500Y-126078846D01*
X120980261Y-126233489D01*
X120980264Y-126233501D01*
X121040602Y-126379172D01*
X121040609Y-126379185D01*
X121128602Y-126510874D01*
X121149480Y-126577551D01*
X121149500Y-126579765D01*
X121149500Y-128200953D01*
X121129815Y-128267992D01*
X121077011Y-128313747D01*
X121007853Y-128323691D01*
X120944297Y-128294666D01*
X120937819Y-128288634D01*
X120847213Y-128198028D01*
X120681613Y-128077715D01*
X120681612Y-128077714D01*
X120681610Y-128077713D01*
X120587733Y-128029880D01*
X120499223Y-127984781D01*
X120304534Y-127921522D01*
X120129995Y-127893878D01*
X120102352Y-127889500D01*
X119897648Y-127889500D01*
X119873329Y-127893351D01*
X119695465Y-127921522D01*
X119500776Y-127984781D01*
X119318386Y-128077715D01*
X119152786Y-128198028D01*
X119008028Y-128342786D01*
X118887715Y-128508386D01*
X118794781Y-128690776D01*
X118731522Y-128885465D01*
X118699500Y-129087648D01*
X118699500Y-129292351D01*
X118731522Y-129494534D01*
X118794781Y-129689223D01*
X118812985Y-129724949D01*
X118879382Y-129855260D01*
X118887715Y-129871613D01*
X119008028Y-130037213D01*
X119152786Y-130181971D01*
X119307749Y-130294556D01*
X119318390Y-130302287D01*
X119434607Y-130361503D01*
X119500776Y-130395218D01*
X119500778Y-130395218D01*
X119500781Y-130395220D01*
X119605137Y-130429127D01*
X119695465Y-130458477D01*
X119796557Y-130474488D01*
X119897648Y-130490500D01*
X119897649Y-130490500D01*
X120102351Y-130490500D01*
X120102352Y-130490500D01*
X120304534Y-130458477D01*
X120499219Y-130395220D01*
X120681610Y-130302287D01*
X120781118Y-130229991D01*
X120847213Y-130181971D01*
X120847215Y-130181968D01*
X120847219Y-130181966D01*
X120937819Y-130091366D01*
X120999142Y-130057881D01*
X121068834Y-130062865D01*
X121124767Y-130104737D01*
X121149184Y-130170201D01*
X121149500Y-130179047D01*
X121149500Y-131438330D01*
X121149499Y-131438348D01*
X121149499Y-131604054D01*
X121149498Y-131604054D01*
X121149499Y-131604057D01*
X121190423Y-131756785D01*
X121190424Y-131756787D01*
X121190423Y-131756787D01*
X121197023Y-131768217D01*
X121197024Y-131768218D01*
X121269477Y-131893712D01*
X121269481Y-131893717D01*
X121388349Y-132012585D01*
X121388355Y-132012590D01*
X122268299Y-132892535D01*
X122301784Y-132953858D01*
X122296892Y-133022249D01*
X122297106Y-133022322D01*
X122296829Y-133023136D01*
X122296800Y-133023550D01*
X122295994Y-133025597D01*
X122295803Y-133026160D01*
X122261724Y-133153341D01*
X122244500Y-133284166D01*
X122244500Y-133850002D01*
X122249644Y-133921939D01*
X122260603Y-133959262D01*
X122264363Y-134011841D01*
X122244500Y-134149998D01*
X122244500Y-134715833D01*
X122261470Y-134844727D01*
X122261725Y-134846662D01*
X122295800Y-134973829D01*
X122308504Y-135004500D01*
X122346302Y-135095750D01*
X122346303Y-135095751D01*
X122412120Y-135209749D01*
X122412132Y-135209767D01*
X122491372Y-135313032D01*
X122492459Y-135314449D01*
X122585551Y-135407541D01*
X122585555Y-135407544D01*
X122690232Y-135487867D01*
X122690235Y-135487869D01*
X122690243Y-135487875D01*
X122753252Y-135524253D01*
X122757218Y-135526543D01*
X122805433Y-135577111D01*
X122818655Y-135645718D01*
X122792687Y-135710582D01*
X122768102Y-135734248D01*
X122652787Y-135818028D01*
X122652782Y-135818032D01*
X122508028Y-135962786D01*
X122387715Y-136128386D01*
X122294781Y-136310776D01*
X122231522Y-136505465D01*
X122199500Y-136707648D01*
X122199500Y-136912351D01*
X122231522Y-137114534D01*
X122294781Y-137309223D01*
X122345893Y-137409534D01*
X122363668Y-137444420D01*
X122387715Y-137491613D01*
X122508028Y-137657213D01*
X122652786Y-137801971D01*
X122787026Y-137899500D01*
X122818390Y-137922287D01*
X122934607Y-137981503D01*
X123000776Y-138015218D01*
X123000778Y-138015218D01*
X123000781Y-138015220D01*
X123105137Y-138049127D01*
X123195465Y-138078477D01*
X123296557Y-138094488D01*
X123397648Y-138110500D01*
X123397649Y-138110500D01*
X123602351Y-138110500D01*
X123602352Y-138110500D01*
X123804534Y-138078477D01*
X123999219Y-138015220D01*
X124181610Y-137922287D01*
X124286614Y-137845998D01*
X124347213Y-137801971D01*
X124347215Y-137801968D01*
X124347219Y-137801966D01*
X124491966Y-137657219D01*
X124491968Y-137657215D01*
X124491971Y-137657213D01*
X124544732Y-137584590D01*
X124612287Y-137491610D01*
X124705220Y-137309219D01*
X124768477Y-137114534D01*
X124800500Y-136912352D01*
X124800500Y-136707648D01*
X124791740Y-136652339D01*
X124768477Y-136505465D01*
X124721244Y-136360099D01*
X124705220Y-136310781D01*
X124705218Y-136310778D01*
X124705218Y-136310776D01*
X124660092Y-136222212D01*
X124612287Y-136128390D01*
X124567167Y-136066287D01*
X124491971Y-135962786D01*
X124347219Y-135818034D01*
X124330347Y-135805776D01*
X124231895Y-135734247D01*
X124189231Y-135678919D01*
X124183252Y-135609306D01*
X124215857Y-135547510D01*
X124242782Y-135526543D01*
X124246748Y-135524253D01*
X124309757Y-135487875D01*
X124414449Y-135407541D01*
X124507541Y-135314449D01*
X124587875Y-135209757D01*
X124653701Y-135095743D01*
X124704200Y-134973829D01*
X124738275Y-134846662D01*
X124755500Y-134715826D01*
X124755500Y-134150000D01*
X124750355Y-134078060D01*
X124739396Y-134040740D01*
X124735636Y-133988158D01*
X124737088Y-133978059D01*
X124755500Y-133850000D01*
X124755500Y-133284174D01*
X124738275Y-133153338D01*
X124704200Y-133026171D01*
X124653701Y-132904257D01*
X124653698Y-132904252D01*
X124653697Y-132904249D01*
X124653696Y-132904248D01*
X124587879Y-132790250D01*
X124587875Y-132790243D01*
X124586565Y-132788536D01*
X124507544Y-132685555D01*
X124507541Y-132685551D01*
X124414449Y-132592459D01*
X124411449Y-132590157D01*
X124309767Y-132512132D01*
X124309749Y-132512120D01*
X124195751Y-132446303D01*
X124195750Y-132446302D01*
X124113228Y-132412120D01*
X124073829Y-132395800D01*
X123946662Y-132361725D01*
X123946661Y-132361724D01*
X123946658Y-132361724D01*
X123815833Y-132344500D01*
X123815826Y-132344500D01*
X123470098Y-132344500D01*
X123403059Y-132324815D01*
X123382417Y-132308181D01*
X122386819Y-131312583D01*
X122353334Y-131251260D01*
X122350500Y-131224902D01*
X122350500Y-130179047D01*
X122370185Y-130112008D01*
X122422989Y-130066253D01*
X122492147Y-130056309D01*
X122555703Y-130085334D01*
X122562181Y-130091366D01*
X122652786Y-130181971D01*
X122807749Y-130294556D01*
X122818390Y-130302287D01*
X122934607Y-130361503D01*
X123000776Y-130395218D01*
X123000778Y-130395218D01*
X123000781Y-130395220D01*
X123105137Y-130429127D01*
X123195465Y-130458477D01*
X123296557Y-130474488D01*
X123397648Y-130490500D01*
X123397649Y-130490500D01*
X123602351Y-130490500D01*
X123602352Y-130490500D01*
X123804534Y-130458477D01*
X123999219Y-130395220D01*
X124181610Y-130302287D01*
X124281118Y-130229991D01*
X124347213Y-130181971D01*
X124347215Y-130181968D01*
X124347219Y-130181966D01*
X124491966Y-130037219D01*
X124491968Y-130037215D01*
X124491971Y-130037213D01*
X124612286Y-129871611D01*
X124612287Y-129871610D01*
X124695397Y-129708496D01*
X124743370Y-129657702D01*
X124811191Y-129640906D01*
X124877326Y-129663443D01*
X124893562Y-129677111D01*
X125363181Y-130146730D01*
X125396666Y-130208053D01*
X125399500Y-130234411D01*
X125399500Y-131913330D01*
X125399499Y-131913348D01*
X125399499Y-132079054D01*
X125399498Y-132079054D01*
X125417086Y-132144692D01*
X125440423Y-132231785D01*
X125457709Y-132261725D01*
X125469358Y-132281900D01*
X125469359Y-132281904D01*
X125469360Y-132281904D01*
X125519479Y-132368714D01*
X125519481Y-132368717D01*
X125638349Y-132487585D01*
X125638355Y-132487590D01*
X127515139Y-134364374D01*
X127515149Y-134364385D01*
X127519479Y-134368715D01*
X127519480Y-134368716D01*
X127631284Y-134480520D01*
X127717479Y-134530284D01*
X127768211Y-134559575D01*
X127768215Y-134559577D01*
X127920943Y-134600500D01*
X128079057Y-134600500D01*
X133413331Y-134600500D01*
X133413347Y-134600501D01*
X133420943Y-134600501D01*
X133579054Y-134600501D01*
X133579057Y-134600501D01*
X133731785Y-134559577D01*
X133747507Y-134550500D01*
X133782498Y-134530298D01*
X133782509Y-134530290D01*
X133782521Y-134530284D01*
X133868716Y-134480520D01*
X133980520Y-134368716D01*
X133980520Y-134368714D01*
X133990724Y-134358511D01*
X133990727Y-134358506D01*
X135712416Y-132636819D01*
X135773739Y-132603334D01*
X135800097Y-132600500D01*
X137639960Y-132600500D01*
X137706999Y-132620185D01*
X137752754Y-132672989D01*
X137762698Y-132742147D01*
X137756142Y-132767833D01*
X137705908Y-132902517D01*
X137700683Y-132951122D01*
X137699501Y-132962123D01*
X137699500Y-132962135D01*
X137699500Y-134657870D01*
X137699501Y-134657876D01*
X137705908Y-134717483D01*
X137756202Y-134852328D01*
X137756206Y-134852335D01*
X137813747Y-134929199D01*
X137842454Y-134967546D01*
X137910212Y-135018270D01*
X137952082Y-135074202D01*
X137957066Y-135143894D01*
X137923581Y-135205217D01*
X137908785Y-135217853D01*
X137777787Y-135313028D01*
X137777782Y-135313032D01*
X137633028Y-135457786D01*
X137512715Y-135623386D01*
X137419781Y-135805776D01*
X137356522Y-136000465D01*
X137324500Y-136202648D01*
X137324500Y-136317795D01*
X137304815Y-136384834D01*
X137288181Y-136405476D01*
X135991207Y-137702449D01*
X135941845Y-137732699D01*
X135750776Y-137794781D01*
X135568386Y-137887715D01*
X135402786Y-138008028D01*
X135258028Y-138152786D01*
X135137715Y-138318386D01*
X135044781Y-138500776D01*
X134981522Y-138695465D01*
X134949500Y-138897648D01*
X134949500Y-139102351D01*
X134981522Y-139304534D01*
X135044781Y-139499223D01*
X135097941Y-139603553D01*
X135124180Y-139655051D01*
X135137715Y-139681613D01*
X135258028Y-139847213D01*
X135402786Y-139991971D01*
X135557749Y-140104556D01*
X135568390Y-140112287D01*
X135684607Y-140171503D01*
X135750776Y-140205218D01*
X135750778Y-140205218D01*
X135750781Y-140205220D01*
X135855137Y-140239127D01*
X135945465Y-140268477D01*
X136046557Y-140284488D01*
X136147648Y-140300500D01*
X136147649Y-140300500D01*
X136352351Y-140300500D01*
X136352352Y-140300500D01*
X136554534Y-140268477D01*
X136749219Y-140205220D01*
X136931610Y-140112287D01*
X137028098Y-140042185D01*
X137097213Y-139991971D01*
X137097215Y-139991968D01*
X137097219Y-139991966D01*
X137241966Y-139847219D01*
X137241968Y-139847215D01*
X137241971Y-139847213D01*
X137311469Y-139751555D01*
X137362287Y-139681610D01*
X137455220Y-139499219D01*
X137517301Y-139308150D01*
X137547549Y-139258791D01*
X138372822Y-138433518D01*
X138434143Y-138400035D01*
X138479894Y-138398728D01*
X138522648Y-138405500D01*
X138522653Y-138405500D01*
X138727351Y-138405500D01*
X138727352Y-138405500D01*
X138929534Y-138373477D01*
X139124219Y-138310220D01*
X139306610Y-138217287D01*
X139415546Y-138138141D01*
X139472213Y-138096971D01*
X139472215Y-138096968D01*
X139472219Y-138096966D01*
X139616966Y-137952219D01*
X139616968Y-137952215D01*
X139616971Y-137952213D01*
X139737284Y-137786614D01*
X139737286Y-137786611D01*
X139737287Y-137786610D01*
X139784516Y-137693917D01*
X139832489Y-137643123D01*
X139900310Y-137626328D01*
X139966445Y-137648865D01*
X140005483Y-137693917D01*
X140024645Y-137731523D01*
X140052715Y-137786614D01*
X140173028Y-137952213D01*
X140317786Y-138096971D01*
X140472749Y-138209556D01*
X140483390Y-138217287D01*
X140591061Y-138272148D01*
X140665776Y-138310218D01*
X140665778Y-138310218D01*
X140665781Y-138310220D01*
X140754932Y-138339187D01*
X140860465Y-138373477D01*
X140957494Y-138388845D01*
X141062648Y-138405500D01*
X141062649Y-138405500D01*
X141267351Y-138405500D01*
X141267352Y-138405500D01*
X141469534Y-138373477D01*
X141469539Y-138373475D01*
X141469541Y-138373475D01*
X141502180Y-138362870D01*
X141572021Y-138360873D01*
X141631855Y-138396953D01*
X141662684Y-138459653D01*
X141664500Y-138480800D01*
X141664500Y-140384902D01*
X141644815Y-140451941D01*
X141628181Y-140472583D01*
X139512582Y-142588181D01*
X139451259Y-142621666D01*
X139424901Y-142624500D01*
X137777129Y-142624500D01*
X137777123Y-142624501D01*
X137717516Y-142630908D01*
X137582671Y-142681202D01*
X137582664Y-142681206D01*
X137467455Y-142767452D01*
X137467452Y-142767455D01*
X137381206Y-142882664D01*
X137381202Y-142882671D01*
X137330908Y-143017517D01*
X137324501Y-143077116D01*
X137324500Y-143077135D01*
X137324500Y-143227691D01*
X137304815Y-143294730D01*
X137288181Y-143315372D01*
X136650000Y-143953553D01*
X136650000Y-143947339D01*
X136622741Y-143845606D01*
X136570080Y-143754394D01*
X136495606Y-143679920D01*
X136404394Y-143627259D01*
X136302661Y-143600000D01*
X136296446Y-143600000D01*
X136975922Y-142920524D01*
X136975921Y-142920523D01*
X136931359Y-142888147D01*
X136931350Y-142888141D01*
X136749031Y-142795244D01*
X136554417Y-142732009D01*
X136352317Y-142700000D01*
X136147683Y-142700000D01*
X135945582Y-142732009D01*
X135750968Y-142795244D01*
X135568644Y-142888143D01*
X135524077Y-142920523D01*
X135524077Y-142920524D01*
X136203554Y-143600000D01*
X136197339Y-143600000D01*
X136095606Y-143627259D01*
X136004394Y-143679920D01*
X135929920Y-143754394D01*
X135877259Y-143845606D01*
X135850000Y-143947339D01*
X135850000Y-143953553D01*
X135170524Y-143274077D01*
X135170523Y-143274077D01*
X135138143Y-143318644D01*
X135045244Y-143500968D01*
X134982009Y-143695582D01*
X134950000Y-143897682D01*
X134950000Y-144102317D01*
X134982009Y-144304417D01*
X135045244Y-144499031D01*
X135138141Y-144681350D01*
X135138147Y-144681359D01*
X135170523Y-144725921D01*
X135170524Y-144725922D01*
X135850000Y-144046446D01*
X135850000Y-144052661D01*
X135877259Y-144154394D01*
X135929920Y-144245606D01*
X136004394Y-144320080D01*
X136095606Y-144372741D01*
X136197339Y-144400000D01*
X136203553Y-144400000D01*
X135524076Y-145079474D01*
X135568650Y-145111859D01*
X135750968Y-145204755D01*
X135945582Y-145267990D01*
X136147683Y-145300000D01*
X136352317Y-145300000D01*
X136554417Y-145267990D01*
X136749031Y-145204755D01*
X136931349Y-145111859D01*
X136975921Y-145079474D01*
X136296447Y-144400000D01*
X136302661Y-144400000D01*
X136404394Y-144372741D01*
X136495606Y-144320080D01*
X136570080Y-144245606D01*
X136622741Y-144154394D01*
X136650000Y-144052661D01*
X136650000Y-144046447D01*
X137288181Y-144684628D01*
X137321666Y-144745951D01*
X137324500Y-144772309D01*
X137324500Y-145572870D01*
X137324501Y-145572876D01*
X137330908Y-145632483D01*
X137368088Y-145732167D01*
X137373072Y-145801859D01*
X137339586Y-145863182D01*
X137278263Y-145896666D01*
X137251906Y-145899500D01*
X121875721Y-145899500D01*
X121808682Y-145879815D01*
X121762927Y-145827011D01*
X121752983Y-145757853D01*
X121782008Y-145694297D01*
X121828267Y-145660940D01*
X121832252Y-145659288D01*
X121845743Y-145653701D01*
X121959757Y-145587875D01*
X122064449Y-145507541D01*
X122157541Y-145414449D01*
X122237875Y-145309757D01*
X122303701Y-145195743D01*
X122354200Y-145073829D01*
X122388275Y-144946662D01*
X122405500Y-144815826D01*
X122405500Y-144457230D01*
X122425185Y-144390191D01*
X122441819Y-144369549D01*
X122774549Y-144036819D01*
X122835872Y-144003334D01*
X122862230Y-144000500D01*
X124790130Y-144000500D01*
X124846425Y-144014015D01*
X124940393Y-144061895D01*
X124940396Y-144061896D01*
X124994251Y-144079394D01*
X125150049Y-144130015D01*
X125367778Y-144164500D01*
X125367779Y-144164500D01*
X125588221Y-144164500D01*
X125588222Y-144164500D01*
X125805951Y-144130015D01*
X126015606Y-144061895D01*
X126212022Y-143961815D01*
X126390365Y-143832242D01*
X126546242Y-143676365D01*
X126675815Y-143498022D01*
X126775895Y-143301606D01*
X126844015Y-143091951D01*
X126878500Y-142874222D01*
X126878500Y-142874220D01*
X126879262Y-142869410D01*
X126880697Y-142869637D01*
X126903270Y-142810421D01*
X126959503Y-142768953D01*
X127029229Y-142764469D01*
X127090309Y-142798394D01*
X127123353Y-142859957D01*
X127124712Y-142869414D01*
X127124738Y-142869410D01*
X127159985Y-143091952D01*
X127228103Y-143301603D01*
X127228104Y-143301606D01*
X127271832Y-143387425D01*
X127325350Y-143492459D01*
X127328187Y-143498025D01*
X127457752Y-143676358D01*
X127457756Y-143676363D01*
X127613636Y-143832243D01*
X127613641Y-143832247D01*
X127742918Y-143926171D01*
X127791978Y-143961815D01*
X127920375Y-144027237D01*
X127988393Y-144061895D01*
X127988396Y-144061896D01*
X128042251Y-144079394D01*
X128198049Y-144130015D01*
X128415778Y-144164500D01*
X128415779Y-144164500D01*
X128636221Y-144164500D01*
X128636222Y-144164500D01*
X128853951Y-144130015D01*
X129063606Y-144061895D01*
X129260022Y-143961815D01*
X129438365Y-143832242D01*
X129594242Y-143676365D01*
X129723815Y-143498022D01*
X129823895Y-143301606D01*
X129892015Y-143091951D01*
X129908717Y-142986495D01*
X129914754Y-142948385D01*
X129914754Y-142948384D01*
X129926500Y-142874222D01*
X129926500Y-142653778D01*
X129921414Y-142621666D01*
X129892015Y-142436049D01*
X129823895Y-142226394D01*
X129823895Y-142226393D01*
X129789237Y-142158375D01*
X129723815Y-142029978D01*
X129707260Y-142007192D01*
X129594247Y-141851641D01*
X129594243Y-141851636D01*
X129438363Y-141695756D01*
X129438358Y-141695752D01*
X129260025Y-141566187D01*
X129260024Y-141566186D01*
X129260022Y-141566185D01*
X129197096Y-141534122D01*
X129063606Y-141466104D01*
X129063603Y-141466103D01*
X128853952Y-141397985D01*
X128703558Y-141374165D01*
X128636222Y-141363500D01*
X128526500Y-141363500D01*
X128459461Y-141343815D01*
X128413706Y-141291011D01*
X128402500Y-141239500D01*
X128402500Y-141129778D01*
X128390452Y-141053709D01*
X128368015Y-140912049D01*
X128330244Y-140795799D01*
X128299896Y-140702396D01*
X128299895Y-140702393D01*
X128258652Y-140621451D01*
X128199815Y-140505978D01*
X128149166Y-140436265D01*
X128070247Y-140327641D01*
X128070243Y-140327636D01*
X127914363Y-140171756D01*
X127914358Y-140171752D01*
X127736025Y-140042187D01*
X127736024Y-140042186D01*
X127736022Y-140042185D01*
X127673096Y-140010122D01*
X127539606Y-139942104D01*
X127539603Y-139942103D01*
X127329952Y-139873985D01*
X127162782Y-139847508D01*
X127112222Y-139839500D01*
X126891778Y-139839500D01*
X126841218Y-139847508D01*
X126674047Y-139873985D01*
X126464396Y-139942103D01*
X126464393Y-139942104D01*
X126267974Y-140042187D01*
X126089641Y-140171752D01*
X126089636Y-140171756D01*
X125933756Y-140327636D01*
X125933752Y-140327641D01*
X125804187Y-140505974D01*
X125704104Y-140702393D01*
X125704103Y-140702396D01*
X125635985Y-140912047D01*
X125601500Y-141129778D01*
X125601500Y-141239500D01*
X125581815Y-141306539D01*
X125529011Y-141352294D01*
X125477500Y-141363500D01*
X125367778Y-141363500D01*
X125243897Y-141383120D01*
X125174604Y-141374165D01*
X125121152Y-141329169D01*
X125100513Y-141262417D01*
X125100500Y-141260647D01*
X125100500Y-140734869D01*
X125100500Y-140734862D01*
X125090417Y-140621448D01*
X125037237Y-140435594D01*
X124947734Y-140264249D01*
X124886652Y-140189339D01*
X124825571Y-140114428D01*
X124733700Y-140039518D01*
X124675751Y-139992266D01*
X124644460Y-139975921D01*
X124504405Y-139902762D01*
X124349845Y-139858537D01*
X124318552Y-139849583D01*
X124318551Y-139849582D01*
X124318548Y-139849582D01*
X124229662Y-139841680D01*
X124205138Y-139839500D01*
X123194862Y-139839500D01*
X123194860Y-139839500D01*
X123104775Y-139847508D01*
X123072011Y-139840970D01*
X123039082Y-139835271D01*
X123037869Y-139834157D01*
X123036256Y-139833836D01*
X123012228Y-139810623D01*
X122987607Y-139788026D01*
X122987188Y-139786434D01*
X122986005Y-139785291D01*
X122978339Y-139752763D01*
X122969847Y-139720451D01*
X122970218Y-139718304D01*
X122969978Y-139717284D01*
X122971773Y-139707648D01*
X131199500Y-139707648D01*
X131199500Y-139912352D01*
X131202550Y-139931610D01*
X131231522Y-140114534D01*
X131294781Y-140309223D01*
X131333342Y-140384902D01*
X131378018Y-140472583D01*
X131387715Y-140491613D01*
X131508028Y-140657213D01*
X131652786Y-140801971D01*
X131804296Y-140912047D01*
X131818390Y-140922287D01*
X131925193Y-140976706D01*
X132000776Y-141015218D01*
X132000778Y-141015218D01*
X132000781Y-141015220D01*
X132079945Y-141040942D01*
X132195465Y-141078477D01*
X132296557Y-141094488D01*
X132397648Y-141110500D01*
X132397649Y-141110500D01*
X132602351Y-141110500D01*
X132602352Y-141110500D01*
X132804534Y-141078477D01*
X132999219Y-141015220D01*
X133181610Y-140922287D01*
X133286195Y-140846302D01*
X133347213Y-140801971D01*
X133347215Y-140801968D01*
X133347219Y-140801966D01*
X133491966Y-140657219D01*
X133491968Y-140657215D01*
X133491971Y-140657213D01*
X133569501Y-140550500D01*
X133612287Y-140491610D01*
X133705220Y-140309219D01*
X133768477Y-140114534D01*
X133800500Y-139912352D01*
X133800500Y-139707648D01*
X133768477Y-139505466D01*
X133766447Y-139499219D01*
X133705218Y-139310776D01*
X133671503Y-139244607D01*
X133612287Y-139128390D01*
X133604556Y-139117749D01*
X133491971Y-138962786D01*
X133347213Y-138818028D01*
X133181613Y-138697715D01*
X133181612Y-138697714D01*
X133181610Y-138697713D01*
X133124653Y-138668691D01*
X132999223Y-138604781D01*
X132804534Y-138541522D01*
X132629995Y-138513878D01*
X132602352Y-138509500D01*
X132397648Y-138509500D01*
X132373329Y-138513351D01*
X132195465Y-138541522D01*
X132000776Y-138604781D01*
X131818386Y-138697715D01*
X131652786Y-138818028D01*
X131508028Y-138962786D01*
X131387715Y-139128386D01*
X131294781Y-139310776D01*
X131231522Y-139505465D01*
X131202980Y-139685674D01*
X131199500Y-139707648D01*
X122971773Y-139707648D01*
X122975864Y-139685681D01*
X123018477Y-139554534D01*
X123050500Y-139352352D01*
X123050500Y-139147648D01*
X123029202Y-139013181D01*
X123018477Y-138945465D01*
X122976490Y-138816243D01*
X122955220Y-138750781D01*
X122955218Y-138750778D01*
X122955218Y-138750776D01*
X122905063Y-138652343D01*
X122862287Y-138568390D01*
X122842767Y-138541523D01*
X122741971Y-138402786D01*
X122597213Y-138258028D01*
X122431613Y-138137715D01*
X122431612Y-138137714D01*
X122431610Y-138137713D01*
X122362646Y-138102574D01*
X122249223Y-138044781D01*
X122054534Y-137981522D01*
X121879995Y-137953878D01*
X121852352Y-137949500D01*
X121647648Y-137949500D01*
X121632527Y-137951895D01*
X121445465Y-137981522D01*
X121250776Y-138044781D01*
X121068386Y-138137715D01*
X120902786Y-138258028D01*
X120758028Y-138402786D01*
X120637715Y-138568386D01*
X120544781Y-138750776D01*
X120481522Y-138945465D01*
X120449500Y-139147648D01*
X120449500Y-139352351D01*
X120481522Y-139554534D01*
X120544781Y-139749223D01*
X120595918Y-139849583D01*
X120637585Y-139931359D01*
X120637715Y-139931613D01*
X120758028Y-140097213D01*
X120902786Y-140241971D01*
X121020703Y-140327641D01*
X121068390Y-140362287D01*
X121184607Y-140421503D01*
X121250776Y-140455218D01*
X121250778Y-140455218D01*
X121250781Y-140455220D01*
X121304219Y-140472583D01*
X121396506Y-140502569D01*
X121454181Y-140542007D01*
X121481379Y-140606366D01*
X121469464Y-140675212D01*
X121422220Y-140726688D01*
X121358187Y-140744500D01*
X120899997Y-140744500D01*
X120828059Y-140749644D01*
X120690005Y-140790182D01*
X120568969Y-140867967D01*
X120568965Y-140867971D01*
X120474750Y-140976700D01*
X120474744Y-140976709D01*
X120414976Y-141107580D01*
X120414975Y-141107585D01*
X120394500Y-141249999D01*
X120394500Y-142750002D01*
X120399644Y-142821940D01*
X120417477Y-142882671D01*
X120432265Y-142933034D01*
X120440182Y-142959994D01*
X120440184Y-142959998D01*
X120500249Y-143053461D01*
X120519934Y-143120500D01*
X120500249Y-143187540D01*
X120447445Y-143233294D01*
X120395934Y-143244500D01*
X120034166Y-143244500D01*
X119903341Y-143261724D01*
X119776170Y-143295800D01*
X119654249Y-143346302D01*
X119654248Y-143346303D01*
X119540250Y-143412120D01*
X119540232Y-143412132D01*
X119435555Y-143492455D01*
X119435545Y-143492464D01*
X119342464Y-143585545D01*
X119342455Y-143585555D01*
X119262132Y-143690232D01*
X119262120Y-143690250D01*
X119196303Y-143804248D01*
X119196302Y-143804249D01*
X119145800Y-143926170D01*
X119111724Y-144053341D01*
X119094500Y-144184166D01*
X119094500Y-144392770D01*
X119074815Y-144459809D01*
X119058181Y-144480451D01*
X117675451Y-145863181D01*
X117614128Y-145896666D01*
X117587770Y-145899500D01*
X116507204Y-145899500D01*
X116440165Y-145879815D01*
X116419523Y-145863181D01*
X115136819Y-144580477D01*
X115103334Y-144519154D01*
X115100500Y-144492796D01*
X115100500Y-137444420D01*
X115120185Y-137377381D01*
X115172989Y-137331626D01*
X115242147Y-137321682D01*
X115305703Y-137350707D01*
X115334984Y-137388123D01*
X115376646Y-137469890D01*
X115387715Y-137491614D01*
X115508028Y-137657213D01*
X115652786Y-137801971D01*
X115818385Y-137922284D01*
X115818387Y-137922285D01*
X115818390Y-137922287D01*
X115877135Y-137952219D01*
X115961107Y-137995005D01*
X116011903Y-138042980D01*
X116028698Y-138110801D01*
X116028430Y-138115219D01*
X116024077Y-138170524D01*
X116703554Y-138850000D01*
X116697339Y-138850000D01*
X116595606Y-138877259D01*
X116504394Y-138929920D01*
X116429920Y-139004394D01*
X116377259Y-139095606D01*
X116350000Y-139197339D01*
X116350000Y-139203553D01*
X115670524Y-138524077D01*
X115670523Y-138524077D01*
X115638143Y-138568644D01*
X115545244Y-138750968D01*
X115482009Y-138945582D01*
X115450000Y-139147682D01*
X115450000Y-139352317D01*
X115482009Y-139554417D01*
X115545244Y-139749031D01*
X115638141Y-139931350D01*
X115638147Y-139931359D01*
X115670523Y-139975921D01*
X115670524Y-139975922D01*
X116350000Y-139296446D01*
X116350000Y-139302661D01*
X116377259Y-139404394D01*
X116429920Y-139495606D01*
X116504394Y-139570080D01*
X116595606Y-139622741D01*
X116697339Y-139650000D01*
X116703553Y-139650000D01*
X116024076Y-140329474D01*
X116068650Y-140361859D01*
X116250968Y-140454755D01*
X116445582Y-140517990D01*
X116647683Y-140550000D01*
X116852317Y-140550000D01*
X117054417Y-140517990D01*
X117249031Y-140454755D01*
X117431349Y-140361859D01*
X117475921Y-140329474D01*
X116796447Y-139650000D01*
X116802661Y-139650000D01*
X116904394Y-139622741D01*
X116995606Y-139570080D01*
X117070080Y-139495606D01*
X117122741Y-139404394D01*
X117150000Y-139302661D01*
X117150000Y-139296448D01*
X117829474Y-139975922D01*
X117829474Y-139975921D01*
X117861859Y-139931349D01*
X117954755Y-139749031D01*
X118017990Y-139554417D01*
X118050000Y-139352317D01*
X118050000Y-139147682D01*
X118017990Y-138945582D01*
X117954755Y-138750968D01*
X117861859Y-138568650D01*
X117829474Y-138524077D01*
X117829474Y-138524076D01*
X117150000Y-139203551D01*
X117150000Y-139197339D01*
X117122741Y-139095606D01*
X117070080Y-139004394D01*
X116995606Y-138929920D01*
X116904394Y-138877259D01*
X116802661Y-138850000D01*
X116796446Y-138850000D01*
X117475922Y-138170524D01*
X117475921Y-138170523D01*
X117431359Y-138138147D01*
X117431350Y-138138141D01*
X117290222Y-138066233D01*
X117239426Y-138018259D01*
X117222631Y-137950438D01*
X117245168Y-137884303D01*
X117273633Y-137855429D01*
X117347215Y-137801969D01*
X117347215Y-137801968D01*
X117347219Y-137801966D01*
X117491966Y-137657219D01*
X117491968Y-137657215D01*
X117491971Y-137657213D01*
X117544732Y-137584590D01*
X117612287Y-137491610D01*
X117705220Y-137309219D01*
X117768477Y-137114534D01*
X117800500Y-136912352D01*
X117800500Y-136707648D01*
X117791740Y-136652339D01*
X117768477Y-136505465D01*
X117721244Y-136360099D01*
X117705220Y-136310781D01*
X117705218Y-136310778D01*
X117705218Y-136310776D01*
X117660092Y-136222212D01*
X117612287Y-136128390D01*
X117567167Y-136066287D01*
X117491971Y-135962786D01*
X117347213Y-135818028D01*
X117181610Y-135697712D01*
X117168200Y-135690879D01*
X117157138Y-135680431D01*
X117143297Y-135674110D01*
X117132255Y-135656928D01*
X117117406Y-135642903D01*
X117113165Y-135627223D01*
X117105523Y-135615332D01*
X117100500Y-135580397D01*
X117100500Y-135576006D01*
X117120185Y-135508967D01*
X117172989Y-135463212D01*
X117177033Y-135461450D01*
X117195743Y-135453701D01*
X117309757Y-135387875D01*
X117414449Y-135307541D01*
X117507541Y-135214449D01*
X117587875Y-135109757D01*
X117653701Y-134995743D01*
X117704200Y-134873829D01*
X117738275Y-134746662D01*
X117755500Y-134615826D01*
X117755500Y-134050000D01*
X117750355Y-133978060D01*
X117739396Y-133940740D01*
X117735636Y-133888158D01*
X117736572Y-133881650D01*
X117755500Y-133750000D01*
X117755500Y-133184174D01*
X117738275Y-133053338D01*
X117704200Y-132926171D01*
X117653701Y-132804257D01*
X117653698Y-132804252D01*
X117653697Y-132804249D01*
X117653696Y-132804248D01*
X117587879Y-132690250D01*
X117587875Y-132690243D01*
X117587092Y-132689223D01*
X117507544Y-132585555D01*
X117507541Y-132585551D01*
X117414449Y-132492459D01*
X117404425Y-132484767D01*
X117323767Y-132422875D01*
X117282564Y-132366447D01*
X117278410Y-132296701D01*
X117312623Y-132235781D01*
X117374341Y-132203028D01*
X117399254Y-132200500D01*
X117883481Y-132200500D01*
X117950520Y-132220185D01*
X117971162Y-132236819D01*
X118721504Y-132987161D01*
X118754989Y-133048484D01*
X118756762Y-133091026D01*
X118744501Y-133184161D01*
X118744500Y-133184180D01*
X118744500Y-133750002D01*
X118749644Y-133821939D01*
X118760603Y-133859262D01*
X118764363Y-133911841D01*
X118744500Y-134049998D01*
X118744500Y-134615833D01*
X118756693Y-134708443D01*
X118761725Y-134746662D01*
X118795800Y-134873829D01*
X118841772Y-134984815D01*
X118846302Y-134995750D01*
X118846303Y-134995751D01*
X118912120Y-135109749D01*
X118912132Y-135109767D01*
X118988866Y-135209767D01*
X118992459Y-135214449D01*
X119085551Y-135307541D01*
X119099786Y-135318464D01*
X119190232Y-135387867D01*
X119190236Y-135387869D01*
X119190243Y-135387875D01*
X119190250Y-135387879D01*
X119304249Y-135453697D01*
X119304257Y-135453701D01*
X119322951Y-135461444D01*
X119338517Y-135473988D01*
X119356703Y-135482293D01*
X119365166Y-135495461D01*
X119377355Y-135505284D01*
X119383668Y-135524253D01*
X119394477Y-135541071D01*
X119398439Y-135568628D01*
X119399421Y-135571578D01*
X119399500Y-135576006D01*
X119399500Y-135580397D01*
X119379815Y-135647436D01*
X119331800Y-135690879D01*
X119318389Y-135697712D01*
X119152786Y-135818028D01*
X119008028Y-135962786D01*
X118887715Y-136128386D01*
X118794781Y-136310776D01*
X118731522Y-136505465D01*
X118699500Y-136707648D01*
X118699500Y-136912351D01*
X118731522Y-137114534D01*
X118794781Y-137309223D01*
X118845893Y-137409534D01*
X118863668Y-137444420D01*
X118887715Y-137491613D01*
X119008028Y-137657213D01*
X119152786Y-137801971D01*
X119287026Y-137899500D01*
X119318390Y-137922287D01*
X119434607Y-137981503D01*
X119500776Y-138015218D01*
X119500778Y-138015218D01*
X119500781Y-138015220D01*
X119605137Y-138049127D01*
X119695465Y-138078477D01*
X119796557Y-138094488D01*
X119897648Y-138110500D01*
X119897649Y-138110500D01*
X120102351Y-138110500D01*
X120102352Y-138110500D01*
X120304534Y-138078477D01*
X120499219Y-138015220D01*
X120681610Y-137922287D01*
X120786614Y-137845998D01*
X120847213Y-137801971D01*
X120847215Y-137801968D01*
X120847219Y-137801966D01*
X120991966Y-137657219D01*
X120991968Y-137657215D01*
X120991971Y-137657213D01*
X121044732Y-137584590D01*
X121112287Y-137491610D01*
X121205220Y-137309219D01*
X121268477Y-137114534D01*
X121300500Y-136912352D01*
X121300500Y-136707648D01*
X121291740Y-136652339D01*
X121268477Y-136505465D01*
X121221244Y-136360099D01*
X121205220Y-136310781D01*
X121205218Y-136310778D01*
X121205218Y-136310776D01*
X121160092Y-136222212D01*
X121112287Y-136128390D01*
X121067167Y-136066287D01*
X120991971Y-135962786D01*
X120847213Y-135818028D01*
X120681610Y-135697712D01*
X120668200Y-135690879D01*
X120657138Y-135680431D01*
X120643297Y-135674110D01*
X120632255Y-135656928D01*
X120617406Y-135642903D01*
X120613165Y-135627223D01*
X120605523Y-135615332D01*
X120600500Y-135580397D01*
X120600500Y-135576006D01*
X120620185Y-135508967D01*
X120672989Y-135463212D01*
X120677033Y-135461450D01*
X120695743Y-135453701D01*
X120809757Y-135387875D01*
X120914449Y-135307541D01*
X121007541Y-135214449D01*
X121087875Y-135109757D01*
X121153701Y-134995743D01*
X121204200Y-134873829D01*
X121238275Y-134746662D01*
X121255500Y-134615826D01*
X121255500Y-134050000D01*
X121250355Y-133978060D01*
X121239396Y-133940740D01*
X121235636Y-133888158D01*
X121236572Y-133881650D01*
X121255500Y-133750000D01*
X121255500Y-133184174D01*
X121238275Y-133053338D01*
X121204200Y-132926171D01*
X121153701Y-132804257D01*
X121153698Y-132804252D01*
X121153697Y-132804249D01*
X121153696Y-132804248D01*
X121087879Y-132690250D01*
X121087875Y-132690243D01*
X121087092Y-132689223D01*
X121007544Y-132585555D01*
X121007541Y-132585551D01*
X120914449Y-132492459D01*
X120904425Y-132484767D01*
X120809767Y-132412132D01*
X120809749Y-132412120D01*
X120695751Y-132346303D01*
X120695750Y-132346302D01*
X120658815Y-132331003D01*
X120573829Y-132295800D01*
X120446662Y-132261725D01*
X120446661Y-132261724D01*
X120446658Y-132261724D01*
X120315833Y-132244500D01*
X120315826Y-132244500D01*
X120011519Y-132244500D01*
X119944480Y-132224815D01*
X119923838Y-132208181D01*
X118671546Y-130955888D01*
X118671545Y-130955887D01*
X118556807Y-130879222D01*
X118429332Y-130826421D01*
X118429322Y-130826418D01*
X118293996Y-130799500D01*
X118293994Y-130799500D01*
X118293993Y-130799500D01*
X115524500Y-130799500D01*
X115457461Y-130779815D01*
X115411706Y-130727011D01*
X115400500Y-130675500D01*
X115400500Y-130229047D01*
X115420185Y-130162008D01*
X115472989Y-130116253D01*
X115542147Y-130106309D01*
X115605703Y-130135334D01*
X115612181Y-130141366D01*
X115652786Y-130181971D01*
X115807749Y-130294556D01*
X115818390Y-130302287D01*
X115934607Y-130361503D01*
X116000776Y-130395218D01*
X116000778Y-130395218D01*
X116000781Y-130395220D01*
X116105137Y-130429127D01*
X116195465Y-130458477D01*
X116296557Y-130474488D01*
X116397648Y-130490500D01*
X116397649Y-130490500D01*
X116602351Y-130490500D01*
X116602352Y-130490500D01*
X116804534Y-130458477D01*
X116999219Y-130395220D01*
X117181610Y-130302287D01*
X117281118Y-130229991D01*
X117347213Y-130181971D01*
X117347215Y-130181968D01*
X117347219Y-130181966D01*
X117491966Y-130037219D01*
X117491968Y-130037215D01*
X117491971Y-130037213D01*
X117547587Y-129960663D01*
X117612287Y-129871610D01*
X117705220Y-129689219D01*
X117768477Y-129494534D01*
X117800500Y-129292352D01*
X117800500Y-129087648D01*
X117768477Y-128885466D01*
X117705220Y-128690781D01*
X117705218Y-128690778D01*
X117705218Y-128690776D01*
X117657007Y-128596158D01*
X117612287Y-128508390D01*
X117600014Y-128491498D01*
X117491971Y-128342786D01*
X117347213Y-128198028D01*
X117181613Y-128077715D01*
X117181612Y-128077714D01*
X117181610Y-128077713D01*
X117087733Y-128029880D01*
X116999223Y-127984781D01*
X116804534Y-127921522D01*
X116629995Y-127893878D01*
X116602352Y-127889500D01*
X116397648Y-127889500D01*
X116373329Y-127893351D01*
X116195465Y-127921522D01*
X116000776Y-127984781D01*
X115818390Y-128077712D01*
X115797385Y-128092974D01*
X115731578Y-128116453D01*
X115663524Y-128100627D01*
X115614830Y-128050521D01*
X115600500Y-127992655D01*
X115600500Y-121007204D01*
X115620185Y-120940165D01*
X115636819Y-120919523D01*
X117019523Y-119536819D01*
X117080846Y-119503334D01*
X117107204Y-119500500D01*
X117693505Y-119500500D01*
X117760544Y-119520185D01*
G37*
%TD.AperFunction*%
%TA.AperFunction,Conductor*%
G36*
X146495000Y-138381606D02*
G01*
X146549421Y-138372988D01*
X146744031Y-138309754D01*
X146926349Y-138216859D01*
X147091894Y-138096582D01*
X147091895Y-138096582D01*
X147236582Y-137951895D01*
X147236582Y-137951894D01*
X147356861Y-137786347D01*
X147404234Y-137693371D01*
X147452208Y-137642575D01*
X147520028Y-137625779D01*
X147586164Y-137648316D01*
X147625203Y-137693369D01*
X147672713Y-137786611D01*
X147793028Y-137952213D01*
X147937786Y-138096971D01*
X148092749Y-138209556D01*
X148103390Y-138217287D01*
X148211061Y-138272148D01*
X148285776Y-138310218D01*
X148285778Y-138310218D01*
X148285781Y-138310220D01*
X148374932Y-138339187D01*
X148480465Y-138373477D01*
X148577494Y-138388845D01*
X148682648Y-138405500D01*
X148682649Y-138405500D01*
X148887351Y-138405500D01*
X148887352Y-138405500D01*
X149089534Y-138373477D01*
X149284219Y-138310220D01*
X149374043Y-138264451D01*
X149442712Y-138251555D01*
X149507453Y-138277831D01*
X149518020Y-138287255D01*
X151245139Y-140014374D01*
X151245149Y-140014385D01*
X151249479Y-140018715D01*
X151249480Y-140018716D01*
X151361284Y-140130520D01*
X151432711Y-140171758D01*
X151498215Y-140209577D01*
X151650943Y-140250501D01*
X151650946Y-140250501D01*
X151816653Y-140250501D01*
X151816669Y-140250500D01*
X159525263Y-140250500D01*
X159525279Y-140250501D01*
X159532875Y-140250501D01*
X159690986Y-140250501D01*
X159690989Y-140250501D01*
X159843717Y-140209577D01*
X159909221Y-140171758D01*
X159980648Y-140130520D01*
X160024441Y-140086726D01*
X160032192Y-140081066D01*
X160056393Y-140072363D01*
X160078966Y-140060037D01*
X160081135Y-140059586D01*
X160081824Y-140059449D01*
X160081825Y-140059449D01*
X160236480Y-140028686D01*
X160382162Y-139968343D01*
X160506609Y-139885189D01*
X160573286Y-139864312D01*
X160640666Y-139882796D01*
X160687357Y-139934775D01*
X160699500Y-139988292D01*
X160699500Y-143692796D01*
X160679815Y-143759835D01*
X160663181Y-143780477D01*
X158580477Y-145863181D01*
X158519154Y-145896666D01*
X158492796Y-145899500D01*
X157368340Y-145899500D01*
X157301301Y-145879815D01*
X157255546Y-145827011D01*
X157245602Y-145757853D01*
X157274627Y-145694297D01*
X157280659Y-145687819D01*
X157396582Y-145571895D01*
X157396582Y-145571894D01*
X157516859Y-145406349D01*
X157609755Y-145224031D01*
X157672990Y-145029417D01*
X157705000Y-144827317D01*
X157705000Y-144575000D01*
X156720686Y-144575000D01*
X156725080Y-144570606D01*
X156777741Y-144479394D01*
X156805000Y-144377661D01*
X156805000Y-144272339D01*
X156777741Y-144170606D01*
X156725080Y-144079394D01*
X156720686Y-144075000D01*
X157705000Y-144075000D01*
X157705000Y-143822682D01*
X157672990Y-143620582D01*
X157609755Y-143425968D01*
X157516859Y-143243650D01*
X157396582Y-143078105D01*
X157396582Y-143078104D01*
X157251895Y-142933417D01*
X157086349Y-142813140D01*
X156904029Y-142720244D01*
X156709413Y-142657009D01*
X156655000Y-142648390D01*
X156655000Y-144009314D01*
X156650606Y-144004920D01*
X156559394Y-143952259D01*
X156457661Y-143925000D01*
X156352339Y-143925000D01*
X156250606Y-143952259D01*
X156159394Y-144004920D01*
X156155000Y-144009314D01*
X156155000Y-142648390D01*
X156100586Y-142657009D01*
X155905970Y-142720244D01*
X155723650Y-142813140D01*
X155558105Y-142933417D01*
X155558104Y-142933417D01*
X155413417Y-143078104D01*
X155413417Y-143078105D01*
X155293140Y-143243650D01*
X155245765Y-143336629D01*
X155197790Y-143387425D01*
X155129969Y-143404220D01*
X155063834Y-143381682D01*
X155024795Y-143336629D01*
X155013964Y-143315372D01*
X154977287Y-143243390D01*
X154927784Y-143175254D01*
X154856971Y-143077786D01*
X154712213Y-142933028D01*
X154546613Y-142812715D01*
X154546612Y-142812714D01*
X154546610Y-142812713D01*
X154489653Y-142783691D01*
X154364223Y-142719781D01*
X154169534Y-142656522D01*
X153994995Y-142628878D01*
X153967352Y-142624500D01*
X153762648Y-142624500D01*
X153738329Y-142628351D01*
X153560465Y-142656522D01*
X153365776Y-142719781D01*
X153183386Y-142812715D01*
X153017786Y-142933028D01*
X152873028Y-143077786D01*
X152752715Y-143243386D01*
X152705485Y-143336080D01*
X152657510Y-143386876D01*
X152589689Y-143403671D01*
X152523554Y-143381134D01*
X152484515Y-143336080D01*
X152473964Y-143315372D01*
X152437287Y-143243390D01*
X152387784Y-143175254D01*
X152316971Y-143077786D01*
X152172213Y-142933028D01*
X152006613Y-142812715D01*
X152006612Y-142812714D01*
X152006610Y-142812713D01*
X151949653Y-142783691D01*
X151824223Y-142719781D01*
X151629534Y-142656522D01*
X151454995Y-142628878D01*
X151427352Y-142624500D01*
X151222648Y-142624500D01*
X151198329Y-142628351D01*
X151020465Y-142656522D01*
X150825776Y-142719781D01*
X150643386Y-142812715D01*
X150477786Y-142933028D01*
X150333028Y-143077786D01*
X150212715Y-143243386D01*
X150165485Y-143336080D01*
X150117510Y-143386876D01*
X150049689Y-143403671D01*
X149983554Y-143381134D01*
X149944515Y-143336080D01*
X149933964Y-143315372D01*
X149897287Y-143243390D01*
X149847784Y-143175254D01*
X149776971Y-143077786D01*
X149632213Y-142933028D01*
X149466613Y-142812715D01*
X149466612Y-142812714D01*
X149466610Y-142812713D01*
X149409653Y-142783691D01*
X149284223Y-142719781D01*
X149089534Y-142656522D01*
X148914995Y-142628878D01*
X148887352Y-142624500D01*
X148682648Y-142624500D01*
X148658329Y-142628351D01*
X148480465Y-142656522D01*
X148285776Y-142719781D01*
X148103386Y-142812715D01*
X147937786Y-142933028D01*
X147793028Y-143077786D01*
X147672715Y-143243386D01*
X147625485Y-143336080D01*
X147577510Y-143386876D01*
X147509689Y-143403671D01*
X147443554Y-143381134D01*
X147404515Y-143336080D01*
X147393964Y-143315372D01*
X147357287Y-143243390D01*
X147307784Y-143175254D01*
X147236971Y-143077786D01*
X147092213Y-142933028D01*
X146926613Y-142812715D01*
X146926612Y-142812714D01*
X146926610Y-142812713D01*
X146869653Y-142783691D01*
X146744223Y-142719781D01*
X146549534Y-142656522D01*
X146374995Y-142628878D01*
X146347352Y-142624500D01*
X146142648Y-142624500D01*
X146118329Y-142628351D01*
X145940465Y-142656522D01*
X145745776Y-142719781D01*
X145563386Y-142812715D01*
X145397786Y-142933028D01*
X145253028Y-143077786D01*
X145132715Y-143243386D01*
X145085485Y-143336080D01*
X145037510Y-143386876D01*
X144969689Y-143403671D01*
X144903554Y-143381134D01*
X144864515Y-143336080D01*
X144853964Y-143315372D01*
X144817287Y-143243390D01*
X144767784Y-143175254D01*
X144696971Y-143077786D01*
X144552213Y-142933028D01*
X144386613Y-142812715D01*
X144386612Y-142812714D01*
X144386610Y-142812713D01*
X144329653Y-142783691D01*
X144204223Y-142719781D01*
X144009534Y-142656522D01*
X143834995Y-142628878D01*
X143807352Y-142624500D01*
X143602648Y-142624500D01*
X143578329Y-142628351D01*
X143400465Y-142656522D01*
X143205776Y-142719781D01*
X143023386Y-142812715D01*
X142857786Y-142933028D01*
X142713028Y-143077786D01*
X142592715Y-143243386D01*
X142545485Y-143336080D01*
X142497510Y-143386876D01*
X142429689Y-143403671D01*
X142363554Y-143381134D01*
X142324515Y-143336080D01*
X142313964Y-143315372D01*
X142277287Y-143243390D01*
X142227784Y-143175254D01*
X142156971Y-143077786D01*
X142012213Y-142933028D01*
X141846613Y-142812715D01*
X141846612Y-142812714D01*
X141846610Y-142812713D01*
X141789653Y-142783691D01*
X141664223Y-142719781D01*
X141469534Y-142656522D01*
X141427764Y-142649907D01*
X141364629Y-142619978D01*
X141327698Y-142560666D01*
X141328696Y-142490803D01*
X141359479Y-142439755D01*
X142623506Y-141175727D01*
X142623511Y-141175724D01*
X142633714Y-141165520D01*
X142633716Y-141165520D01*
X142745520Y-141053716D01*
X142824577Y-140916784D01*
X142865500Y-140764057D01*
X142865500Y-138339187D01*
X142885185Y-138272148D01*
X142937989Y-138226393D01*
X143007147Y-138216449D01*
X143045795Y-138228703D01*
X143205771Y-138310216D01*
X143205776Y-138310217D01*
X143205781Y-138310220D01*
X143341658Y-138354369D01*
X143400465Y-138373477D01*
X143497494Y-138388845D01*
X143602648Y-138405500D01*
X143602649Y-138405500D01*
X143807351Y-138405500D01*
X143807352Y-138405500D01*
X144009534Y-138373477D01*
X144204219Y-138310220D01*
X144386610Y-138217287D01*
X144495546Y-138138141D01*
X144552213Y-138096971D01*
X144552215Y-138096968D01*
X144552219Y-138096966D01*
X144696966Y-137952219D01*
X144696968Y-137952215D01*
X144696971Y-137952213D01*
X144817284Y-137786614D01*
X144817286Y-137786611D01*
X144817287Y-137786610D01*
X144864795Y-137693369D01*
X144912770Y-137642574D01*
X144980591Y-137625779D01*
X145046725Y-137648316D01*
X145085765Y-137693370D01*
X145133140Y-137786349D01*
X145253417Y-137951894D01*
X145253417Y-137951895D01*
X145398104Y-138096582D01*
X145563650Y-138216859D01*
X145745968Y-138309754D01*
X145940578Y-138372988D01*
X145995000Y-138381607D01*
X145995000Y-137020686D01*
X145999394Y-137025080D01*
X146090606Y-137077741D01*
X146192339Y-137105000D01*
X146297661Y-137105000D01*
X146399394Y-137077741D01*
X146490606Y-137025080D01*
X146495000Y-137020686D01*
X146495000Y-138381606D01*
G37*
%TD.AperFunction*%
%TA.AperFunction,Conductor*%
G36*
X165534075Y-136152993D02*
G01*
X165599901Y-136267007D01*
X165692993Y-136360099D01*
X165807007Y-136425925D01*
X165870590Y-136442962D01*
X165238282Y-137075269D01*
X165238282Y-137075270D01*
X165292452Y-137114626D01*
X165292451Y-137114626D01*
X165301495Y-137119234D01*
X165352292Y-137167208D01*
X165369087Y-137235029D01*
X165346550Y-137301164D01*
X165301499Y-137340202D01*
X165292182Y-137344949D01*
X165120213Y-137469890D01*
X164969890Y-137620213D01*
X164844949Y-137792182D01*
X164840484Y-137800946D01*
X164792509Y-137851742D01*
X164724688Y-137868536D01*
X164658553Y-137845998D01*
X164619516Y-137800946D01*
X164615050Y-137792182D01*
X164490109Y-137620213D01*
X164339786Y-137469890D01*
X164167820Y-137344951D01*
X164167115Y-137344591D01*
X164159054Y-137340485D01*
X164108259Y-137292512D01*
X164091463Y-137224692D01*
X164113999Y-137158556D01*
X164159054Y-137119515D01*
X164167816Y-137115051D01*
X164222572Y-137075269D01*
X164339786Y-136990109D01*
X164339788Y-136990106D01*
X164339792Y-136990104D01*
X164490104Y-136839792D01*
X164490106Y-136839788D01*
X164490109Y-136839786D01*
X164557515Y-136747007D01*
X164615051Y-136667816D01*
X164619793Y-136658508D01*
X164667763Y-136607711D01*
X164735583Y-136590911D01*
X164801719Y-136613445D01*
X164840763Y-136658500D01*
X164845373Y-136667547D01*
X164884728Y-136721716D01*
X165517037Y-136089408D01*
X165534075Y-136152993D01*
G37*
%TD.AperFunction*%
%TA.AperFunction,Conductor*%
G36*
X164801444Y-134073999D02*
G01*
X164840486Y-134119056D01*
X164844951Y-134127820D01*
X164969890Y-134299786D01*
X165120213Y-134450109D01*
X165292179Y-134575048D01*
X165292181Y-134575049D01*
X165292184Y-134575051D01*
X165301493Y-134579794D01*
X165352290Y-134627766D01*
X165369087Y-134695587D01*
X165346552Y-134761722D01*
X165301505Y-134800760D01*
X165292446Y-134805376D01*
X165292440Y-134805380D01*
X165238282Y-134844727D01*
X165238282Y-134844728D01*
X165870591Y-135477037D01*
X165807007Y-135494075D01*
X165692993Y-135559901D01*
X165599901Y-135652993D01*
X165534075Y-135767007D01*
X165517037Y-135830591D01*
X164884728Y-135198282D01*
X164884727Y-135198282D01*
X164845380Y-135252440D01*
X164845376Y-135252446D01*
X164840760Y-135261505D01*
X164792781Y-135312297D01*
X164724959Y-135329087D01*
X164658826Y-135306543D01*
X164619794Y-135261493D01*
X164615051Y-135252184D01*
X164615049Y-135252181D01*
X164615048Y-135252179D01*
X164490109Y-135080213D01*
X164339786Y-134929890D01*
X164167820Y-134804951D01*
X164159600Y-134800763D01*
X164159054Y-134800485D01*
X164108259Y-134752512D01*
X164091463Y-134684692D01*
X164113999Y-134618556D01*
X164159054Y-134579515D01*
X164167816Y-134575051D01*
X164266696Y-134503211D01*
X164339786Y-134450109D01*
X164339788Y-134450106D01*
X164339792Y-134450104D01*
X164490104Y-134299792D01*
X164490106Y-134299788D01*
X164490109Y-134299786D01*
X164615048Y-134127820D01*
X164615047Y-134127820D01*
X164615051Y-134127816D01*
X164619514Y-134119054D01*
X164667488Y-134068259D01*
X164735308Y-134051463D01*
X164801444Y-134073999D01*
G37*
%TD.AperFunction*%
%TA.AperFunction,Conductor*%
G36*
X141706999Y-132620185D02*
G01*
X141752754Y-132672989D01*
X141762698Y-132742147D01*
X141756142Y-132767833D01*
X141705908Y-132902517D01*
X141700683Y-132951122D01*
X141699501Y-132962123D01*
X141699500Y-132962135D01*
X141699500Y-134318991D01*
X141695275Y-134351084D01*
X141664499Y-134465943D01*
X141664499Y-134634046D01*
X141664500Y-134634059D01*
X141664500Y-134929199D01*
X141644815Y-134996238D01*
X141592011Y-135041993D01*
X141522853Y-135051937D01*
X141502183Y-135047130D01*
X141469542Y-135036524D01*
X141469535Y-135036523D01*
X141368443Y-135020511D01*
X141267352Y-135004500D01*
X141062648Y-135004500D01*
X141038329Y-135008351D01*
X140860465Y-135036522D01*
X140665776Y-135099781D01*
X140483386Y-135192715D01*
X140317786Y-135313028D01*
X140173028Y-135457786D01*
X140052715Y-135623386D01*
X140005485Y-135716080D01*
X139957510Y-135766876D01*
X139889689Y-135783671D01*
X139823554Y-135761134D01*
X139784515Y-135716080D01*
X139781714Y-135710582D01*
X139737287Y-135623390D01*
X139699644Y-135571578D01*
X139616971Y-135457786D01*
X139481365Y-135322180D01*
X139447880Y-135260857D01*
X139452864Y-135191165D01*
X139494736Y-135135232D01*
X139560200Y-135110815D01*
X139569046Y-135110499D01*
X139847871Y-135110499D01*
X139847872Y-135110499D01*
X139907483Y-135104091D01*
X140042331Y-135053796D01*
X140157546Y-134967546D01*
X140243796Y-134852331D01*
X140294091Y-134717483D01*
X140300500Y-134657873D01*
X140300499Y-132962128D01*
X140294091Y-132902517D01*
X140293745Y-132901588D01*
X140243858Y-132767833D01*
X140238874Y-132698141D01*
X140272359Y-132636818D01*
X140333683Y-132603334D01*
X140360040Y-132600500D01*
X141639960Y-132600500D01*
X141706999Y-132620185D01*
G37*
%TD.AperFunction*%
%TA.AperFunction,Conductor*%
G36*
X146356942Y-131710185D02*
G01*
X146377584Y-131726819D01*
X146948583Y-132297819D01*
X146982068Y-132359142D01*
X146977084Y-132428834D01*
X146935212Y-132484767D01*
X146869748Y-132509184D01*
X146860902Y-132509500D01*
X146152129Y-132509500D01*
X146152123Y-132509501D01*
X146092516Y-132515908D01*
X145957671Y-132566202D01*
X145957664Y-132566206D01*
X145842455Y-132652452D01*
X145842452Y-132652455D01*
X145756206Y-132767664D01*
X145756202Y-132767671D01*
X145705908Y-132902517D01*
X145700683Y-132951122D01*
X145699501Y-132962123D01*
X145699500Y-132962135D01*
X145699500Y-134657870D01*
X145699501Y-134657876D01*
X145705908Y-134717483D01*
X145756202Y-134852328D01*
X145756204Y-134852331D01*
X145799782Y-134910544D01*
X145824199Y-134976009D01*
X145809347Y-135044282D01*
X145759942Y-135093687D01*
X145747972Y-135099414D01*
X145745980Y-135100238D01*
X145563650Y-135193140D01*
X145398105Y-135313417D01*
X145398104Y-135313417D01*
X145312181Y-135399341D01*
X145250858Y-135432826D01*
X145181166Y-135427842D01*
X145125233Y-135385970D01*
X145100816Y-135320506D01*
X145100500Y-135311660D01*
X145100500Y-132589060D01*
X145100501Y-132589047D01*
X145100501Y-132420944D01*
X145093764Y-132395800D01*
X145059577Y-132268216D01*
X145057691Y-132264949D01*
X144980524Y-132131290D01*
X144980518Y-132131282D01*
X144884284Y-132035048D01*
X144751415Y-131902179D01*
X144717931Y-131840858D01*
X144722915Y-131771167D01*
X144764786Y-131715233D01*
X144830251Y-131690816D01*
X144839097Y-131690500D01*
X146289903Y-131690500D01*
X146356942Y-131710185D01*
G37*
%TD.AperFunction*%
%TA.AperFunction,Conductor*%
G36*
X120221444Y-121153999D02*
G01*
X120260484Y-121199054D01*
X120264591Y-121207115D01*
X120264951Y-121207820D01*
X120389890Y-121379786D01*
X120540213Y-121530109D01*
X120712179Y-121655048D01*
X120712181Y-121655049D01*
X120712184Y-121655051D01*
X120721493Y-121659794D01*
X120772290Y-121707766D01*
X120789087Y-121775587D01*
X120766552Y-121841722D01*
X120721505Y-121880760D01*
X120712446Y-121885376D01*
X120712440Y-121885380D01*
X120658282Y-121924727D01*
X120658282Y-121924728D01*
X121290591Y-122557037D01*
X121227007Y-122574075D01*
X121112993Y-122639901D01*
X121019901Y-122732993D01*
X120954075Y-122847007D01*
X120937037Y-122910591D01*
X120304728Y-122278282D01*
X120304727Y-122278282D01*
X120265380Y-122332440D01*
X120265376Y-122332446D01*
X120260760Y-122341505D01*
X120212781Y-122392297D01*
X120144959Y-122409087D01*
X120078826Y-122386543D01*
X120039794Y-122341493D01*
X120035051Y-122332184D01*
X120035049Y-122332181D01*
X120035048Y-122332179D01*
X119910109Y-122160213D01*
X119759786Y-122009890D01*
X119587820Y-121884951D01*
X119587115Y-121884591D01*
X119579054Y-121880485D01*
X119528259Y-121832512D01*
X119511463Y-121764692D01*
X119533999Y-121698556D01*
X119579054Y-121659515D01*
X119587816Y-121655051D01*
X119609789Y-121639086D01*
X119759786Y-121530109D01*
X119759788Y-121530106D01*
X119759792Y-121530104D01*
X119910104Y-121379792D01*
X119910106Y-121379788D01*
X119910109Y-121379786D01*
X120035048Y-121207820D01*
X120035047Y-121207820D01*
X120035051Y-121207816D01*
X120039514Y-121199054D01*
X120087488Y-121148259D01*
X120155308Y-121131463D01*
X120221444Y-121153999D01*
G37*
%TD.AperFunction*%
%TD*%
M02*
