%TF.GenerationSoftware,KiCad,Pcbnew,9.0.2*%
%TF.CreationDate,2025-06-11T23:47:40-06:00*%
%TF.ProjectId,Isolinear Board PCB,49736f6c-696e-4656-9172-20426f617264,rev?*%
%TF.SameCoordinates,Original*%
%TF.FileFunction,Legend,Top*%
%TF.FilePolarity,Positive*%
%FSLAX46Y46*%
G04 Gerber Fmt 4.6, Leading zero omitted, Abs format (unit mm)*
G04 Created by KiCad (PCBNEW 9.0.2) date 2025-06-11 23:47:40*
%MOMM*%
%LPD*%
G01*
G04 APERTURE LIST*
%ADD10C,0.150000*%
%ADD11C,0.120000*%
G04 APERTURE END LIST*
D10*
X114964285Y-142084157D02*
X114664285Y-141655585D01*
X114449999Y-142084157D02*
X114449999Y-141184157D01*
X114449999Y-141184157D02*
X114792856Y-141184157D01*
X114792856Y-141184157D02*
X114878571Y-141227014D01*
X114878571Y-141227014D02*
X114921428Y-141269871D01*
X114921428Y-141269871D02*
X114964285Y-141355585D01*
X114964285Y-141355585D02*
X114964285Y-141484157D01*
X114964285Y-141484157D02*
X114921428Y-141569871D01*
X114921428Y-141569871D02*
X114878571Y-141612728D01*
X114878571Y-141612728D02*
X114792856Y-141655585D01*
X114792856Y-141655585D02*
X114449999Y-141655585D01*
X115821428Y-142084157D02*
X115307142Y-142084157D01*
X115564285Y-142084157D02*
X115564285Y-141184157D01*
X115564285Y-141184157D02*
X115478571Y-141312728D01*
X115478571Y-141312728D02*
X115392856Y-141398442D01*
X115392856Y-141398442D02*
X115307142Y-141441300D01*
X116207142Y-141741300D02*
X116892857Y-141741300D01*
X117707143Y-141484157D02*
X117707143Y-142084157D01*
X117492857Y-141141300D02*
X117278571Y-141784157D01*
X117278571Y-141784157D02*
X117835714Y-141784157D01*
X119035714Y-141184157D02*
X119207142Y-141184157D01*
X119207142Y-141184157D02*
X119292857Y-141227014D01*
X119292857Y-141227014D02*
X119378571Y-141312728D01*
X119378571Y-141312728D02*
X119421428Y-141484157D01*
X119421428Y-141484157D02*
X119421428Y-141784157D01*
X119421428Y-141784157D02*
X119378571Y-141955585D01*
X119378571Y-141955585D02*
X119292857Y-142041300D01*
X119292857Y-142041300D02*
X119207142Y-142084157D01*
X119207142Y-142084157D02*
X119035714Y-142084157D01*
X119035714Y-142084157D02*
X118950000Y-142041300D01*
X118950000Y-142041300D02*
X118864285Y-141955585D01*
X118864285Y-141955585D02*
X118821428Y-141784157D01*
X118821428Y-141784157D02*
X118821428Y-141484157D01*
X118821428Y-141484157D02*
X118864285Y-141312728D01*
X118864285Y-141312728D02*
X118950000Y-141227014D01*
X118950000Y-141227014D02*
X119035714Y-141184157D01*
X119807142Y-141484157D02*
X119807142Y-142084157D01*
X119807142Y-141569871D02*
X119849999Y-141527014D01*
X119849999Y-141527014D02*
X119935714Y-141484157D01*
X119935714Y-141484157D02*
X120064285Y-141484157D01*
X120064285Y-141484157D02*
X120149999Y-141527014D01*
X120149999Y-141527014D02*
X120192857Y-141612728D01*
X120192857Y-141612728D02*
X120192857Y-142084157D01*
X120750000Y-142084157D02*
X120664285Y-142041300D01*
X120664285Y-142041300D02*
X120621428Y-141955585D01*
X120621428Y-141955585D02*
X120621428Y-141184157D01*
X121007143Y-141484157D02*
X121221429Y-142084157D01*
X121435714Y-141484157D02*
X121221429Y-142084157D01*
X121221429Y-142084157D02*
X121135714Y-142298442D01*
X121135714Y-142298442D02*
X121092857Y-142341300D01*
X121092857Y-142341300D02*
X121007143Y-142384157D01*
X115649999Y-143061678D02*
X115349999Y-143061678D01*
X115349999Y-143533107D02*
X115349999Y-142633107D01*
X115349999Y-142633107D02*
X115778571Y-142633107D01*
X116250000Y-143533107D02*
X116164285Y-143490250D01*
X116164285Y-143490250D02*
X116121428Y-143447392D01*
X116121428Y-143447392D02*
X116078571Y-143361678D01*
X116078571Y-143361678D02*
X116078571Y-143104535D01*
X116078571Y-143104535D02*
X116121428Y-143018821D01*
X116121428Y-143018821D02*
X116164285Y-142975964D01*
X116164285Y-142975964D02*
X116250000Y-142933107D01*
X116250000Y-142933107D02*
X116378571Y-142933107D01*
X116378571Y-142933107D02*
X116464285Y-142975964D01*
X116464285Y-142975964D02*
X116507143Y-143018821D01*
X116507143Y-143018821D02*
X116550000Y-143104535D01*
X116550000Y-143104535D02*
X116550000Y-143361678D01*
X116550000Y-143361678D02*
X116507143Y-143447392D01*
X116507143Y-143447392D02*
X116464285Y-143490250D01*
X116464285Y-143490250D02*
X116378571Y-143533107D01*
X116378571Y-143533107D02*
X116250000Y-143533107D01*
X116935714Y-143533107D02*
X116935714Y-142933107D01*
X116935714Y-143104535D02*
X116978571Y-143018821D01*
X116978571Y-143018821D02*
X117021429Y-142975964D01*
X117021429Y-142975964D02*
X117107143Y-142933107D01*
X117107143Y-142933107D02*
X117192857Y-142933107D01*
X118692857Y-143533107D02*
X118392857Y-143104535D01*
X118178571Y-143533107D02*
X118178571Y-142633107D01*
X118178571Y-142633107D02*
X118521428Y-142633107D01*
X118521428Y-142633107D02*
X118607143Y-142675964D01*
X118607143Y-142675964D02*
X118650000Y-142718821D01*
X118650000Y-142718821D02*
X118692857Y-142804535D01*
X118692857Y-142804535D02*
X118692857Y-142933107D01*
X118692857Y-142933107D02*
X118650000Y-143018821D01*
X118650000Y-143018821D02*
X118607143Y-143061678D01*
X118607143Y-143061678D02*
X118521428Y-143104535D01*
X118521428Y-143104535D02*
X118178571Y-143104535D01*
X119550000Y-142675964D02*
X119464286Y-142633107D01*
X119464286Y-142633107D02*
X119335714Y-142633107D01*
X119335714Y-142633107D02*
X119207143Y-142675964D01*
X119207143Y-142675964D02*
X119121428Y-142761678D01*
X119121428Y-142761678D02*
X119078571Y-142847392D01*
X119078571Y-142847392D02*
X119035714Y-143018821D01*
X119035714Y-143018821D02*
X119035714Y-143147392D01*
X119035714Y-143147392D02*
X119078571Y-143318821D01*
X119078571Y-143318821D02*
X119121428Y-143404535D01*
X119121428Y-143404535D02*
X119207143Y-143490250D01*
X119207143Y-143490250D02*
X119335714Y-143533107D01*
X119335714Y-143533107D02*
X119421428Y-143533107D01*
X119421428Y-143533107D02*
X119550000Y-143490250D01*
X119550000Y-143490250D02*
X119592857Y-143447392D01*
X119592857Y-143447392D02*
X119592857Y-143147392D01*
X119592857Y-143147392D02*
X119421428Y-143147392D01*
X120278571Y-143061678D02*
X120407143Y-143104535D01*
X120407143Y-143104535D02*
X120450000Y-143147392D01*
X120450000Y-143147392D02*
X120492857Y-143233107D01*
X120492857Y-143233107D02*
X120492857Y-143361678D01*
X120492857Y-143361678D02*
X120450000Y-143447392D01*
X120450000Y-143447392D02*
X120407143Y-143490250D01*
X120407143Y-143490250D02*
X120321428Y-143533107D01*
X120321428Y-143533107D02*
X119978571Y-143533107D01*
X119978571Y-143533107D02*
X119978571Y-142633107D01*
X119978571Y-142633107D02*
X120278571Y-142633107D01*
X120278571Y-142633107D02*
X120364286Y-142675964D01*
X120364286Y-142675964D02*
X120407143Y-142718821D01*
X120407143Y-142718821D02*
X120450000Y-142804535D01*
X120450000Y-142804535D02*
X120450000Y-142890250D01*
X120450000Y-142890250D02*
X120407143Y-142975964D01*
X120407143Y-142975964D02*
X120364286Y-143018821D01*
X120364286Y-143018821D02*
X120278571Y-143061678D01*
X120278571Y-143061678D02*
X119978571Y-143061678D01*
X115457143Y-144896342D02*
X115414286Y-144939200D01*
X115414286Y-144939200D02*
X115285714Y-144982057D01*
X115285714Y-144982057D02*
X115200000Y-144982057D01*
X115200000Y-144982057D02*
X115071429Y-144939200D01*
X115071429Y-144939200D02*
X114985714Y-144853485D01*
X114985714Y-144853485D02*
X114942857Y-144767771D01*
X114942857Y-144767771D02*
X114900000Y-144596342D01*
X114900000Y-144596342D02*
X114900000Y-144467771D01*
X114900000Y-144467771D02*
X114942857Y-144296342D01*
X114942857Y-144296342D02*
X114985714Y-144210628D01*
X114985714Y-144210628D02*
X115071429Y-144124914D01*
X115071429Y-144124914D02*
X115200000Y-144082057D01*
X115200000Y-144082057D02*
X115285714Y-144082057D01*
X115285714Y-144082057D02*
X115414286Y-144124914D01*
X115414286Y-144124914D02*
X115457143Y-144167771D01*
X115842857Y-144982057D02*
X115842857Y-144382057D01*
X115842857Y-144467771D02*
X115885714Y-144424914D01*
X115885714Y-144424914D02*
X115971429Y-144382057D01*
X115971429Y-144382057D02*
X116100000Y-144382057D01*
X116100000Y-144382057D02*
X116185714Y-144424914D01*
X116185714Y-144424914D02*
X116228572Y-144510628D01*
X116228572Y-144510628D02*
X116228572Y-144982057D01*
X116228572Y-144510628D02*
X116271429Y-144424914D01*
X116271429Y-144424914D02*
X116357143Y-144382057D01*
X116357143Y-144382057D02*
X116485714Y-144382057D01*
X116485714Y-144382057D02*
X116571429Y-144424914D01*
X116571429Y-144424914D02*
X116614286Y-144510628D01*
X116614286Y-144510628D02*
X116614286Y-144982057D01*
X117042857Y-144382057D02*
X117042857Y-144982057D01*
X117042857Y-144467771D02*
X117085714Y-144424914D01*
X117085714Y-144424914D02*
X117171429Y-144382057D01*
X117171429Y-144382057D02*
X117300000Y-144382057D01*
X117300000Y-144382057D02*
X117385714Y-144424914D01*
X117385714Y-144424914D02*
X117428572Y-144510628D01*
X117428572Y-144510628D02*
X117428572Y-144982057D01*
X119014286Y-144124914D02*
X118928572Y-144082057D01*
X118928572Y-144082057D02*
X118800000Y-144082057D01*
X118800000Y-144082057D02*
X118671429Y-144124914D01*
X118671429Y-144124914D02*
X118585714Y-144210628D01*
X118585714Y-144210628D02*
X118542857Y-144296342D01*
X118542857Y-144296342D02*
X118500000Y-144467771D01*
X118500000Y-144467771D02*
X118500000Y-144596342D01*
X118500000Y-144596342D02*
X118542857Y-144767771D01*
X118542857Y-144767771D02*
X118585714Y-144853485D01*
X118585714Y-144853485D02*
X118671429Y-144939200D01*
X118671429Y-144939200D02*
X118800000Y-144982057D01*
X118800000Y-144982057D02*
X118885714Y-144982057D01*
X118885714Y-144982057D02*
X119014286Y-144939200D01*
X119014286Y-144939200D02*
X119057143Y-144896342D01*
X119057143Y-144896342D02*
X119057143Y-144596342D01*
X119057143Y-144596342D02*
X118885714Y-144596342D01*
X119442857Y-144982057D02*
X119442857Y-144082057D01*
X119442857Y-144082057D02*
X119957143Y-144982057D01*
X119957143Y-144982057D02*
X119957143Y-144082057D01*
X120385714Y-144982057D02*
X120385714Y-144082057D01*
X120385714Y-144082057D02*
X120600000Y-144082057D01*
X120600000Y-144082057D02*
X120728571Y-144124914D01*
X120728571Y-144124914D02*
X120814286Y-144210628D01*
X120814286Y-144210628D02*
X120857143Y-144296342D01*
X120857143Y-144296342D02*
X120900000Y-144467771D01*
X120900000Y-144467771D02*
X120900000Y-144596342D01*
X120900000Y-144596342D02*
X120857143Y-144767771D01*
X120857143Y-144767771D02*
X120814286Y-144853485D01*
X120814286Y-144853485D02*
X120728571Y-144939200D01*
X120728571Y-144939200D02*
X120600000Y-144982057D01*
X120600000Y-144982057D02*
X120385714Y-144982057D01*
X158669819Y-133472744D02*
X158669819Y-133282268D01*
X158669819Y-133282268D02*
X158717438Y-133187030D01*
X158717438Y-133187030D02*
X158812676Y-133091792D01*
X158812676Y-133091792D02*
X159003152Y-133044173D01*
X159003152Y-133044173D02*
X159336485Y-133044173D01*
X159336485Y-133044173D02*
X159526961Y-133091792D01*
X159526961Y-133091792D02*
X159622200Y-133187030D01*
X159622200Y-133187030D02*
X159669819Y-133282268D01*
X159669819Y-133282268D02*
X159669819Y-133472744D01*
X159669819Y-133472744D02*
X159622200Y-133567982D01*
X159622200Y-133567982D02*
X159526961Y-133663220D01*
X159526961Y-133663220D02*
X159336485Y-133710839D01*
X159336485Y-133710839D02*
X159003152Y-133710839D01*
X159003152Y-133710839D02*
X158812676Y-133663220D01*
X158812676Y-133663220D02*
X158717438Y-133567982D01*
X158717438Y-133567982D02*
X158669819Y-133472744D01*
X158669819Y-132615601D02*
X159479342Y-132615601D01*
X159479342Y-132615601D02*
X159574580Y-132567982D01*
X159574580Y-132567982D02*
X159622200Y-132520363D01*
X159622200Y-132520363D02*
X159669819Y-132425125D01*
X159669819Y-132425125D02*
X159669819Y-132234649D01*
X159669819Y-132234649D02*
X159622200Y-132139411D01*
X159622200Y-132139411D02*
X159574580Y-132091792D01*
X159574580Y-132091792D02*
X159479342Y-132044173D01*
X159479342Y-132044173D02*
X158669819Y-132044173D01*
X158669819Y-131710839D02*
X158669819Y-131139411D01*
X159669819Y-131425125D02*
X158669819Y-131425125D01*
X159669819Y-130806077D02*
X158669819Y-130806077D01*
X158669819Y-130806077D02*
X158669819Y-130425125D01*
X158669819Y-130425125D02*
X158717438Y-130329887D01*
X158717438Y-130329887D02*
X158765057Y-130282268D01*
X158765057Y-130282268D02*
X158860295Y-130234649D01*
X158860295Y-130234649D02*
X159003152Y-130234649D01*
X159003152Y-130234649D02*
X159098390Y-130282268D01*
X159098390Y-130282268D02*
X159146009Y-130329887D01*
X159146009Y-130329887D02*
X159193628Y-130425125D01*
X159193628Y-130425125D02*
X159193628Y-130806077D01*
X158669819Y-129806077D02*
X159479342Y-129806077D01*
X159479342Y-129806077D02*
X159574580Y-129758458D01*
X159574580Y-129758458D02*
X159622200Y-129710839D01*
X159622200Y-129710839D02*
X159669819Y-129615601D01*
X159669819Y-129615601D02*
X159669819Y-129425125D01*
X159669819Y-129425125D02*
X159622200Y-129329887D01*
X159622200Y-129329887D02*
X159574580Y-129282268D01*
X159574580Y-129282268D02*
X159479342Y-129234649D01*
X159479342Y-129234649D02*
X158669819Y-129234649D01*
X158669819Y-128901315D02*
X158669819Y-128329887D01*
X159669819Y-128615601D02*
X158669819Y-128615601D01*
X120336779Y-127869819D02*
X120336779Y-126869819D01*
X120812969Y-127869819D02*
X120812969Y-126869819D01*
X120812969Y-126869819D02*
X121384397Y-127869819D01*
X121384397Y-127869819D02*
X121384397Y-126869819D01*
X121860588Y-127869819D02*
X121860588Y-126869819D01*
X121860588Y-126869819D02*
X122241540Y-126869819D01*
X122241540Y-126869819D02*
X122336778Y-126917438D01*
X122336778Y-126917438D02*
X122384397Y-126965057D01*
X122384397Y-126965057D02*
X122432016Y-127060295D01*
X122432016Y-127060295D02*
X122432016Y-127203152D01*
X122432016Y-127203152D02*
X122384397Y-127298390D01*
X122384397Y-127298390D02*
X122336778Y-127346009D01*
X122336778Y-127346009D02*
X122241540Y-127393628D01*
X122241540Y-127393628D02*
X121860588Y-127393628D01*
X122860588Y-126869819D02*
X122860588Y-127679342D01*
X122860588Y-127679342D02*
X122908207Y-127774580D01*
X122908207Y-127774580D02*
X122955826Y-127822200D01*
X122955826Y-127822200D02*
X123051064Y-127869819D01*
X123051064Y-127869819D02*
X123241540Y-127869819D01*
X123241540Y-127869819D02*
X123336778Y-127822200D01*
X123336778Y-127822200D02*
X123384397Y-127774580D01*
X123384397Y-127774580D02*
X123432016Y-127679342D01*
X123432016Y-127679342D02*
X123432016Y-126869819D01*
X123765350Y-126869819D02*
X124336778Y-126869819D01*
X124051064Y-127869819D02*
X124051064Y-126869819D01*
X135324819Y-136166666D02*
X134848628Y-136499999D01*
X135324819Y-136738094D02*
X134324819Y-136738094D01*
X134324819Y-136738094D02*
X134324819Y-136357142D01*
X134324819Y-136357142D02*
X134372438Y-136261904D01*
X134372438Y-136261904D02*
X134420057Y-136214285D01*
X134420057Y-136214285D02*
X134515295Y-136166666D01*
X134515295Y-136166666D02*
X134658152Y-136166666D01*
X134658152Y-136166666D02*
X134753390Y-136214285D01*
X134753390Y-136214285D02*
X134801009Y-136261904D01*
X134801009Y-136261904D02*
X134848628Y-136357142D01*
X134848628Y-136357142D02*
X134848628Y-136738094D01*
X135324819Y-135214285D02*
X135324819Y-135785713D01*
X135324819Y-135499999D02*
X134324819Y-135499999D01*
X134324819Y-135499999D02*
X134467676Y-135595237D01*
X134467676Y-135595237D02*
X134562914Y-135690475D01*
X134562914Y-135690475D02*
X134610533Y-135785713D01*
X129787905Y-145218819D02*
X129787905Y-144218819D01*
X129787905Y-144218819D02*
X130026000Y-144218819D01*
X130026000Y-144218819D02*
X130168857Y-144266438D01*
X130168857Y-144266438D02*
X130264095Y-144361676D01*
X130264095Y-144361676D02*
X130311714Y-144456914D01*
X130311714Y-144456914D02*
X130359333Y-144647390D01*
X130359333Y-144647390D02*
X130359333Y-144790247D01*
X130359333Y-144790247D02*
X130311714Y-144980723D01*
X130311714Y-144980723D02*
X130264095Y-145075961D01*
X130264095Y-145075961D02*
X130168857Y-145171200D01*
X130168857Y-145171200D02*
X130026000Y-145218819D01*
X130026000Y-145218819D02*
X129787905Y-145218819D01*
X131311714Y-145218819D02*
X130740286Y-145218819D01*
X131026000Y-145218819D02*
X131026000Y-144218819D01*
X131026000Y-144218819D02*
X130930762Y-144361676D01*
X130930762Y-144361676D02*
X130835524Y-144456914D01*
X130835524Y-144456914D02*
X130740286Y-144504533D01*
X119833333Y-138954819D02*
X119500000Y-138478628D01*
X119261905Y-138954819D02*
X119261905Y-137954819D01*
X119261905Y-137954819D02*
X119642857Y-137954819D01*
X119642857Y-137954819D02*
X119738095Y-138002438D01*
X119738095Y-138002438D02*
X119785714Y-138050057D01*
X119785714Y-138050057D02*
X119833333Y-138145295D01*
X119833333Y-138145295D02*
X119833333Y-138288152D01*
X119833333Y-138288152D02*
X119785714Y-138383390D01*
X119785714Y-138383390D02*
X119738095Y-138431009D01*
X119738095Y-138431009D02*
X119642857Y-138478628D01*
X119642857Y-138478628D02*
X119261905Y-138478628D01*
X120166667Y-137954819D02*
X120785714Y-137954819D01*
X120785714Y-137954819D02*
X120452381Y-138335771D01*
X120452381Y-138335771D02*
X120595238Y-138335771D01*
X120595238Y-138335771D02*
X120690476Y-138383390D01*
X120690476Y-138383390D02*
X120738095Y-138431009D01*
X120738095Y-138431009D02*
X120785714Y-138526247D01*
X120785714Y-138526247D02*
X120785714Y-138764342D01*
X120785714Y-138764342D02*
X120738095Y-138859580D01*
X120738095Y-138859580D02*
X120690476Y-138907200D01*
X120690476Y-138907200D02*
X120595238Y-138954819D01*
X120595238Y-138954819D02*
X120309524Y-138954819D01*
X120309524Y-138954819D02*
X120214286Y-138907200D01*
X120214286Y-138907200D02*
X120166667Y-138859580D01*
X141334819Y-130738094D02*
X140334819Y-130738094D01*
X140334819Y-130738094D02*
X140334819Y-130499999D01*
X140334819Y-130499999D02*
X140382438Y-130357142D01*
X140382438Y-130357142D02*
X140477676Y-130261904D01*
X140477676Y-130261904D02*
X140572914Y-130214285D01*
X140572914Y-130214285D02*
X140763390Y-130166666D01*
X140763390Y-130166666D02*
X140906247Y-130166666D01*
X140906247Y-130166666D02*
X141096723Y-130214285D01*
X141096723Y-130214285D02*
X141191961Y-130261904D01*
X141191961Y-130261904D02*
X141287200Y-130357142D01*
X141287200Y-130357142D02*
X141334819Y-130499999D01*
X141334819Y-130499999D02*
X141334819Y-130738094D01*
X140334819Y-129309523D02*
X140334819Y-129499999D01*
X140334819Y-129499999D02*
X140382438Y-129595237D01*
X140382438Y-129595237D02*
X140430057Y-129642856D01*
X140430057Y-129642856D02*
X140572914Y-129738094D01*
X140572914Y-129738094D02*
X140763390Y-129785713D01*
X140763390Y-129785713D02*
X141144342Y-129785713D01*
X141144342Y-129785713D02*
X141239580Y-129738094D01*
X141239580Y-129738094D02*
X141287200Y-129690475D01*
X141287200Y-129690475D02*
X141334819Y-129595237D01*
X141334819Y-129595237D02*
X141334819Y-129404761D01*
X141334819Y-129404761D02*
X141287200Y-129309523D01*
X141287200Y-129309523D02*
X141239580Y-129261904D01*
X141239580Y-129261904D02*
X141144342Y-129214285D01*
X141144342Y-129214285D02*
X140906247Y-129214285D01*
X140906247Y-129214285D02*
X140811009Y-129261904D01*
X140811009Y-129261904D02*
X140763390Y-129309523D01*
X140763390Y-129309523D02*
X140715771Y-129404761D01*
X140715771Y-129404761D02*
X140715771Y-129595237D01*
X140715771Y-129595237D02*
X140763390Y-129690475D01*
X140763390Y-129690475D02*
X140811009Y-129738094D01*
X140811009Y-129738094D02*
X140906247Y-129785713D01*
X141654819Y-134071904D02*
X140654819Y-134071904D01*
X141654819Y-133500476D02*
X141083390Y-133929047D01*
X140654819Y-133500476D02*
X141226247Y-134071904D01*
X149334819Y-130738094D02*
X148334819Y-130738094D01*
X148334819Y-130738094D02*
X148334819Y-130499999D01*
X148334819Y-130499999D02*
X148382438Y-130357142D01*
X148382438Y-130357142D02*
X148477676Y-130261904D01*
X148477676Y-130261904D02*
X148572914Y-130214285D01*
X148572914Y-130214285D02*
X148763390Y-130166666D01*
X148763390Y-130166666D02*
X148906247Y-130166666D01*
X148906247Y-130166666D02*
X149096723Y-130214285D01*
X149096723Y-130214285D02*
X149191961Y-130261904D01*
X149191961Y-130261904D02*
X149287200Y-130357142D01*
X149287200Y-130357142D02*
X149334819Y-130499999D01*
X149334819Y-130499999D02*
X149334819Y-130738094D01*
X148668152Y-129309523D02*
X149334819Y-129309523D01*
X148287200Y-129547618D02*
X149001485Y-129785713D01*
X149001485Y-129785713D02*
X149001485Y-129166666D01*
X149654819Y-134071904D02*
X148654819Y-134071904D01*
X149654819Y-133500476D02*
X149083390Y-133929047D01*
X148654819Y-133500476D02*
X149226247Y-134071904D01*
X153334819Y-130738094D02*
X152334819Y-130738094D01*
X152334819Y-130738094D02*
X152334819Y-130499999D01*
X152334819Y-130499999D02*
X152382438Y-130357142D01*
X152382438Y-130357142D02*
X152477676Y-130261904D01*
X152477676Y-130261904D02*
X152572914Y-130214285D01*
X152572914Y-130214285D02*
X152763390Y-130166666D01*
X152763390Y-130166666D02*
X152906247Y-130166666D01*
X152906247Y-130166666D02*
X153096723Y-130214285D01*
X153096723Y-130214285D02*
X153191961Y-130261904D01*
X153191961Y-130261904D02*
X153287200Y-130357142D01*
X153287200Y-130357142D02*
X153334819Y-130499999D01*
X153334819Y-130499999D02*
X153334819Y-130738094D01*
X152334819Y-129261904D02*
X152334819Y-129738094D01*
X152334819Y-129738094D02*
X152811009Y-129785713D01*
X152811009Y-129785713D02*
X152763390Y-129738094D01*
X152763390Y-129738094D02*
X152715771Y-129642856D01*
X152715771Y-129642856D02*
X152715771Y-129404761D01*
X152715771Y-129404761D02*
X152763390Y-129309523D01*
X152763390Y-129309523D02*
X152811009Y-129261904D01*
X152811009Y-129261904D02*
X152906247Y-129214285D01*
X152906247Y-129214285D02*
X153144342Y-129214285D01*
X153144342Y-129214285D02*
X153239580Y-129261904D01*
X153239580Y-129261904D02*
X153287200Y-129309523D01*
X153287200Y-129309523D02*
X153334819Y-129404761D01*
X153334819Y-129404761D02*
X153334819Y-129642856D01*
X153334819Y-129642856D02*
X153287200Y-129738094D01*
X153287200Y-129738094D02*
X153239580Y-129785713D01*
X153654819Y-134071904D02*
X152654819Y-134071904D01*
X153654819Y-133500476D02*
X153083390Y-133929047D01*
X152654819Y-133500476D02*
X153226247Y-134071904D01*
X137334819Y-130738094D02*
X136334819Y-130738094D01*
X136334819Y-130738094D02*
X136334819Y-130499999D01*
X136334819Y-130499999D02*
X136382438Y-130357142D01*
X136382438Y-130357142D02*
X136477676Y-130261904D01*
X136477676Y-130261904D02*
X136572914Y-130214285D01*
X136572914Y-130214285D02*
X136763390Y-130166666D01*
X136763390Y-130166666D02*
X136906247Y-130166666D01*
X136906247Y-130166666D02*
X137096723Y-130214285D01*
X137096723Y-130214285D02*
X137191961Y-130261904D01*
X137191961Y-130261904D02*
X137287200Y-130357142D01*
X137287200Y-130357142D02*
X137334819Y-130499999D01*
X137334819Y-130499999D02*
X137334819Y-130738094D01*
X136430057Y-129785713D02*
X136382438Y-129738094D01*
X136382438Y-129738094D02*
X136334819Y-129642856D01*
X136334819Y-129642856D02*
X136334819Y-129404761D01*
X136334819Y-129404761D02*
X136382438Y-129309523D01*
X136382438Y-129309523D02*
X136430057Y-129261904D01*
X136430057Y-129261904D02*
X136525295Y-129214285D01*
X136525295Y-129214285D02*
X136620533Y-129214285D01*
X136620533Y-129214285D02*
X136763390Y-129261904D01*
X136763390Y-129261904D02*
X137334819Y-129833332D01*
X137334819Y-129833332D02*
X137334819Y-129214285D01*
X137654819Y-134071904D02*
X136654819Y-134071904D01*
X137654819Y-133500476D02*
X137083390Y-133929047D01*
X136654819Y-133500476D02*
X137226247Y-134071904D01*
X125083333Y-137704819D02*
X124750000Y-137228628D01*
X124511905Y-137704819D02*
X124511905Y-136704819D01*
X124511905Y-136704819D02*
X124892857Y-136704819D01*
X124892857Y-136704819D02*
X124988095Y-136752438D01*
X124988095Y-136752438D02*
X125035714Y-136800057D01*
X125035714Y-136800057D02*
X125083333Y-136895295D01*
X125083333Y-136895295D02*
X125083333Y-137038152D01*
X125083333Y-137038152D02*
X125035714Y-137133390D01*
X125035714Y-137133390D02*
X124988095Y-137181009D01*
X124988095Y-137181009D02*
X124892857Y-137228628D01*
X124892857Y-137228628D02*
X124511905Y-137228628D01*
X125940476Y-137038152D02*
X125940476Y-137704819D01*
X125702381Y-136657200D02*
X125464286Y-137371485D01*
X125464286Y-137371485D02*
X126083333Y-137371485D01*
X166454819Y-146561904D02*
X165454819Y-146561904D01*
X165931009Y-146561904D02*
X165931009Y-145990476D01*
X166454819Y-145990476D02*
X165454819Y-145990476D01*
X166454819Y-144990476D02*
X166454819Y-145561904D01*
X166454819Y-145276190D02*
X165454819Y-145276190D01*
X165454819Y-145276190D02*
X165597676Y-145371428D01*
X165597676Y-145371428D02*
X165692914Y-145466666D01*
X165692914Y-145466666D02*
X165740533Y-145561904D01*
X145334819Y-130738094D02*
X144334819Y-130738094D01*
X144334819Y-130738094D02*
X144334819Y-130499999D01*
X144334819Y-130499999D02*
X144382438Y-130357142D01*
X144382438Y-130357142D02*
X144477676Y-130261904D01*
X144477676Y-130261904D02*
X144572914Y-130214285D01*
X144572914Y-130214285D02*
X144763390Y-130166666D01*
X144763390Y-130166666D02*
X144906247Y-130166666D01*
X144906247Y-130166666D02*
X145096723Y-130214285D01*
X145096723Y-130214285D02*
X145191961Y-130261904D01*
X145191961Y-130261904D02*
X145287200Y-130357142D01*
X145287200Y-130357142D02*
X145334819Y-130499999D01*
X145334819Y-130499999D02*
X145334819Y-130738094D01*
X144334819Y-129833332D02*
X144334819Y-129214285D01*
X144334819Y-129214285D02*
X144715771Y-129547618D01*
X144715771Y-129547618D02*
X144715771Y-129404761D01*
X144715771Y-129404761D02*
X144763390Y-129309523D01*
X144763390Y-129309523D02*
X144811009Y-129261904D01*
X144811009Y-129261904D02*
X144906247Y-129214285D01*
X144906247Y-129214285D02*
X145144342Y-129214285D01*
X145144342Y-129214285D02*
X145239580Y-129261904D01*
X145239580Y-129261904D02*
X145287200Y-129309523D01*
X145287200Y-129309523D02*
X145334819Y-129404761D01*
X145334819Y-129404761D02*
X145334819Y-129690475D01*
X145334819Y-129690475D02*
X145287200Y-129785713D01*
X145287200Y-129785713D02*
X145239580Y-129833332D01*
X145654819Y-134071904D02*
X144654819Y-134071904D01*
X145654819Y-133500476D02*
X145083390Y-133929047D01*
X144654819Y-133500476D02*
X145226247Y-134071904D01*
X143954819Y-142011904D02*
X144764342Y-142011904D01*
X144764342Y-142011904D02*
X144859580Y-141964285D01*
X144859580Y-141964285D02*
X144907200Y-141916666D01*
X144907200Y-141916666D02*
X144954819Y-141821428D01*
X144954819Y-141821428D02*
X144954819Y-141630952D01*
X144954819Y-141630952D02*
X144907200Y-141535714D01*
X144907200Y-141535714D02*
X144859580Y-141488095D01*
X144859580Y-141488095D02*
X144764342Y-141440476D01*
X144764342Y-141440476D02*
X143954819Y-141440476D01*
X144954819Y-140440476D02*
X144954819Y-141011904D01*
X144954819Y-140726190D02*
X143954819Y-140726190D01*
X143954819Y-140726190D02*
X144097676Y-140821428D01*
X144097676Y-140821428D02*
X144192914Y-140916666D01*
X144192914Y-140916666D02*
X144240533Y-141011904D01*
X134238095Y-124654819D02*
X134238095Y-123654819D01*
X134238095Y-124131009D02*
X134809523Y-124131009D01*
X134809523Y-124654819D02*
X134809523Y-123654819D01*
X135238095Y-123750057D02*
X135285714Y-123702438D01*
X135285714Y-123702438D02*
X135380952Y-123654819D01*
X135380952Y-123654819D02*
X135619047Y-123654819D01*
X135619047Y-123654819D02*
X135714285Y-123702438D01*
X135714285Y-123702438D02*
X135761904Y-123750057D01*
X135761904Y-123750057D02*
X135809523Y-123845295D01*
X135809523Y-123845295D02*
X135809523Y-123940533D01*
X135809523Y-123940533D02*
X135761904Y-124083390D01*
X135761904Y-124083390D02*
X135190476Y-124654819D01*
X135190476Y-124654819D02*
X135809523Y-124654819D01*
X114954819Y-137166666D02*
X114478628Y-137499999D01*
X114954819Y-137738094D02*
X113954819Y-137738094D01*
X113954819Y-137738094D02*
X113954819Y-137357142D01*
X113954819Y-137357142D02*
X114002438Y-137261904D01*
X114002438Y-137261904D02*
X114050057Y-137214285D01*
X114050057Y-137214285D02*
X114145295Y-137166666D01*
X114145295Y-137166666D02*
X114288152Y-137166666D01*
X114288152Y-137166666D02*
X114383390Y-137214285D01*
X114383390Y-137214285D02*
X114431009Y-137261904D01*
X114431009Y-137261904D02*
X114478628Y-137357142D01*
X114478628Y-137357142D02*
X114478628Y-137738094D01*
X114050057Y-136785713D02*
X114002438Y-136738094D01*
X114002438Y-136738094D02*
X113954819Y-136642856D01*
X113954819Y-136642856D02*
X113954819Y-136404761D01*
X113954819Y-136404761D02*
X114002438Y-136309523D01*
X114002438Y-136309523D02*
X114050057Y-136261904D01*
X114050057Y-136261904D02*
X114145295Y-136214285D01*
X114145295Y-136214285D02*
X114240533Y-136214285D01*
X114240533Y-136214285D02*
X114383390Y-136261904D01*
X114383390Y-136261904D02*
X114954819Y-136833332D01*
X114954819Y-136833332D02*
X114954819Y-136214285D01*
D11*
%TO.C,R1*%
X131130000Y-132730000D02*
X131130000Y-139270000D01*
X131130000Y-139270000D02*
X131460000Y-139270000D01*
X131460000Y-132730000D02*
X131130000Y-132730000D01*
X133540000Y-132730000D02*
X133870000Y-132730000D01*
X133870000Y-132730000D02*
X133870000Y-139270000D01*
X133870000Y-139270000D02*
X133540000Y-139270000D01*
%TO.C,D1*%
X123553000Y-142301188D02*
X123553000Y-143547000D01*
X123728000Y-140202000D02*
G75*
G02*
X129089835Y-141743784I2385000J-1800000D01*
G01*
X124360401Y-140224001D02*
G75*
G02*
X128593090Y-141715579I1752599J-1777999D01*
G01*
X128072086Y-143555056D02*
G75*
G02*
X123858316Y-143082000I-1959086J1553056D01*
G01*
X128504334Y-143796887D02*
G75*
G02*
X123553000Y-143546830I-2391334J1794887D01*
G01*
%TO.C,R3*%
X118630000Y-129730000D02*
X118630000Y-136270000D01*
X118630000Y-136270000D02*
X118960000Y-136270000D01*
X118960000Y-129730000D02*
X118630000Y-129730000D01*
X121040000Y-129730000D02*
X121370000Y-129730000D01*
X121370000Y-129730000D02*
X121370000Y-136270000D01*
X121370000Y-136270000D02*
X121040000Y-136270000D01*
%TO.C,D6*%
X141880000Y-127880000D02*
X141880000Y-132120000D01*
X141880000Y-131280000D02*
X144120000Y-131280000D01*
X141880000Y-131400000D02*
X144120000Y-131400000D01*
X141880000Y-131520000D02*
X144120000Y-131520000D01*
X141880000Y-132120000D02*
X144120000Y-132120000D01*
X143000000Y-127230000D02*
X143000000Y-127880000D01*
X143000000Y-132770000D02*
X143000000Y-132120000D01*
X144120000Y-127880000D02*
X141880000Y-127880000D01*
X144120000Y-132120000D02*
X144120000Y-127880000D01*
%TO.C,D4*%
X149880000Y-127880000D02*
X149880000Y-132120000D01*
X149880000Y-131280000D02*
X152120000Y-131280000D01*
X149880000Y-131400000D02*
X152120000Y-131400000D01*
X149880000Y-131520000D02*
X152120000Y-131520000D01*
X149880000Y-132120000D02*
X152120000Y-132120000D01*
X151000000Y-127230000D02*
X151000000Y-127880000D01*
X151000000Y-132770000D02*
X151000000Y-132120000D01*
X152120000Y-127880000D02*
X149880000Y-127880000D01*
X152120000Y-132120000D02*
X152120000Y-127880000D01*
%TO.C,D5*%
X153880000Y-127880000D02*
X153880000Y-132120000D01*
X153880000Y-131280000D02*
X156120000Y-131280000D01*
X153880000Y-131400000D02*
X156120000Y-131400000D01*
X153880000Y-131520000D02*
X156120000Y-131520000D01*
X153880000Y-132120000D02*
X156120000Y-132120000D01*
X155000000Y-127230000D02*
X155000000Y-127880000D01*
X155000000Y-132770000D02*
X155000000Y-132120000D01*
X156120000Y-127880000D02*
X153880000Y-127880000D01*
X156120000Y-132120000D02*
X156120000Y-127880000D01*
%TO.C,D2*%
X137880000Y-127880000D02*
X137880000Y-132120000D01*
X137880000Y-131280000D02*
X140120000Y-131280000D01*
X137880000Y-131400000D02*
X140120000Y-131400000D01*
X137880000Y-131520000D02*
X140120000Y-131520000D01*
X137880000Y-132120000D02*
X140120000Y-132120000D01*
X139000000Y-127230000D02*
X139000000Y-127880000D01*
X139000000Y-132770000D02*
X139000000Y-132120000D01*
X140120000Y-127880000D02*
X137880000Y-127880000D01*
X140120000Y-132120000D02*
X140120000Y-127880000D01*
%TO.C,R4*%
X122130000Y-129730000D02*
X122130000Y-136270000D01*
X122130000Y-136270000D02*
X122460000Y-136270000D01*
X122460000Y-129730000D02*
X122130000Y-129730000D01*
X124540000Y-129730000D02*
X124870000Y-129730000D01*
X124870000Y-129730000D02*
X124870000Y-136270000D01*
X124870000Y-136270000D02*
X124540000Y-136270000D01*
%TO.C,D3*%
X145880000Y-127880000D02*
X145880000Y-132120000D01*
X145880000Y-131280000D02*
X148120000Y-131280000D01*
X145880000Y-131400000D02*
X148120000Y-131400000D01*
X145880000Y-131520000D02*
X148120000Y-131520000D01*
X145880000Y-132120000D02*
X148120000Y-132120000D01*
X147000000Y-127230000D02*
X147000000Y-127880000D01*
X147000000Y-132770000D02*
X147000000Y-132120000D01*
X148120000Y-127880000D02*
X145880000Y-127880000D01*
X148120000Y-132120000D02*
X148120000Y-127880000D01*
%TO.C,U1*%
X137295000Y-138265000D02*
X137295000Y-139515000D01*
X137295000Y-141515000D02*
X137295000Y-142765000D01*
X137295000Y-142765000D02*
X157735000Y-142765000D01*
X157735000Y-138265000D02*
X137295000Y-138265000D01*
X157735000Y-142765000D02*
X157735000Y-138265000D01*
X137295000Y-139515000D02*
G75*
G02*
X137295000Y-141515000I0J-1000000D01*
G01*
%TO.C,R2*%
X115130000Y-129730000D02*
X115130000Y-136270000D01*
X115130000Y-136270000D02*
X115460000Y-136270000D01*
X115460000Y-129730000D02*
X115130000Y-129730000D01*
X117540000Y-129730000D02*
X117870000Y-129730000D01*
X117870000Y-129730000D02*
X117870000Y-136270000D01*
X117870000Y-136270000D02*
X117540000Y-136270000D01*
%TD*%
M02*
