%TF.GenerationSoftware,KiCad,Pcbnew,9.0.2*%
%TF.CreationDate,2025-06-11T23:47:40-06:00*%
%TF.ProjectId,Isolinear Board PCB,49736f6c-696e-4656-9172-20426f617264,rev?*%
%TF.SameCoordinates,Original*%
%TF.FileFunction,Legend,Bot*%
%TF.FilePolarity,Positive*%
%FSLAX46Y46*%
G04 Gerber Fmt 4.6, Leading zero omitted, Abs format (unit mm)*
G04 Created by KiCad (PCBNEW 9.0.2) date 2025-06-11 23:47:40*
%MOMM*%
%LPD*%
G01*
G04 APERTURE LIST*
%ADD10C,0.125000*%
%ADD11C,0.150000*%
%ADD12C,0.300000*%
%ADD13C,0.120000*%
G04 APERTURE END LIST*
D10*
X118840474Y-142810460D02*
X118769046Y-142834270D01*
X118769046Y-142834270D02*
X118745236Y-142858079D01*
X118745236Y-142858079D02*
X118721427Y-142905698D01*
X118721427Y-142905698D02*
X118721427Y-142977127D01*
X118721427Y-142977127D02*
X118745236Y-143024746D01*
X118745236Y-143024746D02*
X118769046Y-143048556D01*
X118769046Y-143048556D02*
X118816665Y-143072365D01*
X118816665Y-143072365D02*
X119007141Y-143072365D01*
X119007141Y-143072365D02*
X119007141Y-142572365D01*
X119007141Y-142572365D02*
X118840474Y-142572365D01*
X118840474Y-142572365D02*
X118792855Y-142596175D01*
X118792855Y-142596175D02*
X118769046Y-142619984D01*
X118769046Y-142619984D02*
X118745236Y-142667603D01*
X118745236Y-142667603D02*
X118745236Y-142715222D01*
X118745236Y-142715222D02*
X118769046Y-142762841D01*
X118769046Y-142762841D02*
X118792855Y-142786651D01*
X118792855Y-142786651D02*
X118840474Y-142810460D01*
X118840474Y-142810460D02*
X119007141Y-142810460D01*
X118507141Y-143072365D02*
X118507141Y-142739032D01*
X118507141Y-142834270D02*
X118483331Y-142786651D01*
X118483331Y-142786651D02*
X118459522Y-142762841D01*
X118459522Y-142762841D02*
X118411903Y-142739032D01*
X118411903Y-142739032D02*
X118364284Y-142739032D01*
X118007141Y-143048556D02*
X118054760Y-143072365D01*
X118054760Y-143072365D02*
X118149998Y-143072365D01*
X118149998Y-143072365D02*
X118197617Y-143048556D01*
X118197617Y-143048556D02*
X118221426Y-143000936D01*
X118221426Y-143000936D02*
X118221426Y-142810460D01*
X118221426Y-142810460D02*
X118197617Y-142762841D01*
X118197617Y-142762841D02*
X118149998Y-142739032D01*
X118149998Y-142739032D02*
X118054760Y-142739032D01*
X118054760Y-142739032D02*
X118007141Y-142762841D01*
X118007141Y-142762841D02*
X117983331Y-142810460D01*
X117983331Y-142810460D02*
X117983331Y-142858079D01*
X117983331Y-142858079D02*
X118221426Y-142905698D01*
X117554760Y-143072365D02*
X117554760Y-142810460D01*
X117554760Y-142810460D02*
X117578570Y-142762841D01*
X117578570Y-142762841D02*
X117626189Y-142739032D01*
X117626189Y-142739032D02*
X117721427Y-142739032D01*
X117721427Y-142739032D02*
X117769046Y-142762841D01*
X117554760Y-143048556D02*
X117602379Y-143072365D01*
X117602379Y-143072365D02*
X117721427Y-143072365D01*
X117721427Y-143072365D02*
X117769046Y-143048556D01*
X117769046Y-143048556D02*
X117792855Y-143000936D01*
X117792855Y-143000936D02*
X117792855Y-142953317D01*
X117792855Y-142953317D02*
X117769046Y-142905698D01*
X117769046Y-142905698D02*
X117721427Y-142881889D01*
X117721427Y-142881889D02*
X117602379Y-142881889D01*
X117602379Y-142881889D02*
X117554760Y-142858079D01*
X117316665Y-143072365D02*
X117316665Y-142572365D01*
X117269046Y-142881889D02*
X117126189Y-143072365D01*
X117126189Y-142739032D02*
X117316665Y-142929508D01*
X116388094Y-142572365D02*
X116388094Y-142929508D01*
X116388094Y-142929508D02*
X116411903Y-143000936D01*
X116411903Y-143000936D02*
X116459522Y-143048556D01*
X116459522Y-143048556D02*
X116530951Y-143072365D01*
X116530951Y-143072365D02*
X116578570Y-143072365D01*
X115935713Y-142739032D02*
X115935713Y-143072365D01*
X116054761Y-142548556D02*
X116173808Y-142905698D01*
X116173808Y-142905698D02*
X115864285Y-142905698D01*
X115078571Y-143072365D02*
X115078571Y-142810460D01*
X115078571Y-142810460D02*
X115102381Y-142762841D01*
X115102381Y-142762841D02*
X115150000Y-142739032D01*
X115150000Y-142739032D02*
X115245238Y-142739032D01*
X115245238Y-142739032D02*
X115292857Y-142762841D01*
X115078571Y-143048556D02*
X115126190Y-143072365D01*
X115126190Y-143072365D02*
X115245238Y-143072365D01*
X115245238Y-143072365D02*
X115292857Y-143048556D01*
X115292857Y-143048556D02*
X115316666Y-143000936D01*
X115316666Y-143000936D02*
X115316666Y-142953317D01*
X115316666Y-142953317D02*
X115292857Y-142905698D01*
X115292857Y-142905698D02*
X115245238Y-142881889D01*
X115245238Y-142881889D02*
X115126190Y-142881889D01*
X115126190Y-142881889D02*
X115078571Y-142858079D01*
X114840476Y-142739032D02*
X114840476Y-143072365D01*
X114840476Y-142786651D02*
X114816666Y-142762841D01*
X114816666Y-142762841D02*
X114769047Y-142739032D01*
X114769047Y-142739032D02*
X114697619Y-142739032D01*
X114697619Y-142739032D02*
X114650000Y-142762841D01*
X114650000Y-142762841D02*
X114626190Y-142810460D01*
X114626190Y-142810460D02*
X114626190Y-143072365D01*
X114173809Y-143072365D02*
X114173809Y-142572365D01*
X114173809Y-143048556D02*
X114221428Y-143072365D01*
X114221428Y-143072365D02*
X114316666Y-143072365D01*
X114316666Y-143072365D02*
X114364285Y-143048556D01*
X114364285Y-143048556D02*
X114388095Y-143024746D01*
X114388095Y-143024746D02*
X114411904Y-142977127D01*
X114411904Y-142977127D02*
X114411904Y-142834270D01*
X114411904Y-142834270D02*
X114388095Y-142786651D01*
X114388095Y-142786651D02*
X114364285Y-142762841D01*
X114364285Y-142762841D02*
X114316666Y-142739032D01*
X114316666Y-142739032D02*
X114221428Y-142739032D01*
X114221428Y-142739032D02*
X114173809Y-142762841D01*
X118971427Y-143877337D02*
X118971427Y-143377337D01*
X118971427Y-143567813D02*
X118923808Y-143544004D01*
X118923808Y-143544004D02*
X118828570Y-143544004D01*
X118828570Y-143544004D02*
X118780951Y-143567813D01*
X118780951Y-143567813D02*
X118757141Y-143591623D01*
X118757141Y-143591623D02*
X118733332Y-143639242D01*
X118733332Y-143639242D02*
X118733332Y-143782099D01*
X118733332Y-143782099D02*
X118757141Y-143829718D01*
X118757141Y-143829718D02*
X118780951Y-143853528D01*
X118780951Y-143853528D02*
X118828570Y-143877337D01*
X118828570Y-143877337D02*
X118923808Y-143877337D01*
X118923808Y-143877337D02*
X118971427Y-143853528D01*
X118519046Y-143877337D02*
X118519046Y-143544004D01*
X118519046Y-143639242D02*
X118495236Y-143591623D01*
X118495236Y-143591623D02*
X118471427Y-143567813D01*
X118471427Y-143567813D02*
X118423808Y-143544004D01*
X118423808Y-143544004D02*
X118376189Y-143544004D01*
X118209522Y-143877337D02*
X118209522Y-143544004D01*
X118209522Y-143377337D02*
X118233331Y-143401147D01*
X118233331Y-143401147D02*
X118209522Y-143424956D01*
X118209522Y-143424956D02*
X118185712Y-143401147D01*
X118185712Y-143401147D02*
X118209522Y-143377337D01*
X118209522Y-143377337D02*
X118209522Y-143424956D01*
X117757141Y-143877337D02*
X117757141Y-143377337D01*
X117757141Y-143853528D02*
X117804760Y-143877337D01*
X117804760Y-143877337D02*
X117899998Y-143877337D01*
X117899998Y-143877337D02*
X117947617Y-143853528D01*
X117947617Y-143853528D02*
X117971427Y-143829718D01*
X117971427Y-143829718D02*
X117995236Y-143782099D01*
X117995236Y-143782099D02*
X117995236Y-143639242D01*
X117995236Y-143639242D02*
X117971427Y-143591623D01*
X117971427Y-143591623D02*
X117947617Y-143567813D01*
X117947617Y-143567813D02*
X117899998Y-143544004D01*
X117899998Y-143544004D02*
X117804760Y-143544004D01*
X117804760Y-143544004D02*
X117757141Y-143567813D01*
X117304760Y-143544004D02*
X117304760Y-143948766D01*
X117304760Y-143948766D02*
X117328570Y-143996385D01*
X117328570Y-143996385D02*
X117352379Y-144020194D01*
X117352379Y-144020194D02*
X117399998Y-144044004D01*
X117399998Y-144044004D02*
X117471427Y-144044004D01*
X117471427Y-144044004D02*
X117519046Y-144020194D01*
X117304760Y-143853528D02*
X117352379Y-143877337D01*
X117352379Y-143877337D02*
X117447617Y-143877337D01*
X117447617Y-143877337D02*
X117495236Y-143853528D01*
X117495236Y-143853528D02*
X117519046Y-143829718D01*
X117519046Y-143829718D02*
X117542855Y-143782099D01*
X117542855Y-143782099D02*
X117542855Y-143639242D01*
X117542855Y-143639242D02*
X117519046Y-143591623D01*
X117519046Y-143591623D02*
X117495236Y-143567813D01*
X117495236Y-143567813D02*
X117447617Y-143544004D01*
X117447617Y-143544004D02*
X117352379Y-143544004D01*
X117352379Y-143544004D02*
X117304760Y-143567813D01*
X116876189Y-143853528D02*
X116923808Y-143877337D01*
X116923808Y-143877337D02*
X117019046Y-143877337D01*
X117019046Y-143877337D02*
X117066665Y-143853528D01*
X117066665Y-143853528D02*
X117090474Y-143805908D01*
X117090474Y-143805908D02*
X117090474Y-143615432D01*
X117090474Y-143615432D02*
X117066665Y-143567813D01*
X117066665Y-143567813D02*
X117019046Y-143544004D01*
X117019046Y-143544004D02*
X116923808Y-143544004D01*
X116923808Y-143544004D02*
X116876189Y-143567813D01*
X116876189Y-143567813D02*
X116852379Y-143615432D01*
X116852379Y-143615432D02*
X116852379Y-143663051D01*
X116852379Y-143663051D02*
X117090474Y-143710670D01*
X116114285Y-143377337D02*
X116114285Y-143734480D01*
X116114285Y-143734480D02*
X116138094Y-143805908D01*
X116138094Y-143805908D02*
X116185713Y-143853528D01*
X116185713Y-143853528D02*
X116257142Y-143877337D01*
X116257142Y-143877337D02*
X116304761Y-143877337D01*
X115638095Y-143377337D02*
X115876190Y-143377337D01*
X115876190Y-143377337D02*
X115899999Y-143615432D01*
X115899999Y-143615432D02*
X115876190Y-143591623D01*
X115876190Y-143591623D02*
X115828571Y-143567813D01*
X115828571Y-143567813D02*
X115709523Y-143567813D01*
X115709523Y-143567813D02*
X115661904Y-143591623D01*
X115661904Y-143591623D02*
X115638095Y-143615432D01*
X115638095Y-143615432D02*
X115614285Y-143663051D01*
X115614285Y-143663051D02*
X115614285Y-143782099D01*
X115614285Y-143782099D02*
X115638095Y-143829718D01*
X115638095Y-143829718D02*
X115661904Y-143853528D01*
X115661904Y-143853528D02*
X115709523Y-143877337D01*
X115709523Y-143877337D02*
X115828571Y-143877337D01*
X115828571Y-143877337D02*
X115876190Y-143853528D01*
X115876190Y-143853528D02*
X115899999Y-143829718D01*
X115090476Y-143544004D02*
X114900000Y-143544004D01*
X115019048Y-143877337D02*
X115019048Y-143448766D01*
X115019048Y-143448766D02*
X114995238Y-143401147D01*
X114995238Y-143401147D02*
X114947619Y-143377337D01*
X114947619Y-143377337D02*
X114900000Y-143377337D01*
X114661905Y-143877337D02*
X114709524Y-143853528D01*
X114709524Y-143853528D02*
X114733334Y-143829718D01*
X114733334Y-143829718D02*
X114757143Y-143782099D01*
X114757143Y-143782099D02*
X114757143Y-143639242D01*
X114757143Y-143639242D02*
X114733334Y-143591623D01*
X114733334Y-143591623D02*
X114709524Y-143567813D01*
X114709524Y-143567813D02*
X114661905Y-143544004D01*
X114661905Y-143544004D02*
X114590477Y-143544004D01*
X114590477Y-143544004D02*
X114542858Y-143567813D01*
X114542858Y-143567813D02*
X114519048Y-143591623D01*
X114519048Y-143591623D02*
X114495239Y-143639242D01*
X114495239Y-143639242D02*
X114495239Y-143782099D01*
X114495239Y-143782099D02*
X114519048Y-143829718D01*
X114519048Y-143829718D02*
X114542858Y-143853528D01*
X114542858Y-143853528D02*
X114590477Y-143877337D01*
X114590477Y-143877337D02*
X114661905Y-143877337D01*
X114280953Y-143877337D02*
X114280953Y-143544004D01*
X114280953Y-143639242D02*
X114257143Y-143591623D01*
X114257143Y-143591623D02*
X114233334Y-143567813D01*
X114233334Y-143567813D02*
X114185715Y-143544004D01*
X114185715Y-143544004D02*
X114138096Y-143544004D01*
X118566666Y-144634690D02*
X118590475Y-144658500D01*
X118590475Y-144658500D02*
X118661904Y-144682309D01*
X118661904Y-144682309D02*
X118709523Y-144682309D01*
X118709523Y-144682309D02*
X118780951Y-144658500D01*
X118780951Y-144658500D02*
X118828570Y-144610880D01*
X118828570Y-144610880D02*
X118852380Y-144563261D01*
X118852380Y-144563261D02*
X118876189Y-144468023D01*
X118876189Y-144468023D02*
X118876189Y-144396595D01*
X118876189Y-144396595D02*
X118852380Y-144301357D01*
X118852380Y-144301357D02*
X118828570Y-144253738D01*
X118828570Y-144253738D02*
X118780951Y-144206119D01*
X118780951Y-144206119D02*
X118709523Y-144182309D01*
X118709523Y-144182309D02*
X118661904Y-144182309D01*
X118661904Y-144182309D02*
X118590475Y-144206119D01*
X118590475Y-144206119D02*
X118566666Y-144229928D01*
X118352380Y-144682309D02*
X118352380Y-144182309D01*
X118352380Y-144182309D02*
X118185713Y-144539452D01*
X118185713Y-144539452D02*
X118019047Y-144182309D01*
X118019047Y-144182309D02*
X118019047Y-144682309D01*
X117780951Y-144682309D02*
X117780951Y-144182309D01*
X117780951Y-144182309D02*
X117495237Y-144682309D01*
X117495237Y-144682309D02*
X117495237Y-144182309D01*
X116947617Y-144182309D02*
X116780951Y-144682309D01*
X116780951Y-144682309D02*
X116614284Y-144182309D01*
X116161904Y-144634690D02*
X116185713Y-144658500D01*
X116185713Y-144658500D02*
X116257142Y-144682309D01*
X116257142Y-144682309D02*
X116304761Y-144682309D01*
X116304761Y-144682309D02*
X116376189Y-144658500D01*
X116376189Y-144658500D02*
X116423808Y-144610880D01*
X116423808Y-144610880D02*
X116447618Y-144563261D01*
X116447618Y-144563261D02*
X116471427Y-144468023D01*
X116471427Y-144468023D02*
X116471427Y-144396595D01*
X116471427Y-144396595D02*
X116447618Y-144301357D01*
X116447618Y-144301357D02*
X116423808Y-144253738D01*
X116423808Y-144253738D02*
X116376189Y-144206119D01*
X116376189Y-144206119D02*
X116304761Y-144182309D01*
X116304761Y-144182309D02*
X116257142Y-144182309D01*
X116257142Y-144182309D02*
X116185713Y-144206119D01*
X116185713Y-144206119D02*
X116161904Y-144229928D01*
X115661904Y-144634690D02*
X115685713Y-144658500D01*
X115685713Y-144658500D02*
X115757142Y-144682309D01*
X115757142Y-144682309D02*
X115804761Y-144682309D01*
X115804761Y-144682309D02*
X115876189Y-144658500D01*
X115876189Y-144658500D02*
X115923808Y-144610880D01*
X115923808Y-144610880D02*
X115947618Y-144563261D01*
X115947618Y-144563261D02*
X115971427Y-144468023D01*
X115971427Y-144468023D02*
X115971427Y-144396595D01*
X115971427Y-144396595D02*
X115947618Y-144301357D01*
X115947618Y-144301357D02*
X115923808Y-144253738D01*
X115923808Y-144253738D02*
X115876189Y-144206119D01*
X115876189Y-144206119D02*
X115804761Y-144182309D01*
X115804761Y-144182309D02*
X115757142Y-144182309D01*
X115757142Y-144182309D02*
X115685713Y-144206119D01*
X115685713Y-144206119D02*
X115661904Y-144229928D01*
X114828571Y-144682309D02*
X115066666Y-144682309D01*
X115066666Y-144682309D02*
X115066666Y-144182309D01*
X114661904Y-144420404D02*
X114495237Y-144420404D01*
X114423809Y-144682309D02*
X114661904Y-144682309D01*
X114661904Y-144682309D02*
X114661904Y-144182309D01*
X114661904Y-144182309D02*
X114423809Y-144182309D01*
X114209523Y-144682309D02*
X114209523Y-144182309D01*
X114209523Y-144182309D02*
X114090475Y-144182309D01*
X114090475Y-144182309D02*
X114019047Y-144206119D01*
X114019047Y-144206119D02*
X113971428Y-144253738D01*
X113971428Y-144253738D02*
X113947618Y-144301357D01*
X113947618Y-144301357D02*
X113923809Y-144396595D01*
X113923809Y-144396595D02*
X113923809Y-144468023D01*
X113923809Y-144468023D02*
X113947618Y-144563261D01*
X113947618Y-144563261D02*
X113971428Y-144610880D01*
X113971428Y-144610880D02*
X114019047Y-144658500D01*
X114019047Y-144658500D02*
X114090475Y-144682309D01*
X114090475Y-144682309D02*
X114209523Y-144682309D01*
D11*
X124163220Y-127869819D02*
X124163220Y-126869819D01*
X123687030Y-127869819D02*
X123687030Y-126869819D01*
X123687030Y-126869819D02*
X123115602Y-127869819D01*
X123115602Y-127869819D02*
X123115602Y-126869819D01*
X122639411Y-127869819D02*
X122639411Y-126869819D01*
X122639411Y-126869819D02*
X122258459Y-126869819D01*
X122258459Y-126869819D02*
X122163221Y-126917438D01*
X122163221Y-126917438D02*
X122115602Y-126965057D01*
X122115602Y-126965057D02*
X122067983Y-127060295D01*
X122067983Y-127060295D02*
X122067983Y-127203152D01*
X122067983Y-127203152D02*
X122115602Y-127298390D01*
X122115602Y-127298390D02*
X122163221Y-127346009D01*
X122163221Y-127346009D02*
X122258459Y-127393628D01*
X122258459Y-127393628D02*
X122639411Y-127393628D01*
X121639411Y-126869819D02*
X121639411Y-127679342D01*
X121639411Y-127679342D02*
X121591792Y-127774580D01*
X121591792Y-127774580D02*
X121544173Y-127822200D01*
X121544173Y-127822200D02*
X121448935Y-127869819D01*
X121448935Y-127869819D02*
X121258459Y-127869819D01*
X121258459Y-127869819D02*
X121163221Y-127822200D01*
X121163221Y-127822200D02*
X121115602Y-127774580D01*
X121115602Y-127774580D02*
X121067983Y-127679342D01*
X121067983Y-127679342D02*
X121067983Y-126869819D01*
X120734649Y-126869819D02*
X120163221Y-126869819D01*
X120448935Y-127869819D02*
X120448935Y-126869819D01*
X126710839Y-131822200D02*
X126567982Y-131869819D01*
X126567982Y-131869819D02*
X126329887Y-131869819D01*
X126329887Y-131869819D02*
X126234649Y-131822200D01*
X126234649Y-131822200D02*
X126187030Y-131774580D01*
X126187030Y-131774580D02*
X126139411Y-131679342D01*
X126139411Y-131679342D02*
X126139411Y-131584104D01*
X126139411Y-131584104D02*
X126187030Y-131488866D01*
X126187030Y-131488866D02*
X126234649Y-131441247D01*
X126234649Y-131441247D02*
X126329887Y-131393628D01*
X126329887Y-131393628D02*
X126520363Y-131346009D01*
X126520363Y-131346009D02*
X126615601Y-131298390D01*
X126615601Y-131298390D02*
X126663220Y-131250771D01*
X126663220Y-131250771D02*
X126710839Y-131155533D01*
X126710839Y-131155533D02*
X126710839Y-131060295D01*
X126710839Y-131060295D02*
X126663220Y-130965057D01*
X126663220Y-130965057D02*
X126615601Y-130917438D01*
X126615601Y-130917438D02*
X126520363Y-130869819D01*
X126520363Y-130869819D02*
X126282268Y-130869819D01*
X126282268Y-130869819D02*
X126139411Y-130917438D01*
X125710839Y-131346009D02*
X125377506Y-131346009D01*
X125234649Y-131869819D02*
X125710839Y-131869819D01*
X125710839Y-131869819D02*
X125710839Y-130869819D01*
X125710839Y-130869819D02*
X125234649Y-130869819D01*
X124948934Y-130869819D02*
X124377506Y-130869819D01*
X124663220Y-131869819D02*
X124663220Y-130869819D01*
X123425124Y-130869819D02*
X122853696Y-130869819D01*
X123139410Y-131869819D02*
X123139410Y-130869819D01*
X122329886Y-131393628D02*
X122329886Y-131869819D01*
X122663219Y-130869819D02*
X122329886Y-131393628D01*
X122329886Y-131393628D02*
X121996553Y-130869819D01*
X121663219Y-131869819D02*
X121663219Y-130869819D01*
X121663219Y-130869819D02*
X121282267Y-130869819D01*
X121282267Y-130869819D02*
X121187029Y-130917438D01*
X121187029Y-130917438D02*
X121139410Y-130965057D01*
X121139410Y-130965057D02*
X121091791Y-131060295D01*
X121091791Y-131060295D02*
X121091791Y-131203152D01*
X121091791Y-131203152D02*
X121139410Y-131298390D01*
X121139410Y-131298390D02*
X121187029Y-131346009D01*
X121187029Y-131346009D02*
X121282267Y-131393628D01*
X121282267Y-131393628D02*
X121663219Y-131393628D01*
X120663219Y-131346009D02*
X120329886Y-131346009D01*
X120187029Y-131869819D02*
X120663219Y-131869819D01*
X120663219Y-131869819D02*
X120663219Y-130869819D01*
X120663219Y-130869819D02*
X120187029Y-130869819D01*
X119091790Y-130869819D02*
X118853695Y-131869819D01*
X118853695Y-131869819D02*
X118663219Y-131155533D01*
X118663219Y-131155533D02*
X118472743Y-131869819D01*
X118472743Y-131869819D02*
X118234648Y-130869819D01*
X117901314Y-131822200D02*
X117758457Y-131869819D01*
X117758457Y-131869819D02*
X117520362Y-131869819D01*
X117520362Y-131869819D02*
X117425124Y-131822200D01*
X117425124Y-131822200D02*
X117377505Y-131774580D01*
X117377505Y-131774580D02*
X117329886Y-131679342D01*
X117329886Y-131679342D02*
X117329886Y-131584104D01*
X117329886Y-131584104D02*
X117377505Y-131488866D01*
X117377505Y-131488866D02*
X117425124Y-131441247D01*
X117425124Y-131441247D02*
X117520362Y-131393628D01*
X117520362Y-131393628D02*
X117710838Y-131346009D01*
X117710838Y-131346009D02*
X117806076Y-131298390D01*
X117806076Y-131298390D02*
X117853695Y-131250771D01*
X117853695Y-131250771D02*
X117901314Y-131155533D01*
X117901314Y-131155533D02*
X117901314Y-131060295D01*
X117901314Y-131060295D02*
X117853695Y-130965057D01*
X117853695Y-130965057D02*
X117806076Y-130917438D01*
X117806076Y-130917438D02*
X117710838Y-130869819D01*
X117710838Y-130869819D02*
X117472743Y-130869819D01*
X117472743Y-130869819D02*
X117329886Y-130917438D01*
X116948933Y-130965057D02*
X116901314Y-130917438D01*
X116901314Y-130917438D02*
X116806076Y-130869819D01*
X116806076Y-130869819D02*
X116567981Y-130869819D01*
X116567981Y-130869819D02*
X116472743Y-130917438D01*
X116472743Y-130917438D02*
X116425124Y-130965057D01*
X116425124Y-130965057D02*
X116377505Y-131060295D01*
X116377505Y-131060295D02*
X116377505Y-131155533D01*
X116377505Y-131155533D02*
X116425124Y-131298390D01*
X116425124Y-131298390D02*
X116996552Y-131869819D01*
X116996552Y-131869819D02*
X116377505Y-131869819D01*
X115806076Y-131298390D02*
X115901314Y-131250771D01*
X115901314Y-131250771D02*
X115948933Y-131203152D01*
X115948933Y-131203152D02*
X115996552Y-131107914D01*
X115996552Y-131107914D02*
X115996552Y-131060295D01*
X115996552Y-131060295D02*
X115948933Y-130965057D01*
X115948933Y-130965057D02*
X115901314Y-130917438D01*
X115901314Y-130917438D02*
X115806076Y-130869819D01*
X115806076Y-130869819D02*
X115615600Y-130869819D01*
X115615600Y-130869819D02*
X115520362Y-130917438D01*
X115520362Y-130917438D02*
X115472743Y-130965057D01*
X115472743Y-130965057D02*
X115425124Y-131060295D01*
X115425124Y-131060295D02*
X115425124Y-131107914D01*
X115425124Y-131107914D02*
X115472743Y-131203152D01*
X115472743Y-131203152D02*
X115520362Y-131250771D01*
X115520362Y-131250771D02*
X115615600Y-131298390D01*
X115615600Y-131298390D02*
X115806076Y-131298390D01*
X115806076Y-131298390D02*
X115901314Y-131346009D01*
X115901314Y-131346009D02*
X115948933Y-131393628D01*
X115948933Y-131393628D02*
X115996552Y-131488866D01*
X115996552Y-131488866D02*
X115996552Y-131679342D01*
X115996552Y-131679342D02*
X115948933Y-131774580D01*
X115948933Y-131774580D02*
X115901314Y-131822200D01*
X115901314Y-131822200D02*
X115806076Y-131869819D01*
X115806076Y-131869819D02*
X115615600Y-131869819D01*
X115615600Y-131869819D02*
X115520362Y-131822200D01*
X115520362Y-131822200D02*
X115472743Y-131774580D01*
X115472743Y-131774580D02*
X115425124Y-131679342D01*
X115425124Y-131679342D02*
X115425124Y-131488866D01*
X115425124Y-131488866D02*
X115472743Y-131393628D01*
X115472743Y-131393628D02*
X115520362Y-131346009D01*
X115520362Y-131346009D02*
X115615600Y-131298390D01*
X114472743Y-131869819D02*
X115044171Y-131869819D01*
X114758457Y-131869819D02*
X114758457Y-130869819D01*
X114758457Y-130869819D02*
X114853695Y-131012676D01*
X114853695Y-131012676D02*
X114948933Y-131107914D01*
X114948933Y-131107914D02*
X115044171Y-131155533D01*
X114091790Y-130965057D02*
X114044171Y-130917438D01*
X114044171Y-130917438D02*
X113948933Y-130869819D01*
X113948933Y-130869819D02*
X113710838Y-130869819D01*
X113710838Y-130869819D02*
X113615600Y-130917438D01*
X113615600Y-130917438D02*
X113567981Y-130965057D01*
X113567981Y-130965057D02*
X113520362Y-131060295D01*
X113520362Y-131060295D02*
X113520362Y-131155533D01*
X113520362Y-131155533D02*
X113567981Y-131298390D01*
X113567981Y-131298390D02*
X114139409Y-131869819D01*
X114139409Y-131869819D02*
X113520362Y-131869819D01*
D12*
X130838346Y-147550828D02*
X131338346Y-146836542D01*
X131695489Y-147550828D02*
X131695489Y-146050828D01*
X131695489Y-146050828D02*
X131124060Y-146050828D01*
X131124060Y-146050828D02*
X130981203Y-146122257D01*
X130981203Y-146122257D02*
X130909774Y-146193685D01*
X130909774Y-146193685D02*
X130838346Y-146336542D01*
X130838346Y-146336542D02*
X130838346Y-146550828D01*
X130838346Y-146550828D02*
X130909774Y-146693685D01*
X130909774Y-146693685D02*
X130981203Y-146765114D01*
X130981203Y-146765114D02*
X131124060Y-146836542D01*
X131124060Y-146836542D02*
X131695489Y-146836542D01*
X130195489Y-146765114D02*
X129695489Y-146765114D01*
X129481203Y-147550828D02*
X130195489Y-147550828D01*
X130195489Y-147550828D02*
X130195489Y-146050828D01*
X130195489Y-146050828D02*
X129481203Y-146050828D01*
X129052631Y-146050828D02*
X128552631Y-147550828D01*
X128552631Y-147550828D02*
X128052631Y-146050828D01*
X125624060Y-147550828D02*
X126481203Y-147550828D01*
X126052632Y-147550828D02*
X126052632Y-146050828D01*
X126052632Y-146050828D02*
X126195489Y-146265114D01*
X126195489Y-146265114D02*
X126338346Y-146407971D01*
X126338346Y-146407971D02*
X126481203Y-146479400D01*
X124981204Y-147407971D02*
X124909775Y-147479400D01*
X124909775Y-147479400D02*
X124981204Y-147550828D01*
X124981204Y-147550828D02*
X125052632Y-147479400D01*
X125052632Y-147479400D02*
X124981204Y-147407971D01*
X124981204Y-147407971D02*
X124981204Y-147550828D01*
X123981203Y-146050828D02*
X123838346Y-146050828D01*
X123838346Y-146050828D02*
X123695489Y-146122257D01*
X123695489Y-146122257D02*
X123624061Y-146193685D01*
X123624061Y-146193685D02*
X123552632Y-146336542D01*
X123552632Y-146336542D02*
X123481203Y-146622257D01*
X123481203Y-146622257D02*
X123481203Y-146979400D01*
X123481203Y-146979400D02*
X123552632Y-147265114D01*
X123552632Y-147265114D02*
X123624061Y-147407971D01*
X123624061Y-147407971D02*
X123695489Y-147479400D01*
X123695489Y-147479400D02*
X123838346Y-147550828D01*
X123838346Y-147550828D02*
X123981203Y-147550828D01*
X123981203Y-147550828D02*
X124124061Y-147479400D01*
X124124061Y-147479400D02*
X124195489Y-147407971D01*
X124195489Y-147407971D02*
X124266918Y-147265114D01*
X124266918Y-147265114D02*
X124338346Y-146979400D01*
X124338346Y-146979400D02*
X124338346Y-146622257D01*
X124338346Y-146622257D02*
X124266918Y-146336542D01*
X124266918Y-146336542D02*
X124195489Y-146193685D01*
X124195489Y-146193685D02*
X124124061Y-146122257D01*
X124124061Y-146122257D02*
X123981203Y-146050828D01*
X157445489Y-129785912D02*
X157445489Y-128285912D01*
X156802631Y-129714484D02*
X156659774Y-129785912D01*
X156659774Y-129785912D02*
X156374060Y-129785912D01*
X156374060Y-129785912D02*
X156231203Y-129714484D01*
X156231203Y-129714484D02*
X156159774Y-129571626D01*
X156159774Y-129571626D02*
X156159774Y-129500198D01*
X156159774Y-129500198D02*
X156231203Y-129357341D01*
X156231203Y-129357341D02*
X156374060Y-129285912D01*
X156374060Y-129285912D02*
X156588346Y-129285912D01*
X156588346Y-129285912D02*
X156731203Y-129214484D01*
X156731203Y-129214484D02*
X156802631Y-129071626D01*
X156802631Y-129071626D02*
X156802631Y-129000198D01*
X156802631Y-129000198D02*
X156731203Y-128857341D01*
X156731203Y-128857341D02*
X156588346Y-128785912D01*
X156588346Y-128785912D02*
X156374060Y-128785912D01*
X156374060Y-128785912D02*
X156231203Y-128857341D01*
X155302631Y-129785912D02*
X155445488Y-129714484D01*
X155445488Y-129714484D02*
X155516917Y-129643055D01*
X155516917Y-129643055D02*
X155588345Y-129500198D01*
X155588345Y-129500198D02*
X155588345Y-129071626D01*
X155588345Y-129071626D02*
X155516917Y-128928769D01*
X155516917Y-128928769D02*
X155445488Y-128857341D01*
X155445488Y-128857341D02*
X155302631Y-128785912D01*
X155302631Y-128785912D02*
X155088345Y-128785912D01*
X155088345Y-128785912D02*
X154945488Y-128857341D01*
X154945488Y-128857341D02*
X154874060Y-128928769D01*
X154874060Y-128928769D02*
X154802631Y-129071626D01*
X154802631Y-129071626D02*
X154802631Y-129500198D01*
X154802631Y-129500198D02*
X154874060Y-129643055D01*
X154874060Y-129643055D02*
X154945488Y-129714484D01*
X154945488Y-129714484D02*
X155088345Y-129785912D01*
X155088345Y-129785912D02*
X155302631Y-129785912D01*
X153945488Y-129785912D02*
X154088345Y-129714484D01*
X154088345Y-129714484D02*
X154159774Y-129571626D01*
X154159774Y-129571626D02*
X154159774Y-128285912D01*
X153374060Y-129785912D02*
X153374060Y-128785912D01*
X153374060Y-128285912D02*
X153445488Y-128357341D01*
X153445488Y-128357341D02*
X153374060Y-128428769D01*
X153374060Y-128428769D02*
X153302631Y-128357341D01*
X153302631Y-128357341D02*
X153374060Y-128285912D01*
X153374060Y-128285912D02*
X153374060Y-128428769D01*
X152659774Y-128785912D02*
X152659774Y-129785912D01*
X152659774Y-128928769D02*
X152588345Y-128857341D01*
X152588345Y-128857341D02*
X152445488Y-128785912D01*
X152445488Y-128785912D02*
X152231202Y-128785912D01*
X152231202Y-128785912D02*
X152088345Y-128857341D01*
X152088345Y-128857341D02*
X152016917Y-129000198D01*
X152016917Y-129000198D02*
X152016917Y-129785912D01*
X150731202Y-129714484D02*
X150874059Y-129785912D01*
X150874059Y-129785912D02*
X151159774Y-129785912D01*
X151159774Y-129785912D02*
X151302631Y-129714484D01*
X151302631Y-129714484D02*
X151374059Y-129571626D01*
X151374059Y-129571626D02*
X151374059Y-129000198D01*
X151374059Y-129000198D02*
X151302631Y-128857341D01*
X151302631Y-128857341D02*
X151159774Y-128785912D01*
X151159774Y-128785912D02*
X150874059Y-128785912D01*
X150874059Y-128785912D02*
X150731202Y-128857341D01*
X150731202Y-128857341D02*
X150659774Y-129000198D01*
X150659774Y-129000198D02*
X150659774Y-129143055D01*
X150659774Y-129143055D02*
X151374059Y-129285912D01*
X149374060Y-129785912D02*
X149374060Y-129000198D01*
X149374060Y-129000198D02*
X149445488Y-128857341D01*
X149445488Y-128857341D02*
X149588345Y-128785912D01*
X149588345Y-128785912D02*
X149874060Y-128785912D01*
X149874060Y-128785912D02*
X150016917Y-128857341D01*
X149374060Y-129714484D02*
X149516917Y-129785912D01*
X149516917Y-129785912D02*
X149874060Y-129785912D01*
X149874060Y-129785912D02*
X150016917Y-129714484D01*
X150016917Y-129714484D02*
X150088345Y-129571626D01*
X150088345Y-129571626D02*
X150088345Y-129428769D01*
X150088345Y-129428769D02*
X150016917Y-129285912D01*
X150016917Y-129285912D02*
X149874060Y-129214484D01*
X149874060Y-129214484D02*
X149516917Y-129214484D01*
X149516917Y-129214484D02*
X149374060Y-129143055D01*
X148659774Y-129785912D02*
X148659774Y-128785912D01*
X148659774Y-129071626D02*
X148588345Y-128928769D01*
X148588345Y-128928769D02*
X148516917Y-128857341D01*
X148516917Y-128857341D02*
X148374059Y-128785912D01*
X148374059Y-128785912D02*
X148231202Y-128785912D01*
X145731203Y-129643055D02*
X145802631Y-129714484D01*
X145802631Y-129714484D02*
X146016917Y-129785912D01*
X146016917Y-129785912D02*
X146159774Y-129785912D01*
X146159774Y-129785912D02*
X146374060Y-129714484D01*
X146374060Y-129714484D02*
X146516917Y-129571626D01*
X146516917Y-129571626D02*
X146588346Y-129428769D01*
X146588346Y-129428769D02*
X146659774Y-129143055D01*
X146659774Y-129143055D02*
X146659774Y-128928769D01*
X146659774Y-128928769D02*
X146588346Y-128643055D01*
X146588346Y-128643055D02*
X146516917Y-128500198D01*
X146516917Y-128500198D02*
X146374060Y-128357341D01*
X146374060Y-128357341D02*
X146159774Y-128285912D01*
X146159774Y-128285912D02*
X146016917Y-128285912D01*
X146016917Y-128285912D02*
X145802631Y-128357341D01*
X145802631Y-128357341D02*
X145731203Y-128428769D01*
X144445489Y-129785912D02*
X144445489Y-129000198D01*
X144445489Y-129000198D02*
X144516917Y-128857341D01*
X144516917Y-128857341D02*
X144659774Y-128785912D01*
X144659774Y-128785912D02*
X144945489Y-128785912D01*
X144945489Y-128785912D02*
X145088346Y-128857341D01*
X144445489Y-129714484D02*
X144588346Y-129785912D01*
X144588346Y-129785912D02*
X144945489Y-129785912D01*
X144945489Y-129785912D02*
X145088346Y-129714484D01*
X145088346Y-129714484D02*
X145159774Y-129571626D01*
X145159774Y-129571626D02*
X145159774Y-129428769D01*
X145159774Y-129428769D02*
X145088346Y-129285912D01*
X145088346Y-129285912D02*
X144945489Y-129214484D01*
X144945489Y-129214484D02*
X144588346Y-129214484D01*
X144588346Y-129214484D02*
X144445489Y-129143055D01*
X143731203Y-129785912D02*
X143731203Y-128785912D01*
X143731203Y-129071626D02*
X143659774Y-128928769D01*
X143659774Y-128928769D02*
X143588346Y-128857341D01*
X143588346Y-128857341D02*
X143445488Y-128785912D01*
X143445488Y-128785912D02*
X143302631Y-128785912D01*
X142159775Y-129785912D02*
X142159775Y-128285912D01*
X142159775Y-129714484D02*
X142302632Y-129785912D01*
X142302632Y-129785912D02*
X142588346Y-129785912D01*
X142588346Y-129785912D02*
X142731203Y-129714484D01*
X142731203Y-129714484D02*
X142802632Y-129643055D01*
X142802632Y-129643055D02*
X142874060Y-129500198D01*
X142874060Y-129500198D02*
X142874060Y-129071626D01*
X142874060Y-129071626D02*
X142802632Y-128928769D01*
X142802632Y-128928769D02*
X142731203Y-128857341D01*
X142731203Y-128857341D02*
X142588346Y-128785912D01*
X142588346Y-128785912D02*
X142302632Y-128785912D01*
X142302632Y-128785912D02*
X142159775Y-128857341D01*
X140302632Y-129785912D02*
X140302632Y-128285912D01*
X140302632Y-128285912D02*
X139731203Y-128285912D01*
X139731203Y-128285912D02*
X139588346Y-128357341D01*
X139588346Y-128357341D02*
X139516917Y-128428769D01*
X139516917Y-128428769D02*
X139445489Y-128571626D01*
X139445489Y-128571626D02*
X139445489Y-128785912D01*
X139445489Y-128785912D02*
X139516917Y-128928769D01*
X139516917Y-128928769D02*
X139588346Y-129000198D01*
X139588346Y-129000198D02*
X139731203Y-129071626D01*
X139731203Y-129071626D02*
X140302632Y-129071626D01*
X137945489Y-129643055D02*
X138016917Y-129714484D01*
X138016917Y-129714484D02*
X138231203Y-129785912D01*
X138231203Y-129785912D02*
X138374060Y-129785912D01*
X138374060Y-129785912D02*
X138588346Y-129714484D01*
X138588346Y-129714484D02*
X138731203Y-129571626D01*
X138731203Y-129571626D02*
X138802632Y-129428769D01*
X138802632Y-129428769D02*
X138874060Y-129143055D01*
X138874060Y-129143055D02*
X138874060Y-128928769D01*
X138874060Y-128928769D02*
X138802632Y-128643055D01*
X138802632Y-128643055D02*
X138731203Y-128500198D01*
X138731203Y-128500198D02*
X138588346Y-128357341D01*
X138588346Y-128357341D02*
X138374060Y-128285912D01*
X138374060Y-128285912D02*
X138231203Y-128285912D01*
X138231203Y-128285912D02*
X138016917Y-128357341D01*
X138016917Y-128357341D02*
X137945489Y-128428769D01*
X136802632Y-129000198D02*
X136588346Y-129071626D01*
X136588346Y-129071626D02*
X136516917Y-129143055D01*
X136516917Y-129143055D02*
X136445489Y-129285912D01*
X136445489Y-129285912D02*
X136445489Y-129500198D01*
X136445489Y-129500198D02*
X136516917Y-129643055D01*
X136516917Y-129643055D02*
X136588346Y-129714484D01*
X136588346Y-129714484D02*
X136731203Y-129785912D01*
X136731203Y-129785912D02*
X137302632Y-129785912D01*
X137302632Y-129785912D02*
X137302632Y-128285912D01*
X137302632Y-128285912D02*
X136802632Y-128285912D01*
X136802632Y-128285912D02*
X136659775Y-128357341D01*
X136659775Y-128357341D02*
X136588346Y-128428769D01*
X136588346Y-128428769D02*
X136516917Y-128571626D01*
X136516917Y-128571626D02*
X136516917Y-128714484D01*
X136516917Y-128714484D02*
X136588346Y-128857341D01*
X136588346Y-128857341D02*
X136659775Y-128928769D01*
X136659775Y-128928769D02*
X136802632Y-129000198D01*
X136802632Y-129000198D02*
X137302632Y-129000198D01*
X157445489Y-132200828D02*
X157445489Y-130700828D01*
X157445489Y-130700828D02*
X156588346Y-132200828D01*
X156588346Y-132200828D02*
X156588346Y-130700828D01*
X155231203Y-132200828D02*
X155231203Y-131415114D01*
X155231203Y-131415114D02*
X155302631Y-131272257D01*
X155302631Y-131272257D02*
X155445488Y-131200828D01*
X155445488Y-131200828D02*
X155731203Y-131200828D01*
X155731203Y-131200828D02*
X155874060Y-131272257D01*
X155231203Y-132129400D02*
X155374060Y-132200828D01*
X155374060Y-132200828D02*
X155731203Y-132200828D01*
X155731203Y-132200828D02*
X155874060Y-132129400D01*
X155874060Y-132129400D02*
X155945488Y-131986542D01*
X155945488Y-131986542D02*
X155945488Y-131843685D01*
X155945488Y-131843685D02*
X155874060Y-131700828D01*
X155874060Y-131700828D02*
X155731203Y-131629400D01*
X155731203Y-131629400D02*
X155374060Y-131629400D01*
X155374060Y-131629400D02*
X155231203Y-131557971D01*
X154731202Y-131200828D02*
X154159774Y-131200828D01*
X154516917Y-130700828D02*
X154516917Y-131986542D01*
X154516917Y-131986542D02*
X154445488Y-132129400D01*
X154445488Y-132129400D02*
X154302631Y-132200828D01*
X154302631Y-132200828D02*
X154159774Y-132200828D01*
X153659774Y-132200828D02*
X153659774Y-130700828D01*
X153016917Y-132200828D02*
X153016917Y-131415114D01*
X153016917Y-131415114D02*
X153088345Y-131272257D01*
X153088345Y-131272257D02*
X153231202Y-131200828D01*
X153231202Y-131200828D02*
X153445488Y-131200828D01*
X153445488Y-131200828D02*
X153588345Y-131272257D01*
X153588345Y-131272257D02*
X153659774Y-131343685D01*
X151659774Y-132200828D02*
X151659774Y-131415114D01*
X151659774Y-131415114D02*
X151731202Y-131272257D01*
X151731202Y-131272257D02*
X151874059Y-131200828D01*
X151874059Y-131200828D02*
X152159774Y-131200828D01*
X152159774Y-131200828D02*
X152302631Y-131272257D01*
X151659774Y-132129400D02*
X151802631Y-132200828D01*
X151802631Y-132200828D02*
X152159774Y-132200828D01*
X152159774Y-132200828D02*
X152302631Y-132129400D01*
X152302631Y-132129400D02*
X152374059Y-131986542D01*
X152374059Y-131986542D02*
X152374059Y-131843685D01*
X152374059Y-131843685D02*
X152302631Y-131700828D01*
X152302631Y-131700828D02*
X152159774Y-131629400D01*
X152159774Y-131629400D02*
X151802631Y-131629400D01*
X151802631Y-131629400D02*
X151659774Y-131557971D01*
X150945488Y-131200828D02*
X150945488Y-132200828D01*
X150945488Y-131343685D02*
X150874059Y-131272257D01*
X150874059Y-131272257D02*
X150731202Y-131200828D01*
X150731202Y-131200828D02*
X150516916Y-131200828D01*
X150516916Y-131200828D02*
X150374059Y-131272257D01*
X150374059Y-131272257D02*
X150302631Y-131415114D01*
X150302631Y-131415114D02*
X150302631Y-132200828D01*
X147945488Y-131415114D02*
X148445488Y-131415114D01*
X148445488Y-132200828D02*
X148445488Y-130700828D01*
X148445488Y-130700828D02*
X147731202Y-130700828D01*
X146945488Y-132200828D02*
X147088345Y-132129400D01*
X147088345Y-132129400D02*
X147159774Y-132057971D01*
X147159774Y-132057971D02*
X147231202Y-131915114D01*
X147231202Y-131915114D02*
X147231202Y-131486542D01*
X147231202Y-131486542D02*
X147159774Y-131343685D01*
X147159774Y-131343685D02*
X147088345Y-131272257D01*
X147088345Y-131272257D02*
X146945488Y-131200828D01*
X146945488Y-131200828D02*
X146731202Y-131200828D01*
X146731202Y-131200828D02*
X146588345Y-131272257D01*
X146588345Y-131272257D02*
X146516917Y-131343685D01*
X146516917Y-131343685D02*
X146445488Y-131486542D01*
X146445488Y-131486542D02*
X146445488Y-131915114D01*
X146445488Y-131915114D02*
X146516917Y-132057971D01*
X146516917Y-132057971D02*
X146588345Y-132129400D01*
X146588345Y-132129400D02*
X146731202Y-132200828D01*
X146731202Y-132200828D02*
X146945488Y-132200828D01*
X145802631Y-132200828D02*
X145802631Y-131200828D01*
X145802631Y-131486542D02*
X145731202Y-131343685D01*
X145731202Y-131343685D02*
X145659774Y-131272257D01*
X145659774Y-131272257D02*
X145516916Y-131200828D01*
X145516916Y-131200828D02*
X145374059Y-131200828D01*
X144231203Y-132200828D02*
X144231203Y-130700828D01*
X144231203Y-132129400D02*
X144374060Y-132200828D01*
X144374060Y-132200828D02*
X144659774Y-132200828D01*
X144659774Y-132200828D02*
X144802631Y-132129400D01*
X144802631Y-132129400D02*
X144874060Y-132057971D01*
X144874060Y-132057971D02*
X144945488Y-131915114D01*
X144945488Y-131915114D02*
X144945488Y-131486542D01*
X144945488Y-131486542D02*
X144874060Y-131343685D01*
X144874060Y-131343685D02*
X144802631Y-131272257D01*
X144802631Y-131272257D02*
X144659774Y-131200828D01*
X144659774Y-131200828D02*
X144374060Y-131200828D01*
X144374060Y-131200828D02*
X144231203Y-131272257D01*
X142445488Y-130843685D02*
X142374060Y-130772257D01*
X142374060Y-130772257D02*
X142231203Y-130700828D01*
X142231203Y-130700828D02*
X141874060Y-130700828D01*
X141874060Y-130700828D02*
X141731203Y-130772257D01*
X141731203Y-130772257D02*
X141659774Y-130843685D01*
X141659774Y-130843685D02*
X141588345Y-130986542D01*
X141588345Y-130986542D02*
X141588345Y-131129400D01*
X141588345Y-131129400D02*
X141659774Y-131343685D01*
X141659774Y-131343685D02*
X142516917Y-132200828D01*
X142516917Y-132200828D02*
X141588345Y-132200828D01*
X140659774Y-130700828D02*
X140516917Y-130700828D01*
X140516917Y-130700828D02*
X140374060Y-130772257D01*
X140374060Y-130772257D02*
X140302632Y-130843685D01*
X140302632Y-130843685D02*
X140231203Y-130986542D01*
X140231203Y-130986542D02*
X140159774Y-131272257D01*
X140159774Y-131272257D02*
X140159774Y-131629400D01*
X140159774Y-131629400D02*
X140231203Y-131915114D01*
X140231203Y-131915114D02*
X140302632Y-132057971D01*
X140302632Y-132057971D02*
X140374060Y-132129400D01*
X140374060Y-132129400D02*
X140516917Y-132200828D01*
X140516917Y-132200828D02*
X140659774Y-132200828D01*
X140659774Y-132200828D02*
X140802632Y-132129400D01*
X140802632Y-132129400D02*
X140874060Y-132057971D01*
X140874060Y-132057971D02*
X140945489Y-131915114D01*
X140945489Y-131915114D02*
X141016917Y-131629400D01*
X141016917Y-131629400D02*
X141016917Y-131272257D01*
X141016917Y-131272257D02*
X140945489Y-130986542D01*
X140945489Y-130986542D02*
X140874060Y-130843685D01*
X140874060Y-130843685D02*
X140802632Y-130772257D01*
X140802632Y-130772257D02*
X140659774Y-130700828D01*
X139588346Y-130843685D02*
X139516918Y-130772257D01*
X139516918Y-130772257D02*
X139374061Y-130700828D01*
X139374061Y-130700828D02*
X139016918Y-130700828D01*
X139016918Y-130700828D02*
X138874061Y-130772257D01*
X138874061Y-130772257D02*
X138802632Y-130843685D01*
X138802632Y-130843685D02*
X138731203Y-130986542D01*
X138731203Y-130986542D02*
X138731203Y-131129400D01*
X138731203Y-131129400D02*
X138802632Y-131343685D01*
X138802632Y-131343685D02*
X139659775Y-132200828D01*
X139659775Y-132200828D02*
X138731203Y-132200828D01*
X137374061Y-130700828D02*
X138088347Y-130700828D01*
X138088347Y-130700828D02*
X138159775Y-131415114D01*
X138159775Y-131415114D02*
X138088347Y-131343685D01*
X138088347Y-131343685D02*
X137945490Y-131272257D01*
X137945490Y-131272257D02*
X137588347Y-131272257D01*
X137588347Y-131272257D02*
X137445490Y-131343685D01*
X137445490Y-131343685D02*
X137374061Y-131415114D01*
X137374061Y-131415114D02*
X137302632Y-131557971D01*
X137302632Y-131557971D02*
X137302632Y-131915114D01*
X137302632Y-131915114D02*
X137374061Y-132057971D01*
X137374061Y-132057971D02*
X137445490Y-132129400D01*
X137445490Y-132129400D02*
X137588347Y-132200828D01*
X137588347Y-132200828D02*
X137945490Y-132200828D01*
X137945490Y-132200828D02*
X138088347Y-132129400D01*
X138088347Y-132129400D02*
X138159775Y-132057971D01*
D11*
X158669819Y-128527255D02*
X158669819Y-128717731D01*
X158669819Y-128717731D02*
X158717438Y-128812969D01*
X158717438Y-128812969D02*
X158812676Y-128908207D01*
X158812676Y-128908207D02*
X159003152Y-128955826D01*
X159003152Y-128955826D02*
X159336485Y-128955826D01*
X159336485Y-128955826D02*
X159526961Y-128908207D01*
X159526961Y-128908207D02*
X159622200Y-128812969D01*
X159622200Y-128812969D02*
X159669819Y-128717731D01*
X159669819Y-128717731D02*
X159669819Y-128527255D01*
X159669819Y-128527255D02*
X159622200Y-128432017D01*
X159622200Y-128432017D02*
X159526961Y-128336779D01*
X159526961Y-128336779D02*
X159336485Y-128289160D01*
X159336485Y-128289160D02*
X159003152Y-128289160D01*
X159003152Y-128289160D02*
X158812676Y-128336779D01*
X158812676Y-128336779D02*
X158717438Y-128432017D01*
X158717438Y-128432017D02*
X158669819Y-128527255D01*
X158669819Y-129384398D02*
X159479342Y-129384398D01*
X159479342Y-129384398D02*
X159574580Y-129432017D01*
X159574580Y-129432017D02*
X159622200Y-129479636D01*
X159622200Y-129479636D02*
X159669819Y-129574874D01*
X159669819Y-129574874D02*
X159669819Y-129765350D01*
X159669819Y-129765350D02*
X159622200Y-129860588D01*
X159622200Y-129860588D02*
X159574580Y-129908207D01*
X159574580Y-129908207D02*
X159479342Y-129955826D01*
X159479342Y-129955826D02*
X158669819Y-129955826D01*
X158669819Y-130289160D02*
X158669819Y-130860588D01*
X159669819Y-130574874D02*
X158669819Y-130574874D01*
X159669819Y-131193922D02*
X158669819Y-131193922D01*
X158669819Y-131193922D02*
X158669819Y-131574874D01*
X158669819Y-131574874D02*
X158717438Y-131670112D01*
X158717438Y-131670112D02*
X158765057Y-131717731D01*
X158765057Y-131717731D02*
X158860295Y-131765350D01*
X158860295Y-131765350D02*
X159003152Y-131765350D01*
X159003152Y-131765350D02*
X159098390Y-131717731D01*
X159098390Y-131717731D02*
X159146009Y-131670112D01*
X159146009Y-131670112D02*
X159193628Y-131574874D01*
X159193628Y-131574874D02*
X159193628Y-131193922D01*
X158669819Y-132193922D02*
X159479342Y-132193922D01*
X159479342Y-132193922D02*
X159574580Y-132241541D01*
X159574580Y-132241541D02*
X159622200Y-132289160D01*
X159622200Y-132289160D02*
X159669819Y-132384398D01*
X159669819Y-132384398D02*
X159669819Y-132574874D01*
X159669819Y-132574874D02*
X159622200Y-132670112D01*
X159622200Y-132670112D02*
X159574580Y-132717731D01*
X159574580Y-132717731D02*
X159479342Y-132765350D01*
X159479342Y-132765350D02*
X158669819Y-132765350D01*
X158669819Y-133098684D02*
X158669819Y-133670112D01*
X159669819Y-133384398D02*
X158669819Y-133384398D01*
X169914819Y-127666666D02*
X170629104Y-127666666D01*
X170629104Y-127666666D02*
X170771961Y-127619047D01*
X170771961Y-127619047D02*
X170867200Y-127523809D01*
X170867200Y-127523809D02*
X170914819Y-127380952D01*
X170914819Y-127380952D02*
X170914819Y-127285714D01*
X169914819Y-128047619D02*
X169914819Y-128714285D01*
X169914819Y-128714285D02*
X170914819Y-128285714D01*
X163154819Y-119666666D02*
X163869104Y-119666666D01*
X163869104Y-119666666D02*
X164011961Y-119619047D01*
X164011961Y-119619047D02*
X164107200Y-119523809D01*
X164107200Y-119523809D02*
X164154819Y-119380952D01*
X164154819Y-119380952D02*
X164154819Y-119285714D01*
X163154819Y-120619047D02*
X163154819Y-120142857D01*
X163154819Y-120142857D02*
X163631009Y-120095238D01*
X163631009Y-120095238D02*
X163583390Y-120142857D01*
X163583390Y-120142857D02*
X163535771Y-120238095D01*
X163535771Y-120238095D02*
X163535771Y-120476190D01*
X163535771Y-120476190D02*
X163583390Y-120571428D01*
X163583390Y-120571428D02*
X163631009Y-120619047D01*
X163631009Y-120619047D02*
X163726247Y-120666666D01*
X163726247Y-120666666D02*
X163964342Y-120666666D01*
X163964342Y-120666666D02*
X164059580Y-120619047D01*
X164059580Y-120619047D02*
X164107200Y-120571428D01*
X164107200Y-120571428D02*
X164154819Y-120476190D01*
X164154819Y-120476190D02*
X164154819Y-120238095D01*
X164154819Y-120238095D02*
X164107200Y-120142857D01*
X164107200Y-120142857D02*
X164059580Y-120095238D01*
D13*
X118833333Y-141117593D02*
X118833333Y-141617593D01*
X118833333Y-141617593D02*
X118866666Y-141717593D01*
X118866666Y-141717593D02*
X118933333Y-141784260D01*
X118933333Y-141784260D02*
X119033333Y-141817593D01*
X119033333Y-141817593D02*
X119100000Y-141817593D01*
X118500000Y-141817593D02*
X118500000Y-141117593D01*
X118500000Y-141117593D02*
X118233333Y-141117593D01*
X118233333Y-141117593D02*
X118166667Y-141150926D01*
X118166667Y-141150926D02*
X118133333Y-141184260D01*
X118133333Y-141184260D02*
X118100000Y-141250926D01*
X118100000Y-141250926D02*
X118100000Y-141350926D01*
X118100000Y-141350926D02*
X118133333Y-141417593D01*
X118133333Y-141417593D02*
X118166667Y-141450926D01*
X118166667Y-141450926D02*
X118233333Y-141484260D01*
X118233333Y-141484260D02*
X118500000Y-141484260D01*
X117500000Y-141350926D02*
X117500000Y-141817593D01*
X117666667Y-141084260D02*
X117833333Y-141584260D01*
X117833333Y-141584260D02*
X117400000Y-141584260D01*
D11*
X119416666Y-139609580D02*
X119464285Y-139657200D01*
X119464285Y-139657200D02*
X119607142Y-139704819D01*
X119607142Y-139704819D02*
X119702380Y-139704819D01*
X119702380Y-139704819D02*
X119845237Y-139657200D01*
X119845237Y-139657200D02*
X119940475Y-139561961D01*
X119940475Y-139561961D02*
X119988094Y-139466723D01*
X119988094Y-139466723D02*
X120035713Y-139276247D01*
X120035713Y-139276247D02*
X120035713Y-139133390D01*
X120035713Y-139133390D02*
X119988094Y-138942914D01*
X119988094Y-138942914D02*
X119940475Y-138847676D01*
X119940475Y-138847676D02*
X119845237Y-138752438D01*
X119845237Y-138752438D02*
X119702380Y-138704819D01*
X119702380Y-138704819D02*
X119607142Y-138704819D01*
X119607142Y-138704819D02*
X119464285Y-138752438D01*
X119464285Y-138752438D02*
X119416666Y-138800057D01*
X118464285Y-139704819D02*
X119035713Y-139704819D01*
X118749999Y-139704819D02*
X118749999Y-138704819D01*
X118749999Y-138704819D02*
X118845237Y-138847676D01*
X118845237Y-138847676D02*
X118940475Y-138942914D01*
X118940475Y-138942914D02*
X119035713Y-138990533D01*
X136609580Y-141333333D02*
X136657200Y-141285714D01*
X136657200Y-141285714D02*
X136704819Y-141142857D01*
X136704819Y-141142857D02*
X136704819Y-141047619D01*
X136704819Y-141047619D02*
X136657200Y-140904762D01*
X136657200Y-140904762D02*
X136561961Y-140809524D01*
X136561961Y-140809524D02*
X136466723Y-140761905D01*
X136466723Y-140761905D02*
X136276247Y-140714286D01*
X136276247Y-140714286D02*
X136133390Y-140714286D01*
X136133390Y-140714286D02*
X135942914Y-140761905D01*
X135942914Y-140761905D02*
X135847676Y-140809524D01*
X135847676Y-140809524D02*
X135752438Y-140904762D01*
X135752438Y-140904762D02*
X135704819Y-141047619D01*
X135704819Y-141047619D02*
X135704819Y-141142857D01*
X135704819Y-141142857D02*
X135752438Y-141285714D01*
X135752438Y-141285714D02*
X135800057Y-141333333D01*
X135800057Y-141714286D02*
X135752438Y-141761905D01*
X135752438Y-141761905D02*
X135704819Y-141857143D01*
X135704819Y-141857143D02*
X135704819Y-142095238D01*
X135704819Y-142095238D02*
X135752438Y-142190476D01*
X135752438Y-142190476D02*
X135800057Y-142238095D01*
X135800057Y-142238095D02*
X135895295Y-142285714D01*
X135895295Y-142285714D02*
X135990533Y-142285714D01*
X135990533Y-142285714D02*
X136133390Y-142238095D01*
X136133390Y-142238095D02*
X136704819Y-141666667D01*
X136704819Y-141666667D02*
X136704819Y-142285714D01*
X114154819Y-133066666D02*
X114869104Y-133066666D01*
X114869104Y-133066666D02*
X115011961Y-133019047D01*
X115011961Y-133019047D02*
X115107200Y-132923809D01*
X115107200Y-132923809D02*
X115154819Y-132780952D01*
X115154819Y-132780952D02*
X115154819Y-132685714D01*
X115154819Y-133542857D02*
X114154819Y-133542857D01*
X114154819Y-133542857D02*
X114154819Y-133923809D01*
X114154819Y-133923809D02*
X114202438Y-134019047D01*
X114202438Y-134019047D02*
X114250057Y-134066666D01*
X114250057Y-134066666D02*
X114345295Y-134114285D01*
X114345295Y-134114285D02*
X114488152Y-134114285D01*
X114488152Y-134114285D02*
X114583390Y-134066666D01*
X114583390Y-134066666D02*
X114631009Y-134019047D01*
X114631009Y-134019047D02*
X114678628Y-133923809D01*
X114678628Y-133923809D02*
X114678628Y-133542857D01*
X114154819Y-134447619D02*
X114154819Y-135066666D01*
X114154819Y-135066666D02*
X114535771Y-134733333D01*
X114535771Y-134733333D02*
X114535771Y-134876190D01*
X114535771Y-134876190D02*
X114583390Y-134971428D01*
X114583390Y-134971428D02*
X114631009Y-135019047D01*
X114631009Y-135019047D02*
X114726247Y-135066666D01*
X114726247Y-135066666D02*
X114964342Y-135066666D01*
X114964342Y-135066666D02*
X115059580Y-135019047D01*
X115059580Y-135019047D02*
X115107200Y-134971428D01*
X115107200Y-134971428D02*
X115154819Y-134876190D01*
X115154819Y-134876190D02*
X115154819Y-134590476D01*
X115154819Y-134590476D02*
X115107200Y-134495238D01*
X115107200Y-134495238D02*
X115059580Y-134447619D01*
X121254819Y-133066666D02*
X121969104Y-133066666D01*
X121969104Y-133066666D02*
X122111961Y-133019047D01*
X122111961Y-133019047D02*
X122207200Y-132923809D01*
X122207200Y-132923809D02*
X122254819Y-132780952D01*
X122254819Y-132780952D02*
X122254819Y-132685714D01*
X122254819Y-133542857D02*
X121254819Y-133542857D01*
X121254819Y-133542857D02*
X121254819Y-133923809D01*
X121254819Y-133923809D02*
X121302438Y-134019047D01*
X121302438Y-134019047D02*
X121350057Y-134066666D01*
X121350057Y-134066666D02*
X121445295Y-134114285D01*
X121445295Y-134114285D02*
X121588152Y-134114285D01*
X121588152Y-134114285D02*
X121683390Y-134066666D01*
X121683390Y-134066666D02*
X121731009Y-134019047D01*
X121731009Y-134019047D02*
X121778628Y-133923809D01*
X121778628Y-133923809D02*
X121778628Y-133542857D01*
X121350057Y-134495238D02*
X121302438Y-134542857D01*
X121302438Y-134542857D02*
X121254819Y-134638095D01*
X121254819Y-134638095D02*
X121254819Y-134876190D01*
X121254819Y-134876190D02*
X121302438Y-134971428D01*
X121302438Y-134971428D02*
X121350057Y-135019047D01*
X121350057Y-135019047D02*
X121445295Y-135066666D01*
X121445295Y-135066666D02*
X121540533Y-135066666D01*
X121540533Y-135066666D02*
X121683390Y-135019047D01*
X121683390Y-135019047D02*
X122254819Y-134447619D01*
X122254819Y-134447619D02*
X122254819Y-135066666D01*
X137133333Y-125254819D02*
X137133333Y-125969104D01*
X137133333Y-125969104D02*
X137180952Y-126111961D01*
X137180952Y-126111961D02*
X137276190Y-126207200D01*
X137276190Y-126207200D02*
X137419047Y-126254819D01*
X137419047Y-126254819D02*
X137514285Y-126254819D01*
X136133333Y-126254819D02*
X136704761Y-126254819D01*
X136419047Y-126254819D02*
X136419047Y-125254819D01*
X136419047Y-125254819D02*
X136514285Y-125397676D01*
X136514285Y-125397676D02*
X136609523Y-125492914D01*
X136609523Y-125492914D02*
X136704761Y-125540533D01*
X131333333Y-126854819D02*
X131333333Y-127569104D01*
X131333333Y-127569104D02*
X131380952Y-127711961D01*
X131380952Y-127711961D02*
X131476190Y-127807200D01*
X131476190Y-127807200D02*
X131619047Y-127854819D01*
X131619047Y-127854819D02*
X131714285Y-127854819D01*
X130428571Y-126854819D02*
X130619047Y-126854819D01*
X130619047Y-126854819D02*
X130714285Y-126902438D01*
X130714285Y-126902438D02*
X130761904Y-126950057D01*
X130761904Y-126950057D02*
X130857142Y-127092914D01*
X130857142Y-127092914D02*
X130904761Y-127283390D01*
X130904761Y-127283390D02*
X130904761Y-127664342D01*
X130904761Y-127664342D02*
X130857142Y-127759580D01*
X130857142Y-127759580D02*
X130809523Y-127807200D01*
X130809523Y-127807200D02*
X130714285Y-127854819D01*
X130714285Y-127854819D02*
X130523809Y-127854819D01*
X130523809Y-127854819D02*
X130428571Y-127807200D01*
X130428571Y-127807200D02*
X130380952Y-127759580D01*
X130380952Y-127759580D02*
X130333333Y-127664342D01*
X130333333Y-127664342D02*
X130333333Y-127426247D01*
X130333333Y-127426247D02*
X130380952Y-127331009D01*
X130380952Y-127331009D02*
X130428571Y-127283390D01*
X130428571Y-127283390D02*
X130523809Y-127235771D01*
X130523809Y-127235771D02*
X130714285Y-127235771D01*
X130714285Y-127235771D02*
X130809523Y-127283390D01*
X130809523Y-127283390D02*
X130857142Y-127331009D01*
X130857142Y-127331009D02*
X130904761Y-127426247D01*
X139754819Y-119666666D02*
X140469104Y-119666666D01*
X140469104Y-119666666D02*
X140611961Y-119619047D01*
X140611961Y-119619047D02*
X140707200Y-119523809D01*
X140707200Y-119523809D02*
X140754819Y-119380952D01*
X140754819Y-119380952D02*
X140754819Y-119285714D01*
X139850057Y-120095238D02*
X139802438Y-120142857D01*
X139802438Y-120142857D02*
X139754819Y-120238095D01*
X139754819Y-120238095D02*
X139754819Y-120476190D01*
X139754819Y-120476190D02*
X139802438Y-120571428D01*
X139802438Y-120571428D02*
X139850057Y-120619047D01*
X139850057Y-120619047D02*
X139945295Y-120666666D01*
X139945295Y-120666666D02*
X140040533Y-120666666D01*
X140040533Y-120666666D02*
X140183390Y-120619047D01*
X140183390Y-120619047D02*
X140754819Y-120047619D01*
X140754819Y-120047619D02*
X140754819Y-120666666D01*
X121583333Y-145754819D02*
X121583333Y-146469104D01*
X121583333Y-146469104D02*
X121630952Y-146611961D01*
X121630952Y-146611961D02*
X121726190Y-146707200D01*
X121726190Y-146707200D02*
X121869047Y-146754819D01*
X121869047Y-146754819D02*
X121964285Y-146754819D01*
X121107142Y-146754819D02*
X121107142Y-145754819D01*
X121107142Y-145754819D02*
X120726190Y-145754819D01*
X120726190Y-145754819D02*
X120630952Y-145802438D01*
X120630952Y-145802438D02*
X120583333Y-145850057D01*
X120583333Y-145850057D02*
X120535714Y-145945295D01*
X120535714Y-145945295D02*
X120535714Y-146088152D01*
X120535714Y-146088152D02*
X120583333Y-146183390D01*
X120583333Y-146183390D02*
X120630952Y-146231009D01*
X120630952Y-146231009D02*
X120726190Y-146278628D01*
X120726190Y-146278628D02*
X121107142Y-146278628D01*
X119630952Y-145754819D02*
X120107142Y-145754819D01*
X120107142Y-145754819D02*
X120154761Y-146231009D01*
X120154761Y-146231009D02*
X120107142Y-146183390D01*
X120107142Y-146183390D02*
X120011904Y-146135771D01*
X120011904Y-146135771D02*
X119773809Y-146135771D01*
X119773809Y-146135771D02*
X119678571Y-146183390D01*
X119678571Y-146183390D02*
X119630952Y-146231009D01*
X119630952Y-146231009D02*
X119583333Y-146326247D01*
X119583333Y-146326247D02*
X119583333Y-146564342D01*
X119583333Y-146564342D02*
X119630952Y-146659580D01*
X119630952Y-146659580D02*
X119678571Y-146707200D01*
X119678571Y-146707200D02*
X119773809Y-146754819D01*
X119773809Y-146754819D02*
X120011904Y-146754819D01*
X120011904Y-146754819D02*
X120107142Y-146707200D01*
X120107142Y-146707200D02*
X120154761Y-146659580D01*
X155429819Y-119666666D02*
X156144104Y-119666666D01*
X156144104Y-119666666D02*
X156286961Y-119619047D01*
X156286961Y-119619047D02*
X156382200Y-119523809D01*
X156382200Y-119523809D02*
X156429819Y-119380952D01*
X156429819Y-119380952D02*
X156429819Y-119285714D01*
X155763152Y-120571428D02*
X156429819Y-120571428D01*
X155382200Y-120333333D02*
X156096485Y-120095238D01*
X156096485Y-120095238D02*
X156096485Y-120714285D01*
X124754819Y-133166666D02*
X125469104Y-133166666D01*
X125469104Y-133166666D02*
X125611961Y-133119047D01*
X125611961Y-133119047D02*
X125707200Y-133023809D01*
X125707200Y-133023809D02*
X125754819Y-132880952D01*
X125754819Y-132880952D02*
X125754819Y-132785714D01*
X125754819Y-133642857D02*
X124754819Y-133642857D01*
X124754819Y-133642857D02*
X124754819Y-134023809D01*
X124754819Y-134023809D02*
X124802438Y-134119047D01*
X124802438Y-134119047D02*
X124850057Y-134166666D01*
X124850057Y-134166666D02*
X124945295Y-134214285D01*
X124945295Y-134214285D02*
X125088152Y-134214285D01*
X125088152Y-134214285D02*
X125183390Y-134166666D01*
X125183390Y-134166666D02*
X125231009Y-134119047D01*
X125231009Y-134119047D02*
X125278628Y-134023809D01*
X125278628Y-134023809D02*
X125278628Y-133642857D01*
X125754819Y-135166666D02*
X125754819Y-134595238D01*
X125754819Y-134880952D02*
X124754819Y-134880952D01*
X124754819Y-134880952D02*
X124897676Y-134785714D01*
X124897676Y-134785714D02*
X124992914Y-134690476D01*
X124992914Y-134690476D02*
X125040533Y-134595238D01*
X147554819Y-119516666D02*
X148269104Y-119516666D01*
X148269104Y-119516666D02*
X148411961Y-119469047D01*
X148411961Y-119469047D02*
X148507200Y-119373809D01*
X148507200Y-119373809D02*
X148554819Y-119230952D01*
X148554819Y-119230952D02*
X148554819Y-119135714D01*
X147554819Y-119897619D02*
X147554819Y-120516666D01*
X147554819Y-120516666D02*
X147935771Y-120183333D01*
X147935771Y-120183333D02*
X147935771Y-120326190D01*
X147935771Y-120326190D02*
X147983390Y-120421428D01*
X147983390Y-120421428D02*
X148031009Y-120469047D01*
X148031009Y-120469047D02*
X148126247Y-120516666D01*
X148126247Y-120516666D02*
X148364342Y-120516666D01*
X148364342Y-120516666D02*
X148459580Y-120469047D01*
X148459580Y-120469047D02*
X148507200Y-120421428D01*
X148507200Y-120421428D02*
X148554819Y-120326190D01*
X148554819Y-120326190D02*
X148554819Y-120040476D01*
X148554819Y-120040476D02*
X148507200Y-119945238D01*
X148507200Y-119945238D02*
X148459580Y-119897619D01*
D13*
%TO.C,J7*%
X160170000Y-125670000D02*
X169290000Y-125670000D01*
X160170000Y-143710000D02*
X160170000Y-125670000D01*
X161480000Y-126970000D02*
X167980000Y-126970000D01*
X161480000Y-142410000D02*
X161480000Y-126970000D01*
X167980000Y-126970000D02*
X167980000Y-132640000D01*
X167980000Y-132640000D02*
X169290000Y-132640000D01*
X167980000Y-136740000D02*
X167980000Y-136740000D01*
X167980000Y-136740000D02*
X167980000Y-142410000D01*
X167980000Y-142410000D02*
X161480000Y-142410000D01*
X169290000Y-125670000D02*
X169290000Y-143710000D01*
X169290000Y-136740000D02*
X167980000Y-136740000D01*
X169290000Y-143710000D02*
X160170000Y-143710000D01*
X169680000Y-130880000D02*
X170680000Y-131380000D01*
X170680000Y-130380000D02*
X169680000Y-130880000D01*
X170680000Y-131380000D02*
X170680000Y-130380000D01*
%TO.C,J5*%
X164625000Y-116950000D02*
X164625000Y-124550000D01*
X164625000Y-124550000D02*
X170575000Y-124550000D01*
X165375000Y-117700000D02*
X168325000Y-117700000D01*
X165375000Y-120750000D02*
X165375000Y-117700000D01*
X165375000Y-120750000D02*
X165375000Y-123800000D01*
X165375000Y-123800000D02*
X168325000Y-123800000D01*
X168325000Y-117700000D02*
X168325000Y-116950000D01*
X168325000Y-123800000D02*
X168325000Y-124550000D01*
X168375000Y-124850000D02*
X170875000Y-124850000D01*
X169825000Y-116950000D02*
X169825000Y-118750000D01*
X169825000Y-118750000D02*
X170575000Y-118750000D01*
X169825000Y-120250000D02*
X169825000Y-121250000D01*
X169825000Y-121250000D02*
X170575000Y-121250000D01*
X169825000Y-122750000D02*
X169825000Y-124550000D01*
X169825000Y-124550000D02*
X170575000Y-124550000D01*
X170575000Y-116950000D02*
X164625000Y-116950000D01*
X170575000Y-116950000D02*
X169825000Y-116950000D01*
X170575000Y-118750000D02*
X170575000Y-116950000D01*
X170575000Y-120250000D02*
X169825000Y-120250000D01*
X170575000Y-121250000D02*
X170575000Y-120250000D01*
X170575000Y-122750000D02*
X169825000Y-122750000D01*
X170575000Y-124550000D02*
X170575000Y-116950000D01*
X170575000Y-124550000D02*
X170575000Y-122750000D01*
X170875000Y-124850000D02*
X170875000Y-122350000D01*
%TO.C,JP4*%
X119350000Y-141700000D02*
X119350000Y-142300000D01*
X120050000Y-143000000D02*
X121450000Y-143000000D01*
X121450000Y-141000000D02*
X120050000Y-141000000D01*
X122150000Y-142300000D02*
X122150000Y-141700000D01*
X119350000Y-141700000D02*
G75*
G02*
X120050000Y-141000000I700000J0D01*
G01*
X120050000Y-143000000D02*
G75*
G02*
X119350000Y-142300000I0J700000D01*
G01*
X121450000Y-141000000D02*
G75*
G02*
X122150000Y-141700000I1J-699999D01*
G01*
X122150000Y-142300000D02*
G75*
G02*
X121450000Y-143000000I-699999J-1D01*
G01*
%TO.C,C1*%
X116630000Y-137880000D02*
X116630000Y-138217000D01*
X116630000Y-140283000D02*
X116630000Y-140620000D01*
X121870000Y-137880000D02*
X116630000Y-137880000D01*
X121870000Y-137880000D02*
X121870000Y-138217000D01*
X121870000Y-140283000D02*
X121870000Y-140620000D01*
X121870000Y-140620000D02*
X116630000Y-140620000D01*
%TO.C,C2*%
X134880000Y-138880000D02*
X134880000Y-144120000D01*
X134880000Y-138880000D02*
X135217000Y-138880000D01*
X134880000Y-144120000D02*
X135217000Y-144120000D01*
X137283000Y-138880000D02*
X137620000Y-138880000D01*
X137283000Y-144120000D02*
X137620000Y-144120000D01*
X137620000Y-138880000D02*
X137620000Y-144120000D01*
%TO.C,JP3*%
X115500000Y-133200000D02*
X115500000Y-134600000D01*
X116200000Y-135300000D02*
X116800000Y-135300000D01*
X116800000Y-132500000D02*
X116200000Y-132500000D01*
X117500000Y-134600000D02*
X117500000Y-133200000D01*
X115500000Y-133200000D02*
G75*
G02*
X116200000Y-132500000I699999J1D01*
G01*
X116200000Y-135300000D02*
G75*
G02*
X115500000Y-134600000I0J700000D01*
G01*
X116800000Y-132500000D02*
G75*
G02*
X117500000Y-133200000I1J-699999D01*
G01*
X117500000Y-134600000D02*
G75*
G02*
X116800000Y-135300000I-700000J0D01*
G01*
%TO.C,JP2*%
X119000000Y-133200000D02*
X119000000Y-134600000D01*
X119700000Y-135300000D02*
X120300000Y-135300000D01*
X120300000Y-132500000D02*
X119700000Y-132500000D01*
X121000000Y-134600000D02*
X121000000Y-133200000D01*
X119000000Y-133200000D02*
G75*
G02*
X119700000Y-132500000I700000J0D01*
G01*
X119700000Y-135300000D02*
G75*
G02*
X119000000Y-134600000I-1J699999D01*
G01*
X120300000Y-132500000D02*
G75*
G02*
X121000000Y-133200000I0J-700000D01*
G01*
X121000000Y-134600000D02*
G75*
G02*
X120300000Y-135300000I-699999J-1D01*
G01*
%TO.C,J1*%
X133100000Y-116950000D02*
X133100000Y-124550000D01*
X133100000Y-124550000D02*
X139050000Y-124550000D01*
X133850000Y-117700000D02*
X136800000Y-117700000D01*
X133850000Y-120750000D02*
X133850000Y-117700000D01*
X133850000Y-120750000D02*
X133850000Y-123800000D01*
X133850000Y-123800000D02*
X136800000Y-123800000D01*
X136800000Y-117700000D02*
X136800000Y-116950000D01*
X136800000Y-123800000D02*
X136800000Y-124550000D01*
X136850000Y-124850000D02*
X139350000Y-124850000D01*
X138300000Y-116950000D02*
X138300000Y-118750000D01*
X138300000Y-118750000D02*
X139050000Y-118750000D01*
X138300000Y-120250000D02*
X138300000Y-121250000D01*
X138300000Y-121250000D02*
X139050000Y-121250000D01*
X138300000Y-122750000D02*
X138300000Y-124550000D01*
X138300000Y-124550000D02*
X139050000Y-124550000D01*
X139050000Y-116950000D02*
X133100000Y-116950000D01*
X139050000Y-116950000D02*
X138300000Y-116950000D01*
X139050000Y-118750000D02*
X139050000Y-116950000D01*
X139050000Y-120250000D02*
X138300000Y-120250000D01*
X139050000Y-121250000D02*
X139050000Y-120250000D01*
X139050000Y-122750000D02*
X138300000Y-122750000D01*
X139050000Y-124550000D02*
X139050000Y-116950000D01*
X139050000Y-124550000D02*
X139050000Y-122750000D01*
X139350000Y-124850000D02*
X139350000Y-122350000D01*
%TO.C,J6*%
X113670000Y-117210000D02*
X131710000Y-117210000D01*
X113670000Y-126330000D02*
X113670000Y-117210000D01*
X114970000Y-118520000D02*
X130410000Y-118520000D01*
X114970000Y-125020000D02*
X114970000Y-118520000D01*
X120640000Y-125020000D02*
X114970000Y-125020000D01*
X120640000Y-125020000D02*
X120640000Y-125020000D01*
X120640000Y-126330000D02*
X120640000Y-125020000D01*
X124740000Y-125020000D02*
X124740000Y-126330000D01*
X126000000Y-127720000D02*
X127000000Y-127720000D01*
X126500000Y-126720000D02*
X126000000Y-127720000D01*
X127000000Y-127720000D02*
X126500000Y-126720000D01*
X130410000Y-118520000D02*
X130410000Y-125020000D01*
X130410000Y-125020000D02*
X124740000Y-125020000D01*
X131710000Y-117210000D02*
X131710000Y-126330000D01*
X131710000Y-126330000D02*
X113670000Y-126330000D01*
%TO.C,J2*%
X141225000Y-116950000D02*
X141225000Y-124550000D01*
X141225000Y-124550000D02*
X147175000Y-124550000D01*
X141975000Y-117700000D02*
X144925000Y-117700000D01*
X141975000Y-120750000D02*
X141975000Y-117700000D01*
X141975000Y-120750000D02*
X141975000Y-123800000D01*
X141975000Y-123800000D02*
X144925000Y-123800000D01*
X144925000Y-117700000D02*
X144925000Y-116950000D01*
X144925000Y-123800000D02*
X144925000Y-124550000D01*
X144975000Y-124850000D02*
X147475000Y-124850000D01*
X146425000Y-116950000D02*
X146425000Y-118750000D01*
X146425000Y-118750000D02*
X147175000Y-118750000D01*
X146425000Y-120250000D02*
X146425000Y-121250000D01*
X146425000Y-121250000D02*
X147175000Y-121250000D01*
X146425000Y-122750000D02*
X146425000Y-124550000D01*
X146425000Y-124550000D02*
X147175000Y-124550000D01*
X147175000Y-116950000D02*
X141225000Y-116950000D01*
X147175000Y-116950000D02*
X146425000Y-116950000D01*
X147175000Y-118750000D02*
X147175000Y-116950000D01*
X147175000Y-120250000D02*
X146425000Y-120250000D01*
X147175000Y-121250000D02*
X147175000Y-120250000D01*
X147175000Y-122750000D02*
X146425000Y-122750000D01*
X147175000Y-124550000D02*
X147175000Y-116950000D01*
X147175000Y-124550000D02*
X147175000Y-122750000D01*
X147475000Y-124850000D02*
X147475000Y-122350000D01*
%TO.C,JP5*%
X119350000Y-144200000D02*
X119350000Y-144800000D01*
X120050000Y-145500000D02*
X121450000Y-145500000D01*
X121450000Y-143500000D02*
X120050000Y-143500000D01*
X122150000Y-144800000D02*
X122150000Y-144200000D01*
X119350000Y-144200000D02*
G75*
G02*
X120050000Y-143500000I699999J1D01*
G01*
X120050000Y-145500000D02*
G75*
G02*
X119350000Y-144800000I-1J699999D01*
G01*
X121450000Y-143500000D02*
G75*
G02*
X122150000Y-144200000I0J-700000D01*
G01*
X122150000Y-144800000D02*
G75*
G02*
X121450000Y-145500000I-700000J0D01*
G01*
%TO.C,J4*%
X156900000Y-116950000D02*
X156900000Y-124550000D01*
X156900000Y-124550000D02*
X162850000Y-124550000D01*
X157650000Y-117700000D02*
X160600000Y-117700000D01*
X157650000Y-120750000D02*
X157650000Y-117700000D01*
X157650000Y-120750000D02*
X157650000Y-123800000D01*
X157650000Y-123800000D02*
X160600000Y-123800000D01*
X160600000Y-117700000D02*
X160600000Y-116950000D01*
X160600000Y-123800000D02*
X160600000Y-124550000D01*
X160650000Y-124850000D02*
X163150000Y-124850000D01*
X162100000Y-116950000D02*
X162100000Y-118750000D01*
X162100000Y-118750000D02*
X162850000Y-118750000D01*
X162100000Y-120250000D02*
X162100000Y-121250000D01*
X162100000Y-121250000D02*
X162850000Y-121250000D01*
X162100000Y-122750000D02*
X162100000Y-124550000D01*
X162100000Y-124550000D02*
X162850000Y-124550000D01*
X162850000Y-116950000D02*
X156900000Y-116950000D01*
X162850000Y-116950000D02*
X162100000Y-116950000D01*
X162850000Y-118750000D02*
X162850000Y-116950000D01*
X162850000Y-120250000D02*
X162100000Y-120250000D01*
X162850000Y-121250000D02*
X162850000Y-120250000D01*
X162850000Y-122750000D02*
X162100000Y-122750000D01*
X162850000Y-124550000D02*
X162850000Y-116950000D01*
X162850000Y-124550000D02*
X162850000Y-122750000D01*
X163150000Y-124850000D02*
X163150000Y-122350000D01*
%TO.C,JP1*%
X122500000Y-133300000D02*
X122500000Y-134700000D01*
X123200000Y-135400000D02*
X123800000Y-135400000D01*
X123800000Y-132600000D02*
X123200000Y-132600000D01*
X124500000Y-134700000D02*
X124500000Y-133300000D01*
X122500000Y-133300000D02*
G75*
G02*
X123200000Y-132600000I700000J0D01*
G01*
X123200000Y-135400000D02*
G75*
G02*
X122500000Y-134700000I-1J699999D01*
G01*
X123800000Y-132600000D02*
G75*
G02*
X124500000Y-133300000I0J-700000D01*
G01*
X124500000Y-134700000D02*
G75*
G02*
X123800000Y-135400000I-699999J-1D01*
G01*
%TO.C,J3*%
X149025000Y-116800000D02*
X149025000Y-124400000D01*
X149025000Y-124400000D02*
X154975000Y-124400000D01*
X149775000Y-117550000D02*
X152725000Y-117550000D01*
X149775000Y-120600000D02*
X149775000Y-117550000D01*
X149775000Y-120600000D02*
X149775000Y-123650000D01*
X149775000Y-123650000D02*
X152725000Y-123650000D01*
X152725000Y-117550000D02*
X152725000Y-116800000D01*
X152725000Y-123650000D02*
X152725000Y-124400000D01*
X152775000Y-124700000D02*
X155275000Y-124700000D01*
X154225000Y-116800000D02*
X154225000Y-118600000D01*
X154225000Y-118600000D02*
X154975000Y-118600000D01*
X154225000Y-120100000D02*
X154225000Y-121100000D01*
X154225000Y-121100000D02*
X154975000Y-121100000D01*
X154225000Y-122600000D02*
X154225000Y-124400000D01*
X154225000Y-124400000D02*
X154975000Y-124400000D01*
X154975000Y-116800000D02*
X149025000Y-116800000D01*
X154975000Y-116800000D02*
X154225000Y-116800000D01*
X154975000Y-118600000D02*
X154975000Y-116800000D01*
X154975000Y-120100000D02*
X154225000Y-120100000D01*
X154975000Y-121100000D02*
X154975000Y-120100000D01*
X154975000Y-122600000D02*
X154225000Y-122600000D01*
X154975000Y-124400000D02*
X154975000Y-116800000D01*
X154975000Y-124400000D02*
X154975000Y-122600000D01*
X155275000Y-124700000D02*
X155275000Y-122200000D01*
%TD*%
M02*
