%TF.GenerationSoftware,KiCad,Pcbnew,9.0.2*%
%TF.CreationDate,2025-06-11T23:47:40-06:00*%
%TF.ProjectId,Isolinear Board PCB,49736f6c-696e-4656-9172-20426f617264,rev?*%
%TF.SameCoordinates,Original*%
%TF.FileFunction,Soldermask,Bot*%
%TF.FilePolarity,Negative*%
%FSLAX46Y46*%
G04 Gerber Fmt 4.6, Leading zero omitted, Abs format (unit mm)*
G04 Created by KiCad (PCBNEW 9.0.2) date 2025-06-11 23:47:40*
%MOMM*%
%LPD*%
G01*
G04 APERTURE LIST*
G04 Aperture macros list*
%AMRoundRect*
0 Rectangle with rounded corners*
0 $1 Rounding radius*
0 $2 $3 $4 $5 $6 $7 $8 $9 X,Y pos of 4 corners*
0 Add a 4 corners polygon primitive as box body*
4,1,4,$2,$3,$4,$5,$6,$7,$8,$9,$2,$3,0*
0 Add four circle primitives for the rounded corners*
1,1,$1+$1,$2,$3*
1,1,$1+$1,$4,$5*
1,1,$1+$1,$6,$7*
1,1,$1+$1,$8,$9*
0 Add four rect primitives between the rounded corners*
20,1,$1+$1,$2,$3,$4,$5,0*
20,1,$1+$1,$4,$5,$6,$7,0*
20,1,$1+$1,$6,$7,$8,$9,0*
20,1,$1+$1,$8,$9,$2,$3,0*%
%AMFreePoly0*
4,1,23,0.500000,-0.750000,0.000000,-0.750000,0.000000,-0.745722,-0.065263,-0.745722,-0.191342,-0.711940,-0.304381,-0.646677,-0.396677,-0.554381,-0.461940,-0.441342,-0.495722,-0.315263,-0.495722,-0.250000,-0.500000,-0.250000,-0.500000,0.250000,-0.495722,0.250000,-0.495722,0.315263,-0.461940,0.441342,-0.396677,0.554381,-0.304381,0.646677,-0.191342,0.711940,-0.065263,0.745722,0.000000,0.745722,
0.000000,0.750000,0.500000,0.750000,0.500000,-0.750000,0.500000,-0.750000,$1*%
%AMFreePoly1*
4,1,23,0.000000,0.745722,0.065263,0.745722,0.191342,0.711940,0.304381,0.646677,0.396677,0.554381,0.461940,0.441342,0.495722,0.315263,0.495722,0.250000,0.500000,0.250000,0.500000,-0.250000,0.495722,-0.250000,0.495722,-0.315263,0.461940,-0.441342,0.396677,-0.554381,0.304381,-0.646677,0.191342,-0.711940,0.065263,-0.745722,0.000000,-0.745722,0.000000,-0.750000,-0.500000,-0.750000,
-0.500000,0.750000,0.000000,0.750000,0.000000,0.745722,0.000000,0.745722,$1*%
G04 Aperture macros list end*
%ADD10C,0.200000*%
%ADD11C,1.600000*%
%ADD12O,1.600000X1.600000*%
%ADD13RoundRect,0.450000X-0.450000X-0.450000X0.450000X-0.450000X0.450000X0.450000X-0.450000X0.450000X0*%
%ADD14C,1.800000*%
%ADD15R,1.600000X1.600000*%
%ADD16C,3.200000*%
%ADD17R,1.600000X2.400000*%
%ADD18O,1.600000X2.400000*%
%ADD19C,2.100000*%
%ADD20RoundRect,0.250000X0.600000X0.600000X-0.600000X0.600000X-0.600000X-0.600000X0.600000X-0.600000X0*%
%ADD21C,1.700000*%
%ADD22R,1.750000X1.750000*%
%ADD23C,1.750000*%
%ADD24FreePoly0,180.000000*%
%ADD25FreePoly1,180.000000*%
%ADD26FreePoly0,270.000000*%
%ADD27FreePoly1,270.000000*%
%ADD28FreePoly0,90.000000*%
%ADD29FreePoly1,90.000000*%
%ADD30RoundRect,0.250000X0.600000X-0.600000X0.600000X0.600000X-0.600000X0.600000X-0.600000X-0.600000X0*%
%ADD31FreePoly0,0.000000*%
%ADD32FreePoly1,0.000000*%
G04 APERTURE END LIST*
D10*
X120000000Y-144000000D02*
X121500000Y-144000000D01*
X121500000Y-145000000D01*
X120000000Y-145000000D01*
X120000000Y-144000000D01*
G36*
X120000000Y-144000000D02*
G01*
X121500000Y-144000000D01*
X121500000Y-145000000D01*
X120000000Y-145000000D01*
X120000000Y-144000000D01*
G37*
X119500000Y-133000000D02*
X120500000Y-133000000D01*
X120500000Y-134750000D01*
X119500000Y-134750000D01*
X119500000Y-133000000D01*
G36*
X119500000Y-133000000D02*
G01*
X120500000Y-133000000D01*
X120500000Y-134750000D01*
X119500000Y-134750000D01*
X119500000Y-133000000D01*
G37*
X123000000Y-133250000D02*
X124000000Y-133250000D01*
X124000000Y-134750000D01*
X123000000Y-134750000D01*
X123000000Y-133250000D01*
G36*
X123000000Y-133250000D02*
G01*
X124000000Y-133250000D01*
X124000000Y-134750000D01*
X123000000Y-134750000D01*
X123000000Y-133250000D01*
G37*
X120000000Y-141500000D02*
X121500000Y-141500000D01*
X121500000Y-142500000D01*
X120000000Y-142500000D01*
X120000000Y-141500000D01*
G36*
X120000000Y-141500000D02*
G01*
X121500000Y-141500000D01*
X121500000Y-142500000D01*
X120000000Y-142500000D01*
X120000000Y-141500000D01*
G37*
X116000000Y-133000000D02*
X117000000Y-133000000D01*
X117000000Y-134750000D01*
X116000000Y-134750000D01*
X116000000Y-133000000D01*
G36*
X116000000Y-133000000D02*
G01*
X117000000Y-133000000D01*
X117000000Y-134750000D01*
X116000000Y-134750000D01*
X116000000Y-133000000D01*
G37*
%TO.C,JP4*%
G36*
X120900000Y-141250000D02*
G01*
X120600000Y-141250000D01*
X120600000Y-142750000D01*
X120900000Y-142750000D01*
X120900000Y-141250000D01*
G37*
%TO.C,JP3*%
G36*
X115750000Y-133750000D02*
G01*
X117250000Y-133750000D01*
X117250000Y-134050000D01*
X115750000Y-134050000D01*
X115750000Y-133750000D01*
G37*
%TO.C,JP2*%
G36*
X120750000Y-134050000D02*
G01*
X119250000Y-134050000D01*
X119250000Y-133750000D01*
X120750000Y-133750000D01*
X120750000Y-134050000D01*
G37*
%TO.C,JP5*%
G36*
X120600000Y-145250000D02*
G01*
X120900000Y-145250000D01*
X120900000Y-143750000D01*
X120600000Y-143750000D01*
X120600000Y-145250000D01*
G37*
%TO.C,JP1*%
G36*
X124250000Y-134150000D02*
G01*
X122750000Y-134150000D01*
X122750000Y-133850000D01*
X124250000Y-133850000D01*
X124250000Y-134150000D01*
G37*
%TD*%
D11*
%TO.C,R1*%
X132500000Y-132190000D03*
D12*
X132500000Y-139810000D03*
%TD*%
D13*
%TO.C,D1*%
X123700000Y-141240000D03*
D14*
X125478000Y-142764000D03*
X127002000Y-141240000D03*
X128526000Y-142764000D03*
%TD*%
D11*
%TO.C,R3*%
X120000000Y-129190000D03*
D12*
X120000000Y-136810000D03*
%TD*%
D15*
%TO.C,D6*%
X143000000Y-133810000D03*
D12*
X143000000Y-126190000D03*
%TD*%
D15*
%TO.C,D4*%
X151000000Y-133810000D03*
D12*
X151000000Y-126190000D03*
%TD*%
D15*
%TO.C,D5*%
X155000000Y-133810000D03*
D12*
X155000000Y-126190000D03*
%TD*%
D15*
%TO.C,D2*%
X139000000Y-133810000D03*
D12*
X139000000Y-126190000D03*
%TD*%
D11*
%TO.C,R4*%
X123500000Y-129190000D03*
D12*
X123500000Y-136810000D03*
%TD*%
D16*
%TO.C,H1*%
X168400000Y-146000000D03*
%TD*%
D15*
%TO.C,D3*%
X147000000Y-133810000D03*
D12*
X147000000Y-126190000D03*
%TD*%
D17*
%TO.C,U1*%
X138625000Y-144325000D03*
D18*
X141165000Y-144325000D03*
X143705000Y-144325000D03*
X146245000Y-144325000D03*
X148785000Y-144325000D03*
X151325000Y-144325000D03*
X153865000Y-144325000D03*
X156405000Y-144325000D03*
X156405000Y-136705000D03*
X153865000Y-136705000D03*
X151325000Y-136705000D03*
X148785000Y-136705000D03*
X146245000Y-136705000D03*
X143705000Y-136705000D03*
X141165000Y-136705000D03*
X138625000Y-136705000D03*
%TD*%
D19*
%TO.C,H2*%
X135000000Y-127400000D03*
%TD*%
D11*
%TO.C,R2*%
X116500000Y-129190000D03*
D12*
X116500000Y-136810000D03*
%TD*%
D20*
%TO.C,J7*%
X166000000Y-130880000D03*
D21*
X163460000Y-130880000D03*
X166000000Y-133420000D03*
X163460000Y-133420000D03*
X166000000Y-135960000D03*
X163460000Y-135960000D03*
X166000000Y-138500000D03*
X163460000Y-138500000D03*
%TD*%
D22*
%TO.C,J5*%
X168125000Y-122000000D03*
D23*
X168125000Y-119500000D03*
%TD*%
D24*
%TO.C,JP4*%
X121400000Y-142000000D03*
D25*
X120100000Y-142000000D03*
%TD*%
D11*
%TO.C,C1*%
X121750000Y-139250000D03*
X116750000Y-139250000D03*
%TD*%
%TO.C,C2*%
X136250000Y-139000000D03*
X136250000Y-144000000D03*
%TD*%
D26*
%TO.C,JP3*%
X116500000Y-133250000D03*
D27*
X116500000Y-134550000D03*
%TD*%
D28*
%TO.C,JP2*%
X120000000Y-134550000D03*
D29*
X120000000Y-133250000D03*
%TD*%
D22*
%TO.C,J1*%
X136600000Y-122000000D03*
D23*
X136600000Y-119500000D03*
%TD*%
D30*
%TO.C,J6*%
X126500000Y-123040000D03*
D21*
X126500000Y-120500000D03*
X123960000Y-123040000D03*
X123960000Y-120500000D03*
X121420000Y-123040000D03*
X121420000Y-120500000D03*
X118880000Y-123040000D03*
X118880000Y-120500000D03*
%TD*%
D22*
%TO.C,J2*%
X144725000Y-122000000D03*
D23*
X144725000Y-119500000D03*
%TD*%
D31*
%TO.C,JP5*%
X120100000Y-144500000D03*
D32*
X121400000Y-144500000D03*
%TD*%
D22*
%TO.C,J4*%
X160400000Y-122000000D03*
D23*
X160400000Y-119500000D03*
%TD*%
D28*
%TO.C,JP1*%
X123500000Y-134650000D03*
D29*
X123500000Y-133350000D03*
%TD*%
D22*
%TO.C,J3*%
X152525000Y-121850000D03*
D23*
X152525000Y-119350000D03*
%TD*%
M02*
