%TF.GenerationSoftware,KiCad,Pcbnew,8.0.3*%
%TF.CreationDate,2024-06-27T19:26:25-06:00*%
%TF.ProjectId,Subsystem SPI Breakout v2,53756273-7973-4746-956d-205350492042,rev?*%
%TF.SameCoordinates,Original*%
%TF.FileFunction,Soldermask,Bot*%
%TF.FilePolarity,Negative*%
%FSLAX46Y46*%
G04 Gerber Fmt 4.6, Leading zero omitted, Abs format (unit mm)*
G04 Created by KiCad (PCBNEW 8.0.3) date 2024-06-27 19:26:25*
%MOMM*%
%LPD*%
G01*
G04 APERTURE LIST*
G04 Aperture macros list*
%AMRoundRect*
0 Rectangle with rounded corners*
0 $1 Rounding radius*
0 $2 $3 $4 $5 $6 $7 $8 $9 X,Y pos of 4 corners*
0 Add a 4 corners polygon primitive as box body*
4,1,4,$2,$3,$4,$5,$6,$7,$8,$9,$2,$3,0*
0 Add four circle primitives for the rounded corners*
1,1,$1+$1,$2,$3*
1,1,$1+$1,$4,$5*
1,1,$1+$1,$6,$7*
1,1,$1+$1,$8,$9*
0 Add four rect primitives between the rounded corners*
20,1,$1+$1,$2,$3,$4,$5,0*
20,1,$1+$1,$4,$5,$6,$7,0*
20,1,$1+$1,$6,$7,$8,$9,0*
20,1,$1+$1,$8,$9,$2,$3,0*%
G04 Aperture macros list end*
%ADD10C,2.794000*%
%ADD11R,1.524000X1.524000*%
%ADD12C,1.524000*%
%ADD13C,1.982000*%
%ADD14R,1.050000X1.500000*%
%ADD15O,1.050000X1.500000*%
%ADD16RoundRect,0.102000X-0.889000X-0.889000X0.889000X-0.889000X0.889000X0.889000X-0.889000X0.889000X0*%
%ADD17RoundRect,0.102000X0.889000X0.889000X-0.889000X0.889000X-0.889000X-0.889000X0.889000X-0.889000X0*%
G04 APERTURE END LIST*
D10*
%TO.C,U1*%
X165390000Y-55000000D03*
X164120000Y-90560000D03*
X93000000Y-90560000D03*
X93000000Y-55000000D03*
D11*
X169200000Y-56270000D03*
D12*
X169200000Y-58810000D03*
X169200000Y-61350000D03*
X169200000Y-63890000D03*
X169200000Y-66430000D03*
X169200000Y-68970000D03*
X169200000Y-71510000D03*
X169200000Y-74050000D03*
X169200000Y-76590000D03*
X169200000Y-79130000D03*
X169200000Y-81670000D03*
X169200000Y-84210000D03*
X169200000Y-86750000D03*
X169200000Y-89290000D03*
D11*
X93000000Y-68970000D03*
D12*
X93000000Y-71510000D03*
X93000000Y-74050000D03*
X93000000Y-76590000D03*
%TD*%
D13*
%TO.C,R1*%
X116690000Y-69500000D03*
X124310000Y-69500000D03*
%TD*%
D14*
%TO.C,Q1*%
X111270000Y-61000000D03*
D15*
X110000000Y-61000000D03*
X108730000Y-61000000D03*
%TD*%
D13*
%TO.C,R2*%
X116690000Y-86500000D03*
X124310000Y-86500000D03*
%TD*%
%TO.C,R5*%
X110190000Y-92500000D03*
X117810000Y-92500000D03*
%TD*%
%TO.C,LogicConverter1*%
X145420000Y-82000000D03*
X145420000Y-92160000D03*
X142880000Y-82000000D03*
D16*
X137800000Y-82000000D03*
D13*
X140340000Y-82000000D03*
X147960000Y-82000000D03*
X150500000Y-82000000D03*
X142880000Y-92160000D03*
X137800000Y-92160000D03*
X140340000Y-92160000D03*
X147960000Y-92160000D03*
X150500000Y-92160000D03*
%TD*%
%TO.C,R6*%
X110190000Y-55000000D03*
X117810000Y-55000000D03*
%TD*%
D14*
%TO.C,Q2*%
X108730000Y-69360000D03*
D15*
X110000000Y-69360000D03*
X111270000Y-69360000D03*
%TD*%
D13*
%TO.C,R4*%
X114690000Y-61000000D03*
X122310000Y-61000000D03*
%TD*%
D17*
%TO.C,1*%
X149080000Y-57000000D03*
D13*
X146540000Y-57000000D03*
X144000000Y-57000000D03*
X138920000Y-54460000D03*
X138920000Y-57000000D03*
X141460000Y-57000000D03*
X141460000Y-54460000D03*
X149080000Y-54460000D03*
X144000000Y-54460000D03*
X146540000Y-54460000D03*
%TD*%
D14*
%TO.C,Q4*%
X108730000Y-86500000D03*
D15*
X110000000Y-86500000D03*
X111270000Y-86500000D03*
%TD*%
D13*
%TO.C,R3*%
X114690000Y-78000000D03*
X122310000Y-78000000D03*
%TD*%
D14*
%TO.C,Q3*%
X111270000Y-78140000D03*
D15*
X110000000Y-78140000D03*
X108730000Y-78140000D03*
%TD*%
M02*
