%TF.GenerationSoftware,KiCad,Pcbnew,8.0.3*%
%TF.CreationDate,2024-06-27T19:26:25-06:00*%
%TF.ProjectId,Subsystem SPI Breakout v2,53756273-7973-4746-956d-205350492042,rev?*%
%TF.SameCoordinates,Original*%
%TF.FileFunction,Legend,Top*%
%TF.FilePolarity,Positive*%
%FSLAX46Y46*%
G04 Gerber Fmt 4.6, Leading zero omitted, Abs format (unit mm)*
G04 Created by KiCad (PCBNEW 8.0.3) date 2024-06-27 19:26:25*
%MOMM*%
%LPD*%
G01*
G04 APERTURE LIST*
G04 Aperture macros list*
%AMRoundRect*
0 Rectangle with rounded corners*
0 $1 Rounding radius*
0 $2 $3 $4 $5 $6 $7 $8 $9 X,Y pos of 4 corners*
0 Add a 4 corners polygon primitive as box body*
4,1,4,$2,$3,$4,$5,$6,$7,$8,$9,$2,$3,0*
0 Add four circle primitives for the rounded corners*
1,1,$1+$1,$2,$3*
1,1,$1+$1,$4,$5*
1,1,$1+$1,$6,$7*
1,1,$1+$1,$8,$9*
0 Add four rect primitives between the rounded corners*
20,1,$1+$1,$2,$3,$4,$5,0*
20,1,$1+$1,$4,$5,$6,$7,0*
20,1,$1+$1,$6,$7,$8,$9,0*
20,1,$1+$1,$8,$9,$2,$3,0*%
G04 Aperture macros list end*
%ADD10C,0.100000*%
%ADD11C,0.150000*%
%ADD12C,0.200000*%
%ADD13C,0.127000*%
%ADD14C,0.120000*%
%ADD15C,2.794000*%
%ADD16R,1.524000X1.524000*%
%ADD17C,1.524000*%
%ADD18C,1.982000*%
%ADD19R,1.050000X1.500000*%
%ADD20O,1.050000X1.500000*%
%ADD21RoundRect,0.102000X-0.889000X-0.889000X0.889000X-0.889000X0.889000X0.889000X-0.889000X0.889000X0*%
%ADD22RoundRect,0.102000X0.889000X0.889000X-0.889000X0.889000X-0.889000X-0.889000X0.889000X-0.889000X0*%
G04 APERTURE END LIST*
D10*
X159881353Y-91251907D02*
X159790639Y-91342621D01*
X159790639Y-91342621D02*
X159609211Y-91433335D01*
X159609211Y-91433335D02*
X159155639Y-91433335D01*
X159155639Y-91433335D02*
X158974211Y-91342621D01*
X158974211Y-91342621D02*
X158883496Y-91251907D01*
X158883496Y-91251907D02*
X158792782Y-91070478D01*
X158792782Y-91070478D02*
X158792782Y-90889050D01*
X158792782Y-90889050D02*
X158883496Y-90616907D01*
X158883496Y-90616907D02*
X159972068Y-89528335D01*
X159972068Y-89528335D02*
X158792782Y-89528335D01*
X157976353Y-89709764D02*
X157885639Y-89619050D01*
X157885639Y-89619050D02*
X157976353Y-89528335D01*
X157976353Y-89528335D02*
X158067067Y-89619050D01*
X158067067Y-89619050D02*
X157976353Y-89709764D01*
X157976353Y-89709764D02*
X157976353Y-89528335D01*
X156252782Y-90798335D02*
X156252782Y-89528335D01*
X156706353Y-91524050D02*
X157159924Y-90163335D01*
X157159924Y-90163335D02*
X155980639Y-90163335D01*
X155345638Y-91433335D02*
X155345638Y-91070478D01*
X154619924Y-91433335D02*
X154619924Y-91070478D01*
X152624209Y-91433335D02*
X151535638Y-91433335D01*
X152079923Y-89528335D02*
X152079923Y-91433335D01*
X150265637Y-90526192D02*
X150900637Y-90526192D01*
X150900637Y-89528335D02*
X150900637Y-91433335D01*
X150900637Y-91433335D02*
X149993494Y-91433335D01*
X149539923Y-91433335D02*
X148451352Y-91433335D01*
X148995637Y-89528335D02*
X148995637Y-91433335D01*
X146455636Y-89619050D02*
X146183494Y-89528335D01*
X146183494Y-89528335D02*
X145729922Y-89528335D01*
X145729922Y-89528335D02*
X145548494Y-89619050D01*
X145548494Y-89619050D02*
X145457779Y-89709764D01*
X145457779Y-89709764D02*
X145367065Y-89891192D01*
X145367065Y-89891192D02*
X145367065Y-90072621D01*
X145367065Y-90072621D02*
X145457779Y-90254050D01*
X145457779Y-90254050D02*
X145548494Y-90344764D01*
X145548494Y-90344764D02*
X145729922Y-90435478D01*
X145729922Y-90435478D02*
X146092779Y-90526192D01*
X146092779Y-90526192D02*
X146274208Y-90616907D01*
X146274208Y-90616907D02*
X146364922Y-90707621D01*
X146364922Y-90707621D02*
X146455636Y-90889050D01*
X146455636Y-90889050D02*
X146455636Y-91070478D01*
X146455636Y-91070478D02*
X146364922Y-91251907D01*
X146364922Y-91251907D02*
X146274208Y-91342621D01*
X146274208Y-91342621D02*
X146092779Y-91433335D01*
X146092779Y-91433335D02*
X145639208Y-91433335D01*
X145639208Y-91433335D02*
X145367065Y-91342621D01*
X143734208Y-89619050D02*
X143915636Y-89528335D01*
X143915636Y-89528335D02*
X144278493Y-89528335D01*
X144278493Y-89528335D02*
X144459922Y-89619050D01*
X144459922Y-89619050D02*
X144550636Y-89709764D01*
X144550636Y-89709764D02*
X144641350Y-89891192D01*
X144641350Y-89891192D02*
X144641350Y-90435478D01*
X144641350Y-90435478D02*
X144550636Y-90616907D01*
X144550636Y-90616907D02*
X144459922Y-90707621D01*
X144459922Y-90707621D02*
X144278493Y-90798335D01*
X144278493Y-90798335D02*
X143915636Y-90798335D01*
X143915636Y-90798335D02*
X143734208Y-90707621D01*
X142917779Y-89528335D02*
X142917779Y-90798335D01*
X142917779Y-90435478D02*
X142827065Y-90616907D01*
X142827065Y-90616907D02*
X142736351Y-90707621D01*
X142736351Y-90707621D02*
X142554922Y-90798335D01*
X142554922Y-90798335D02*
X142373493Y-90798335D01*
X141012779Y-89619050D02*
X141194207Y-89528335D01*
X141194207Y-89528335D02*
X141557065Y-89528335D01*
X141557065Y-89528335D02*
X141738493Y-89619050D01*
X141738493Y-89619050D02*
X141829207Y-89800478D01*
X141829207Y-89800478D02*
X141829207Y-90526192D01*
X141829207Y-90526192D02*
X141738493Y-90707621D01*
X141738493Y-90707621D02*
X141557065Y-90798335D01*
X141557065Y-90798335D02*
X141194207Y-90798335D01*
X141194207Y-90798335D02*
X141012779Y-90707621D01*
X141012779Y-90707621D02*
X140922065Y-90526192D01*
X140922065Y-90526192D02*
X140922065Y-90344764D01*
X140922065Y-90344764D02*
X141829207Y-90163335D01*
X139379922Y-89619050D02*
X139561350Y-89528335D01*
X139561350Y-89528335D02*
X139924208Y-89528335D01*
X139924208Y-89528335D02*
X140105636Y-89619050D01*
X140105636Y-89619050D02*
X140196350Y-89800478D01*
X140196350Y-89800478D02*
X140196350Y-90526192D01*
X140196350Y-90526192D02*
X140105636Y-90707621D01*
X140105636Y-90707621D02*
X139924208Y-90798335D01*
X139924208Y-90798335D02*
X139561350Y-90798335D01*
X139561350Y-90798335D02*
X139379922Y-90707621D01*
X139379922Y-90707621D02*
X139289208Y-90526192D01*
X139289208Y-90526192D02*
X139289208Y-90344764D01*
X139289208Y-90344764D02*
X140196350Y-90163335D01*
X138472779Y-90798335D02*
X138472779Y-89528335D01*
X138472779Y-90616907D02*
X138382065Y-90707621D01*
X138382065Y-90707621D02*
X138200636Y-90798335D01*
X138200636Y-90798335D02*
X137928493Y-90798335D01*
X137928493Y-90798335D02*
X137747065Y-90707621D01*
X137747065Y-90707621D02*
X137656351Y-90526192D01*
X137656351Y-90526192D02*
X137656351Y-89528335D01*
X135388493Y-91251907D02*
X135297779Y-91342621D01*
X135297779Y-91342621D02*
X135116351Y-91433335D01*
X135116351Y-91433335D02*
X134662779Y-91433335D01*
X134662779Y-91433335D02*
X134481351Y-91342621D01*
X134481351Y-91342621D02*
X134390636Y-91251907D01*
X134390636Y-91251907D02*
X134299922Y-91070478D01*
X134299922Y-91070478D02*
X134299922Y-90889050D01*
X134299922Y-90889050D02*
X134390636Y-90616907D01*
X134390636Y-90616907D02*
X135479208Y-89528335D01*
X135479208Y-89528335D02*
X134299922Y-89528335D01*
X132667065Y-90798335D02*
X132667065Y-89528335D01*
X133120636Y-91524050D02*
X133574207Y-90163335D01*
X133574207Y-90163335D02*
X132394922Y-90163335D01*
X131306350Y-91433335D02*
X131124921Y-91433335D01*
X131124921Y-91433335D02*
X130943493Y-91342621D01*
X130943493Y-91342621D02*
X130852779Y-91251907D01*
X130852779Y-91251907D02*
X130762064Y-91070478D01*
X130762064Y-91070478D02*
X130671350Y-90707621D01*
X130671350Y-90707621D02*
X130671350Y-90254050D01*
X130671350Y-90254050D02*
X130762064Y-89891192D01*
X130762064Y-89891192D02*
X130852779Y-89709764D01*
X130852779Y-89709764D02*
X130943493Y-89619050D01*
X130943493Y-89619050D02*
X131124921Y-89528335D01*
X131124921Y-89528335D02*
X131306350Y-89528335D01*
X131306350Y-89528335D02*
X131487779Y-89619050D01*
X131487779Y-89619050D02*
X131578493Y-89709764D01*
X131578493Y-89709764D02*
X131669207Y-89891192D01*
X131669207Y-89891192D02*
X131759921Y-90254050D01*
X131759921Y-90254050D02*
X131759921Y-90707621D01*
X131759921Y-90707621D02*
X131669207Y-91070478D01*
X131669207Y-91070478D02*
X131578493Y-91251907D01*
X131578493Y-91251907D02*
X131487779Y-91342621D01*
X131487779Y-91342621D02*
X131306350Y-91433335D01*
X130036350Y-89528335D02*
X129038493Y-90798335D01*
X130036350Y-90798335D02*
X129038493Y-89528335D01*
X128494207Y-91433335D02*
X127314921Y-91433335D01*
X127314921Y-91433335D02*
X127949921Y-90707621D01*
X127949921Y-90707621D02*
X127677778Y-90707621D01*
X127677778Y-90707621D02*
X127496350Y-90616907D01*
X127496350Y-90616907D02*
X127405635Y-90526192D01*
X127405635Y-90526192D02*
X127314921Y-90344764D01*
X127314921Y-90344764D02*
X127314921Y-89891192D01*
X127314921Y-89891192D02*
X127405635Y-89709764D01*
X127405635Y-89709764D02*
X127496350Y-89619050D01*
X127496350Y-89619050D02*
X127677778Y-89528335D01*
X127677778Y-89528335D02*
X128222064Y-89528335D01*
X128222064Y-89528335D02*
X128403492Y-89619050D01*
X128403492Y-89619050D02*
X128494207Y-89709764D01*
X126589206Y-91251907D02*
X126498492Y-91342621D01*
X126498492Y-91342621D02*
X126317064Y-91433335D01*
X126317064Y-91433335D02*
X125863492Y-91433335D01*
X125863492Y-91433335D02*
X125682064Y-91342621D01*
X125682064Y-91342621D02*
X125591349Y-91251907D01*
X125591349Y-91251907D02*
X125500635Y-91070478D01*
X125500635Y-91070478D02*
X125500635Y-90889050D01*
X125500635Y-90889050D02*
X125591349Y-90616907D01*
X125591349Y-90616907D02*
X126679921Y-89528335D01*
X126679921Y-89528335D02*
X125500635Y-89528335D01*
X124321349Y-91433335D02*
X124139920Y-91433335D01*
X124139920Y-91433335D02*
X123958492Y-91342621D01*
X123958492Y-91342621D02*
X123867778Y-91251907D01*
X123867778Y-91251907D02*
X123777063Y-91070478D01*
X123777063Y-91070478D02*
X123686349Y-90707621D01*
X123686349Y-90707621D02*
X123686349Y-90254050D01*
X123686349Y-90254050D02*
X123777063Y-89891192D01*
X123777063Y-89891192D02*
X123867778Y-89709764D01*
X123867778Y-89709764D02*
X123958492Y-89619050D01*
X123958492Y-89619050D02*
X124139920Y-89528335D01*
X124139920Y-89528335D02*
X124321349Y-89528335D01*
X124321349Y-89528335D02*
X124502778Y-89619050D01*
X124502778Y-89619050D02*
X124593492Y-89709764D01*
X124593492Y-89709764D02*
X124684206Y-89891192D01*
X124684206Y-89891192D02*
X124774920Y-90254050D01*
X124774920Y-90254050D02*
X124774920Y-90707621D01*
X124774920Y-90707621D02*
X124684206Y-91070478D01*
X124684206Y-91070478D02*
X124593492Y-91251907D01*
X124593492Y-91251907D02*
X124502778Y-91342621D01*
X124502778Y-91342621D02*
X124321349Y-91433335D01*
X121599920Y-91433335D02*
X121146348Y-89528335D01*
X121146348Y-89528335D02*
X120783491Y-90889050D01*
X120783491Y-90889050D02*
X120420634Y-89528335D01*
X120420634Y-89528335D02*
X119967063Y-91433335D01*
X119241348Y-89528335D02*
X119241348Y-90798335D01*
X119241348Y-91433335D02*
X119332062Y-91342621D01*
X119332062Y-91342621D02*
X119241348Y-91251907D01*
X119241348Y-91251907D02*
X119150634Y-91342621D01*
X119150634Y-91342621D02*
X119241348Y-91433335D01*
X119241348Y-91433335D02*
X119241348Y-91251907D01*
X118606348Y-90798335D02*
X117880634Y-90798335D01*
X118334205Y-91433335D02*
X118334205Y-89800478D01*
X118334205Y-89800478D02*
X118243491Y-89619050D01*
X118243491Y-89619050D02*
X118062062Y-89528335D01*
X118062062Y-89528335D02*
X117880634Y-89528335D01*
X117245634Y-89528335D02*
X117245634Y-91433335D01*
X116429206Y-89528335D02*
X116429206Y-90526192D01*
X116429206Y-90526192D02*
X116519920Y-90707621D01*
X116519920Y-90707621D02*
X116701348Y-90798335D01*
X116701348Y-90798335D02*
X116973491Y-90798335D01*
X116973491Y-90798335D02*
X117154920Y-90707621D01*
X117154920Y-90707621D02*
X117245634Y-90616907D01*
X114161348Y-89619050D02*
X113889206Y-89528335D01*
X113889206Y-89528335D02*
X113435634Y-89528335D01*
X113435634Y-89528335D02*
X113254206Y-89619050D01*
X113254206Y-89619050D02*
X113163491Y-89709764D01*
X113163491Y-89709764D02*
X113072777Y-89891192D01*
X113072777Y-89891192D02*
X113072777Y-90072621D01*
X113072777Y-90072621D02*
X113163491Y-90254050D01*
X113163491Y-90254050D02*
X113254206Y-90344764D01*
X113254206Y-90344764D02*
X113435634Y-90435478D01*
X113435634Y-90435478D02*
X113798491Y-90526192D01*
X113798491Y-90526192D02*
X113979920Y-90616907D01*
X113979920Y-90616907D02*
X114070634Y-90707621D01*
X114070634Y-90707621D02*
X114161348Y-90889050D01*
X114161348Y-90889050D02*
X114161348Y-91070478D01*
X114161348Y-91070478D02*
X114070634Y-91251907D01*
X114070634Y-91251907D02*
X113979920Y-91342621D01*
X113979920Y-91342621D02*
X113798491Y-91433335D01*
X113798491Y-91433335D02*
X113344920Y-91433335D01*
X113344920Y-91433335D02*
X113072777Y-91342621D01*
X112256348Y-89528335D02*
X112256348Y-91433335D01*
X112256348Y-91433335D02*
X111802777Y-91433335D01*
X111802777Y-91433335D02*
X111530634Y-91342621D01*
X111530634Y-91342621D02*
X111349205Y-91161192D01*
X111349205Y-91161192D02*
X111258491Y-90979764D01*
X111258491Y-90979764D02*
X111167777Y-90616907D01*
X111167777Y-90616907D02*
X111167777Y-90344764D01*
X111167777Y-90344764D02*
X111258491Y-89981907D01*
X111258491Y-89981907D02*
X111349205Y-89800478D01*
X111349205Y-89800478D02*
X111530634Y-89619050D01*
X111530634Y-89619050D02*
X111802777Y-89528335D01*
X111802777Y-89528335D02*
X112256348Y-89528335D01*
X107811348Y-89528335D02*
X108446348Y-90435478D01*
X108899919Y-89528335D02*
X108899919Y-91433335D01*
X108899919Y-91433335D02*
X108174205Y-91433335D01*
X108174205Y-91433335D02*
X107992776Y-91342621D01*
X107992776Y-91342621D02*
X107902062Y-91251907D01*
X107902062Y-91251907D02*
X107811348Y-91070478D01*
X107811348Y-91070478D02*
X107811348Y-90798335D01*
X107811348Y-90798335D02*
X107902062Y-90616907D01*
X107902062Y-90616907D02*
X107992776Y-90526192D01*
X107992776Y-90526192D02*
X108174205Y-90435478D01*
X108174205Y-90435478D02*
X108899919Y-90435478D01*
X106269205Y-89619050D02*
X106450633Y-89528335D01*
X106450633Y-89528335D02*
X106813491Y-89528335D01*
X106813491Y-89528335D02*
X106994919Y-89619050D01*
X106994919Y-89619050D02*
X107085633Y-89800478D01*
X107085633Y-89800478D02*
X107085633Y-90526192D01*
X107085633Y-90526192D02*
X106994919Y-90707621D01*
X106994919Y-90707621D02*
X106813491Y-90798335D01*
X106813491Y-90798335D02*
X106450633Y-90798335D01*
X106450633Y-90798335D02*
X106269205Y-90707621D01*
X106269205Y-90707621D02*
X106178491Y-90526192D01*
X106178491Y-90526192D02*
X106178491Y-90344764D01*
X106178491Y-90344764D02*
X107085633Y-90163335D01*
X104545634Y-89528335D02*
X104545634Y-90526192D01*
X104545634Y-90526192D02*
X104636348Y-90707621D01*
X104636348Y-90707621D02*
X104817776Y-90798335D01*
X104817776Y-90798335D02*
X105180634Y-90798335D01*
X105180634Y-90798335D02*
X105362062Y-90707621D01*
X104545634Y-89619050D02*
X104727062Y-89528335D01*
X104727062Y-89528335D02*
X105180634Y-89528335D01*
X105180634Y-89528335D02*
X105362062Y-89619050D01*
X105362062Y-89619050D02*
X105452776Y-89800478D01*
X105452776Y-89800478D02*
X105452776Y-89981907D01*
X105452776Y-89981907D02*
X105362062Y-90163335D01*
X105362062Y-90163335D02*
X105180634Y-90254050D01*
X105180634Y-90254050D02*
X104727062Y-90254050D01*
X104727062Y-90254050D02*
X104545634Y-90344764D01*
X102822063Y-89528335D02*
X102822063Y-91433335D01*
X102822063Y-89619050D02*
X103003491Y-89528335D01*
X103003491Y-89528335D02*
X103366348Y-89528335D01*
X103366348Y-89528335D02*
X103547777Y-89619050D01*
X103547777Y-89619050D02*
X103638491Y-89709764D01*
X103638491Y-89709764D02*
X103729205Y-89891192D01*
X103729205Y-89891192D02*
X103729205Y-90435478D01*
X103729205Y-90435478D02*
X103638491Y-90616907D01*
X103638491Y-90616907D02*
X103547777Y-90707621D01*
X103547777Y-90707621D02*
X103366348Y-90798335D01*
X103366348Y-90798335D02*
X103003491Y-90798335D01*
X103003491Y-90798335D02*
X102822063Y-90707621D01*
X101189206Y-89619050D02*
X101370634Y-89528335D01*
X101370634Y-89528335D02*
X101733492Y-89528335D01*
X101733492Y-89528335D02*
X101914920Y-89619050D01*
X101914920Y-89619050D02*
X102005634Y-89800478D01*
X102005634Y-89800478D02*
X102005634Y-90526192D01*
X102005634Y-90526192D02*
X101914920Y-90707621D01*
X101914920Y-90707621D02*
X101733492Y-90798335D01*
X101733492Y-90798335D02*
X101370634Y-90798335D01*
X101370634Y-90798335D02*
X101189206Y-90707621D01*
X101189206Y-90707621D02*
X101098492Y-90526192D01*
X101098492Y-90526192D02*
X101098492Y-90344764D01*
X101098492Y-90344764D02*
X102005634Y-90163335D01*
X100282063Y-89528335D02*
X100282063Y-90798335D01*
X100282063Y-90435478D02*
X100191349Y-90616907D01*
X100191349Y-90616907D02*
X100100635Y-90707621D01*
X100100635Y-90707621D02*
X99919206Y-90798335D01*
X99919206Y-90798335D02*
X99737777Y-90798335D01*
D11*
X109904761Y-65110057D02*
X109809523Y-65062438D01*
X109809523Y-65062438D02*
X109714285Y-64967200D01*
X109714285Y-64967200D02*
X109571428Y-64824342D01*
X109571428Y-64824342D02*
X109476190Y-64776723D01*
X109476190Y-64776723D02*
X109380952Y-64776723D01*
X109428571Y-65014819D02*
X109333333Y-64967200D01*
X109333333Y-64967200D02*
X109238095Y-64871961D01*
X109238095Y-64871961D02*
X109190476Y-64681485D01*
X109190476Y-64681485D02*
X109190476Y-64348152D01*
X109190476Y-64348152D02*
X109238095Y-64157676D01*
X109238095Y-64157676D02*
X109333333Y-64062438D01*
X109333333Y-64062438D02*
X109428571Y-64014819D01*
X109428571Y-64014819D02*
X109619047Y-64014819D01*
X109619047Y-64014819D02*
X109714285Y-64062438D01*
X109714285Y-64062438D02*
X109809523Y-64157676D01*
X109809523Y-64157676D02*
X109857142Y-64348152D01*
X109857142Y-64348152D02*
X109857142Y-64681485D01*
X109857142Y-64681485D02*
X109809523Y-64871961D01*
X109809523Y-64871961D02*
X109714285Y-64967200D01*
X109714285Y-64967200D02*
X109619047Y-65014819D01*
X109619047Y-65014819D02*
X109428571Y-65014819D01*
X110809523Y-65014819D02*
X110238095Y-65014819D01*
X110523809Y-65014819D02*
X110523809Y-64014819D01*
X110523809Y-64014819D02*
X110428571Y-64157676D01*
X110428571Y-64157676D02*
X110333333Y-64252914D01*
X110333333Y-64252914D02*
X110238095Y-64300533D01*
X139316666Y-84011009D02*
X139459523Y-84058628D01*
X139459523Y-84058628D02*
X139507142Y-84106247D01*
X139507142Y-84106247D02*
X139554761Y-84201485D01*
X139554761Y-84201485D02*
X139554761Y-84344342D01*
X139554761Y-84344342D02*
X139507142Y-84439580D01*
X139507142Y-84439580D02*
X139459523Y-84487200D01*
X139459523Y-84487200D02*
X139364285Y-84534819D01*
X139364285Y-84534819D02*
X138983333Y-84534819D01*
X138983333Y-84534819D02*
X138983333Y-83534819D01*
X138983333Y-83534819D02*
X139316666Y-83534819D01*
X139316666Y-83534819D02*
X139411904Y-83582438D01*
X139411904Y-83582438D02*
X139459523Y-83630057D01*
X139459523Y-83630057D02*
X139507142Y-83725295D01*
X139507142Y-83725295D02*
X139507142Y-83820533D01*
X139507142Y-83820533D02*
X139459523Y-83915771D01*
X139459523Y-83915771D02*
X139411904Y-83963390D01*
X139411904Y-83963390D02*
X139316666Y-84011009D01*
X139316666Y-84011009D02*
X138983333Y-84011009D01*
X139983333Y-84534819D02*
X139983333Y-83868152D01*
X139983333Y-83534819D02*
X139935714Y-83582438D01*
X139935714Y-83582438D02*
X139983333Y-83630057D01*
X139983333Y-83630057D02*
X140030952Y-83582438D01*
X140030952Y-83582438D02*
X139983333Y-83534819D01*
X139983333Y-83534819D02*
X139983333Y-83630057D01*
X140459523Y-84153866D02*
X141221428Y-84153866D01*
X141697618Y-84534819D02*
X141697618Y-83534819D01*
X141697618Y-83534819D02*
X141935713Y-83534819D01*
X141935713Y-83534819D02*
X142078570Y-83582438D01*
X142078570Y-83582438D02*
X142173808Y-83677676D01*
X142173808Y-83677676D02*
X142221427Y-83772914D01*
X142221427Y-83772914D02*
X142269046Y-83963390D01*
X142269046Y-83963390D02*
X142269046Y-84106247D01*
X142269046Y-84106247D02*
X142221427Y-84296723D01*
X142221427Y-84296723D02*
X142173808Y-84391961D01*
X142173808Y-84391961D02*
X142078570Y-84487200D01*
X142078570Y-84487200D02*
X141935713Y-84534819D01*
X141935713Y-84534819D02*
X141697618Y-84534819D01*
X142697618Y-84534819D02*
X142697618Y-83868152D01*
X142697618Y-83534819D02*
X142649999Y-83582438D01*
X142649999Y-83582438D02*
X142697618Y-83630057D01*
X142697618Y-83630057D02*
X142745237Y-83582438D01*
X142745237Y-83582438D02*
X142697618Y-83534819D01*
X142697618Y-83534819D02*
X142697618Y-83630057D01*
X143173808Y-84534819D02*
X143173808Y-83868152D01*
X143173808Y-84058628D02*
X143221427Y-83963390D01*
X143221427Y-83963390D02*
X143269046Y-83915771D01*
X143269046Y-83915771D02*
X143364284Y-83868152D01*
X143364284Y-83868152D02*
X143459522Y-83868152D01*
X144173808Y-84487200D02*
X144078570Y-84534819D01*
X144078570Y-84534819D02*
X143888094Y-84534819D01*
X143888094Y-84534819D02*
X143792856Y-84487200D01*
X143792856Y-84487200D02*
X143745237Y-84391961D01*
X143745237Y-84391961D02*
X143745237Y-84011009D01*
X143745237Y-84011009D02*
X143792856Y-83915771D01*
X143792856Y-83915771D02*
X143888094Y-83868152D01*
X143888094Y-83868152D02*
X144078570Y-83868152D01*
X144078570Y-83868152D02*
X144173808Y-83915771D01*
X144173808Y-83915771D02*
X144221427Y-84011009D01*
X144221427Y-84011009D02*
X144221427Y-84106247D01*
X144221427Y-84106247D02*
X143745237Y-84201485D01*
X145078570Y-84487200D02*
X144983332Y-84534819D01*
X144983332Y-84534819D02*
X144792856Y-84534819D01*
X144792856Y-84534819D02*
X144697618Y-84487200D01*
X144697618Y-84487200D02*
X144649999Y-84439580D01*
X144649999Y-84439580D02*
X144602380Y-84344342D01*
X144602380Y-84344342D02*
X144602380Y-84058628D01*
X144602380Y-84058628D02*
X144649999Y-83963390D01*
X144649999Y-83963390D02*
X144697618Y-83915771D01*
X144697618Y-83915771D02*
X144792856Y-83868152D01*
X144792856Y-83868152D02*
X144983332Y-83868152D01*
X144983332Y-83868152D02*
X145078570Y-83915771D01*
X145364285Y-83868152D02*
X145745237Y-83868152D01*
X145507142Y-83534819D02*
X145507142Y-84391961D01*
X145507142Y-84391961D02*
X145554761Y-84487200D01*
X145554761Y-84487200D02*
X145649999Y-84534819D01*
X145649999Y-84534819D02*
X145745237Y-84534819D01*
X146078571Y-84534819D02*
X146078571Y-83868152D01*
X146078571Y-83534819D02*
X146030952Y-83582438D01*
X146030952Y-83582438D02*
X146078571Y-83630057D01*
X146078571Y-83630057D02*
X146126190Y-83582438D01*
X146126190Y-83582438D02*
X146078571Y-83534819D01*
X146078571Y-83534819D02*
X146078571Y-83630057D01*
X146697618Y-84534819D02*
X146602380Y-84487200D01*
X146602380Y-84487200D02*
X146554761Y-84439580D01*
X146554761Y-84439580D02*
X146507142Y-84344342D01*
X146507142Y-84344342D02*
X146507142Y-84058628D01*
X146507142Y-84058628D02*
X146554761Y-83963390D01*
X146554761Y-83963390D02*
X146602380Y-83915771D01*
X146602380Y-83915771D02*
X146697618Y-83868152D01*
X146697618Y-83868152D02*
X146840475Y-83868152D01*
X146840475Y-83868152D02*
X146935713Y-83915771D01*
X146935713Y-83915771D02*
X146983332Y-83963390D01*
X146983332Y-83963390D02*
X147030951Y-84058628D01*
X147030951Y-84058628D02*
X147030951Y-84344342D01*
X147030951Y-84344342D02*
X146983332Y-84439580D01*
X146983332Y-84439580D02*
X146935713Y-84487200D01*
X146935713Y-84487200D02*
X146840475Y-84534819D01*
X146840475Y-84534819D02*
X146697618Y-84534819D01*
X147459523Y-83868152D02*
X147459523Y-84534819D01*
X147459523Y-83963390D02*
X147507142Y-83915771D01*
X147507142Y-83915771D02*
X147602380Y-83868152D01*
X147602380Y-83868152D02*
X147745237Y-83868152D01*
X147745237Y-83868152D02*
X147840475Y-83915771D01*
X147840475Y-83915771D02*
X147888094Y-84011009D01*
X147888094Y-84011009D02*
X147888094Y-84534819D01*
X148792856Y-84534819D02*
X148792856Y-84011009D01*
X148792856Y-84011009D02*
X148745237Y-83915771D01*
X148745237Y-83915771D02*
X148649999Y-83868152D01*
X148649999Y-83868152D02*
X148459523Y-83868152D01*
X148459523Y-83868152D02*
X148364285Y-83915771D01*
X148792856Y-84487200D02*
X148697618Y-84534819D01*
X148697618Y-84534819D02*
X148459523Y-84534819D01*
X148459523Y-84534819D02*
X148364285Y-84487200D01*
X148364285Y-84487200D02*
X148316666Y-84391961D01*
X148316666Y-84391961D02*
X148316666Y-84296723D01*
X148316666Y-84296723D02*
X148364285Y-84201485D01*
X148364285Y-84201485D02*
X148459523Y-84153866D01*
X148459523Y-84153866D02*
X148697618Y-84153866D01*
X148697618Y-84153866D02*
X148792856Y-84106247D01*
X149411904Y-84534819D02*
X149316666Y-84487200D01*
X149316666Y-84487200D02*
X149269047Y-84391961D01*
X149269047Y-84391961D02*
X149269047Y-83534819D01*
X141411903Y-87439580D02*
X141364284Y-87487200D01*
X141364284Y-87487200D02*
X141221427Y-87534819D01*
X141221427Y-87534819D02*
X141126189Y-87534819D01*
X141126189Y-87534819D02*
X140983332Y-87487200D01*
X140983332Y-87487200D02*
X140888094Y-87391961D01*
X140888094Y-87391961D02*
X140840475Y-87296723D01*
X140840475Y-87296723D02*
X140792856Y-87106247D01*
X140792856Y-87106247D02*
X140792856Y-86963390D01*
X140792856Y-86963390D02*
X140840475Y-86772914D01*
X140840475Y-86772914D02*
X140888094Y-86677676D01*
X140888094Y-86677676D02*
X140983332Y-86582438D01*
X140983332Y-86582438D02*
X141126189Y-86534819D01*
X141126189Y-86534819D02*
X141221427Y-86534819D01*
X141221427Y-86534819D02*
X141364284Y-86582438D01*
X141364284Y-86582438D02*
X141411903Y-86630057D01*
X141983332Y-87534819D02*
X141888094Y-87487200D01*
X141888094Y-87487200D02*
X141840475Y-87439580D01*
X141840475Y-87439580D02*
X141792856Y-87344342D01*
X141792856Y-87344342D02*
X141792856Y-87058628D01*
X141792856Y-87058628D02*
X141840475Y-86963390D01*
X141840475Y-86963390D02*
X141888094Y-86915771D01*
X141888094Y-86915771D02*
X141983332Y-86868152D01*
X141983332Y-86868152D02*
X142126189Y-86868152D01*
X142126189Y-86868152D02*
X142221427Y-86915771D01*
X142221427Y-86915771D02*
X142269046Y-86963390D01*
X142269046Y-86963390D02*
X142316665Y-87058628D01*
X142316665Y-87058628D02*
X142316665Y-87344342D01*
X142316665Y-87344342D02*
X142269046Y-87439580D01*
X142269046Y-87439580D02*
X142221427Y-87487200D01*
X142221427Y-87487200D02*
X142126189Y-87534819D01*
X142126189Y-87534819D02*
X141983332Y-87534819D01*
X142745237Y-86868152D02*
X142745237Y-87534819D01*
X142745237Y-86963390D02*
X142792856Y-86915771D01*
X142792856Y-86915771D02*
X142888094Y-86868152D01*
X142888094Y-86868152D02*
X143030951Y-86868152D01*
X143030951Y-86868152D02*
X143126189Y-86915771D01*
X143126189Y-86915771D02*
X143173808Y-87011009D01*
X143173808Y-87011009D02*
X143173808Y-87534819D01*
X143554761Y-86868152D02*
X143792856Y-87534819D01*
X143792856Y-87534819D02*
X144030951Y-86868152D01*
X144792856Y-87487200D02*
X144697618Y-87534819D01*
X144697618Y-87534819D02*
X144507142Y-87534819D01*
X144507142Y-87534819D02*
X144411904Y-87487200D01*
X144411904Y-87487200D02*
X144364285Y-87391961D01*
X144364285Y-87391961D02*
X144364285Y-87011009D01*
X144364285Y-87011009D02*
X144411904Y-86915771D01*
X144411904Y-86915771D02*
X144507142Y-86868152D01*
X144507142Y-86868152D02*
X144697618Y-86868152D01*
X144697618Y-86868152D02*
X144792856Y-86915771D01*
X144792856Y-86915771D02*
X144840475Y-87011009D01*
X144840475Y-87011009D02*
X144840475Y-87106247D01*
X144840475Y-87106247D02*
X144364285Y-87201485D01*
X145269047Y-87534819D02*
X145269047Y-86868152D01*
X145269047Y-87058628D02*
X145316666Y-86963390D01*
X145316666Y-86963390D02*
X145364285Y-86915771D01*
X145364285Y-86915771D02*
X145459523Y-86868152D01*
X145459523Y-86868152D02*
X145554761Y-86868152D01*
X145745238Y-86868152D02*
X146126190Y-86868152D01*
X145888095Y-86534819D02*
X145888095Y-87391961D01*
X145888095Y-87391961D02*
X145935714Y-87487200D01*
X145935714Y-87487200D02*
X146030952Y-87534819D01*
X146030952Y-87534819D02*
X146126190Y-87534819D01*
X146840476Y-87487200D02*
X146745238Y-87534819D01*
X146745238Y-87534819D02*
X146554762Y-87534819D01*
X146554762Y-87534819D02*
X146459524Y-87487200D01*
X146459524Y-87487200D02*
X146411905Y-87391961D01*
X146411905Y-87391961D02*
X146411905Y-87011009D01*
X146411905Y-87011009D02*
X146459524Y-86915771D01*
X146459524Y-86915771D02*
X146554762Y-86868152D01*
X146554762Y-86868152D02*
X146745238Y-86868152D01*
X146745238Y-86868152D02*
X146840476Y-86915771D01*
X146840476Y-86915771D02*
X146888095Y-87011009D01*
X146888095Y-87011009D02*
X146888095Y-87106247D01*
X146888095Y-87106247D02*
X146411905Y-87201485D01*
X147316667Y-87534819D02*
X147316667Y-86868152D01*
X147316667Y-87058628D02*
X147364286Y-86963390D01*
X147364286Y-86963390D02*
X147411905Y-86915771D01*
X147411905Y-86915771D02*
X147507143Y-86868152D01*
X147507143Y-86868152D02*
X147602381Y-86868152D01*
X140602380Y-86034819D02*
X140126190Y-86034819D01*
X140126190Y-86034819D02*
X140126190Y-85034819D01*
X141078571Y-86034819D02*
X140983333Y-85987200D01*
X140983333Y-85987200D02*
X140935714Y-85939580D01*
X140935714Y-85939580D02*
X140888095Y-85844342D01*
X140888095Y-85844342D02*
X140888095Y-85558628D01*
X140888095Y-85558628D02*
X140935714Y-85463390D01*
X140935714Y-85463390D02*
X140983333Y-85415771D01*
X140983333Y-85415771D02*
X141078571Y-85368152D01*
X141078571Y-85368152D02*
X141221428Y-85368152D01*
X141221428Y-85368152D02*
X141316666Y-85415771D01*
X141316666Y-85415771D02*
X141364285Y-85463390D01*
X141364285Y-85463390D02*
X141411904Y-85558628D01*
X141411904Y-85558628D02*
X141411904Y-85844342D01*
X141411904Y-85844342D02*
X141364285Y-85939580D01*
X141364285Y-85939580D02*
X141316666Y-85987200D01*
X141316666Y-85987200D02*
X141221428Y-86034819D01*
X141221428Y-86034819D02*
X141078571Y-86034819D01*
X142269047Y-85368152D02*
X142269047Y-86177676D01*
X142269047Y-86177676D02*
X142221428Y-86272914D01*
X142221428Y-86272914D02*
X142173809Y-86320533D01*
X142173809Y-86320533D02*
X142078571Y-86368152D01*
X142078571Y-86368152D02*
X141935714Y-86368152D01*
X141935714Y-86368152D02*
X141840476Y-86320533D01*
X142269047Y-85987200D02*
X142173809Y-86034819D01*
X142173809Y-86034819D02*
X141983333Y-86034819D01*
X141983333Y-86034819D02*
X141888095Y-85987200D01*
X141888095Y-85987200D02*
X141840476Y-85939580D01*
X141840476Y-85939580D02*
X141792857Y-85844342D01*
X141792857Y-85844342D02*
X141792857Y-85558628D01*
X141792857Y-85558628D02*
X141840476Y-85463390D01*
X141840476Y-85463390D02*
X141888095Y-85415771D01*
X141888095Y-85415771D02*
X141983333Y-85368152D01*
X141983333Y-85368152D02*
X142173809Y-85368152D01*
X142173809Y-85368152D02*
X142269047Y-85415771D01*
X142745238Y-86034819D02*
X142745238Y-85368152D01*
X142745238Y-85034819D02*
X142697619Y-85082438D01*
X142697619Y-85082438D02*
X142745238Y-85130057D01*
X142745238Y-85130057D02*
X142792857Y-85082438D01*
X142792857Y-85082438D02*
X142745238Y-85034819D01*
X142745238Y-85034819D02*
X142745238Y-85130057D01*
X143649999Y-85987200D02*
X143554761Y-86034819D01*
X143554761Y-86034819D02*
X143364285Y-86034819D01*
X143364285Y-86034819D02*
X143269047Y-85987200D01*
X143269047Y-85987200D02*
X143221428Y-85939580D01*
X143221428Y-85939580D02*
X143173809Y-85844342D01*
X143173809Y-85844342D02*
X143173809Y-85558628D01*
X143173809Y-85558628D02*
X143221428Y-85463390D01*
X143221428Y-85463390D02*
X143269047Y-85415771D01*
X143269047Y-85415771D02*
X143364285Y-85368152D01*
X143364285Y-85368152D02*
X143554761Y-85368152D01*
X143554761Y-85368152D02*
X143649999Y-85415771D01*
X145316666Y-86034819D02*
X144840476Y-86034819D01*
X144840476Y-86034819D02*
X144840476Y-85034819D01*
X146030952Y-85987200D02*
X145935714Y-86034819D01*
X145935714Y-86034819D02*
X145745238Y-86034819D01*
X145745238Y-86034819D02*
X145650000Y-85987200D01*
X145650000Y-85987200D02*
X145602381Y-85891961D01*
X145602381Y-85891961D02*
X145602381Y-85511009D01*
X145602381Y-85511009D02*
X145650000Y-85415771D01*
X145650000Y-85415771D02*
X145745238Y-85368152D01*
X145745238Y-85368152D02*
X145935714Y-85368152D01*
X145935714Y-85368152D02*
X146030952Y-85415771D01*
X146030952Y-85415771D02*
X146078571Y-85511009D01*
X146078571Y-85511009D02*
X146078571Y-85606247D01*
X146078571Y-85606247D02*
X145602381Y-85701485D01*
X146411905Y-85368152D02*
X146650000Y-86034819D01*
X146650000Y-86034819D02*
X146888095Y-85368152D01*
X147650000Y-85987200D02*
X147554762Y-86034819D01*
X147554762Y-86034819D02*
X147364286Y-86034819D01*
X147364286Y-86034819D02*
X147269048Y-85987200D01*
X147269048Y-85987200D02*
X147221429Y-85891961D01*
X147221429Y-85891961D02*
X147221429Y-85511009D01*
X147221429Y-85511009D02*
X147269048Y-85415771D01*
X147269048Y-85415771D02*
X147364286Y-85368152D01*
X147364286Y-85368152D02*
X147554762Y-85368152D01*
X147554762Y-85368152D02*
X147650000Y-85415771D01*
X147650000Y-85415771D02*
X147697619Y-85511009D01*
X147697619Y-85511009D02*
X147697619Y-85606247D01*
X147697619Y-85606247D02*
X147221429Y-85701485D01*
X148269048Y-86034819D02*
X148173810Y-85987200D01*
X148173810Y-85987200D02*
X148126191Y-85891961D01*
X148126191Y-85891961D02*
X148126191Y-85034819D01*
X109904761Y-66350057D02*
X109809523Y-66302438D01*
X109809523Y-66302438D02*
X109714285Y-66207200D01*
X109714285Y-66207200D02*
X109571428Y-66064342D01*
X109571428Y-66064342D02*
X109476190Y-66016723D01*
X109476190Y-66016723D02*
X109380952Y-66016723D01*
X109428571Y-66254819D02*
X109333333Y-66207200D01*
X109333333Y-66207200D02*
X109238095Y-66111961D01*
X109238095Y-66111961D02*
X109190476Y-65921485D01*
X109190476Y-65921485D02*
X109190476Y-65588152D01*
X109190476Y-65588152D02*
X109238095Y-65397676D01*
X109238095Y-65397676D02*
X109333333Y-65302438D01*
X109333333Y-65302438D02*
X109428571Y-65254819D01*
X109428571Y-65254819D02*
X109619047Y-65254819D01*
X109619047Y-65254819D02*
X109714285Y-65302438D01*
X109714285Y-65302438D02*
X109809523Y-65397676D01*
X109809523Y-65397676D02*
X109857142Y-65588152D01*
X109857142Y-65588152D02*
X109857142Y-65921485D01*
X109857142Y-65921485D02*
X109809523Y-66111961D01*
X109809523Y-66111961D02*
X109714285Y-66207200D01*
X109714285Y-66207200D02*
X109619047Y-66254819D01*
X109619047Y-66254819D02*
X109428571Y-66254819D01*
X110238095Y-65350057D02*
X110285714Y-65302438D01*
X110285714Y-65302438D02*
X110380952Y-65254819D01*
X110380952Y-65254819D02*
X110619047Y-65254819D01*
X110619047Y-65254819D02*
X110714285Y-65302438D01*
X110714285Y-65302438D02*
X110761904Y-65350057D01*
X110761904Y-65350057D02*
X110809523Y-65445295D01*
X110809523Y-65445295D02*
X110809523Y-65540533D01*
X110809523Y-65540533D02*
X110761904Y-65683390D01*
X110761904Y-65683390D02*
X110190476Y-66254819D01*
X110190476Y-66254819D02*
X110809523Y-66254819D01*
X110043261Y-83558557D02*
X109948023Y-83510938D01*
X109948023Y-83510938D02*
X109852785Y-83415700D01*
X109852785Y-83415700D02*
X109709928Y-83272842D01*
X109709928Y-83272842D02*
X109614690Y-83225223D01*
X109614690Y-83225223D02*
X109519452Y-83225223D01*
X109567071Y-83463319D02*
X109471833Y-83415700D01*
X109471833Y-83415700D02*
X109376595Y-83320461D01*
X109376595Y-83320461D02*
X109328976Y-83129985D01*
X109328976Y-83129985D02*
X109328976Y-82796652D01*
X109328976Y-82796652D02*
X109376595Y-82606176D01*
X109376595Y-82606176D02*
X109471833Y-82510938D01*
X109471833Y-82510938D02*
X109567071Y-82463319D01*
X109567071Y-82463319D02*
X109757547Y-82463319D01*
X109757547Y-82463319D02*
X109852785Y-82510938D01*
X109852785Y-82510938D02*
X109948023Y-82606176D01*
X109948023Y-82606176D02*
X109995642Y-82796652D01*
X109995642Y-82796652D02*
X109995642Y-83129985D01*
X109995642Y-83129985D02*
X109948023Y-83320461D01*
X109948023Y-83320461D02*
X109852785Y-83415700D01*
X109852785Y-83415700D02*
X109757547Y-83463319D01*
X109757547Y-83463319D02*
X109567071Y-83463319D01*
X110852785Y-82796652D02*
X110852785Y-83463319D01*
X110614690Y-82415700D02*
X110376595Y-83129985D01*
X110376595Y-83129985D02*
X110995642Y-83129985D01*
X109904761Y-82250057D02*
X109809523Y-82202438D01*
X109809523Y-82202438D02*
X109714285Y-82107200D01*
X109714285Y-82107200D02*
X109571428Y-81964342D01*
X109571428Y-81964342D02*
X109476190Y-81916723D01*
X109476190Y-81916723D02*
X109380952Y-81916723D01*
X109428571Y-82154819D02*
X109333333Y-82107200D01*
X109333333Y-82107200D02*
X109238095Y-82011961D01*
X109238095Y-82011961D02*
X109190476Y-81821485D01*
X109190476Y-81821485D02*
X109190476Y-81488152D01*
X109190476Y-81488152D02*
X109238095Y-81297676D01*
X109238095Y-81297676D02*
X109333333Y-81202438D01*
X109333333Y-81202438D02*
X109428571Y-81154819D01*
X109428571Y-81154819D02*
X109619047Y-81154819D01*
X109619047Y-81154819D02*
X109714285Y-81202438D01*
X109714285Y-81202438D02*
X109809523Y-81297676D01*
X109809523Y-81297676D02*
X109857142Y-81488152D01*
X109857142Y-81488152D02*
X109857142Y-81821485D01*
X109857142Y-81821485D02*
X109809523Y-82011961D01*
X109809523Y-82011961D02*
X109714285Y-82107200D01*
X109714285Y-82107200D02*
X109619047Y-82154819D01*
X109619047Y-82154819D02*
X109428571Y-82154819D01*
X110190476Y-81154819D02*
X110809523Y-81154819D01*
X110809523Y-81154819D02*
X110476190Y-81535771D01*
X110476190Y-81535771D02*
X110619047Y-81535771D01*
X110619047Y-81535771D02*
X110714285Y-81583390D01*
X110714285Y-81583390D02*
X110761904Y-81631009D01*
X110761904Y-81631009D02*
X110809523Y-81726247D01*
X110809523Y-81726247D02*
X110809523Y-81964342D01*
X110809523Y-81964342D02*
X110761904Y-82059580D01*
X110761904Y-82059580D02*
X110714285Y-82107200D01*
X110714285Y-82107200D02*
X110619047Y-82154819D01*
X110619047Y-82154819D02*
X110333333Y-82154819D01*
X110333333Y-82154819D02*
X110238095Y-82107200D01*
X110238095Y-82107200D02*
X110190476Y-82059580D01*
D10*
%TO.C,U1*%
X133640000Y-68970000D02*
X133640000Y-53730000D01*
X133640000Y-53730000D02*
X132370000Y-52460000D01*
X109510000Y-68970000D02*
X133640000Y-68970000D01*
X109510000Y-68970000D02*
X109510000Y-61350000D01*
X109510000Y-68970000D02*
X108240000Y-67700000D01*
X109510000Y-61350000D02*
X106970000Y-58810000D01*
X108240000Y-67700000D02*
X108240000Y-60080000D01*
X106970000Y-58810000D02*
X105700000Y-57540000D01*
X106970000Y-53730000D02*
X133640000Y-53730000D01*
X106970000Y-53730000D02*
X106970000Y-58810000D01*
X105700000Y-57540000D02*
X105700000Y-52460000D01*
X105700000Y-52460000D02*
X106970000Y-53730000D01*
D12*
X170470000Y-93100000D02*
X90460000Y-93100000D01*
X90460000Y-52460000D01*
X170470000Y-52460000D01*
X170470000Y-93100000D01*
X161580000Y-93100000D02*
X98080000Y-93100000D01*
X98080000Y-52460000D01*
X161580000Y-52460000D01*
X161580000Y-93100000D01*
D13*
%TO.C,R1*%
X117960000Y-68230000D02*
X117960000Y-69500000D01*
X117960000Y-69500000D02*
X116690000Y-69500000D01*
X117960000Y-69500000D02*
X117960000Y-70770000D01*
X117960000Y-70770000D02*
X123040000Y-70770000D01*
X123040000Y-68230000D02*
X117960000Y-68230000D01*
X123040000Y-69500000D02*
X123040000Y-68230000D01*
X123040000Y-69500000D02*
X124310000Y-69500000D01*
X123040000Y-70770000D02*
X123040000Y-69500000D01*
D14*
%TO.C,Q1*%
X111800000Y-59150000D02*
X108200000Y-59150000D01*
X110000000Y-63600000D02*
G75*
G02*
X108161522Y-59161522I0J2600000D01*
G01*
X111838478Y-59161522D02*
G75*
G02*
X110000000Y-63600001I-1838478J-1838478D01*
G01*
D13*
%TO.C,R2*%
X117960000Y-85230000D02*
X117960000Y-86500000D01*
X117960000Y-86500000D02*
X116690000Y-86500000D01*
X117960000Y-86500000D02*
X117960000Y-87770000D01*
X117960000Y-87770000D02*
X123040000Y-87770000D01*
X123040000Y-85230000D02*
X117960000Y-85230000D01*
X123040000Y-86500000D02*
X123040000Y-85230000D01*
X123040000Y-86500000D02*
X124310000Y-86500000D01*
X123040000Y-87770000D02*
X123040000Y-86500000D01*
%TO.C,R5*%
X111460000Y-91230000D02*
X111460000Y-92500000D01*
X111460000Y-92500000D02*
X110190000Y-92500000D01*
X111460000Y-92500000D02*
X111460000Y-93770000D01*
X111460000Y-93770000D02*
X116540000Y-93770000D01*
X116540000Y-91230000D02*
X111460000Y-91230000D01*
X116540000Y-92500000D02*
X116540000Y-91230000D01*
X116540000Y-92500000D02*
X117810000Y-92500000D01*
X116540000Y-93770000D02*
X116540000Y-92500000D01*
%TO.C,LogicConverter1*%
X136530000Y-80730000D02*
X136530000Y-93430000D01*
X136530000Y-93430000D02*
X151770000Y-93430000D01*
X151770000Y-80730000D02*
X136530000Y-80730000D01*
X151770000Y-93430000D02*
X151770000Y-80730000D01*
%TO.C,R6*%
X111460000Y-53730000D02*
X111460000Y-55000000D01*
X111460000Y-55000000D02*
X110190000Y-55000000D01*
X111460000Y-55000000D02*
X111460000Y-56270000D01*
X111460000Y-56270000D02*
X116540000Y-56270000D01*
X116540000Y-53730000D02*
X111460000Y-53730000D01*
X116540000Y-55000000D02*
X116540000Y-53730000D01*
X116540000Y-55000000D02*
X117810000Y-55000000D01*
X116540000Y-56270000D02*
X116540000Y-55000000D01*
D14*
%TO.C,Q2*%
X108200000Y-71210000D02*
X111800000Y-71210000D01*
X108161522Y-71198478D02*
G75*
G02*
X110000000Y-66759999I1838478J1838478D01*
G01*
X110000000Y-66760000D02*
G75*
G02*
X111838478Y-71198478I0J-2600000D01*
G01*
D13*
%TO.C,R4*%
X115960000Y-59730000D02*
X115960000Y-61000000D01*
X115960000Y-61000000D02*
X114690000Y-61000000D01*
X115960000Y-61000000D02*
X115960000Y-62270000D01*
X115960000Y-62270000D02*
X121040000Y-62270000D01*
X121040000Y-59730000D02*
X115960000Y-59730000D01*
X121040000Y-61000000D02*
X121040000Y-59730000D01*
X121040000Y-61000000D02*
X122310000Y-61000000D01*
X121040000Y-62270000D02*
X121040000Y-61000000D01*
%TO.C,1*%
X137650000Y-53190000D02*
X137650000Y-58270000D01*
X137650000Y-58270000D02*
X150350000Y-58270000D01*
X142730000Y-51920000D02*
X142730000Y-53190000D01*
X142730000Y-53190000D02*
X137650000Y-53190000D01*
X145270000Y-51920000D02*
X142730000Y-51920000D01*
X145270000Y-53190000D02*
X145270000Y-51920000D01*
X150350000Y-53190000D02*
X145270000Y-53190000D01*
X150350000Y-58270000D02*
X150350000Y-53190000D01*
D14*
%TO.C,Q4*%
X108200000Y-88350000D02*
X111800000Y-88350000D01*
X108161522Y-88338478D02*
G75*
G02*
X110000000Y-83899999I1838478J1838478D01*
G01*
X110000000Y-83900000D02*
G75*
G02*
X111838478Y-88338478I0J-2600000D01*
G01*
D13*
%TO.C,R3*%
X115960000Y-76730000D02*
X115960000Y-78000000D01*
X115960000Y-78000000D02*
X114690000Y-78000000D01*
X115960000Y-78000000D02*
X115960000Y-79270000D01*
X115960000Y-79270000D02*
X121040000Y-79270000D01*
X121040000Y-76730000D02*
X115960000Y-76730000D01*
X121040000Y-78000000D02*
X121040000Y-76730000D01*
X121040000Y-78000000D02*
X122310000Y-78000000D01*
X121040000Y-79270000D02*
X121040000Y-78000000D01*
D14*
%TO.C,Q3*%
X111800000Y-76290000D02*
X108200000Y-76290000D01*
X110000000Y-80740000D02*
G75*
G02*
X108161522Y-76301522I0J2600000D01*
G01*
X111838478Y-76301522D02*
G75*
G02*
X110000000Y-80740001I-1838478J-1838478D01*
G01*
%TD*%
%LPC*%
D15*
%TO.C,U1*%
X165390000Y-55000000D03*
X164120000Y-90560000D03*
X93000000Y-90560000D03*
X93000000Y-55000000D03*
D16*
X169200000Y-56270000D03*
D17*
X169200000Y-58810000D03*
X169200000Y-61350000D03*
X169200000Y-63890000D03*
X169200000Y-66430000D03*
X169200000Y-68970000D03*
X169200000Y-71510000D03*
X169200000Y-74050000D03*
X169200000Y-76590000D03*
X169200000Y-79130000D03*
X169200000Y-81670000D03*
X169200000Y-84210000D03*
X169200000Y-86750000D03*
X169200000Y-89290000D03*
D16*
X93000000Y-68970000D03*
D17*
X93000000Y-71510000D03*
X93000000Y-74050000D03*
X93000000Y-76590000D03*
%TD*%
D18*
%TO.C,R1*%
X116690000Y-69500000D03*
X124310000Y-69500000D03*
%TD*%
D19*
%TO.C,Q1*%
X111270000Y-61000000D03*
D20*
X110000000Y-61000000D03*
X108730000Y-61000000D03*
%TD*%
D18*
%TO.C,R2*%
X116690000Y-86500000D03*
X124310000Y-86500000D03*
%TD*%
%TO.C,R5*%
X110190000Y-92500000D03*
X117810000Y-92500000D03*
%TD*%
%TO.C,LogicConverter1*%
X145420000Y-82000000D03*
X145420000Y-92160000D03*
X142880000Y-82000000D03*
D21*
X137800000Y-82000000D03*
D18*
X140340000Y-82000000D03*
X147960000Y-82000000D03*
X150500000Y-82000000D03*
X142880000Y-92160000D03*
X137800000Y-92160000D03*
X140340000Y-92160000D03*
X147960000Y-92160000D03*
X150500000Y-92160000D03*
%TD*%
%TO.C,R6*%
X110190000Y-55000000D03*
X117810000Y-55000000D03*
%TD*%
D19*
%TO.C,Q2*%
X108730000Y-69360000D03*
D20*
X110000000Y-69360000D03*
X111270000Y-69360000D03*
%TD*%
D18*
%TO.C,R4*%
X114690000Y-61000000D03*
X122310000Y-61000000D03*
%TD*%
D22*
%TO.C,1*%
X149080000Y-57000000D03*
D18*
X146540000Y-57000000D03*
X144000000Y-57000000D03*
X138920000Y-54460000D03*
X138920000Y-57000000D03*
X141460000Y-57000000D03*
X141460000Y-54460000D03*
X149080000Y-54460000D03*
X144000000Y-54460000D03*
X146540000Y-54460000D03*
%TD*%
D19*
%TO.C,Q4*%
X108730000Y-86500000D03*
D20*
X110000000Y-86500000D03*
X111270000Y-86500000D03*
%TD*%
D18*
%TO.C,R3*%
X114690000Y-78000000D03*
X122310000Y-78000000D03*
%TD*%
D19*
%TO.C,Q3*%
X111270000Y-78140000D03*
D20*
X110000000Y-78140000D03*
X108730000Y-78140000D03*
%TD*%
%LPD*%
M02*
