%TF.GenerationSoftware,KiCad,Pcbnew,8.0.3*%
%TF.CreationDate,2024-06-27T19:26:25-06:00*%
%TF.ProjectId,Subsystem SPI Breakout v2,53756273-7973-4746-956d-205350492042,rev?*%
%TF.SameCoordinates,Original*%
%TF.FileFunction,Copper,L1,Top*%
%TF.FilePolarity,Positive*%
%FSLAX46Y46*%
G04 Gerber Fmt 4.6, Leading zero omitted, Abs format (unit mm)*
G04 Created by KiCad (PCBNEW 8.0.3) date 2024-06-27 19:26:25*
%MOMM*%
%LPD*%
G01*
G04 APERTURE LIST*
%TA.AperFunction,ComponentPad*%
%ADD10R,1.524000X1.524000*%
%TD*%
%TA.AperFunction,ComponentPad*%
%ADD11C,1.524000*%
%TD*%
%TA.AperFunction,ComponentPad*%
%ADD12C,1.778000*%
%TD*%
%TA.AperFunction,ComponentPad*%
%ADD13R,1.050000X1.500000*%
%TD*%
%TA.AperFunction,ComponentPad*%
%ADD14O,1.050000X1.500000*%
%TD*%
%TA.AperFunction,ComponentPad*%
%ADD15R,1.778000X1.778000*%
%TD*%
G04 APERTURE END LIST*
D10*
%TO.P,U1,1,Vcc*%
%TO.N,Net-(U1-Vcc)*%
X169200000Y-56270000D03*
D11*
%TO.P,U1,2,GND*%
%TO.N,Net-(U1-GND)*%
X169200000Y-58810000D03*
%TO.P,U1,3,CS*%
%TO.N,unconnected-(U1-CS-Pad3)*%
X169200000Y-61350000D03*
%TO.P,U1,4,RESET*%
%TO.N,unconnected-(U1-RESET-Pad4)*%
X169200000Y-63890000D03*
%TO.P,U1,5,DC*%
%TO.N,unconnected-(U1-DC-Pad5)*%
X169200000Y-66430000D03*
%TO.P,U1,6,SDI(MOSI)*%
%TO.N,unconnected-(U1-SDI(MOSI)-Pad6)*%
X169200000Y-68970000D03*
%TO.P,U1,7,SCK*%
%TO.N,unconnected-(U1-SCK-Pad7)*%
X169200000Y-71510000D03*
%TO.P,U1,8,LED*%
%TO.N,unconnected-(U1-LED-Pad8)*%
X169200000Y-74050000D03*
%TO.P,U1,9,SDO(MISO)*%
%TO.N,unconnected-(U1-SDO(MISO)-Pad9)*%
X169200000Y-76590000D03*
%TO.P,U1,10,T_CLK*%
%TO.N,unconnected-(U1-T_CLK-Pad10)*%
X169200000Y-79130000D03*
%TO.P,U1,11,T_CS*%
%TO.N,unconnected-(U1-T_CS-Pad11)*%
X169200000Y-81670000D03*
%TO.P,U1,12,T_DIN*%
%TO.N,unconnected-(U1-T_DIN-Pad12)*%
X169200000Y-84210000D03*
%TO.P,U1,13,T_DO*%
%TO.N,unconnected-(U1-T_DO-Pad13)*%
X169200000Y-86750000D03*
%TO.P,U1,14,T_IRQ*%
%TO.N,unconnected-(U1-T_IRQ-Pad14)*%
X169200000Y-89290000D03*
D10*
%TO.P,U1,15,SD_CS*%
%TO.N,unconnected-(U1-SD_CS-Pad15)*%
X93000000Y-68970000D03*
D11*
%TO.P,U1,16,SD_MOSI*%
%TO.N,unconnected-(U1-SD_MOSI-Pad16)*%
X93000000Y-71510000D03*
%TO.P,U1,17,SD_MISO*%
%TO.N,unconnected-(U1-SD_MISO-Pad17)*%
X93000000Y-74050000D03*
%TO.P,U1,18,SD_SCK*%
%TO.N,unconnected-(U1-SD_SCK-Pad18)*%
X93000000Y-76590000D03*
%TD*%
D12*
%TO.P,R1,P$1,P$1*%
%TO.N,Net-(Q2-C)*%
X116690000Y-69500000D03*
%TO.P,R1,P$2,P$2*%
%TO.N,Net-(U1-Vcc)*%
X124310000Y-69500000D03*
%TD*%
D13*
%TO.P,Q1,1,E*%
%TO.N,Net-(Q1-E)*%
X111270000Y-61000000D03*
D14*
%TO.P,Q1,2,B*%
%TO.N,Net-(Q1-B)*%
X110000000Y-61000000D03*
%TO.P,Q1,3,C*%
%TO.N,Net-(Q1-C)*%
X108730000Y-61000000D03*
%TD*%
D12*
%TO.P,R2,P$1,P$1*%
%TO.N,Net-(Q4-C)*%
X116690000Y-86500000D03*
%TO.P,R2,P$2,P$2*%
%TO.N,Net-(U1-Vcc)*%
X124310000Y-86500000D03*
%TD*%
%TO.P,R5,P$1,P$1*%
%TO.N,Net-(Q3-B)*%
X110190000Y-92500000D03*
%TO.P,R5,P$2,P$2*%
%TO.N,Net-(U1-GND)*%
X117810000Y-92500000D03*
%TD*%
%TO.P,LogicConverter1,GND1,GND1*%
%TO.N,Net-(U1-GND)*%
X145420000Y-82000000D03*
%TO.P,LogicConverter1,GND2,GND2*%
X145420000Y-92160000D03*
%TO.P,LogicConverter1,HV,HV*%
%TO.N,Net-(1-Pad5V)*%
X142880000Y-82000000D03*
D15*
%TO.P,LogicConverter1,HV1,HV1*%
%TO.N,Net-(1-PadTFT_DC)*%
X137800000Y-82000000D03*
D12*
%TO.P,LogicConverter1,HV2,HV2*%
%TO.N,Net-(1-PadMISO)*%
X140340000Y-82000000D03*
%TO.P,LogicConverter1,HV3,HV3*%
%TO.N,Net-(1-PadMOSI)*%
X147960000Y-82000000D03*
%TO.P,LogicConverter1,HV4,HV4*%
%TO.N,Net-(1-PadSCK)*%
X150500000Y-82000000D03*
%TO.P,LogicConverter1,LV,LV*%
%TO.N,Net-(U1-Vcc)*%
X142880000Y-92160000D03*
%TO.P,LogicConverter1,LV1,LV1*%
%TO.N,unconnected-(LogicConverter1-PadLV1)*%
X137800000Y-92160000D03*
%TO.P,LogicConverter1,LV2,LV2*%
%TO.N,unconnected-(LogicConverter1-PadLV2)*%
X140340000Y-92160000D03*
%TO.P,LogicConverter1,LV3,LV3*%
%TO.N,unconnected-(LogicConverter1-PadLV3)*%
X147960000Y-92160000D03*
%TO.P,LogicConverter1,LV4,LV4*%
%TO.N,unconnected-(LogicConverter1-PadLV4)*%
X150500000Y-92160000D03*
%TD*%
%TO.P,R6,P$1,P$1*%
%TO.N,Net-(Q1-B)*%
X110190000Y-55000000D03*
%TO.P,R6,P$2,P$2*%
%TO.N,Net-(U1-GND)*%
X117810000Y-55000000D03*
%TD*%
D13*
%TO.P,Q2,1,E*%
%TO.N,Net-(Q1-C)*%
X108730000Y-69360000D03*
D14*
%TO.P,Q2,2,B*%
%TO.N,Net-(Q1-B)*%
X110000000Y-69360000D03*
%TO.P,Q2,3,C*%
%TO.N,Net-(Q2-C)*%
X111270000Y-69360000D03*
%TD*%
D12*
%TO.P,R4,P$1,P$1*%
%TO.N,Net-(Q1-E)*%
X114690000Y-61000000D03*
%TO.P,R4,P$2,P$2*%
%TO.N,Net-(U1-GND)*%
X122310000Y-61000000D03*
%TD*%
D15*
%TO.P,1,3V3,3V3*%
%TO.N,Net-(U1-Vcc)*%
X149080000Y-57000000D03*
D12*
%TO.P,1,5V,5V*%
%TO.N,Net-(1-Pad5V)*%
X146540000Y-57000000D03*
%TO.P,1,GND,GND*%
%TO.N,Net-(U1-GND)*%
X144000000Y-57000000D03*
%TO.P,1,MISO,MISO*%
%TO.N,Net-(1-PadMISO)*%
X138920000Y-54460000D03*
%TO.P,1,MOSI,MOSI*%
%TO.N,Net-(1-PadMOSI)*%
X138920000Y-57000000D03*
%TO.P,1,SCK,SCK*%
%TO.N,Net-(1-PadSCK)*%
X141460000Y-57000000D03*
%TO.P,1,SD_CS,SD_CS*%
%TO.N,Net-(Q3-B)*%
X141460000Y-54460000D03*
%TO.P,1,SPKR,SPKR*%
%TO.N,unconnected-(1-PadSPKR)*%
X149080000Y-54460000D03*
%TO.P,1,TFT_CS,TFT_CS*%
%TO.N,Net-(Q1-B)*%
X144000000Y-54460000D03*
%TO.P,1,TFT_DC,TFT_DC*%
%TO.N,Net-(1-PadTFT_DC)*%
X146540000Y-54460000D03*
%TD*%
D13*
%TO.P,Q4,1,E*%
%TO.N,Net-(Q3-C)*%
X108730000Y-86500000D03*
D14*
%TO.P,Q4,2,B*%
%TO.N,Net-(Q3-B)*%
X110000000Y-86500000D03*
%TO.P,Q4,3,C*%
%TO.N,Net-(Q4-C)*%
X111270000Y-86500000D03*
%TD*%
D12*
%TO.P,R3,P$1,P$1*%
%TO.N,Net-(Q3-E)*%
X114690000Y-78000000D03*
%TO.P,R3,P$2,P$2*%
%TO.N,Net-(U1-GND)*%
X122310000Y-78000000D03*
%TD*%
D13*
%TO.P,Q3,1,E*%
%TO.N,Net-(Q3-E)*%
X111270000Y-78140000D03*
D14*
%TO.P,Q3,2,B*%
%TO.N,Net-(Q3-B)*%
X110000000Y-78140000D03*
%TO.P,Q3,3,C*%
%TO.N,Net-(Q3-C)*%
X108730000Y-78140000D03*
%TD*%
M02*
