%TF.GenerationSoftware,KiCad,Pcbnew,8.0.6*%
%TF.CreationDate,2025-05-19T18:36:41-06:00*%
%TF.ProjectId,Subsystem SPI Breakout v4,53756273-7973-4746-956d-205350492042,rev?*%
%TF.SameCoordinates,Original*%
%TF.FileFunction,Soldermask,Top*%
%TF.FilePolarity,Negative*%
%FSLAX46Y46*%
G04 Gerber Fmt 4.6, Leading zero omitted, Abs format (unit mm)*
G04 Created by KiCad (PCBNEW 8.0.6) date 2025-05-19 18:36:41*
%MOMM*%
%LPD*%
G01*
G04 APERTURE LIST*
G04 Aperture macros list*
%AMRoundRect*
0 Rectangle with rounded corners*
0 $1 Rounding radius*
0 $2 $3 $4 $5 $6 $7 $8 $9 X,Y pos of 4 corners*
0 Add a 4 corners polygon primitive as box body*
4,1,4,$2,$3,$4,$5,$6,$7,$8,$9,$2,$3,0*
0 Add four circle primitives for the rounded corners*
1,1,$1+$1,$2,$3*
1,1,$1+$1,$4,$5*
1,1,$1+$1,$6,$7*
1,1,$1+$1,$8,$9*
0 Add four rect primitives between the rounded corners*
20,1,$1+$1,$2,$3,$4,$5,0*
20,1,$1+$1,$4,$5,$6,$7,0*
20,1,$1+$1,$6,$7,$8,$9,0*
20,1,$1+$1,$8,$9,$2,$3,0*%
G04 Aperture macros list end*
%ADD10C,1.982000*%
%ADD11C,1.524000*%
%ADD12R,1.500000X1.050000*%
%ADD13O,1.500000X1.050000*%
%ADD14C,1.905000*%
%ADD15R,3.000000X3.000000*%
%ADD16C,3.000000*%
%ADD17RoundRect,0.102000X0.889000X0.889000X-0.889000X0.889000X-0.889000X-0.889000X0.889000X-0.889000X0*%
%ADD18C,2.794000*%
%ADD19C,1.700000*%
G04 APERTURE END LIST*
D10*
%TO.C,R5*%
X120600000Y-78740000D03*
X120600000Y-71120000D03*
%TD*%
%TO.C,R9*%
X172720000Y-99060000D03*
X180340000Y-99060000D03*
%TD*%
D11*
%TO.C,Brightness Adjust1*%
X182880000Y-99060000D03*
X193040000Y-96520000D03*
X193040000Y-101600000D03*
%TD*%
D10*
%TO.C,R16*%
X134620000Y-111760000D03*
X134620000Y-119380000D03*
%TD*%
%TO.C,R10*%
X148590000Y-78740000D03*
X148590000Y-71120000D03*
%TD*%
D12*
%TO.C,CS_SD1*%
X139700000Y-71120000D03*
D13*
X139700000Y-72390000D03*
X139700000Y-73660000D03*
%TD*%
D12*
%TO.C,DC1*%
X170180000Y-71120000D03*
D13*
X170180000Y-72390000D03*
X170180000Y-73660000D03*
%TD*%
D10*
%TO.C,R1*%
X181610000Y-110490000D03*
X181610000Y-118110000D03*
%TD*%
%TO.C,R17*%
X129540000Y-104140000D03*
X129540000Y-111760000D03*
%TD*%
%TO.C,R14*%
X132080000Y-78740000D03*
X132080000Y-71120000D03*
%TD*%
%TO.C,R11*%
X154940000Y-85090000D03*
X154940000Y-77470000D03*
%TD*%
D12*
%TO.C,RESET1*%
X146050000Y-118110000D03*
D13*
X146050000Y-116840000D03*
X146050000Y-115570000D03*
%TD*%
D10*
%TO.C,R6*%
X124460000Y-85090000D03*
X124460000Y-77470000D03*
%TD*%
D12*
%TO.C,MISO1*%
X124460000Y-71120000D03*
D13*
X124460000Y-72390000D03*
X124460000Y-73660000D03*
%TD*%
D14*
%TO.C,U1*%
X186800000Y-109000000D03*
%TD*%
D15*
%TO.C,LS1*%
X122600000Y-109800000D03*
D16*
X117520000Y-109800000D03*
%TD*%
D10*
%TO.C,R15*%
X139700000Y-85090000D03*
X139700000Y-77470000D03*
%TD*%
D17*
%TO.C,C1*%
X154940000Y-96520000D03*
D10*
X152400000Y-96520000D03*
X149860000Y-96520000D03*
X144780000Y-93980000D03*
X144780000Y-96520000D03*
X142240000Y-96520000D03*
X147320000Y-96520000D03*
X147320000Y-93980000D03*
X154940000Y-93980000D03*
X149860000Y-93980000D03*
X152400000Y-93980000D03*
X142240000Y-93980000D03*
%TD*%
D12*
%TO.C,MOSI1*%
X161290000Y-118110000D03*
D13*
X161290000Y-116840000D03*
X161290000Y-115570000D03*
%TD*%
D10*
%TO.C,R12*%
X163830000Y-80010000D03*
X163830000Y-72390000D03*
%TD*%
%TO.C,R2*%
X176530000Y-104140000D03*
X176530000Y-111760000D03*
%TD*%
D12*
%TO.C,Amplifying Transistor1*%
X119380000Y-101540000D03*
D13*
X119380000Y-102810000D03*
X119380000Y-104080000D03*
%TD*%
D10*
%TO.C,R7*%
X119000000Y-90390000D03*
X119000000Y-98010000D03*
%TD*%
%TO.C,R13*%
X170180000Y-85090000D03*
X170180000Y-77470000D03*
%TD*%
%TO.C,R19*%
X146050000Y-104140000D03*
X146050000Y-111760000D03*
%TD*%
D12*
%TO.C,CS_TFT1*%
X154940000Y-71120000D03*
D13*
X154940000Y-72390000D03*
X154940000Y-73660000D03*
%TD*%
D12*
%TO.C,SCK1*%
X176530000Y-118110000D03*
D13*
X176530000Y-116840000D03*
X176530000Y-115570000D03*
%TD*%
D10*
%TO.C,R3*%
X166370000Y-110490000D03*
X166370000Y-118110000D03*
%TD*%
%TO.C,R18*%
X151130000Y-110490000D03*
X151130000Y-118110000D03*
%TD*%
%TO.C,R8*%
X125730000Y-105410000D03*
X125730000Y-97790000D03*
%TD*%
%TO.C,R4*%
X161290000Y-104140000D03*
X161290000Y-111760000D03*
%TD*%
D16*
%TO.C,U2*%
X191060000Y-116840000D03*
X191060000Y-73660000D03*
D18*
X114860000Y-116840000D03*
X114860000Y-73660000D03*
D19*
X196140000Y-83820000D03*
X196140000Y-88900000D03*
X196140000Y-81280000D03*
X196140000Y-96520000D03*
X196140000Y-86360000D03*
X196140000Y-93980000D03*
X196140000Y-91440000D03*
X196140000Y-99060000D03*
X115030000Y-91440000D03*
X115030000Y-96520000D03*
X115030000Y-93980000D03*
X115030000Y-99060000D03*
X196140000Y-101600000D03*
X196140000Y-104140000D03*
X196140000Y-106680000D03*
X196140000Y-109220000D03*
X196140000Y-111760000D03*
X196140000Y-78740000D03*
%TD*%
D12*
%TO.C,CS_Touch1*%
X129540000Y-118110000D03*
D13*
X129540000Y-116840000D03*
X129540000Y-115570000D03*
%TD*%
M02*
