%TF.GenerationSoftware,KiCad,Pcbnew,8.0.6*%
%TF.CreationDate,2025-05-19T18:35:20-06:00*%
%TF.ProjectId,main V5,6d61696e-2056-4352-9e6b-696361645f70,rev?*%
%TF.SameCoordinates,Original*%
%TF.FileFunction,Soldermask,Bot*%
%TF.FilePolarity,Negative*%
%FSLAX46Y46*%
G04 Gerber Fmt 4.6, Leading zero omitted, Abs format (unit mm)*
G04 Created by KiCad (PCBNEW 8.0.6) date 2025-05-19 18:35:20*
%MOMM*%
%LPD*%
G01*
G04 APERTURE LIST*
G04 Aperture macros list*
%AMRoundRect*
0 Rectangle with rounded corners*
0 $1 Rounding radius*
0 $2 $3 $4 $5 $6 $7 $8 $9 X,Y pos of 4 corners*
0 Add a 4 corners polygon primitive as box body*
4,1,4,$2,$3,$4,$5,$6,$7,$8,$9,$2,$3,0*
0 Add four circle primitives for the rounded corners*
1,1,$1+$1,$2,$3*
1,1,$1+$1,$4,$5*
1,1,$1+$1,$6,$7*
1,1,$1+$1,$8,$9*
0 Add four rect primitives between the rounded corners*
20,1,$1+$1,$2,$3,$4,$5,0*
20,1,$1+$1,$4,$5,$6,$7,0*
20,1,$1+$1,$6,$7,$8,$9,0*
20,1,$1+$1,$8,$9,$2,$3,0*%
%AMFreePoly0*
4,1,25,0.427955,0.971196,0.440078,0.960842,0.960842,0.440078,0.989349,0.384130,0.990600,0.368236,0.990600,-0.368236,0.971196,-0.427955,0.960842,-0.440078,0.440078,-0.960842,0.384130,-0.989349,0.368236,-0.990600,-0.368236,-0.990600,-0.427955,-0.971196,-0.440078,-0.960842,-0.960842,-0.440078,-0.989349,-0.384130,-0.990600,-0.368236,-0.990600,0.368236,-0.971196,0.427955,-0.960842,0.440078,
-0.440078,0.960842,-0.384130,0.989349,-0.368236,0.990600,0.368236,0.990600,0.427955,0.971196,0.427955,0.971196,$1*%
G04 Aperture macros list end*
%ADD10C,0.100000*%
%ADD11C,1.400000*%
%ADD12O,1.400000X1.400000*%
%ADD13RoundRect,0.101600X-0.889000X-0.889000X0.889000X-0.889000X0.889000X0.889000X-0.889000X0.889000X0*%
%ADD14FreePoly0,0.000000*%
%ADD15R,3.500000X3.500000*%
%ADD16RoundRect,0.750000X-1.000000X0.750000X-1.000000X-0.750000X1.000000X-0.750000X1.000000X0.750000X0*%
%ADD17RoundRect,0.875000X-0.875000X0.875000X-0.875000X-0.875000X0.875000X-0.875000X0.875000X0.875000X0*%
%ADD18RoundRect,0.250000X-0.750000X0.600000X-0.750000X-0.600000X0.750000X-0.600000X0.750000X0.600000X0*%
%ADD19O,2.000000X1.700000*%
%ADD20C,3.200000*%
%ADD21RoundRect,0.250000X-0.600000X-0.750000X0.600000X-0.750000X0.600000X0.750000X-0.600000X0.750000X0*%
%ADD22O,1.700000X2.000000*%
%ADD23RoundRect,0.250000X0.600000X0.750000X-0.600000X0.750000X-0.600000X-0.750000X0.600000X-0.750000X0*%
%ADD24FreePoly0,90.000000*%
%ADD25RoundRect,0.101600X0.889000X-0.889000X0.889000X0.889000X-0.889000X0.889000X-0.889000X-0.889000X0*%
%ADD26R,2.400000X2.400000*%
%ADD27O,2.400000X2.400000*%
%ADD28RoundRect,0.102000X-0.889000X-0.889000X0.889000X-0.889000X0.889000X0.889000X-0.889000X0.889000X0*%
%ADD29C,1.982000*%
%ADD30R,1.500000X1.050000*%
%ADD31O,1.500000X1.050000*%
%ADD32R,3.000000X3.000000*%
%ADD33C,3.000000*%
%ADD34FreePoly0,180.000000*%
%ADD35RoundRect,0.101600X0.889000X0.889000X-0.889000X0.889000X-0.889000X-0.889000X0.889000X-0.889000X0*%
%ADD36C,1.905000*%
%ADD37R,1.600000X1.600000*%
%ADD38C,1.600000*%
%ADD39R,1.778000X1.524000*%
%ADD40C,1.778000*%
%ADD41C,1.981200*%
G04 APERTURE END LIST*
D10*
X187000000Y-81400000D02*
X188600000Y-81400000D01*
X188600000Y-83800000D01*
X187000000Y-83800000D01*
X187000000Y-81400000D01*
G36*
X187000000Y-81400000D02*
G01*
X188600000Y-81400000D01*
X188600000Y-83800000D01*
X187000000Y-83800000D01*
X187000000Y-81400000D01*
G37*
D11*
%TO.C,R7*%
X164200000Y-71000000D03*
D12*
X171820000Y-71000000D03*
%TD*%
D13*
%TO.C,U$2*%
X184960000Y-125000000D03*
D14*
X187500000Y-125000000D03*
X190040000Y-125000000D03*
X192580000Y-125000000D03*
%TD*%
D11*
%TO.C,Neopixel Resistor1*%
X95600000Y-119990000D03*
D12*
X95600000Y-127610000D03*
%TD*%
D15*
%TO.C,J1*%
X82500000Y-53500000D03*
D16*
X82500000Y-47500000D03*
D17*
X77800000Y-50500000D03*
%TD*%
D18*
%TO.C,SW6*%
X137500000Y-157500000D03*
D19*
X137500000Y-160000000D03*
%TD*%
D18*
%TO.C,SW4*%
X122450000Y-157500000D03*
D19*
X122450000Y-160000000D03*
%TD*%
D18*
%TO.C,SW1*%
X99950000Y-157500000D03*
D19*
X99950000Y-160000000D03*
%TD*%
D20*
%TO.C,H5*%
X191800000Y-156600000D03*
%TD*%
D11*
%TO.C,R2*%
X182500000Y-118810000D03*
D12*
X182500000Y-111190000D03*
%TD*%
D21*
%TO.C,POWER_LED0*%
X90000000Y-67500000D03*
D22*
X92500000Y-67500000D03*
%TD*%
D11*
%TO.C,R6*%
X164190000Y-74400000D03*
D12*
X171810000Y-74400000D03*
%TD*%
D23*
%TO.C,JACK_CON3*%
X177500000Y-147500000D03*
D22*
X175000000Y-147500000D03*
%TD*%
D23*
%TO.C,JACK_CON1*%
X165000000Y-147500000D03*
D22*
X162500000Y-147500000D03*
%TD*%
D23*
%TO.C,SECTION_2_BUTTON0*%
X92500000Y-95000000D03*
D22*
X90000000Y-95000000D03*
%TD*%
D18*
%TO.C,SW5*%
X129950000Y-157500000D03*
D19*
X129950000Y-160000000D03*
%TD*%
D21*
%TO.C,RESET0*%
X80000000Y-67500000D03*
D22*
X82500000Y-67500000D03*
%TD*%
D20*
%TO.C,H2*%
X78400000Y-144400000D03*
%TD*%
D11*
%TO.C,R4*%
X165990000Y-83800000D03*
D12*
X173610000Y-83800000D03*
%TD*%
D21*
%TO.C,PWR_IN0*%
X70000000Y-67500000D03*
D22*
X72500000Y-67500000D03*
%TD*%
D24*
%TO.C,11*%
X167670000Y-43053000D03*
X165130000Y-43053000D03*
D25*
X165130000Y-53213000D03*
D24*
X165130000Y-45593000D03*
X165130000Y-50673000D03*
X167670000Y-45593000D03*
X167670000Y-48133000D03*
X165130000Y-48133000D03*
X167670000Y-53213000D03*
X167670000Y-50673000D03*
%TD*%
D26*
%TO.C,D2*%
X160000000Y-125160000D03*
D27*
X160000000Y-115000000D03*
%TD*%
D18*
%TO.C,SW3*%
X114950000Y-157500000D03*
D19*
X114950000Y-160000000D03*
%TD*%
D23*
%TO.C,JACK_CON5*%
X190000000Y-147500000D03*
D22*
X187500000Y-147500000D03*
%TD*%
D18*
%TO.C,SW2*%
X107450000Y-157500000D03*
D19*
X107450000Y-160000000D03*
%TD*%
D28*
%TO.C,C1*%
X162560000Y-132588000D03*
D29*
X165100000Y-132588000D03*
X167640000Y-132588000D03*
X172720000Y-135128000D03*
X172720000Y-132588000D03*
X175260000Y-132588000D03*
X170180000Y-132588000D03*
X170180000Y-135128000D03*
X162560000Y-135128000D03*
X167640000Y-135128000D03*
X165100000Y-135128000D03*
X175260000Y-135128000D03*
%TD*%
D11*
%TO.C,R1*%
X91190000Y-57500000D03*
D12*
X98810000Y-57500000D03*
%TD*%
D18*
%TO.C,SW8*%
X152450000Y-157500000D03*
D19*
X152450000Y-160000000D03*
%TD*%
D13*
%TO.C,U$4*%
X79960000Y-157460000D03*
D14*
X82500000Y-157460000D03*
X85040000Y-157460000D03*
X87580000Y-157460000D03*
X79960000Y-160000000D03*
X82500000Y-160000000D03*
X85040000Y-160000000D03*
X87580000Y-160000000D03*
%TD*%
D30*
%TO.C,Q2*%
X161000000Y-74000000D03*
D31*
X161000000Y-72730000D03*
X161000000Y-71460000D03*
%TD*%
D18*
%TO.C,SW7*%
X144950000Y-157500000D03*
D19*
X144950000Y-160000000D03*
%TD*%
D32*
%TO.C,X1*%
X69400000Y-148590000D03*
D33*
X69400000Y-153670000D03*
X69400000Y-158750000D03*
%TD*%
D20*
%TO.C,H1*%
X71800000Y-46200000D03*
%TD*%
D34*
%TO.C,U$1*%
X151328500Y-80210000D03*
X151328500Y-82750000D03*
X103068500Y-138630000D03*
X103068500Y-141170000D03*
X151328500Y-95450000D03*
X151328500Y-97990000D03*
X151328500Y-100530000D03*
X151328500Y-103070000D03*
X151328500Y-105610000D03*
X151328500Y-108150000D03*
X151328500Y-110690000D03*
X151328500Y-113230000D03*
X151328500Y-118310000D03*
X151328500Y-120850000D03*
X151328500Y-123390000D03*
X151328500Y-125930000D03*
X151328500Y-128470000D03*
X151328500Y-131010000D03*
X151328500Y-133550000D03*
X151328500Y-136090000D03*
X103068500Y-68780000D03*
X103068500Y-108150000D03*
X103068500Y-105610000D03*
X103068500Y-103070000D03*
X103068500Y-100530000D03*
X103068500Y-97990000D03*
X103068500Y-95450000D03*
X103068500Y-92910000D03*
X103068500Y-90370000D03*
X103068500Y-86560000D03*
X103068500Y-84020000D03*
X103068500Y-81480000D03*
X103068500Y-78940000D03*
X103068500Y-76400000D03*
X103068500Y-73860000D03*
X103068500Y-113230000D03*
X103068500Y-115770000D03*
X103068500Y-118310000D03*
X103068500Y-120850000D03*
X103068500Y-123390000D03*
X103068500Y-125930000D03*
X103068500Y-128470000D03*
X103068500Y-131010000D03*
X105608500Y-138630000D03*
X105608500Y-141170000D03*
X108148500Y-138630000D03*
X108148500Y-141170000D03*
X110688500Y-138630000D03*
X110688500Y-141170000D03*
X113228500Y-138630000D03*
X113228500Y-141170000D03*
X115768500Y-138630000D03*
X115768500Y-141170000D03*
X118308500Y-138630000D03*
X118308500Y-141170000D03*
X120848500Y-138630000D03*
X120848500Y-141170000D03*
X123388500Y-138630000D03*
X123388500Y-141170000D03*
X125928500Y-138630000D03*
X125928500Y-141170000D03*
X128468500Y-138630000D03*
X128468500Y-141170000D03*
X131008500Y-138630000D03*
X131008500Y-141170000D03*
X133548500Y-138630000D03*
X133548500Y-141170000D03*
X136088500Y-138630000D03*
X136088500Y-141170000D03*
X138628500Y-138630000D03*
X138628500Y-141170000D03*
X141168500Y-138630000D03*
X141168500Y-141170000D03*
X143708500Y-138630000D03*
X143708500Y-141170000D03*
X103068500Y-71320000D03*
X151328500Y-87830000D03*
X151328500Y-85290000D03*
X146248500Y-138630000D03*
X146248500Y-141170000D03*
X151328500Y-75130000D03*
X151328500Y-77670000D03*
D35*
X103068500Y-63700000D03*
D34*
X103068500Y-66240000D03*
X151328500Y-90370000D03*
%TD*%
D20*
%TO.C,H3*%
X193000000Y-45600000D03*
%TD*%
D36*
%TO.C,U2*%
X168200000Y-99000000D03*
%TD*%
D23*
%TO.C,JACK_CON2*%
X170000000Y-157500000D03*
D22*
X167500000Y-157500000D03*
%TD*%
D37*
%TO.C,C2*%
X80740126Y-131674000D03*
X81411063Y-133274000D03*
D38*
X83911063Y-133274000D03*
X84582000Y-134874000D03*
%TD*%
D23*
%TO.C,SECTION_1_BUTTON0*%
X92500000Y-102500000D03*
D22*
X90000000Y-102500000D03*
%TD*%
D39*
%TO.C,U1*%
X176530000Y-77470000D03*
D40*
X176530000Y-80010000D03*
X176530000Y-82550000D03*
X176530000Y-85090000D03*
X176530000Y-87630000D03*
X176530000Y-90170000D03*
X176530000Y-92710000D03*
X176530000Y-95250000D03*
X176530000Y-97790000D03*
X176530000Y-100330000D03*
X176530000Y-102870000D03*
X176530000Y-105410000D03*
X191770000Y-105410000D03*
X191770000Y-102870000D03*
X191770000Y-100330000D03*
X191770000Y-97790000D03*
X191770000Y-95250000D03*
X191770000Y-92710000D03*
X191770000Y-90170000D03*
X191770000Y-87630000D03*
X191770000Y-85090000D03*
X191770000Y-82550000D03*
X191770000Y-80010000D03*
X191770000Y-77470000D03*
%TD*%
D23*
%TO.C,JACK_CON4*%
X182500000Y-157500000D03*
D22*
X180000000Y-157500000D03*
%TD*%
D11*
%TO.C,R3*%
X187500000Y-111190000D03*
D12*
X187500000Y-118810000D03*
%TD*%
D30*
%TO.C,Q1*%
X162000000Y-84050000D03*
D31*
X162000000Y-85320000D03*
X162000000Y-86590000D03*
%TD*%
D41*
%TO.C,U$5*%
X192500000Y-135000000D03*
D14*
X184880000Y-135000000D03*
D41*
X187420000Y-135000000D03*
X195040000Y-135000000D03*
X189960000Y-135000000D03*
%TD*%
D23*
%TO.C,SECTION_3_BUTTON0*%
X92500000Y-87500000D03*
D22*
X90000000Y-87500000D03*
%TD*%
D11*
%TO.C,R5*%
X165990000Y-86950000D03*
D12*
X173610000Y-86950000D03*
%TD*%
D26*
%TO.C,D1*%
X167500000Y-125160000D03*
D27*
X167500000Y-115000000D03*
%TD*%
D20*
%TO.C,H4*%
X136600000Y-107800000D03*
%TD*%
M02*
