M48
; DRILL file {KiCad 8.0.6} date 2025-05-19T18:35:22-0600
; FORMAT={-:-/ absolute / inch / decimal}
; #@! TF.CreationDate,2025-05-19T18:35:22-06:00
; #@! TF.GenerationSoftware,Kicad,Pcbnew,8.0.6
; #@! TF.FileFunction,Plated,1,4,PTH
FMAT,2
INCH
; #@! TA.AperFunction,Plated,PTH,ViaDrill
T1C0.0118
; #@! TA.AperFunction,Plated,PTH,ComponentDrill
T2C0.0276
; #@! TA.AperFunction,Plated,PTH,ComponentDrill
T3C0.0295
; #@! TA.AperFunction,Plated,PTH,ComponentDrill
T4C0.0315
; #@! TA.AperFunction,Plated,PTH,ComponentDrill
T5C0.0350
; #@! TA.AperFunction,Plated,PTH,ComponentDrill
T6C0.0354
; #@! TA.AperFunction,Plated,PTH,ComponentDrill
T7C0.0394
; #@! TA.AperFunction,Plated,PTH,ComponentDrill
T8C0.0400
; #@! TA.AperFunction,Plated,PTH,ComponentDrill
T9C0.0472
; #@! TA.AperFunction,Plated,PTH,ComponentDrill
T10C0.0598
%
G90
G05
T1
X4.05Y-6.1
X5.55Y-5.15
X5.65Y-4.8
X5.65Y-5.15
X5.85Y-6.05
X5.9Y-5.95
X6.05Y-5.05
X6.1Y-5.85
X6.15Y-5.75
X6.6142Y-5.0866
X7.01Y-5.19
X7.2441Y-3.315
T2
X3.5902Y-2.2638
X3.7638Y-4.724
X3.7638Y-5.024
X3.8902Y-2.2638
X6.4642Y-2.9291
X6.4646Y-2.7953
X6.535Y-3.2992
X6.535Y-3.4232
X6.7642Y-2.9291
X6.7646Y-2.7953
X6.835Y-3.2992
X6.835Y-3.4232
X7.185Y-4.3776
X7.185Y-4.6776
X7.3819Y-4.3776
X7.3819Y-4.6776
T3
X6.3386Y-2.8134
X6.3386Y-2.8634
X6.3386Y-2.9134
X6.378Y-3.3091
X6.378Y-3.3591
X6.378Y-3.4091
T4
X3.1787Y-5.184
X3.2052Y-5.247
X3.3036Y-5.247
X3.33Y-5.31
T5
X6.95Y-3.05
X6.95Y-3.15
X6.95Y-3.25
X6.95Y-3.35
X6.95Y-3.45
X6.95Y-3.55
X6.95Y-3.65
X6.95Y-3.75
X6.95Y-3.85
X6.95Y-3.95
X6.95Y-4.05
X6.95Y-4.15
X7.55Y-3.05
X7.55Y-3.15
X7.55Y-3.25
X7.55Y-3.35
X7.55Y-3.45
X7.55Y-3.55
X7.55Y-3.65
X7.55Y-3.75
X7.55Y-3.85
X7.55Y-3.95
X7.55Y-4.05
X7.55Y-4.15
T6
X3.148Y-6.1992
X3.148Y-6.2992
X3.248Y-6.1992
X3.248Y-6.2992
X3.348Y-6.1992
X3.348Y-6.2992
X3.448Y-6.1992
X3.448Y-6.2992
X4.0578Y-2.5079
X4.0578Y-2.6079
X4.0578Y-2.7079
X4.0578Y-2.8079
X4.0578Y-2.9079
X4.0578Y-3.0079
X4.0578Y-3.1079
X4.0578Y-3.2079
X4.0578Y-3.3079
X4.0578Y-3.4079
X4.0578Y-3.5579
X4.0578Y-3.6579
X4.0578Y-3.7579
X4.0578Y-3.8579
X4.0578Y-3.9579
X4.0578Y-4.0579
X4.0578Y-4.1579
X4.0578Y-4.2579
X4.0578Y-4.4579
X4.0578Y-4.5579
X4.0578Y-4.6579
X4.0578Y-4.7579
X4.0578Y-4.8579
X4.0578Y-4.9579
X4.0578Y-5.0579
X4.0578Y-5.1579
X4.0578Y-5.4579
X4.0578Y-5.5579
X4.1578Y-5.4579
X4.1578Y-5.5579
X4.2578Y-5.4579
X4.2578Y-5.5579
X4.3578Y-5.4579
X4.3578Y-5.5579
X4.4578Y-5.4579
X4.4578Y-5.5579
X4.5578Y-5.4579
X4.5578Y-5.5579
X4.6578Y-5.4579
X4.6578Y-5.5579
X4.7578Y-5.4579
X4.7578Y-5.5579
X4.8578Y-5.4579
X4.8578Y-5.5579
X4.9578Y-5.4579
X4.9578Y-5.5579
X5.0578Y-5.4579
X5.0578Y-5.5579
X5.1578Y-5.4579
X5.1578Y-5.5579
X5.2578Y-5.4579
X5.2578Y-5.5579
X5.3578Y-5.4579
X5.3578Y-5.5579
X5.4578Y-5.4579
X5.4578Y-5.5579
X5.5578Y-5.4579
X5.5578Y-5.5579
X5.6578Y-5.4579
X5.6578Y-5.5579
X5.7578Y-5.4579
X5.7578Y-5.5579
X5.9578Y-2.9579
X5.9578Y-3.0579
X5.9578Y-3.1579
X5.9578Y-3.2579
X5.9578Y-3.3579
X5.9578Y-3.4579
X5.9578Y-3.5579
X5.9578Y-3.7579
X5.9578Y-3.8579
X5.9578Y-3.9579
X5.9578Y-4.0579
X5.9578Y-4.1579
X5.9578Y-4.2579
X5.9578Y-4.3579
X5.9578Y-4.4579
X5.9578Y-4.6579
X5.9578Y-4.7579
X5.9578Y-4.8579
X5.9578Y-4.9579
X5.9578Y-5.0579
X5.9578Y-5.1579
X5.9578Y-5.2579
X5.9578Y-5.3579
X6.4Y-5.22
X6.4Y-5.32
X6.5Y-5.22
X6.5Y-5.32
X6.5012Y-1.695
X6.5012Y-1.795
X6.5012Y-1.895
X6.5012Y-1.995
X6.5012Y-2.095
X6.6Y-5.22
X6.6Y-5.32
X6.6012Y-1.695
X6.6012Y-1.795
X6.6012Y-1.895
X6.6012Y-1.995
X6.6012Y-2.095
X6.7Y-5.22
X6.7Y-5.32
X6.8Y-5.22
X6.8Y-5.32
X6.9Y-5.22
X6.9Y-5.32
X7.2787Y-5.315
X7.2819Y-4.9213
X7.3787Y-5.315
X7.3819Y-4.9213
X7.4787Y-5.315
X7.4819Y-4.9213
X7.5787Y-5.315
X7.5819Y-4.9213
X7.6787Y-5.315
T7
X2.7559Y-2.6575
X2.8543Y-2.6575
X3.1496Y-2.6575
X3.248Y-2.6575
X3.5433Y-2.6575
X3.5433Y-3.4449
X3.5433Y-3.7402
X3.5433Y-4.0354
X3.6417Y-2.6575
X3.6417Y-3.4449
X3.6417Y-3.7402
X3.6417Y-4.0354
X3.935Y-6.2008
X3.935Y-6.2992
X4.2303Y-6.2008
X4.2303Y-6.2992
X4.5256Y-6.2008
X4.5256Y-6.2992
X4.8209Y-6.2008
X4.8209Y-6.2992
X5.1161Y-6.2008
X5.1161Y-6.2992
X5.4134Y-6.2008
X5.4134Y-6.2992
X5.7067Y-6.2008
X5.7067Y-6.2992
X6.002Y-6.2008
X6.002Y-6.2992
X6.3976Y-5.8071
X6.4961Y-5.8071
X6.5945Y-6.2008
X6.6929Y-6.2008
X6.8898Y-5.8071
X6.9882Y-5.8071
X7.0866Y-6.2008
X7.185Y-6.2008
X7.3819Y-5.8071
X7.4803Y-5.8071
T8
X6.622Y-3.8976
T9
X6.2992Y-4.5276
X6.2992Y-4.9276
X6.5945Y-4.5276
X6.5945Y-4.9276
T10
X2.7323Y-5.85
X2.7323Y-6.05
X2.7323Y-6.25
T7
G00X3.063Y-1.9488
M15
G01X3.063Y-2.0276
M16
G05
G00X3.2874Y-1.8701
M15
G01X3.2087Y-1.8701
M16
G05
G00X3.2874Y-2.1063
M15
G01X3.2087Y-2.1063
M16
G05
M30
