%TF.GenerationSoftware,KiCad,Pcbnew,8.0.6*%
%TF.CreationDate,2025-05-19T18:35:20-06:00*%
%TF.ProjectId,main V5,6d61696e-2056-4352-9e6b-696361645f70,rev?*%
%TF.SameCoordinates,Original*%
%TF.FileFunction,Copper,L3,Inr*%
%TF.FilePolarity,Positive*%
%FSLAX46Y46*%
G04 Gerber Fmt 4.6, Leading zero omitted, Abs format (unit mm)*
G04 Created by KiCad (PCBNEW 8.0.6) date 2025-05-19 18:35:20*
%MOMM*%
%LPD*%
G01*
G04 APERTURE LIST*
G04 Aperture macros list*
%AMRoundRect*
0 Rectangle with rounded corners*
0 $1 Rounding radius*
0 $2 $3 $4 $5 $6 $7 $8 $9 X,Y pos of 4 corners*
0 Add a 4 corners polygon primitive as box body*
4,1,4,$2,$3,$4,$5,$6,$7,$8,$9,$2,$3,0*
0 Add four circle primitives for the rounded corners*
1,1,$1+$1,$2,$3*
1,1,$1+$1,$4,$5*
1,1,$1+$1,$6,$7*
1,1,$1+$1,$8,$9*
0 Add four rect primitives between the rounded corners*
20,1,$1+$1,$2,$3,$4,$5,0*
20,1,$1+$1,$4,$5,$6,$7,0*
20,1,$1+$1,$6,$7,$8,$9,0*
20,1,$1+$1,$8,$9,$2,$3,0*%
%AMOutline5P*
0 Free polygon, 5 corners , with rotation*
0 The origin of the aperture is its center*
0 number of corners: always 5*
0 $1 to $10 corner X, Y*
0 $11 Rotation angle, in degrees counterclockwise*
0 create outline with 5 corners*
4,1,5,$1,$2,$3,$4,$5,$6,$7,$8,$9,$10,$1,$2,$11*%
%AMOutline6P*
0 Free polygon, 6 corners , with rotation*
0 The origin of the aperture is its center*
0 number of corners: always 6*
0 $1 to $12 corner X, Y*
0 $13 Rotation angle, in degrees counterclockwise*
0 create outline with 6 corners*
4,1,6,$1,$2,$3,$4,$5,$6,$7,$8,$9,$10,$11,$12,$1,$2,$13*%
%AMOutline7P*
0 Free polygon, 7 corners , with rotation*
0 The origin of the aperture is its center*
0 number of corners: always 7*
0 $1 to $14 corner X, Y*
0 $15 Rotation angle, in degrees counterclockwise*
0 create outline with 7 corners*
4,1,7,$1,$2,$3,$4,$5,$6,$7,$8,$9,$10,$11,$12,$13,$14,$1,$2,$15*%
%AMOutline8P*
0 Free polygon, 8 corners , with rotation*
0 The origin of the aperture is its center*
0 number of corners: always 8*
0 $1 to $16 corner X, Y*
0 $17 Rotation angle, in degrees counterclockwise*
0 create outline with 8 corners*
4,1,8,$1,$2,$3,$4,$5,$6,$7,$8,$9,$10,$11,$12,$13,$14,$15,$16,$1,$2,$17*%
G04 Aperture macros list end*
%TA.AperFunction,ComponentPad*%
%ADD10C,1.400000*%
%TD*%
%TA.AperFunction,ComponentPad*%
%ADD11O,1.400000X1.400000*%
%TD*%
%TA.AperFunction,ComponentPad*%
%ADD12R,1.778000X1.778000*%
%TD*%
%TA.AperFunction,ComponentPad*%
%ADD13Outline8P,-0.889000X0.368236X-0.368236X0.889000X0.368236X0.889000X0.889000X0.368236X0.889000X-0.368236X0.368236X-0.889000X-0.368236X-0.889000X-0.889000X-0.368236X0.000000*%
%TD*%
%TA.AperFunction,ComponentPad*%
%ADD14R,3.500000X3.500000*%
%TD*%
%TA.AperFunction,ComponentPad*%
%ADD15RoundRect,0.750000X-1.000000X0.750000X-1.000000X-0.750000X1.000000X-0.750000X1.000000X0.750000X0*%
%TD*%
%TA.AperFunction,ComponentPad*%
%ADD16RoundRect,0.875000X-0.875000X0.875000X-0.875000X-0.875000X0.875000X-0.875000X0.875000X0.875000X0*%
%TD*%
%TA.AperFunction,ComponentPad*%
%ADD17RoundRect,0.250000X-0.750000X0.600000X-0.750000X-0.600000X0.750000X-0.600000X0.750000X0.600000X0*%
%TD*%
%TA.AperFunction,ComponentPad*%
%ADD18O,2.000000X1.700000*%
%TD*%
%TA.AperFunction,ComponentPad*%
%ADD19RoundRect,0.250000X-0.600000X-0.750000X0.600000X-0.750000X0.600000X0.750000X-0.600000X0.750000X0*%
%TD*%
%TA.AperFunction,ComponentPad*%
%ADD20O,1.700000X2.000000*%
%TD*%
%TA.AperFunction,ComponentPad*%
%ADD21RoundRect,0.250000X0.600000X0.750000X-0.600000X0.750000X-0.600000X-0.750000X0.600000X-0.750000X0*%
%TD*%
%TA.AperFunction,ComponentPad*%
%ADD22Outline8P,-0.889000X0.368236X-0.368236X0.889000X0.368236X0.889000X0.889000X0.368236X0.889000X-0.368236X0.368236X-0.889000X-0.368236X-0.889000X-0.889000X-0.368236X90.000000*%
%TD*%
%TA.AperFunction,ComponentPad*%
%ADD23R,2.400000X2.400000*%
%TD*%
%TA.AperFunction,ComponentPad*%
%ADD24O,2.400000X2.400000*%
%TD*%
%TA.AperFunction,ComponentPad*%
%ADD25C,1.778000*%
%TD*%
%TA.AperFunction,ComponentPad*%
%ADD26R,1.500000X1.050000*%
%TD*%
%TA.AperFunction,ComponentPad*%
%ADD27O,1.500000X1.050000*%
%TD*%
%TA.AperFunction,ComponentPad*%
%ADD28R,3.000000X3.000000*%
%TD*%
%TA.AperFunction,ComponentPad*%
%ADD29C,3.000000*%
%TD*%
%TA.AperFunction,ComponentPad*%
%ADD30Outline8P,-0.889000X0.368236X-0.368236X0.889000X0.368236X0.889000X0.889000X0.368236X0.889000X-0.368236X0.368236X-0.889000X-0.368236X-0.889000X-0.889000X-0.368236X180.000000*%
%TD*%
%TA.AperFunction,ComponentPad*%
%ADD31C,1.905000*%
%TD*%
%TA.AperFunction,ComponentPad*%
%ADD32R,1.600000X1.600000*%
%TD*%
%TA.AperFunction,ComponentPad*%
%ADD33C,1.600000*%
%TD*%
%TA.AperFunction,ComponentPad*%
%ADD34R,1.778000X1.524000*%
%TD*%
%TA.AperFunction,ViaPad*%
%ADD35C,0.600000*%
%TD*%
%TA.AperFunction,Conductor*%
%ADD36C,1.270000*%
%TD*%
%TA.AperFunction,Conductor*%
%ADD37C,0.635000*%
%TD*%
%TA.AperFunction,Conductor*%
%ADD38C,0.200000*%
%TD*%
G04 APERTURE END LIST*
D10*
%TO.N,/RX_OUT*%
%TO.C,R7*%
X164200000Y-71000000D03*
D11*
%TO.N,+3.3V*%
X171820000Y-71000000D03*
%TD*%
D12*
%TO.N,Net-(R2-Pad1)*%
%TO.C,U$2*%
X184960000Y-125000000D03*
D13*
%TO.N,Net-(R3-Pad2)*%
X187500000Y-125000000D03*
%TO.N,GND*%
X190040000Y-125000000D03*
%TO.N,/5V*%
X192580000Y-125000000D03*
%TD*%
D10*
%TO.N,Net-(JP7-B)*%
%TO.C,Neopixel Resistor1*%
X95600000Y-119990000D03*
D11*
%TO.N,Net-(JP7-A)*%
X95600000Y-127610000D03*
%TD*%
D14*
%TO.N,/RAW_IN*%
%TO.C,J1*%
X82500000Y-53500000D03*
D15*
%TO.N,GND*%
X82500000Y-47500000D03*
D16*
X77800000Y-50500000D03*
%TD*%
D17*
%TO.N,Net-(SW6A-S)*%
%TO.C,SW6*%
X137500000Y-157500000D03*
D18*
%TO.N,GND*%
X137500000Y-160000000D03*
%TD*%
D17*
%TO.N,Net-(SW4A-S)*%
%TO.C,SW4*%
X122450000Y-157500000D03*
D18*
%TO.N,GND*%
X122450000Y-160000000D03*
%TD*%
D17*
%TO.N,Net-(SW1A-S)*%
%TO.C,SW1*%
X99950000Y-157500000D03*
D18*
%TO.N,GND*%
X99950000Y-160000000D03*
%TD*%
D10*
%TO.N,Net-(R2-Pad1)*%
%TO.C,R2*%
X182500000Y-118810000D03*
D11*
%TO.N,/5V*%
X182500000Y-111190000D03*
%TD*%
D19*
%TO.N,/5V*%
%TO.C,POWER_LED0*%
X90000000Y-67500000D03*
D20*
%TO.N,Net-(POWER_LED0B-S)*%
X92500000Y-67500000D03*
%TD*%
D10*
%TO.N,/RX_5V*%
%TO.C,R6*%
X164190000Y-74400000D03*
D11*
%TO.N,/5V*%
X171810000Y-74400000D03*
%TD*%
D21*
%TO.N,Net-(JACK_CON3A-S)*%
%TO.C,JACK_CON3*%
X177500000Y-147500000D03*
D20*
%TO.N,Net-(JACK_CON3B-S)*%
X175000000Y-147500000D03*
%TD*%
D21*
%TO.N,Net-(JACK_CON1A-S)*%
%TO.C,JACK_CON1*%
X165000000Y-147500000D03*
D20*
%TO.N,Net-(JACK_CON1B-S)*%
X162500000Y-147500000D03*
%TD*%
D21*
%TO.N,Net-(SECTION_2_BUTTON0A-KL)*%
%TO.C,SECTION_2_BUTTON0*%
X92500000Y-95000000D03*
D20*
%TO.N,GND*%
X90000000Y-95000000D03*
%TD*%
D17*
%TO.N,Net-(SW5A-S)*%
%TO.C,SW5*%
X129950000Y-157500000D03*
D18*
%TO.N,GND*%
X129950000Y-160000000D03*
%TD*%
D19*
%TO.N,/RESET*%
%TO.C,RESET0*%
X80000000Y-67500000D03*
D20*
%TO.N,GND*%
X82500000Y-67500000D03*
%TD*%
D10*
%TO.N,/TX_5V*%
%TO.C,R4*%
X165990000Y-83800000D03*
D11*
%TO.N,/5V*%
X173610000Y-83800000D03*
%TD*%
D19*
%TO.N,/RAW_IN*%
%TO.C,PWR_IN0*%
X70000000Y-67500000D03*
D20*
%TO.N,/5V*%
X72500000Y-67500000D03*
%TD*%
D22*
%TO.N,unconnected-(11-Pad3V3)*%
%TO.C,11*%
X167670000Y-43053000D03*
%TO.N,+3.3V*%
X165130000Y-43053000D03*
D12*
%TO.N,GND*%
X165130000Y-53213000D03*
D22*
X165130000Y-45593000D03*
%TO.N,unconnected-(11-PadINT)*%
X165130000Y-50673000D03*
%TO.N,Net-(U1-12)*%
X167670000Y-45593000D03*
%TO.N,Net-(U1-11)*%
X167670000Y-48133000D03*
%TO.N,/RESET*%
X165130000Y-48133000D03*
%TO.N,Net-(U1-13)*%
X167670000Y-53213000D03*
%TO.N,Net-(U1-10)*%
X167670000Y-50673000D03*
%TD*%
D23*
%TO.N,Net-(D2-K)*%
%TO.C,D2*%
X160000000Y-125160000D03*
D24*
%TO.N,/3V3*%
X160000000Y-115000000D03*
%TD*%
D17*
%TO.N,Net-(SW3A-S)*%
%TO.C,SW3*%
X114950000Y-157500000D03*
D18*
%TO.N,GND*%
X114950000Y-160000000D03*
%TD*%
D21*
%TO.N,Net-(JACK_CON5A-S)*%
%TO.C,JACK_CON5*%
X190000000Y-147500000D03*
D20*
%TO.N,Net-(JACK_CON5B-S)*%
X187500000Y-147500000D03*
%TD*%
D17*
%TO.N,Net-(SW2A-S)*%
%TO.C,SW2*%
X107450000Y-157500000D03*
D18*
%TO.N,GND*%
X107450000Y-160000000D03*
%TD*%
D12*
%TO.N,Net-(D2-K)*%
%TO.C,C1*%
X162560000Y-132588000D03*
D25*
%TO.N,Net-(D1-K)*%
X165100000Y-132588000D03*
%TO.N,GND*%
X167640000Y-132588000D03*
%TO.N,/MISO*%
X172720000Y-135128000D03*
%TO.N,/MOSI*%
X172720000Y-132588000D03*
%TO.N,/RESET*%
X175260000Y-132588000D03*
%TO.N,/SCK*%
X170180000Y-132588000D03*
%TO.N,/D48*%
X170180000Y-135128000D03*
%TO.N,/D2*%
X162560000Y-135128000D03*
%TO.N,/D53*%
X167640000Y-135128000D03*
%TO.N,Net-(C1-PadTFT_DC)*%
X165100000Y-135128000D03*
%TO.N,/Touch_CS*%
X175260000Y-135128000D03*
%TD*%
D10*
%TO.N,Net-(POWER_LED0B-S)*%
%TO.C,R1*%
X91190000Y-57500000D03*
D11*
%TO.N,GND*%
X98810000Y-57500000D03*
%TD*%
D17*
%TO.N,Net-(SW8A-S)*%
%TO.C,SW8*%
X152450000Y-157500000D03*
D18*
%TO.N,GND*%
X152450000Y-160000000D03*
%TD*%
D12*
%TO.N,Net-(U$1-PadD22)*%
%TO.C,U$4*%
X79960000Y-157460000D03*
D13*
%TO.N,Net-(U$1-PadD23)*%
X82500000Y-157460000D03*
%TO.N,Net-(U$1-PadD24)*%
X85040000Y-157460000D03*
%TO.N,Net-(U$1-PadD25)*%
X87580000Y-157460000D03*
%TO.N,Net-(U$1-PadD26)*%
X79960000Y-160000000D03*
%TO.N,Net-(U$1-PadD27)*%
X82500000Y-160000000D03*
%TO.N,Net-(U$1-PadD28)*%
X85040000Y-160000000D03*
%TO.N,/D29*%
X87580000Y-160000000D03*
%TD*%
D26*
%TO.N,/RX_5V*%
%TO.C,Q2*%
X161000000Y-74000000D03*
D27*
%TO.N,+3.3V*%
X161000000Y-72730000D03*
%TO.N,/RX_OUT*%
X161000000Y-71460000D03*
%TD*%
D17*
%TO.N,Net-(SW7A-S)*%
%TO.C,SW7*%
X144950000Y-157500000D03*
D18*
%TO.N,GND*%
X144950000Y-160000000D03*
%TD*%
D28*
%TO.N,/5V*%
%TO.C,X1*%
X69400000Y-148590000D03*
D29*
%TO.N,Net-(JP7-A)*%
X69400000Y-153670000D03*
%TO.N,GND*%
X69400000Y-158750000D03*
%TD*%
D30*
%TO.N,/3V3*%
%TO.C,U$1*%
X151328500Y-80210000D03*
%TO.N,Net-(U$1-5V-Pad5V@1)*%
X151328500Y-82750000D03*
X103068500Y-138630000D03*
X103068500Y-141170000D03*
%TO.N,unconnected-(U$1-PadA0)*%
X151328500Y-95450000D03*
%TO.N,/Touch_CS*%
X151328500Y-97990000D03*
%TO.N,Net-(U2-T_IRQ)*%
X151328500Y-100530000D03*
%TO.N,unconnected-(U$1-PadA3)*%
X151328500Y-103070000D03*
%TO.N,unconnected-(U$1-PadA4)*%
X151328500Y-105610000D03*
%TO.N,unconnected-(U$1-PadA5)*%
X151328500Y-108150000D03*
%TO.N,unconnected-(U$1-PadA6)*%
X151328500Y-110690000D03*
%TO.N,unconnected-(U$1-PadA7)*%
X151328500Y-113230000D03*
%TO.N,unconnected-(U$1-PadA8)*%
X151328500Y-118310000D03*
%TO.N,unconnected-(U$1-PadA9)*%
X151328500Y-120850000D03*
%TO.N,unconnected-(U$1-PadA10)*%
X151328500Y-123390000D03*
%TO.N,unconnected-(U$1-PadA11)*%
X151328500Y-125930000D03*
%TO.N,unconnected-(U$1-PadA12)*%
X151328500Y-128470000D03*
%TO.N,unconnected-(U$1-PadA13)*%
X151328500Y-131010000D03*
%TO.N,unconnected-(U$1-PadA14)*%
X151328500Y-133550000D03*
%TO.N,unconnected-(U$1-PadA15)*%
X151328500Y-136090000D03*
%TO.N,unconnected-(U$1-PadAREF)*%
X103068500Y-68780000D03*
%TO.N,/RX_5V*%
X103068500Y-108150000D03*
%TO.N,/TX_5V*%
X103068500Y-105610000D03*
%TO.N,/D2*%
X103068500Y-103070000D03*
%TO.N,unconnected-(U$1-PadD3)*%
X103068500Y-100530000D03*
%TO.N,Net-(R2-Pad1)*%
X103068500Y-97990000D03*
%TO.N,Net-(R3-Pad2)*%
X103068500Y-95450000D03*
%TO.N,unconnected-(U$1-PadD6)*%
X103068500Y-92910000D03*
%TO.N,unconnected-(U$1-PadD7)*%
X103068500Y-90370000D03*
%TO.N,Net-(JP7-B)*%
X103068500Y-86560000D03*
%TO.N,Net-(SECTION_1_BUTTON0A-KL)*%
X103068500Y-84020000D03*
%TO.N,Net-(SECTION_2_BUTTON0A-KL)*%
X103068500Y-81480000D03*
%TO.N,Net-(SECTION_3_BUTTON0A-KL)*%
X103068500Y-78940000D03*
%TO.N,unconnected-(U$1-PadD12)*%
X103068500Y-76400000D03*
%TO.N,unconnected-(U$1-PadD13)*%
X103068500Y-73860000D03*
%TO.N,unconnected-(U$1-PadD14)*%
X103068500Y-113230000D03*
%TO.N,unconnected-(U$1-PadD15)*%
X103068500Y-115770000D03*
%TO.N,unconnected-(U$1-PadD16)*%
X103068500Y-118310000D03*
%TO.N,unconnected-(U$1-PadD17)*%
X103068500Y-120850000D03*
%TO.N,unconnected-(U$1-PadD18)*%
X103068500Y-123390000D03*
%TO.N,unconnected-(U$1-PadD19)*%
X103068500Y-125930000D03*
%TO.N,Net-(U$1-PadD20)*%
X103068500Y-128470000D03*
%TO.N,/D21*%
X103068500Y-131010000D03*
%TO.N,Net-(U$1-PadD22)*%
X105608500Y-138630000D03*
%TO.N,Net-(U$1-PadD23)*%
X105608500Y-141170000D03*
%TO.N,Net-(U$1-PadD24)*%
X108148500Y-138630000D03*
%TO.N,Net-(U$1-PadD25)*%
X108148500Y-141170000D03*
%TO.N,Net-(U$1-PadD26)*%
X110688500Y-138630000D03*
%TO.N,Net-(U$1-PadD27)*%
X110688500Y-141170000D03*
%TO.N,Net-(U$1-PadD28)*%
X113228500Y-138630000D03*
%TO.N,/D29*%
X113228500Y-141170000D03*
%TO.N,Net-(SW1A-S)*%
X115768500Y-138630000D03*
%TO.N,Net-(SW2A-S)*%
X115768500Y-141170000D03*
%TO.N,Net-(SW3A-S)*%
X118308500Y-138630000D03*
%TO.N,Net-(SW4A-S)*%
X118308500Y-141170000D03*
%TO.N,Net-(SW5A-S)*%
X120848500Y-138630000D03*
%TO.N,Net-(SW6A-S)*%
X120848500Y-141170000D03*
%TO.N,Net-(SW7A-S)*%
X123388500Y-138630000D03*
%TO.N,Net-(SW8A-S)*%
X123388500Y-141170000D03*
%TO.N,Net-(JACK_CON1A-S)*%
X125928500Y-138630000D03*
%TO.N,Net-(JACK_CON1B-S)*%
X125928500Y-141170000D03*
%TO.N,Net-(JACK_CON2A-S)*%
X128468500Y-138630000D03*
%TO.N,Net-(JACK_CON2B-S)*%
X128468500Y-141170000D03*
%TO.N,Net-(JACK_CON3A-S)*%
X131008500Y-138630000D03*
%TO.N,Net-(JACK_CON3B-S)*%
X131008500Y-141170000D03*
%TO.N,Net-(JACK_CON4A-S)*%
X133548500Y-138630000D03*
%TO.N,Net-(JACK_CON4B-S)*%
X133548500Y-141170000D03*
%TO.N,Net-(JACK_CON5A-S)*%
X136088500Y-138630000D03*
%TO.N,Net-(JACK_CON5B-S)*%
X136088500Y-141170000D03*
%TO.N,/D48*%
X138628500Y-138630000D03*
%TO.N,Net-(C1-PadTFT_DC)*%
X138628500Y-141170000D03*
%TO.N,/MISO*%
X141168500Y-138630000D03*
%TO.N,/MOSI*%
X141168500Y-141170000D03*
%TO.N,/SCK*%
X143708500Y-138630000D03*
%TO.N,/D53*%
X143708500Y-141170000D03*
%TO.N,GND*%
X103068500Y-71320000D03*
X151328500Y-87830000D03*
X151328500Y-85290000D03*
X146248500Y-138630000D03*
X146248500Y-141170000D03*
%TO.N,unconnected-(U$1-PadIOREF)*%
X151328500Y-75130000D03*
%TO.N,/RESET*%
X151328500Y-77670000D03*
D12*
%TO.N,unconnected-(U$1-PadSCL)*%
X103068500Y-63700000D03*
D30*
%TO.N,unconnected-(U$1-PadSDA)*%
X103068500Y-66240000D03*
%TO.N,/5V*%
X151328500Y-90370000D03*
%TD*%
D31*
%TO.N,Net-(U2-T_IRQ)*%
%TO.C,U2*%
X168200000Y-99000000D03*
%TD*%
D21*
%TO.N,Net-(JACK_CON2A-S)*%
%TO.C,JACK_CON2*%
X170000000Y-157500000D03*
D20*
%TO.N,Net-(JACK_CON2B-S)*%
X167500000Y-157500000D03*
%TD*%
D32*
%TO.N,/5V*%
%TO.C,C2*%
X80740126Y-131674000D03*
X81411063Y-133274000D03*
D33*
%TO.N,GND*%
X83911063Y-133274000D03*
X84582000Y-134874000D03*
%TD*%
D21*
%TO.N,Net-(SECTION_1_BUTTON0A-KL)*%
%TO.C,SECTION_1_BUTTON0*%
X92500000Y-102500000D03*
D20*
%TO.N,GND*%
X90000000Y-102500000D03*
%TD*%
D34*
%TO.N,/RX_OUT*%
%TO.C,U1*%
X176530000Y-77470000D03*
D25*
%TO.N,/TX_OUT*%
X176530000Y-80010000D03*
%TO.N,unconnected-(U1-GND{slash}RST-Pad2)*%
X176530000Y-82550000D03*
%TO.N,unconnected-(U1-GND-Pad3)*%
X176530000Y-85090000D03*
%TO.N,unconnected-(U1-2-Pad4)*%
X176530000Y-87630000D03*
%TO.N,unconnected-(U1-3-Pad5)*%
X176530000Y-90170000D03*
%TO.N,unconnected-(U1-4-Pad6)*%
X176530000Y-92710000D03*
%TO.N,unconnected-(U1-5-Pad7)*%
X176530000Y-95250000D03*
%TO.N,unconnected-(U1-6-Pad8)*%
X176530000Y-97790000D03*
%TO.N,unconnected-(U1-7-Pad9)*%
X176530000Y-100330000D03*
%TO.N,unconnected-(U1-8-Pad10)*%
X176530000Y-102870000D03*
%TO.N,unconnected-(U1-9-Pad11)*%
X176530000Y-105410000D03*
%TO.N,Net-(U1-10)*%
X191770000Y-105410000D03*
%TO.N,Net-(U1-11)*%
X191770000Y-102870000D03*
%TO.N,Net-(U1-12)*%
X191770000Y-100330000D03*
%TO.N,Net-(U1-13)*%
X191770000Y-97790000D03*
%TO.N,unconnected-(U1-A0-Pad16)*%
X191770000Y-95250000D03*
%TO.N,unconnected-(U1-A1-Pad17)*%
X191770000Y-92710000D03*
%TO.N,unconnected-(U1-A2-Pad18)*%
X191770000Y-90170000D03*
%TO.N,unconnected-(U1-A3-Pad19)*%
X191770000Y-87630000D03*
%TO.N,+3.3V*%
X191770000Y-85090000D03*
%TO.N,/RESET*%
X191770000Y-82550000D03*
%TO.N,GND*%
X191770000Y-80010000D03*
%TO.N,Net-(JP4-B)*%
X191770000Y-77470000D03*
%TD*%
D21*
%TO.N,Net-(JACK_CON4A-S)*%
%TO.C,JACK_CON4*%
X182500000Y-157500000D03*
D20*
%TO.N,Net-(JACK_CON4B-S)*%
X180000000Y-157500000D03*
%TD*%
D10*
%TO.N,/5V*%
%TO.C,R3*%
X187500000Y-111190000D03*
D11*
%TO.N,Net-(R3-Pad2)*%
X187500000Y-118810000D03*
%TD*%
D26*
%TO.N,/TX_5V*%
%TO.C,Q1*%
X162000000Y-84050000D03*
D27*
%TO.N,+3.3V*%
X162000000Y-85320000D03*
%TO.N,/TX_OUT*%
X162000000Y-86590000D03*
%TD*%
D25*
%TO.N,/5V*%
%TO.C,U$5*%
X192500000Y-135000000D03*
D13*
%TO.N,/D21*%
X184880000Y-135000000D03*
D25*
%TO.N,Net-(U$1-PadD20)*%
X187420000Y-135000000D03*
%TO.N,GND*%
X195040000Y-135000000D03*
%TO.N,unconnected-(U$5-PadSW)*%
X189960000Y-135000000D03*
%TD*%
D21*
%TO.N,Net-(SECTION_3_BUTTON0A-KL)*%
%TO.C,SECTION_3_BUTTON0*%
X92500000Y-87500000D03*
D20*
%TO.N,GND*%
X90000000Y-87500000D03*
%TD*%
D10*
%TO.N,/TX_OUT*%
%TO.C,R5*%
X165990000Y-86950000D03*
D11*
%TO.N,+3.3V*%
X173610000Y-86950000D03*
%TD*%
D23*
%TO.N,Net-(D1-K)*%
%TO.C,D1*%
X167500000Y-125160000D03*
D24*
%TO.N,/5V*%
X167500000Y-115000000D03*
%TD*%
D35*
%TO.N,/5V*%
X184000000Y-84200000D03*
%TO.N,Net-(JACK_CON5B-S)*%
X148590000Y-153670000D03*
%TO.N,/SCK*%
X143510000Y-121920000D03*
X168000000Y-129200000D03*
X143510000Y-130810000D03*
%TO.N,/MOSI*%
X178054000Y-131826000D03*
X154940000Y-148590000D03*
%TO.N,/D48*%
X153670000Y-128270000D03*
%TO.N,Net-(U$1-5V-Pad5V@1)*%
X102870000Y-154940000D03*
%TO.N,/D53*%
X156210000Y-146050000D03*
%TO.N,/MISO*%
X140970000Y-130810000D03*
%TO.N,Net-(C1-PadTFT_DC)*%
X149860000Y-151130000D03*
%TD*%
D36*
%TO.N,/3V3*%
X152210000Y-80210000D02*
X151328500Y-80210000D01*
X160000000Y-88000000D02*
X152210000Y-80210000D01*
X160000000Y-115000000D02*
X160000000Y-88000000D01*
%TO.N,/5V*%
X90000000Y-67500000D02*
X90000000Y-66500000D01*
X90000000Y-66500000D02*
X94781200Y-61718800D01*
X121408800Y-61718800D02*
X123190000Y-63500000D01*
X150060000Y-90370000D02*
X151328500Y-90370000D01*
X123190000Y-63500000D02*
X150060000Y-90370000D01*
X94781200Y-61718800D02*
X121408800Y-61718800D01*
D37*
%TO.N,Net-(D1-K)*%
X164920000Y-127740000D02*
X167500000Y-125160000D01*
X164920000Y-132460000D02*
X164920000Y-127740000D01*
%TO.N,Net-(D2-K)*%
X162380000Y-127540000D02*
X160000000Y-125160000D01*
X162380000Y-132460000D02*
X162380000Y-127540000D01*
D38*
%TO.N,Net-(JACK_CON1A-S)*%
X165000000Y-147420000D02*
X165100000Y-147320000D01*
X165000000Y-147500000D02*
X165000000Y-147420000D01*
%TO.N,Net-(JACK_CON1B-S)*%
X132258500Y-147500000D02*
X162500000Y-147500000D01*
X125928500Y-141170000D02*
X132258500Y-147500000D01*
%TO.N,Net-(JACK_CON2B-S)*%
X128468500Y-141168500D02*
X128270000Y-140970000D01*
X128468500Y-141170000D02*
X128468500Y-141168500D01*
%TO.N,Net-(JACK_CON3B-S)*%
X131008500Y-141170000D02*
X132454700Y-142616200D01*
X132454700Y-142616200D02*
X170116200Y-142616200D01*
X170116200Y-142616200D02*
X175000000Y-147500000D01*
%TO.N,Net-(JACK_CON5A-S)*%
X137534700Y-137183800D02*
X136088500Y-138630000D01*
X190000000Y-147500000D02*
X180530964Y-138030964D01*
X147694700Y-138030964D02*
X146847536Y-137183800D01*
X146847536Y-137183800D02*
X137534700Y-137183800D01*
X180530964Y-138030964D02*
X147694700Y-138030964D01*
%TO.N,/RESET*%
X152847700Y-76150800D02*
X152847700Y-56702300D01*
X176148999Y-133476999D02*
X177615265Y-133476999D01*
X180340000Y-93980000D02*
X191770000Y-82550000D01*
X152847700Y-76150800D02*
X185370800Y-76150800D01*
X177615265Y-133476999D02*
X180340000Y-130752264D01*
X134185100Y-60526600D02*
X151328500Y-77670000D01*
X86973400Y-60526600D02*
X134185100Y-60526600D01*
X151328500Y-77670000D02*
X152847700Y-76150800D01*
X180340000Y-130752264D02*
X180340000Y-93980000D01*
X152847700Y-56702300D02*
X161417000Y-48133000D01*
X161417000Y-48133000D02*
X165130000Y-48133000D01*
X175260000Y-132588000D02*
X176148999Y-133476999D01*
X185370800Y-76150800D02*
X191770000Y-82550000D01*
X80000000Y-67500000D02*
X86973400Y-60526600D01*
%TO.N,Net-(SW3A-S)*%
X101622300Y-144172300D02*
X101622300Y-138030964D01*
X114950000Y-157500000D02*
X101622300Y-144172300D01*
X102493264Y-137160000D02*
X116838500Y-137160000D01*
X116838500Y-137160000D02*
X118308500Y-138630000D01*
X101622300Y-138030964D02*
X102493264Y-137160000D01*
%TO.N,Net-(SW5A-S)*%
X118722800Y-136502800D02*
X120848500Y-138628500D01*
X114217119Y-161407200D02*
X100965100Y-148155181D01*
X102221042Y-136502800D02*
X118722800Y-136502800D01*
X129950000Y-157500000D02*
X126042800Y-161407200D01*
X100965100Y-137758742D02*
X102221042Y-136502800D01*
X120848500Y-138628500D02*
X120848500Y-138630000D01*
X126042800Y-161407200D02*
X114217119Y-161407200D01*
X100965100Y-148155181D02*
X100965100Y-137758742D01*
%TO.N,Net-(SW7A-S)*%
X120604100Y-135845600D02*
X123388500Y-138630000D01*
X101948820Y-135845600D02*
X120604100Y-135845600D01*
X107374319Y-162064400D02*
X99060000Y-153750081D01*
X99060000Y-153750081D02*
X99060000Y-138734420D01*
X140385600Y-162064400D02*
X107374319Y-162064400D01*
X99060000Y-138734420D02*
X101948820Y-135845600D01*
X144950000Y-157500000D02*
X140385600Y-162064400D01*
%TO.N,Net-(SW8A-S)*%
X128268500Y-146050000D02*
X128270000Y-146050000D01*
X128268500Y-146050000D02*
X123388500Y-141170000D01*
X137160000Y-154940000D02*
X149890000Y-154940000D01*
X149890000Y-154940000D02*
X152450000Y-157500000D01*
X128270000Y-146050000D02*
X137160000Y-154940000D01*
%TO.N,/SCK*%
X168000000Y-130460000D02*
X170000000Y-132460000D01*
X168000000Y-129200000D02*
X168000000Y-130460000D01*
%TO.N,/MOSI*%
X174166200Y-131141800D02*
X172720000Y-132588000D01*
X177369800Y-131141800D02*
X174166200Y-131141800D01*
X178054000Y-131826000D02*
X177369800Y-131141800D01*
%TO.N,/D2*%
X154527200Y-128036200D02*
X154527200Y-118967200D01*
X110690000Y-103070000D02*
X103068500Y-103070000D01*
X161491000Y-135000000D02*
X154527200Y-128036200D01*
X154527200Y-118967200D02*
X152400000Y-116840000D01*
X124460000Y-116840000D02*
X110690000Y-103070000D01*
X152400000Y-116840000D02*
X124460000Y-116840000D01*
X162380000Y-135000000D02*
X161491000Y-135000000D01*
%TO.N,Net-(C1-PadTFT_DC)*%
X138628500Y-141170000D02*
X138430000Y-140971500D01*
X138430000Y-140971500D02*
X138430000Y-140970000D01*
%TO.N,Net-(U1-13)*%
X195200000Y-76800000D02*
X195200000Y-94360000D01*
X171613000Y-53213000D02*
X195200000Y-76800000D01*
X195200000Y-94360000D02*
X191770000Y-97790000D01*
X167670000Y-53213000D02*
X171613000Y-53213000D01*
%TD*%
M02*
