%TF.GenerationSoftware,KiCad,Pcbnew,8.0.6*%
%TF.CreationDate,2025-05-19T18:35:20-06:00*%
%TF.ProjectId,main V5,6d61696e-2056-4352-9e6b-696361645f70,rev?*%
%TF.SameCoordinates,Original*%
%TF.FileFunction,Legend,Bot*%
%TF.FilePolarity,Positive*%
%FSLAX46Y46*%
G04 Gerber Fmt 4.6, Leading zero omitted, Abs format (unit mm)*
G04 Created by KiCad (PCBNEW 8.0.6) date 2025-05-19 18:35:20*
%MOMM*%
%LPD*%
G01*
G04 APERTURE LIST*
%ADD10C,0.100000*%
%ADD11C,0.127000*%
G04 APERTURE END LIST*
D10*
X185272419Y-79208646D02*
X185272419Y-79827693D01*
X185272419Y-79827693D02*
X185653371Y-79494360D01*
X185653371Y-79494360D02*
X185653371Y-79637217D01*
X185653371Y-79637217D02*
X185700990Y-79732455D01*
X185700990Y-79732455D02*
X185748609Y-79780074D01*
X185748609Y-79780074D02*
X185843847Y-79827693D01*
X185843847Y-79827693D02*
X186081942Y-79827693D01*
X186081942Y-79827693D02*
X186177180Y-79780074D01*
X186177180Y-79780074D02*
X186224800Y-79732455D01*
X186224800Y-79732455D02*
X186272419Y-79637217D01*
X186272419Y-79637217D02*
X186272419Y-79351503D01*
X186272419Y-79351503D02*
X186224800Y-79256265D01*
X186224800Y-79256265D02*
X186177180Y-79208646D01*
X185605752Y-80161027D02*
X186272419Y-80399122D01*
X186272419Y-80399122D02*
X185605752Y-80637217D01*
X185272419Y-80922932D02*
X185272419Y-81541979D01*
X185272419Y-81541979D02*
X185653371Y-81208646D01*
X185653371Y-81208646D02*
X185653371Y-81351503D01*
X185653371Y-81351503D02*
X185700990Y-81446741D01*
X185700990Y-81446741D02*
X185748609Y-81494360D01*
X185748609Y-81494360D02*
X185843847Y-81541979D01*
X185843847Y-81541979D02*
X186081942Y-81541979D01*
X186081942Y-81541979D02*
X186177180Y-81494360D01*
X186177180Y-81494360D02*
X186224800Y-81446741D01*
X186224800Y-81446741D02*
X186272419Y-81351503D01*
X186272419Y-81351503D02*
X186272419Y-81065789D01*
X186272419Y-81065789D02*
X186224800Y-80970551D01*
X186224800Y-80970551D02*
X186177180Y-80922932D01*
X185748609Y-83065789D02*
X185796228Y-83208646D01*
X185796228Y-83208646D02*
X185843847Y-83256265D01*
X185843847Y-83256265D02*
X185939085Y-83303884D01*
X185939085Y-83303884D02*
X186081942Y-83303884D01*
X186081942Y-83303884D02*
X186177180Y-83256265D01*
X186177180Y-83256265D02*
X186224800Y-83208646D01*
X186224800Y-83208646D02*
X186272419Y-83113408D01*
X186272419Y-83113408D02*
X186272419Y-82732456D01*
X186272419Y-82732456D02*
X185272419Y-82732456D01*
X185272419Y-82732456D02*
X185272419Y-83065789D01*
X185272419Y-83065789D02*
X185320038Y-83161027D01*
X185320038Y-83161027D02*
X185367657Y-83208646D01*
X185367657Y-83208646D02*
X185462895Y-83256265D01*
X185462895Y-83256265D02*
X185558133Y-83256265D01*
X185558133Y-83256265D02*
X185653371Y-83208646D01*
X185653371Y-83208646D02*
X185700990Y-83161027D01*
X185700990Y-83161027D02*
X185748609Y-83065789D01*
X185748609Y-83065789D02*
X185748609Y-82732456D01*
X186272419Y-83732456D02*
X185605752Y-83732456D01*
X185796228Y-83732456D02*
X185700990Y-83780075D01*
X185700990Y-83780075D02*
X185653371Y-83827694D01*
X185653371Y-83827694D02*
X185605752Y-83922932D01*
X185605752Y-83922932D02*
X185605752Y-84018170D01*
X186272419Y-84351504D02*
X185605752Y-84351504D01*
X185272419Y-84351504D02*
X185320038Y-84303885D01*
X185320038Y-84303885D02*
X185367657Y-84351504D01*
X185367657Y-84351504D02*
X185320038Y-84399123D01*
X185320038Y-84399123D02*
X185272419Y-84351504D01*
X185272419Y-84351504D02*
X185367657Y-84351504D01*
X186272419Y-85256265D02*
X185272419Y-85256265D01*
X186224800Y-85256265D02*
X186272419Y-85161027D01*
X186272419Y-85161027D02*
X186272419Y-84970551D01*
X186272419Y-84970551D02*
X186224800Y-84875313D01*
X186224800Y-84875313D02*
X186177180Y-84827694D01*
X186177180Y-84827694D02*
X186081942Y-84780075D01*
X186081942Y-84780075D02*
X185796228Y-84780075D01*
X185796228Y-84780075D02*
X185700990Y-84827694D01*
X185700990Y-84827694D02*
X185653371Y-84875313D01*
X185653371Y-84875313D02*
X185605752Y-84970551D01*
X185605752Y-84970551D02*
X185605752Y-85161027D01*
X185605752Y-85161027D02*
X185653371Y-85256265D01*
X185605752Y-86161027D02*
X186415276Y-86161027D01*
X186415276Y-86161027D02*
X186510514Y-86113408D01*
X186510514Y-86113408D02*
X186558133Y-86065789D01*
X186558133Y-86065789D02*
X186605752Y-85970551D01*
X186605752Y-85970551D02*
X186605752Y-85827694D01*
X186605752Y-85827694D02*
X186558133Y-85732456D01*
X186224800Y-86161027D02*
X186272419Y-86065789D01*
X186272419Y-86065789D02*
X186272419Y-85875313D01*
X186272419Y-85875313D02*
X186224800Y-85780075D01*
X186224800Y-85780075D02*
X186177180Y-85732456D01*
X186177180Y-85732456D02*
X186081942Y-85684837D01*
X186081942Y-85684837D02*
X185796228Y-85684837D01*
X185796228Y-85684837D02*
X185700990Y-85732456D01*
X185700990Y-85732456D02*
X185653371Y-85780075D01*
X185653371Y-85780075D02*
X185605752Y-85875313D01*
X185605752Y-85875313D02*
X185605752Y-86065789D01*
X185605752Y-86065789D02*
X185653371Y-86161027D01*
X186224800Y-87018170D02*
X186272419Y-86922932D01*
X186272419Y-86922932D02*
X186272419Y-86732456D01*
X186272419Y-86732456D02*
X186224800Y-86637218D01*
X186224800Y-86637218D02*
X186129561Y-86589599D01*
X186129561Y-86589599D02*
X185748609Y-86589599D01*
X185748609Y-86589599D02*
X185653371Y-86637218D01*
X185653371Y-86637218D02*
X185605752Y-86732456D01*
X185605752Y-86732456D02*
X185605752Y-86922932D01*
X185605752Y-86922932D02*
X185653371Y-87018170D01*
X185653371Y-87018170D02*
X185748609Y-87065789D01*
X185748609Y-87065789D02*
X185843847Y-87065789D01*
X185843847Y-87065789D02*
X185939085Y-86589599D01*
X185672419Y-88580074D02*
X185672419Y-88103884D01*
X185672419Y-88103884D02*
X186148609Y-88056265D01*
X186148609Y-88056265D02*
X186100990Y-88103884D01*
X186100990Y-88103884D02*
X186053371Y-88199122D01*
X186053371Y-88199122D02*
X186053371Y-88437217D01*
X186053371Y-88437217D02*
X186100990Y-88532455D01*
X186100990Y-88532455D02*
X186148609Y-88580074D01*
X186148609Y-88580074D02*
X186243847Y-88627693D01*
X186243847Y-88627693D02*
X186481942Y-88627693D01*
X186481942Y-88627693D02*
X186577180Y-88580074D01*
X186577180Y-88580074D02*
X186624800Y-88532455D01*
X186624800Y-88532455D02*
X186672419Y-88437217D01*
X186672419Y-88437217D02*
X186672419Y-88199122D01*
X186672419Y-88199122D02*
X186624800Y-88103884D01*
X186624800Y-88103884D02*
X186577180Y-88056265D01*
X185672419Y-88913408D02*
X186672419Y-89246741D01*
X186672419Y-89246741D02*
X185672419Y-89580074D01*
X186148609Y-91008646D02*
X186196228Y-91151503D01*
X186196228Y-91151503D02*
X186243847Y-91199122D01*
X186243847Y-91199122D02*
X186339085Y-91246741D01*
X186339085Y-91246741D02*
X186481942Y-91246741D01*
X186481942Y-91246741D02*
X186577180Y-91199122D01*
X186577180Y-91199122D02*
X186624800Y-91151503D01*
X186624800Y-91151503D02*
X186672419Y-91056265D01*
X186672419Y-91056265D02*
X186672419Y-90675313D01*
X186672419Y-90675313D02*
X185672419Y-90675313D01*
X185672419Y-90675313D02*
X185672419Y-91008646D01*
X185672419Y-91008646D02*
X185720038Y-91103884D01*
X185720038Y-91103884D02*
X185767657Y-91151503D01*
X185767657Y-91151503D02*
X185862895Y-91199122D01*
X185862895Y-91199122D02*
X185958133Y-91199122D01*
X185958133Y-91199122D02*
X186053371Y-91151503D01*
X186053371Y-91151503D02*
X186100990Y-91103884D01*
X186100990Y-91103884D02*
X186148609Y-91008646D01*
X186148609Y-91008646D02*
X186148609Y-90675313D01*
X186672419Y-91675313D02*
X186005752Y-91675313D01*
X186196228Y-91675313D02*
X186100990Y-91722932D01*
X186100990Y-91722932D02*
X186053371Y-91770551D01*
X186053371Y-91770551D02*
X186005752Y-91865789D01*
X186005752Y-91865789D02*
X186005752Y-91961027D01*
X186672419Y-92294361D02*
X186005752Y-92294361D01*
X185672419Y-92294361D02*
X185720038Y-92246742D01*
X185720038Y-92246742D02*
X185767657Y-92294361D01*
X185767657Y-92294361D02*
X185720038Y-92341980D01*
X185720038Y-92341980D02*
X185672419Y-92294361D01*
X185672419Y-92294361D02*
X185767657Y-92294361D01*
X186672419Y-93199122D02*
X185672419Y-93199122D01*
X186624800Y-93199122D02*
X186672419Y-93103884D01*
X186672419Y-93103884D02*
X186672419Y-92913408D01*
X186672419Y-92913408D02*
X186624800Y-92818170D01*
X186624800Y-92818170D02*
X186577180Y-92770551D01*
X186577180Y-92770551D02*
X186481942Y-92722932D01*
X186481942Y-92722932D02*
X186196228Y-92722932D01*
X186196228Y-92722932D02*
X186100990Y-92770551D01*
X186100990Y-92770551D02*
X186053371Y-92818170D01*
X186053371Y-92818170D02*
X186005752Y-92913408D01*
X186005752Y-92913408D02*
X186005752Y-93103884D01*
X186005752Y-93103884D02*
X186053371Y-93199122D01*
X186005752Y-94103884D02*
X186815276Y-94103884D01*
X186815276Y-94103884D02*
X186910514Y-94056265D01*
X186910514Y-94056265D02*
X186958133Y-94008646D01*
X186958133Y-94008646D02*
X187005752Y-93913408D01*
X187005752Y-93913408D02*
X187005752Y-93770551D01*
X187005752Y-93770551D02*
X186958133Y-93675313D01*
X186624800Y-94103884D02*
X186672419Y-94008646D01*
X186672419Y-94008646D02*
X186672419Y-93818170D01*
X186672419Y-93818170D02*
X186624800Y-93722932D01*
X186624800Y-93722932D02*
X186577180Y-93675313D01*
X186577180Y-93675313D02*
X186481942Y-93627694D01*
X186481942Y-93627694D02*
X186196228Y-93627694D01*
X186196228Y-93627694D02*
X186100990Y-93675313D01*
X186100990Y-93675313D02*
X186053371Y-93722932D01*
X186053371Y-93722932D02*
X186005752Y-93818170D01*
X186005752Y-93818170D02*
X186005752Y-94008646D01*
X186005752Y-94008646D02*
X186053371Y-94103884D01*
X186624800Y-94961027D02*
X186672419Y-94865789D01*
X186672419Y-94865789D02*
X186672419Y-94675313D01*
X186672419Y-94675313D02*
X186624800Y-94580075D01*
X186624800Y-94580075D02*
X186529561Y-94532456D01*
X186529561Y-94532456D02*
X186148609Y-94532456D01*
X186148609Y-94532456D02*
X186053371Y-94580075D01*
X186053371Y-94580075D02*
X186005752Y-94675313D01*
X186005752Y-94675313D02*
X186005752Y-94865789D01*
X186005752Y-94865789D02*
X186053371Y-94961027D01*
X186053371Y-94961027D02*
X186148609Y-95008646D01*
X186148609Y-95008646D02*
X186243847Y-95008646D01*
X186243847Y-95008646D02*
X186339085Y-94532456D01*
D11*
%TO.C,U$1*%
X118308500Y-90370000D02*
X118308500Y-103070000D01*
X118308500Y-103070000D02*
X131008500Y-103070000D01*
X131008500Y-90370000D02*
X118308500Y-90370000D01*
X131008500Y-103070000D02*
X131008500Y-90370000D01*
%TD*%
M02*
