%TF.GenerationSoftware,KiCad,Pcbnew,8.0.6*%
%TF.CreationDate,2025-05-19T18:35:20-06:00*%
%TF.ProjectId,main V5,6d61696e-2056-4352-9e6b-696361645f70,rev?*%
%TF.SameCoordinates,Original*%
%TF.FileFunction,Soldermask,Top*%
%TF.FilePolarity,Negative*%
%FSLAX46Y46*%
G04 Gerber Fmt 4.6, Leading zero omitted, Abs format (unit mm)*
G04 Created by KiCad (PCBNEW 8.0.6) date 2025-05-19 18:35:20*
%MOMM*%
%LPD*%
G01*
G04 APERTURE LIST*
G04 Aperture macros list*
%AMRoundRect*
0 Rectangle with rounded corners*
0 $1 Rounding radius*
0 $2 $3 $4 $5 $6 $7 $8 $9 X,Y pos of 4 corners*
0 Add a 4 corners polygon primitive as box body*
4,1,4,$2,$3,$4,$5,$6,$7,$8,$9,$2,$3,0*
0 Add four circle primitives for the rounded corners*
1,1,$1+$1,$2,$3*
1,1,$1+$1,$4,$5*
1,1,$1+$1,$6,$7*
1,1,$1+$1,$8,$9*
0 Add four rect primitives between the rounded corners*
20,1,$1+$1,$2,$3,$4,$5,0*
20,1,$1+$1,$4,$5,$6,$7,0*
20,1,$1+$1,$6,$7,$8,$9,0*
20,1,$1+$1,$8,$9,$2,$3,0*%
%AMFreePoly0*
4,1,25,0.427955,0.971196,0.440078,0.960842,0.960842,0.440078,0.989349,0.384130,0.990600,0.368236,0.990600,-0.368236,0.971196,-0.427955,0.960842,-0.440078,0.440078,-0.960842,0.384130,-0.989349,0.368236,-0.990600,-0.368236,-0.990600,-0.427955,-0.971196,-0.440078,-0.960842,-0.960842,-0.440078,-0.989349,-0.384130,-0.990600,-0.368236,-0.990600,0.368236,-0.971196,0.427955,-0.960842,0.440078,
-0.440078,0.960842,-0.384130,0.989349,-0.368236,0.990600,0.368236,0.990600,0.427955,0.971196,0.427955,0.971196,$1*%
%AMFreePoly1*
4,1,19,0.500000,-0.750000,0.000000,-0.750000,0.000000,-0.744911,-0.071157,-0.744911,-0.207708,-0.704816,-0.327430,-0.627875,-0.420627,-0.520320,-0.479746,-0.390866,-0.500000,-0.250000,-0.500000,0.250000,-0.479746,0.390866,-0.420627,0.520320,-0.327430,0.627875,-0.207708,0.704816,-0.071157,0.744911,0.000000,0.744911,0.000000,0.750000,0.500000,0.750000,0.500000,-0.750000,0.500000,-0.750000,
$1*%
%AMFreePoly2*
4,1,19,0.000000,0.744911,0.071157,0.744911,0.207708,0.704816,0.327430,0.627875,0.420627,0.520320,0.479746,0.390866,0.500000,0.250000,0.500000,-0.250000,0.479746,-0.390866,0.420627,-0.520320,0.327430,-0.627875,0.207708,-0.704816,0.071157,-0.744911,0.000000,-0.744911,0.000000,-0.750000,-0.500000,-0.750000,-0.500000,0.750000,0.000000,0.750000,0.000000,0.744911,0.000000,0.744911,
$1*%
%AMFreePoly3*
4,1,6,1.000000,0.000000,0.500000,-0.750000,-0.500000,-0.750000,-0.500000,0.750000,0.500000,0.750000,1.000000,0.000000,1.000000,0.000000,$1*%
%AMFreePoly4*
4,1,6,0.500000,-0.750000,-0.650000,-0.750000,-0.150000,0.000000,-0.650000,0.750000,0.500000,0.750000,0.500000,-0.750000,0.500000,-0.750000,$1*%
G04 Aperture macros list end*
%ADD10C,1.400000*%
%ADD11O,1.400000X1.400000*%
%ADD12RoundRect,0.101600X-0.889000X-0.889000X0.889000X-0.889000X0.889000X0.889000X-0.889000X0.889000X0*%
%ADD13FreePoly0,0.000000*%
%ADD14R,3.500000X3.500000*%
%ADD15RoundRect,0.750000X-1.000000X0.750000X-1.000000X-0.750000X1.000000X-0.750000X1.000000X0.750000X0*%
%ADD16RoundRect,0.875000X-0.875000X0.875000X-0.875000X-0.875000X0.875000X-0.875000X0.875000X0.875000X0*%
%ADD17RoundRect,0.250000X-0.750000X0.600000X-0.750000X-0.600000X0.750000X-0.600000X0.750000X0.600000X0*%
%ADD18O,2.000000X1.700000*%
%ADD19C,3.200000*%
%ADD20RoundRect,0.250000X-0.600000X-0.750000X0.600000X-0.750000X0.600000X0.750000X-0.600000X0.750000X0*%
%ADD21O,1.700000X2.000000*%
%ADD22RoundRect,0.250000X0.600000X0.750000X-0.600000X0.750000X-0.600000X-0.750000X0.600000X-0.750000X0*%
%ADD23FreePoly1,90.000000*%
%ADD24FreePoly2,90.000000*%
%ADD25FreePoly0,90.000000*%
%ADD26RoundRect,0.101600X0.889000X-0.889000X0.889000X0.889000X-0.889000X0.889000X-0.889000X-0.889000X0*%
%ADD27R,2.400000X2.400000*%
%ADD28O,2.400000X2.400000*%
%ADD29FreePoly1,270.000000*%
%ADD30FreePoly2,270.000000*%
%ADD31FreePoly3,90.000000*%
%ADD32FreePoly4,90.000000*%
%ADD33RoundRect,0.102000X-0.889000X-0.889000X0.889000X-0.889000X0.889000X0.889000X-0.889000X0.889000X0*%
%ADD34C,1.982000*%
%ADD35FreePoly1,180.000000*%
%ADD36FreePoly2,180.000000*%
%ADD37R,1.500000X1.050000*%
%ADD38O,1.500000X1.050000*%
%ADD39R,3.000000X3.000000*%
%ADD40C,3.000000*%
%ADD41FreePoly0,180.000000*%
%ADD42RoundRect,0.101600X0.889000X0.889000X-0.889000X0.889000X-0.889000X-0.889000X0.889000X-0.889000X0*%
%ADD43C,1.905000*%
%ADD44R,1.600000X1.600000*%
%ADD45C,1.600000*%
%ADD46R,1.778000X1.524000*%
%ADD47C,1.778000*%
%ADD48C,1.981200*%
G04 APERTURE END LIST*
D10*
%TO.C,R7*%
X164200000Y-71000000D03*
D11*
X171820000Y-71000000D03*
%TD*%
D12*
%TO.C,U$2*%
X184960000Y-125000000D03*
D13*
X187500000Y-125000000D03*
X190040000Y-125000000D03*
X192580000Y-125000000D03*
%TD*%
D10*
%TO.C,Neopixel Resistor1*%
X95600000Y-119990000D03*
D11*
X95600000Y-127610000D03*
%TD*%
D14*
%TO.C,J1*%
X82500000Y-53500000D03*
D15*
X82500000Y-47500000D03*
D16*
X77800000Y-50500000D03*
%TD*%
D17*
%TO.C,SW6*%
X137500000Y-157500000D03*
D18*
X137500000Y-160000000D03*
%TD*%
D17*
%TO.C,SW4*%
X122450000Y-157500000D03*
D18*
X122450000Y-160000000D03*
%TD*%
D17*
%TO.C,SW1*%
X99950000Y-157500000D03*
D18*
X99950000Y-160000000D03*
%TD*%
D19*
%TO.C,H5*%
X191800000Y-156600000D03*
%TD*%
D10*
%TO.C,R2*%
X182500000Y-118810000D03*
D11*
X182500000Y-111190000D03*
%TD*%
D20*
%TO.C,POWER_LED0*%
X90000000Y-67500000D03*
D21*
X92500000Y-67500000D03*
%TD*%
D10*
%TO.C,R6*%
X164190000Y-74400000D03*
D11*
X171810000Y-74400000D03*
%TD*%
D22*
%TO.C,JACK_CON3*%
X177500000Y-147500000D03*
D21*
X175000000Y-147500000D03*
%TD*%
D22*
%TO.C,JACK_CON1*%
X165000000Y-147500000D03*
D21*
X162500000Y-147500000D03*
%TD*%
D23*
%TO.C,JP3*%
X188000000Y-90850000D03*
D24*
X188000000Y-89550000D03*
%TD*%
D22*
%TO.C,SECTION_2_BUTTON0*%
X92500000Y-95000000D03*
D21*
X90000000Y-95000000D03*
%TD*%
D17*
%TO.C,SW5*%
X129950000Y-157500000D03*
D18*
X129950000Y-160000000D03*
%TD*%
D20*
%TO.C,RESET0*%
X80000000Y-67500000D03*
D21*
X82500000Y-67500000D03*
%TD*%
D19*
%TO.C,H2*%
X78400000Y-144400000D03*
%TD*%
D10*
%TO.C,R4*%
X165990000Y-83800000D03*
D11*
X173610000Y-83800000D03*
%TD*%
D20*
%TO.C,PWR_IN0*%
X70000000Y-67500000D03*
D21*
X72500000Y-67500000D03*
%TD*%
D25*
%TO.C,11*%
X167670000Y-43053000D03*
X165130000Y-43053000D03*
D26*
X165130000Y-53213000D03*
D25*
X165130000Y-45593000D03*
X165130000Y-50673000D03*
X167670000Y-45593000D03*
X167670000Y-48133000D03*
X165130000Y-48133000D03*
X167670000Y-53213000D03*
X167670000Y-50673000D03*
%TD*%
D27*
%TO.C,D2*%
X160000000Y-125160000D03*
D28*
X160000000Y-115000000D03*
%TD*%
D17*
%TO.C,SW3*%
X114950000Y-157500000D03*
D18*
X114950000Y-160000000D03*
%TD*%
D22*
%TO.C,JACK_CON5*%
X190000000Y-147500000D03*
D21*
X187500000Y-147500000D03*
%TD*%
D29*
%TO.C,JP5*%
X171000000Y-119500000D03*
D30*
X171000000Y-120800000D03*
%TD*%
D17*
%TO.C,SW2*%
X107450000Y-157500000D03*
D18*
X107450000Y-160000000D03*
%TD*%
D31*
%TO.C,JP4*%
X187800000Y-83325000D03*
D32*
X187800000Y-81875000D03*
%TD*%
D33*
%TO.C,C1*%
X162560000Y-132588000D03*
D34*
X165100000Y-132588000D03*
X167640000Y-132588000D03*
X172720000Y-135128000D03*
X172720000Y-132588000D03*
X175260000Y-132588000D03*
X170180000Y-132588000D03*
X170180000Y-135128000D03*
X162560000Y-135128000D03*
X167640000Y-135128000D03*
X165100000Y-135128000D03*
X175260000Y-135128000D03*
%TD*%
D23*
%TO.C,JP7*%
X93000000Y-124500000D03*
D24*
X93000000Y-123200000D03*
%TD*%
D10*
%TO.C,R1*%
X91190000Y-57500000D03*
D11*
X98810000Y-57500000D03*
%TD*%
D17*
%TO.C,SW8*%
X152450000Y-157500000D03*
D18*
X152450000Y-160000000D03*
%TD*%
D12*
%TO.C,U$4*%
X79960000Y-157460000D03*
D13*
X82500000Y-157460000D03*
X85040000Y-157460000D03*
X87580000Y-157460000D03*
X79960000Y-160000000D03*
X82500000Y-160000000D03*
X85040000Y-160000000D03*
X87580000Y-160000000D03*
%TD*%
D35*
%TO.C,JP2*%
X173250000Y-80000000D03*
D36*
X171950000Y-80000000D03*
%TD*%
D37*
%TO.C,Q2*%
X161000000Y-74000000D03*
D38*
X161000000Y-72730000D03*
X161000000Y-71460000D03*
%TD*%
D17*
%TO.C,SW7*%
X144950000Y-157500000D03*
D18*
X144950000Y-160000000D03*
%TD*%
D39*
%TO.C,X1*%
X69400000Y-148590000D03*
D40*
X69400000Y-153670000D03*
X69400000Y-158750000D03*
%TD*%
D19*
%TO.C,H1*%
X71800000Y-46200000D03*
%TD*%
D41*
%TO.C,U$1*%
X151328500Y-80210000D03*
X151328500Y-82750000D03*
X103068500Y-138630000D03*
X103068500Y-141170000D03*
X151328500Y-95450000D03*
X151328500Y-97990000D03*
X151328500Y-100530000D03*
X151328500Y-103070000D03*
X151328500Y-105610000D03*
X151328500Y-108150000D03*
X151328500Y-110690000D03*
X151328500Y-113230000D03*
X151328500Y-118310000D03*
X151328500Y-120850000D03*
X151328500Y-123390000D03*
X151328500Y-125930000D03*
X151328500Y-128470000D03*
X151328500Y-131010000D03*
X151328500Y-133550000D03*
X151328500Y-136090000D03*
X103068500Y-68780000D03*
X103068500Y-108150000D03*
X103068500Y-105610000D03*
X103068500Y-103070000D03*
X103068500Y-100530000D03*
X103068500Y-97990000D03*
X103068500Y-95450000D03*
X103068500Y-92910000D03*
X103068500Y-90370000D03*
X103068500Y-86560000D03*
X103068500Y-84020000D03*
X103068500Y-81480000D03*
X103068500Y-78940000D03*
X103068500Y-76400000D03*
X103068500Y-73860000D03*
X103068500Y-113230000D03*
X103068500Y-115770000D03*
X103068500Y-118310000D03*
X103068500Y-120850000D03*
X103068500Y-123390000D03*
X103068500Y-125930000D03*
X103068500Y-128470000D03*
X103068500Y-131010000D03*
X105608500Y-138630000D03*
X105608500Y-141170000D03*
X108148500Y-138630000D03*
X108148500Y-141170000D03*
X110688500Y-138630000D03*
X110688500Y-141170000D03*
X113228500Y-138630000D03*
X113228500Y-141170000D03*
X115768500Y-138630000D03*
X115768500Y-141170000D03*
X118308500Y-138630000D03*
X118308500Y-141170000D03*
X120848500Y-138630000D03*
X120848500Y-141170000D03*
X123388500Y-138630000D03*
X123388500Y-141170000D03*
X125928500Y-138630000D03*
X125928500Y-141170000D03*
X128468500Y-138630000D03*
X128468500Y-141170000D03*
X131008500Y-138630000D03*
X131008500Y-141170000D03*
X133548500Y-138630000D03*
X133548500Y-141170000D03*
X136088500Y-138630000D03*
X136088500Y-141170000D03*
X138628500Y-138630000D03*
X138628500Y-141170000D03*
X141168500Y-138630000D03*
X141168500Y-141170000D03*
X143708500Y-138630000D03*
X143708500Y-141170000D03*
X103068500Y-71320000D03*
X151328500Y-87830000D03*
X151328500Y-85290000D03*
X146248500Y-138630000D03*
X146248500Y-141170000D03*
X151328500Y-75130000D03*
X151328500Y-77670000D03*
D42*
X103068500Y-63700000D03*
D41*
X103068500Y-66240000D03*
X151328500Y-90370000D03*
%TD*%
D19*
%TO.C,H3*%
X193000000Y-45600000D03*
%TD*%
D43*
%TO.C,U2*%
X168200000Y-99000000D03*
%TD*%
D22*
%TO.C,JACK_CON2*%
X170000000Y-157500000D03*
D21*
X167500000Y-157500000D03*
%TD*%
D44*
%TO.C,C2*%
X80740126Y-131674000D03*
X81411063Y-133274000D03*
D45*
X83911063Y-133274000D03*
X84582000Y-134874000D03*
%TD*%
D22*
%TO.C,SECTION_1_BUTTON0*%
X92500000Y-102500000D03*
D21*
X90000000Y-102500000D03*
%TD*%
D35*
%TO.C,JP1*%
X173250000Y-77400000D03*
D36*
X171950000Y-77400000D03*
%TD*%
D46*
%TO.C,U1*%
X176530000Y-77470000D03*
D47*
X176530000Y-80010000D03*
X176530000Y-82550000D03*
X176530000Y-85090000D03*
X176530000Y-87630000D03*
X176530000Y-90170000D03*
X176530000Y-92710000D03*
X176530000Y-95250000D03*
X176530000Y-97790000D03*
X176530000Y-100330000D03*
X176530000Y-102870000D03*
X176530000Y-105410000D03*
X191770000Y-105410000D03*
X191770000Y-102870000D03*
X191770000Y-100330000D03*
X191770000Y-97790000D03*
X191770000Y-95250000D03*
X191770000Y-92710000D03*
X191770000Y-90170000D03*
X191770000Y-87630000D03*
X191770000Y-85090000D03*
X191770000Y-82550000D03*
X191770000Y-80010000D03*
X191770000Y-77470000D03*
%TD*%
D22*
%TO.C,JACK_CON4*%
X182500000Y-157500000D03*
D21*
X180000000Y-157500000D03*
%TD*%
D10*
%TO.C,R3*%
X187500000Y-111190000D03*
D11*
X187500000Y-118810000D03*
%TD*%
D37*
%TO.C,Q1*%
X162000000Y-84050000D03*
D38*
X162000000Y-85320000D03*
X162000000Y-86590000D03*
%TD*%
D48*
%TO.C,U$5*%
X192500000Y-135000000D03*
D13*
X184880000Y-135000000D03*
D48*
X187420000Y-135000000D03*
X195040000Y-135000000D03*
X189960000Y-135000000D03*
%TD*%
D22*
%TO.C,SECTION_3_BUTTON0*%
X92500000Y-87500000D03*
D21*
X90000000Y-87500000D03*
%TD*%
D10*
%TO.C,R5*%
X165990000Y-86950000D03*
D11*
X173610000Y-86950000D03*
%TD*%
D27*
%TO.C,D1*%
X167500000Y-125160000D03*
D28*
X167500000Y-115000000D03*
%TD*%
D19*
%TO.C,H4*%
X136600000Y-107800000D03*
%TD*%
D23*
%TO.C,JP6*%
X156600000Y-120800000D03*
D24*
X156600000Y-119500000D03*
%TD*%
M02*
